<svg width="219" height="349" viewBox="0 0 219 349" fill="none" xmlns="http://www.w3.org/2000/svg">
<g clip-path="url(#clip0_358_89)">
<path d="M0.135766 252.779L0.067766 252.792C0.190766 250.953 0.380766 249.061 0.618766 247.133C2.07077 253.818 5.38977 259.757 10.1488 264.656C20.7488 275.568 38.3028 281.195 57.9548 278.512C68.4468 277.08 78.1898 273.45 86.5058 268.353C86.8508 268.142 87.1968 267.933 87.5368 267.717H87.5398L87.6938 267.614C88.7528 266.936 89.7828 266.23 90.7908 265.505L113.986 249.711L115.522 248.665C115.543 248.651 115.565 248.637 115.586 248.623C123.527 243.388 132.838 239.799 142.699 238.621C169.481 235.421 190.512 251.197 190.442 273.868C190.432 277.19 189.963 280.486 189.108 283.713C188.002 287.888 186.232 291.946 183.897 295.781C183.776 295.913 183.651 296.048 183.53 296.181C181.42 298.488 179.163 300.893 176.754 303.379C173.487 306.75 169.94 310.27 166.119 313.888C160.052 319.633 153.286 325.632 145.8 331.694L144.358 332.868C134.671 341.314 126.726 346.034 115.356 348.106C103.831 350.206 95.6658 348.345 85.5588 343.231L84.0318 342.546C49.1928 327.064 26.8748 306.791 18.8538 299.169C18.4628 298.806 18.0828 298.434 17.7018 298.062C16.5298 296.921 15.9188 296.279 15.9188 296.279H15.9248C5.55477 285.317 -0.368234 271.088 0.017766 254.896C0.034766 254.189 0.094766 253.485 0.135766 252.779Z" fill="url(#paint0_linear_358_89)"/>
<path opacity="0.49" d="M115.585 248.624C115.564 248.638 115.542 248.652 115.521 248.666L115.584 248.623L115.585 248.624Z" fill="#DE6CA6"/>
<path d="M2.72114 234.91C4.16614 228.19 6.10914 221.139 8.43614 213.896C15.9331 190.558 27.3231 165.419 38.6581 143.104C36.4091 148.6 35.1291 154.399 35.0081 160.351C34.8851 166.43 35.9891 172.196 38.1111 177.521C39.7241 181.567 41.9191 185.352 44.6381 188.808C54.5641 201.421 71.1901 209.568 90.4821 210.616C94.4831 210.833 98.5871 210.759 102.774 210.34C105.275 210.09 107.735 209.718 110.153 209.253C110.931 209.103 111.707 208.947 112.476 208.776L112.482 208.78L145.231 202.337L145.227 202.343C147.459 201.921 149.716 201.59 151.997 201.367C185.781 198.067 212.157 218.536 212.136 247.127C212.135 248.43 212.062 249.726 211.955 251.02C211.618 255.096 210.781 259.122 209.467 263.038C208.292 265.1 207.029 267.13 205.66 269.112L205.664 269.11C205.664 269.11 205.161 269.835 204.197 271.146C203.883 271.574 203.57 272.002 203.247 272.425C199.896 276.9 193.428 285.324 183.896 295.783C186.232 291.947 188.002 287.889 189.107 283.715C189.961 280.488 190.43 277.192 190.441 273.87C190.511 251.2 169.48 235.423 142.698 238.623C132.837 239.801 123.525 243.39 115.585 248.625C107.645 253.86 115.522 248.667 115.522 248.667C115.004 249.009 114.492 249.357 113.986 249.713L90.7911 265.507L87.6941 267.616L87.5401 267.721H87.5371C87.1971 267.936 86.8511 268.145 86.5061 268.356C78.1901 273.453 68.4461 277.083 57.9551 278.515C38.3031 281.197 20.7491 275.57 10.1491 264.659C5.39014 259.76 2.07214 253.822 0.619141 247.136C1.10114 243.221 1.81414 239.133 2.72214 234.912L2.72114 234.91Z" fill="url(#paint1_linear_358_89)"/>
<path d="M73.3962 81.208C75.9692 77.036 77.4752 74.694 77.4752 74.694L78.8762 72.484C84.1392 64.086 91.2572 53.477 100.198 46.599C104.898 42.983 110.098 40.406 115.795 39.724C116.781 39.606 117.779 39.537 118.795 39.537C136.476 39.537 148.661 58.201 156.227 71.011L157.458 73.07C157.458 73.07 169.856 93.485 183.472 120.828C192.965 139.893 203.045 162.323 210.026 183.75C201.105 167.87 185.915 155.348 166.736 148.204C165.521 147.751 164.284 147.328 163.037 146.919C161.977 146.571 160.899 146.251 159.817 145.935C159.392 145.81 158.973 145.673 158.544 145.554C158.345 145.499 158.143 145.447 157.943 145.393C157.631 145.308 157.311 145.236 156.997 145.154C155.951 144.881 154.905 144.606 153.839 144.362C152.508 144.058 151.16 143.781 149.8 143.524C147.137 143.022 144.413 142.626 141.644 142.313C141.25 142.269 140.863 142.212 140.467 142.171C140.284 142.152 140.101 142.131 139.917 142.113C138.453 141.97 136.976 141.853 135.485 141.764C135.32 141.754 135.154 141.747 134.989 141.738C133.461 141.653 131.922 141.591 130.367 141.564V141.543C104.962 140.87 83.5592 127.435 75.5612 107.994C73.3272 102.563 72.1422 96.701 72.2422 90.556C72.2942 87.373 72.7022 84.252 73.4002 81.208H73.3962Z" fill="url(#paint2_linear_358_89)"/>
<path d="M73.3962 81.208C75.9692 77.036 77.4752 74.694 77.4752 74.694L78.8762 72.484C84.1392 64.086 91.2572 53.477 100.198 46.599C104.898 42.983 110.098 40.406 115.795 39.724C116.781 39.606 117.779 39.537 118.795 39.537C136.476 39.537 148.661 58.201 156.227 71.011L157.458 73.07C157.458 73.07 169.856 93.485 183.472 120.828C192.965 139.893 203.045 162.323 210.026 183.75C201.105 167.87 185.915 155.348 166.736 148.204C165.521 147.751 164.284 147.328 163.037 146.919C161.977 146.571 160.899 146.251 159.817 145.935C159.392 145.81 158.973 145.673 158.544 145.554C158.345 145.499 158.143 145.447 157.943 145.393C157.631 145.308 157.311 145.236 156.997 145.154C155.951 144.881 154.905 144.606 153.839 144.362C152.508 144.058 151.16 143.781 149.8 143.524C147.137 143.022 144.413 142.626 141.644 142.313C141.25 142.269 140.863 142.212 140.467 142.171C140.284 142.152 140.101 142.131 139.917 142.113C138.453 141.97 136.976 141.853 135.485 141.764C135.32 141.754 135.154 141.747 134.989 141.738C133.461 141.653 131.922 141.591 130.367 141.564V141.543C104.962 140.87 83.5592 127.435 75.5612 107.994C73.3272 102.563 72.1422 96.701 72.2422 90.556C72.2942 87.373 72.7022 84.252 73.4002 81.208H73.3962Z" fill="url(#paint3_linear_358_89)"/>
<path opacity="0.49" d="M139.915 142.113C140.099 142.131 140.282 142.152 140.465 142.171C140.282 142.152 140.099 142.132 139.915 142.113Z" fill="#9E403E"/>
<path opacity="0.49" d="M139.915 142.113C140.099 142.131 140.282 142.152 140.465 142.171C140.282 142.152 140.099 142.132 139.915 142.113Z" fill="#DE6CA6"/>
<path opacity="0.49" d="M149.092 143.393C147.693 143.139 146.282 142.903 144.853 142.7C143.794 142.549 142.719 142.432 141.643 142.312C144.412 142.625 147.136 143.021 149.799 143.523C149.564 143.479 149.328 143.436 149.093 143.393H149.092Z" fill="#9E403E"/>
<path opacity="0.49" d="M149.092 143.393C147.693 143.139 146.282 142.903 144.853 142.7C143.794 142.549 142.719 142.432 141.643 142.312C144.412 142.625 147.136 143.021 149.799 143.523C149.564 143.479 149.328 143.436 149.093 143.393H149.092Z" fill="#DE6CA6"/>
<path opacity="0.49" d="M154.274 144.466C154.128 144.432 153.983 144.395 153.837 144.361C154.902 144.604 155.949 144.879 156.995 145.153C156.093 144.917 155.19 144.68 154.274 144.466Z" fill="#9E403E"/>
<path opacity="0.49" d="M154.274 144.466C154.128 144.432 153.983 144.395 153.837 144.361C154.902 144.604 155.949 144.879 156.995 145.153C156.093 144.917 155.19 144.68 154.274 144.466Z" fill="#DE6CA6"/>
<path d="M38.6584 143.103C39.8224 140.257 41.2544 137.499 42.9154 134.842C55.4914 110.788 67.4044 90.923 73.3964 81.208C72.6984 84.252 72.2894 87.373 72.2384 90.556C72.1384 96.701 73.3234 102.563 75.5574 107.994C83.5554 127.434 104.958 140.87 130.362 141.543V141.564C131.918 141.591 133.457 141.653 134.985 141.738C135.15 141.747 135.316 141.754 135.481 141.764C136.972 141.853 138.45 141.97 139.915 142.113C140.099 142.131 140.282 142.152 140.465 142.171C140.861 142.212 141.249 142.269 141.642 142.313C142.717 142.433 143.792 142.55 144.851 142.701H144.852C146.281 142.904 147.692 143.14 149.091 143.395C149.327 143.438 149.563 143.481 149.797 143.525C151.157 143.782 152.505 144.059 153.836 144.363C153.982 144.397 154.127 144.434 154.273 144.468C155.189 144.682 156.092 144.919 156.993 145.155C157.307 145.237 157.627 145.309 157.939 145.394C158.139 145.448 158.341 145.499 158.54 145.555C158.969 145.674 159.387 145.812 159.813 145.936C160.635 146.177 161.459 146.412 162.268 146.67C162.524 146.752 162.778 146.836 163.033 146.92C164.281 147.329 165.517 147.753 166.732 148.205C185.911 155.349 201.101 167.871 210.022 183.751C214.613 197.844 217.879 211.554 218.777 223.696C218.859 224.804 218.928 225.903 218.97 226.984L218.918 226.986C218.936 227.6 218.97 228.208 218.97 228.828C218.97 240.723 215.532 252.387 209.464 263.037C210.778 259.121 211.616 255.096 211.952 251.019C212.059 249.726 212.132 248.429 212.133 247.126C212.154 218.535 185.778 198.066 151.994 201.366C149.713 201.589 147.455 201.92 145.224 202.342L145.228 202.336L112.479 208.779L112.473 208.775C111.704 208.946 110.929 209.103 110.15 209.252C107.732 209.717 105.273 210.089 102.771 210.339C98.5854 210.758 94.4804 210.832 90.4794 210.615C71.1874 209.568 54.5614 201.42 44.6354 188.807C41.9164 185.352 39.7204 181.566 38.1084 177.52C35.9864 172.196 34.8824 166.429 35.0054 160.35C35.1254 154.398 36.4064 148.599 38.6554 143.103H38.6584Z" fill="url(#paint4_linear_358_89)"/>
<path opacity="0.49" d="M162.27 146.668C161.461 146.41 160.637 146.174 159.815 145.934C160.898 146.25 161.975 146.57 163.035 146.918C162.78 146.834 162.526 146.75 162.27 146.668Z" fill="#9E403E"/>
<path opacity="0.49" d="M162.27 146.668C161.461 146.41 160.637 146.174 159.815 145.934C160.898 146.25 161.975 146.57 163.035 146.918C162.78 146.834 162.526 146.75 162.27 146.668Z" fill="#DE6CA6"/>
<path opacity="0.49" d="M157.941 145.392C158.141 145.446 158.342 145.498 158.542 145.553C158.343 145.498 158.141 145.446 157.941 145.392Z" fill="#9E403E"/>
<path opacity="0.49" d="M157.941 145.392C158.141 145.446 158.342 145.498 158.542 145.553C158.343 145.498 158.141 145.446 157.941 145.392Z" fill="#DE6CA6"/>
<path fill-rule="evenodd" clip-rule="evenodd" d="M92.9229 0H97.9229V5H92.9229V0Z" fill="#5DB947"/>
<path fill-rule="evenodd" clip-rule="evenodd" d="M107.923 10H112.923V15H107.923V10Z" fill="#D1FFC6"/>
<path fill-rule="evenodd" clip-rule="evenodd" d="M112.923 10H117.923V15H112.923V10Z" fill="#D1FFC6"/>
<path fill-rule="evenodd" clip-rule="evenodd" d="M112.923 15H117.923V20H112.923V15Z" fill="#D1FFC6"/>
<path fill-rule="evenodd" clip-rule="evenodd" d="M112.923 5H117.923V10H112.923V5Z" fill="#8EEF77"/>
<path fill-rule="evenodd" clip-rule="evenodd" d="M107.923 5H112.923V10H107.923V5Z" fill="#8EEF77"/>
<path fill-rule="evenodd" clip-rule="evenodd" d="M102.923 5H107.923V10H102.923V5Z" fill="#8EEF77"/>
<path fill-rule="evenodd" clip-rule="evenodd" d="M112.923 20H117.923V25H112.923V20Z" fill="#5DB947"/>
<path fill-rule="evenodd" clip-rule="evenodd" d="M107.923 15H112.923V20H107.923V15Z" fill="#5DB947"/>
<path fill-rule="evenodd" clip-rule="evenodd" d="M102.923 10H107.923V15H102.923V10Z" fill="#5DB947"/>
<path fill-rule="evenodd" clip-rule="evenodd" d="M97.9229 5H102.923V10H97.9229V5Z" fill="#5DB947"/>
<path fill-rule="evenodd" clip-rule="evenodd" d="M97.9229 0H102.923V5H97.9229V0Z" fill="#5DB947"/>
<path fill-rule="evenodd" clip-rule="evenodd" d="M102.923 0H107.923V5H102.923V0Z" fill="#5DB947"/>
<path fill-rule="evenodd" clip-rule="evenodd" d="M107.923 0H112.923V5H107.923V0Z" fill="#5DB947"/>
<path fill-rule="evenodd" clip-rule="evenodd" d="M112.923 0H117.923V5H112.923V0Z" fill="#5DB947"/>
<path fill-rule="evenodd" clip-rule="evenodd" d="M117.923 35H122.923V40H117.923V35Z" fill="#63DF45"/>
<path fill-rule="evenodd" clip-rule="evenodd" d="M117.923 30H122.923V35H117.923V30Z" fill="#63DF45"/>
<path fill-rule="evenodd" clip-rule="evenodd" d="M117.923 25H122.923V30H117.923V25Z" fill="#63DF45"/>
<path fill-rule="evenodd" clip-rule="evenodd" d="M117.923 20H122.923V25H117.923V20Z" fill="#63DF45"/>
<path fill-rule="evenodd" clip-rule="evenodd" d="M117.923 15H122.923V20H117.923V15Z" fill="#63DF45"/>
<path fill-rule="evenodd" clip-rule="evenodd" d="M117.923 10H122.923V15H117.923V10Z" fill="#63DF45"/>
<path fill-rule="evenodd" clip-rule="evenodd" d="M117.923 5H122.923V10H117.923V5Z" fill="#63DF45"/>
<path fill-rule="evenodd" clip-rule="evenodd" d="M117.923 0H122.923V5H117.923V0Z" fill="#63DF45"/>
</g>
<defs>
<linearGradient id="paint0_linear_358_89" x1="96.0138" y1="218.135" x2="93.6218" y2="359.272" gradientUnits="userSpaceOnUse">
<stop stop-color="#469C31"/>
<stop offset="0.09" stop-color="#4AA434"/>
<stop offset="0.259" stop-color="#4AAB33"/>
<stop offset="0.405" stop-color="#4CB633"/>
<stop offset="0.51" stop-color="#4CBB32"/>
<stop offset="1" stop-color="#84E96C"/>
</linearGradient>
<linearGradient id="paint1_linear_358_89" x1="81.7581" y1="153.941" x2="113.669" y2="270.947" gradientUnits="userSpaceOnUse">
<stop stop-color="#5DB947"/>
<stop offset="0.376" stop-color="#4CBB32"/>
<stop offset="1" stop-color="#84E96C"/>
</linearGradient>
<linearGradient id="paint2_linear_358_89" x1="102.753" y1="-30.005" x2="142.348" y2="145.346" gradientUnits="userSpaceOnUse">
<stop stop-color="#63DF45"/>
<stop offset="0.258" stop-color="#71E156"/>
<stop offset="1" stop-color="#84E96C"/>
</linearGradient>
<linearGradient id="paint3_linear_358_89" x1="115.859" y1="28.037" x2="143.409" y2="150.046" gradientUnits="userSpaceOnUse">
<stop offset="0.058" stop-color="#63DF45"/>
<stop offset="0.999" stop-color="#85FF67" stop-opacity="0.4"/>
</linearGradient>
<linearGradient id="paint4_linear_358_89" x1="102.965" y1="53.15" x2="129.478" y2="207.967" gradientUnits="userSpaceOnUse">
<stop stop-color="#63DF45"/>
<stop offset="0.258" stop-color="#42CE20"/>
<stop offset="1" stop-color="#84E96C"/>
</linearGradient>
<clipPath id="clip0_358_89">
<rect width="218.973" height="348.956" fill="white"/>
</clipPath>
</defs>
</svg>
