<svg width="167" height="146" viewBox="0 0 167 146" fill="none" xmlns="http://www.w3.org/2000/svg">
<g clip-path="url(#clip0_358_140)">
<path d="M136.766 53.56H134.286V23.4C134.28 17.852 129.784 13.356 124.236 13.35H116.236C110.688 13.356 106.192 17.852 106.186 23.4V29.4H77.9962V19.38C77.9962 16.066 75.3102 13.38 71.9962 13.38H39.7962C36.4822 13.38 33.7962 16.066 33.7962 19.38V43.51C33.7962 46.824 36.4822 49.51 39.7962 49.51H53.8661V53.51H31.2861C25.9951 53.508 21.7041 57.795 21.7021 63.086C21.7021 63.485 21.7271 63.884 21.7761 64.28L28.9261 121.51C29.5301 126.303 33.6051 129.898 38.4361 129.9H49.2361L60.0161 137.09C62.3631 138.647 65.5281 138.007 67.0851 135.661C67.6381 134.828 67.9341 133.85 67.9361 132.85V129.91H129.606C134.435 129.903 138.507 126.31 139.116 121.52L146.276 64.29C146.322 63.895 146.346 63.498 146.346 63.1C146.34 57.811 142.055 53.526 136.766 53.52V53.56ZM57.8661 49.54H71.9662C75.2802 49.54 77.9662 46.854 77.9662 43.54V33.46H106.116V53.56H57.8661V49.54Z" fill="#DDFFD5"/>
<path d="M151.065 9.55C150.535 9.548 150.028 9.336 149.655 8.96L146.355 5.66L143.055 8.96C142.274 9.741 141.006 9.741 140.225 8.96C139.444 8.179 139.444 6.911 140.225 6.13L146.355 0L152.485 6.13C153.264 6.913 153.26 8.18 152.477 8.958C152.104 9.328 151.601 9.537 151.075 9.54L151.065 9.55Z" fill="#5DB947"/>
<path d="M164.485 29.14C163.955 29.138 163.448 28.926 163.075 28.55L159.775 25.25L156.475 28.55C155.694 29.331 154.426 29.331 153.645 28.55C152.864 27.769 152.864 26.501 153.645 25.72L159.775 19.59L165.865 25.73C166.644 26.513 166.64 27.78 165.857 28.558C165.484 28.928 164.981 29.137 164.455 29.14H164.485Z" fill="#5DB947"/>
<path d="M11.4257 115.6C10.8957 115.598 10.3887 115.386 10.0157 115.01L6.71575 111.71L3.41575 115.01C2.63475 115.791 1.36675 115.791 0.58575 115.01C-0.19525 114.229 -0.19525 112.961 0.58575 112.18L6.71575 106.05L12.8658 112.18C13.6448 112.963 13.6407 114.23 12.8577 115.008C12.4847 115.378 11.9818 115.587 11.4558 115.59L11.4257 115.6Z" fill="#5DB947"/>
<path d="M100.956 145.02C100.426 145.018 99.919 144.806 99.546 144.43L96.246 141.13L92.946 144.43C92.165 145.211 90.897 145.211 90.116 144.43C89.335 143.649 89.335 142.381 90.116 141.6L96.246 135.47L102.376 141.6C103.155 142.383 103.151 143.65 102.368 144.428C101.995 144.798 101.492 145.007 100.966 145.01L100.956 145.02Z" fill="#5DB947"/>
<path d="M139.126 54.74C137.698 53.322 135.768 52.528 133.756 52.53H28.2958C24.1118 52.536 20.7218 55.926 20.7158 60.11C20.7158 60.418 20.7358 60.725 20.7758 61.03L27.9358 118.27C28.4048 122.056 31.6208 124.899 35.4358 124.9H46.8658L58.1458 132.42C58.6518 132.76 59.2468 132.941 59.8558 132.94C61.5678 132.94 62.9558 131.552 62.9558 129.84V124.89H126.646C130.461 124.889 133.677 122.046 134.146 118.26L141.306 61.02C141.346 60.715 141.366 60.408 141.366 60.1C141.368 58.088 140.574 56.158 139.156 54.73L139.126 54.74Z" fill="white"/>
<path d="M48.8662 98.76H49.2462C51.8152 98.753 54.3792 98.981 56.9062 99.44V116.85H48.8662L44.8662 98.76H48.8662Z" fill="#5DB947"/>
<path d="M77.0062 64.59V108.82C71.2242 103.995 64.2812 100.764 56.8662 99.45C54.3392 98.991 51.7752 98.763 49.2062 98.77H48.8662V74.67H49.2462C59.3932 74.66 69.2162 71.093 77.0062 64.59Z" fill="#D6D6D6"/>
<path d="M85.0459 94.74V108.81C85.0459 111.019 83.2549 112.81 81.0459 112.81C78.8369 112.81 77.0459 111.019 77.0459 108.81V64.59C77.0459 62.381 78.8369 60.59 81.0459 60.59C83.2549 60.59 85.0459 62.381 85.0459 64.59V94.74Z" fill="#5DB947"/>
<path d="M48.8662 74.67V98.79H40.8662C36.4482 98.79 32.8662 95.208 32.8662 90.79V82.79C32.8662 78.372 36.4482 74.79 40.8662 74.79L48.8662 74.67Z" fill="#5DB947"/>
<path d="M85.0459 78.67C89.4859 78.67 93.0859 82.27 93.0859 86.71C93.0859 91.15 89.4859 94.75 85.0459 94.75V78.67Z" fill="#8EEF77"/>
<path d="M72.9859 28.4V40.46C72.9859 42.669 71.1949 44.46 68.9859 44.46H36.7959C34.5869 44.46 32.7959 42.669 32.7959 40.46V16.34C32.7959 14.131 34.5869 12.34 36.7959 12.34H68.9659C71.1749 12.34 72.9659 14.131 72.9659 16.34L72.9859 28.4Z" fill="#5DB947"/>
<path d="M59.1353 25.48C60.7453 26.298 61.3873 28.267 60.5683 29.877C60.2543 30.494 59.7523 30.996 59.1353 31.31L49.5453 36.1C47.9333 36.89 45.9863 36.223 45.1973 34.612C44.9793 34.166 44.8653 33.677 44.8653 33.18V23.61C44.8533 21.815 46.2993 20.35 48.0933 20.339C48.5963 20.336 49.0933 20.449 49.5453 20.67L59.1353 25.48Z" fill="white"/>
<path d="M129.266 32.42H105.146V40.46H129.266V32.42Z" fill="#8EEF77"/>
<path d="M117.206 40.46H105.146V72.63H117.206V40.46Z" fill="#5DB947"/>
<path d="M129.276 52.52V72.67H117.216V40.46H129.276V52.52Z" fill="#8EEF77"/>
<path d="M129.276 20.36V32.42H105.146V20.36C105.146 15.942 108.728 12.36 113.146 12.36H121.146C125.564 12.36 129.146 15.942 129.146 20.36H129.276Z" fill="white"/>
<path d="M120.126 90.94C119.308 92.55 117.339 93.192 115.729 92.373C115.112 92.059 114.61 91.557 114.296 90.94L105.146 72.67H129.266L120.126 90.94Z" fill="#D6D6D6"/>
<path d="M103.136 98.76H127.266C128.376 98.76 129.276 99.66 129.276 100.77C129.276 101.88 128.376 102.78 127.266 102.78H103.136C102.026 102.78 101.126 101.88 101.126 100.77C101.126 99.66 102.026 98.76 103.136 98.76Z" fill="#D6D6D6"/>
<path d="M127.266 106.81H103.136C102.026 106.81 101.126 107.71 101.126 108.82C101.126 109.93 102.026 110.83 103.136 110.83H127.266C128.376 110.83 129.276 109.93 129.276 108.82C129.276 107.71 128.376 106.81 127.266 106.81Z" fill="#D6D6D6"/>
<path d="M129.276 116.86C129.276 115.75 128.376 114.85 127.266 114.85C126.156 114.85 125.256 115.75 125.256 116.86C125.256 117.97 126.156 118.87 127.266 118.87C128.376 118.87 129.276 117.97 129.276 116.86Z" fill="#D6D6D6"/>
<path d="M103.136 114.85C104.246 114.85 105.146 115.75 105.146 116.86C105.146 117.97 104.246 118.87 103.136 118.87C102.026 118.87 101.126 117.97 101.126 116.86C101.126 115.75 102.026 114.85 103.136 114.85Z" fill="#D6D6D6"/>
<path d="M119.226 114.85C120.336 114.85 121.236 115.75 121.236 116.86C121.236 117.97 120.336 118.87 119.226 118.87C118.116 118.87 117.216 117.97 117.216 116.86C117.216 115.75 118.116 114.85 119.226 114.85Z" fill="#D6D6D6"/>
<path d="M111.176 114.85C112.286 114.85 113.186 115.75 113.186 116.86C113.186 117.97 112.286 118.87 111.176 118.87C110.066 118.87 109.166 117.97 109.166 116.86C109.166 115.75 110.066 114.85 111.176 114.85Z" fill="#D6D6D6"/>
<path d="M59.8655 134.74C58.9015 134.74 57.9585 134.455 57.1555 133.92L46.3055 126.67H35.4355C30.7105 126.667 26.7245 123.149 26.1355 118.46L18.9855 61.26C18.3395 56.131 21.9735 51.45 27.1025 50.803C27.4955 50.754 27.8905 50.729 28.2855 50.73H51.0755V46.28H36.7955C33.5835 46.274 30.9815 43.672 30.9755 40.46V16.34C30.9815 13.128 33.5835 10.526 36.7955 10.52H68.9655C72.1775 10.526 74.7795 13.128 74.7855 16.34V26.6H103.356V20.36C103.362 14.928 107.764 10.526 113.196 10.52H121.196C126.628 10.526 131.029 14.928 131.035 20.36V50.72H133.726C138.899 50.726 143.089 54.917 143.095 60.09C143.095 60.481 143.072 60.872 143.026 61.26L135.866 118.49C135.277 123.179 131.291 126.697 126.566 126.7H64.7355V129.85C64.7355 132.543 62.5585 134.729 59.8655 134.74ZM59.1555 130.92C59.3505 131.051 59.5805 131.121 59.8155 131.12C60.5315 131.126 61.1235 130.565 61.1555 129.85V123.1H126.636C129.548 123.097 132.003 120.929 132.366 118.04L139.526 60.81C139.741 59.231 139.23 57.639 138.136 56.48C136.819 55.076 134.971 54.292 133.046 54.32H131.106V73.1L121.766 91.74C120.919 93.46 119.163 94.543 117.246 94.53H103.136C102.142 94.53 101.337 93.723 101.338 92.728C101.338 91.735 102.144 90.93 103.136 90.93H112.286L103.286 73.01V54.33H29.0355C27.1105 54.302 25.2625 55.086 23.9455 56.49C22.8495 57.648 22.3385 59.241 22.5555 60.82L29.7155 118.06C30.0825 120.945 32.5365 123.108 35.4455 123.11H47.4455L59.1555 130.92ZM115.866 90.13C116.279 90.848 117.196 91.095 117.914 90.682C118.143 90.55 118.334 90.36 118.466 90.13L126.316 74.43H108.066L115.866 90.13ZM118.966 70.83H127.426V42.26H118.966V70.83ZM106.906 70.83H115.366V42.26H106.906V70.83ZM54.6755 50.72H103.346V30.2H74.7855V40.46C74.7795 43.672 72.1775 46.274 68.9655 46.28H54.6755V50.72ZM36.7955 14.12C35.5695 14.12 34.5755 15.114 34.5755 16.34V40.46C34.5815 41.682 35.5735 42.67 36.7955 42.67H68.9655C70.1915 42.67 71.1855 41.676 71.1855 40.45V16.34C71.1855 15.114 70.1915 14.12 68.9655 14.12H36.7955ZM106.946 38.67H127.466V34.22H106.946V38.67ZM113.186 14.13C109.742 14.136 106.952 16.926 106.946 20.37V30.67H127.466V20.36C127.46 16.916 124.67 14.126 121.226 14.12L113.186 14.13Z" fill="black"/>
<path d="M47.4155 118.67L43.4155 100.58H40.8655C35.4335 100.574 31.0315 96.172 31.0255 90.74V82.74C30.9975 77.3 35.3855 72.868 40.8255 72.84C40.8385 72.84 40.8525 72.84 40.8655 72.84H49.2855C58.7395 72.822 67.9075 69.592 75.2855 63.68H75.3455V63.6C75.8755 60.435 78.8705 58.3 82.0355 58.83C84.8495 59.301 86.9045 61.747 86.8855 64.6V77.02H87.0555C92.3825 78.097 95.8275 83.287 94.7515 88.614C93.9675 92.494 90.9355 95.526 87.0555 96.31H86.8855V108.75C86.9075 111.959 84.3245 114.578 81.1155 114.6C78.2625 114.62 75.8165 112.564 75.3455 109.75V109.67H75.2855C70.5115 105.847 64.9585 103.116 59.0155 101.67L58.7555 101.61V118.61L47.4155 118.67ZM50.3055 115.07H55.1055V101.07H54.9255C53.0445 100.796 51.1465 100.652 49.2455 100.64H47.0855L50.3055 115.07ZM81.0255 62.37C79.7995 62.37 78.8055 63.364 78.8055 64.59V108.82C78.8055 110.046 79.7995 111.04 81.0255 111.04C82.2515 111.04 83.2455 110.046 83.2455 108.82V64.59C83.2455 63.364 82.2515 62.37 81.0255 62.37ZM74.8655 68.45C67.7825 73.321 59.4565 76.069 50.8655 76.37H50.6655V97.02H50.8655C59.4565 97.32 67.7835 100.068 74.8655 104.94L75.1955 105.17V68.17L74.8655 68.45ZM34.9555 92.8C35.8425 95.301 38.2125 96.968 40.8655 96.96H47.1055V76.44H40.8655C38.2305 76.453 35.8865 78.117 35.0055 80.6L34.9055 80.88H40.9055C41.8995 80.88 42.7065 81.684 42.7075 82.678C42.7075 83.672 41.9035 84.479 40.9095 84.48H34.5765V88.92H40.8665C41.8605 88.92 42.6675 89.724 42.6685 90.718C42.6685 91.712 41.8645 92.519 40.8705 92.52H34.8675L34.9575 92.8H34.9555ZM86.8655 92.67L87.1455 92.57C90.3815 91.452 92.0985 87.921 90.9805 84.685C90.3585 82.886 88.9445 81.472 87.1455 80.85L86.8655 80.75V92.67Z" fill="black"/>
<path d="M48.0861 38.24C45.2991 38.234 43.0421 35.977 43.0361 33.19V23.61C43.0341 20.821 45.2931 18.558 48.0821 18.556C48.8681 18.556 49.6431 18.738 50.3461 19.09L59.9261 23.88C62.4111 25.146 63.4001 28.187 62.1341 30.672C61.6501 31.623 60.8771 32.396 59.9261 32.88L50.3461 37.67C49.6471 38.032 48.8731 38.227 48.0861 38.24ZM48.0861 22.16C47.2871 22.165 46.6411 22.811 46.6361 23.61V33.19C46.6421 34.013 47.3131 34.676 48.1361 34.67C48.3441 34.671 48.5501 34.623 48.7361 34.53L58.3161 29.67C59.0341 29.315 59.3281 28.446 58.9741 27.728C58.8331 27.442 58.6021 27.211 58.3161 27.07L48.7361 22.28C48.5321 22.19 48.3091 22.149 48.0861 22.16Z" fill="black"/>
</g>
<defs>
<clipPath id="clip0_358_140">
<rect width="166.448" height="145.02" fill="white"/>
</clipPath>
</defs>
</svg>
