<svg width="187" height="187" viewBox="0 0 187 187" fill="none" xmlns="http://www.w3.org/2000/svg">
<g clip-path="url(#clip0_358_58)">
<path d="M140.958 102.477C140.428 102.475 139.921 102.263 139.548 101.887L136.248 98.587L132.948 101.887C132.167 102.668 130.899 102.668 130.118 101.887C129.337 101.106 129.337 99.838 130.118 99.057L136.248 92.927L142.378 99.057C143.157 99.84 143.153 101.107 142.37 101.885C141.997 102.255 141.494 102.464 140.968 102.467L140.958 102.477Z" fill="#5DB947"/>
<path d="M110.792 65.64C110.792 64.535 109.897 63.64 108.792 63.64H22.2822C21.1772 63.64 20.2822 64.535 20.2822 65.64V82.39C20.3002 82.519 20.3302 82.647 20.3722 82.77V82.87C20.4312 83.022 20.5082 83.167 20.6022 83.3L53.6022 127.81V147.22C53.6022 148.325 54.4972 149.22 55.6022 149.22H75.3522C76.4572 149.22 77.3522 148.325 77.3522 147.22V127.84L110.352 83.33C110.449 83.197 110.53 83.053 110.592 82.9V82.8C110.634 82.677 110.664 82.549 110.682 82.42V82.17L110.792 65.64Z" fill="#DDFFD4"/>
<path d="M62.0418 136.32C60.9368 136.315 60.0458 135.416 60.0498 134.312C60.0518 133.787 60.2608 133.283 60.6318 132.91L82.5418 111L98.5418 127L125.122 100.42L140.272 115.57L176.442 79.3799C177.223 78.5989 178.491 78.5989 179.272 79.3799C180.053 80.1609 180.053 81.4289 179.272 82.2099L140.272 121.21L125.122 106.06L98.5418 132.64L82.5418 116.64L63.4418 135.73C63.0708 136.103 62.5678 136.315 62.0418 136.32Z" fill="white"/>
<path d="M82.5418 120.48C86.22 120.48 89.2018 117.498 89.2018 113.82C89.2018 110.142 86.22 107.16 82.5418 107.16C78.8636 107.16 75.8818 110.142 75.8818 113.82C75.8818 117.498 78.8636 120.48 82.5418 120.48Z" fill="white"/>
<path d="M98.1317 136.13C101.81 136.13 104.792 133.148 104.792 129.47C104.792 125.792 101.81 122.81 98.1317 122.81C94.4535 122.81 91.4717 125.792 91.4717 129.47C91.4717 133.148 94.4535 136.13 98.1317 136.13Z" fill="#5DB947"/>
<path d="M125.002 109.49C128.68 109.49 131.662 106.508 131.662 102.83C131.662 99.1518 128.68 96.17 125.002 96.17C121.324 96.17 118.342 99.1518 118.342 102.83C118.342 106.508 121.324 109.49 125.002 109.49Z" fill="white"/>
<path d="M140.472 125.31C144.15 125.31 147.132 122.328 147.132 118.65C147.132 114.972 144.15 111.99 140.472 111.99C136.793 111.99 133.812 114.972 133.812 118.65C133.812 122.328 136.793 125.31 140.472 125.31Z" fill="#5DB947"/>
<path d="M177.562 87.73C181.241 87.73 184.222 84.7482 184.222 81.07C184.222 77.3918 181.241 74.41 177.562 74.41C173.884 74.41 170.902 77.3918 170.902 81.07C170.902 84.7482 173.884 87.73 177.562 87.73Z" fill="white"/>
<path d="M82.5418 122.48C77.7588 122.48 73.8818 118.603 73.8818 113.82C73.8818 109.037 77.7588 105.16 82.5418 105.16C87.3248 105.16 91.2018 109.037 91.2018 113.82C91.1958 118.601 87.3218 122.474 82.5418 122.48ZM82.5418 109.16C79.9678 109.16 77.8818 111.246 77.8818 113.82C77.8818 116.394 79.9678 118.48 82.5418 118.48C85.1158 118.48 87.2018 116.394 87.2018 113.82C87.1958 111.249 85.1128 109.165 82.5418 109.16Z" fill="black"/>
<path d="M98.1317 138.13C93.3487 138.13 89.4717 134.253 89.4717 129.47C89.4717 124.687 93.3487 120.81 98.1317 120.81C102.915 120.81 106.792 124.687 106.792 129.47C106.786 134.251 102.912 138.124 98.1317 138.13ZM98.1317 124.81C95.5577 124.81 93.4717 126.896 93.4717 129.47C93.4717 132.044 95.5577 134.13 98.1317 134.13C100.706 134.13 102.792 132.044 102.792 129.47C102.786 126.899 100.703 124.815 98.1317 124.81Z" fill="black"/>
<path d="M125.002 111.49C120.219 111.49 116.342 107.613 116.342 102.83C116.342 98.047 120.219 94.17 125.002 94.17C129.785 94.17 133.662 98.047 133.662 102.83C133.656 107.611 129.782 111.484 125.002 111.49ZM125.002 98.17C122.428 98.17 120.342 100.256 120.342 102.83C120.342 105.404 122.428 107.49 125.002 107.49C127.576 107.49 129.662 105.404 129.662 102.83C129.657 100.259 127.573 98.175 125.002 98.17Z" fill="black"/>
<path d="M140.442 127.31C135.659 127.31 131.782 123.433 131.782 118.65C131.782 113.867 135.659 109.99 140.442 109.99C145.225 109.99 149.102 113.867 149.102 118.65C149.096 123.431 145.222 127.304 140.442 127.31ZM140.442 114C137.868 114 135.782 116.086 135.782 118.66C135.782 121.234 137.868 123.32 140.442 123.32C143.016 123.32 145.102 121.234 145.102 118.66C145.097 116.089 143.013 114.005 140.442 114Z" fill="black"/>
<path d="M177.562 89.73C172.779 89.73 168.902 85.853 168.902 81.07C168.902 76.287 172.779 72.41 177.562 72.41C182.345 72.41 186.222 76.287 186.222 81.07C186.216 85.851 182.342 89.724 177.562 89.73ZM177.562 76.41C174.988 76.41 172.902 78.496 172.902 81.07C172.902 83.644 174.988 85.73 177.562 85.73C180.136 85.73 182.222 83.644 182.222 81.07C182.217 78.499 180.133 76.415 177.562 76.41Z" fill="black"/>
<path d="M1.99201 116.85C0.887013 116.845 -0.00398658 115.946 1.34154e-05 114.842C0.00201342 114.317 0.211013 113.813 0.582013 113.44L6.71201 107.31L12.842 113.44C13.623 114.221 13.623 115.489 12.842 116.27C12.061 117.051 10.793 117.051 10.012 116.27L6.71201 112.97L3.41201 116.27C3.03501 116.644 2.52401 116.853 1.99201 116.85Z" fill="#5DB947"/>
<path d="M21.8624 146.48C20.7574 146.48 19.8614 145.586 19.8604 144.482C19.8604 143.953 20.0694 143.446 20.4424 143.07L26.5724 136.94L32.7024 143.07C33.4834 143.851 33.4834 145.119 32.7024 145.9C31.9214 146.681 30.6534 146.681 29.8724 145.9L26.5724 142.6L23.2724 145.9C22.8974 146.272 22.3904 146.48 21.8624 146.48Z" fill="#5DB947"/>
<path d="M118.792 149.45C117.687 149.445 116.796 148.546 116.8 147.442C116.802 146.917 117.011 146.413 117.382 146.04L123.512 139.91L129.642 146.04C130.423 146.821 130.423 148.089 129.642 148.87C128.861 149.651 127.593 149.651 126.812 148.87L123.512 145.57L120.212 148.87C119.835 149.244 119.324 149.453 118.792 149.45Z" fill="#5DB947"/>
<path d="M137.752 79.57C136.647 79.565 135.756 78.666 135.76 77.562C135.762 77.037 135.971 76.533 136.342 76.16L142.442 70L148.572 76.13C149.365 76.903 149.38 78.172 148.607 78.965C147.834 79.758 146.565 79.773 145.772 79L142.472 75.7L139.172 79C138.793 79.371 138.282 79.576 137.752 79.57Z" fill="#5DB947"/>
<path d="M72.3522 124.17H52.7322L19.2822 79.14H105.792L72.3522 124.17Z" fill="#F25DB9" fill-opacity="0.278431"/>
<path d="M72.3524 124.18H52.7324V144.25H72.3524V124.18Z" fill="#8EEF77"/>
<path d="M105.792 62.64H19.2822V79.14H105.792V62.64Z" fill="#8EEF77"/>
<path d="M43.3216 51.91C50.4626 51.91 56.2516 46.1211 56.2516 38.98C56.2516 31.839 50.4626 26.05 43.3216 26.05C36.1806 26.05 30.3916 31.839 30.3916 38.98C30.3916 46.1211 36.1806 51.91 43.3216 51.91Z" fill="white"/>
<path d="M79.2025 29.28C86.3435 29.28 92.1325 23.4911 92.1325 16.35C92.1325 9.209 86.3435 3.42004 79.2025 3.42004C72.0614 3.42004 66.2725 9.209 66.2725 16.35C66.2725 23.4911 72.0614 29.28 79.2025 29.28Z" fill="white"/>
<path d="M65.622 165.65H65.102V158.47H68.332C69.437 158.47 70.332 157.575 70.332 156.47C70.332 155.365 69.437 154.47 68.332 154.47H65.102V151.24C65.102 150.135 64.207 149.24 63.102 149.24C61.997 149.24 61.102 150.135 61.102 151.24V154.47H60.582C56.39 154.474 52.995 157.876 53 162.068C53.004 166.254 56.397 169.646 60.582 169.65H61.102V176.83H56.442C55.337 176.83 54.442 177.725 54.442 178.83C54.442 179.935 55.337 180.83 56.442 180.83H61.112V184.24C61.112 185.345 62.007 186.24 63.112 186.24C64.217 186.24 65.112 185.345 65.112 184.24V180.83H65.632C69.824 180.834 73.225 177.439 73.23 173.248C73.234 169.056 69.839 165.655 65.648 165.65H65.622ZM60.622 165.65C58.639 165.647 57.034 164.038 57.037 162.055C57.04 160.076 58.643 158.473 60.622 158.47H61.142V165.65H60.622ZM65.622 176.83H65.102V169.65H65.622C67.605 169.647 69.214 171.252 69.217 173.235C69.22 175.218 67.615 176.827 65.632 176.83H65.622Z" fill="white"/>
<path d="M92.1224 57.7401C92.1164 59.4201 91.7774 61.0831 91.1224 62.6301H67.2324C66.5774 61.0831 66.2384 59.4201 66.2324 57.7401C66.2324 50.5991 72.0214 44.8101 79.1624 44.8101C86.3034 44.8101 92.0924 50.5991 92.0924 57.7401H92.1224Z" fill="white"/>
<path d="M107.792 61.22C107.792 60.115 106.897 59.22 105.792 59.22H93.7922C95.3812 51.129 90.1112 43.282 82.0202 41.692C73.9292 40.103 66.0822 45.373 64.4922 53.464C64.1192 55.364 64.1192 57.319 64.4922 59.22H19.2822C18.1772 59.22 17.2822 60.115 17.2822 61.22V77.97C17.3002 78.099 17.3302 78.227 17.3722 78.35V78.45C17.4312 78.602 17.5082 78.747 17.6022 78.88L50.6022 123.39V142.8C50.6022 143.905 51.4972 144.8 52.6022 144.8H72.3522C73.4572 144.8 74.3522 143.905 74.3522 142.8V123.42L107.352 78.91C107.449 78.777 107.53 78.633 107.592 78.48V78.38C107.634 78.257 107.664 78.129 107.682 78V77.75L107.792 61.22ZM79.1922 45.4C85.2262 45.406 90.1162 50.296 90.1222 56.33C90.1242 57.307 89.9932 58.279 89.7322 59.22H68.6522C68.3912 58.279 68.2602 57.307 68.2622 56.33C68.2682 50.296 73.1582 45.406 79.1922 45.4ZM21.2822 63.22H103.792V75.72H21.2822V63.22ZM70.3422 140.82H54.7322V124.76H70.3522L70.3422 140.82ZM71.3422 120.75H53.7322L23.2622 79.75H101.822L71.3422 120.75Z" fill="black"/>
<path d="M43.3216 52.49C51.5676 52.49 58.2516 45.806 58.2516 37.56C58.2516 29.314 51.5676 22.63 43.3216 22.63C35.0756 22.63 28.3916 29.314 28.3916 37.56C28.4026 45.801 35.0806 52.479 43.3216 52.49ZM43.3216 26.63C49.3576 26.63 54.2516 31.524 54.2516 37.56C54.2516 43.596 49.3576 48.49 43.3216 48.49C37.2856 48.49 32.3916 43.596 32.3916 37.56C32.3976 31.526 37.2876 26.636 43.3216 26.63Z" fill="black"/>
<path d="M79.2017 29.86C87.4477 29.854 94.1277 23.166 94.1217 14.92C94.1157 6.674 87.4267 -0.00599596 79.1817 4.03875e-06C70.9397 0.00600404 64.2617 6.688 64.2617 14.93C64.2727 23.175 70.9567 29.854 79.2017 29.86ZM79.2017 4C85.2377 4.006 90.1277 8.904 90.1217 14.94C90.1157 20.976 85.2177 25.866 79.1817 25.86C73.1487 25.854 68.2617 20.963 68.2617 14.93C68.2677 8.892 73.1637 4 79.2017 4Z" fill="black"/>
</g>
<defs>
<clipPath id="clip0_358_58">
<rect width="186.222" height="186.24" fill="white"/>
</clipPath>
</defs>
</svg>
