<svg width="154" height="122" viewBox="0 0 154 122" fill="none" xmlns="http://www.w3.org/2000/svg">
<g clip-path="url(#clip0_358_25)">
<path d="M143.856 15.1731H110.476V5.32309C110.448 4.21909 109.53 3.34609 108.426 3.37509C108.295 3.37809 108.164 3.39509 108.036 3.42409L76.8459 11.2241H57.4159C54.0699 11.2271 50.8829 12.6561 48.6559 15.1541H45.6559C40.2349 15.1601 35.8419 19.5531 35.8359 24.9741V83.8841C35.8419 89.3051 40.2349 93.6981 45.6559 93.7041H74.9959C74.4189 98.4071 71.7419 102.595 67.7159 105.094L60.8059 109.414H55.4859C50.0649 109.42 45.6719 113.813 45.6659 119.234C45.6659 120.339 46.5609 121.234 47.6659 121.234H141.926C143.031 121.234 143.926 120.339 143.926 119.234C143.92 113.813 139.527 109.42 134.106 109.414H128.776L121.866 105.094C117.84 102.595 115.163 98.4071 114.586 93.7041H143.916C149.337 93.6981 153.73 89.3051 153.736 83.8841V24.9831C153.73 19.5621 149.337 15.1691 143.916 15.1631L143.856 15.1731Z" fill="#DDFFD4"/>
<path d="M11.4158 71.533C10.8858 71.531 10.3787 71.319 10.0057 70.943L6.70575 67.643L3.41575 70.943C2.63475 71.724 1.36675 71.724 0.58575 70.943C-0.19525 70.162 -0.19525 68.894 0.58575 68.113L6.71575 61.983L12.8457 68.113C13.6297 68.891 13.6357 70.157 12.8577 70.941C12.4767 71.325 11.9568 71.538 11.4158 71.533Z" fill="#5DB947"/>
<path d="M24.1855 104.603C23.6555 104.601 23.1485 104.389 22.7755 104.013L19.4755 100.713L16.1755 104.013C15.3945 104.794 14.1265 104.794 13.3455 104.013C12.5645 103.232 12.5645 101.964 13.3455 101.183L19.4755 95.0531L25.6055 101.183C26.3845 101.966 26.3805 103.233 25.5975 104.011C25.2245 104.381 24.7215 104.59 24.1955 104.593L24.1855 104.603Z" fill="#5DB947"/>
<path d="M42.4157 13.743H140.606C144.928 13.76 148.422 17.271 148.416 21.593V80.503C148.427 84.833 144.926 88.352 140.596 88.363C140.583 88.363 140.569 88.363 140.556 88.363H42.4157C38.0857 88.374 34.5667 84.873 34.5557 80.543C34.5557 80.53 34.5557 80.516 34.5557 80.503V21.593C34.5497 17.263 38.0557 13.749 42.3857 13.743C42.3957 13.743 42.4057 13.743 42.4157 13.743Z" fill="white"/>
<path d="M52.1859 108.003H130.736C135.077 108.003 138.596 111.522 138.596 115.863H44.3359C44.3359 111.522 47.8549 108.003 52.1959 108.003H52.1859Z" fill="#8EEF77"/>
<path d="M109.136 88.323H73.7862C73.7782 94.424 70.6312 100.092 65.4562 103.323L58.0762 107.943H124.846L117.466 103.323C112.291 100.092 109.144 94.424 109.136 88.323Z" fill="#5DB947"/>
<path d="M105.216 41.233L73.7861 33.373V9.813L105.206 1.953L105.216 41.233Z" fill="#D6D6D6"/>
<path d="M73.7953 9.81311H54.1553V33.3831H73.7953V9.81311Z" fill="#8EEF77"/>
<path d="M54.1559 9.81311V33.3731C48.7329 33.3731 44.3359 28.9761 44.3359 23.5531V19.6331C44.3359 14.2101 48.7329 9.81311 54.1559 9.81311Z" fill="#5DB947"/>
<path d="M105.216 1.953L95.416 4.413V38.783L105.236 41.233L105.216 1.953Z" fill="#5DB947"/>
<path d="M73.7859 53.013H63.9759L60.0459 33.373H69.8659L73.7859 53.013Z" fill="#5DB947"/>
<path d="M54.156 54.983C54.156 58.236 51.519 60.873 48.266 60.873C45.013 60.873 42.376 58.236 42.376 54.983C42.376 51.73 45.013 49.093 48.266 49.093C51.519 49.093 54.156 51.73 54.156 54.983Z" fill="#5DB947"/>
<path d="M54.156 74.613C54.156 77.866 51.519 80.503 48.266 80.503C45.013 80.503 42.376 77.866 42.376 74.613C42.376 71.36 45.013 68.723 48.266 68.723C51.519 68.723 54.156 71.36 54.156 74.613Z" fill="#5DB947"/>
<path d="M73.7955 72.6531H65.9355V80.5131H73.7955V72.6531Z" fill="#8EEF77"/>
<path d="M89.5055 68.723H81.6455V80.503H89.5055V68.723Z" fill="#8EEF77"/>
<path d="M105.215 64.8031H97.3555V80.5131H105.215V64.8031Z" fill="#8EEF77"/>
<path d="M120.925 60.873H113.065V80.513H120.925V60.873Z" fill="#8EEF77"/>
<path d="M136.635 54.983H128.775V80.513H136.635V54.983Z" fill="#8EEF77"/>
<path d="M44.3357 117.323C43.3937 117.318 42.6307 116.555 42.6257 115.613C42.6417 110.334 46.9167 106.059 52.1957 106.043H57.5957L64.5957 101.683C68.6937 99.1531 71.4177 94.8951 71.9957 90.1131V89.8331H42.4157C37.1367 89.8171 32.8617 85.5421 32.8457 80.2631V21.3231C32.8727 16.0521 37.1447 11.7891 42.4157 11.7731H45.5457L45.6157 11.6931C47.7967 9.25305 50.9127 7.85605 54.1857 7.85305H73.5857L104.836 0.0530544C105.751 -0.178946 106.682 0.375054 106.914 1.29105C106.949 1.42905 106.967 1.57105 106.966 1.71305V11.7731H140.596C145.851 11.8111 150.099 16.0681 150.126 21.3231V80.2331C150.11 85.5121 145.835 89.7871 140.556 89.8031H110.946V90.0831C111.523 94.8651 114.247 99.1241 118.346 101.653L125.346 106.013H130.746C136.025 106.029 140.3 110.304 140.316 115.583C140.311 116.525 139.548 117.288 138.606 117.293L44.3357 117.323ZM52.1857 109.473C49.5937 109.486 47.2867 111.121 46.4157 113.563L46.2957 113.893H136.666L136.546 113.563C135.672 111.114 133.356 109.478 130.756 109.473H52.1857ZM75.4157 90.0531C74.8257 96.0311 71.5027 101.399 66.4157 104.593L64.1057 106.033H118.916L116.606 104.593C111.519 101.399 108.196 96.0311 107.606 90.0531V89.8231H75.4157V90.0531ZM42.4157 15.2031C39.0197 15.1811 36.2477 17.9161 36.2257 21.3131C36.2257 21.3161 36.2257 21.3201 36.2257 21.3231V80.2331C36.2147 83.6301 38.9587 86.3921 42.3557 86.4031C42.3757 86.4031 42.3957 86.4031 42.4157 86.4031H140.606C143.995 86.3971 146.74 83.6521 146.746 80.2631V21.3231C146.74 17.9341 143.995 15.1891 140.606 15.1831H106.926V40.9831C106.928 41.5111 106.684 42.0101 106.266 42.3331C105.85 42.6581 105.308 42.7721 104.796 42.6431L73.6057 34.8431H71.9557L75.4657 52.4231C75.6587 53.3471 75.0667 54.2531 74.1417 54.4471C74.0247 54.4711 73.9047 54.4841 73.7857 54.4831H63.9757C63.1617 54.4811 62.4617 53.9101 62.2957 53.1131L58.6357 34.8431H54.1557C47.7947 34.8321 42.6377 29.6841 42.6157 23.3231V19.3831C42.6177 18.0741 42.8447 16.7751 43.2857 15.5431L43.4057 15.2131L42.4157 15.2031ZM65.4157 51.0531H71.7357L68.4157 34.8431H62.1357L65.4157 51.0531ZM97.1457 5.50305V37.1931L103.536 38.7931V3.90305L97.1457 5.50305ZM75.5457 10.9031V31.7931L93.6757 36.3231V6.32305L75.5457 10.9031ZM55.8657 31.4131H72.0757V26.9831H63.9757C63.0287 26.9831 62.2607 26.2151 62.2607 25.2681C62.2607 24.3211 63.0287 23.5531 63.9757 23.5531H72.0857V19.1331H63.9757C63.0287 19.1331 62.2607 18.3651 62.2607 17.4181C62.2607 16.4711 63.0287 15.7031 63.9757 15.7031H72.0857V11.3231H55.8657V31.4131ZM52.1257 11.5331C48.5507 12.4641 46.0537 15.6891 46.0457 19.3831V23.3231C46.0497 27.0181 48.5487 30.2451 52.1257 31.1731L52.4357 31.2531V11.4531L52.1257 11.5331Z" fill="black"/>
<path d="M115.026 23.0631C114.079 23.0631 113.311 22.2951 113.311 21.3481C113.311 20.4011 114.079 19.6331 115.026 19.6331H124.846C125.793 19.6331 126.561 20.4011 126.561 21.3481C126.561 22.2951 125.793 23.0631 124.846 23.0631H115.026Z" fill="black"/>
<path d="M115.025 11.3231C114.081 11.3381 113.303 10.5851 113.288 9.64011C113.277 8.97411 113.655 8.36211 114.255 8.07311L122.115 4.14311C122.354 4.02411 122.618 3.96311 122.885 3.96311C123.829 3.94811 124.607 4.70111 124.622 5.64611C124.633 6.31211 124.255 6.92411 123.655 7.21311L115.805 11.1431C115.566 11.2631 115.302 11.3241 115.035 11.3231H115.025Z" fill="black"/>
<path d="M122.886 39.0231C122.619 39.0231 122.355 38.9621 122.116 38.8431L114.256 34.9131C113.411 34.4791 113.078 33.4421 113.512 32.5971C113.804 32.0281 114.387 31.6691 115.026 31.6631C115.293 31.6621 115.557 31.7231 115.796 31.8431L123.646 35.7731C124.053 35.9801 124.363 36.3391 124.506 36.7731C124.652 37.2041 124.619 37.6761 124.416 38.0831C124.126 38.6631 123.534 39.0301 122.886 39.0331V39.0231Z" fill="black"/>
<path d="M65.9356 82.2231C64.9936 82.2181 64.2306 81.4551 64.2256 80.5131V72.6531C64.2306 71.7111 64.9936 70.9481 65.9356 70.9431H73.7956C74.7376 70.9481 75.5006 71.7111 75.5056 72.6531V80.5031C75.5006 81.4451 74.7376 82.2081 73.7956 82.2131L65.9356 82.2231ZM67.6456 78.7931H72.0756V74.3231H67.6456V78.7931Z" fill="black"/>
<path d="M81.6456 82.2231C80.7036 82.2181 79.9405 81.4551 79.9355 80.5131V68.7231C79.9405 67.7811 80.7036 67.0181 81.6456 67.0131H89.5055C90.4475 67.0181 91.2106 67.7811 91.2156 68.7231V80.5031C91.2106 81.4451 90.4475 82.2081 89.5055 82.2131L81.6456 82.2231ZM83.3556 78.7931H87.7856V70.4431H83.3556V78.7931Z" fill="black"/>
<path d="M97.3555 82.223C96.4135 82.218 95.6505 81.455 95.6455 80.513V64.803C95.6505 63.861 96.4135 63.098 97.3555 63.093H105.206C106.148 63.098 106.911 63.861 106.916 64.803V80.513C106.911 81.455 106.148 82.218 105.206 82.223H97.3555ZM99.0655 78.793H103.496V66.513H99.0655V78.793Z" fill="black"/>
<path d="M113.065 82.2231C112.123 82.2181 111.36 81.4551 111.355 80.5131V60.8731C111.36 59.9311 112.123 59.1681 113.065 59.1631H120.915C121.857 59.1681 122.62 59.9311 122.625 60.8731V80.5131C122.62 81.4551 121.857 82.2181 120.915 82.2231H113.065ZM114.775 78.7931H119.205V62.5831H114.775V78.7931Z" fill="black"/>
<path d="M128.775 82.2231C127.833 82.2181 127.07 81.4551 127.065 80.5131V54.9831C127.07 54.0411 127.833 53.2781 128.775 53.2731H136.625C137.567 53.2781 138.33 54.0411 138.335 54.9831V80.5131C138.33 81.4551 137.567 82.2181 136.625 82.2231H128.775ZM130.485 78.7931H134.915V56.6931H130.485V78.7931Z" fill="black"/>
<path d="M63.9755 68.483C63.0255 68.471 62.2645 67.692 62.2765 66.742C62.2845 66.043 62.7155 65.419 63.3655 65.163L88.8855 55.323C89.0805 55.25 89.2875 55.212 89.4955 55.213H104.806L135.336 39.953L130.416 38.953C129.493 38.751 128.91 37.839 129.112 36.916C129.287 36.119 129.999 35.556 130.815 35.573H131.095L140.896 37.573C141.823 37.753 142.429 38.651 142.248 39.578C142.218 39.733 142.166 39.883 142.095 40.023L138.166 47.873C137.719 48.711 136.677 49.028 135.839 48.58C135.028 48.147 134.7 47.153 135.095 46.323L136.726 43.063L105.976 58.473C105.737 58.591 105.473 58.653 105.206 58.653H89.8655L64.5855 68.323C64.3935 68.414 64.1875 68.468 63.9755 68.483Z" fill="black"/>
<path d="M48.2654 62.583C44.0624 62.585 40.6534 59.18 40.6514 54.977C40.6494 50.774 44.0544 47.365 48.2574 47.363C52.4604 47.361 55.8694 50.766 55.8714 54.969C55.8734 58.048 54.0194 60.824 51.1754 62.003C50.2534 62.387 49.2644 62.584 48.2654 62.583ZM48.2654 50.803C45.9564 50.801 44.0834 52.67 44.0814 54.979C44.0794 57.288 45.9484 59.161 48.2574 59.163C50.5664 59.165 52.4394 57.296 52.4414 54.987C52.4434 53.297 51.4264 51.772 49.8654 51.123C49.3584 50.912 48.8144 50.803 48.2654 50.803Z" fill="black"/>
<path d="M48.2654 82.2231C44.0624 82.2251 40.6534 78.8201 40.6514 74.6171C40.6494 70.4141 44.0544 67.0051 48.2574 67.0031C52.4604 67.0011 55.8694 70.4061 55.8714 74.6091C55.8734 77.6881 54.0194 80.4641 51.1754 81.6431C50.2534 82.0271 49.2644 82.2241 48.2654 82.2231ZM48.2654 70.4431C45.9564 70.4411 44.0834 72.3101 44.0814 74.6191C44.0794 76.9281 45.9484 78.8011 48.2574 78.8031C50.5664 78.8051 52.4394 76.9361 52.4414 74.6271C52.4434 72.9371 51.4264 71.4121 49.8654 70.7631C49.3584 70.5521 48.8144 70.4431 48.2654 70.4431Z" fill="black"/>
</g>
<defs>
<clipPath id="clip0_358_25">
<rect width="153.736" height="121.233" fill="white"/>
</clipPath>
</defs>
</svg>
