<svg width="124" height="181" viewBox="0 0 124 181" fill="none" xmlns="http://www.w3.org/2000/svg">
<path d="M30.109 30.7888C29.5603 29.2276 30.349 27.5297 31.9045 26.9504C32.0994 26.8767 32.2945 26.8249 32.4917 26.7946L29.1014 16.9669C28.5801 15.4568 29.3049 13.8218 30.7712 13.198C32.2365 12.5723 33.9577 13.1632 34.7426 14.5606L43.7328 30.5677C43.8459 30.762 43.9419 30.9815 43.9947 31.1766L44.1507 31.6841L54.5397 22.6503C55.3742 21.9278 56.5448 21.707 57.6044 22.0779C58.6636 22.4489 59.4356 23.3373 59.6583 24.4439L81.7486 139.255L91.6696 163.187C92.3982 164.797 91.5728 166.545 89.9848 167.167C88.4031 167.79 86.5886 167.014 85.9363 165.44L83.872 160.465C83.7272 160.554 83.5708 160.634 83.4087 160.701C82.0719 161.249 80.5167 160.801 79.6645 159.621L75.3438 153.639C75.1431 153.359 74.9742 153.06 74.8909 152.732L70.4828 138.39L30.1312 30.8518C30.1231 30.8287 30.116 30.8088 30.109 30.7888ZM46.1438 38.1825L64.1992 96.9323L69.9961 110.911L54.5906 30.8434L46.1438 38.1825Z" fill="#B7BABC"/>
<path d="M37.5419 126.135C37.1915 125.14 37.3678 124.004 38.0946 123.161C39.1712 121.918 41.0663 121.762 42.3747 122.805L84.2785 156.219C87.0193 126.693 88.7468 107.217 88.8906 104.209C88.8231 103.62 88.9257 103.008 89.1818 102.481C89.3906 102.052 89.6945 101.687 90.0633 101.406C90.6957 100.61 93.2631 97.2606 95.5183 94.269C96.3486 93.1669 97.8355 92.7659 99.1424 93.2977C100.447 93.8229 101.241 95.1558 101.081 96.5272L93.0072 165.03C92.8788 166.129 92.1541 167.06 91.1204 167.467C90.568 167.687 89.9709 167.735 89.4021 167.628C89.1636 168.576 88.4706 169.354 87.5281 169.703C86.4385 170.105 85.2021 169.864 84.333 169.075L38.3906 127.409C37.99 127.047 37.7075 126.606 37.5419 126.135Z" fill="#B7BABC"/>
<path d="M33.5832 117.854C33.215 116.808 33.4266 115.612 34.2394 114.766C35.4049 113.55 37.3634 113.52 38.6114 114.69L85.9584 159.177L92.1257 99.4654C92.2989 97.7888 93.818 96.5924 95.5171 96.7923C97.2133 96.9932 98.4511 98.5029 98.2789 100.191L91.4815 166.02C91.3624 167.173 90.5921 168.147 89.4924 168.538C88.3913 168.926 87.154 168.663 86.2944 167.857L34.3904 119.09C34.0141 118.734 33.7429 118.307 33.5832 117.854Z" fill="#B7BABC"/>
</svg>
