<svg width="39" height="29" viewBox="0 0 39 29" fill="none" xmlns="http://www.w3.org/2000/svg">
<rect x="0.799805" y="0.488281" width="37.4199" height="28.2549" rx="2" fill="#EFC923"/>
<path d="M33.9908 0.131836H5.16203C4.92273 0.131836 4.72852 0.326051 4.72852 0.565352H35.9252C35.3347 0.293971 34.6836 0.131836 33.9908 0.131836Z" fill="#330B6F"/>
<path d="M38.2178 2.85645V5.12547L37.7843 5.48529V26.5758C37.7843 27.2929 37.2008 27.8764 36.4838 27.8764H2.66953C1.9525 27.8764 1.36899 27.2929 1.36899 26.5758V7.06762C1.36899 6.82832 1.17477 6.6341 0.935469 6.6341C0.696168 6.6341 0.501953 6.82832 0.501953 7.06762V26.5758C0.501953 27.7706 1.4739 28.7434 2.66953 28.7434H36.4838C37.6794 28.7434 38.6514 27.7706 38.6514 26.5758V4.79166C38.6514 4.09977 38.4892 3.44776 38.2178 2.85645Z" fill="#330B6F"/>
<path d="M19.5715 20.0779C18.7868 20.0779 18.0047 19.8247 17.3371 19.3184C17.3319 19.3149 17.3267 19.3106 17.3215 19.3063L0.658886 5.45975C0.559177 5.37651 0.501953 5.25426 0.501953 5.12594V2.29942C0.501953 1.10465 1.4739 0.131836 2.66953 0.131836H36.4838C37.6794 0.131836 38.6514 1.10465 38.6514 2.29942V5.12594C38.6514 5.25426 38.5941 5.37738 38.4944 5.45975L21.8318 19.3063C21.1521 19.8204 20.3605 20.0779 19.5715 20.0779ZM17.8677 18.6326C18.8926 19.4042 20.2686 19.4025 21.2925 18.6274L37.7843 4.92219V2.29942C37.7843 1.58238 37.2008 0.998868 36.4838 0.998868H2.66953C1.9525 0.998868 1.36899 1.58238 1.36899 2.29942V4.92219L17.8677 18.6326Z" fill="#330B6F"/>
</svg>
