<svg width="108" height="94" viewBox="0 0 108 94" fill="none" xmlns="http://www.w3.org/2000/svg">
<path d="M89.5763 28.4922C90.3781 27.9202 90.5575 26.7986 89.9756 25.9522C89.9031 25.8456 89.823 25.7497 89.7347 25.6636L94.7504 22.0402C95.5212 21.4835 95.7114 20.416 95.1891 19.5798C94.668 18.7429 93.6078 18.4137 92.7432 18.8197L82.84 23.471C82.7178 23.5261 82.5956 23.5997 82.5033 23.6768L82.2538 23.8708L80.1124 15.6707C79.9393 15.0136 79.4287 14.4826 78.7736 14.2835C78.1187 14.0845 77.4326 14.2442 76.9474 14.7096L27.1095 63.3554L14.0629 71.579C13.1546 72.1102 12.9766 73.2696 13.5605 74.1487C14.1407 75.0263 15.3099 75.2979 16.168 74.7569L18.881 73.0481C18.9235 73.1441 18.9744 73.2402 19.0331 73.3314C19.516 74.0838 20.445 74.4234 21.2696 74.1491L25.451 72.7574C25.6461 72.6915 25.8316 72.6048 25.984 72.4733L33.0337 66.9912L89.5439 28.5152C89.5558 28.5068 89.566 28.4995 89.5763 28.4922ZM79.0616 26.3564L50.1837 48.8147L42.5621 53.6173L77.3186 19.6922L79.0616 26.3564Z" fill="#4AA732"/>
<path d="M53.9143 72.9075C54.4292 72.5407 54.7265 71.9126 54.6471 71.2296C54.5274 70.2211 53.6257 69.4547 52.612 69.497L20.1449 70.8515C28.8014 55.1958 34.552 44.8982 35.5019 43.3528C35.736 43.0851 35.8926 42.7436 35.9427 42.3889C35.9833 42.1001 35.9544 41.8081 35.8639 41.5349C35.8162 40.9094 35.6614 38.3133 35.5423 36.0082C35.4987 35.1591 34.886 34.4194 34.0469 34.2083C33.2112 33.9948 32.3583 34.3679 31.9725 35.1068L12.7529 72.0523C12.444 72.6445 12.4925 73.3705 12.875 73.9481C13.0784 74.2582 13.363 74.4989 13.6858 74.6527C13.4836 75.2102 13.5682 75.8485 13.9244 76.3643C14.3365 76.9601 15.0415 77.2897 15.7473 77.2142L53.054 73.231C53.3787 73.197 53.671 73.0808 53.9143 72.9075Z" fill="#4AA732"/>
<path d="M58.7283 70.2461C59.2693 69.8607 59.5692 69.1901 59.4474 68.4747C59.2736 67.4476 58.2976 66.7204 57.2711 66.8478L18.3035 71.72L35.4927 39.8367C35.9754 38.9415 35.6169 37.7953 34.6932 37.2769C33.7706 36.76 32.6341 37.0595 32.1469 37.9602L13.196 73.109C12.8641 73.7246 12.9208 74.4885 13.342 75.082C13.7648 75.6747 14.4773 75.9941 15.1842 75.9065L57.9015 70.5664C58.2122 70.5264 58.4937 70.4132 58.7283 70.2461Z" fill="#4AA732"/>
</svg>
