<svg width="527" height="58" viewBox="0 0 527 58" fill="none" xmlns="http://www.w3.org/2000/svg">
<path d="M506.487 3.22702L526.767 27.0053L506.487 50.7846H347.026L367.905 27.1225L368.007 27.0053L367.905 26.8891L347.026 3.22702H506.487Z" fill="url(#paint0_linear_73_4094)" stroke="#6B21A8" stroke-width="0.352273"/>
<path d="M333.169 3.22702L353.449 27.0053L333.169 50.7846H173.708L194.587 27.1225L194.689 27.0053L194.587 26.8891L173.708 3.22702H333.169Z" fill="url(#paint1_linear_73_4094)" fill-opacity="0.96" stroke="#6B21A8" stroke-width="0.352273"/>
<path d="M159.851 3.22702L180.131 27.0053L159.851 50.7846H0.389648L21.2686 27.1225L21.3711 27.0053L21.2686 26.8891L0.389648 3.22702H159.851Z" fill="url(#paint2_linear_73_4094)" stroke="#6B21A8" stroke-width="0.352273"/>
<path d="M212.4 16.3756V36.3116H208.872V16.3756H212.4ZM218.989 21.8636V23.9916C220.137 22.3116 221.733 21.4716 223.777 21.4716C225.401 21.4716 226.633 21.9196 227.445 22.8156C228.257 23.7116 228.677 24.9996 228.677 26.6796V36.3116H225.485V27.9116C225.485 27.3516 225.457 26.8756 225.401 26.4836C225.345 26.0916 225.205 25.6996 225.037 25.3076C224.869 24.9156 224.589 24.6356 224.197 24.4396C223.805 24.2436 223.301 24.1316 222.685 24.1316C220.333 24.1316 219.157 25.6156 219.157 28.5276V36.3116H215.965V21.8636H218.989ZM240.639 36.3116V16.3196H243.831V36.3116H240.639ZM230.307 24.2156V21.8356H232.687V20.6316C232.687 18.9516 233.023 17.8316 233.751 17.2156C234.479 16.6276 235.459 16.3196 236.691 16.3196C237.727 16.3196 238.483 16.4036 238.931 16.5156V19.0076C238.483 18.8956 238.007 18.8396 237.447 18.8396C236.383 18.8396 235.879 19.3436 235.879 20.3516V21.8356H238.595V24.2156H235.879V36.3116H232.687V24.2156H230.307ZM259.698 21.8636V36.3116H256.702V34.1556C255.47 35.8636 253.902 36.7036 251.942 36.7036C250.346 36.7036 249.114 36.2556 248.274 35.3596C247.434 34.4636 247.014 33.1476 247.014 31.4396V21.8636H250.206V30.1236C250.206 30.6276 250.206 31.0476 250.234 31.3556C250.234 31.6636 250.29 31.9996 250.402 32.3916C250.514 32.7836 250.654 33.0636 250.85 33.2596C251.046 33.4836 251.326 33.6516 251.69 33.7916C252.054 33.9596 252.502 34.0156 253.034 34.0156C254.21 34.0156 255.106 33.5956 255.666 32.7556C256.226 31.9156 256.506 30.8236 256.506 29.5076V21.8636H259.698ZM275.748 31.8036C275.384 33.3716 274.6 34.6036 273.424 35.4716C272.248 36.3676 270.82 36.7876 269.196 36.7876C267.012 36.7876 265.276 36.0876 263.988 34.6876C262.7 33.2876 262.084 31.4676 262.084 29.2556C262.084 27.0156 262.728 25.1396 264.044 23.6556C265.36 22.1996 267.04 21.4436 269.084 21.4436C271.184 21.4436 272.864 22.1716 274.096 23.6276C275.328 25.0836 275.944 27.0436 275.944 29.5356V29.8716H265.276C265.304 31.3276 265.668 32.4756 266.368 33.2596C267.04 34.0436 268.02 34.4356 269.252 34.4356C270.12 34.4356 270.82 34.2396 271.38 33.8196C271.94 33.3996 272.36 32.7276 272.696 31.8036H275.748ZM272.752 27.7436C272.64 26.5396 272.276 25.5876 271.604 24.8876C270.932 24.1876 270.092 23.8236 269.056 23.8236C267.992 23.8236 267.152 24.1596 266.508 24.8316C265.864 25.5036 265.472 26.4836 265.332 27.7436H272.752ZM281.143 21.8636V23.9916C282.291 22.3116 283.887 21.4716 285.931 21.4716C287.555 21.4716 288.787 21.9196 289.599 22.8156C290.411 23.7116 290.831 24.9996 290.831 26.6796V36.3116H287.639V27.9116C287.639 27.3516 287.611 26.8756 287.555 26.4836C287.499 26.0916 287.359 25.6996 287.191 25.3076C287.023 24.9156 286.743 24.6356 286.351 24.4396C285.959 24.2436 285.455 24.1316 284.839 24.1316C282.487 24.1316 281.311 25.6156 281.311 28.5276V36.3116H278.119V21.8636H281.143ZM306.993 30.8516C306.769 32.6436 306.041 34.0436 304.865 35.1076C303.661 36.1716 302.149 36.6756 300.357 36.6756C298.173 36.6756 296.465 36.0036 295.177 34.6316C293.889 33.2596 293.245 31.4676 293.245 29.2276C293.245 26.8476 293.889 24.9436 295.177 23.5436C296.465 22.1436 298.229 21.4156 300.441 21.4156C302.289 21.4156 303.773 21.8916 304.893 22.8156C306.013 23.7676 306.685 25.0556 306.881 26.7076H303.717C303.521 25.8116 303.157 25.1116 302.597 24.6076C302.037 24.1316 301.309 23.8796 300.469 23.8796C299.237 23.8796 298.257 24.3556 297.557 25.2796C296.829 26.2036 296.493 27.4636 296.493 29.0596C296.493 30.6836 296.829 31.9156 297.501 32.8116C298.173 33.7076 299.125 34.1556 300.357 34.1556C301.309 34.1556 302.065 33.8756 302.681 33.3156C303.297 32.7556 303.689 31.9156 303.857 30.8516H306.993ZM322.103 31.8036C321.739 33.3716 320.955 34.6036 319.779 35.4716C318.603 36.3676 317.175 36.7876 315.551 36.7876C313.367 36.7876 311.631 36.0876 310.343 34.6876C309.055 33.2876 308.439 31.4676 308.439 29.2556C308.439 27.0156 309.083 25.1396 310.399 23.6556C311.715 22.1996 313.395 21.4436 315.439 21.4436C317.539 21.4436 319.219 22.1716 320.451 23.6276C321.683 25.0836 322.299 27.0436 322.299 29.5356V29.8716H311.631C311.659 31.3276 312.023 32.4756 312.723 33.2596C313.395 34.0436 314.375 34.4356 315.607 34.4356C316.475 34.4356 317.175 34.2396 317.735 33.8196C318.295 33.3996 318.715 32.7276 319.051 31.8036H322.103ZM319.107 27.7436C318.995 26.5396 318.631 25.5876 317.959 24.8876C317.287 24.1876 316.447 23.8236 315.411 23.8236C314.347 23.8236 313.507 24.1596 312.863 24.8316C312.219 25.5036 311.827 26.4836 311.687 27.7436H319.107Z" fill="black"/>
<path d="M406.275 28.1846C406.079 30.6486 405.211 32.6086 403.643 34.0646C402.075 35.5206 400.059 36.2486 397.595 36.2486C394.767 36.2486 392.499 35.2966 390.819 33.3926C389.111 31.4886 388.271 28.9686 388.271 25.8046C388.271 23.9006 388.635 22.1926 389.363 20.6246C390.091 19.0566 391.183 17.7966 392.639 16.8446C394.095 15.8926 395.803 15.3886 397.763 15.3886C399.863 15.3886 401.711 15.9766 403.279 17.1526C404.847 18.3286 405.771 20.0086 406.107 22.1926H402.635C402.383 21.0166 401.823 20.0646 400.955 19.3926C400.059 18.7206 398.995 18.3566 397.707 18.3566C396.363 18.3566 395.243 18.7486 394.319 19.4766C393.395 20.2326 392.751 21.1566 392.359 22.2486C391.967 23.3406 391.799 24.5166 391.799 25.8046C391.799 26.7846 391.911 27.7086 392.135 28.5486C392.359 29.4166 392.695 30.2006 393.143 30.9286C393.591 31.6566 394.179 32.2166 394.963 32.6366C395.747 33.0846 396.643 33.2806 397.679 33.2806C400.647 33.2806 402.327 31.6006 402.775 28.1846H406.275ZM415.394 20.9046C417.578 20.9046 419.342 21.6046 420.658 22.9766C421.946 24.3766 422.618 26.2246 422.618 28.5486C422.618 30.9006 421.946 32.7766 420.658 34.1486C419.37 35.5486 417.606 36.2206 415.394 36.2206C413.126 36.2206 411.334 35.5486 410.018 34.1486C408.674 32.7766 408.03 30.9006 408.03 28.5486C408.03 26.2246 408.674 24.3766 410.018 22.9766C411.362 21.6046 413.154 20.9046 415.394 20.9046ZM415.338 23.4246C414.05 23.4246 413.07 23.9006 412.342 24.7966C411.614 25.7206 411.25 26.9806 411.25 28.5486C411.25 30.1726 411.614 31.4606 412.342 32.3566C413.07 33.2806 414.078 33.7286 415.366 33.7286C416.598 33.7286 417.578 33.2806 418.306 32.3566C419.034 31.4326 419.398 30.1446 419.398 28.5206C419.398 26.9526 419.034 25.6926 418.306 24.7966C417.578 23.9006 416.598 23.4246 415.338 23.4246ZM428.072 21.3246V23.4526C429.22 21.7726 430.816 20.9326 432.86 20.9326C434.484 20.9326 435.716 21.3806 436.528 22.2766C437.34 23.1726 437.76 24.4606 437.76 26.1406V35.7726H434.568V27.3726C434.568 26.8126 434.54 26.3366 434.484 25.9446C434.428 25.5526 434.288 25.1606 434.12 24.7686C433.952 24.3766 433.672 24.0966 433.28 23.9006C432.888 23.7046 432.384 23.5926 431.768 23.5926C429.416 23.5926 428.24 25.0766 428.24 27.9886V35.7726H425.048V21.3246H428.072ZM439.362 21.3246H442.834L446.53 32.4406L450.086 21.3246H453.39L448.21 35.8006H444.626L439.362 21.3246ZM467.994 31.2646C467.63 32.8326 466.846 34.0646 465.67 34.9326C464.494 35.8286 463.066 36.2486 461.442 36.2486C459.258 36.2486 457.522 35.5486 456.234 34.1486C454.946 32.7486 454.33 30.9286 454.33 28.7166C454.33 26.4766 454.974 24.6006 456.29 23.1166C457.606 21.6606 459.286 20.9046 461.33 20.9046C463.43 20.9046 465.11 21.6326 466.342 23.0886C467.574 24.5446 468.19 26.5046 468.19 28.9966V29.3326H457.522C457.55 30.7886 457.914 31.9366 458.614 32.7206C459.286 33.5046 460.266 33.8966 461.498 33.8966C462.366 33.8966 463.066 33.7006 463.626 33.2806C464.186 32.8606 464.606 32.1886 464.942 31.2646H467.994ZM464.998 27.2046C464.886 26.0006 464.522 25.0486 463.85 24.3486C463.178 23.6486 462.338 23.2846 461.302 23.2846C460.238 23.2846 459.398 23.6206 458.754 24.2926C458.11 24.9646 457.718 25.9446 457.578 27.2046H464.998ZM478.512 21.0446V24.0966C477.952 24.0406 477.56 24.0126 477.392 24.0126C474.592 24.0126 473.22 25.8326 473.22 29.4166V35.7726H470.056V21.3246H473.052V24.2086C474.06 22.0806 475.684 20.9886 477.896 20.9886L478.512 21.0446ZM486.956 21.3246V23.6486H484.044V31.2646C484.044 31.7126 484.044 32.0486 484.072 32.2166C484.072 32.3846 484.128 32.5806 484.24 32.8046C484.324 33.0286 484.492 33.1686 484.716 33.2246C484.94 33.3086 485.276 33.3366 485.696 33.3366C486.2 33.3366 486.62 33.3366 486.956 33.2806V35.8006C486.312 35.8846 485.584 35.9126 484.8 35.9126C484.24 35.9126 483.736 35.8846 483.316 35.8006C482.896 35.7166 482.56 35.6046 482.28 35.4926C482 35.3806 481.748 35.2126 481.58 34.9326C481.384 34.6526 481.244 34.4286 481.132 34.2606C481.02 34.0926 480.964 33.7566 480.908 33.3086C480.852 32.8606 480.852 32.5246 480.852 32.3006V31.0686V30.9006V30.7326V30.5366V23.6486H478.444V21.3246H480.852V16.9846H484.044V21.3246H486.956Z" fill="white"/>
<path d="M58.7094 15.8367V18.7767H47.8174V24.0687H57.9254V26.8967H47.8174V32.7767H58.8774V35.7727H44.3454V15.8367H58.7094ZM64.3622 21.3247V23.4527C65.5102 21.7727 67.1062 20.9327 69.1502 20.9327C70.7742 20.9327 72.0062 21.3807 72.8182 22.2767C73.6302 23.1727 74.0502 24.4607 74.0502 26.1407V35.7727H70.8582V27.3727C70.8582 26.8127 70.8302 26.3367 70.7742 25.9447C70.7182 25.5527 70.5782 25.1607 70.4102 24.7687C70.2422 24.3767 69.9622 24.0967 69.5702 23.9007C69.1782 23.7047 68.6742 23.5927 68.0582 23.5927C65.7062 23.5927 64.5302 25.0767 64.5302 27.9887V35.7727H61.3382V21.3247H64.3622ZM90.3523 21.3247V34.0927C90.3523 36.5847 89.8203 38.4327 88.7563 39.6087C87.6923 40.8127 85.9283 41.4007 83.4083 41.4007C79.4323 41.4007 77.2763 39.9447 76.9403 37.0047H80.1323C80.4123 38.4607 81.5323 39.1607 83.4923 39.1607C84.8083 39.1607 85.7603 38.8247 86.3763 38.1527C86.9923 37.4807 87.3003 36.4167 87.3003 34.9047V33.1967C86.2363 34.8207 84.7243 35.6327 82.7083 35.6327C80.7763 35.6327 79.2363 34.9887 78.1163 33.7007C76.9963 32.4127 76.4363 30.6487 76.4363 28.4367C76.4363 26.1967 77.0243 24.3767 78.2003 23.0047C79.3763 21.6327 80.9163 20.9327 82.8763 20.9327C83.8843 20.9327 84.7523 21.1287 85.4523 21.5207C86.1243 21.9127 86.7683 22.5007 87.3843 23.3407V21.3247H90.3523ZM83.4363 23.5087C82.2323 23.5087 81.2803 23.9567 80.6083 24.7967C79.9363 25.6647 79.6003 26.8687 79.6003 28.3807C79.6003 29.8367 79.9363 31.0127 80.6363 31.8527C81.3363 32.7207 82.2603 33.1407 83.4363 33.1407C84.6123 33.1407 85.5643 32.7207 86.2643 31.8247C86.9363 30.9287 87.3003 29.7247 87.3003 28.2127C87.3003 26.7567 86.9363 25.6087 86.2643 24.7687C85.5923 23.9287 84.6403 23.5087 83.4363 23.5087ZM93.2859 25.7767C93.6219 22.5287 95.7219 20.8767 99.6139 20.8767C101.406 20.8767 102.862 21.2407 103.926 21.9407C104.99 22.6687 105.55 23.7607 105.55 25.2447V32.5807C105.55 33.0007 105.578 33.2807 105.69 33.4207C105.802 33.5887 105.998 33.6447 106.306 33.6447C106.53 33.6447 106.754 33.6447 107.034 33.5887V35.8287C106.194 36.0527 105.522 36.1367 104.962 36.1367C103.59 36.1367 102.806 35.5767 102.61 34.4007C101.378 35.5767 99.6979 36.1367 97.5419 36.1367C96.0299 36.1367 94.8539 35.7727 93.9859 34.9887C93.0899 34.2047 92.6699 33.1687 92.6699 31.8247C92.6699 31.4327 92.6979 31.0407 92.8099 30.6767C92.8939 30.3407 93.0059 30.0327 93.1179 29.7527C93.2299 29.5007 93.4259 29.2487 93.7059 29.0247C93.9859 28.8007 94.2099 28.6327 94.3779 28.4647C94.5459 28.3247 94.8539 28.1847 95.2459 28.0447C95.6379 27.9327 95.9459 27.8207 96.1419 27.7647C96.3379 27.7087 96.6739 27.6247 97.1779 27.5407C97.6539 27.4847 97.9619 27.4287 98.1299 27.4007C98.2979 27.3727 98.6339 27.3167 99.1379 27.2607C100.258 27.1207 101.042 27.0087 101.462 26.8967C101.854 26.7847 102.134 26.6447 102.302 26.4207C102.414 26.2807 102.498 25.9447 102.498 25.3847C102.498 23.9287 101.49 23.2007 99.5299 23.2007C98.4659 23.2007 97.7099 23.3967 97.2339 23.7887C96.7299 24.1807 96.4219 24.8527 96.3099 25.7767H93.2859ZM102.47 28.5207C102.218 28.6607 101.938 28.7727 101.63 28.8847C101.294 28.9967 101.042 29.0527 100.846 29.0807C100.65 29.1087 100.342 29.1367 99.9219 29.1927C99.5019 29.2487 99.2219 29.3047 99.1099 29.3047C98.7179 29.3607 98.4099 29.4167 98.1859 29.4727C97.9619 29.5287 97.6819 29.5847 97.3459 29.6967C97.0099 29.8087 96.7579 29.9487 96.5899 30.1167C96.4219 30.2847 96.2539 30.4807 96.1419 30.7607C96.0019 31.0407 95.9459 31.3487 95.9459 31.7127C95.9459 32.4127 96.1699 32.9447 96.6179 33.3087C97.0659 33.7007 97.7099 33.8687 98.5499 33.8687C99.9499 33.8687 101.042 33.5047 101.826 32.7207C102.246 32.3007 102.47 31.4607 102.47 30.2287V28.5207ZM121.949 21.3247V34.0927C121.949 36.5847 121.417 38.4327 120.353 39.6087C119.289 40.8127 117.525 41.4007 115.005 41.4007C111.029 41.4007 108.873 39.9447 108.537 37.0047H111.729C112.009 38.4607 113.129 39.1607 115.089 39.1607C116.405 39.1607 117.357 38.8247 117.973 38.1527C118.589 37.4807 118.897 36.4167 118.897 34.9047V33.1967C117.833 34.8207 116.321 35.6327 114.305 35.6327C112.373 35.6327 110.833 34.9887 109.713 33.7007C108.593 32.4127 108.033 30.6487 108.033 28.4367C108.033 26.1967 108.621 24.3767 109.797 23.0047C110.973 21.6327 112.513 20.9327 114.473 20.9327C115.481 20.9327 116.349 21.1287 117.049 21.5207C117.721 21.9127 118.365 22.5007 118.981 23.3407V21.3247H121.949ZM115.033 23.5087C113.829 23.5087 112.877 23.9567 112.205 24.7967C111.533 25.6647 111.197 26.8687 111.197 28.3807C111.197 29.8367 111.533 31.0127 112.233 31.8527C112.933 32.7207 113.857 33.1407 115.033 33.1407C116.209 33.1407 117.161 32.7207 117.861 31.8247C118.533 30.9287 118.897 29.7247 118.897 28.2127C118.897 26.7567 118.533 25.6087 117.861 24.7687C117.189 23.9287 116.237 23.5087 115.033 23.5087ZM137.958 31.2647C137.594 32.8327 136.81 34.0647 135.634 34.9327C134.458 35.8287 133.03 36.2487 131.406 36.2487C129.222 36.2487 127.486 35.5487 126.198 34.1487C124.91 32.7487 124.294 30.9287 124.294 28.7167C124.294 26.4767 124.938 24.6007 126.254 23.1167C127.57 21.6607 129.25 20.9047 131.294 20.9047C133.394 20.9047 135.074 21.6327 136.306 23.0887C137.538 24.5447 138.154 26.5047 138.154 28.9967V29.3327H127.486C127.514 30.7887 127.878 31.9367 128.578 32.7207C129.25 33.5047 130.23 33.8967 131.462 33.8967C132.33 33.8967 133.03 33.7007 133.59 33.2807C134.15 32.8607 134.57 32.1887 134.906 31.2647H137.958ZM134.962 27.2047C134.85 26.0007 134.486 25.0487 133.814 24.3487C133.142 23.6487 132.302 23.2847 131.266 23.2847C130.202 23.2847 129.362 23.6207 128.718 24.2927C128.074 24.9647 127.682 25.9447 127.542 27.2047H134.962Z" fill="black"/>
<defs>
<linearGradient id="paint0_linear_73_4094" x1="346.636" y1="27.0058" x2="527" y2="27.0058" gradientUnits="userSpaceOnUse">
<stop stop-color="#6B21A8" stop-opacity="0.7"/>
<stop offset="1" stop-color="#6B21A8"/>
</linearGradient>
<linearGradient id="paint1_linear_73_4094" x1="173.318" y1="27.0058" x2="353.682" y2="27.0058" gradientUnits="userSpaceOnUse">
<stop stop-color="#6B21A8" stop-opacity="0.2"/>
<stop offset="1" stop-color="#6B21A8" stop-opacity="0.7"/>
</linearGradient>
<linearGradient id="paint2_linear_73_4094" x1="0" y1="27.0058" x2="180.364" y2="27.0058" gradientUnits="userSpaceOnUse">
<stop stop-color="#6B21A8" stop-opacity="0"/>
<stop offset="1" stop-color="#6B21A8" stop-opacity="0.2"/>
</linearGradient>
</defs>
</svg>
