<svg width="19" height="19" viewBox="0 0 19 19" fill="none" xmlns="http://www.w3.org/2000/svg">
<path d="M13.8809 0.515625H5.97461C4.64024 0.515625 3.36052 1.0457 2.41698 1.98924C1.47344 2.93279 0.943359 4.2125 0.943359 5.54688V13.4531C0.943359 14.7875 1.47344 16.0672 2.41698 17.0108C3.36052 17.9543 4.64024 18.4844 5.97461 18.4844H13.8809C15.2152 18.4844 16.4949 17.9543 17.4385 17.0108C18.382 16.0672 18.9121 14.7875 18.9121 13.4531V5.54688C18.9121 4.2125 18.382 2.93279 17.4385 1.98924C16.4949 1.0457 15.2152 0.515625 13.8809 0.515625ZM9.92773 13.8125C9.0748 13.8125 8.24102 13.5596 7.53184 13.0857C6.82265 12.6118 6.26991 11.9383 5.9435 11.1503C5.6171 10.3623 5.5317 9.49522 5.6981 8.65867C5.8645 7.82213 6.27522 7.05372 6.87834 6.4506C7.48145 5.84749 8.24986 5.43676 9.08641 5.27036C9.92295 5.10396 10.7901 5.18937 11.5781 5.51577C12.3661 5.84217 13.0396 6.39492 13.5134 7.1041C13.9873 7.81329 14.2402 8.64707 14.2402 9.5C14.2402 10.6437 13.7859 11.7406 12.9771 12.5494C12.1684 13.3581 11.0715 13.8125 9.92773 13.8125ZM14.5996 5.90625C14.3864 5.90625 14.1779 5.84302 14.0006 5.72455C13.8233 5.60609 13.6852 5.43771 13.6036 5.24071C13.522 5.0437 13.5006 4.82693 13.5422 4.61779C13.5838 4.40866 13.6865 4.21655 13.8373 4.06578C13.988 3.915 14.1801 3.81232 14.3893 3.77072C14.5984 3.72912 14.8152 3.75047 15.0122 3.83207C15.2092 3.91367 15.3776 4.05185 15.496 4.22915C15.6145 4.40645 15.6777 4.61489 15.6777 4.82812C15.6777 5.11406 15.5641 5.38829 15.362 5.59047C15.1598 5.79266 14.8855 5.90625 14.5996 5.90625Z" fill="white"/>
</svg>
