<svg width="42" height="43" viewBox="0 0 42 43" fill="none" xmlns="http://www.w3.org/2000/svg">
<g clip-path="url(#clip0_355_419)">
<rect x="8.76758" y="8.93196" width="24.4821" height="24.2855" rx="2.2573" fill="white"/>
<path d="M20.8223 27.1248C23.6527 27.1248 25.9473 24.7818 25.9473 21.8915C25.9473 19.0011 23.6527 16.6581 20.8223 16.6581C17.9918 16.6581 15.6973 19.0011 15.6973 21.8915C15.6973 24.7818 17.9918 27.1248 20.8223 27.1248Z" fill="#F30081"/>
<path d="M27.8691 5.53717H13.7754C11.3967 5.53717 9.11549 6.50207 7.43353 8.2196C5.75156 9.93714 4.80664 12.2666 4.80664 14.6956V29.0873C4.80664 31.5163 5.75156 33.8458 7.43353 35.5633C9.11549 37.2808 11.3967 38.2458 13.7754 38.2458H27.8691C30.2478 38.2458 32.529 37.2808 34.211 35.5633C35.893 33.8458 36.8379 31.5163 36.8379 29.0873V14.6956C36.8379 12.2666 35.893 9.93714 34.211 8.2196C32.529 6.50207 30.2478 5.53717 27.8691 5.53717ZM20.8223 29.7415C19.3018 29.7415 17.8155 29.2811 16.5513 28.4185C15.2871 27.556 14.3018 26.33 13.7199 24.8955C13.1381 23.4611 12.9859 21.8828 13.2825 20.36C13.5791 18.8372 14.3113 17.4385 15.3864 16.3406C16.4615 15.2428 17.8313 14.4951 19.3225 14.1922C20.8137 13.8893 22.3594 14.0448 23.7641 14.639C25.1689 15.2331 26.3695 16.2393 27.2142 17.5302C28.0589 18.8211 28.5098 20.3389 28.5098 21.8915C28.5098 23.9734 27.6998 25.9701 26.2582 27.4423C24.8165 28.9145 22.8611 29.7415 20.8223 29.7415ZM29.1504 15.3497C28.7703 15.3497 28.3987 15.2346 28.0827 15.019C27.7666 14.8034 27.5203 14.4969 27.3748 14.1383C27.2293 13.7796 27.1913 13.3851 27.2654 13.0044C27.3396 12.6237 27.5226 12.274 27.7914 11.9995C28.0602 11.7251 28.4026 11.5381 28.7755 11.4624C29.1483 11.3867 29.5347 11.4256 29.8859 11.5741C30.237 11.7226 30.5372 11.9742 30.7484 12.2969C30.9595 12.6196 31.0723 12.9991 31.0723 13.3872C31.0723 13.9077 30.8698 14.4069 30.5094 14.7749C30.1489 15.143 29.6601 15.3497 29.1504 15.3497Z" fill="#F30081"/>
</g>
<defs>
<clipPath id="clip0_355_419">
<rect width="41" height="41.867" fill="white" transform="translate(0.322266 0.958008)"/>
</clipPath>
</defs>
</svg>
