<svg width="19" height="18" viewBox="0 0 19 18" fill="none" xmlns="http://www.w3.org/2000/svg">
<path d="M4.31534 5.17969H0.462891V17.883H4.31534V5.17969Z" fill="white"/>
<path d="M13.6732 5.17969C11.4711 5.17969 10.86 5.90441 10.37 6.83619V5.17969H6.51758V17.883H10.37V10.7031C10.37 9.5979 10.37 8.4927 12.2963 8.4927C14.2225 8.4927 14.2225 9.5979 14.2225 10.7031V17.883H18.0749V10.7031C18.0724 7.3875 17.5231 5.17969 13.6732 5.17969Z" fill="white"/>
<path d="M2.38912 4.07492C3.45295 4.07492 4.31534 3.20928 4.31534 2.14146C4.31534 1.07365 3.45295 0.208008 2.38912 0.208008C1.3253 0.208008 0.462891 1.07365 0.462891 2.14146C0.462891 3.20928 1.3253 4.07492 2.38912 4.07492Z" fill="white"/>
</svg>
