<svg width="32" height="33" viewBox="0 0 32 33" fill="none" xmlns="http://www.w3.org/2000/svg">
<path d="M6.85209 9.82187H0V32.8942H6.85209V9.82187Z" fill="black"/>
<path d="M23.4958 9.82187C19.579 9.82187 18.4921 11.1381 17.6206 12.8305V9.82187H10.7686V32.8942H17.6206V19.8537C17.6206 17.8464 17.6207 15.8391 21.0467 15.8391C24.4727 15.8391 24.4727 17.8464 24.4727 19.8537V32.8942H31.3248V19.8537C31.3203 13.8318 30.3433 9.82187 23.4958 9.82187Z" fill="black"/>
<path d="M3.42605 7.81544C5.31821 7.81544 6.85209 6.24324 6.85209 4.30383C6.85209 2.36441 5.31821 0.792206 3.42605 0.792206C1.5339 0.792206 0 2.36441 0 4.30383C0 6.24324 1.5339 7.81544 3.42605 7.81544Z" fill="black"/>
<path d="M6.85209 9.8219H0V32.8942H6.85209V9.8219Z" fill="black"/>
<path d="M23.4958 9.8219C19.579 9.8219 18.4921 11.1382 17.6206 12.8305V9.8219H10.7686V32.8942H17.6206V19.8537C17.6206 17.8464 17.6207 15.8391 21.0467 15.8391C24.4727 15.8391 24.4727 17.8464 24.4727 19.8537V32.8942H31.3248V19.8537C31.3203 13.8318 30.3433 9.8219 23.4958 9.8219Z" fill="black"/>
<path d="M3.42605 7.81544C5.31821 7.81544 6.85209 6.24324 6.85209 4.30383C6.85209 2.36441 5.31821 0.792206 3.42605 0.792206C1.5339 0.792206 0 2.36441 0 4.30383C0 6.24324 1.5339 7.81544 3.42605 7.81544Z" fill="black"/>
</svg>
