<svg width="61" height="75" viewBox="0 0 61 75" fill="none" xmlns="http://www.w3.org/2000/svg">
<path d="M19.9659 11.6794C19.6136 11.0924 18.8646 10.8952 18.2693 11.2377C18.1944 11.2803 18.1263 11.3288 18.0646 11.3836L15.8297 7.70868C15.4864 7.14391 14.7743 6.94299 14.1884 7.24531C13.6022 7.54675 13.336 8.251 13.5737 8.87L16.298 15.9601C16.3301 16.0475 16.3746 16.136 16.4228 16.2044L16.5433 16.3881L10.9227 17.3115C10.4723 17.3865 10.0928 17.701 9.93114 18.1364C9.76961 18.5718 9.84873 19.0522 10.1424 19.4154L40.8762 56.7678L45.879 66.2473C46.1994 66.9045 46.974 67.1032 47.5914 66.7615C48.2075 66.4223 48.4396 65.6395 48.1104 65.0161L47.071 63.0449C47.1375 63.0222 47.2044 62.9937 47.2684 62.9596C47.7961 62.6787 48.0639 62.0649 47.9133 61.482L47.149 58.5263C47.1127 58.3884 47.0619 58.2555 46.9796 58.1425L43.5758 52.9515L19.9802 11.7031C19.975 11.6944 19.9704 11.6869 19.9659 11.6794ZM18.0867 18.7388L32.0307 40.0028L34.9522 45.5404L13.5187 19.4911L18.0867 18.7388Z" fill="#6B21A8"/>
<path d="M48.3723 39.2236C48.1478 38.8492 47.7394 38.6054 47.2789 38.6142C46.5987 38.6288 46.0486 39.1913 46.0354 39.8835L45.6128 62.0531C35.4849 55.1293 28.8256 50.5366 27.8297 49.7883C27.6601 49.6114 27.4379 49.4823 27.2024 49.4247C27.0107 49.378 26.814 49.3782 26.6274 49.4217C26.2067 49.4127 24.4621 49.3461 22.9137 49.2744C22.3435 49.2478 21.8231 49.6156 21.6474 50.1722C21.4702 50.7264 21.6851 51.3312 22.1641 51.6425L46.1141 67.1597C46.498 67.409 46.986 67.4241 47.3884 67.2022C47.6044 67.0845 47.7772 66.9068 47.8934 66.6975C48.2584 66.8719 48.6892 66.8566 49.0492 66.6486C49.465 66.4077 49.7145 65.9501 49.6929 65.4651L48.5537 39.8301C48.5442 39.607 48.4783 39.4006 48.3723 39.2236Z" fill="#6B21A8"/>
<path d="M46.7808 35.7755C46.5449 35.3821 46.1081 35.1337 45.624 35.1691C44.9291 35.2193 44.4022 35.835 44.4455 36.5416L46.1121 63.3688L25.4655 49.5656C24.8858 49.1781 24.1036 49.3459 23.7186 49.9399C23.3347 50.5332 23.4887 51.3261 24.0718 51.717L46.8331 66.9347C47.2318 67.2013 47.7456 67.2133 48.1603 66.9661C48.5745 66.7178 48.8175 66.2543 48.7878 65.7677L46.9614 36.3591C46.9474 36.1452 46.8831 35.9462 46.7808 35.7755Z" fill="#6B21A8"/>
</svg>
