<svg width="179" height="112" viewBox="0 0 179 112" fill="none" xmlns="http://www.w3.org/2000/svg">
<path d="M26.9783 81.3299C25.3737 81.709 23.7633 80.6981 23.339 79.0318C23.2847 78.8228 23.2522 78.6162 23.2413 78.4101L13.1466 80.7308C11.5954 81.0877 10.0413 80.1499 9.56416 78.5699C9.08493 76.9907 9.83956 75.2925 11.3043 74.6514L28.0837 67.3089C28.2878 67.2157 28.5152 67.143 28.7142 67.1118L29.2336 67.0116L21.268 55.2715C20.6313 54.3289 20.5258 53.1002 20.9974 52.0556C21.4691 51.0114 22.4269 50.3235 23.5481 50.2255L139.774 41.108L164.519 33.7463C166.19 33.1883 167.846 34.2428 168.31 35.9477C168.775 37.6461 167.828 39.4183 166.2 39.9022L161.056 41.4345C161.13 41.5938 161.195 41.764 161.245 41.9384C161.66 43.3764 161.063 44.9209 159.808 45.6569L153.444 49.3881C153.146 49.5611 152.832 49.6991 152.499 49.746L137.82 52.5785L27.043 81.3146C27.0193 81.3203 26.9988 81.3251 26.9783 81.3299ZM35.8844 65.7326L96.0153 54.1315L110.469 49.8294L29.4137 56.1879L35.8844 65.7326Z" fill="#4AA732"/>
<path d="M122.242 85.401C121.213 85.6449 120.094 85.3267 119.321 84.4735C118.183 83.2105 118.212 81.2298 119.383 79.9997L156.895 40.6048C127.631 34.2413 108.321 30.127 105.327 29.619C104.732 29.6186 104.129 29.4392 103.627 29.1112C103.219 28.8438 102.883 28.4855 102.638 28.0702C101.903 27.3203 98.8046 24.2622 96.0328 21.5701C95.0116 20.5789 94.7557 18.9915 95.4152 17.7019C96.0679 16.414 97.4785 15.7513 98.8346 16.0803L166.559 32.6197C167.645 32.8838 168.506 33.7454 168.812 34.8642C168.978 35.4623 168.967 36.0863 168.805 36.6624C169.73 37.0226 170.441 37.833 170.698 38.8504C170.993 40.0266 170.631 41.2778 169.758 42.0835L123.599 84.6743C123.198 85.0459 122.729 85.2857 122.242 85.401Z" fill="#4AA732"/>
<path d="M113.581 88.5278C112.499 88.7842 111.324 88.4223 110.557 87.4798C109.455 86.1282 109.616 84.0971 110.909 82.9449L160.019 39.2428L100.909 25.729C99.249 25.3495 98.2009 23.6341 98.5667 21.8991C98.9332 20.1671 100.564 19.066 102.235 19.4459L167.401 34.3422C168.542 34.6031 169.442 35.5169 169.725 36.702C170.005 37.8881 169.621 39.1376 168.731 39.9313L114.896 87.8398C114.503 88.1869 114.05 88.4167 113.581 88.5278Z" fill="#4AA732"/>
</svg>
