<svg width="153" height="86" viewBox="0 0 153 86" fill="none" xmlns="http://www.w3.org/2000/svg">
<path d="M20.2075 60.3821C18.7807 60.6086 17.4455 59.6632 17.1911 58.2341C17.1583 58.0548 17.1442 57.8788 17.1491 57.7044L8.17706 59.0754C6.79841 59.2864 5.50725 58.4059 5.20071 57.0464C4.8923 55.6876 5.66906 54.3 6.9921 53.8445L22.1477 48.6282C22.3323 48.5615 22.5358 48.5134 22.7117 48.4986L23.172 48.4443L17.0364 38.0871C16.5463 37.2557 16.5397 36.214 17.024 35.3608C17.5083 34.508 18.3921 33.9837 19.3774 33.9662L121.453 33.0173L143.562 28.2465C145.059 27.873 146.431 28.8578 146.717 30.3216C147.005 31.7802 146.054 33.219 144.6 33.5325L140.004 34.526C140.058 34.6645 140.102 34.8117 140.134 34.9616C140.396 36.1978 139.768 37.465 138.621 38.0126L132.807 40.7887C132.535 40.9172 132.252 41.0154 131.957 41.0355L118.949 42.5723L20.2651 60.373C20.244 60.3763 20.2257 60.3792 20.2075 60.3821ZM29.0657 47.7516L82.3542 41.4584L95.2683 38.67L24.0821 39.3316L29.0657 47.7516Z" fill="#FF3064"/>
<path d="M103.07 69.3348C102.154 69.4807 101.199 69.1477 100.585 68.3837C99.6791 67.2532 99.8424 65.5854 100.95 64.6164L136.43 33.5855C111.332 26.5259 94.7644 21.9389 92.1867 21.3372C91.6672 21.3023 91.1536 21.1162 90.7383 20.8106C90.4004 20.5616 90.1321 20.2401 89.9478 19.8759C89.3584 19.2012 86.8666 16.4441 84.6347 14.0143C83.8123 13.1196 83.6994 11.7668 84.3648 10.7181C85.024 9.67035 86.3012 9.19353 87.4619 9.54942L145.42 27.4152C146.35 27.7008 147.042 28.4769 147.23 29.4376C147.334 29.9514 147.281 30.4767 147.1 30.9529C147.882 31.3101 148.446 32.0343 148.599 32.9068C148.775 33.9153 148.372 34.9489 147.554 35.5774L104.304 68.8009C103.928 69.0908 103.502 69.2658 103.07 69.3348Z" fill="#FF3064"/>
<path d="M95.294 71.4685C94.3318 71.6219 93.3312 71.2487 92.7276 70.4099C91.86 69.2068 92.1415 67.5042 93.3497 66.6079L139.253 32.6187L88.6021 17.8025C87.18 17.3864 86.3845 15.8798 86.8245 14.4386C87.2649 13 88.7646 12.1664 90.197 12.5834L146.036 28.916C147.014 29.2021 147.736 30.0244 147.9 31.0397C148.062 32.0557 147.641 33.0866 146.809 33.704L96.4897 70.9648C96.1226 71.2346 95.7112 71.402 95.294 71.4685Z" fill="#FF3064"/>
</svg>
