<svg width="35" height="34" viewBox="0 0 35 34" fill="none" xmlns="http://www.w3.org/2000/svg">
<path d="M32.4143 12.0203L22.0256 10.6058L17.5239 1.0583C17.5239 0.704689 17.1776 0.351074 16.8313 0.351074C16.485 0.351074 16.1387 0.704689 16.1387 1.0583L11.6369 10.6058L1.24825 12.0203C0.901957 12.0203 0.555664 12.3739 0.555664 12.7275C0.555664 13.0811 0.555665 13.4347 0.901955 13.7884L8.52034 21.2142L6.78889 31.8226C6.78889 32.1762 6.78888 32.5298 7.13517 32.8834C7.48146 33.237 7.82775 33.237 8.17404 32.8834L17.5239 27.9329L26.8737 32.8834H27.22C27.5663 32.8834 27.5663 32.8834 27.9126 32.5298C28.2589 32.1762 28.2589 31.8226 28.2589 31.469L26.5274 20.8606L34.1458 13.4347C34.4921 13.0811 34.4921 12.7275 34.4921 12.3739C33.1069 12.3739 32.7606 12.0203 32.4143 12.0203Z" fill="#EFC923"/>
</svg>
