<svg width="41" height="39" viewBox="0 0 41 39" fill="none" xmlns="http://www.w3.org/2000/svg">
<path d="M35.1275 13.4375C37.6232 13.4375 39.6535 11.4017 39.6535 8.89996C39.4051 2.88014 30.8495 2.88186 30.6016 8.89996C30.6016 11.4017 32.6323 13.4375 35.1275 13.4375Z" fill="#464EB8"/>
<path d="M38.1121 14.6553H30.0336H30.0181C30.0159 14.6553 30.0168 14.6553 30.0142 14.6553C29.5308 14.6553 23.21 14.6553 21.1724 14.6553V13.0711C21.5099 13.1309 21.8634 13.1709 22.2345 13.1864C22.2745 13.1869 22.3145 13.1839 22.3546 13.1834C22.5087 13.1808 22.6615 13.1735 22.8122 13.1606C22.8639 13.1559 22.9151 13.1516 22.9659 13.1455C23.1394 13.1262 23.3107 13.1008 23.4795 13.0676C23.4898 13.0655 23.501 13.0642 23.5114 13.0625C24.3112 12.8993 25.0655 12.5803 25.7358 12.1283C26.3557 11.7102 26.8926 11.1798 27.3257 10.572C27.4376 10.4252 27.5396 10.2719 27.6348 10.1152C27.6438 10.0997 27.6537 10.0851 27.6628 10.0691C27.736 9.94557 27.8005 9.81771 27.8634 9.68855C27.8909 9.63259 27.9194 9.57662 27.9452 9.51979C28.0115 9.37127 28.0726 9.22016 28.1264 9.06647C28.1312 9.05355 28.1359 9.04107 28.1402 9.02858C28.7545 7.21699 28.4734 5.08683 27.4187 3.49395C27.1397 3.08539 26.8086 2.71644 26.4423 2.38581C26.3665 2.31994 26.2942 2.25063 26.2145 2.18907C25.9071 1.93593 25.5752 1.71163 25.2226 1.52092C25.0461 1.42535 24.8649 1.33795 24.6789 1.2596C24.4921 1.17694 24.297 1.10892 24.099 1.04736C23.9854 1.01249 23.8674 0.986656 23.7512 0.958242C23.6483 0.933273 23.5467 0.906151 23.4425 0.886778C23.3564 0.870418 23.2681 0.860086 23.1812 0.847171C23.0296 0.825645 22.8781 0.805842 22.7248 0.795079C22.6723 0.791204 22.6193 0.789913 22.5664 0.78733C22.4105 0.779581 22.2543 0.780011 22.098 0.784316C21.2025 0.836408 20.4078 1.02454 19.7117 1.31815C19.5696 1.38229 19.4258 1.44472 19.2919 1.52049C17.8962 2.28077 16.8286 3.57488 16.3356 5.09071C15.9938 6.22252 15.9645 7.44473 16.2551 8.59032C16.2581 8.60108 16.2607 8.61228 16.2637 8.62304C16.2775 8.67255 16.2917 8.72206 16.3055 8.77157C16.3223 8.83055 16.3421 8.8891 16.3606 8.94764C16.3774 8.995 16.395 9.04193 16.4127 9.08928H2.73108C1.50585 9.08928 0.508789 10.0863 0.508789 11.3116V27.5297C0.508789 28.7554 1.50585 29.752 2.73108 29.752H11.3938C11.405 29.8028 11.4192 29.8519 11.4313 29.9023C12.6238 34.5944 16.7967 37.9128 21.7278 38.0325C25.8189 37.933 29.3331 35.5695 31.0926 32.181C31.1189 32.1904 31.146 32.1973 31.1723 32.2064C35.5557 33.8643 40.5367 30.3857 40.4481 25.6923V16.9853C40.4485 15.7006 39.4002 14.6553 38.1121 14.6553Z" fill="#464EB8"/>
<path d="M32.2952 17.0311C32.3249 15.7521 31.3107 14.6857 30.0346 14.6543C30.0295 14.6543 20.8079 14.6543 20.8079 14.6543C20.4683 14.6543 20.1927 14.9303 20.1927 15.2712V27.7969C20.1927 28.3746 19.7239 28.8443 19.1475 28.8443H11.9558C11.7711 28.8443 11.5959 28.9279 11.4792 29.0712C11.3626 29.215 11.3161 29.4036 11.3535 29.5852C12.3725 34.5624 16.6264 38.1253 21.7288 38.2497C27.6939 38.1033 32.4339 33.1206 32.2952 27.1567V17.0311Z" fill="#7B83EB"/>
<path d="M22.2334 13.1871C22.2734 13.1875 22.3135 13.1845 22.3535 13.1841C22.5076 13.1819 22.6605 13.1742 22.8116 13.1612C22.8632 13.1565 22.9145 13.1522 22.9653 13.1462C23.1383 13.1268 23.3101 13.1014 23.4789 13.0683C23.4892 13.0661 23.5004 13.0648 23.5107 13.0627C24.3106 12.8995 25.0649 12.5805 25.7352 12.1284C26.3555 11.7104 26.8919 11.18 27.3255 10.5722C27.4374 10.4254 27.5394 10.2721 27.6346 10.1154C27.6436 10.0999 27.6535 10.0852 27.6626 10.0693C27.7357 9.94576 27.8003 9.81747 27.8632 9.68875C27.8907 9.63278 27.9191 9.57725 27.945 9.51999C28.0113 9.37146 28.0728 9.22035 28.1262 9.06666C28.1309 9.05375 28.1357 9.04126 28.14 9.02878C28.7543 7.21719 28.4732 5.0866 27.4185 3.49414C27.1395 3.08559 26.8084 2.71664 26.4421 2.38601C26.3663 2.32014 26.294 2.25083 26.2143 2.18927C25.9069 1.93613 25.575 1.71183 25.2224 1.52111C25.0459 1.42554 24.8647 1.33815 24.6787 1.25979C24.4918 1.17714 24.2968 1.10912 24.0988 1.04755C23.9851 1.01268 23.8672 0.987282 23.7509 0.958438C23.648 0.933468 23.5464 0.906346 23.4423 0.886973C23.3562 0.870614 23.2683 0.860282 23.1809 0.847366C23.0294 0.825841 22.8779 0.806037 22.7246 0.795274C22.6721 0.7914 22.6191 0.790108 22.5666 0.787525C22.4108 0.780637 22.2545 0.781068 22.0982 0.785373C21.2028 0.837465 20.408 1.02517 19.7119 1.31921C19.5698 1.38335 19.426 1.44578 19.2921 1.52154C17.8964 2.28226 16.8283 3.57637 16.3358 5.09219C15.994 6.224 15.9647 7.44622 16.2553 8.59181C16.2583 8.60257 16.2609 8.61376 16.2639 8.62453C16.2777 8.67404 16.2919 8.72354 16.3057 8.77305C16.3225 8.83203 16.3423 8.89058 16.3608 8.94913C16.3866 9.02275 16.4138 9.09551 16.4413 9.16869H16.4297C17.1938 11.3113 19.1281 13.0558 22.2334 13.1871Z" fill="#7B83EB"/>
<path d="M18.9501 9.08984H2.73108C1.50585 9.08984 0.508789 10.0869 0.508789 11.3121V27.5303C0.508789 28.756 1.50585 29.7526 2.73108 29.7526H18.9501C20.1753 29.7526 21.172 28.7555 21.172 27.5303V11.3121C21.1724 10.0869 20.1758 9.08984 18.9501 9.08984Z" fill="#464EB8"/>
<path d="M14.9301 13.6055H6.62986C6.29794 13.6055 6.0293 13.8745 6.0293 14.2065V15.7193C6.0293 16.0512 6.29794 16.3203 6.62986 16.3203H9.30763V24.7475C9.30763 25.0794 9.57627 25.3485 9.90819 25.3485H11.6879C12.0198 25.3485 12.2885 25.0794 12.2885 24.7475V16.3203H14.9301C15.262 16.3203 15.5307 16.0512 15.5307 15.7193V14.2065C15.5307 13.8745 15.262 13.6055 14.9301 13.6055Z" fill="white"/>
</svg>
