<svg width="60" height="58" viewBox="0 0 60 58" fill="none" xmlns="http://www.w3.org/2000/svg">
<path d="M6.22227 57.559H9.17227V18.4329H6.22227C4.65749 18.4329 3.1568 19.0671 2.05034 20.196C0.943871 21.3248 0.322266 22.8559 0.322266 24.4523V51.5396C0.322266 53.136 0.943871 54.6671 2.05034 55.7959C3.1568 56.9248 4.65749 57.559 6.22227 57.559ZM53.4223 18.4329H32.7723L36.0822 8.2963C36.3775 7.39163 36.458 6.42832 36.3169 5.48571C36.1758 4.5431 35.8173 3.64817 35.2708 2.87462C34.7244 2.10107 34.0056 1.47104 33.1737 1.03642C32.3418 0.601806 31.4206 0.375034 30.486 0.374786H29.8223L15.0723 16.7415V57.559H47.5223L59.0627 31.6876L59.3223 30.4717V24.4523C59.3223 22.8559 58.7007 21.3248 57.5942 20.196C56.4877 19.0671 54.987 18.4329 53.4223 18.4329Z" fill="#F30081"/>
</svg>
