<svg width="42" height="42" viewBox="0 0 42 42" fill="none" xmlns="http://www.w3.org/2000/svg">
<path d="M3.66309 38.4863L11.3506 36.3723C14.1053 38.102 17.4365 39.127 20.96 39.127C30.8896 39.127 38.8975 31.1191 38.8975 21.1895C38.8975 11.2598 30.8896 3.25195 20.96 3.25195C11.0303 3.25195 3.02246 11.2598 3.02246 21.1895C3.02246 24.7129 4.04746 28.0441 5.77715 30.7988L3.66309 38.4863Z" fill="#0ECC24"/>
<path d="M29.8642 26.0578C28.647 28.6203 26.4048 28.9406 26.4048 28.9406C24.4829 29.325 22.0486 28.4922 20.1267 27.5953C17.372 26.3141 15.0017 24.2641 13.4001 21.6375C12.6954 20.4203 12.0548 19.0109 11.9907 17.6656C11.9907 17.6656 11.7345 15.4234 13.9126 13.6297C14.1048 13.5016 14.297 13.4375 14.5532 13.4375H15.5142C15.8986 13.4375 16.2829 13.6937 16.4111 14.0781L17.8845 17.6656C18.0126 18.05 17.9486 18.4344 17.6923 18.7547L16.7314 19.7797C16.4111 20.1 16.4111 20.5484 16.6032 20.9328C16.6673 21.0609 16.7954 21.2531 16.9876 21.4453C18.1407 22.9828 19.6782 24.1359 21.4079 24.9047C21.6642 25.0328 21.8564 25.0969 22.0486 25.1609C22.497 25.2891 22.8814 25.0969 23.1376 24.7766L23.9064 23.6234C24.0986 23.3031 24.4829 23.1109 24.8673 23.175L28.7111 23.7516C29.0954 23.8156 29.4157 24.1359 29.5439 24.5203L29.8001 25.4813C29.9282 25.6094 29.9282 25.8656 29.8642 26.0578Z" fill="white"/>
</svg>
