<svg width="145" height="182" viewBox="0 0 145 182" fill="none" xmlns="http://www.w3.org/2000/svg">
<path d="M96.6688 27.7677C97.4823 26.3267 99.2794 25.802 100.74 26.591C100.924 26.6892 101.091 26.8019 101.244 26.9304L106.407 17.9069C107.2 16.5202 108.907 15.9888 110.343 16.6815C111.778 17.372 112.467 19.0565 111.933 20.5674L105.807 37.8744C105.735 38.0874 105.634 38.3042 105.522 38.4725L105.242 38.9241L118.882 40.7929C119.975 40.9451 120.913 41.6806 121.331 42.7222C121.75 43.7637 121.589 44.9296 120.903 45.826L49.0524 138.059L37.5758 161.286C36.8439 162.894 34.9851 163.424 33.4714 162.639C31.9608 161.859 31.3498 159.982 32.1049 158.455L34.4892 153.625C34.327 153.574 34.1635 153.51 34.0068 153.431C32.7136 152.787 32.0269 151.321 32.3533 149.903L34.0095 142.712C34.0883 142.376 34.2023 142.052 34.394 141.774L42.2835 129.012L96.636 27.8259C96.648 27.8045 96.6584 27.7861 96.6688 27.7677ZM101.665 44.7035L69.344 96.9808L62.642 110.549L112.75 46.2268L101.665 44.7035Z" fill="#E6C32B"/>
<path d="M29.8124 96.1518C30.3307 95.2326 31.3017 94.6172 32.415 94.6087C34.0595 94.6002 35.4247 95.9237 35.5013 97.5954L37.9518 151.135C61.9765 133.752 77.7707 122.226 80.1287 120.354C80.5272 119.915 81.0558 119.589 81.6209 119.435C82.0811 119.309 82.5563 119.297 83.0101 119.39C84.0261 119.342 88.2371 119.068 91.9736 118.795C93.3497 118.694 94.6307 119.549 95.0912 120.883C95.5551 122.21 95.0748 123.685 93.9376 124.469L37.0698 163.506C36.1584 164.133 34.9802 164.201 33.9936 163.69C33.464 163.42 33.0351 163.002 32.7408 162.503C31.8702 162.948 30.8282 162.939 29.9451 162.46C28.9249 161.905 28.2925 160.815 28.3134 159.642L29.4133 97.6289C29.4217 97.0892 29.5676 96.5861 29.8124 96.1518Z" fill="#E6C32B"/>
<path d="M33.4374 87.7189C33.982 86.753 35.0214 86.1246 36.1934 86.1791C37.8757 86.2557 39.1885 87.7093 39.1294 89.4194L36.8321 154.347L85.8287 119.664C87.2045 118.691 89.1052 119.046 90.0737 120.456C91.0396 121.865 90.7187 123.79 89.3348 124.773L35.3201 163.009C34.374 163.679 33.1333 163.741 32.1153 163.171C31.0984 162.597 30.4814 161.493 30.5217 160.316L33.0386 89.1406C33.0588 88.6228 33.2013 88.1378 33.4374 87.7189Z" fill="#E6C32B"/>
</svg>
