<svg width="128" height="100" viewBox="0 0 128 100" fill="none" xmlns="http://www.w3.org/2000/svg">
<path d="M14.1541 71.847C14.2528 71.945 14.3866 72 14.5261 72C14.6657 72 14.7995 71.945 14.8982 71.847L17.5032 69.261L20.1081 71.847C20.2074 71.9422 20.3403 71.9949 20.4783 71.9937C20.6163 71.9925 20.7483 71.9375 20.8459 71.8407C20.9434 71.7438 20.9988 71.6128 21 71.4758C21.0012 71.3388 20.9481 71.2069 20.8523 71.1083L17.8752 68.153C17.7766 68.055 17.6427 68 17.5032 68C17.3636 68 17.2298 68.055 17.1311 68.153L14.1541 71.1083C14.0554 71.2063 14 71.3392 14 71.4777C14 71.6162 14.0554 71.7491 14.1541 71.847Z" fill="#5DB947"/>
<path d="M121.154 48.847C121.253 48.945 121.387 49 121.526 49C121.666 49 121.8 48.945 121.898 48.847L124.503 46.261L127.108 48.847C127.207 48.9422 127.34 48.9949 127.478 48.9937C127.616 48.9925 127.748 48.9375 127.846 48.8407C127.943 48.7438 127.999 48.6128 128 48.4758C128.001 48.3388 127.948 48.2069 127.852 48.1083L124.875 45.153C124.777 45.055 124.643 45 124.503 45C124.364 45 124.23 45.055 124.131 45.153L121.154 48.1083C121.055 48.2063 121 48.3392 121 48.4777C121 48.6162 121.055 48.7491 121.154 48.847Z" fill="#5DB947"/>
<path d="M111.154 81.847C111.253 81.945 111.387 82 111.526 82C111.666 82 111.8 81.945 111.898 81.847L114.503 79.261L117.108 81.847C117.207 81.9422 117.34 81.9949 117.478 81.9937C117.616 81.9925 117.748 81.9375 117.846 81.8407C117.943 81.7438 117.999 81.6128 118 81.4758C118.001 81.3388 117.948 81.2069 117.852 81.1083L114.875 78.153C114.777 78.055 114.643 78 114.503 78C114.364 78 114.23 78.055 114.131 78.153L111.154 81.1083C111.055 81.2063 111 81.3392 111 81.4777C111 81.6162 111.055 81.7491 111.154 81.847Z" fill="#5DB947"/>
<path fill-rule="evenodd" clip-rule="evenodd" d="M80.2218 21.9042V22.662C80.2023 23.3964 79.6008 23.9862 78.8624 23.9862C78.1281 23.9862 77.5226 23.3964 77.503 22.662V21.9042C76.9327 21.7011 76.4132 21.3769 75.9835 20.9511C75.2179 20.1933 74.7843 19.1581 74.7843 18.08C74.7726 17.7128 74.9133 17.3573 75.1711 17.0917C75.4289 16.83 75.7804 16.6815 76.1476 16.6815C76.5148 16.6815 76.8703 16.83 77.1242 17.0917C77.382 17.3573 77.5226 17.7128 77.5109 18.08C77.5109 18.4354 77.6515 18.7714 77.9015 19.0214C78.4367 19.5409 79.2882 19.5409 79.8234 19.0214C80.0734 18.7714 80.2141 18.4354 80.2141 18.08C80.2141 17.0917 79.3664 16.8964 78.5266 16.7011C76.6477 16.2714 74.7882 15.8417 74.7882 12.787L74.7843 12.7909C74.7882 11.7245 75.2257 10.7089 75.9991 9.97449C76.4288 9.56433 76.9406 9.25183 77.4991 9.05652V8.30261V8.30651C77.5187 7.57213 78.1241 6.98231 78.8585 6.98231C79.5929 6.98231 80.1983 7.57215 80.2179 8.30651V9.06042V9.05652C80.7765 9.25183 81.2882 9.56433 81.7179 9.97449C82.4953 10.705 82.9367 11.7245 82.9406 12.7909C82.9406 13.5448 82.3313 14.1542 81.5773 14.1542C80.8234 14.1542 80.214 13.5448 80.214 12.7909C80.214 12.4667 80.0773 12.1542 79.839 11.9315C79.2883 11.4276 78.4406 11.4276 77.8859 11.9315C77.6516 12.1542 77.5149 12.4667 77.5149 12.7909C77.5149 13.6815 78.3234 13.8651 79.1359 14.0526C81.0343 14.4862 82.9445 14.9237 82.9445 18.0838L82.9406 18.0799C82.9406 19.158 82.511 20.1932 81.7414 20.951C81.3118 21.3768 80.7921 21.7011 80.2218 21.9042ZM86.4132 8.0762C82.214 3.9746 75.5112 3.9746 71.3152 8.0762C69.323 10.0254 68.2019 12.6973 68.2019 15.4824C68.2019 18.2676 69.323 20.9394 71.3152 22.8886C75.5105 26.9902 82.2132 26.9902 86.4132 22.8886C88.4054 20.9394 89.5266 18.2675 89.5266 15.4824C89.5266 12.6972 88.4054 10.0254 86.4132 8.0762ZM99.2334 35.6385H99.2295C99.4014 35.9705 99.4249 36.3612 99.2959 36.7127C99.1709 37.0643 98.9053 37.3494 98.5616 37.4979C98.2178 37.6463 97.8272 37.6502 97.4835 37.5018C97.1397 37.3572 96.8702 37.076 96.7413 36.7244L94.6397 31.9002L94.6436 31.8963C87.5186 46.9823 73.1006 57.3063 56.5266 59.1973C51.7649 59.7364 46.9524 59.5567 42.2456 58.6661C41.5073 58.5254 41.019 57.8145 41.1558 57.0763C41.2964 56.338 42.0073 55.8536 42.7456 55.9904C52.5503 57.8459 62.6906 56.4123 71.5976 51.9123C80.5046 47.4123 87.6756 40.1003 92.0036 31.1113L87.4802 33.084H87.4763C86.7927 33.3691 86.0036 33.0527 85.7068 32.373C85.4099 31.6894 85.7146 30.8964 86.3904 30.5918L94.0349 27.2559C94.3786 27.088 94.7771 27.0723 95.1326 27.213C95.488 27.3536 95.7693 27.6348 95.906 27.9903L99.238 35.6348L99.2334 35.6385ZM75.397 82.4739H82.6432V59.5289H75.397V82.4739ZM42.365 82.4739H49.615L49.6111 73.8645H42.365L42.365 82.4739Z" fill="#C8F4BD"/>
<path fill-rule="evenodd" clip-rule="evenodd" d="M40.796 27.5586H55.355C55.0347 23.8047 53.398 20.2852 50.7339 17.6211C48.0698 14.957 44.5503 13.3203 40.7964 13L40.796 27.5586ZM36.6202 30.2734C36.6202 30.6367 36.7608 30.9843 37.0187 31.2382C37.2726 31.496 37.6202 31.6406 37.9835 31.6406H53.9095C53.5579 35.707 51.6673 39.4844 48.6204 42.2026C45.5774 44.9174 41.6048 46.3667 37.5264 46.2495C33.448 46.1323 29.5655 44.4604 26.6824 41.5737C23.7957 38.687 22.1238 34.8081 22.0066 30.7257C21.8894 26.6476 23.3386 22.6788 26.0574 19.6317C28.7722 16.5848 32.5535 14.6942 36.6194 14.3465L36.6202 30.2734ZM105.085 85.5659H36.4398V89.9175H105.085V85.5659ZM91.9128 82.8393H99.1628V51.7803H91.9128V82.8393ZM58.8808 82.8393H66.1308V67.1093H58.8808V82.8393Z" fill="#C8F4BD"/>
<path d="M80.0541 23.4332L79.7218 23.5515V23.9042V24.6546C79.7065 25.1165 79.3267 25.4862 78.8624 25.4862C78.4012 25.4862 78.0185 25.1156 78.003 24.6546V23.9042V23.5515L77.6708 23.4332C77.1685 23.2543 76.7121 22.9691 76.3355 22.5959L76.3353 22.5957C75.6642 21.9315 75.2843 21.0241 75.2843 20.08V20.072L75.2841 20.064C75.2768 19.8363 75.3636 19.6118 75.5286 19.4412C75.6932 19.2749 75.9162 19.1815 76.1476 19.1815C76.3819 19.1815 76.6072 19.2769 76.7653 19.4399L76.7654 19.4399C76.9312 19.6107 77.0184 19.8357 77.0112 20.064L77.0109 20.072V20.08C77.0109 20.5691 77.2049 21.0319 77.548 21.3749L77.5479 21.375L77.5533 21.3801C78.2824 22.088 79.4425 22.088 80.1717 21.3802L80.1717 21.3802L80.177 21.3749C80.52 21.0319 80.7141 20.5691 80.7141 20.08C80.7141 19.7589 80.6444 19.4725 80.5015 19.225C80.3592 18.9786 80.1613 18.8002 79.949 18.6684C79.5619 18.428 79.072 18.3144 78.6822 18.2239C78.6679 18.2206 78.6538 18.2173 78.6398 18.2141L78.638 18.2137C77.6723 17.9928 76.8555 17.796 76.2593 17.3334C75.7103 16.9074 75.2882 16.2001 75.2882 14.787V14.6411C75.3302 13.7668 75.7059 12.9424 76.3434 12.3371L76.3444 12.3362C76.7224 11.9753 77.1726 11.7004 77.6642 11.5285L77.9991 11.4114V11.0565V10.314C78.0145 9.85298 78.3972 9.48231 78.8585 9.48231C79.3198 9.48231 79.7025 9.85291 79.7179 10.3139V10.352V11.0565V11.0604H80.2166L80.0529 11.5285C80.5445 11.7004 80.9947 11.9753 81.3727 12.3362L81.3755 12.3389C82.0521 12.9746 82.437 13.8625 82.4406 14.7916C82.4402 15.2691 82.0549 15.6542 81.5773 15.6542C81.0996 15.6542 80.714 15.2687 80.714 14.7909C80.714 14.3267 80.5188 13.8824 80.1804 13.5662L80.1766 13.5626C79.434 12.8833 78.2944 12.8849 77.5497 13.5614L77.5497 13.5613L77.5416 13.569C77.2096 13.8844 77.0149 14.3272 77.0149 14.7909C77.0149 15.0926 77.0845 15.3636 77.2268 15.5974C77.3676 15.8287 77.5615 15.994 77.7651 16.1151C78.1352 16.3353 78.6037 16.4431 78.9794 16.5296C78.9942 16.533 79.009 16.5364 79.0235 16.5398L79.0246 16.54C80.0002 16.7628 80.8336 16.9625 81.4443 17.4397C81.9777 17.8566 82.3962 18.5364 82.4406 19.8482V20.0799C82.4406 21.0251 82.0639 21.9316 81.3906 22.5947L81.3895 22.5958C81.0129 22.9691 80.5564 23.2543 80.0541 23.4332ZM86.7629 9.71881L86.7626 9.71851C82.3692 5.42723 75.3561 5.42704 70.9657 9.71865L70.9656 9.71881C68.877 11.7623 67.7019 14.5631 67.7019 17.4824C67.7019 20.4018 68.877 23.2025 70.9656 25.246L70.9657 25.2461C75.3554 29.5378 82.3684 29.5375 86.7626 25.2463L86.7629 25.246C88.8515 23.2025 90.0266 20.4017 90.0266 17.4824C90.0266 14.563 88.8515 11.7623 86.7629 9.71881ZM99.8231 37.8041L99.8483 37.7836L99.6964 37.435L96.3684 29.7998C96.1792 29.3171 95.7964 28.9378 95.3165 28.748L95.1326 29.213L95.3165 28.748C94.8337 28.5571 94.2933 28.5768 93.8258 28.8016L86.1904 32.1336L86.1904 32.1335L86.1849 32.136C85.2579 32.5538 84.8432 33.6397 85.2482 34.5722L85.2486 34.5731C85.6402 35.4699 86.6575 35.9042 87.5684 35.584H87.5845L87.6801 35.5423L90.9393 34.1209C86.611 42.4493 79.7722 49.2221 71.3721 53.466C62.5634 57.9163 52.535 59.3341 42.8386 57.4991L42.8367 57.4987C41.8286 57.3119 40.8569 57.9734 40.6646 58.9827L40.6642 58.9852C40.477 59.9954 41.1449 60.9654 42.152 61.1572L42.1526 61.1574C46.9085 62.0573 51.7713 62.2388 56.5828 61.6941L56.5833 61.6941C72.9651 59.825 87.2623 49.8019 94.6157 35.0972L96.2774 38.9116C96.4561 39.3861 96.8221 39.7653 97.2874 39.9617C97.7606 40.1654 98.2938 40.1581 98.7598 39.9569C99.231 39.7534 99.5946 39.3632 99.7663 38.8824C99.8933 38.5346 99.9118 38.1584 99.8231 37.8041ZM74.897 84.4739V84.9739H75.397H82.6432H83.1432V84.4739V61.5289V61.0289H82.6432H75.397H74.897V61.5289V84.4739ZM41.865 84.4739L41.865 84.9739H42.365H49.615H50.1153L50.115 84.4737L50.1111 75.8643L50.1109 75.3645H49.6111H42.365H41.865L41.865 75.8645L41.865 84.4739Z" fill="white"/>
<path d="M80.0541 23.4332L79.7218 23.5515V23.9042V24.6546C79.7065 25.1165 79.3267 25.4862 78.8624 25.4862C78.4012 25.4862 78.0185 25.1156 78.003 24.6546V23.9042V23.5515L77.6708 23.4332C77.1685 23.2543 76.7121 22.9691 76.3355 22.5959L76.3353 22.5957C75.6642 21.9315 75.2843 21.0241 75.2843 20.08V20.072L75.2841 20.064C75.2768 19.8363 75.3636 19.6118 75.5286 19.4412C75.6932 19.2749 75.9162 19.1815 76.1476 19.1815C76.3819 19.1815 76.6072 19.2769 76.7653 19.4399L76.7654 19.4399C76.9312 19.6107 77.0184 19.8357 77.0112 20.064L77.0109 20.072V20.08C77.0109 20.5691 77.2049 21.0319 77.548 21.3749L77.5479 21.375L77.5533 21.3801C78.2824 22.088 79.4425 22.088 80.1717 21.3802L80.1717 21.3802L80.177 21.3749C80.52 21.0319 80.7141 20.5691 80.7141 20.08C80.7141 19.7589 80.6444 19.4725 80.5015 19.225C80.3592 18.9786 80.1613 18.8002 79.949 18.6684C79.5619 18.428 79.072 18.3144 78.6822 18.2239C78.6679 18.2206 78.6538 18.2173 78.6398 18.2141L78.638 18.2137C77.6723 17.9928 76.8555 17.796 76.2593 17.3334C75.7103 16.9074 75.2882 16.2001 75.2882 14.787V14.6411C75.3302 13.7668 75.7059 12.9424 76.3434 12.3371L76.3444 12.3362C76.7224 11.9753 77.1726 11.7004 77.6642 11.5285L77.9991 11.4114V11.0565V10.314C78.0145 9.85298 78.3972 9.48231 78.8585 9.48231C79.3198 9.48231 79.7025 9.85291 79.7179 10.3139V10.352V11.0565V11.0604H80.2166L80.0529 11.5285C80.5445 11.7004 80.9947 11.9753 81.3727 12.3362L81.3755 12.3389C82.0521 12.9746 82.437 13.8625 82.4406 14.7916C82.4402 15.2691 82.0549 15.6542 81.5773 15.6542C81.0996 15.6542 80.714 15.2687 80.714 14.7909C80.714 14.3267 80.5188 13.8824 80.1804 13.5662L80.1766 13.5626C79.434 12.8833 78.2944 12.8849 77.5497 13.5614L77.5497 13.5613L77.5416 13.569C77.2096 13.8844 77.0149 14.3272 77.0149 14.7909C77.0149 15.0926 77.0845 15.3636 77.2268 15.5974C77.3676 15.8287 77.5615 15.994 77.7651 16.1151C78.1352 16.3353 78.6037 16.4431 78.9794 16.5296C78.9942 16.533 79.009 16.5364 79.0235 16.5398L79.0246 16.54C80.0002 16.7628 80.8336 16.9625 81.4443 17.4397C81.9777 17.8566 82.3962 18.5364 82.4406 19.8482V20.0799C82.4406 21.0251 82.0639 21.9316 81.3906 22.5947L81.3895 22.5958C81.0129 22.9691 80.5564 23.2543 80.0541 23.4332ZM86.7629 9.71881L86.7626 9.71851C82.3692 5.42723 75.3561 5.42704 70.9657 9.71865L70.9656 9.71881C68.877 11.7623 67.7019 14.5631 67.7019 17.4824C67.7019 20.4018 68.877 23.2025 70.9656 25.246L70.9657 25.2461C75.3554 29.5378 82.3684 29.5375 86.7626 25.2463L86.7629 25.246C88.8515 23.2025 90.0266 20.4017 90.0266 17.4824C90.0266 14.563 88.8515 11.7623 86.7629 9.71881ZM99.8231 37.8041L99.8483 37.7836L99.6964 37.435L96.3684 29.7998C96.1792 29.3171 95.7964 28.9378 95.3165 28.748L95.1326 29.213L95.3165 28.748C94.8337 28.5571 94.2933 28.5768 93.8258 28.8016L86.1904 32.1336L86.1904 32.1335L86.1849 32.136C85.2579 32.5538 84.8432 33.6397 85.2482 34.5722L85.2486 34.5731C85.6402 35.4699 86.6575 35.9042 87.5684 35.584H87.5845L87.6801 35.5423L90.9393 34.1209C86.611 42.4493 79.7722 49.2221 71.3721 53.466C62.5634 57.9163 52.535 59.3341 42.8386 57.4991L42.8367 57.4987C41.8286 57.3119 40.8569 57.9734 40.6646 58.9827L40.6642 58.9852C40.477 59.9954 41.1449 60.9654 42.152 61.1572L42.1526 61.1574C46.9085 62.0573 51.7713 62.2388 56.5828 61.6941L56.5833 61.6941C72.9651 59.825 87.2623 49.8019 94.6157 35.0972L96.2774 38.9116C96.4561 39.3861 96.8221 39.7653 97.2874 39.9617C97.7606 40.1654 98.2938 40.1581 98.7598 39.9569C99.231 39.7534 99.5946 39.3632 99.7663 38.8824C99.8933 38.5346 99.9118 38.1584 99.8231 37.8041ZM74.897 84.4739V84.9739H75.397H82.6432H83.1432V84.4739V61.5289V61.0289H82.6432H75.397H74.897V61.5289V84.4739ZM41.865 84.4739L41.865 84.9739H42.365H49.615H50.1153L50.115 84.4737L50.1111 75.8643L50.1109 75.3645H49.6111H42.365H41.865L41.865 75.8645L41.865 84.4739Z" stroke="black"/>
<path d="M80.0541 23.4332L79.7218 23.5515V23.9042V24.6546C79.7065 25.1165 79.3267 25.4862 78.8624 25.4862C78.4012 25.4862 78.0185 25.1156 78.003 24.6546V23.9042V23.5515L77.6708 23.4332C77.1685 23.2543 76.7121 22.9691 76.3355 22.5959L76.3353 22.5957C75.6642 21.9315 75.2843 21.0241 75.2843 20.08V20.072L75.2841 20.064C75.2768 19.8363 75.3636 19.6118 75.5286 19.4412C75.6932 19.2749 75.9162 19.1815 76.1476 19.1815C76.3819 19.1815 76.6072 19.2769 76.7653 19.4399L76.7654 19.4399C76.9312 19.6107 77.0184 19.8357 77.0112 20.064L77.0109 20.072V20.08C77.0109 20.5691 77.2049 21.0319 77.548 21.3749L77.5479 21.375L77.5533 21.3801C78.2824 22.088 79.4425 22.088 80.1717 21.3802L80.1717 21.3802L80.177 21.3749C80.52 21.0319 80.7141 20.5691 80.7141 20.08C80.7141 19.7589 80.6444 19.4725 80.5015 19.225C80.3592 18.9786 80.1613 18.8002 79.949 18.6684C79.5619 18.428 79.072 18.3144 78.6822 18.2239C78.6679 18.2206 78.6538 18.2173 78.6398 18.2141L78.638 18.2137C77.6723 17.9928 76.8555 17.796 76.2593 17.3334C75.7103 16.9074 75.2882 16.2001 75.2882 14.787V14.6411C75.3302 13.7668 75.7059 12.9424 76.3434 12.3371L76.3444 12.3362C76.7224 11.9753 77.1726 11.7004 77.6642 11.5285L77.9991 11.4114V11.0565V10.314C78.0145 9.85298 78.3972 9.48231 78.8585 9.48231C79.3198 9.48231 79.7025 9.85291 79.7179 10.3139V10.352V11.0565V11.0604H80.2166L80.0529 11.5285C80.5445 11.7004 80.9947 11.9753 81.3727 12.3362L81.3755 12.3389C82.0521 12.9746 82.437 13.8625 82.4406 14.7916C82.4402 15.2691 82.0549 15.6542 81.5773 15.6542C81.0996 15.6542 80.714 15.2687 80.714 14.7909C80.714 14.3267 80.5188 13.8824 80.1804 13.5662L80.1766 13.5626C79.434 12.8833 78.2944 12.8849 77.5497 13.5614L77.5497 13.5613L77.5416 13.569C77.2096 13.8844 77.0149 14.3272 77.0149 14.7909C77.0149 15.0926 77.0845 15.3636 77.2268 15.5974C77.3676 15.8287 77.5615 15.994 77.7651 16.1151C78.1352 16.3353 78.6037 16.4431 78.9794 16.5296C78.9942 16.533 79.009 16.5364 79.0235 16.5398L79.0246 16.54C80.0002 16.7628 80.8336 16.9625 81.4443 17.4397C81.9777 17.8566 82.3962 18.5364 82.4406 19.8482V20.0799C82.4406 21.0251 82.0639 21.9316 81.3906 22.5947L81.3895 22.5958C81.0129 22.9691 80.5564 23.2543 80.0541 23.4332ZM86.7629 9.71881L86.7626 9.71851C82.3692 5.42723 75.3561 5.42704 70.9657 9.71865L70.9656 9.71881C68.877 11.7623 67.7019 14.5631 67.7019 17.4824C67.7019 20.4018 68.877 23.2025 70.9656 25.246L70.9657 25.2461C75.3554 29.5378 82.3684 29.5375 86.7626 25.2463L86.7629 25.246C88.8515 23.2025 90.0266 20.4017 90.0266 17.4824C90.0266 14.563 88.8515 11.7623 86.7629 9.71881ZM99.8231 37.8041L99.8483 37.7836L99.6964 37.435L96.3684 29.7998C96.1792 29.3171 95.7964 28.9378 95.3165 28.748L95.1326 29.213L95.3165 28.748C94.8337 28.5571 94.2933 28.5768 93.8258 28.8016L86.1904 32.1336L86.1904 32.1335L86.1849 32.136C85.2579 32.5538 84.8432 33.6397 85.2482 34.5722L85.2486 34.5731C85.6402 35.4699 86.6575 35.9042 87.5684 35.584H87.5845L87.6801 35.5423L90.9393 34.1209C86.611 42.4493 79.7722 49.2221 71.3721 53.466C62.5634 57.9163 52.535 59.3341 42.8386 57.4991L42.8367 57.4987C41.8286 57.3119 40.8569 57.9734 40.6646 58.9827L40.6642 58.9852C40.477 59.9954 41.1449 60.9654 42.152 61.1572L42.1526 61.1574C46.9085 62.0573 51.7713 62.2388 56.5828 61.6941L56.5833 61.6941C72.9651 59.825 87.2623 49.8019 94.6157 35.0972L96.2774 38.9116C96.4561 39.3861 96.8221 39.7653 97.2874 39.9617C97.7606 40.1654 98.2938 40.1581 98.7598 39.9569C99.231 39.7534 99.5946 39.3632 99.7663 38.8824C99.8933 38.5346 99.9118 38.1584 99.8231 37.8041ZM74.897 84.4739V84.9739H75.397H82.6432H83.1432V84.4739V61.5289V61.0289H82.6432H75.397H74.897V61.5289V84.4739ZM41.865 84.4739L41.865 84.9739H42.365H49.615H50.1153L50.115 84.4737L50.1111 75.8643L50.1109 75.3645H49.6111H42.365H41.865L41.865 75.8645L41.865 84.4739Z" stroke="black" stroke-opacity="0.2"/>
<path d="M40.296 29.5586L40.296 30.0586H40.796H55.355H55.8995L55.8532 29.5161C55.5229 25.6447 53.8349 22.015 51.0875 19.2675C48.34 16.5201 44.7103 14.8321 40.8389 14.5018L40.2964 14.4555L40.2964 15L40.296 29.5586ZM37.3749 32.8874L37.3749 32.8874L37.3695 32.882C37.2106 32.7255 37.1202 32.5077 37.1202 32.2734L37.1194 16.3465L37.1194 15.8019L36.5768 15.8483C32.3838 16.2069 28.4842 18.1565 25.6843 21.2988C22.8806 24.4411 21.3859 28.5341 21.5068 32.74C21.6277 36.95 23.3518 40.9502 26.3288 43.9272C29.3024 46.9044 33.3063 48.6284 37.512 48.7493C41.7181 48.8701 45.8149 47.3755 48.9532 44.5757C52.0954 41.7725 54.0451 37.8771 54.4076 33.6836L54.4546 33.1406H53.9095H37.9835C37.7529 33.1406 37.534 33.0489 37.3749 32.8874ZM105.585 87.5659V87.0659H105.085H36.4398H35.9398V87.5659V91.9175V92.4175H36.4398H105.085H105.585V91.9175V87.5659ZM91.4128 84.8393V85.3393H91.9128H99.1628H99.6628V84.8393V53.7803V53.2803H99.1628H91.9128H91.4128V53.7803V84.8393ZM58.3808 84.8393V85.3393H58.8808H66.1308H66.6308V84.8393V69.1093V68.6093H66.1308H58.8808H58.3808V69.1093V84.8393Z" fill="#5DB947" stroke="black"/>
<path d="M7.15408 23.847C7.25277 23.945 7.3866 24 7.52614 24C7.66569 24 7.79952 23.945 7.89821 23.847L10.5032 21.261L13.1081 23.847C13.2074 23.9422 13.3403 23.9949 13.4783 23.9937C13.6163 23.9925 13.7483 23.9375 13.8459 23.8407C13.9434 23.7438 13.9988 23.6128 14 23.4758C14.0012 23.3388 13.9481 23.2069 13.8523 23.1083L10.8752 20.153C10.7766 20.055 10.6427 20 10.5032 20C10.3636 20 10.2298 20.055 10.1311 20.153L7.15408 23.1083C7.05542 23.2063 7 23.3392 7 23.4777C7 23.6162 7.05542 23.7491 7.15408 23.847Z" fill="#5DB947"/>
</svg>
