<svg width="128" height="100" viewBox="0 0 128 100" fill="none" xmlns="http://www.w3.org/2000/svg">
<path d="M19.1541 23.847C19.2528 23.945 19.3866 24 19.5261 24C19.6657 24 19.7995 23.945 19.8982 23.847L22.5032 21.261L25.1081 23.847C25.2074 23.9422 25.3403 23.9949 25.4783 23.9937C25.6163 23.9925 25.7483 23.9375 25.8459 23.8407C25.9434 23.7438 25.9988 23.6128 26 23.4758C26.0012 23.3388 25.9481 23.2069 25.8523 23.1083L22.8752 20.153C22.7766 20.055 22.6427 20 22.5032 20C22.3636 20 22.2298 20.055 22.1311 20.153L19.1541 23.1083C19.0554 23.2063 19 23.3392 19 23.4777C19 23.6162 19.0554 23.7491 19.1541 23.847Z" fill="#5DB947"/>
<path d="M7.15408 62.847C7.25277 62.945 7.3866 63 7.52614 63C7.66569 63 7.79952 62.945 7.89821 62.847L10.5032 60.261L13.1081 62.847C13.2074 62.9422 13.3403 62.9949 13.4783 62.9937C13.6163 62.9925 13.7483 62.9375 13.8459 62.8407C13.9434 62.7438 13.9988 62.6128 14 62.4758C14.0012 62.3388 13.9481 62.2069 13.8523 62.1083L10.8752 59.153C10.7766 59.055 10.6427 59 10.5032 59C10.3636 59 10.2298 59.055 10.1311 59.153L7.15408 62.1083C7.05542 62.2063 7 62.3392 7 62.4777C7 62.6162 7.05542 62.7491 7.15408 62.847Z" fill="#5DB947"/>
<path d="M118.154 27.847C118.253 27.945 118.387 28 118.526 28C118.666 28 118.8 27.945 118.898 27.847L121.503 25.261L124.108 27.847C124.207 27.9422 124.34 27.9949 124.478 27.9937C124.616 27.9925 124.748 27.9375 124.846 27.8407C124.943 27.7438 124.999 27.6128 125 27.4758C125.001 27.3388 124.948 27.2069 124.852 27.1083L121.875 24.153C121.777 24.055 121.643 24 121.503 24C121.364 24 121.23 24.055 121.131 24.153L118.154 27.1083C118.055 27.2063 118 27.3392 118 27.4777C118 27.6162 118.055 27.7491 118.154 27.847Z" fill="#5DB947"/>
<path d="M90.1541 93.847C90.2528 93.945 90.3866 94 90.5261 94C90.6657 94 90.7995 93.945 90.8982 93.847L93.5032 91.261L96.1081 93.847C96.2074 93.9422 96.3403 93.9949 96.4783 93.9937C96.6163 93.9925 96.7483 93.9375 96.8459 93.8407C96.9434 93.7438 96.9988 93.6128 97 93.4758C97.0012 93.3388 96.9481 93.2069 96.8523 93.1083L93.8752 90.153C93.7766 90.055 93.6427 90 93.5032 90C93.3636 90 93.2298 90.055 93.1311 90.153L90.1541 93.1083C90.0554 93.2063 90 93.3392 90 93.4777C90 93.6162 90.0554 93.7491 90.1541 93.847Z" fill="#5DB947"/>
<path d="M116.179 81.3611C116.179 82.0476 115.91 82.6935 115.427 83.1771C114.943 83.6607 114.297 83.9292 113.611 83.9292C112.925 83.9292 112.279 83.6608 111.795 83.1771C111.377 82.759 107.867 78.8772 105.05 75.7599L103.755 74.3276L104.136 74.0218C104.538 73.7004 104.919 73.3572 105.265 73.0108C105.618 72.6582 105.958 72.2775 106.279 71.8812L106.585 71.5005L107.958 72.7425C110.934 75.4354 115.009 79.1206 115.43 79.5418C115.914 80.0255 116.182 80.6714 116.182 81.3578L116.179 81.3611ZM95.4569 50.8777C98.7546 50.8777 101.849 52.1571 104.174 54.4817C106.501 56.8096 107.783 59.9081 107.783 63.2001C107.783 66.4921 106.501 69.5907 104.174 71.9184C101.849 74.2432 98.7514 75.5225 95.4569 75.5225C92.1592 75.5225 89.0643 74.2431 86.74 71.9184C84.4126 69.5906 83.1304 66.492 83.1304 63.2001C83.1304 59.9081 84.4127 56.8095 86.74 54.4817C89.0644 52.157 92.1624 50.8777 95.4569 50.8777ZM102.314 59.1375L96.9076 64.5451L93.769 61.406C93.6255 61.2594 93.4321 61.1813 93.2262 61.1813C93.0202 61.1813 92.8268 61.2625 92.6833 61.406L86.7275 67.3628C86.5809 67.5095 86.5029 67.703 86.5029 67.9058C86.5029 68.1117 86.584 68.3052 86.7275 68.4487C86.8741 68.5954 87.0676 68.6734 87.2704 68.6734C87.4763 68.6734 87.6697 68.5923 87.8132 68.4487L93.2261 63.0349L96.3647 66.174C96.5083 66.3207 96.7048 66.3987 96.9076 66.3987C97.1135 66.3987 97.3069 66.3176 97.4505 66.174L103.2 60.4231V62.985C103.2 63.4093 103.547 63.7526 103.968 63.7526C104.392 63.7526 104.735 63.4062 104.735 62.985V58.3668C104.735 57.9424 104.389 57.5992 103.968 57.5992H99.3505C98.9262 57.5992 98.583 57.9455 98.583 58.3668C98.583 58.7912 98.9293 59.1344 99.3505 59.1344H102.314L102.314 59.1375Z" fill="#C8F4BD"/>
<path d="M69.0783 32.2858H63.942V49.6459H69.0783V32.2858ZM82.792 27.0517H77.6556V49.642H82.792V27.0517ZM75.9354 37.5165H70.799V49.642H75.9354V37.5165ZM96.5818 12.393V11.6288C96.5818 10.6134 95.7548 9.78987 94.7429 9.78987L35.8389 9.78638C34.8235 9.78638 34 10.6134 34 11.6253V79.0923C34 80.1077 34.827 80.9312 35.8389 80.9312H37.3463V16.5871C37.3463 14.2737 39.2271 12.3929 41.5406 12.3929L96.5818 12.393ZM101.205 81.2803L101.652 81.7723V82.7842C101.652 84.1485 100.542 85.2581 99.178 85.2581H41.5406C40.1763 85.2581 39.0667 84.1485 39.0667 82.7842V16.5874C39.0667 15.2231 40.1763 14.1135 41.5406 14.1135H99.1753C100.54 14.1135 101.649 15.2231 101.649 16.5874V54.7405L100.885 54.3182C98.603 53.0585 96.0069 52.3921 93.3829 52.3921C89.7435 52.3921 86.2088 53.6727 83.4344 55.9967L83.2913 56.1188L48.9276 56.1154C48.4531 56.1154 48.0692 56.5027 48.0692 56.9737C48.0692 57.4483 48.4566 57.8321 48.9276 57.8321H81.5289L80.9182 58.6556C80.0947 59.7618 79.4248 60.9726 78.9258 62.2532L78.7967 62.5812L48.9271 62.5881C48.4525 62.5881 48.0687 62.9755 48.0687 63.4465C48.0687 63.9211 48.456 64.3049 48.9271 64.3049H78.2759L78.1573 64.9191C77.9688 65.8926 77.8746 66.8905 77.8746 67.885C77.8746 68.0804 77.8781 68.2898 77.8886 68.5201L77.9095 69.0575H48.9269C48.4524 69.0575 48.0685 69.4448 48.0685 69.9158C48.0685 70.3904 48.4559 70.7742 48.9269 70.7742H78.1364L78.2236 71.1825C78.8482 74.0787 80.2963 76.7306 82.4144 78.8486C85.3384 81.7727 89.2326 83.3813 93.3812 83.3813C95.9843 83.3813 98.5665 82.7219 100.845 81.4727L101.201 81.2773L101.205 81.2803ZM55.3655 50.504C55.3655 50.9785 55.7529 51.3624 56.2239 51.3624H83.6504C84.125 51.3624 84.5088 50.9751 84.5088 50.504V26.1933C84.5088 25.7187 84.1215 25.3349 83.6504 25.3349H76.7937C76.3192 25.3349 75.9354 25.7222 75.9354 26.1933V35.7961H70.799V31.4239C70.799 30.9493 70.4117 30.5655 69.9406 30.5655H63.0839C62.6094 30.5655 62.2255 30.9528 62.2255 31.4239V41.0267H56.2273C55.7528 41.0267 55.3689 41.414 55.3689 41.8851V50.5004L55.3655 50.504ZM62.2222 42.7471H57.0858V49.6421H62.2222V42.7471Z" fill="#C8F4BD"/>
<path d="M104.218 79.1162L104.256 79.1578L104.702 79.6498L104.832 79.7928V79.9859V80.9978C104.832 82.6383 103.499 83.9718 101.858 83.9718H44.2208C42.5804 83.9718 41.2469 82.6383 41.2469 80.9978V14.8011C41.2469 13.1606 42.5804 11.8271 44.2208 11.8271H101.855C103.496 11.8271 104.829 13.1606 104.829 14.8011V52.9541V53.8016L104.088 53.3917L103.324 52.9696C103.324 52.9696 103.323 52.9695 103.323 52.9695C101.116 51.751 98.6031 51.1058 96.0631 51.1058C92.5411 51.1058 89.121 52.345 86.4375 54.5921C86.4369 54.5926 86.4363 54.5931 86.4356 54.5936L86.2961 54.7128L86.1559 54.8325L85.9715 54.8325L51.6078 54.829C51.4107 54.829 51.2494 54.9911 51.2494 55.1874C51.2494 55.3845 51.4115 55.5458 51.6078 55.5458H84.2091H85.2023L84.6107 56.3436L84.0001 57.1671L83.9995 57.1678C83.2028 58.238 82.5546 59.4095 82.0718 60.6483L82.0712 60.6499L81.9421 60.9779L81.8174 61.2947L81.477 61.2948L51.6074 61.3018H51.6072C51.4102 61.3018 51.2489 61.4639 51.2489 61.6602C51.2489 61.8573 51.411 62.0185 51.6072 62.0185H80.9561H81.5619L81.447 62.6134L81.3284 63.2275L81.3283 63.2277C81.146 64.1693 81.0548 65.1355 81.0548 66.0986C81.0548 66.2879 81.0582 66.4896 81.0682 66.711L81.0684 66.7142L81.0893 67.2516L81.1095 67.7711H80.5897H51.6071C51.41 67.7711 51.2487 67.9332 51.2487 68.1295C51.2487 68.3266 51.4109 68.4879 51.6071 68.4879H80.8166H81.221L81.3055 68.8834L81.3926 69.2907L104.218 79.1162ZM104.218 79.1162L104.172 79.084M104.218 79.1162L104.172 79.084M104.172 79.084L104.167 79.081L103.913 78.9031M104.172 79.084L103.913 78.9031M103.913 78.9031L103.641 79.0526M103.913 78.9031L103.641 79.0526M103.641 79.0526L103.285 79.2479C101.08 80.4565 98.5808 81.095 96.0614 81.095C92.0448 81.095 88.278 79.5386 85.4481 76.7087C83.3976 74.6583 81.997 72.0926 81.3928 69.2916L103.641 79.0526ZM72.2585 30.4995V29.9995H71.7585H66.6221H66.1221V30.4995V47.8595V48.3595H66.6221H71.7585H72.2585V47.8595V30.4995ZM85.9722 25.2654V24.7654H85.4722H80.3358H79.8358V25.2654V47.8556V48.3556H80.3358H85.4722H85.9722V47.8556V25.2654ZM79.1155 35.7302V35.2302H78.6155H73.4791H72.9791V35.7302V47.8556V48.3556H73.4791H78.6155H79.1155V47.8556V35.7302ZM99.262 11.1066L99.762 11.1066V10.6066V9.8424C99.762 8.55025 98.7105 7.50349 97.4231 7.50349L38.5191 7.5H38.5191C37.2269 7.5 36.1802 8.55145 36.1802 9.83891V77.3059C36.1802 78.5981 37.2316 79.6448 38.5191 79.6448H40.0265H40.5265V79.1448V14.8007C40.5265 12.7635 42.1835 11.1065 44.2207 11.1065L99.262 11.1066ZM78.6155 34.5097H79.1155V34.0097V24.4069C79.1155 24.2107 79.2768 24.0485 79.4739 24.0485H86.3306C86.5268 24.0485 86.689 24.2098 86.689 24.4069V48.7176C86.689 48.9139 86.5277 49.076 86.3306 49.076H58.9041C58.7244 49.076 58.5733 48.9407 58.5491 48.7666V48.714V40.0987C58.5491 39.9025 58.7104 39.7403 58.9075 39.7403H64.9057H65.4057V39.2403V29.6375C65.4057 29.4413 65.567 29.2791 65.7641 29.2791H72.6208C72.817 29.2791 72.9791 29.4404 72.9791 29.6375V34.0097V34.5097H73.4791H78.6155ZM65.4024 40.9607V40.4607H64.9024H59.766H59.266V40.9607V47.8558V48.3558H59.766H64.9024H65.4024V47.8558V40.9607Z" fill="white" stroke="black"/>
<path d="M105.89 74.2468C105.891 74.2465 105.891 74.2463 105.891 74.246L106.195 73.8671L106.527 73.4537L106.921 73.8094L108.293 75.0514L108.293 75.0514L108.597 75.3264C111.531 77.9807 115.365 81.4496 115.784 81.8679L115.784 81.868C116.361 82.4453 116.682 83.2184 116.682 84.0375V84.2445L116.671 84.2552C116.62 84.9941 116.307 85.6837 115.78 86.2104C115.203 86.7876 114.43 87.1088 113.611 87.1088C112.792 87.1088 112.019 86.7877 111.442 86.2103L105.89 74.2468ZM105.89 74.2468C105.579 74.6306 105.251 74.998 104.912 75.337L105.89 74.2468ZM103.029 76.9494L103.442 76.6175L103.823 76.3117L103.824 76.3108C104.211 76.0016 104.578 75.6709 104.912 75.337L103.029 76.9494ZM103.029 76.9494L103.384 77.3426M103.029 76.9494L103.384 77.3426M103.384 77.3426L104.679 78.7748M103.384 77.3426L104.679 78.7748M104.679 78.7748C107.487 81.8817 111.012 85.7802 111.442 86.2103L104.679 78.7748ZM102.668 62.1707L102.813 62.0254L102.814 61.82L102.814 61.8169L102.817 61.3141H102.314H99.3505C99.2042 61.3141 99.083 61.1935 99.083 61.0465C99.083 60.9 99.2037 60.7789 99.3505 60.7789H103.968C104.114 60.7789 104.235 60.8995 104.235 61.0465V65.6646C104.235 65.8112 104.115 65.9323 103.968 65.9323C103.822 65.9323 103.7 65.8116 103.7 65.6646V63.1028V61.8956L102.847 62.7493L97.0969 68.5002C97.0467 68.5504 96.9802 68.5784 96.9076 68.5784C96.8323 68.5784 96.7668 68.5496 96.7221 68.504L96.7221 68.504L96.7183 68.5002L93.5797 65.361L93.2261 65.0074L92.8726 65.361L87.4596 70.7749C87.4094 70.8251 87.343 70.8531 87.2704 70.8531C87.1982 70.8531 87.1326 70.8264 87.0811 70.7749C87.0309 70.7247 87.0029 70.6582 87.0029 70.5855C87.0029 70.5133 87.0296 70.4475 87.0811 70.396L93.0369 64.4392C93.0871 64.389 93.1535 64.361 93.2262 64.361C93.3035 64.361 93.3662 64.389 93.4117 64.4354L93.4116 64.4354L93.4154 64.4392L96.554 67.5784L96.9076 67.932L97.2612 67.5784L102.668 62.1707ZM104.527 56.8079C102.109 54.3891 98.8867 53.0574 95.4569 53.0574C92.0303 53.0574 88.805 54.389 86.3864 56.8079C83.9652 59.2295 82.6304 62.4553 82.6304 65.8798C82.6304 69.3042 83.9652 72.53 86.3864 74.9517C88.8048 77.3705 92.0271 78.7022 95.4569 78.7022C98.8834 78.7022 102.109 77.3706 104.527 74.9517C106.948 72.53 108.283 69.3043 108.283 65.8798C108.283 62.4553 106.949 59.2296 104.527 56.8079Z" fill="#5DB947" stroke="black"/>
</svg>
