<svg width="128" height="100" viewBox="0 0 128 100" fill="none" xmlns="http://www.w3.org/2000/svg">
<path d="M8.15408 59.847C8.25277 59.945 8.3866 60 8.52614 60C8.66569 60 8.79952 59.945 8.89821 59.847L11.5032 57.261L14.1081 59.847C14.2074 59.9422 14.3403 59.9949 14.4783 59.9937C14.6163 59.9925 14.7483 59.9375 14.8459 59.8407C14.9434 59.7438 14.9988 59.6128 15 59.4758C15.0012 59.3388 14.9481 59.2069 14.8523 59.1083L11.8752 56.153C11.7766 56.055 11.6427 56 11.5032 56C11.3636 56 11.2298 56.055 11.1311 56.153L8.15408 59.1083C8.05542 59.2063 8 59.3392 8 59.4777C8 59.6162 8.05542 59.7491 8.15408 59.847Z" fill="#5DB947"/>
<path d="M110.154 23.847C110.253 23.945 110.387 24 110.526 24C110.666 24 110.8 23.945 110.898 23.847L113.503 21.261L116.108 23.847C116.207 23.9422 116.34 23.9949 116.478 23.9937C116.616 23.9925 116.748 23.9375 116.846 23.8407C116.943 23.7438 116.999 23.6128 117 23.4758C117.001 23.3388 116.948 23.2069 116.852 23.1083L113.875 20.153C113.777 20.055 113.643 20 113.503 20C113.364 20 113.23 20.055 113.131 20.153L110.154 23.1083C110.055 23.2063 110 23.3392 110 23.4777C110 23.6162 110.055 23.7491 110.154 23.847Z" fill="#5DB947"/>
<path d="M106.154 77.847C106.253 77.945 106.387 78 106.526 78C106.666 78 106.8 77.945 106.898 77.847L109.503 75.261L112.108 77.847C112.207 77.9422 112.34 77.9949 112.478 77.9937C112.616 77.9925 112.748 77.9375 112.846 77.8407C112.943 77.7438 112.999 77.6128 113 77.4758C113.001 77.3388 112.948 77.2069 112.852 77.1083L109.875 74.153C109.777 74.055 109.643 74 109.503 74C109.364 74 109.23 74.055 109.131 74.153L106.154 77.1083C106.055 77.2063 106 77.3392 106 77.4777C106 77.6162 106.055 77.7491 106.154 77.847Z" fill="#5DB947"/>
<path d="M15.1541 13.847C15.2528 13.945 15.3866 14 15.5261 14C15.6657 14 15.7995 13.945 15.8982 13.847L18.5032 11.261L21.1081 13.847C21.2074 13.9422 21.3403 13.9949 21.4783 13.9937C21.6163 13.9925 21.7483 13.9375 21.8459 13.8407C21.9434 13.7438 21.9988 13.6128 22 13.4758C22.0012 13.3388 21.9481 13.2069 21.8523 13.1083L18.8752 10.153C18.7766 10.055 18.6427 10 18.5032 10C18.3636 10 18.2298 10.055 18.1311 10.153L15.1541 13.1083C15.0554 13.2063 15 13.3392 15 13.4777C15 13.6162 15.0554 13.7491 15.1541 13.847Z" fill="#5DB947"/>
<path fill-rule="evenodd" clip-rule="evenodd" d="M94.6622 68.2599H87.4403V26.2491L91.0475 23.4812L94.6547 26.2491V68.2676L94.6622 68.2599ZM55.4265 42.7257L59.0337 45.4936V51.1077C56.3926 51.8202 53.9305 53.0848 51.8118 54.8119V45.4973L55.419 42.7294L55.4265 42.7257ZM89.1045 11.7905L88.7874 14.4129C88.6942 15.1553 89.2239 15.8342 89.9662 15.9274C90.0222 15.9349 90.0782 15.9386 90.1378 15.9386C90.8205 15.9349 91.3987 15.4238 91.4845 14.7449L92.2381 8.63466H92.2343C92.2828 8.26163 92.1709 7.88859 91.9284 7.59766C91.686 7.31043 91.3391 7.1351 90.9623 7.11645L84.7924 6.77698C84.0426 6.73595 83.401 7.30669 83.3599 8.05645C83.3189 8.8062 83.8933 9.44411 84.6394 9.48889L87.4446 9.64184C71.4413 23.1565 52.0994 34.0049 29.9003 41.913C29.2773 42.1368 28.908 42.7747 29.0199 43.4238C29.1318 44.0766 29.6951 44.5503 30.3553 44.5503C30.512 44.5503 30.6649 44.5242 30.8104 44.472C53.2741 36.4704 72.8663 25.4847 89.1045 11.7905Z" fill="#C8F4BD"/>
<path fill-rule="evenodd" clip-rule="evenodd" d="M72.3722 34.0886L75.9794 31.3207L79.5866 34.0886V54.1428C77.4827 52.3597 75.0244 51.0467 72.3721 50.2856L72.3722 34.0886ZM46.9911 93.9607C46.3047 94.8709 45.1409 95.2812 44.0366 95.0052C42.5893 94.6061 41.4553 93.4795 41.0486 92.0322C40.7689 90.9242 41.168 89.7529 42.0745 89.0516C43.686 87.6266 45.4429 86.1494 47.3342 84.6386V84.6423C48.0131 86.556 49.5277 88.0593 51.4488 88.7233C49.7962 90.7638 48.0841 92.7222 46.991 93.9682L46.9911 93.9607ZM53.3103 86.3284C53.8027 85.6682 54.2653 85.0228 54.6607 84.4185H54.6644C53.5304 83.5083 52.5009 82.4788 51.5981 81.3409C50.9603 81.8147 50.3373 82.2959 49.7256 82.7622C49.8487 84.6833 51.3855 86.2128 53.3103 86.3284ZM78.8814 81.0687C82.0522 77.9016 83.8316 73.6043 83.8316 69.1201C83.8316 64.64 82.0522 60.3427 78.8851 57.1754C75.7144 54.0047 71.417 52.2253 66.9366 52.2253C62.4562 52.2253 58.1591 54.0047 54.9881 57.1754C51.821 60.3425 50.0416 64.6398 50.0416 69.1201C50.0416 73.604 51.821 77.9013 54.9881 81.0687C58.1589 84.232 62.4562 86.0114 66.9366 86.0114C71.417 86.0114 75.7105 84.232 78.8814 81.0687ZM43.966 67.3601H36.744V53.7328L40.3512 50.9649L43.9584 53.7328L43.9621 67.3601H43.966ZM38.3823 20.41C38.2331 19.6863 38.6882 18.9813 39.4081 18.8134C40.1243 18.6493 40.8443 19.0857 41.0271 19.802C41.512 21.9022 43.7166 22.5849 45.6862 22.3274V22.3237C46.6412 22.2752 47.4954 21.7194 47.9282 20.8689C48.1446 20.2795 48.0103 19.6192 47.5776 19.1603C46.8539 18.377 45.8355 17.9368 44.7686 17.9368C43.9591 17.8436 43.1646 17.6608 42.3961 17.3959L42.3551 17.3773L42.3513 17.381C40.4265 16.7655 39.106 15.0011 39.0537 12.9792C39.147 10.9499 40.4787 9.18913 42.4073 8.55131C42.6983 8.44686 42.993 8.35733 43.2914 8.29018V6.86519C43.2914 6.11538 43.8994 5.50732 44.6493 5.50732C45.3991 5.50732 46.0034 6.11537 46.0034 6.86519V8.25657C48.1409 8.74897 49.8718 10.3082 50.5843 12.3823C50.7186 12.7218 50.7111 13.0948 50.5619 13.4268C50.4164 13.7589 50.1404 14.02 49.8046 14.1468C49.4652 14.2736 49.0884 14.2624 48.7564 14.1132C48.4281 13.9603 48.1707 13.6842 48.0476 13.3448C47.7678 12.3936 47.0964 11.6027 46.2011 11.1775C45.3058 10.7485 44.2688 10.7187 43.3511 11.0992C42.4856 11.3603 41.8589 12.1175 41.7695 13.0203C41.7583 13.7812 42.3215 14.4341 43.3511 14.8556C43.9405 15.0496 44.5522 15.1801 45.1677 15.251C46.8986 15.3331 48.525 16.1165 49.659 17.4258C50.7259 18.6418 51.0318 20.3466 50.4573 21.8611C49.6777 23.6442 47.9803 24.8565 46.0369 25.017H46.0033V26.3301V26.3263C45.9846 27.0612 45.384 27.6468 44.6454 27.6468C43.9105 27.6468 43.31 27.0612 43.2913 26.3263V24.9424C40.889 24.5619 38.9491 22.7714 38.3785 20.41L38.3823 20.41ZM44.5485 31.1906C40.6801 31.1906 36.9684 29.6537 34.2301 26.9156C31.492 24.1775 29.9551 20.4659 29.9551 16.5972C29.9551 12.7251 31.492 9.01346 34.2301 6.275C36.9644 3.54065 40.6761 2 44.5485 2C48.4206 2 52.1322 3.53692 54.8707 6.275C57.6051 9.01308 59.142 12.7247 59.142 16.5972C59.1383 20.4656 57.6013 24.1735 54.8633 26.9118C52.1289 29.6462 48.4208 31.1869 44.5485 31.1906ZM78.5509 59.0336L77.0289 57.5116C76.3649 56.8439 75.3465 56.6909 74.5146 57.1274L73.6007 57.6011C72.5898 57.0154 71.508 56.5641 70.3814 56.2657L70.0644 55.2771H70.0606C69.7808 54.3818 68.9489 53.7738 68.0127 53.7775H65.864C64.924 53.7738 64.0884 54.3856 63.8087 55.2846L63.5028 56.2656V56.2619C62.3725 56.564 61.2907 57.0117 60.2798 57.5973L59.3584 57.1198C58.5265 56.6871 57.5081 56.8438 56.8479 57.5078L55.3258 59.0298C54.6618 59.6938 54.5052 60.7159 54.9416 61.5477L55.4191 62.4617H55.4154C54.8297 63.4689 54.3821 64.5544 54.0799 65.681L53.0914 65.998C52.1961 66.2815 51.5918 67.1134 51.5918 68.0497V70.1946C51.588 71.1347 52.1998 71.9666 53.0988 72.2463L54.0798 72.5522L54.0761 72.5559C54.3783 73.6825 54.8259 74.768 55.4115 75.7752L54.9341 76.6966C54.5013 77.5322 54.6617 78.5468 55.3257 79.2108L56.844 80.7328V80.7291C57.5079 81.3968 58.53 81.5535 59.3619 81.117L60.2758 80.6433V80.6396C61.283 81.229 62.3686 81.6766 63.4951 81.975L63.8122 82.9636C64.0957 83.8588 64.9276 84.4669 65.8638 84.4632H68.0163C68.9563 84.4669 69.7882 83.8551 70.0679 82.9598L70.3775 81.9788C71.5041 81.6767 72.5859 81.229 73.5968 80.6434L74.5182 81.1209C75.3538 81.5536 76.3684 81.3969 77.0324 80.7292L78.5469 79.211C79.2146 78.5507 79.3713 77.5286 78.9349 76.6967L78.4611 75.7828H78.4574C79.0468 74.7719 79.4944 73.6901 79.7965 72.5635L80.7851 72.2464L80.7814 72.2427C81.6767 71.9629 82.2847 71.131 82.2847 70.1948V68.0498C82.2847 67.1061 81.6729 66.2742 80.7777 65.9945L79.7966 65.6849C79.4982 64.5583 79.0468 63.4765 78.4649 62.4656L78.9424 61.5442C79.3751 60.7123 79.2147 59.6939 78.547 59.0337L78.5509 59.0336ZM79.573 68.4639V69.7919L78.2413 70.2171L78.2376 70.2134C77.7676 70.3626 77.4169 70.7543 77.3199 71.2355C77.0513 72.5709 76.5216 73.843 75.7681 74.977C75.4921 75.3911 75.4659 75.9171 75.6935 76.3573L76.3351 77.592L75.3988 78.5283L74.1566 77.8904V77.8942C73.7201 77.6629 73.1904 77.6927 72.7801 77.9651C71.6461 78.7223 70.374 79.2483 69.0385 79.5169C68.5536 79.6139 68.1619 79.9683 68.0127 80.4383L67.5986 81.7588H66.2707L65.8454 80.4271H65.8491C65.6962 79.9571 65.3045 79.6064 64.8196 79.5094C63.4879 79.2408 62.2158 78.7111 61.0818 77.9576C60.6714 77.6853 60.1417 77.6554 59.7053 77.883L58.4742 78.5284L57.5379 77.5883L58.1795 76.3461H58.1758C58.4034 75.9096 58.3735 75.3837 58.1012 74.9733C57.3477 73.8393 56.8217 72.571 56.5531 71.2355C56.4561 70.7505 56.1017 70.3551 55.628 70.2059L54.3037 69.7881V68.4602L55.6354 68.0349V68.0386C56.1054 67.8894 56.4561 67.4977 56.5531 67.0128C56.8217 65.6774 57.3514 64.409 58.1049 63.275C58.381 62.8609 58.4071 62.3349 58.1795 61.8948L57.5379 60.66L58.4742 59.72L59.7164 60.3578C60.1529 60.5854 60.6826 60.5593 61.0966 60.287C62.2269 59.5297 63.499 59.0037 64.8345 58.7352C65.3194 58.6382 65.7148 58.2838 65.8603 57.8138L66.2781 56.4895H67.6061L68.0313 57.8212V57.8175C68.1805 58.2875 68.5722 58.6419 69.0571 58.7389C70.3926 59.0075 71.661 59.5334 72.7987 60.2907C73.209 60.563 73.7388 60.5928 74.1752 60.3653L75.41 59.7199L76.35 60.6563L75.7121 61.8985C75.4846 62.3387 75.5144 62.8646 75.7867 63.2787C76.5403 64.4127 77.0662 65.681 77.3348 67.0165C77.4355 67.5015 77.7862 67.8969 78.26 68.0461L79.5842 68.4639L79.573 68.4639ZM66.9418 60.8204C70.299 60.8204 73.3281 62.846 74.6151 65.9496C75.8984 69.0496 75.1858 72.6232 72.8134 74.9958C70.4371 77.372 66.8672 78.0808 63.7635 76.7975C60.6599 75.5105 58.638 72.4852 58.638 69.1241C58.6418 64.5395 62.3572 60.8242 66.9418 60.8204ZM66.9455 74.716L66.9418 74.7123C64.6812 74.716 62.6407 73.3507 61.7752 71.2655C60.9098 69.1765 61.391 66.7704 62.9875 65.1701C64.5879 63.5735 66.9902 63.096 69.0792 63.9615C71.1682 64.827 72.5297 66.8637 72.5297 69.1242C72.526 72.2093 70.023 74.7086 66.9379 74.7123L66.9455 74.716Z" fill="#C8F4BD"/>
<mask id="path-7-outside-1_171_152" maskUnits="userSpaceOnUse" x="28" y="2.90991" width="56" height="96" fill="black">
<rect fill="white" x="28" y="2.90991" width="56" height="96"/>
<path fill-rule="evenodd" clip-rule="evenodd" d="M71.4171 35.9985L75.0243 33.2306L78.6315 35.9985V56.0528C76.5276 54.2696 74.0693 52.9566 71.417 52.1956L71.4171 35.9985ZM46.036 95.8706C45.3496 96.7808 44.1858 97.1911 43.0815 96.9152C41.6342 96.516 40.5002 95.3894 40.0936 93.9421C39.8138 92.8341 40.2129 91.6628 41.1194 90.9615C42.7309 89.5365 44.4878 88.0593 46.3791 86.5485V86.5523C47.0581 88.4659 48.5726 89.9692 50.4937 90.6332C48.8411 92.6737 47.129 94.6321 46.0359 95.8781L46.036 95.8706ZM52.3552 88.2383C52.8476 87.5781 53.3102 86.9327 53.7056 86.3284H53.7094C52.5753 85.4182 51.5458 84.3887 50.6431 83.2508C50.0052 83.7246 49.3822 84.2058 48.7705 84.6721C48.8936 86.5932 50.4304 88.1227 52.3552 88.2383ZM77.9263 82.9786C81.0971 79.8115 82.8765 75.5142 82.8765 71.0301C82.8765 66.5499 81.0971 62.2526 77.9301 59.0853C74.7593 55.9146 70.4619 54.1352 65.9815 54.1352C61.5011 54.1352 57.2041 55.9146 54.033 59.0853C50.866 62.2524 49.0866 66.5497 49.0866 71.0301C49.0866 75.5139 50.866 79.8112 54.033 82.9786C57.2038 86.1419 61.5011 87.9213 65.9815 87.9213C70.4619 87.9213 74.7554 86.1419 77.9263 82.9786ZM43.0109 69.2701H35.789V55.6427L39.3961 52.8748L43.0033 55.6427L43.0071 69.2701H43.0109ZM37.4272 22.3199C37.278 21.5962 37.7331 20.8912 38.453 20.7233C39.1692 20.5592 39.8892 20.9956 40.072 21.7119C40.5569 23.8121 42.7615 24.4948 44.7312 24.2373V24.2336C45.6861 24.1851 46.5403 23.6293 46.9731 22.7788C47.1895 22.1894 47.0552 21.5291 46.6225 21.0703C45.8988 20.2869 44.8804 19.8468 43.8135 19.8468C43.0041 19.7535 42.2095 19.5707 41.441 19.3059L41.4 19.2872L41.3963 19.2909C39.4714 18.6754 38.1509 16.911 38.0987 14.8891C38.1919 12.8598 39.5237 11.099 41.4522 10.4612C41.7432 10.3568 42.0379 10.2672 42.3363 10.2001V8.7751C42.3363 8.0253 42.9444 7.41723 43.6942 7.41723C44.444 7.41723 45.0483 8.02528 45.0483 8.7751V10.1665C47.1858 10.6589 48.9167 12.2181 49.6292 14.2922C49.7635 14.6317 49.756 15.0047 49.6068 15.3368C49.4613 15.6688 49.1853 15.9299 48.8496 16.0567C48.5101 16.1835 48.1333 16.1724 47.8013 16.0231C47.473 15.8702 47.2156 15.5942 47.0925 15.2547C46.8127 14.3035 46.1413 13.5126 45.246 13.0874C44.3507 12.6584 43.3137 12.6286 42.396 13.0091C41.5306 13.2702 40.9039 14.0274 40.8144 14.9302C40.8032 15.6912 41.3665 16.344 42.396 16.7655C42.9854 16.9595 43.5972 17.0901 44.2126 17.1609C45.9435 17.243 47.5699 18.0264 48.7039 19.3357C49.7708 20.5517 50.0767 22.2565 49.5022 23.771C48.7226 25.5541 47.0252 26.7665 45.0818 26.9269H45.0482V28.24V28.2362C45.0296 28.9711 44.429 29.5568 43.6903 29.5568C42.9555 29.5568 42.3549 28.9711 42.3362 28.2362V26.8523C39.9339 26.4718 37.9941 24.6813 37.4234 22.3199L37.4272 22.3199ZM43.5934 33.1005C39.725 33.1005 36.0134 31.5636 33.275 28.8255C30.5369 26.0875 29 22.3758 29 18.5071C29 14.635 30.5369 10.9234 33.275 8.18491C36.0094 5.45056 39.721 3.90991 43.5934 3.90991C47.4655 3.90991 51.1772 5.44683 53.9156 8.18491C56.65 10.923 58.1869 14.6347 58.1869 18.5071C58.1832 22.3755 56.6463 26.0835 53.9082 28.8217C51.1738 31.5561 47.4657 33.0968 43.5934 33.1005ZM77.5958 60.9435L76.0738 59.4215C75.4098 58.7538 74.3914 58.6008 73.5596 59.0373L72.6456 59.511C71.6347 58.9254 70.5529 58.474 69.4263 58.1756L69.1093 57.187H69.1055C68.8258 56.2917 67.9939 55.6837 67.0576 55.6874H64.9089C63.9689 55.6837 63.1333 56.2955 62.8536 57.1945L62.5477 58.1755V58.1718C61.4174 58.4739 60.3356 58.9216 59.3247 59.5072L58.4033 59.0297C57.5714 58.597 56.553 58.7537 55.8928 59.4177L54.3708 60.9397C53.7068 61.6037 53.5501 62.6258 53.9865 63.4576L54.464 64.3716H54.4603C53.8746 65.3788 53.427 66.4643 53.1249 67.5909L52.1363 67.9079C51.241 68.1914 50.6367 69.0233 50.6367 69.9596V72.1045C50.633 73.0446 51.2447 73.8765 52.1437 74.1562L53.1248 74.4621L53.121 74.4658C53.4232 75.5924 53.8708 76.6779 54.4565 77.6851L53.979 78.6065C53.5463 79.4421 53.7067 80.4567 54.3707 81.1207L55.8889 82.6427V82.639C56.5529 83.3067 57.575 83.4634 58.4068 83.027L59.3208 82.5532V82.5495C60.328 83.1389 61.4135 83.5865 62.54 83.8849L62.8571 84.8735C63.1406 85.7688 63.9725 86.3768 64.9088 86.3731H67.0612C68.0012 86.3768 68.8331 85.765 69.1128 84.8698L69.4224 83.8887C70.549 83.5866 71.6308 83.1389 72.6417 82.5533L73.5631 83.0308C74.3987 83.4635 75.4134 83.3068 76.0773 82.6391L77.5918 81.1209C78.2596 80.4606 78.4162 79.4385 77.9798 78.6067L77.506 77.6927H77.5023C78.0917 76.6818 78.5393 75.6 78.8414 74.4734L79.83 74.1564L79.8263 74.1526C80.7216 73.8729 81.3296 73.041 81.3296 72.1047V69.9598C81.3296 69.016 80.7178 68.1841 79.8226 67.9044L78.8415 67.5948C78.5431 66.4682 78.0917 65.3864 77.5098 64.3755L77.9873 63.4541C78.42 62.6222 78.2596 61.6039 77.5919 60.9436L77.5958 60.9435ZM78.6179 70.3738V71.7018L77.2862 72.127L77.2825 72.1233C76.8125 72.2725 76.4618 72.6642 76.3648 73.1454C76.0962 74.4808 75.5665 75.7529 74.813 76.887C74.537 77.301 74.5109 77.827 74.7384 78.2672L75.38 79.5019L74.4437 80.4382L73.2015 79.8004V79.8041C72.765 79.5728 72.2354 79.6027 71.825 79.875C70.691 80.6322 69.419 81.1583 68.0835 81.4268C67.5985 81.5238 67.2068 81.8782 67.0576 82.3482L66.6436 83.6687H65.3156L64.8903 82.337H64.8941C64.7411 81.867 64.3494 81.5163 63.8645 81.4193C62.5328 81.1508 61.2607 80.621 60.1267 79.8675C59.7163 79.5952 59.1866 79.5654 58.7502 79.7929L57.5191 80.4383L56.5828 79.4982L57.2245 78.256H57.2207C57.4483 77.8195 57.4184 77.2936 57.1461 76.8832C56.3926 75.7492 55.8667 74.4809 55.598 73.1454C55.501 72.6605 55.1466 72.265 54.6729 72.1159L53.3486 71.6981V70.3701L54.6803 69.9448V69.9486C55.1504 69.7993 55.501 69.4077 55.598 68.9227C55.8666 67.5873 56.3963 66.3189 57.1498 65.1849C57.4259 64.7708 57.452 64.2449 57.2244 63.8047L56.5828 62.5699L57.5191 61.6299L58.7614 62.2678C59.1978 62.4953 59.7275 62.4692 60.1416 62.1969C61.2719 61.4396 62.5439 60.9136 63.8794 60.6451C64.3643 60.5481 64.7598 60.1937 64.9052 59.7237L65.323 58.3994H66.651L67.0762 59.7311V59.7274C67.2255 60.1974 67.6171 60.5518 68.1021 60.6488C69.4375 60.9174 70.7059 61.4433 71.8436 62.2006C72.254 62.4729 72.7837 62.5028 73.2201 62.2752L74.4549 61.6299L75.3949 62.5662L74.757 63.8084C74.5295 64.2486 74.5593 64.7745 74.8317 65.1886C75.5852 66.3226 76.1111 67.5909 76.3797 68.9264C76.4805 69.4114 76.8311 69.8068 77.3049 69.956L78.6291 70.3738L78.6179 70.3738ZM65.9867 62.7304C69.344 62.7304 72.373 64.7559 73.66 67.8596C74.9433 70.9595 74.2308 74.5331 71.8583 76.9057C69.482 79.2819 65.9121 79.9907 62.8085 78.7074C59.7048 77.4204 57.683 74.3951 57.683 71.0341C57.6867 66.4495 61.4021 62.7341 65.9867 62.7304ZM65.9904 76.626L65.9867 76.6222C63.7261 76.626 61.6856 75.2606 60.8201 73.1754C59.9547 71.0864 60.4359 68.6804 62.0325 67.08C63.6328 65.4834 66.0351 65.0059 68.1241 65.8714C70.2131 66.7369 71.5747 68.7737 71.5747 71.0341C71.5709 74.1192 69.0679 76.6185 65.9829 76.6222L65.9904 76.626Z"/>
</mask>
<path fill-rule="evenodd" clip-rule="evenodd" d="M71.4171 35.9985L75.0243 33.2306L78.6315 35.9985V56.0528C76.5276 54.2696 74.0693 52.9566 71.417 52.1956L71.4171 35.9985ZM46.036 95.8706C45.3496 96.7808 44.1858 97.1911 43.0815 96.9152C41.6342 96.516 40.5002 95.3894 40.0936 93.9421C39.8138 92.8341 40.2129 91.6628 41.1194 90.9615C42.7309 89.5365 44.4878 88.0593 46.3791 86.5485V86.5523C47.0581 88.4659 48.5726 89.9692 50.4937 90.6332C48.8411 92.6737 47.129 94.6321 46.0359 95.8781L46.036 95.8706ZM52.3552 88.2383C52.8476 87.5781 53.3102 86.9327 53.7056 86.3284H53.7094C52.5753 85.4182 51.5458 84.3887 50.6431 83.2508C50.0052 83.7246 49.3822 84.2058 48.7705 84.6721C48.8936 86.5932 50.4304 88.1227 52.3552 88.2383ZM77.9263 82.9786C81.0971 79.8115 82.8765 75.5142 82.8765 71.0301C82.8765 66.5499 81.0971 62.2526 77.9301 59.0853C74.7593 55.9146 70.4619 54.1352 65.9815 54.1352C61.5011 54.1352 57.2041 55.9146 54.033 59.0853C50.866 62.2524 49.0866 66.5497 49.0866 71.0301C49.0866 75.5139 50.866 79.8112 54.033 82.9786C57.2038 86.1419 61.5011 87.9213 65.9815 87.9213C70.4619 87.9213 74.7554 86.1419 77.9263 82.9786ZM43.0109 69.2701H35.789V55.6427L39.3961 52.8748L43.0033 55.6427L43.0071 69.2701H43.0109ZM37.4272 22.3199C37.278 21.5962 37.7331 20.8912 38.453 20.7233C39.1692 20.5592 39.8892 20.9956 40.072 21.7119C40.5569 23.8121 42.7615 24.4948 44.7312 24.2373V24.2336C45.6861 24.1851 46.5403 23.6293 46.9731 22.7788C47.1895 22.1894 47.0552 21.5291 46.6225 21.0703C45.8988 20.2869 44.8804 19.8468 43.8135 19.8468C43.0041 19.7535 42.2095 19.5707 41.441 19.3059L41.4 19.2872L41.3963 19.2909C39.4714 18.6754 38.1509 16.911 38.0987 14.8891C38.1919 12.8598 39.5237 11.099 41.4522 10.4612C41.7432 10.3568 42.0379 10.2672 42.3363 10.2001V8.7751C42.3363 8.0253 42.9444 7.41723 43.6942 7.41723C44.444 7.41723 45.0483 8.02528 45.0483 8.7751V10.1665C47.1858 10.6589 48.9167 12.2181 49.6292 14.2922C49.7635 14.6317 49.756 15.0047 49.6068 15.3368C49.4613 15.6688 49.1853 15.9299 48.8496 16.0567C48.5101 16.1835 48.1333 16.1724 47.8013 16.0231C47.473 15.8702 47.2156 15.5942 47.0925 15.2547C46.8127 14.3035 46.1413 13.5126 45.246 13.0874C44.3507 12.6584 43.3137 12.6286 42.396 13.0091C41.5306 13.2702 40.9039 14.0274 40.8144 14.9302C40.8032 15.6912 41.3665 16.344 42.396 16.7655C42.9854 16.9595 43.5972 17.0901 44.2126 17.1609C45.9435 17.243 47.5699 18.0264 48.7039 19.3357C49.7708 20.5517 50.0767 22.2565 49.5022 23.771C48.7226 25.5541 47.0252 26.7665 45.0818 26.9269H45.0482V28.24V28.2362C45.0296 28.9711 44.429 29.5568 43.6903 29.5568C42.9555 29.5568 42.3549 28.9711 42.3362 28.2362V26.8523C39.9339 26.4718 37.9941 24.6813 37.4234 22.3199L37.4272 22.3199ZM43.5934 33.1005C39.725 33.1005 36.0134 31.5636 33.275 28.8255C30.5369 26.0875 29 22.3758 29 18.5071C29 14.635 30.5369 10.9234 33.275 8.18491C36.0094 5.45056 39.721 3.90991 43.5934 3.90991C47.4655 3.90991 51.1772 5.44683 53.9156 8.18491C56.65 10.923 58.1869 14.6347 58.1869 18.5071C58.1832 22.3755 56.6463 26.0835 53.9082 28.8217C51.1738 31.5561 47.4657 33.0968 43.5934 33.1005ZM77.5958 60.9435L76.0738 59.4215C75.4098 58.7538 74.3914 58.6008 73.5596 59.0373L72.6456 59.511C71.6347 58.9254 70.5529 58.474 69.4263 58.1756L69.1093 57.187H69.1055C68.8258 56.2917 67.9939 55.6837 67.0576 55.6874H64.9089C63.9689 55.6837 63.1333 56.2955 62.8536 57.1945L62.5477 58.1755V58.1718C61.4174 58.4739 60.3356 58.9216 59.3247 59.5072L58.4033 59.0297C57.5714 58.597 56.553 58.7537 55.8928 59.4177L54.3708 60.9397C53.7068 61.6037 53.5501 62.6258 53.9865 63.4576L54.464 64.3716H54.4603C53.8746 65.3788 53.427 66.4643 53.1249 67.5909L52.1363 67.9079C51.241 68.1914 50.6367 69.0233 50.6367 69.9596V72.1045C50.633 73.0446 51.2447 73.8765 52.1437 74.1562L53.1248 74.4621L53.121 74.4658C53.4232 75.5924 53.8708 76.6779 54.4565 77.6851L53.979 78.6065C53.5463 79.4421 53.7067 80.4567 54.3707 81.1207L55.8889 82.6427V82.639C56.5529 83.3067 57.575 83.4634 58.4068 83.027L59.3208 82.5532V82.5495C60.328 83.1389 61.4135 83.5865 62.54 83.8849L62.8571 84.8735C63.1406 85.7688 63.9725 86.3768 64.9088 86.3731H67.0612C68.0012 86.3768 68.8331 85.765 69.1128 84.8698L69.4224 83.8887C70.549 83.5866 71.6308 83.1389 72.6417 82.5533L73.5631 83.0308C74.3987 83.4635 75.4134 83.3068 76.0773 82.6391L77.5918 81.1209C78.2596 80.4606 78.4162 79.4385 77.9798 78.6067L77.506 77.6927H77.5023C78.0917 76.6818 78.5393 75.6 78.8414 74.4734L79.83 74.1564L79.8263 74.1526C80.7216 73.8729 81.3296 73.041 81.3296 72.1047V69.9598C81.3296 69.016 80.7178 68.1841 79.8226 67.9044L78.8415 67.5948C78.5431 66.4682 78.0917 65.3864 77.5098 64.3755L77.9873 63.4541C78.42 62.6222 78.2596 61.6039 77.5919 60.9436L77.5958 60.9435ZM78.6179 70.3738V71.7018L77.2862 72.127L77.2825 72.1233C76.8125 72.2725 76.4618 72.6642 76.3648 73.1454C76.0962 74.4808 75.5665 75.7529 74.813 76.887C74.537 77.301 74.5109 77.827 74.7384 78.2672L75.38 79.5019L74.4437 80.4382L73.2015 79.8004V79.8041C72.765 79.5728 72.2354 79.6027 71.825 79.875C70.691 80.6322 69.419 81.1583 68.0835 81.4268C67.5985 81.5238 67.2068 81.8782 67.0576 82.3482L66.6436 83.6687H65.3156L64.8903 82.337H64.8941C64.7411 81.867 64.3494 81.5163 63.8645 81.4193C62.5328 81.1508 61.2607 80.621 60.1267 79.8675C59.7163 79.5952 59.1866 79.5654 58.7502 79.7929L57.5191 80.4383L56.5828 79.4982L57.2245 78.256H57.2207C57.4483 77.8195 57.4184 77.2936 57.1461 76.8832C56.3926 75.7492 55.8667 74.4809 55.598 73.1454C55.501 72.6605 55.1466 72.265 54.6729 72.1159L53.3486 71.6981V70.3701L54.6803 69.9448V69.9486C55.1504 69.7993 55.501 69.4077 55.598 68.9227C55.8666 67.5873 56.3963 66.3189 57.1498 65.1849C57.4259 64.7708 57.452 64.2449 57.2244 63.8047L56.5828 62.5699L57.5191 61.6299L58.7614 62.2678C59.1978 62.4953 59.7275 62.4692 60.1416 62.1969C61.2719 61.4396 62.5439 60.9136 63.8794 60.6451C64.3643 60.5481 64.7598 60.1937 64.9052 59.7237L65.323 58.3994H66.651L67.0762 59.7311V59.7274C67.2255 60.1974 67.6171 60.5518 68.1021 60.6488C69.4375 60.9174 70.7059 61.4433 71.8436 62.2006C72.254 62.4729 72.7837 62.5028 73.2201 62.2752L74.4549 61.6299L75.3949 62.5662L74.757 63.8084C74.5295 64.2486 74.5593 64.7745 74.8317 65.1886C75.5852 66.3226 76.1111 67.5909 76.3797 68.9264C76.4805 69.4114 76.8311 69.8068 77.3049 69.956L78.6291 70.3738L78.6179 70.3738ZM65.9867 62.7304C69.344 62.7304 72.373 64.7559 73.66 67.8596C74.9433 70.9595 74.2308 74.5331 71.8583 76.9057C69.482 79.2819 65.9121 79.9907 62.8085 78.7074C59.7048 77.4204 57.683 74.3951 57.683 71.0341C57.6867 66.4495 61.4021 62.7341 65.9867 62.7304ZM65.9904 76.626L65.9867 76.6222C63.7261 76.626 61.6856 75.2606 60.8201 73.1754C59.9547 71.0864 60.4359 68.6804 62.0325 67.08C63.6328 65.4834 66.0351 65.0059 68.1241 65.8714C70.2131 66.7369 71.5747 68.7737 71.5747 71.0341C71.5709 74.1192 69.0679 76.6185 65.9829 76.6222L65.9904 76.626Z" fill="white"/>
<path d="M43.5971 32.6005H43.5934V33.6005H43.5971V32.6005ZM66.344 62.3805L66.3402 62.3768L65.6331 63.0839L65.6369 63.0876L66.344 62.3805ZM71.4171 35.9985L70.8083 35.2051L70.4171 35.5053L70.4171 35.9985L71.4171 35.9985ZM75.0243 33.2306L75.6331 32.4372L75.0243 31.9701L74.4155 32.4372L75.0243 33.2306ZM78.6315 35.9985H79.6315V35.5053L79.2402 35.2051L78.6315 35.9985ZM78.6315 56.0528L77.9849 56.8156L79.6315 58.2111V56.0528H78.6315ZM71.417 52.1956L70.417 52.1955L70.417 52.949L71.1412 53.1568L71.417 52.1956ZM46.036 95.8706L47.0359 95.8833L47.0747 92.8324L45.2376 95.2685L46.036 95.8706ZM43.0815 96.9152L42.8157 97.8792L42.8273 97.8824L42.8391 97.8853L43.0815 96.9152ZM40.0936 93.9421L39.124 94.1869L39.1272 94.1998L39.1308 94.2125L40.0936 93.9421ZM41.1194 90.9615L41.7313 91.7524L41.7572 91.7324L41.7818 91.7106L41.1194 90.9615ZM46.3791 86.5485H47.3791V84.4699L45.755 85.7672L46.3791 86.5485ZM46.3791 86.5523H45.3791V86.7244L45.4367 86.8866L46.3791 86.5523ZM50.4937 90.6332L51.2708 91.2626L52.1686 90.1541L50.8204 89.6881L50.4937 90.6332ZM46.0359 95.8781L45.036 95.8654L45.0016 98.5734L46.7876 96.5376L46.0359 95.8781ZM52.3552 88.2383L52.2952 89.2365L52.8341 89.2689L53.1569 88.8362L52.3552 88.2383ZM53.7056 86.3284V85.3284H53.1649L52.8689 85.7808L53.7056 86.3284ZM53.7094 86.3284V87.3284H56.5529L54.3353 85.5485L53.7094 86.3284ZM50.6431 83.2508L51.4265 82.6293L50.8244 81.8705L50.0468 82.448L50.6431 83.2508ZM48.7705 84.6721L48.1643 83.8768L47.7383 84.2015L47.7725 84.7361L48.7705 84.6721ZM77.9263 82.9786L78.6326 83.6865L78.633 83.6861L77.9263 82.9786ZM77.9301 59.0853L78.6372 58.3783L78.6372 58.3782L77.9301 59.0853ZM54.033 59.0853L53.3259 58.3782L53.3259 58.3782L54.033 59.0853ZM54.033 82.9786L53.3259 83.6857L53.3267 83.6865L54.033 82.9786ZM35.789 69.2701H34.789V70.2701H35.789V69.2701ZM35.789 55.6427L35.1802 54.8493L34.789 55.1495V55.6427H35.789ZM39.3961 52.8748L40.0049 52.0815L39.3961 51.6144L38.7874 52.0815L39.3961 52.8748ZM43.0033 55.6427L44.0033 55.6424L44.0032 55.1494L43.6121 54.8493L43.0033 55.6427ZM43.0071 69.2701L42.0071 69.2703L42.0073 70.2701H43.0071V69.2701ZM37.4272 22.3199L37.4282 23.3199L38.6542 23.3188L38.4066 22.118L37.4272 22.3199ZM38.453 20.7233L38.2296 19.7486L38.2259 19.7495L38.453 20.7233ZM40.072 21.7119L41.0463 21.4869L41.0438 21.4757L41.0409 21.4646L40.072 21.7119ZM44.7312 24.2373L44.8608 25.2289L45.7312 25.1151V24.2373H44.7312ZM44.7312 24.2336L44.6804 23.2349L43.7312 23.2831V24.2336H44.7312ZM46.9731 22.7788L47.8644 23.2323L47.8914 23.1793L47.9119 23.1234L46.9731 22.7788ZM46.6225 21.0703L45.8879 21.7489L45.895 21.7563L46.6225 21.0703ZM43.8135 19.8468L43.6991 20.8402L43.7561 20.8468H43.8135V19.8468ZM41.441 19.3059L41.0272 20.2162L41.0704 20.2358L41.1152 20.2513L41.441 19.3059ZM41.4 19.2872L41.8138 18.3768L41.1829 18.0901L40.6929 18.5801L41.4 19.2872ZM41.3963 19.2909L41.0917 20.2434L41.6723 20.4291L42.1034 19.998L41.3963 19.2909ZM38.0987 14.8891L37.0997 14.8432L37.0981 14.8791L37.099 14.9149L38.0987 14.8891ZM41.4522 10.4612L41.7662 11.4106L41.7782 11.4067L41.7901 11.4024L41.4522 10.4612ZM42.3363 10.2001L42.5558 11.1757L43.3363 11.0001V10.2001H42.3363ZM45.0483 10.1665H44.0483V10.9623L44.8238 11.141L45.0483 10.1665ZM49.6292 14.2922L48.6834 14.6171L48.6909 14.6388L48.6993 14.6601L49.6292 14.2922ZM49.6068 15.3368L48.6946 14.9269L48.6909 14.9354L49.6068 15.3368ZM48.8496 16.0567L49.1995 16.9935L49.203 16.9922L48.8496 16.0567ZM47.8013 16.0231L47.3789 16.9297L47.3914 16.9353L47.8013 16.0231ZM47.0925 15.2547L46.1332 15.5369L46.1419 15.5665L46.1524 15.5956L47.0925 15.2547ZM45.246 13.0874L44.8139 13.9892L44.817 13.9907L45.246 13.0874ZM42.396 13.0091L42.6849 13.9664L42.7328 13.952L42.779 13.9328L42.396 13.0091ZM40.8144 14.9302L39.8193 14.8315L39.8151 14.8734L39.8145 14.9155L40.8144 14.9302ZM42.396 16.7655L42.0171 17.691L42.0498 17.7043L42.0834 17.7154L42.396 16.7655ZM44.2126 17.1609L44.0982 18.1544L44.1317 18.1582L44.1653 18.1598L44.2126 17.1609ZM48.7039 19.3357L47.948 19.9904L47.9522 19.9952L48.7039 19.3357ZM49.5022 23.771L50.4185 24.1716L50.4284 24.1489L50.4372 24.1257L49.5022 23.771ZM45.0818 26.9269V27.9269H45.123L45.1641 27.9235L45.0818 26.9269ZM45.0482 26.9269V25.9269H44.0482V26.9269H45.0482ZM45.0482 28.2362H46.0482L44.0485 28.2109L45.0482 28.2362ZM42.3362 28.2362H41.3362V28.249L41.3365 28.2617L42.3362 28.2362ZM42.3362 26.8523H43.3362V25.9982L42.4926 25.8646L42.3362 26.8523ZM37.4234 22.3199L37.4224 21.3199L36.1532 21.3211L36.4514 22.5549L37.4234 22.3199ZM43.5934 33.1005V34.1005H43.5944L43.5934 33.1005ZM33.275 28.8255L32.5679 29.5326L32.5679 29.5327L33.275 28.8255ZM33.275 8.18491L32.5679 7.4778L32.5678 7.47785L33.275 8.18491ZM53.9156 8.18491L54.6232 7.47829L54.6227 7.47775L53.9156 8.18491ZM58.1869 18.5071L59.1869 18.5081V18.5071H58.1869ZM53.9082 28.8217L54.6153 29.5288L54.6153 29.5288L53.9082 28.8217ZM77.5958 60.9435L77.6135 61.9434L79.9682 61.9017L78.3029 60.2364L77.5958 60.9435ZM76.0738 59.4215L75.3647 60.1266L75.3667 60.1286L76.0738 59.4215ZM73.5596 59.0373L74.0198 59.9251L74.0242 59.9228L73.5596 59.0373ZM72.6456 59.511L72.1444 60.3763L72.6189 60.6512L73.1058 60.3988L72.6456 59.511ZM69.4263 58.1756L68.4741 58.481L68.6413 59.0021L69.1703 59.1423L69.4263 58.1756ZM69.1093 57.187L70.0615 56.8816L69.8387 56.187H69.1093V57.187ZM69.1055 57.187L68.1511 57.4853L68.3704 58.187H69.1055V57.187ZM67.0576 55.6874V56.6874L67.0616 56.6874L67.0576 55.6874ZM64.9089 55.6874L64.905 56.6874H64.9089V55.6874ZM62.8536 57.1945L63.8082 57.4921L63.8084 57.4916L62.8536 57.1945ZM62.5477 58.1755H61.5477L63.5024 58.4732L62.5477 58.1755ZM62.5477 58.1718H63.5477V56.8693L62.2894 57.2057L62.5477 58.1718ZM59.3247 59.5072L58.8646 60.3951L59.3514 60.6474L59.8259 60.3725L59.3247 59.5072ZM58.4033 59.0297L57.9418 59.9169L57.9432 59.9176L58.4033 59.0297ZM55.8928 59.4177L56.5999 60.1248L56.6019 60.1228L55.8928 59.4177ZM53.9865 63.4576L54.8729 62.9946L54.8721 62.993L53.9865 63.4576ZM54.464 64.3716V65.3716H56.1147L55.3503 63.9085L54.464 64.3716ZM54.4603 64.3716V63.3716H53.885L53.5958 63.8689L54.4603 64.3716ZM53.1249 67.5909L53.4303 68.5431L53.9495 68.3765L54.0907 67.8499L53.1249 67.5909ZM52.1363 67.9079L52.4382 68.8613L52.4417 68.8602L52.1363 67.9079ZM50.6367 72.1045L51.6367 72.1085V72.1045H50.6367ZM52.1437 74.1562L52.4414 73.2015L52.4408 73.2013L52.1437 74.1562ZM53.1248 74.4621L53.8319 75.1692L55.0013 73.9997L53.4224 73.5074L53.1248 74.4621ZM53.121 74.4658L52.4139 73.7587L52.0056 74.1671L52.1552 74.7249L53.121 74.4658ZM54.4565 77.6851L55.3443 78.1452L55.5971 77.6574L55.321 77.1824L54.4565 77.6851ZM53.979 78.6065L53.0911 78.1464L53.091 78.1466L53.979 78.6065ZM54.3707 81.1207L55.0787 80.4145L55.0778 80.4136L54.3707 81.1207ZM55.8889 82.6427L55.1809 83.349L56.8889 85.0612V82.6427H55.8889ZM55.8889 82.639L56.598 81.9339L54.8889 80.2152V82.639H55.8889ZM58.4068 83.027L57.9466 82.1391L57.9422 82.1414L58.4068 83.027ZM59.3208 82.5532L59.781 83.441L60.3208 83.1612V82.5532H59.3208ZM59.3208 82.5495L59.8258 81.6864L58.3208 80.8057V82.5495H59.3208ZM62.54 83.8849L63.4923 83.5795L63.3251 83.0584L62.7961 82.9182L62.54 83.8849ZM62.8571 84.8735L63.8105 84.5716L63.8093 84.5681L62.8571 84.8735ZM64.9088 86.3731V85.3731L64.9048 85.3731L64.9088 86.3731ZM67.0612 86.3731L67.0651 85.3731H67.0612V86.3731ZM69.1128 84.8698L68.1592 84.5688L68.1583 84.5715L69.1128 84.8698ZM69.4224 83.8887L69.1634 82.9229L68.6338 83.0649L68.4688 83.5878L69.4224 83.8887ZM72.6417 82.5533L73.1018 81.6654L72.615 81.4131L72.1405 81.688L72.6417 82.5533ZM73.5631 83.0308L73.103 83.9186L73.1033 83.9188L73.5631 83.0308ZM76.0773 82.6391L75.3694 81.9329L75.3683 81.934L76.0773 82.6391ZM77.5918 81.1209L76.8887 80.4098L76.8839 80.4146L77.5918 81.1209ZM77.9798 78.6067L77.092 79.0669L77.0943 79.0713L77.9798 78.6067ZM77.506 77.6927L78.3938 77.2325L78.114 76.6927H77.506V77.6927ZM77.5023 77.6927L76.6384 77.189L75.7617 78.6927H77.5023V77.6927ZM78.8414 74.4734L78.536 73.5212L78.0168 73.6878L77.8756 74.2144L78.8414 74.4734ZM79.83 74.1564L80.1354 75.1086L81.6959 74.6081L80.5371 73.4492L79.83 74.1564ZM79.8263 74.1526L79.528 73.1982L77.9506 73.6911L79.1192 74.8597L79.8263 74.1526ZM79.8226 67.9044L79.5216 68.858L79.5244 68.8589L79.8226 67.9044ZM78.8415 67.5948L77.8749 67.8508L78.0158 68.3828L78.5406 68.5484L78.8415 67.5948ZM77.5098 64.3755L76.622 63.9154L76.3705 64.4007L76.6432 64.8744L77.5098 64.3755ZM77.9873 63.4541L77.1002 62.9926L77.0995 62.994L77.9873 63.4541ZM77.5919 60.9436L77.5742 59.9437L75.201 59.9857L76.8888 61.6547L77.5919 60.9436ZM78.6179 70.3738L78.616 69.3738L77.6179 69.3758V70.3738H78.6179ZM78.6179 71.7018L78.9221 72.6544L79.6179 72.4322V71.7018H78.6179ZM77.2862 72.127L76.5791 72.8341L77.01 73.265L77.5904 73.0796L77.2862 72.127ZM77.2825 72.1233L77.9896 71.4162L77.5596 70.9862L76.9799 71.1702L77.2825 72.1233ZM76.3648 73.1454L75.3845 72.9478L75.3845 72.9482L76.3648 73.1454ZM74.813 76.887L75.6451 77.4417L75.6459 77.4404L74.813 76.887ZM74.7384 78.2672L73.8501 78.7264L73.8511 78.7283L74.7384 78.2672ZM75.38 79.5019L76.0871 80.209L76.6052 79.691L76.2674 79.0408L75.38 79.5019ZM74.4437 80.4382L73.9869 81.3278L74.6354 81.6608L75.1508 81.1454L74.4437 80.4382ZM73.2015 79.8004L73.6583 78.9108L72.2015 78.1627V79.8004H73.2015ZM73.2015 79.8041L72.7333 80.6877L74.2015 81.4657V79.8041H73.2015ZM71.825 79.875L71.2721 79.0417L71.2697 79.0433L71.825 79.875ZM68.0835 81.4268L68.2796 82.4074L68.2806 82.4072L68.0835 81.4268ZM67.0576 82.3482L66.1045 82.0456L66.1034 82.049L67.0576 82.3482ZM66.6436 83.6687V84.6687H67.378L67.5978 83.9679L66.6436 83.6687ZM65.3156 83.6687L64.363 83.9729L64.5852 84.6687H65.3156V83.6687ZM64.8903 82.337V81.337H63.5212L63.9377 82.6412L64.8903 82.337ZM64.8941 82.337V83.337H66.2711L65.845 82.0276L64.8941 82.337ZM63.8645 81.4193L63.6668 82.3996L63.6684 82.3999L63.8645 81.4193ZM60.1267 79.8675L60.6801 79.0346L60.6796 79.0343L60.1267 79.8675ZM58.7502 79.7929L58.2879 78.9062L58.2859 78.9072L58.7502 79.7929ZM57.5191 80.4383L56.8106 81.144L57.3307 81.6661L57.9834 81.3239L57.5191 80.4383ZM56.5828 79.4982L55.6944 79.0393L55.3597 79.6872L55.8743 80.2039L56.5828 79.4982ZM57.2245 78.256L58.1129 78.7149L58.8665 77.256H57.2245V78.256ZM57.2207 78.256L56.334 77.7937L55.5716 79.256H57.2207V78.256ZM57.1461 76.8832L57.9793 76.3303L57.979 76.3298L57.1461 76.8832ZM55.598 73.1454L54.6174 73.3415L54.6177 73.3426L55.598 73.1454ZM54.6729 72.1159L54.372 73.0695L54.3725 73.0697L54.6729 72.1159ZM53.3486 71.6981H52.3486V72.4311L53.0478 72.6517L53.3486 71.6981ZM53.3486 70.3701L53.0445 69.4175L52.3486 69.6397V70.3701H53.3486ZM54.6803 69.9448H55.6803V68.5758L54.3762 68.9922L54.6803 69.9448ZM54.6803 69.9486H53.6803V71.3152L54.9829 70.9017L54.6803 69.9486ZM55.598 68.9227L54.6176 68.7256L54.6174 68.7266L55.598 68.9227ZM57.1498 65.1849L56.3178 64.6302L56.3169 64.6315L57.1498 65.1849ZM57.2244 63.8047L58.1128 63.3455L58.1118 63.3436L57.2244 63.8047ZM56.5828 62.5699L55.8743 61.8642L55.3583 62.3822L55.6955 63.031L56.5828 62.5699ZM57.5191 61.6299L57.9759 60.7403L57.3261 60.4066L56.8106 60.9242L57.5191 61.6299ZM58.7614 62.2678L59.2237 61.381L59.2182 61.3782L58.7614 62.2678ZM60.1416 62.1969L60.6911 63.0324L60.6982 63.0277L60.1416 62.1969ZM63.8794 60.6451L63.6833 59.6645L63.6823 59.6647L63.8794 60.6451ZM64.9052 59.7237L63.9515 59.4228L63.9499 59.428L64.9052 59.7237ZM65.323 58.3994V57.3994H64.5899L64.3694 58.0985L65.323 58.3994ZM66.651 58.3994L67.6036 58.0952L67.3814 57.3994H66.651V58.3994ZM67.0762 59.7311L66.1236 60.0353L68.0762 59.7311H67.0762ZM67.0762 59.7274L68.0294 59.4248L66.0762 59.7274H67.0762ZM68.1021 60.6488L68.2992 59.6684L68.2982 59.6682L68.1021 60.6488ZM71.8436 62.2006L71.2896 63.0331L71.2907 63.0338L71.8436 62.2006ZM73.2201 62.2752L73.6824 63.1619L73.6833 63.1615L73.2201 62.2752ZM74.4549 61.6299L75.1606 60.9213L74.6413 60.4041L73.9917 60.7436L74.4549 61.6299ZM75.3949 62.5662L76.2845 63.023L76.6182 62.3732L76.1006 61.8577L75.3949 62.5662ZM74.757 63.8084L75.6454 64.2676L75.6466 64.2652L74.757 63.8084ZM74.8317 65.1886L73.9961 65.7381L73.9988 65.742L74.8317 65.1886ZM76.3797 68.9264L75.3994 69.1236L75.4006 69.1298L76.3797 68.9264ZM77.3049 69.956L77.6058 69.0023L77.6052 69.0022L77.3049 69.956ZM78.6291 70.3738L78.6311 71.3738L78.93 69.4201L78.6291 70.3738ZM65.9867 62.7304V61.7303L65.9859 61.7304L65.9867 62.7304ZM73.66 67.8596L74.584 67.4771L74.5838 67.4765L73.66 67.8596ZM71.8583 76.9057L72.5654 77.6128L72.5654 77.6128L71.8583 76.9057ZM62.8085 78.7074L62.4254 79.6311L62.4264 79.6315L62.8085 78.7074ZM57.683 71.0341L56.683 71.0332V71.0341H57.683ZM65.9904 76.626L65.5475 77.5225L66.6975 75.9189L65.9904 76.626ZM65.9867 76.6222L66.6938 75.9151L66.4002 75.6215L65.985 75.6222L65.9867 76.6222ZM60.8201 73.1754L59.8963 73.5581L59.8965 73.5587L60.8201 73.1754ZM62.0325 67.08L61.3262 66.3721L61.3245 66.3738L62.0325 67.08ZM71.5747 71.0341L72.5747 71.0354V71.0341H71.5747ZM65.9829 76.6222L65.9817 75.6222L65.54 77.5188L65.9829 76.6222ZM72.0259 36.7918L75.6331 34.024L74.4155 32.4372L70.8083 35.2051L72.0259 36.7918ZM74.4155 34.024L78.0227 36.7918L79.2402 35.2051L75.6331 32.4372L74.4155 34.024ZM77.6315 35.9985V56.0528H79.6315V35.9985H77.6315ZM79.278 55.2899C77.0657 53.4148 74.4809 52.0343 71.6928 51.2343L71.1412 53.1568C73.6578 53.8788 75.9896 55.1245 77.9849 56.8156L79.278 55.2899ZM72.417 52.1956L72.4171 35.9985L70.4171 35.9985L70.417 52.1955L72.417 52.1956ZM45.2376 95.2685C44.7932 95.8579 44.0393 96.1238 43.324 95.945L42.8391 97.8853C44.3322 98.2585 45.9061 97.7038 46.8344 96.4727L45.2376 95.2685ZM43.3474 95.9511C42.2373 95.645 41.368 94.7812 41.0563 93.6716L39.1308 94.2125C39.6323 95.9977 41.0311 97.387 42.8157 97.8792L43.3474 95.9511ZM41.0631 93.6972C40.88 92.9721 41.1418 92.2086 41.7313 91.7524L40.5075 90.1706C39.2841 91.1171 38.7476 92.6962 39.124 94.1869L41.0631 93.6972ZM41.7818 91.7106C43.3801 90.2973 45.1243 88.8308 47.0033 87.3299L45.755 85.7672C43.8514 87.2878 42.0816 88.7757 40.457 90.2124L41.7818 91.7106ZM45.3791 86.5485V86.5523H47.3791V86.5485H45.3791ZM45.4367 86.8866C46.2173 89.0868 47.9584 90.815 50.167 91.5784L50.8204 89.6881C49.1868 89.1235 47.8989 87.845 47.3216 86.2179L45.4367 86.8866ZM49.7166 90.0038C48.0776 92.0276 46.3769 93.9731 45.2842 95.2186L46.7876 96.5376C47.8811 95.2912 49.6047 93.3198 51.2708 91.2626L49.7166 90.0038ZM47.0358 95.8908L47.0359 95.8833L45.0361 95.8579L45.036 95.8654L47.0358 95.8908ZM53.1569 88.8362C53.6553 88.1678 54.1312 87.5043 54.5424 86.876L52.8689 85.7808C52.4891 86.3612 52.0399 86.9884 51.5536 87.6405L53.1569 88.8362ZM53.7056 87.3284H53.7094V85.3284H53.7056V87.3284ZM54.3353 85.5485C53.258 84.6839 52.2816 83.7071 51.4265 82.6293L49.8597 83.8724C50.81 85.0702 51.8927 86.1526 53.0834 87.1083L54.3353 85.5485ZM50.0468 82.448C49.4023 82.9268 48.7692 83.4157 48.1643 83.8768L49.3767 85.4674C49.9952 84.9959 50.6081 84.5224 51.2393 84.0536L50.0468 82.448ZM47.7725 84.7361C47.9279 87.1616 49.8678 89.0907 52.2952 89.2365L52.4152 87.2401C50.993 87.1547 49.8592 86.0249 49.7684 84.6082L47.7725 84.7361ZM78.633 83.6861C81.9919 80.3312 83.8765 75.7792 83.8765 71.0301H81.8765C81.8765 75.2492 80.2023 79.2919 77.2196 82.2711L78.633 83.6861ZM83.8765 71.0301C83.8765 66.2848 81.9918 61.7331 78.6372 58.3783L77.2229 59.7924C80.2024 62.7721 81.8765 66.815 81.8765 71.0301H83.8765ZM78.6372 58.3782C75.2789 55.0199 70.7272 53.1352 65.9815 53.1352V55.1352C70.1967 55.1352 74.2397 56.8092 77.223 59.7925L78.6372 58.3782ZM65.9815 53.1352C61.2359 53.1352 56.6845 55.02 53.3259 58.3782L54.7401 59.7925C57.7236 56.8092 61.7664 55.1352 65.9815 55.1352V53.1352ZM53.3259 58.3782C49.9712 61.7329 48.0866 66.2847 48.0866 71.0301H50.0866C50.0866 66.8148 51.7607 62.7719 54.7401 59.7925L53.3259 58.3782ZM48.0866 71.0301C48.0866 75.7789 49.9711 80.3306 53.3259 83.6857L54.7401 82.2715C51.7608 79.2919 50.0866 75.2489 50.0866 71.0301H48.0866ZM53.3267 83.6865C56.6848 87.0367 61.236 88.9213 65.9815 88.9213V86.9213C61.7662 86.9213 57.7228 85.2472 54.7393 82.2706L53.3267 83.6865ZM65.9815 88.9213C70.7273 88.9213 75.2746 87.0365 78.6326 83.6865L77.2201 82.2706C74.2362 85.2473 70.1966 86.9213 65.9815 86.9213V88.9213ZM43.0109 68.2701H35.789V70.2701H43.0109V68.2701ZM36.789 69.2701V55.6427H34.789V69.2701H36.789ZM36.3977 56.4361L40.0049 53.6682L38.7874 52.0815L35.1802 54.8493L36.3977 56.4361ZM38.7874 53.6682L42.3946 56.4361L43.6121 54.8493L40.0049 52.0815L38.7874 53.6682ZM42.0033 55.643L42.0071 69.2703L44.0071 69.2698L44.0033 55.6424L42.0033 55.643ZM43.0071 70.2701H43.0109V68.2701H43.0071V70.2701ZM38.4066 22.118C38.3678 21.93 38.4836 21.743 38.6801 21.6972L38.2259 19.7495C36.9825 20.0394 36.1881 21.2625 36.4478 22.5219L38.4066 22.118ZM38.6764 21.6981C38.8647 21.6549 39.0547 21.7699 39.103 21.9592L41.0409 21.4646C40.7237 20.2214 39.4737 19.4635 38.2296 19.7486L38.6764 21.6981ZM39.0976 21.9369C39.419 23.3288 40.3266 24.2529 41.4214 24.7646C42.4886 25.2634 43.732 25.3764 44.8608 25.2289L44.6015 23.2457C43.7607 23.3557 42.917 23.256 42.2682 22.9528C41.6471 22.6625 41.2099 22.1952 41.0463 21.4869L39.0976 21.9369ZM45.7312 24.2373V24.2336H43.7312V24.2373H45.7312ZM44.7819 25.2323C46.0952 25.1656 47.2696 24.4012 47.8644 23.2323L46.0819 22.3253C45.8111 22.8574 45.277 23.2046 44.6804 23.2349L44.7819 25.2323ZM47.9119 23.1234C48.2587 22.1785 48.043 21.119 47.35 20.3842L45.895 21.7563C46.0674 21.9392 46.1202 22.2003 46.0344 22.4342L47.9119 23.1234ZM47.357 20.3917C46.4416 19.4008 45.1558 18.8468 43.8135 18.8468V20.8468C44.605 20.8468 45.356 21.173 45.8879 21.7488L47.357 20.3917ZM43.928 18.8533C43.1923 18.7686 42.4685 18.6023 41.7669 18.3604L41.1152 20.2513C41.9504 20.5392 42.8158 20.7384 43.6991 20.8402L43.928 18.8533ZM41.8548 18.3955L41.8138 18.3768L40.9862 20.1976L41.0272 20.2162L41.8548 18.3955ZM40.6929 18.5801L40.6892 18.5838L42.1034 19.998L42.1071 19.9943L40.6929 18.5801ZM41.7008 18.3384C40.1824 17.8529 39.1396 16.4611 39.0983 14.8633L37.099 14.9149C37.1622 17.3609 38.7605 19.498 41.0917 20.2434L41.7008 18.3384ZM39.0976 14.935C39.1719 13.3187 40.2321 11.918 41.7662 11.4106L41.1382 9.5118C38.8152 10.2801 37.212 12.4009 37.0997 14.8432L39.0976 14.935ZM41.7901 11.4024C42.0505 11.3089 42.3051 11.2321 42.5558 11.1757L42.1168 9.22449C41.7706 9.30237 41.4359 9.4046 41.1143 9.52003L41.7901 11.4024ZM43.3363 10.2001V8.7751H41.3363V10.2001H43.3363ZM43.3363 8.7751C43.3363 8.57757 43.4966 8.41723 43.6942 8.41723V6.41723C42.3921 6.41723 41.3363 7.47302 41.3363 8.7751H43.3363ZM43.6942 8.41723C43.8881 8.41723 44.0483 8.57399 44.0483 8.7751H46.0483C46.0483 7.47657 44.9998 6.41723 43.6942 6.41723V8.41723ZM44.0483 8.7751V10.1665H46.0483V8.7751H44.0483ZM44.8238 11.141C46.6248 11.5558 48.0831 12.8695 48.6834 14.6171L50.5749 13.9673C49.7503 11.5668 47.7468 9.76192 45.2728 9.192L44.8238 11.141ZM48.6993 14.6601C48.7352 14.7509 48.7322 14.8434 48.6947 14.9269L50.5189 15.7466C50.7798 15.166 50.7917 14.5125 50.5591 13.9244L48.6993 14.6601ZM48.6909 14.9354C48.6534 15.0209 48.5802 15.0895 48.4961 15.1213L49.203 16.9922C49.7904 16.7703 50.2692 16.3166 50.5227 15.7381L48.6909 14.9354ZM48.4996 15.12C48.4054 15.1551 48.3017 15.1517 48.2112 15.111L47.3914 16.9353C47.9649 17.193 48.6148 17.212 49.1995 16.9935L48.4996 15.12ZM48.2236 15.1167C48.1295 15.0728 48.0626 14.9965 48.0326 14.9138L46.1524 15.5956C46.3686 16.1918 46.8165 16.6676 47.379 16.9296L48.2236 15.1167ZM48.0519 14.9725C47.6924 13.7503 46.8294 12.7324 45.675 12.1841L44.817 13.9907C45.4531 14.2929 45.9331 14.8566 46.1332 15.5369L48.0519 14.9725ZM45.6781 12.1856C44.5278 11.6344 43.1944 11.5955 42.013 12.0853L42.779 13.9328C43.433 13.6617 44.1736 13.6824 44.8139 13.9892L45.6781 12.1856ZM42.1071 12.0517C40.8561 12.4292 39.9489 13.524 39.8193 14.8315L41.8095 15.0288C41.8589 14.5308 42.2051 14.1112 42.6849 13.9664L42.1071 12.0517ZM39.8145 14.9155C39.7945 16.274 40.8149 17.1988 42.0171 17.691L42.7749 15.8401C41.918 15.4892 41.8119 15.1084 41.8143 14.9449L39.8145 14.9155ZM42.0834 17.7154C42.741 17.9318 43.4194 18.0762 44.0982 18.1544L44.327 16.1675C43.7749 16.1039 43.2298 15.9872 42.7086 15.8156L42.0834 17.7154ZM44.1653 18.1598C45.6255 18.229 46.9949 18.8899 47.948 19.9904L49.4598 18.681C48.1449 17.1629 46.2616 16.257 44.26 16.1621L44.1653 18.1598ZM47.9522 19.9952C48.7742 20.9321 49.011 22.2465 48.5672 23.4164L50.4372 24.1257C51.1424 22.2665 50.7674 20.1714 49.4556 18.6762L47.9522 19.9952ZM48.586 23.3704C47.9539 24.816 46.5772 25.8 44.9995 25.9303L45.1641 27.9235C47.4733 27.7329 49.4913 26.2922 50.4185 24.1716L48.586 23.3704ZM45.0818 25.9269H45.0482V27.9269H45.0818V25.9269ZM44.0482 26.9269V28.24H46.0482V26.9269H44.0482ZM46.0482 28.24V28.2362H44.0482V28.24H46.0482ZM44.0485 28.2109C44.0437 28.402 43.8881 28.5568 43.6903 28.5568V30.5568C44.9698 30.5568 46.0154 29.5403 46.0479 28.2616L44.0485 28.2109ZM43.6903 28.5568C43.4981 28.5568 43.3408 28.4038 43.3359 28.2108L41.3365 28.2617C41.369 29.5384 42.4128 30.5568 43.6903 30.5568V28.5568ZM43.3362 28.2362V26.8523H41.3362V28.2362H43.3362ZM42.4926 25.8646C40.489 25.5473 38.8711 24.0535 38.3954 22.085L36.4514 22.5549C37.117 25.3091 39.3788 27.3963 42.1798 27.84L42.4926 25.8646ZM37.4243 23.3199L37.4282 23.3199L37.4262 21.3199L37.4224 21.3199L37.4243 23.3199ZM43.5934 32.1005C39.9903 32.1005 36.533 30.669 33.9821 28.1184L32.5679 29.5327C35.4938 32.4582 39.4598 34.1005 43.5934 34.1005V32.1005ZM33.9821 28.1184C31.4315 25.5679 30 22.1105 30 18.5071H28C28 22.6411 29.6423 26.6071 32.5679 29.5326L33.9821 28.1184ZM30 18.5071C30 14.9002 31.4316 11.4429 33.9822 8.89197L32.5678 7.47785C29.6422 10.4039 28 14.3699 28 18.5071H30ZM33.9821 8.89202C36.5292 6.34494 39.9866 4.90991 43.5934 4.90991V2.90991C39.4554 2.90991 35.4895 4.55618 32.5679 7.4778L33.9821 8.89202ZM43.5934 4.90991C47.2004 4.90991 50.6577 6.34153 53.2086 8.89207L54.6227 7.47775C51.6967 4.55214 47.7307 2.90991 43.5934 2.90991V4.90991ZM53.208 8.89154C55.7552 11.4422 57.1869 14.8997 57.1869 18.5071H59.1869C59.1869 14.3696 57.5448 10.4038 54.6232 7.47829L53.208 8.89154ZM57.1869 18.5062C57.1834 22.1097 55.7518 25.5637 53.2011 28.1146L54.6153 29.5288C57.5407 26.6032 59.1829 22.6413 59.1869 18.5081L57.1869 18.5062ZM53.2011 28.1146C50.6538 30.6619 47.1996 32.0971 43.5924 32.1005L43.5944 34.1005C47.7318 34.0966 51.6938 32.4503 54.6153 29.5288L53.2011 28.1146ZM78.3029 60.2364L76.7809 58.7144L75.3667 60.1286L76.8887 61.6506L78.3029 60.2364ZM76.7829 58.7164C75.8077 57.7357 74.3129 57.5127 73.095 58.1518L74.0242 59.9228C74.4699 59.6889 75.0119 59.7718 75.3647 60.1266L76.7829 58.7164ZM73.0994 58.1495L72.1854 58.6232L73.1058 60.3988L74.0198 59.9251L73.0994 58.1495ZM73.1469 58.6457C72.0611 58.0167 70.8971 57.5307 69.6824 57.2089L69.1703 59.1423C70.2088 59.4174 71.2083 59.834 72.1444 60.3763L73.1469 58.6457ZM70.3786 57.8702L70.0615 56.8816L68.1571 57.4924L68.4741 58.481L70.3786 57.8702ZM69.1093 56.187H69.1055V58.187H69.1093V56.187ZM70.06 56.8887C69.6493 55.5743 68.4284 54.682 67.0536 54.6874L67.0616 56.6874C67.5593 56.6854 68.0023 57.0092 68.1511 57.4853L70.06 56.8887ZM67.0576 54.6874H64.9089V56.6874H67.0576V54.6874ZM64.9129 54.6874C63.5338 54.682 62.309 55.5787 61.8987 56.8974L63.8084 57.4916C63.9576 57.0122 64.404 56.6854 64.905 56.6874L64.9129 54.6874ZM61.8989 56.8968L61.593 57.8778L63.5024 58.4732L63.8082 57.4921L61.8989 56.8968ZM63.5477 58.1755V58.1718H61.5477V58.1755H63.5477ZM62.2894 57.2057C61.0746 57.5304 59.9111 58.0118 58.8234 58.6419L59.8259 60.3725C60.7601 59.8313 61.7602 59.4174 62.806 59.1378L62.2894 57.2057ZM59.7848 58.6193L58.8634 58.1419L57.9432 59.9176L58.8646 60.3951L59.7848 58.6193ZM58.8648 58.1426C57.6466 57.5089 56.1537 57.7371 55.1837 58.7126L56.6019 60.1228C56.9524 59.7703 57.4963 59.6851 57.9418 59.9169L58.8648 58.1426ZM55.1857 58.7106L53.6637 60.2326L55.0779 61.6468L56.5999 60.1248L55.1857 58.7106ZM53.6637 60.2326C52.6908 61.2054 52.4608 62.7021 53.101 63.9223L54.8721 62.993C54.6393 62.5495 54.7227 62.0019 55.0779 61.6468L53.6637 60.2326ZM53.1002 63.9207L53.5777 64.8346L55.3503 63.9085L54.8729 62.9946L53.1002 63.9207ZM54.464 63.3716H54.4603V65.3716H54.464V63.3716ZM53.5958 63.8689C52.9646 64.9544 52.4834 66.1221 52.159 67.3318L54.0907 67.8499C54.3706 66.8065 54.7846 65.8031 55.3248 64.8742L53.5958 63.8689ZM52.8194 66.6386L51.8309 66.9557L52.4417 68.8602L53.4303 68.5431L52.8194 66.6386ZM51.8344 66.9546C50.5207 67.3706 49.6367 68.5902 49.6367 69.9596H51.6367C51.6367 69.4565 51.9613 69.0123 52.4382 68.8613L51.8344 66.9546ZM49.6367 69.9596V72.1045H51.6367V69.9596H49.6367ZM49.6367 72.1006C49.6312 73.4818 50.5299 74.7014 51.8466 75.111L52.4408 73.2013C51.9596 73.0516 51.6347 72.6074 51.6367 72.1085L49.6367 72.1006ZM51.8461 75.1109L52.8271 75.4167L53.4224 73.5074L52.4414 73.2015L51.8461 75.1109ZM52.4177 73.755L52.4139 73.7587L53.8281 75.1729L53.8319 75.1692L52.4177 73.755ZM52.1552 74.7249C52.4796 75.9346 52.9608 77.1022 53.592 78.1877L55.321 77.1824C54.7808 76.2535 54.3668 75.2502 54.0869 74.2067L52.1552 74.7249ZM53.5686 77.225L53.0911 78.1464L54.8668 79.0666L55.3443 78.1452L53.5686 77.225ZM53.091 78.1466C52.4569 79.3711 52.6931 80.8574 53.6636 81.8278L55.0778 80.4136C54.7202 80.056 54.6357 79.513 54.867 79.0663L53.091 78.1466ZM53.6627 81.8269L55.1809 83.349L56.5969 81.9365L55.0787 80.4145L53.6627 81.8269ZM56.8889 82.6427V82.639H54.8889V82.6427H56.8889ZM55.1798 83.3441C56.1529 84.3227 57.6509 84.5528 58.8714 83.9125L57.9422 82.1414C57.499 82.374 56.9528 82.2907 56.598 81.9339L55.1798 83.3441ZM58.867 83.9148L59.781 83.441L58.8606 81.6654L57.9466 82.1391L58.867 83.9148ZM60.3208 82.5532V82.5495H58.3208V82.5532H60.3208ZM58.8157 83.4126C59.9026 84.0486 61.0721 84.5305 62.284 84.8516L62.7961 82.9182C61.7548 82.6424 60.7533 82.2291 59.8258 81.6864L58.8157 83.4126ZM61.5878 84.1903L61.9049 85.1789L63.8093 84.5681L63.4923 83.5795L61.5878 84.1903ZM61.9038 85.1754C62.3188 86.486 63.5372 87.3785 64.9128 87.3731L64.9048 85.3731C64.4078 85.3751 63.9625 85.0516 63.8105 84.5716L61.9038 85.1754ZM64.9088 87.3731H67.0612V85.3731H64.9088V87.3731ZM67.0572 87.3731C68.4375 87.3785 69.6572 86.4808 70.0673 85.168L68.1583 84.5715C68.0091 85.0493 67.5649 85.3751 67.0651 85.3731L67.0572 87.3731ZM70.0665 85.1707L70.3761 84.1897L68.4688 83.5878L68.1592 84.5688L70.0665 85.1707ZM69.6815 84.8546C70.8921 84.5299 72.0554 84.0486 73.143 83.4186L72.1405 81.688C71.2062 82.2292 70.2059 82.6432 69.1634 82.9229L69.6815 84.8546ZM72.1816 83.4412L73.103 83.9186L74.0232 82.1429L73.1018 81.6654L72.1816 83.4412ZM73.1033 83.9188C74.3251 84.5515 75.8133 84.3228 76.7864 83.3442L75.3683 81.934C75.0134 82.2908 74.4723 82.3755 74.023 82.1428L73.1033 83.9188ZM76.7853 83.3453L78.2998 81.8271L76.8839 80.4146L75.3694 81.9329L76.7853 83.3453ZM78.2949 81.832C79.2766 80.8612 79.5052 79.3617 78.8653 78.1421L77.0943 79.0713C77.3273 79.5154 77.2425 80.06 76.8887 80.4098L78.2949 81.832ZM78.8676 78.1465L78.3938 77.2325L76.6182 78.1529L77.092 79.0669L78.8676 78.1465ZM77.506 76.6927H77.5023V78.6927H77.506V76.6927ZM78.3662 78.1964C79.0011 77.1074 79.4826 75.9432 79.8073 74.7325L77.8756 74.2144C77.596 75.2568 77.1823 76.2562 76.6384 77.189L78.3662 78.1964ZM79.1469 75.4257L80.1354 75.1086L79.5246 73.2041L78.536 73.5212L79.1469 75.4257ZM80.5371 73.4492L80.5334 73.4455L79.1192 74.8597L79.1229 74.8635L80.5371 73.4492ZM80.1246 75.1071C81.4394 74.6962 82.3296 73.4761 82.3296 72.1047H80.3296C80.3296 72.6058 80.0037 73.0495 79.528 73.1982L80.1246 75.1071ZM82.3296 72.1047V69.9598H80.3296V72.1047H82.3296ZM82.3296 69.9598C82.3296 68.5801 81.435 67.3605 80.1208 66.9499L79.5244 68.8589C80.0007 69.0077 80.3296 69.4519 80.3296 69.9598H82.3296ZM80.1235 66.9507L79.1425 66.6411L78.5406 68.5484L79.5216 68.858L80.1235 66.9507ZM79.8082 67.3387C79.4865 66.1241 79.0007 64.9609 78.3765 63.8766L76.6432 64.8744C77.1828 65.8119 77.5998 66.8123 77.8749 67.8508L79.8082 67.3387ZM78.3977 64.8356L78.8752 63.9142L77.0995 62.994L76.622 63.9154L78.3977 64.8356ZM78.8745 63.9156C79.5099 62.694 79.2739 61.2004 78.295 60.2325L76.8888 61.6547C77.2454 62.0073 77.3302 62.5505 77.1002 62.9926L78.8745 63.9156ZM77.6096 61.9434L77.6135 61.9434L77.5781 59.9437L77.5742 59.9437L77.6096 61.9434ZM77.6179 70.3738V71.7018H79.6179V70.3738H77.6179ZM78.3137 70.7492L76.982 71.1744L77.5904 73.0796L78.9221 72.6544L78.3137 70.7492ZM77.9933 71.4199L77.9896 71.4162L76.5754 72.8304L76.5791 72.8341L77.9933 71.4199ZM76.9799 71.1702C76.1636 71.4293 75.5534 72.1102 75.3845 72.9478L77.3451 73.343C77.3703 73.2182 77.4614 73.1157 77.5851 73.0764L76.9799 71.1702ZM75.3845 72.9482C75.1417 74.1551 74.6626 75.3064 73.9801 76.3335L75.6459 77.4404C76.4705 76.1995 77.0508 74.8066 77.3452 73.3426L75.3845 72.9482ZM73.981 76.3323C73.5009 77.0523 73.4574 77.9668 73.8501 78.7264L75.6267 77.8079C75.5643 77.6872 75.573 77.5497 75.6451 77.4417L73.981 76.3323ZM73.8511 78.7283L74.4927 79.963L76.2674 79.0408L75.6258 77.8061L73.8511 78.7283ZM74.6729 78.7948L73.7366 79.7311L75.1508 81.1454L76.0871 80.209L74.6729 78.7948ZM74.9005 79.5487L73.6583 78.9108L72.7447 80.6899L73.9869 81.3278L74.9005 79.5487ZM72.2015 79.8004V79.8041H74.2015V79.8004H72.2015ZM73.6697 78.9205C72.9046 78.515 71.9833 78.5697 71.2721 79.0417L72.3779 80.7082C72.4874 80.6356 72.6255 80.6306 72.7333 80.6877L73.6697 78.9205ZM71.2697 79.0433C70.245 79.7276 69.0948 80.2034 67.8863 80.4464L68.2806 82.4072C69.7431 82.1131 71.137 81.5369 72.3803 80.7066L71.2697 79.0433ZM67.8873 80.4462C67.0418 80.6153 66.3627 81.2322 66.1045 82.0456L68.0108 82.6507C68.051 82.5241 68.1552 82.4322 68.2796 82.4074L67.8873 80.4462ZM66.1034 82.049L65.6894 83.3695L67.5978 83.9679L68.0118 82.6474L66.1034 82.049ZM66.6436 82.6687H65.3156V84.6687H66.6436V82.6687ZM66.2682 83.3645L65.8429 82.0328L63.9377 82.6412L64.363 83.9729L66.2682 83.3645ZM64.8903 83.337H64.8941V81.337H64.8903V83.337ZM65.845 82.0276C65.5811 81.2165 64.9027 80.6072 64.0606 80.4388L63.6684 82.3999C63.7962 82.4255 63.9012 82.5174 63.9431 82.6464L65.845 82.0276ZM64.0622 80.4391C62.8589 80.1964 61.7074 79.7172 60.6801 79.0346L59.5732 80.7004C60.814 81.5249 62.2067 82.1051 63.6668 82.3996L64.0622 80.4391ZM60.6796 79.0343C59.9686 78.5624 59.0501 78.5088 58.2879 78.9062L59.2125 80.6796C59.3232 80.6219 59.4641 80.628 59.5737 80.7007L60.6796 79.0343ZM58.2859 78.9072L57.0548 79.5526L57.9834 81.3239L59.2145 80.6786L58.2859 78.9072ZM58.2277 79.7326L57.2913 78.7925L55.8743 80.2039L56.8106 81.144L58.2277 79.7326ZM57.4713 79.9571L58.1129 78.7149L56.336 77.7971L55.6944 79.0393L57.4713 79.9571ZM57.2245 77.256H57.2207V79.256H57.2245V77.256ZM58.1074 78.7183C58.505 77.9558 58.451 77.0411 57.9793 76.3303L56.3129 77.4362C56.3858 77.5461 56.3915 77.6833 56.334 77.7937L58.1074 78.7183ZM57.979 76.3298C57.2971 75.3035 56.8214 74.1562 56.5784 72.9482L54.6177 73.3426C54.9119 74.8057 55.4881 76.1949 56.3132 77.4367L57.979 76.3298ZM56.5786 72.9493C56.41 72.1064 55.7948 71.4208 54.9733 71.162L54.3725 73.0697C54.4985 73.1093 54.592 73.2145 54.6174 73.3415L56.5786 72.9493ZM54.9738 71.1622L53.6495 70.7444L53.0478 72.6517L54.372 73.0695L54.9738 71.1622ZM54.3486 71.6981V70.3701H52.3486V71.6981H54.3486ZM53.6528 71.3227L54.9845 70.8974L54.3762 68.9922L53.0445 69.4175L53.6528 71.3227ZM53.6803 69.9448V69.9486H55.6803V69.9448H53.6803ZM54.9829 70.9017C55.8006 70.6421 56.4104 69.9599 56.5786 69.1189L54.6174 68.7266C54.5917 68.8554 54.5001 68.9566 54.3778 68.9954L54.9829 70.9017ZM56.5784 69.1199C56.821 67.9137 57.2998 66.7661 57.9827 65.7383L56.3169 64.6315C55.4928 65.8718 54.9122 67.2609 54.6176 68.7256L56.5784 69.1199ZM57.9819 65.7396C58.4619 65.0195 58.5054 64.105 58.1128 63.3455L56.3361 64.2639C56.3985 64.3847 56.3898 64.5221 56.3178 64.6302L57.9819 65.7396ZM58.1118 63.3436L57.4702 62.1088L55.6955 63.031L56.3371 64.2658L58.1118 63.3436ZM57.2913 63.2756L58.2276 62.3356L56.8106 60.9242L55.8743 61.8642L57.2913 63.2756ZM57.0623 62.5194L58.3046 63.1573L59.2182 61.3782L57.9759 60.7403L57.0623 62.5194ZM58.299 63.1545C59.0573 63.5498 59.9742 63.5039 60.691 63.0324L59.5921 61.3614C59.4808 61.4346 59.3383 61.4408 59.2237 61.381L58.299 63.1545ZM60.6982 63.0277C61.7182 62.3442 62.8679 61.8685 64.0765 61.6254L63.6823 59.6647C62.2199 59.9587 60.8255 60.535 59.585 61.3661L60.6982 63.0277ZM64.0755 61.6256C64.9161 61.4575 65.6055 60.8433 65.8605 60.0193L63.9499 59.428C63.914 59.5441 63.8126 59.6386 63.6833 59.6645L64.0755 61.6256ZM65.8589 60.0246L66.2767 58.7003L64.3694 58.0985L63.9516 59.4228L65.8589 60.0246ZM65.323 59.3994H66.651V57.3994H65.323V59.3994ZM65.6984 58.7036L66.1236 60.0353L68.0289 59.4269L67.6036 58.0952L65.6984 58.7036ZM68.0762 59.7311V59.7274H66.0762V59.7311H68.0762ZM66.1231 60.03C66.3813 60.8433 67.0604 61.4603 67.906 61.6294L68.2982 59.6682C68.1739 59.6433 68.0696 59.5515 68.0294 59.4248L66.1231 60.03ZM67.9049 61.6292C69.1125 61.872 70.2597 62.3476 71.2896 63.0331L72.3977 61.3681C71.1521 60.5391 69.7625 59.9627 68.2992 59.6684L67.9049 61.6292ZM71.2907 63.0338C72.0017 63.5057 72.9202 63.5593 73.6824 63.1619L72.7578 61.3885C72.6471 61.4462 72.5062 61.4401 72.3966 61.3674L71.2907 63.0338ZM73.6833 63.1615L74.9181 62.5161L73.9917 60.7436L72.7569 61.389L73.6833 63.1615ZM73.7492 62.3384L74.6892 63.2747L76.1006 61.8577L75.1606 60.9213L73.7492 62.3384ZM74.5054 62.1094L73.8675 63.3516L75.6466 64.2652L76.2845 63.023L74.5054 62.1094ZM73.8687 63.3492C73.4735 64.1138 73.5273 65.0252 73.9961 65.7381L75.6672 64.6391C75.5914 64.5239 75.5855 64.3834 75.6454 64.2676L73.8687 63.3492ZM73.9988 65.742C74.6807 66.7683 75.1564 67.9157 75.3994 69.1236L77.3601 68.7292C77.0658 67.2662 76.4897 65.8769 75.6645 64.6352L73.9988 65.742ZM75.4006 69.1298C75.5734 69.9617 76.1779 70.6495 77.0045 70.9098L77.6052 69.0022C77.4843 68.9641 77.3875 68.8611 77.3589 68.7231L75.4006 69.1298ZM77.004 70.9096L78.3282 71.3274L78.93 69.4201L77.6058 69.0023L77.004 70.9096ZM78.6272 69.3738L78.616 69.3738L78.6199 71.3738L78.6311 71.3738L78.6272 69.3738ZM65.9867 63.7304C68.9389 63.7304 71.6039 65.5118 72.7363 68.2426L74.5838 67.4765C73.1421 64 69.749 61.7304 65.9867 61.7304V63.7304ZM72.7361 68.2421C73.8645 70.968 73.238 74.1117 71.1512 76.1986L72.5654 77.6128C75.2236 74.9545 76.0221 70.9509 74.584 67.4771L72.7361 68.2421ZM71.1512 76.1986C69.0611 78.2886 65.9211 78.9123 63.1906 77.7833L62.4264 79.6315C65.9031 81.0691 69.903 80.2752 72.5654 77.6128L71.1512 76.1986ZM63.1915 77.7837C60.4612 76.6515 58.683 73.9906 58.683 71.0341H56.683C56.683 74.7997 58.9485 78.1893 62.4254 79.6311L63.1915 77.7837ZM58.683 71.0349C58.6862 67.0019 61.9545 63.7336 65.9875 63.7303L65.9859 61.7304C60.8496 61.7345 56.6871 65.897 56.683 71.0332L58.683 71.0349ZM66.6975 75.9189L66.6938 75.9151L65.2796 77.3293L65.2833 77.3331L66.6975 75.9189ZM65.985 75.6222C64.1306 75.6253 62.4546 74.5047 61.7437 72.792L59.8965 73.5587C60.9167 76.0166 63.3216 77.6266 65.9883 77.6222L65.985 75.6222ZM61.744 72.7926C61.0337 71.0783 61.4282 69.1016 62.7404 67.7863L61.3245 66.3738C59.4436 68.2591 58.8756 71.0945 59.8963 73.5581L61.744 72.7926ZM62.7387 67.788C64.0533 66.4765 66.026 66.0846 67.7413 66.7953L68.5068 64.9476C66.0442 63.9273 63.2123 64.4904 61.3262 66.3721L62.7387 67.788ZM67.7413 66.7953C69.457 67.5061 70.5747 69.1784 70.5747 71.0341H72.5747C72.5747 68.3689 70.9692 65.9677 68.5068 64.9476L67.7413 66.7953ZM70.5747 71.0329C70.5716 73.5658 68.5162 75.6192 65.9817 75.6222L65.9841 77.6222C69.6196 77.6178 72.5703 74.6726 72.5747 71.0354L70.5747 71.0329ZM65.54 77.5188L65.5475 77.5225L66.4333 75.7294L66.4257 75.7256L65.54 77.5188Z" fill="black" mask="url(#path-7-outside-1_171_152)"/>
<path d="M30.9782 46.8529C53.0462 38.9923 72.3594 28.2543 88.4565 14.8945L88.2913 16.2605C88.2913 16.2608 88.2913 16.2611 88.2912 16.2613C88.1639 17.2779 88.8881 18.2049 89.902 18.3332C89.9798 18.3435 90.0572 18.3485 90.1378 18.3485L90.1406 18.3485C91.0737 18.3434 91.8632 17.6457 91.9806 16.7175L91.9808 16.716L92.7343 10.6058L92.8035 10.0446H92.7156C92.6583 9.73145 92.5199 9.43631 92.3125 9.18746L92.3105 9.18504C91.9808 8.79451 91.5061 8.55308 90.9885 8.52704C90.988 8.52702 90.9875 8.52699 90.987 8.52697L84.8198 8.18765L84.8197 8.18764C83.7963 8.13164 82.917 8.9114 82.8607 9.93901C82.8044 10.9656 83.5909 11.8368 84.6094 11.8979L84.6122 11.8981L86.1522 11.982C70.3903 25.0767 51.4351 35.6207 29.7325 43.3519L29.7312 43.3524C28.8793 43.6585 28.3742 44.5309 28.5271 45.4185C28.6804 46.3113 29.4518 46.9602 30.3553 46.9602C30.5677 46.9602 30.7775 46.9248 30.9782 46.8529ZM30.9782 46.8529L30.8104 46.3819L30.9794 46.8525C30.979 46.8526 30.9786 46.8528 30.9782 46.8529ZM95.0181 70.5211L95.8583 69.6698H95.1547V28.159V27.9124L94.9591 27.7623L91.3519 24.9944L91.0475 24.7609L90.7431 24.9944L87.1359 27.7623L86.9403 27.9124V28.159V70.1698V70.6698H87.4403H94.1547V71.3958L95.0105 70.5287L95.0181 70.5211ZM55.7309 44.2389L55.4841 44.0496L55.2052 44.1872L55.1977 44.191L55.1536 44.2127L55.1146 44.2426L51.5074 47.0105L51.3118 47.1606V47.4072V56.7218V57.7745L52.1277 57.1094C54.1921 55.4265 56.591 54.1945 59.1639 53.5004L59.5337 53.4006V53.0176V47.4035V47.1569L59.3381 47.0068L55.7309 44.2389Z" fill="#5DB947" stroke="black"/>
</svg>
