<svg width="128" height="100" viewBox="0 0 128 100" fill="none" xmlns="http://www.w3.org/2000/svg">
<path d="M18.1541 73.847C18.2528 73.945 18.3866 74 18.5261 74C18.6657 74 18.7995 73.945 18.8982 73.847L21.5032 71.261L24.1081 73.847C24.2074 73.9422 24.3403 73.9949 24.4783 73.9937C24.6163 73.9925 24.7483 73.9375 24.8459 73.8407C24.9434 73.7438 24.9988 73.6128 25 73.4758C25.0012 73.3388 24.9481 73.2069 24.8523 73.1083L21.8752 70.153C21.7766 70.055 21.6427 70 21.5032 70C21.3636 70 21.2298 70.055 21.1311 70.153L18.1541 73.1083C18.0554 73.2063 18 73.3392 18 73.4777C18 73.6162 18.0554 73.7491 18.1541 73.847Z" fill="#5DB947"/>
<path d="M112.154 29.847C112.253 29.945 112.387 30 112.526 30C112.666 30 112.8 29.945 112.898 29.847L115.503 27.261L118.108 29.847C118.207 29.9422 118.34 29.9949 118.478 29.9937C118.616 29.9925 118.748 29.9375 118.846 29.8407C118.943 29.7438 118.999 29.6128 119 29.4758C119.001 29.3388 118.948 29.2069 118.852 29.1083L115.875 26.153C115.777 26.055 115.643 26 115.503 26C115.364 26 115.23 26.055 115.131 26.153L112.154 29.1083C112.055 29.2063 112 29.3392 112 29.4777C112 29.6162 112.055 29.7491 112.154 29.847Z" fill="#5DB947"/>
<path d="M112.154 77.847C112.253 77.945 112.387 78 112.526 78C112.666 78 112.8 77.945 112.898 77.847L115.503 75.261L118.108 77.847C118.207 77.9422 118.34 77.9949 118.478 77.9937C118.616 77.9925 118.748 77.9375 118.846 77.8407C118.943 77.7438 118.999 77.6128 119 77.4758C119.001 77.3388 118.948 77.2069 118.852 77.1083L115.875 74.153C115.777 74.055 115.643 74 115.503 74C115.364 74 115.23 74.055 115.131 74.153L112.154 77.1083C112.055 77.2063 112 77.3392 112 77.4777C112 77.6162 112.055 77.7491 112.154 77.847Z" fill="#5DB947"/>
<path d="M11.1541 27.847C11.2528 27.945 11.3866 28 11.5261 28C11.6657 28 11.7995 27.945 11.8982 27.847L14.5032 25.261L17.1081 27.847C17.2074 27.9422 17.3403 27.9949 17.4783 27.9937C17.6163 27.9925 17.7483 27.9375 17.8459 27.8407C17.9434 27.7438 17.9988 27.6128 18 27.4758C18.0012 27.3388 17.9481 27.2069 17.8523 27.1083L14.8752 24.153C14.7766 24.055 14.6427 24 14.5032 24C14.3636 24 14.2298 24.055 14.1311 24.153L11.1541 27.1083C11.0554 27.2063 11 27.3392 11 27.4777C11 27.6162 11.0554 27.7491 11.1541 27.847Z" fill="#5DB947"/>
<path d="M100.28 68.7015L95.8269 68.7579C92.3599 69.0821 93.0364 72.9718 93.0364 72.9718L93.135 81.8223C93.1632 84.4436 91.0633 86.5999 88.442 86.628L82.0015 86.7408C80.3667 86.769 79.1547 88.2346 79.4365 89.8413L79.4788 93.2941H47.2616C47.1488 89.8553 47.2193 75.2972 47.2616 69.8151C39.2143 63.91 34 54.3969 34 43.6582V43.6018H98.8989V43.6582C98.8989 46.8574 98.4197 49.9438 97.56 52.8609L103.07 64.4313C103.93 66.4326 102.479 68.6875 100.294 68.7015H100.28Z" fill="#C8F4BD"/>
<path d="M97.1522 31.6219L96.9267 31.5938L90.3452 30.6495C89.7674 28.606 88.9359 26.6893 87.8789 24.8854L91.5149 22.1514L92.8537 21.1507C93.8121 20.432 93.8966 19.0509 93.0651 18.2053L86.6246 11.7788C85.934 11.0741 84.8347 11.0178 84.0596 11.5956L81.1141 13.8224L78.5633 15.739C76.7453 14.7384 74.8004 13.921 72.771 13.3995L73.0951 10.9896L73.6307 7.24084C73.7857 6.05701 72.8696 5 71.6858 5H62.6103C61.6237 5 60.7923 5.71876 60.6655 6.67711L60.0736 10.9333L59.7212 13.4983C57.6778 14.0761 55.747 14.9076 53.9572 15.9505L52.1814 13.611L50.2083 10.9898C49.4755 10.0314 48.0943 9.9469 47.2629 10.7784L40.8223 17.2189C40.1318 17.9095 40.0613 19.0088 40.6532 19.7839L41.9498 21.5032L44.7966 25.2802C43.7819 27.0982 42.9786 29.0289 42.443 31.0725L36.5098 30.241L36.2843 30.2128C35.1005 30.0578 34.0435 30.9739 34.0435 32.1576V36.2869H52.0827C52.6323 28.8598 58.8615 22.983 66.4438 22.983C74.026 22.983 80.2411 28.8598 80.7904 36.2869H98.8296V33.5529C98.8296 32.5663 98.0968 31.749 97.1384 31.6221L97.1522 31.6219Z" fill="#C8F4BD"/>
<path d="M93.5363 75.672L93.5359 75.6317L93.5292 75.5929L93.5291 75.5926L93.5291 75.5925L93.529 75.5923L93.529 75.5919L93.5283 75.5878L93.5245 75.5627C93.5212 75.5393 93.5163 75.5029 93.5111 75.4554C93.5007 75.3601 93.4889 75.221 93.4847 75.0523C93.4762 74.7117 93.4987 74.2653 93.6153 73.8184C93.7317 73.3722 93.936 72.947 94.2758 72.6183C94.6066 72.2983 95.0986 72.0377 95.8539 71.9634L100.28 71.9073H100.283L100.294 71.9074L100.297 71.9073C102.845 71.8909 104.529 69.2649 103.53 66.9397L103.526 66.9308L103.522 66.9221L98.0934 55.5238C98.9322 52.6174 99.3989 49.546 99.3989 46.364V46.3076V45.8076H98.8989H34H33.5V46.3076V46.364C33.5 57.1767 38.7067 66.7658 46.7596 72.7715C46.7172 78.4309 46.6504 92.6168 46.7618 96.0163L46.7777 96.4999H47.2616H79.4788H79.9849L79.9787 95.9938L79.9364 92.541L79.9359 92.5005L79.929 92.4607C79.7004 91.1578 80.6813 89.9694 82.0101 89.9465L82.0102 89.9465L88.4474 89.8338C88.4481 89.8338 88.4488 89.8338 88.4494 89.8338C91.3474 89.8016 93.6661 87.418 93.635 84.5227V84.5225L93.5363 75.672Z" fill="white" stroke="black"/>
<path d="M99.3296 36.2587C99.3296 35.022 98.4133 33.9973 97.2141 33.8336L97.2142 33.8316L96.9932 33.804L90.7356 32.9062C90.1937 31.0819 89.4526 29.358 88.5326 27.7253L91.8142 25.2577L91.8153 25.2568L93.1531 24.2571L93.1537 24.2566C94.3597 23.3521 94.4604 21.6169 93.4217 20.5605L93.4183 20.5572L86.9817 14.1347C86.981 14.1339 86.9803 14.1332 86.9796 14.1325C86.1063 13.2436 84.727 13.1802 83.7607 13.9005L83.758 13.9026L80.8138 16.1284L80.8126 16.1293L78.5197 17.8522C76.8815 16.9738 75.1402 16.2417 73.3251 15.7361L73.5901 13.7661L73.5907 13.762L74.1256 10.0174L74.1257 10.0174L74.1264 10.0116C74.3199 8.53413 73.1773 7.20581 71.6858 7.20581H62.6103C61.3803 7.20581 60.3313 8.10291 60.17 9.31577C60.1699 9.31629 60.1699 9.31681 60.1698 9.31733L59.5783 13.5702L59.5782 13.5711L59.2701 15.8143C57.4464 16.3558 55.7132 17.0957 54.0902 18.0046L52.5809 16.0162L52.5796 16.0145L50.6078 13.3949L50.6055 13.3918C49.6902 12.1949 47.956 12.0839 46.9093 13.1306L40.4688 19.5712C39.6007 20.4393 39.5127 21.8187 40.2549 22.7919C40.2552 22.7923 40.2555 22.7927 40.2558 22.7932L41.5505 24.51L41.5506 24.5101L44.2025 28.0285C43.3126 29.6682 42.5904 31.3995 42.0762 33.222L36.5792 32.4517L36.5792 32.4516L36.5718 32.4507L36.3492 32.4229C36.3487 32.4228 36.3482 32.4227 36.3477 32.4227C34.8708 32.2302 33.5435 33.3725 33.5435 34.8634V38.9927V39.4927H34.0435H52.0827H52.5471L52.5813 39.0296C53.1118 31.8622 59.1247 26.1888 66.4438 26.1888C73.7622 26.1888 79.7616 31.8616 80.2917 39.0296L80.326 39.4927H80.7904H98.8296H99.3296V38.9927V36.2587Z" fill="#5DB947" stroke="black"/>
</svg>
