<svg width="128" height="100" viewBox="0 0 128 100" fill="none" xmlns="http://www.w3.org/2000/svg">
<path d="M9.15408 31.847C9.25277 31.945 9.3866 32 9.52614 32C9.66569 32 9.79952 31.945 9.89821 31.847L12.5032 29.261L15.1081 31.847C15.2074 31.9422 15.3403 31.9949 15.4783 31.9937C15.6163 31.9925 15.7483 31.9375 15.8459 31.8407C15.9434 31.7438 15.9988 31.6128 16 31.4758C16.0012 31.3388 15.9481 31.2069 15.8523 31.1083L12.8752 28.153C12.7766 28.055 12.6427 28 12.5032 28C12.3636 28 12.2298 28.055 12.1311 28.153L9.15408 31.1083C9.05542 31.2063 9 31.3392 9 31.4777C9 31.6162 9.05542 31.7491 9.15408 31.847Z" fill="#5DB947"/>
<path d="M22.1541 69.847C22.2528 69.945 22.3866 70 22.5261 70C22.6657 70 22.7995 69.945 22.8982 69.847L25.5032 67.261L28.1081 69.847C28.2074 69.9422 28.3403 69.9949 28.4783 69.9937C28.6163 69.9925 28.7483 69.9375 28.8459 69.8407C28.9434 69.7438 28.9988 69.6128 29 69.4758C29.0012 69.3388 28.9481 69.2069 28.8523 69.1083L25.8752 66.153C25.7766 66.055 25.6427 66 25.5032 66C25.3636 66 25.2298 66.055 25.1311 66.153L22.1541 69.1083C22.0554 69.2063 22 69.3392 22 69.4777C22 69.6162 22.0554 69.7491 22.1541 69.847Z" fill="#5DB947"/>
<path d="M118.154 27.847C118.253 27.945 118.387 28 118.526 28C118.666 28 118.8 27.945 118.898 27.847L121.503 25.261L124.108 27.847C124.207 27.9422 124.34 27.9949 124.478 27.9937C124.616 27.9925 124.748 27.9375 124.846 27.8407C124.943 27.7438 124.999 27.6128 125 27.4758C125.001 27.3388 124.948 27.2069 124.852 27.1083L121.875 24.153C121.777 24.055 121.643 24 121.503 24C121.364 24 121.23 24.055 121.131 24.153L118.154 27.1083C118.055 27.2063 118 27.3392 118 27.4777C118 27.6162 118.055 27.7491 118.154 27.847Z" fill="#5DB947"/>
<path d="M106.154 85.847C106.253 85.945 106.387 86 106.526 86C106.666 86 106.8 85.945 106.898 85.847L109.503 83.261L112.108 85.847C112.207 85.9422 112.34 85.9949 112.478 85.9937C112.616 85.9925 112.748 85.9375 112.846 85.8407C112.943 85.7438 112.999 85.6128 113 85.4758C113.001 85.3388 112.948 85.2069 112.852 85.1083L109.875 82.153C109.777 82.055 109.643 82 109.503 82C109.364 82 109.23 82.055 109.131 82.153L106.154 85.1083C106.055 85.2063 106 85.3392 106 85.4777C106 85.6162 106.055 85.7491 106.154 85.847Z" fill="#5DB947"/>
<path d="M47.6564 48.1968H40.2284C40.0526 49.3539 39.4462 50.4018 38.5307 51.1308C37.6151 51.8597 36.458 52.2158 35.291 52.1276C34.1241 52.0395 33.0336 51.5136 32.2379 50.6555C31.4421 49.7973 31 48.6701 31 47.4997C31 46.3293 31.4421 45.2022 32.2379 44.344C33.0336 43.4858 34.1241 42.96 35.291 42.8718C36.458 42.7837 37.6151 43.1397 38.5307 43.8687C39.4462 44.5976 40.0526 45.6456 40.2284 46.8027H47.6564C47.6423 47.0259 47.6423 47.2628 47.6423 47.4999C47.6423 47.7369 47.6425 47.9736 47.6564 48.1968ZM54.7499 65.2708L49.4821 70.5393C48.5778 69.9029 47.4809 69.5995 46.3782 69.6808C45.2754 69.7621 44.2349 70.2231 43.4337 70.9853C42.8903 71.5252 42.4886 72.191 42.2643 72.9235C42.04 73.656 42 74.4326 42.148 75.1843C42.296 75.936 42.6274 76.6395 43.1126 77.2323C43.5978 77.8251 44.222 78.2889 44.9295 78.5824C45.6371 78.876 46.4062 78.9902 47.1685 78.915C47.9308 78.8397 48.6628 78.5773 49.2993 78.1511C49.9358 77.7249 50.4573 77.1481 50.8173 76.4718C51.1773 75.7956 51.3647 75.0409 51.3629 74.2748C51.3705 73.2807 51.0524 72.3114 50.4571 71.5152L55.7255 66.2472C55.3911 65.9398 55.0567 65.6052 54.7499 65.2708ZM74.1911 80.7699V73.3409C73.9681 73.3551 73.7314 73.3551 73.4943 73.3551C73.2573 73.3551 73.0205 73.3551 72.7975 73.3409V80.7699C71.6405 80.9456 70.5925 81.5521 69.8636 82.4678C69.1347 83.3836 68.7786 84.5409 68.8667 85.7081C68.9548 86.8752 69.4806 87.966 70.3387 88.7619C71.1969 89.5578 72.324 90 73.4943 90C74.6647 90 75.7918 89.5578 76.6499 88.7619C77.5081 87.966 78.0338 86.8752 78.122 85.7081C78.2101 84.5409 77.854 83.3836 77.1251 82.4678C76.3962 81.5521 75.3482 80.9456 74.1911 80.7699ZM92.2394 29.7289L97.5075 24.4604C98.3035 25.0558 99.2727 25.374 100.267 25.3665C101.187 25.3685 102.088 25.0972 102.855 24.5868C103.621 24.0764 104.219 23.35 104.572 22.4996C104.926 21.6491 105.019 20.713 104.839 19.8096C104.66 18.9063 104.217 18.0765 103.566 17.4253C102.915 16.7741 102.085 16.3308 101.182 16.1516C100.279 15.9725 99.3426 16.0655 98.4923 16.4188C97.6419 16.7722 96.9156 17.3701 96.4053 18.1366C95.895 18.9032 95.6237 19.804 95.6257 20.7249C95.6182 21.7191 95.9364 22.6883 96.5317 23.4845L91.2638 28.7532C91.5976 29.06 91.9321 29.3945 92.2394 29.7289ZM46.7227 25.3665C47.7168 25.374 48.6859 25.0558 49.4821 24.4604L54.7499 29.7289C55.0567 29.3945 55.3911 29.06 55.7255 28.7532L50.4577 23.4845C51.0528 22.6882 51.3707 21.719 51.3629 20.7249C51.3663 20.1145 51.2486 19.5095 51.0165 18.9449C50.7845 18.3803 50.4428 17.8673 50.0111 17.4357C49.1249 16.5901 47.947 16.1183 46.7221 16.1183C45.4973 16.1183 44.3194 16.5901 43.4332 17.4357C42.7812 18.0849 42.3369 18.9132 42.1566 19.8155C41.9764 20.7178 42.0683 21.6533 42.4208 22.5032C42.7732 23.3531 43.3703 24.0791 44.1362 24.5889C44.9021 25.0987 45.8027 25.3693 46.7227 25.3665ZM72.7975 14.2298V21.6588C73.0205 21.6446 73.2574 21.6446 73.4943 21.6446C73.7312 21.6446 73.9681 21.6446 74.1911 21.6588V14.2298C75.3482 14.0541 76.3961 13.4476 77.125 12.5319C77.8539 11.6162 78.2099 10.4589 78.1218 9.29178C78.0337 8.12466 77.5079 7.03394 76.6498 6.23808C75.7917 5.44222 74.6646 5 73.4943 5C72.324 5 71.197 5.44222 70.3388 6.23808C69.4807 7.03394 68.955 8.12466 68.8669 9.29178C68.7787 10.4589 69.1348 11.6162 69.8637 12.5319C70.5926 13.4476 71.6405 14.0541 72.7975 14.2298ZM97.5068 70.5393L92.2394 65.2708C91.9328 65.6052 91.5983 65.9398 91.2639 66.2465L96.5318 71.5152C95.9364 72.3114 95.6182 73.2806 95.6257 74.2748C95.6282 75.037 95.8183 75.7868 96.1793 76.4581C96.5402 77.1294 97.0609 77.7014 97.6954 78.1237C98.3298 78.5459 99.0585 78.8055 99.817 78.8793C100.576 78.9531 101.341 78.8389 102.045 78.5469C102.748 78.2549 103.37 77.794 103.853 77.2049C104.337 76.6158 104.668 75.9167 104.817 75.1693C104.967 74.4219 104.93 73.6492 104.71 72.9194C104.49 72.1897 104.093 71.5254 103.555 70.9853C102.754 70.223 101.714 69.7619 100.611 69.6806C99.508 69.5993 98.4111 69.9028 97.5068 70.5393ZM111.359 42.8586C110.248 42.8584 109.173 43.2559 108.33 43.9794C107.486 44.7028 106.93 45.7043 106.76 46.8027H99.3324C99.3465 47.0259 99.3465 47.2628 99.3465 47.4999C99.3465 47.7369 99.3465 47.9736 99.3324 48.1968H106.76C106.893 49.076 107.275 49.8989 107.861 50.5676C108.447 51.2362 109.212 51.7227 110.066 51.9692C110.921 52.2157 111.828 52.2118 112.68 51.9581C113.532 51.7044 114.293 51.2115 114.874 50.5379C115.454 49.8642 115.829 49.0382 115.954 48.1578C116.079 47.2775 115.949 46.3797 115.579 45.5712C115.209 44.7627 114.614 44.0773 113.866 43.5965C113.118 43.1157 112.248 42.8596 111.359 42.8586Z" fill="#C8F4BD"/>
<mask id="path-6-outside-1_163_666" maskUnits="userSpaceOnUse" x="30" y="6.76343" width="85" height="85" fill="black">
<rect fill="white" x="30" y="6.76343" width="85" height="85"/>
<path d="M47.1169 49.5558H39.9295C39.7594 50.6753 39.1726 51.6892 38.2867 52.3945C37.4008 53.0997 36.2812 53.4442 35.152 53.3589C34.0229 53.2736 32.9677 52.7649 32.1978 51.9346C31.4278 51.1043 31 50.0138 31 48.8814C31 47.7491 31.4278 46.6586 32.1978 45.8283C32.9677 44.998 34.0229 44.4893 35.152 44.404C36.2812 44.3187 37.4008 44.6632 38.2867 45.3684C39.1726 46.0737 39.7594 47.0876 39.9295 48.2071H47.1169C47.1032 48.423 47.1032 48.6522 47.1032 48.8816C47.1032 49.1109 47.1035 49.3399 47.1169 49.5558ZM53.9806 66.0748L48.8834 71.172C48.0084 70.5563 46.9471 70.2628 45.8801 70.3414C44.813 70.4201 43.8062 70.8661 43.031 71.6035C42.5051 72.1258 42.1164 72.77 41.8994 73.4787C41.6824 74.1874 41.6437 74.9388 41.7869 75.666C41.9301 76.3933 42.2507 77.0739 42.7202 77.6474C43.1898 78.221 43.7937 78.6696 44.4783 78.9536C45.163 79.2376 45.9072 79.3482 46.6448 79.2754C47.3824 79.2026 48.0906 78.9487 48.7066 78.5363C49.3225 78.124 49.827 77.5659 50.1754 76.9116C50.5237 76.2574 50.7051 75.5272 50.7033 74.786C50.7107 73.8242 50.4029 72.8865 49.8269 72.1162L54.9246 67.0195C54.601 66.722 54.2775 66.3983 53.9806 66.0748ZM72.7921 81.07V73.8826C72.5763 73.8963 72.3472 73.8963 72.1179 73.8963C71.8885 73.8963 71.6594 73.8963 71.4436 73.8826V81.07C70.324 81.24 69.31 81.8268 68.6047 82.7127C67.8994 83.5987 67.5549 84.7184 67.6401 85.8476C67.7254 86.9768 68.2341 88.0321 69.0645 88.8021C69.8948 89.5722 70.9854 90 72.1179 90C73.2503 90 74.3409 89.5722 75.1712 88.8021C76.0016 88.0321 76.5103 86.9768 76.5956 85.8476C76.6808 84.7184 76.3363 83.5987 75.631 82.7127C74.9257 81.8268 73.9117 81.24 72.7921 81.07ZM90.2558 31.6884L95.3532 26.5912C96.1234 27.1672 97.0612 27.4751 98.023 27.4678C98.914 27.4697 99.7855 27.2072 100.527 26.7134C101.269 26.2197 101.847 25.5169 102.189 24.6941C102.531 23.8713 102.621 22.9655 102.448 22.0916C102.274 21.2176 101.845 20.4148 101.215 19.7847C100.585 19.1547 99.7825 18.7259 98.9086 18.5525C98.0346 18.3792 97.1288 18.4692 96.3061 18.811C95.4833 19.1529 94.7805 19.7313 94.2867 20.473C93.7929 21.2146 93.5304 22.0862 93.5324 22.9771C93.5251 23.939 93.8329 24.8767 94.409 25.647L89.3117 30.7444C89.6347 31.0412 89.9584 31.3649 90.2558 31.6884ZM46.2134 27.4678C47.1753 27.475 48.113 27.1672 48.8834 26.5912L53.9806 31.6884C54.2775 31.3649 54.601 31.0412 54.9246 30.7444L49.8274 25.647C50.4032 24.8766 50.7109 23.9389 50.7033 22.9771C50.7066 22.3866 50.5927 21.8012 50.3682 21.2549C50.1436 20.7087 49.813 20.2124 49.3953 19.7949C48.5378 18.9767 47.3981 18.5203 46.2129 18.5203C45.0277 18.5203 43.888 18.9767 43.0304 19.7949C42.3996 20.4229 41.9697 21.2243 41.7952 22.0973C41.6208 22.9702 41.7098 23.8753 42.0508 24.6976C42.3919 25.5199 42.9696 26.2222 43.7107 26.7155C44.4517 27.2087 45.3232 27.4705 46.2134 27.4678ZM71.4436 16.6932V23.8806C71.6594 23.8669 71.8886 23.8669 72.1179 23.8669C72.3471 23.8669 72.5763 23.8669 72.7921 23.8806V16.6932C73.9116 16.5231 74.9256 15.9364 75.6309 15.0505C76.3362 14.1645 76.6807 13.0448 76.5954 11.9157C76.5102 10.7865 76.0015 9.73124 75.1711 8.96125C74.3408 8.19127 73.2502 7.76343 72.1179 7.76343C70.9855 7.76343 69.8949 8.19127 69.0646 8.96125C68.2343 9.73124 67.7255 10.7865 67.6403 11.9157C67.555 13.0448 67.8995 14.1645 68.6048 15.0505C69.3101 15.9364 70.3241 16.5231 71.4436 16.6932ZM95.3525 71.172L90.2558 66.0748C89.9591 66.3983 89.6354 66.722 89.3119 67.0188L94.4091 72.1162C93.833 72.8865 93.5251 73.8242 93.5324 74.786C93.5348 75.5234 93.7187 76.2489 94.068 76.8984C94.4173 77.5478 94.9211 78.1012 95.535 78.5098C96.1489 78.9183 96.854 79.1694 97.5879 79.2408C98.3219 79.3122 99.0621 79.2018 99.7433 78.9193C100.424 78.6368 101.025 78.1908 101.493 77.6209C101.961 77.051 102.282 76.3746 102.426 75.6515C102.571 74.9283 102.535 74.1808 102.322 73.4748C102.109 72.7688 101.726 72.1261 101.205 71.6035C100.43 70.8659 99.4231 70.4199 98.356 70.3412C97.2889 70.2626 96.2275 70.5562 95.3525 71.172ZM108.756 44.3913C107.681 44.391 106.641 44.7756 105.825 45.4756C105.009 46.1755 104.47 47.1444 104.306 48.2071H97.119C97.1327 48.423 97.1327 48.6522 97.1327 48.8816C97.1327 49.1109 97.1327 49.3399 97.119 49.5558H104.306C104.434 50.4065 104.804 51.2026 105.371 51.8495C105.938 52.4965 106.679 52.9671 107.505 53.2056C108.332 53.4441 109.21 53.4404 110.034 53.1949C110.859 52.9495 111.595 52.4725 112.157 51.8208C112.718 51.1691 113.081 50.3699 113.202 49.5182C113.323 48.6664 113.197 47.7979 112.839 47.0156C112.481 46.2334 111.906 45.5703 111.182 45.1051C110.459 44.6399 109.617 44.3922 108.756 44.3913Z"/>
</mask>
<path d="M47.1169 49.5558H39.9295C39.7594 50.6753 39.1726 51.6892 38.2867 52.3945C37.4008 53.0997 36.2812 53.4442 35.152 53.3589C34.0229 53.2736 32.9677 52.7649 32.1978 51.9346C31.4278 51.1043 31 50.0138 31 48.8814C31 47.7491 31.4278 46.6586 32.1978 45.8283C32.9677 44.998 34.0229 44.4893 35.152 44.404C36.2812 44.3187 37.4008 44.6632 38.2867 45.3684C39.1726 46.0737 39.7594 47.0876 39.9295 48.2071H47.1169C47.1032 48.423 47.1032 48.6522 47.1032 48.8816C47.1032 49.1109 47.1035 49.3399 47.1169 49.5558ZM53.9806 66.0748L48.8834 71.172C48.0084 70.5563 46.9471 70.2628 45.8801 70.3414C44.813 70.4201 43.8062 70.8661 43.031 71.6035C42.5051 72.1258 42.1164 72.77 41.8994 73.4787C41.6824 74.1874 41.6437 74.9388 41.7869 75.666C41.9301 76.3933 42.2507 77.0739 42.7202 77.6474C43.1898 78.221 43.7937 78.6696 44.4783 78.9536C45.163 79.2376 45.9072 79.3482 46.6448 79.2754C47.3824 79.2026 48.0906 78.9487 48.7066 78.5363C49.3225 78.124 49.827 77.5659 50.1754 76.9116C50.5237 76.2574 50.7051 75.5272 50.7033 74.786C50.7107 73.8242 50.4029 72.8865 49.8269 72.1162L54.9246 67.0195C54.601 66.722 54.2775 66.3983 53.9806 66.0748ZM72.7921 81.07V73.8826C72.5763 73.8963 72.3472 73.8963 72.1179 73.8963C71.8885 73.8963 71.6594 73.8963 71.4436 73.8826V81.07C70.324 81.24 69.31 81.8268 68.6047 82.7127C67.8994 83.5987 67.5549 84.7184 67.6401 85.8476C67.7254 86.9768 68.2341 88.0321 69.0645 88.8021C69.8948 89.5722 70.9854 90 72.1179 90C73.2503 90 74.3409 89.5722 75.1712 88.8021C76.0016 88.0321 76.5103 86.9768 76.5956 85.8476C76.6808 84.7184 76.3363 83.5987 75.631 82.7127C74.9257 81.8268 73.9117 81.24 72.7921 81.07ZM90.2558 31.6884L95.3532 26.5912C96.1234 27.1672 97.0612 27.4751 98.023 27.4678C98.914 27.4697 99.7855 27.2072 100.527 26.7134C101.269 26.2197 101.847 25.5169 102.189 24.6941C102.531 23.8713 102.621 22.9655 102.448 22.0916C102.274 21.2176 101.845 20.4148 101.215 19.7847C100.585 19.1547 99.7825 18.7259 98.9086 18.5525C98.0346 18.3792 97.1288 18.4692 96.3061 18.811C95.4833 19.1529 94.7805 19.7313 94.2867 20.473C93.7929 21.2146 93.5304 22.0862 93.5324 22.9771C93.5251 23.939 93.8329 24.8767 94.409 25.647L89.3117 30.7444C89.6347 31.0412 89.9584 31.3649 90.2558 31.6884ZM46.2134 27.4678C47.1753 27.475 48.113 27.1672 48.8834 26.5912L53.9806 31.6884C54.2775 31.3649 54.601 31.0412 54.9246 30.7444L49.8274 25.647C50.4032 24.8766 50.7109 23.9389 50.7033 22.9771C50.7066 22.3866 50.5927 21.8012 50.3682 21.2549C50.1436 20.7087 49.813 20.2124 49.3953 19.7949C48.5378 18.9767 47.3981 18.5203 46.2129 18.5203C45.0277 18.5203 43.888 18.9767 43.0304 19.7949C42.3996 20.4229 41.9697 21.2243 41.7952 22.0973C41.6208 22.9702 41.7098 23.8753 42.0508 24.6976C42.3919 25.5199 42.9696 26.2222 43.7107 26.7155C44.4517 27.2087 45.3232 27.4705 46.2134 27.4678ZM71.4436 16.6932V23.8806C71.6594 23.8669 71.8886 23.8669 72.1179 23.8669C72.3471 23.8669 72.5763 23.8669 72.7921 23.8806V16.6932C73.9116 16.5231 74.9256 15.9364 75.6309 15.0505C76.3362 14.1645 76.6807 13.0448 76.5954 11.9157C76.5102 10.7865 76.0015 9.73124 75.1711 8.96125C74.3408 8.19127 73.2502 7.76343 72.1179 7.76343C70.9855 7.76343 69.8949 8.19127 69.0646 8.96125C68.2343 9.73124 67.7255 10.7865 67.6403 11.9157C67.555 13.0448 67.8995 14.1645 68.6048 15.0505C69.3101 15.9364 70.3241 16.5231 71.4436 16.6932ZM95.3525 71.172L90.2558 66.0748C89.9591 66.3983 89.6354 66.722 89.3119 67.0188L94.4091 72.1162C93.833 72.8865 93.5251 73.8242 93.5324 74.786C93.5348 75.5234 93.7187 76.2489 94.068 76.8984C94.4173 77.5478 94.9211 78.1012 95.535 78.5098C96.1489 78.9183 96.854 79.1694 97.5879 79.2408C98.3219 79.3122 99.0621 79.2018 99.7433 78.9193C100.424 78.6368 101.025 78.1908 101.493 77.6209C101.961 77.051 102.282 76.3746 102.426 75.6515C102.571 74.9283 102.535 74.1808 102.322 73.4748C102.109 72.7688 101.726 72.1261 101.205 71.6035C100.43 70.8659 99.4231 70.4199 98.356 70.3412C97.2889 70.2626 96.2275 70.5562 95.3525 71.172ZM108.756 44.3913C107.681 44.391 106.641 44.7756 105.825 45.4756C105.009 46.1755 104.47 47.1444 104.306 48.2071H97.119C97.1327 48.423 97.1327 48.6522 97.1327 48.8816C97.1327 49.1109 97.1327 49.3399 97.119 49.5558H104.306C104.434 50.4065 104.804 51.2026 105.371 51.8495C105.938 52.4965 106.679 52.9671 107.505 53.2056C108.332 53.4441 109.21 53.4404 110.034 53.1949C110.859 52.9495 111.595 52.4725 112.157 51.8208C112.718 51.1691 113.081 50.3699 113.202 49.5182C113.323 48.6664 113.197 47.7979 112.839 47.0156C112.481 46.2334 111.906 45.5703 111.182 45.1051C110.459 44.6399 109.617 44.3922 108.756 44.3913Z" fill="#5DB947"/>
<path d="M47.1169 49.5558H39.9295C39.7594 50.6753 39.1726 51.6892 38.2867 52.3945C37.4008 53.0997 36.2812 53.4442 35.152 53.3589C34.0229 53.2736 32.9677 52.7649 32.1978 51.9346C31.4278 51.1043 31 50.0138 31 48.8814C31 47.7491 31.4278 46.6586 32.1978 45.8283C32.9677 44.998 34.0229 44.4893 35.152 44.404C36.2812 44.3187 37.4008 44.6632 38.2867 45.3684C39.1726 46.0737 39.7594 47.0876 39.9295 48.2071H47.1169C47.1032 48.423 47.1032 48.6522 47.1032 48.8816C47.1032 49.1109 47.1035 49.3399 47.1169 49.5558ZM53.9806 66.0748L48.8834 71.172C48.0084 70.5563 46.9471 70.2628 45.8801 70.3414C44.813 70.4201 43.8062 70.8661 43.031 71.6035C42.5051 72.1258 42.1164 72.77 41.8994 73.4787C41.6824 74.1874 41.6437 74.9388 41.7869 75.666C41.9301 76.3933 42.2507 77.0739 42.7202 77.6474C43.1898 78.221 43.7937 78.6696 44.4783 78.9536C45.163 79.2376 45.9072 79.3482 46.6448 79.2754C47.3824 79.2026 48.0906 78.9487 48.7066 78.5363C49.3225 78.124 49.827 77.5659 50.1754 76.9116C50.5237 76.2574 50.7051 75.5272 50.7033 74.786C50.7107 73.8242 50.4029 72.8865 49.8269 72.1162L54.9246 67.0195C54.601 66.722 54.2775 66.3983 53.9806 66.0748ZM72.7921 81.07V73.8826C72.5763 73.8963 72.3472 73.8963 72.1179 73.8963C71.8885 73.8963 71.6594 73.8963 71.4436 73.8826V81.07C70.324 81.24 69.31 81.8268 68.6047 82.7127C67.8994 83.5987 67.5549 84.7184 67.6401 85.8476C67.7254 86.9768 68.2341 88.0321 69.0645 88.8021C69.8948 89.5722 70.9854 90 72.1179 90C73.2503 90 74.3409 89.5722 75.1712 88.8021C76.0016 88.0321 76.5103 86.9768 76.5956 85.8476C76.6808 84.7184 76.3363 83.5987 75.631 82.7127C74.9257 81.8268 73.9117 81.24 72.7921 81.07ZM90.2558 31.6884L95.3532 26.5912C96.1234 27.1672 97.0612 27.4751 98.023 27.4678C98.914 27.4697 99.7855 27.2072 100.527 26.7134C101.269 26.2197 101.847 25.5169 102.189 24.6941C102.531 23.8713 102.621 22.9655 102.448 22.0916C102.274 21.2176 101.845 20.4148 101.215 19.7847C100.585 19.1547 99.7825 18.7259 98.9086 18.5525C98.0346 18.3792 97.1288 18.4692 96.3061 18.811C95.4833 19.1529 94.7805 19.7313 94.2867 20.473C93.7929 21.2146 93.5304 22.0862 93.5324 22.9771C93.5251 23.939 93.8329 24.8767 94.409 25.647L89.3117 30.7444C89.6347 31.0412 89.9584 31.3649 90.2558 31.6884ZM46.2134 27.4678C47.1753 27.475 48.113 27.1672 48.8834 26.5912L53.9806 31.6884C54.2775 31.3649 54.601 31.0412 54.9246 30.7444L49.8274 25.647C50.4032 24.8766 50.7109 23.9389 50.7033 22.9771C50.7066 22.3866 50.5927 21.8012 50.3682 21.2549C50.1436 20.7087 49.813 20.2124 49.3953 19.7949C48.5378 18.9767 47.3981 18.5203 46.2129 18.5203C45.0277 18.5203 43.888 18.9767 43.0304 19.7949C42.3996 20.4229 41.9697 21.2243 41.7952 22.0973C41.6208 22.9702 41.7098 23.8753 42.0508 24.6976C42.3919 25.5199 42.9696 26.2222 43.7107 26.7155C44.4517 27.2087 45.3232 27.4705 46.2134 27.4678ZM71.4436 16.6932V23.8806C71.6594 23.8669 71.8886 23.8669 72.1179 23.8669C72.3471 23.8669 72.5763 23.8669 72.7921 23.8806V16.6932C73.9116 16.5231 74.9256 15.9364 75.6309 15.0505C76.3362 14.1645 76.6807 13.0448 76.5954 11.9157C76.5102 10.7865 76.0015 9.73124 75.1711 8.96125C74.3408 8.19127 73.2502 7.76343 72.1179 7.76343C70.9855 7.76343 69.8949 8.19127 69.0646 8.96125C68.2343 9.73124 67.7255 10.7865 67.6403 11.9157C67.555 13.0448 67.8995 14.1645 68.6048 15.0505C69.3101 15.9364 70.3241 16.5231 71.4436 16.6932ZM95.3525 71.172L90.2558 66.0748C89.9591 66.3983 89.6354 66.722 89.3119 67.0188L94.4091 72.1162C93.833 72.8865 93.5251 73.8242 93.5324 74.786C93.5348 75.5234 93.7187 76.2489 94.068 76.8984C94.4173 77.5478 94.9211 78.1012 95.535 78.5098C96.1489 78.9183 96.854 79.1694 97.5879 79.2408C98.3219 79.3122 99.0621 79.2018 99.7433 78.9193C100.424 78.6368 101.025 78.1908 101.493 77.6209C101.961 77.051 102.282 76.3746 102.426 75.6515C102.571 74.9283 102.535 74.1808 102.322 73.4748C102.109 72.7688 101.726 72.1261 101.205 71.6035C100.43 70.8659 99.4231 70.4199 98.356 70.3412C97.2889 70.2626 96.2275 70.5562 95.3525 71.172ZM108.756 44.3913C107.681 44.391 106.641 44.7756 105.825 45.4756C105.009 46.1755 104.47 47.1444 104.306 48.2071H97.119C97.1327 48.423 97.1327 48.6522 97.1327 48.8816C97.1327 49.1109 97.1327 49.3399 97.119 49.5558H104.306C104.434 50.4065 104.804 51.2026 105.371 51.8495C105.938 52.4965 106.679 52.9671 107.505 53.2056C108.332 53.4441 109.21 53.4404 110.034 53.1949C110.859 52.9495 111.595 52.4725 112.157 51.8208C112.718 51.1691 113.081 50.3699 113.202 49.5182C113.323 48.6664 113.197 47.7979 112.839 47.0156C112.481 46.2334 111.906 45.5703 111.182 45.1051C110.459 44.6399 109.617 44.3922 108.756 44.3913Z" stroke="black" stroke-width="2" mask="url(#path-6-outside-1_163_666)"/>
<path d="M80.0189 44.2473H79.7525V48.776H80.0189C80.6166 48.7716 81.1883 48.5311 81.6093 48.1069C82.0304 47.6827 82.2667 47.1093 82.2667 46.5116C82.2667 45.914 82.0304 45.3405 81.6093 44.9163C81.1883 44.4922 80.6166 44.2517 80.0189 44.2473ZM56.1778 46.5116C56.1777 46.6468 56.2042 46.7807 56.2559 46.9056C56.3075 47.0305 56.3834 47.144 56.479 47.2396C56.5746 47.3352 56.6881 47.4111 56.813 47.4627C56.9379 47.5144 57.0718 47.5409 57.207 47.5408H57.2554L57.207 45.4823C57.0718 45.4822 56.938 45.5088 56.813 45.5605C56.6881 45.6122 56.5746 45.688 56.479 45.7836C56.3834 45.8792 56.3076 45.9927 56.2559 46.1176C56.2042 46.2425 56.1777 46.3764 56.1778 46.5116ZM94.0645 48.2068C94.0645 52.4096 92.8182 56.5181 90.4832 60.0126C88.1482 63.5072 84.8294 66.2309 80.9465 67.8392C77.0636 69.4476 72.7909 69.8684 68.6688 69.0485C64.5467 68.2285 60.7603 66.2047 57.7884 63.2328C54.8166 60.2609 52.7927 56.4745 51.9728 52.3524C51.1528 48.2304 51.5737 43.9577 53.182 40.0748C54.7904 36.1918 57.5141 32.873 61.0086 30.5381C64.5031 28.2031 68.6116 26.9568 72.8145 26.9568C78.4487 26.962 83.8507 29.2025 87.8348 33.1865C91.8188 37.1705 94.0593 42.5725 94.0645 48.2068ZM84.7531 43.3755C84.8123 43.4427 84.8849 43.4968 84.9662 43.5344C85.0475 43.5719 85.1358 43.5921 85.2253 43.5936C85.3674 43.5911 85.5042 43.5398 85.6129 43.4483L88.3251 41.172C88.4471 41.067 88.524 40.9191 88.5398 40.759C88.5555 40.5989 88.509 40.4388 88.4098 40.3121C88.3051 40.189 88.156 40.1124 87.9949 40.0988C87.8339 40.0853 87.6741 40.1359 87.5502 40.2397L84.8379 42.5158C84.7132 42.6189 84.6343 42.7671 84.6184 42.9282C84.6025 43.0892 84.6509 43.25 84.7531 43.3755ZM83.4939 46.5116C83.4918 45.5906 83.1251 44.7079 82.4738 44.0567C81.8226 43.4054 80.9399 43.0386 80.0189 43.0366H79.7525V35.7352C79.755 35.6281 79.7286 35.5222 79.6759 35.4288C79.6233 35.3355 79.5464 35.258 79.4534 35.2047C79.3604 35.1514 79.2547 35.1241 79.1476 35.1259C79.0404 35.1276 78.9356 35.1582 78.8444 35.2145L67.2448 42.1888H59.2776C58.7434 42.1891 58.2311 42.4006 57.8522 42.7772C57.4734 43.1538 57.2589 43.6649 57.2554 44.199V44.2716H57.207C56.9094 44.2662 56.6137 44.3202 56.3372 44.4303C56.0607 44.5405 55.8089 44.7046 55.5966 44.9132C55.3842 45.1217 55.2155 45.3705 55.1004 45.6449C54.9852 45.9194 54.9259 46.2141 54.9259 46.5117C54.9259 46.8093 54.9852 47.104 55.1004 47.3785C55.2155 47.6529 55.3842 47.9017 55.5966 48.1102C55.8089 48.3188 56.0607 48.4829 56.3372 48.5931C56.6137 48.7032 56.9094 48.7572 57.207 48.7518H57.2554V48.8243C57.2589 49.3584 57.4734 49.8695 57.8523 50.246C58.2311 50.6226 58.7434 50.8341 59.2776 50.8344H59.3743V58.0264C59.3796 58.8884 59.7258 59.7133 60.3372 60.3209C60.9486 60.9286 61.7755 61.2696 62.6375 61.2696C63.4995 61.2696 64.3265 60.9286 64.9379 60.3209C65.5493 59.7133 65.8955 58.8884 65.9008 58.0264V50.8344H67.2448L78.8444 57.8086C78.9354 57.8645 79.0402 57.8939 79.147 57.8934C79.2523 57.894 79.3563 57.869 79.4498 57.8206C79.5431 57.7668 79.6204 57.6891 79.6736 57.5955C79.7268 57.5019 79.7541 57.3957 79.7525 57.288V49.9867H80.0189C80.9399 49.9846 81.8226 49.6178 82.4739 48.9665C83.1251 48.3153 83.4919 47.4326 83.4939 46.5116ZM88.3251 51.8513L85.6129 49.5749C85.5516 49.524 85.481 49.4856 85.4049 49.462C85.3289 49.4384 85.2489 49.43 85.1696 49.4373C85.0903 49.4446 85.0133 49.4674 84.9428 49.5045C84.8723 49.5415 84.8098 49.5921 84.7589 49.6533C84.708 49.7146 84.6696 49.7852 84.646 49.8613C84.6224 49.9373 84.614 50.0173 84.6213 50.0966C84.6285 50.1758 84.6514 50.2529 84.6884 50.3234C84.7255 50.3939 84.7761 50.4564 84.8373 50.5073L87.5496 52.7835C87.6571 52.8769 87.7946 52.9285 87.937 52.9288C88.0263 52.9261 88.1141 52.9054 88.1953 52.868C88.2764 52.8306 88.3492 52.7772 88.4092 52.711C88.5087 52.5845 88.5555 52.4245 88.5399 52.2643C88.5242 52.1041 88.4473 51.9561 88.3251 51.8513ZM90.662 46.5116C90.6615 46.3512 90.5976 46.1975 90.4842 46.0841C90.3708 45.9707 90.2171 45.9067 90.0567 45.9063H86.5089C86.4287 45.9051 86.349 45.92 86.2746 45.9499C86.2001 45.9798 86.1324 46.0242 86.0753 46.0805C86.0181 46.1368 85.9728 46.2039 85.9418 46.278C85.9108 46.352 85.8949 46.4314 85.8949 46.5116C85.8949 46.5919 85.9108 46.6713 85.9418 46.7453C85.9728 46.8193 86.0181 46.8864 86.0753 46.9428C86.1324 46.9991 86.2001 47.0435 86.2746 47.0734C86.349 47.1033 86.4287 47.1181 86.5089 47.117H90.0567C90.2171 47.1165 90.3708 47.0525 90.4842 46.9391C90.5976 46.8257 90.6615 46.672 90.662 46.5116ZM60.5852 58.0264C60.5893 58.568 60.8074 59.0859 61.1919 59.4674C61.5763 59.8489 62.096 60.063 62.6375 60.063C63.1791 60.063 63.6988 59.8489 64.0832 59.4674C64.4677 59.0859 64.6857 58.568 64.6899 58.0264V50.8344H60.5852V58.0264ZM68.0197 49.8894L78.5417 56.2221V36.8007L68.0197 43.1336V49.8894ZM58.4662 44.1988V48.824C58.4688 49.0373 58.5555 49.2409 58.7074 49.3906C58.8594 49.5402 59.0643 49.6238 59.2776 49.6232H66.8087V43.3998H59.2776C59.0643 43.3992 58.8594 43.4828 58.7074 43.6324C58.5555 43.7821 58.4688 43.9855 58.4662 44.1988Z" fill="#C8F4BD"/>
<mask id="path-8-outside-2_163_666" maskUnits="userSpaceOnUse" x="49.1934" y="27.677" width="44" height="44" fill="black">
<rect fill="white" x="49.1934" y="27.677" width="44" height="44"/>
<path d="M77.7299 45.4097H77.4721V49.7924H77.7299C78.3083 49.7881 78.8616 49.5554 79.269 49.1449C79.6765 48.7344 79.9052 48.1794 79.9052 47.601C79.9052 47.0226 79.6765 46.4677 79.269 46.0572C78.8616 45.6467 78.3083 45.414 77.7299 45.4097ZM54.6579 47.601C54.6577 47.7318 54.6834 47.8614 54.7334 47.9823C54.7834 48.1032 54.8568 48.2131 54.9493 48.3056C55.0418 48.3981 55.1517 48.4715 55.2726 48.5215C55.3935 48.5715 55.5231 48.5971 55.6539 48.597H55.7007L55.6539 46.6049C55.5231 46.6048 55.3935 46.6305 55.2726 46.6806C55.1517 46.7306 55.0419 46.804 54.9494 46.8965C54.8569 46.989 54.7835 47.0988 54.7335 47.2197C54.6835 47.3406 54.6578 47.4702 54.6579 47.601ZM91.3224 49.2415C91.3224 53.3088 90.1163 57.2847 87.8566 60.6665C85.597 64.0484 82.3853 66.6842 78.6276 68.2406C74.8699 69.7971 70.7351 70.2044 66.7459 69.4109C62.7568 68.6174 59.0926 66.6588 56.2166 63.7828C53.3406 60.9068 51.382 57.2426 50.5885 53.2534C49.795 49.2643 50.2023 45.1295 51.7587 41.3718C53.3152 37.6141 55.951 34.4024 59.3329 32.1427C62.7147 29.8831 66.6906 28.677 70.7579 28.677C76.2104 28.682 81.4381 30.8502 85.2936 34.7057C89.1492 38.5613 91.3174 43.789 91.3224 49.2415ZM82.3114 44.566C82.3687 44.6311 82.4389 44.6835 82.5176 44.7198C82.5963 44.7562 82.6817 44.7757 82.7684 44.7771C82.9059 44.7747 83.0383 44.7251 83.1434 44.6366L85.7682 42.4336C85.8863 42.3321 85.9607 42.1889 85.9759 42.034C85.9912 41.879 85.9461 41.7241 85.8502 41.6015C85.7488 41.4824 85.6045 41.4082 85.4487 41.3951C85.2928 41.382 85.1381 41.431 85.0183 41.5314L82.3935 43.7342C82.2728 43.8339 82.1964 43.9773 82.181 44.1332C82.1656 44.289 82.2125 44.4446 82.3114 44.566ZM81.0929 47.601C81.0908 46.7097 80.7359 45.8555 80.1057 45.2253C79.4754 44.595 78.6212 44.2401 77.7299 44.2381H77.4721V37.1723C77.4746 37.0685 77.4489 36.9661 77.398 36.8758C77.347 36.7854 77.2726 36.7105 77.1826 36.6589C77.0927 36.6073 76.9904 36.5809 76.8867 36.5826C76.783 36.5842 76.6816 36.6139 76.5933 36.6683L65.3679 43.4176H57.6577C57.1408 43.4179 56.6449 43.6226 56.2783 43.9871C55.9117 44.3515 55.7041 44.8461 55.7007 45.363V45.4333H55.6539C55.3659 45.4281 55.0798 45.4803 54.8122 45.5869C54.5446 45.6935 54.3009 45.8523 54.0954 46.0541C53.8899 46.2559 53.7266 46.4967 53.6152 46.7623C53.5038 47.0279 53.4464 47.3131 53.4464 47.6011C53.4464 47.8891 53.5038 48.1743 53.6152 48.4399C53.7266 48.7055 53.8899 48.9463 54.0954 49.1481C54.3009 49.3499 54.5446 49.5087 54.8122 49.6153C55.0798 49.7219 55.3659 49.7741 55.6539 49.7689H55.7007V49.8391C55.7041 50.356 55.9117 50.8506 56.2783 51.215C56.6449 51.5794 57.1408 51.7841 57.6577 51.7843H57.7513V58.7444C57.7564 59.5785 58.0914 60.3768 58.6831 60.9649C59.2747 61.5529 60.0751 61.883 60.9093 61.883C61.7435 61.883 62.5438 61.5529 63.1354 60.9649C63.7271 60.3768 64.0621 59.5785 64.0672 58.7444V51.7843H65.3679L76.5933 58.5336C76.6814 58.5877 76.7828 58.6161 76.8861 58.6157C76.9881 58.6162 77.0886 58.592 77.1792 58.5452C77.2695 58.4932 77.3443 58.418 77.3958 58.3273C77.4473 58.2367 77.4736 58.134 77.4721 58.0298V50.964H77.7299C78.6212 50.962 79.4755 50.607 80.1057 49.9768C80.7359 49.3465 81.0909 48.4923 81.0929 47.601ZM85.7682 52.7685L83.1434 50.5655C83.0842 50.5162 83.0158 50.4791 82.9422 50.4563C82.8686 50.4334 82.7912 50.4253 82.7145 50.4323C82.6378 50.4394 82.5632 50.4615 82.495 50.4973C82.4268 50.5332 82.3663 50.5822 82.317 50.6414C82.2677 50.7007 82.2306 50.769 82.2078 50.8426C82.1849 50.9162 82.1768 50.9936 82.1838 51.0703C82.1909 51.1471 82.213 51.2217 82.2488 51.2899C82.2847 51.3581 82.3337 51.4185 82.3929 51.4678L85.0177 53.6706C85.1217 53.761 85.2548 53.8109 85.3926 53.8112C85.479 53.8086 85.564 53.7886 85.6425 53.7524C85.7211 53.7162 85.7915 53.6645 85.8496 53.6005C85.9459 53.478 85.9912 53.3231 85.976 53.1681C85.9608 53.0131 85.8864 52.8699 85.7682 52.7685ZM88.0296 47.601C88.0292 47.4458 87.9674 47.297 87.8576 47.1873C87.7478 47.0775 87.5991 47.0157 87.4439 47.0152H84.0106C83.9329 47.0141 83.8559 47.0285 83.7838 47.0574C83.7118 47.0863 83.6462 47.1293 83.5909 47.1838C83.5356 47.2383 83.4917 47.3033 83.4617 47.3749C83.4318 47.4465 83.4163 47.5234 83.4163 47.601C83.4163 47.6787 83.4318 47.7556 83.4617 47.8272C83.4917 47.8988 83.5356 47.9638 83.5909 48.0183C83.6462 48.0728 83.7118 48.1157 83.7838 48.1447C83.8559 48.1736 83.9329 48.188 84.0106 48.1869H87.4439C87.5991 48.1864 87.7479 48.1245 87.8576 48.0147C87.9674 47.905 88.0292 47.7562 88.0296 47.601ZM58.9231 58.7444C58.9271 59.2685 59.1382 59.7697 59.5102 60.1389C59.8823 60.5081 60.3851 60.7152 60.9093 60.7152C61.4334 60.7152 61.9363 60.5081 62.3083 60.1389C62.6803 59.7697 62.8914 59.2685 62.8954 58.7444V51.7843H58.9231V58.7444ZM66.1178 50.8699L76.3004 56.9983V38.2033L66.1178 44.3319V50.8699ZM56.8725 45.3628V49.8388C56.875 50.0452 56.9589 50.2423 57.1059 50.3871C57.253 50.532 57.4513 50.6129 57.6577 50.6122H64.9459V44.5896H57.6577C57.4513 44.589 57.253 44.6699 57.1059 44.8147C56.9589 44.9596 56.875 45.1564 56.8725 45.3628Z"/>
</mask>
<path d="M77.7299 45.4097H77.4721V49.7924H77.7299C78.3083 49.7881 78.8616 49.5554 79.269 49.1449C79.6765 48.7344 79.9052 48.1794 79.9052 47.601C79.9052 47.0226 79.6765 46.4677 79.269 46.0572C78.8616 45.6467 78.3083 45.414 77.7299 45.4097ZM54.6579 47.601C54.6577 47.7318 54.6834 47.8614 54.7334 47.9823C54.7834 48.1032 54.8568 48.2131 54.9493 48.3056C55.0418 48.3981 55.1517 48.4715 55.2726 48.5215C55.3935 48.5715 55.5231 48.5971 55.6539 48.597H55.7007L55.6539 46.6049C55.5231 46.6048 55.3935 46.6305 55.2726 46.6806C55.1517 46.7306 55.0419 46.804 54.9494 46.8965C54.8569 46.989 54.7835 47.0988 54.7335 47.2197C54.6835 47.3406 54.6578 47.4702 54.6579 47.601ZM91.3224 49.2415C91.3224 53.3088 90.1163 57.2847 87.8566 60.6665C85.597 64.0484 82.3853 66.6842 78.6276 68.2406C74.8699 69.7971 70.7351 70.2044 66.7459 69.4109C62.7568 68.6174 59.0926 66.6588 56.2166 63.7828C53.3406 60.9068 51.382 57.2426 50.5885 53.2534C49.795 49.2643 50.2023 45.1295 51.7587 41.3718C53.3152 37.6141 55.951 34.4024 59.3329 32.1427C62.7147 29.8831 66.6906 28.677 70.7579 28.677C76.2104 28.682 81.4381 30.8502 85.2936 34.7057C89.1492 38.5613 91.3174 43.789 91.3224 49.2415ZM82.3114 44.566C82.3687 44.6311 82.4389 44.6835 82.5176 44.7198C82.5963 44.7562 82.6817 44.7757 82.7684 44.7771C82.9059 44.7747 83.0383 44.7251 83.1434 44.6366L85.7682 42.4336C85.8863 42.3321 85.9607 42.1889 85.9759 42.034C85.9912 41.879 85.9461 41.7241 85.8502 41.6015C85.7488 41.4824 85.6045 41.4082 85.4487 41.3951C85.2928 41.382 85.1381 41.431 85.0183 41.5314L82.3935 43.7342C82.2728 43.8339 82.1964 43.9773 82.181 44.1332C82.1656 44.289 82.2125 44.4446 82.3114 44.566ZM81.0929 47.601C81.0908 46.7097 80.7359 45.8555 80.1057 45.2253C79.4754 44.595 78.6212 44.2401 77.7299 44.2381H77.4721V37.1723C77.4746 37.0685 77.4489 36.9661 77.398 36.8758C77.347 36.7854 77.2726 36.7105 77.1826 36.6589C77.0927 36.6073 76.9904 36.5809 76.8867 36.5826C76.783 36.5842 76.6816 36.6139 76.5933 36.6683L65.3679 43.4176H57.6577C57.1408 43.4179 56.6449 43.6226 56.2783 43.9871C55.9117 44.3515 55.7041 44.8461 55.7007 45.363V45.4333H55.6539C55.3659 45.4281 55.0798 45.4803 54.8122 45.5869C54.5446 45.6935 54.3009 45.8523 54.0954 46.0541C53.8899 46.2559 53.7266 46.4967 53.6152 46.7623C53.5038 47.0279 53.4464 47.3131 53.4464 47.6011C53.4464 47.8891 53.5038 48.1743 53.6152 48.4399C53.7266 48.7055 53.8899 48.9463 54.0954 49.1481C54.3009 49.3499 54.5446 49.5087 54.8122 49.6153C55.0798 49.7219 55.3659 49.7741 55.6539 49.7689H55.7007V49.8391C55.7041 50.356 55.9117 50.8506 56.2783 51.215C56.6449 51.5794 57.1408 51.7841 57.6577 51.7843H57.7513V58.7444C57.7564 59.5785 58.0914 60.3768 58.6831 60.9649C59.2747 61.5529 60.0751 61.883 60.9093 61.883C61.7435 61.883 62.5438 61.5529 63.1354 60.9649C63.7271 60.3768 64.0621 59.5785 64.0672 58.7444V51.7843H65.3679L76.5933 58.5336C76.6814 58.5877 76.7828 58.6161 76.8861 58.6157C76.9881 58.6162 77.0886 58.592 77.1792 58.5452C77.2695 58.4932 77.3443 58.418 77.3958 58.3273C77.4473 58.2367 77.4736 58.134 77.4721 58.0298V50.964H77.7299C78.6212 50.962 79.4755 50.607 80.1057 49.9768C80.7359 49.3465 81.0909 48.4923 81.0929 47.601ZM85.7682 52.7685L83.1434 50.5655C83.0842 50.5162 83.0158 50.4791 82.9422 50.4563C82.8686 50.4334 82.7912 50.4253 82.7145 50.4323C82.6378 50.4394 82.5632 50.4615 82.495 50.4973C82.4268 50.5332 82.3663 50.5822 82.317 50.6414C82.2677 50.7007 82.2306 50.769 82.2078 50.8426C82.1849 50.9162 82.1768 50.9936 82.1838 51.0703C82.1909 51.1471 82.213 51.2217 82.2488 51.2899C82.2847 51.3581 82.3337 51.4185 82.3929 51.4678L85.0177 53.6706C85.1217 53.761 85.2548 53.8109 85.3926 53.8112C85.479 53.8086 85.564 53.7886 85.6425 53.7524C85.7211 53.7162 85.7915 53.6645 85.8496 53.6005C85.9459 53.478 85.9912 53.3231 85.976 53.1681C85.9608 53.0131 85.8864 52.8699 85.7682 52.7685ZM88.0296 47.601C88.0292 47.4458 87.9674 47.297 87.8576 47.1873C87.7478 47.0775 87.5991 47.0157 87.4439 47.0152H84.0106C83.9329 47.0141 83.8559 47.0285 83.7838 47.0574C83.7118 47.0863 83.6462 47.1293 83.5909 47.1838C83.5356 47.2383 83.4917 47.3033 83.4617 47.3749C83.4318 47.4465 83.4163 47.5234 83.4163 47.601C83.4163 47.6787 83.4318 47.7556 83.4617 47.8272C83.4917 47.8988 83.5356 47.9638 83.5909 48.0183C83.6462 48.0728 83.7118 48.1157 83.7838 48.1447C83.8559 48.1736 83.9329 48.188 84.0106 48.1869H87.4439C87.5991 48.1864 87.7479 48.1245 87.8576 48.0147C87.9674 47.905 88.0292 47.7562 88.0296 47.601ZM58.9231 58.7444C58.9271 59.2685 59.1382 59.7697 59.5102 60.1389C59.8823 60.5081 60.3851 60.7152 60.9093 60.7152C61.4334 60.7152 61.9363 60.5081 62.3083 60.1389C62.6803 59.7697 62.8914 59.2685 62.8954 58.7444V51.7843H58.9231V58.7444ZM66.1178 50.8699L76.3004 56.9983V38.2033L66.1178 44.3319V50.8699ZM56.8725 45.3628V49.8388C56.875 50.0452 56.9589 50.2423 57.1059 50.3871C57.253 50.532 57.4513 50.6129 57.6577 50.6122H64.9459V44.5896H57.6577C57.4513 44.589 57.253 44.6699 57.1059 44.8147C56.9589 44.9596 56.875 45.1564 56.8725 45.3628Z" fill="white"/>
<path d="M77.7299 45.4097H77.4721V49.7924H77.7299C78.3083 49.7881 78.8616 49.5554 79.269 49.1449C79.6765 48.7344 79.9052 48.1794 79.9052 47.601C79.9052 47.0226 79.6765 46.4677 79.269 46.0572C78.8616 45.6467 78.3083 45.414 77.7299 45.4097ZM54.6579 47.601C54.6577 47.7318 54.6834 47.8614 54.7334 47.9823C54.7834 48.1032 54.8568 48.2131 54.9493 48.3056C55.0418 48.3981 55.1517 48.4715 55.2726 48.5215C55.3935 48.5715 55.5231 48.5971 55.6539 48.597H55.7007L55.6539 46.6049C55.5231 46.6048 55.3935 46.6305 55.2726 46.6806C55.1517 46.7306 55.0419 46.804 54.9494 46.8965C54.8569 46.989 54.7835 47.0988 54.7335 47.2197C54.6835 47.3406 54.6578 47.4702 54.6579 47.601ZM91.3224 49.2415C91.3224 53.3088 90.1163 57.2847 87.8566 60.6665C85.597 64.0484 82.3853 66.6842 78.6276 68.2406C74.8699 69.7971 70.7351 70.2044 66.7459 69.4109C62.7568 68.6174 59.0926 66.6588 56.2166 63.7828C53.3406 60.9068 51.382 57.2426 50.5885 53.2534C49.795 49.2643 50.2023 45.1295 51.7587 41.3718C53.3152 37.6141 55.951 34.4024 59.3329 32.1427C62.7147 29.8831 66.6906 28.677 70.7579 28.677C76.2104 28.682 81.4381 30.8502 85.2936 34.7057C89.1492 38.5613 91.3174 43.789 91.3224 49.2415ZM82.3114 44.566C82.3687 44.6311 82.4389 44.6835 82.5176 44.7198C82.5963 44.7562 82.6817 44.7757 82.7684 44.7771C82.9059 44.7747 83.0383 44.7251 83.1434 44.6366L85.7682 42.4336C85.8863 42.3321 85.9607 42.1889 85.9759 42.034C85.9912 41.879 85.9461 41.7241 85.8502 41.6015C85.7488 41.4824 85.6045 41.4082 85.4487 41.3951C85.2928 41.382 85.1381 41.431 85.0183 41.5314L82.3935 43.7342C82.2728 43.8339 82.1964 43.9773 82.181 44.1332C82.1656 44.289 82.2125 44.4446 82.3114 44.566ZM81.0929 47.601C81.0908 46.7097 80.7359 45.8555 80.1057 45.2253C79.4754 44.595 78.6212 44.2401 77.7299 44.2381H77.4721V37.1723C77.4746 37.0685 77.4489 36.9661 77.398 36.8758C77.347 36.7854 77.2726 36.7105 77.1826 36.6589C77.0927 36.6073 76.9904 36.5809 76.8867 36.5826C76.783 36.5842 76.6816 36.6139 76.5933 36.6683L65.3679 43.4176H57.6577C57.1408 43.4179 56.6449 43.6226 56.2783 43.9871C55.9117 44.3515 55.7041 44.8461 55.7007 45.363V45.4333H55.6539C55.3659 45.4281 55.0798 45.4803 54.8122 45.5869C54.5446 45.6935 54.3009 45.8523 54.0954 46.0541C53.8899 46.2559 53.7266 46.4967 53.6152 46.7623C53.5038 47.0279 53.4464 47.3131 53.4464 47.6011C53.4464 47.8891 53.5038 48.1743 53.6152 48.4399C53.7266 48.7055 53.8899 48.9463 54.0954 49.1481C54.3009 49.3499 54.5446 49.5087 54.8122 49.6153C55.0798 49.7219 55.3659 49.7741 55.6539 49.7689H55.7007V49.8391C55.7041 50.356 55.9117 50.8506 56.2783 51.215C56.6449 51.5794 57.1408 51.7841 57.6577 51.7843H57.7513V58.7444C57.7564 59.5785 58.0914 60.3768 58.6831 60.9649C59.2747 61.5529 60.0751 61.883 60.9093 61.883C61.7435 61.883 62.5438 61.5529 63.1354 60.9649C63.7271 60.3768 64.0621 59.5785 64.0672 58.7444V51.7843H65.3679L76.5933 58.5336C76.6814 58.5877 76.7828 58.6161 76.8861 58.6157C76.9881 58.6162 77.0886 58.592 77.1792 58.5452C77.2695 58.4932 77.3443 58.418 77.3958 58.3273C77.4473 58.2367 77.4736 58.134 77.4721 58.0298V50.964H77.7299C78.6212 50.962 79.4755 50.607 80.1057 49.9768C80.7359 49.3465 81.0909 48.4923 81.0929 47.601ZM85.7682 52.7685L83.1434 50.5655C83.0842 50.5162 83.0158 50.4791 82.9422 50.4563C82.8686 50.4334 82.7912 50.4253 82.7145 50.4323C82.6378 50.4394 82.5632 50.4615 82.495 50.4973C82.4268 50.5332 82.3663 50.5822 82.317 50.6414C82.2677 50.7007 82.2306 50.769 82.2078 50.8426C82.1849 50.9162 82.1768 50.9936 82.1838 51.0703C82.1909 51.1471 82.213 51.2217 82.2488 51.2899C82.2847 51.3581 82.3337 51.4185 82.3929 51.4678L85.0177 53.6706C85.1217 53.761 85.2548 53.8109 85.3926 53.8112C85.479 53.8086 85.564 53.7886 85.6425 53.7524C85.7211 53.7162 85.7915 53.6645 85.8496 53.6005C85.9459 53.478 85.9912 53.3231 85.976 53.1681C85.9608 53.0131 85.8864 52.8699 85.7682 52.7685ZM88.0296 47.601C88.0292 47.4458 87.9674 47.297 87.8576 47.1873C87.7478 47.0775 87.5991 47.0157 87.4439 47.0152H84.0106C83.9329 47.0141 83.8559 47.0285 83.7838 47.0574C83.7118 47.0863 83.6462 47.1293 83.5909 47.1838C83.5356 47.2383 83.4917 47.3033 83.4617 47.3749C83.4318 47.4465 83.4163 47.5234 83.4163 47.601C83.4163 47.6787 83.4318 47.7556 83.4617 47.8272C83.4917 47.8988 83.5356 47.9638 83.5909 48.0183C83.6462 48.0728 83.7118 48.1157 83.7838 48.1447C83.8559 48.1736 83.9329 48.188 84.0106 48.1869H87.4439C87.5991 48.1864 87.7479 48.1245 87.8576 48.0147C87.9674 47.905 88.0292 47.7562 88.0296 47.601ZM58.9231 58.7444C58.9271 59.2685 59.1382 59.7697 59.5102 60.1389C59.8823 60.5081 60.3851 60.7152 60.9093 60.7152C61.4334 60.7152 61.9363 60.5081 62.3083 60.1389C62.6803 59.7697 62.8914 59.2685 62.8954 58.7444V51.7843H58.9231V58.7444ZM66.1178 50.8699L76.3004 56.9983V38.2033L66.1178 44.3319V50.8699ZM56.8725 45.3628V49.8388C56.875 50.0452 56.9589 50.2423 57.1059 50.3871C57.253 50.532 57.4513 50.6129 57.6577 50.6122H64.9459V44.5896H57.6577C57.4513 44.589 57.253 44.6699 57.1059 44.8147C56.9589 44.9596 56.875 45.1564 56.8725 45.3628Z" stroke="black" stroke-width="2" mask="url(#path-8-outside-2_163_666)"/>
</svg>
