<?xml version="1.0" encoding="UTF-8"?>
<svg id="Layer_2" data-name="Layer 2" xmlns="http://www.w3.org/2000/svg" width="94.203" height="41.6" viewBox="0 0 94.203 41.6">
  <defs>
    <style>
      .cls-1 {
        fill: #adadad;
      }
    </style>
  </defs>
  <g id="Layer_1-2" data-name="Layer 1">
    <path class="cls-1" d="m31.68,18.805c-1.276,0-2.341.368-3.196,1.102-.854.734-1.39,1.733-1.606,2.997h9.178c-.171-1.206-.633-2.18-1.384-2.921-.798-.784-1.795-1.177-2.991-1.177Zm62.075.149l-9.996-16.773c-.691-1.339-2.071-2.18-3.576-2.18H4.024C1.802,0,0,1.802,0,4.025v33.548c0,2.223,1.802,4.027,4.024,4.027h76.158c1.506,0,2.885-.841,3.576-2.18l9.996-16.774c.598-1.159.598-2.535,0-3.694Zm-70.833-2.034l-7.707,15.846c-.146.302-.576.303-.724.001l-7.754-15.846c-.087-.179.042-.387.241-.387h2.974c.105,0,.2.061.244.156l4.659,10.096,4.61-10.095c.044-.095.139-.157.244-.157h2.971c.198,0,.328.208.241.386Zm16.219,8.098c-.005.145-.124.26-.268.26h-12.131c0,1.548.45,2.834,1.35,3.859.957,1.07,2.199,1.605,3.726,1.605,1.925,0,3.799-1.255,4.769-2.897.076-.128.239-.175.368-.1l2.005,1.167c.131.077.175.249.093.378-1.793,2.813-4.324,4.219-7.595,4.219-2.393,0-4.324-.865-5.794-2.596-1.436-1.685-2.154-3.944-2.154-6.78,0-1.001.217-2.054.65-3.158.797-2.039,2.136-3.456,4.016-4.253.991-.422,2.085-.631,3.281-.631,3.441,0,5.754,1.445,6.939,4.338.558,1.354.814,2.646.769,3.876l-.025.714Zm16.842,7.658c0,.149-.12.27-.268.27h-2.608c-.148,0-.268-.121-.268-.27v-9.635c0-1.401-.245-2.42-.735-3.058-.558-.738-1.516-1.109-2.871-1.109-2.7,0-4.05,1.703-4.05,5.106v8.696c0,.149-.12.27-.268.27h-2.591c-.148,0-.268-.121-.268-.27v-15.873c0-.148.12-.269.268-.269h2.591c.148,0,.268.121.268.269v2.071c1.208-1.855,2.9-2.783,5.076-2.783,3.817,0,5.725,2.34,5.725,7.018v9.567Zm19.433,0c0,.149-.12.27-.268.27h-2.608c-.148,0-.268-.121-.268-.27v-2.394c-1.424,2.15-3.293,3.227-5.606,3.227-2.575,0-4.586-.962-6.033-2.886-1.276-1.696-1.914-3.603-1.914-5.721,0-1.651.319-3.141.957-4.473.706-1.481,1.726-2.596,3.059-3.347,1.173-.66,2.438-.991,3.794-.991,1.128,0,2.239.307,3.333.922,1.094.615,1.897,1.412,2.41,2.39v-11.121c0-.149.12-.27.268-.27h2.608c.148,0,.268.121.268.27v24.394Zm10.064-9.862c-1.112,0-2.013-.902-2.013-2.013s.901-2.014,2.013-2.014,2.013.902,2.013,2.014-.901,2.013-2.013,2.013Zm-16.041-3.021c-.804-.484-1.717-.727-2.74-.727-2.101,0-3.576,1.031-4.423,3.09-.363.881-.545,1.795-.545,2.743,0,1.948.676,3.501,2.03,4.658.748.639,1.705.958,2.872.958,2.266,0,3.834-.986,4.704-2.956.374-.848.561-1.756.561-2.727,0-2.367-.82-4.046-2.459-5.038Z"/>
  </g>
</svg>