<?xml version="1.0" encoding="UTF-8"?>
<svg id="Layer_2" data-name="Layer 2" xmlns="http://www.w3.org/2000/svg" width="197.622" height="27.877" viewBox="0 0 197.622 27.877">
  <defs>
    <style>
      .cls-1 {
        fill: #adadad;
      }
    </style>
  </defs>
  <g id="Layer_1-2" data-name="Layer 1">
    <path class="cls-1" d="m197.622,17.969c0-5.724-3.903-9.058-9.048-9.058-4.953-.179-9.114,3.691-9.293,8.644-.009.241-.008.479.003.719-.216,5.01,3.669,9.246,8.679,9.463.203.009.407.01.611.006,1.895.025,3.763-.447,5.418-1.368,1.718-.98,2.969-2.612,3.472-4.524h-3.777c-.926,1.662-2.578,2.473-4.913,2.473-3.156,0-5.502-2.473-5.502-4.83h14.308c.042-.673.042-1.093.042-1.526Zm-14.34-1.799h-.053c.53-2.408,2.737-4.07,5.197-3.914,2.704,0,4.924,1.62,5.261,3.914h-10.405ZM11.791,13.422c1.196.561,2.146,1.538,2.672,2.749h4.208c-1.235-5.082-6.355-8.201-11.437-6.966C2.154,10.44-.965,15.56.27,20.642c1.235,5.081,6.355,8.2,11.437,6.965,3.442-.836,6.129-3.523,6.965-6.965h-4.271c-1.273,2.714-4.506,3.883-7.22,2.61-2.714-1.274-3.883-4.507-2.609-7.221,1.273-2.715,4.506-3.883,7.22-2.609Zm14.277-3.343v-.525h-3.872v17.559h3.893v-8.416c-.059-1.145.022-2.294.242-3.42v-.085c.231-.755.753-1.388,1.452-1.756,1.283-.818,2.925-.818,4.208,0l1.673-3.724c-1.184-.555-2.48-.829-3.787-.8-1.355.014-2.678.42-3.809,1.167Zm22.294,7.891c.059,1.146-.022,2.294-.242,3.419v.086c-.228.748-.742,1.375-1.431,1.745-1.283.818-2.925.818-4.208,0-.688-.37-1.203-.998-1.431-1.745v-.086c-.22-1.125-.301-2.273-.242-3.419v-8.417h-3.882v9.574c-.091,1.568.134,3.139.663,4.618.602,1.423,1.734,2.556,3.156,3.158,1.184.555,2.48.828,3.787.799,1.356-.013,2.678-.42,3.809-1.168v.578h3.84V9.553h-3.819v8.417Zm20.127-8.207c-1.184-.555-2.48-.828-3.788-.799-1.356.015-2.678.42-3.809,1.168v-.525h-3.893v17.505h3.861v-8.416c-.053-1.151.035-2.302.263-3.43v-.084c.228-.748.742-1.376,1.431-1.746,1.283-.818,2.925-.818,4.208,0,.688.37,1.203.999,1.431,1.746v.084c.214,1.13.288,2.282.221,3.43v8.416h3.861v-9.574c.101-1.566-.114-3.136-.631-4.618-.602-1.423-1.734-2.555-3.156-3.157Zm19.095,3.659c1.196.561,2.146,1.538,2.672,2.749h4.208c-1.235-5.082-6.355-8.201-11.437-6.966-5.081,1.234-8.2,6.355-6.965,11.437,1.235,5.081,6.355,8.2,11.437,6.965,3.442-.836,6.129-3.523,6.965-6.965h-4.271c-1.273,2.714-4.506,3.883-7.221,2.61-2.714-1.274-3.883-4.507-2.609-7.221,1.273-2.715,4.506-3.883,7.22-2.609Zm21.915-3.669c-1.184-.555-2.48-.828-3.788-.799-1.355.014-2.678.42-3.809,1.168V0h-3.882v27.112h3.861v-8.416c-.059-1.145.022-2.294.242-3.42v-.085c.231-.755.753-1.388,1.452-1.756,1.283-.818,2.925-.818,4.208,0,.688.37,1.203.999,1.431,1.746v.084c.22,1.126.301,2.273.242,3.419v8.416h3.861v-9.573c.091-1.569-.135-3.139-.663-4.619-.602-1.422-1.734-2.554-3.156-3.156Zm23.332.882c-1.636-1.152-3.594-1.754-5.594-1.724h-.694c-1.661.121-3.259.684-4.629,1.631V0h-3.84v27.112h3.861v-.988c4.277,3.009,10.184,1.98,13.193-2.297,3.009-4.277,1.981-10.184-2.297-13.192Zm-.165,8.417v.17c-.035.224-.084.446-.147.662-.072.234-.16.463-.263.685v.084c-.735,1.528-2.138,2.629-3.798,2.978l-.516.084h-.116c-.196.011-.393.011-.589,0-.246-.001-.492-.019-.736-.053h-.169c-.476-.078-.94-.22-1.378-.421h-.105c-.442-.218-.853-.493-1.22-.821-.37-.336-.692-.722-.957-1.147-.131-.215-.247-.441-.347-.673-.626-1.429-.603-3.061.063-4.471.813-1.718,2.465-2.888,4.356-3.083.186-.009.372-.009.557,0,2.915.038,5.281,2.368,5.366,5.281.016.242.016.483,0,.725Zm38.79-1.924l-3.261-.736c-.715-.157-2.388-.641-2.388-1.704,0-1.663,1.694-2.252,3.272-2.252s3.272.873,3.272,2.272v.095h3.809v-.085c0-2.862-2.199-5.776-7.102-5.828-4.903-.053-7.028,2.883-7.091,5.702v.211c.105,1.652,1.052,3.756,4.713,4.619l3.261.736c.842.19,2.273.663,2.388,1.736,0,1.483-1.904,2.262-3.272,2.262-1.578,0-3.272-.873-3.272-2.272v-.085h-3.819v.053c0,2.862,2.199,5.776,7.102,5.828,4.903.053,7.101-2.956,7.101-5.828v-.053c-.084-1.673-.989-3.808-4.713-4.671Zm-16.886-6.523c-1.37-.947-2.969-1.51-4.629-1.631h-.694c-5.168.022-9.364,4.186-9.427,9.353.048,5.229,4.326,9.429,9.556,9.381,1.843-.017,3.641-.571,5.174-1.596v.999h3.861V9.553h-3.84v1.052Zm-.358,9.847c-.1.233-.216.458-.347.673-.265.425-.587.811-.957,1.147-.368.328-.779.604-1.221.822h-.105c-.438.201-.902.343-1.378.421h-.168c-.244.034-.49.051-.736.051-.196.012-.393.012-.589,0h-.074l-.516-.082c-1.624-.369-2.992-1.458-3.714-2.957v-.084c-.103-.222-.191-.45-.263-.684-.063-.216-.112-.438-.147-.662v-.168c-.075-.197-.138-.396-.189-.6.006-2.995,2.433-5.423,5.429-5.429.186-.01.372-.01.558,0,1.891.196,3.542,1.366,4.356,3.083.667,1.411.689,3.043.063,4.471Z"/>
  </g>
</svg>