<?xml version="1.0" encoding="UTF-8"?>
<svg id="Layer_2" data-name="Layer 2" xmlns="http://www.w3.org/2000/svg" width="112.273" height="42.645" viewBox="0 0 112.273 42.645">
  <defs>
    <style>
      .cls-1 {
        fill: #adadad;
      }
    </style>
  </defs>
  <g id="Layer_1-2" data-name="Layer 1">
    <path class="cls-1" d="m31.88,22.711l-.012.02s-.009-.015-.009-.015l-12.038,19.929,11.769-8.213c.701-.468,1.277-1.101,1.675-1.844,1.087-2.27,1.115-4.904.079-7.196-.422-.901-1.465-2.682-1.465-2.682Zm.975-13.634L19.837,0s8.139,11.737,15.014,23.416c.694,1.235,1.159,2.584,1.375,3.984.096.633.096,1.277,0,1.912.179-.333.527-1.012.527-1.012.697-1.421,1.171-2.94,1.407-4.504.137-1.654.125-3.317-.037-4.968-.269-3.858-2.189-7.413-5.268-9.751Zm-27.863.984c-1.087,2.27-1.116,4.903-.079,7.197.411.902,1.464,2.682,1.464,2.682L18.436,0,6.667,8.218c-.701.468-1.277,1.101-1.675,1.843Zm-2.966,5.185c-.096-.634-.096-1.279,0-1.912-.179.332-.527,1.011-.527,1.011-.696,1.42-1.171,2.939-1.407,4.504-.136,1.653-.122,3.317.042,4.967.269,3.858,2.189,7.412,5.268,9.751l13.017,9.078S10.275,30.908,3.406,19.229c-.695-1.234-1.163-2.583-1.38-3.983Zm107.028-.691h3.103c.064,0,.116-.052.116-.116v-3.461c.004-.047-.027-.092-.074-.104-2.403-.668-4.882-1.021-7.375-1.055-2.483.032-4.952.386-7.344,1.055-.047.012-.078.057-.074.104v9.173c.001.046.03.088.074.105l11.474,4.008v4.994c-1.339.291-2.703.453-4.072.48-1.386-.027-2.765-.19-4.12-.485v-1.052c0-.013-.001-.025-.004-.037-.018-.062-.082-.097-.143-.08h-3.098c-.064,0-.116.052-.116.116v3.465c-.004.049.027.094.074.106,2.403.667,4.882,1.02,7.375,1.053,2.483-.031,4.952-.385,7.344-1.053.047-.012.078-.057.074-.106v-9.456c-.001-.046-.03-.089-.074-.104l-11.432-4.004-.016-4.721c1.339-.288,2.703-.447,4.072-.474,1.385.027,2.765.188,4.12.48v1.053c0,.064.052.116.116.116Zm-18.749-4.352h-3.161c-.064,0-.116.052-.116.116v15.525l-10.268-15.587c-.021-.033-.056-.053-.095-.054h-2.924c-.064,0-.116.052-.116.116v22.042c0,.065.052.116.116.116h3.161c.064,0,.116-.052.116-.116v-15.557l10.257,15.621c.021.032.056.052.095.053h2.934c.064,0,.116-.052.116-.116V10.32c0-.064-.052-.116-.116-.116Zm-23.759-.005h-14.018c-.058.003-.105.047-.111.105v22.063c0,.062.049.113.111.116h14.018c.064,0,.116-.052.116-.116v-2.807c0-.065-.052-.116-.116-.116h-10.747v-6.696h9.14c.064,0,.116-.052.116-.115v-2.777c0-.063-.052-.116-.116-.116h-9.14v-6.501h10.747c.064,0,.116-.051.116-.116v-2.807c0-.064-.052-.116-.116-.116Z"/>
  </g>
</svg>