<?xml version="1.0" encoding="UTF-8"?>
<svg id="Layer_2" data-name="Layer 2" xmlns="http://www.w3.org/2000/svg" width="194.386" height="27.479" viewBox="0 0 194.386 27.479">
  <defs>
    <style>
      .cls-1 {
        fill: #adadad;
      }
    </style>
  </defs>
  <g id="Layer_1-2" data-name="Layer 1">
    <path class="cls-1" d="m13.348,18.18v3.436L0,24.042v3.437l16.685-3.031c.917-.188,1.745-.69,2.351-1.423.606-.734.953-1.657.986-2.618V6.662l-6.674,1.21v10.308ZM.987,4.453c-.606.734-.953,1.656-.987,2.62v13.745l6.674-1.213V5.858l13.348-2.422V0L3.337,3.027c-.917.19-1.745.692-2.35,1.425Zm42.519,7.315c-2.731-.748-5.051-1.547-5.081-4.204-.034-1.985,1.8-3.297,4.543-3.297s4.645,1.472,4.772,4.033h4.001c-.131-4.192-3.595-6.946-8.676-6.946-5.318,0-8.769,2.402-8.769,6.273.085,5.126,4.06,6.375,7.706,7.334,3.222.865,6.254,1.505,6.254,4.545,0,2.178-1.804,3.654-4.548,3.654-3.544,0-5.962-1.7-6.059-4.579h-4.162c0,4.523,3.98,7.505,10.149,7.501,5.288,0,8.735-2.691,8.735-6.791,0-5.667-4.899-6.5-8.866-7.522ZM58.783.917c-.351-.345-.797-.577-1.281-.669-.484-.09-.985-.037-1.439.155-.454.192-.839.514-1.108.924-.269.41-.409.891-.402,1.38-.008.325.052.648.174.95.123.301.306.573.539.801.233.228.51.406.815.524.305.117.631.172.957.16.493,0,.975-.146,1.384-.418.409-.273.728-.66.915-1.113.187-.453.234-.951.136-1.431-.099-.479-.339-.919-.69-1.262Zm-3.714,24.655l3.967-.013V8.909h-3.967v16.664Zm26.341-17.164c-4.933,0-8.35,3.554-8.35,8.805s3.383,8.871,8.625,8.871c3.934,0,6.576-2.114,7.156-5.188h-3.836c-.141.776-.564,1.475-1.187,1.965-.624.49-1.406.735-2.2.693-2.612,0-4.323-2.275-4.518-5.316h11.983v-1.345c0-5.059-3.125-8.486-7.672-8.486Zm-4.298,7.43c.33-2.851,2.045-4.898,4.234-4.898s3.641,2.047,3.739,4.898h-7.973Zm27.64,3.775l-6.58-17.735h-5.962v23.694h3.997V6.584l7.223,18.989h2.642l7.253-19.023v19.023h3.967V1.878h-5.995l-6.546,17.735ZM124.678.925c-.349-.343-.795-.576-1.277-.667-.483-.093-.983-.039-1.436.152-.453.191-.839.511-1.107.921-.27.409-.41.889-.404,1.376-.008.325.052.648.174.949.122.3.305.573.537.801.232.228.509.406.813.524.305.118.63.172.957.161.492,0,.973-.146,1.382-.417.408-.273.726-.659.913-1.112.187-.452.234-.948.136-1.427-.099-.48-.338-.918-.688-1.262Zm-3.708,24.648l3.975.013V8.909h-3.975v16.664Zm16.83-17.177c-1.155-.015-2.294.276-3.297.845-1.004.568-1.835,1.393-2.41,2.389v-2.721h-3.967v16.664l3.955-.016v-8.52c0-3.712,1.592-5.954,4.234-5.954,2.066,0,3.065,1.842,3.065,4.625v9.852h3.963v-9.831c0-5.029-1.998-7.333-5.542-7.333Zm20.341,3.28c-.496-.974-1.251-1.793-2.183-2.369-.933-.577-2.007-.887-3.106-.898-4.285,0-7.126,3.457-7.126,8.776s2.841,8.834,7.126,8.901c1.099-.011,2.173-.321,3.106-.898.932-.576,1.687-1.395,2.183-2.369v2.754h3.967V.277h-3.967v11.398Zm-4.158,11.879c-2.54,0-4.234-2.591-4.234-6.341s1.656-6.273,4.234-6.273c2.659,0,4.353,2.526,4.353,6.273,0,3.78-1.711,6.341-4.353,6.341Zm18.766-15.146c-4.933,0-8.354,3.554-8.354,8.805s3.387,8.871,8.612,8.871c3.933,0,6.576-2.114,7.156-5.188h-3.836c-.142.776-.565,1.475-1.189,1.963-.623.489-1.405.735-2.199.694-2.607,0-4.318-2.275-4.514-5.316h11.996v-1.345c0-5.059-3.13-8.486-7.673-8.486Zm-4.298,7.43c.331-2.851,2.045-4.898,4.235-4.898s3.641,2.047,3.738,4.898h-7.973Zm22.035-6.93c-.702.016-1.388.219-1.985.588-.596.37-1.081.894-1.402,1.514v-2.102h-3.967v16.651h3.967v-13.076h7.287v-3.575h-3.9Zm-122.552.327c-.335.241-.574.592-.675.99v-5.739h-3.967v17.117c.025,3.095,1.643,4.495,4.912,4.495,1.065-.005,2.124-.173,3.138-.496v-3.027c-.675.205-1.377.31-2.083.311-1.338,0-2.049-.497-2.049-1.976l.047-9.007,4.226-.012v-2.982h-2.388c-.413-.029-.823.086-1.158.327Z"/>
  </g>
</svg>