<?xml version="1.0" encoding="UTF-8"?>
<svg id="Layer_2" data-name="Layer 2" xmlns="http://www.w3.org/2000/svg" width="148.964" height="33.666" viewBox="0 0 148.964 33.666">
  <defs>
    <style>
      .cls-1 {
        fill: #adadad;
      }
    </style>
  </defs>
  <g id="Layer_1-2" data-name="Layer 1">
    <path class="cls-1" d="m65.321,11.471c0-6.232-4.121-11.471-11.768-11.471h-17.404v33.516h9.856v-10.278h3.724l4.32,10.278h11.272l-5.934-11.867c2.607-1.341,5.934-4.345,5.934-10.179Zm-13.283,4.021h-6.033v-6.654h6.033c1.713,0,3.228,1.018,3.228,3.327s-1.614,3.326-3.228,3.326Zm40.965,18.024h9.956v-11.37h14.598v-8.864h-14.598v-4.419h14.996V0h-24.951v33.516ZM14.698,0H0v33.516h14.797c10.279,0,18.025-6.032,18.025-16.808C32.722,6.034,25.051,0,14.698,0Zm0,24.654h-4.742v-15.79h4.841c5.338,0,7.845,3.328,7.845,7.845,0,4.221-2.905,7.945-7.945,7.945ZM121.48,0v8.863h8.764v24.653h9.956V8.863h8.764V0h-27.484Zm-31.704,0h.397c.496.1.695.595.496.894-.099.1-.099.199-.199.299l-8.342,9.558s-.199.199-.199.298c-.298.397,0,.894.596,1.019h3.525c.596.099.794.595.596,1.017-.099.1-.199.298-.199.298l-6.43,6.754c-.099.099-.099.198-.199.297-.298.397,0,.894.596.894h2.21c.298,0,.596.099.695.397.099.199,0,.497-.199.695-.099.099-.199.099-.199.099l-14.176,10.875s-.199.199-.298.199c-.099.1-.298.1-.497,0-.099-.099-.199-.199-.099-.299,0-.099.099-.297.099-.297l3.923-8.144.099-.199c.298-.496,0-1.018-.596-1.018h-3.203c-.497-.099-.695-.496-.596-.894,0-.099.099-.297.099-.297l4.941-8.144.099-.099c.298-.496-.099-.894-.695-1.017h-3.302c-.397,0-.695-.199-.794-.497,0-.199,0-.299.099-.496l1.515-2.607,4.841-8.567.099-.198c.596-.596,1.018-.795,1.614-.795l13.68-.025Z"/>
  </g>
</svg>