<svg height="38.06" viewBox="0 0 126.417 38.06" width="126.417" xmlns="http://www.w3.org/2000/svg"><path d="m77.358 28.035c-8.25 3.504-17.21 5.189-25.328 5.189-12.065 0-23.731-3.282-33.179-8.781-.843-.488-1.419.354-.754.975 8.783 7.896 20.315 12.643 33.179 12.643 9.182 0 19.827-2.883 27.146-8.295 1.198-.888.177-2.219-1.065-1.73zm-4.613-3.017c-.665.443-.532 1.065.177.976 2.351-.311 7.629-.931 8.561.266.931 1.241-1.065 6.167-1.952 8.384-.266.665.311.932.932.444 3.948-3.282 4.968-10.202 4.169-11.178-.798-.977-7.674-1.863-11.888 1.108zm-50.478-2.971h3.903c.444 0 .754-.311.799-.666v-10.646c0-2.35-.089-5.544 2.706-5.544 2.75 0 2.395 3.327 2.395 5.544v10.646c0 .355.311.666.71.71h3.903c.399 0 .754-.311.754-.71v-10.646c0-1.152-.044-2.839.355-3.859s1.419-1.641 2.351-1.641c1.153 0 1.996.399 2.307 1.73.177.799.089 2.927.089 3.77v10.646c0 .355.31.666.71.71h3.859c.399 0 .754-.311.754-.71v-12.687c0-2.172.266-4.612-.976-6.299-1.109-1.552-2.883-2.217-4.524-2.217-2.307 0-4.48 1.198-5.411 3.726-1.065-2.528-2.617-3.726-5.057-3.726-2.395 0-4.214 1.198-5.145 3.726h-.089v-2.616c-.044-.355-.31-.665-.71-.665h-3.637c-.399 0-.754.31-.754.708v20.05c.044.355.355.621.71.666zm40.542-13.575c-2.262.267-5.234.445-7.363 1.376-2.44 1.065-4.169 3.193-4.169 6.387 0 4.037 2.573 6.078 5.855 6.078 2.75 0 4.303-.666 6.432-2.838.71 1.019.976 1.552 2.262 2.616.31.177.665.133.932-.089.798-.664 2.218-1.907 3.061-2.572.31-.222.266-.667 0-1.02-.71-1.021-1.464-1.818-1.464-3.638v-6.078c0-2.572.177-4.967-1.73-6.741-1.508-1.464-3.992-1.953-5.9-1.953-3.726 0-7.851 1.376-8.738 5.989-.089.487.266.709.577.798l3.77.399c.355 0 .577-.355.665-.711.31-1.596 1.641-2.35 3.149-2.35.798 0 1.685.31 2.173 1.021.577.798.488 1.907.488 2.838v.487zm-.71 8.163c-.621 1.109-1.597 1.774-2.706 1.774-1.508 0-2.395-1.154-2.395-2.839 0-3.326 2.972-3.948 5.811-3.948v.843c0 1.508.044 2.794-.71 4.169zm36.373-16.457c-5.678 0-8.827 4.879-8.783 11.133 0 6.211 3.105 11.179 8.783 11.179 5.5 0 8.96-4.879 8.96-11.001 0-6.342-3.149-11.311-8.96-11.311zm-.044 18.186c-3.061 0-3.016-5.234-3.016-7.674s.177-6.387 3.061-6.387c1.242 0 2.129.532 2.573 1.951.488 1.598.577 3.638.577 5.324 0 2.573-.177 6.786-3.194 6.786zm26.969-15.835c-1.109-1.73-2.839-2.351-4.569-2.351-2.706 0-4.214 1.287-5.323 4.036h-.089v-3.06c-.089-.311-.355-.577-.71-.577h-3.637c-.399 0-.71.31-.754.665v20.094c0 .354.31.664.71.709h3.903c.399 0 .754-.311.798-.709v-10.824c0-1.375.089-2.573.621-3.815.443-.976 1.331-1.596 2.262-1.596 2.706 0 2.439 3.194 2.439 5.411v10.912c.044.311.355.577.71.622h3.903c.399 0 .71-.267.754-.622v-12.642c0-1.951 0-4.657-1.02-6.254zm-38.324 14.062c-2.218-1.243-4.835-1.597-7.319-1.553l6.654-9.493c.621-.887.976-1.419.976-1.819v-2.438c0-.401-.355-.711-.754-.711h-12.863c-.399 0-.71.266-.71.711v2.882c0 .4.355.71.754.71h6.698l-7.718 11.045c-.488.711-.488 1.508-.488 1.952v2.928c0 .443.488.886.932.664 4.347-2.351 9.625-2.128 13.573-.044.488.266.931-.221.931-.665v-3.061c-.044-.399-.177-.842-.665-1.108zm-68.531 1.818c-.71-1.021-1.464-1.818-1.464-3.638v-6.078c0-2.572.177-4.967-1.73-6.741-1.508-1.464-3.992-1.953-5.899-1.953-3.727.001-7.852 1.377-8.739 5.99-.089.487.266.709.576.798l3.77.399c.355 0 .577-.355.665-.711.311-1.596 1.641-2.35 3.149-2.35.798 0 1.686.31 2.173 1.021.577.798.488 1.907.488 2.838v.487c-2.262.267-5.234.445-7.363 1.376-2.44 1.065-4.17 3.193-4.17 6.387 0 4.037 2.573 6.078 5.855 6.078 2.75 0 4.302-.666 6.432-2.838.71 1.019.976 1.552 2.262 2.616.31.177.665.133.932-.089.798-.664 2.218-1.907 3.061-2.572.31-.222.266-.667 0-1.02zm-7.674-1.774c-.621 1.109-1.597 1.774-2.706 1.774-1.508 0-2.395-1.154-2.395-2.839 0-3.326 2.972-3.948 5.811-3.948v.843c0 1.508.044 2.794-.71 4.169z" fill="#adadad"/></svg>