<?xml version="1.0" encoding="UTF-8"?>
<svg id="Layer_2" data-name="Layer 2" xmlns="http://www.w3.org/2000/svg" width="63.466" height="44.423" viewBox="0 0 63.466 44.423">
  <defs>
    <style>
      .cls-1 {
        fill: #adadad;
      }
    </style>
  </defs>
  <g id="Layer_1-2" data-name="Layer 1">
    <path class="cls-1" d="m17.833,21.069s-.471-.079-.998-.086c-.75-.01-1.069.266-1.067.265-.221.157-.328.388-.328.713,0,.204.037.365.11.478.049.075.069.103.212.219-.003-.001.33.259,1.079.215.526-.032.993-.132.993-.132h0v-1.671Zm7.229-2.222c-.483,0-.826.19-1.051.535-.149.226-.245.517-.297.867h2.624c-.026-.337-.092-.641-.243-.867-.23-.344-.549-.535-1.031-.535Zm24.722-12.83c-1.97,0-3.842.42-5.534,1.176-1.947-3.468-5.602-5.803-9.791-5.803-3.152,0-6.001,1.322-8.048,3.454C24.159,1.9,20.607,0,16.61,0,9.802,0,4.283,5.511,4.283,12.311c0,1.74.362,3.395,1.014,4.895-3.166,1.85-5.297,5.31-5.297,9.271,0,5.912,4.743,10.703,10.593,10.703.747,0,1.474-.078,2.177-.227,1.607,4.36,5.795,7.469,10.709,7.469,4.719,0,8.767-2.867,10.505-6.953,1.322.644,2.806,1.007,4.376,1.007,3.749,0,7.016-2.066,8.73-5.124.887.179,1.79.268,2.695.268,7.556,0,13.682-6.179,13.682-13.802s-6.126-13.802-13.682-13.802ZM13.59,22.035c0,1.115-.808,1.808-2.11,1.808-.639,0-1.25-.101-1.898-.444-.122-.071-.243-.133-.363-.219-.013-.018-.067-.04-.027-.144l.257-.712c.041-.123.134-.082.171-.059.071.043.124.081.215.136.757.476,1.457.481,1.677.481.566,0,.917-.3.917-.703v-.021c0-.443-.54-.607-1.166-.8l-.138-.042c-.86-.246-1.778-.6-1.778-1.687v-.022c0-1.031.832-1.751,2.023-1.751h.13c.7,0,1.376.203,1.865.5.044.026.088.077.063.146-.023.064-.24.647-.265.713-.046.122-.172.041-.172.041-.428-.237-1.094-.423-1.655-.423-.504,0-.83.267-.83.631v.022c0,.425.557.606,1.203.816l.111.036c.856.271,1.768.646,1.768,1.675v.022Zm5.331,1.449c-.086.023-.172.045-.258.066-.123.028-.566.117-.926.179-.364.062-.741.093-1.117.093-.358,0-.685-.034-.974-.099-.293-.066-.545-.175-.75-.325-.206-.149-.368-.342-.48-.574-.112-.232-.168-.514-.168-.84,0-.32.066-.606.196-.848.129-.241.311-.447.533-.606.222-.16.481-.281.768-.357.286-.077.59-.117.906-.117.232,0,.425.008.574.018,0,0,.29.025.607.07v-.155c0-.49-.102-.722-.303-.876-.206-.159-.512-.238-.909-.238,0,0-.895-.011-1.603.375-.032.018-.061.029-.061.029,0,0-.088.031-.12-.06l-.26-.699c-.04-.101.032-.146.032-.146.331-.258,1.135-.414,1.135-.414.266-.053.71-.091.985-.091.735,0,1.304.171,1.69.509.388.34.585.887.585,1.625l.002,3.363s.007.098-.084.121Zm2.47.106c0,.062-.044.112-.106.112h-.975c-.061,0-.105-.049-.105-.112v-7.851c0-.061.044-.111.105-.111h.975c.062,0,.106.049.106.111v7.851Zm6.091-2.525c-.01.094-.107.095-.107.095l-3.679-.003c.023.557.156.954.428,1.223.265.264.688.433,1.258.433.874.002,1.248-.173,1.511-.272,0,0,.102-.037.139.064l.24.674c.049.115.01.154-.031.177-.231.127-.79.365-1.852.368-.516.001-.966-.073-1.335-.215-.372-.144-.683-.351-.925-.614-.242-.26-.421-.576-.533-.934-.111-.355-.167-.75-.167-1.175,0-.417.055-.811.162-1.174.107-.365.275-.686.498-.956.223-.269.508-.487.847-.647.338-.159.756-.236,1.214-.236.394,0,.754.085,1.054.214.23.1.461.277.698.532.15.162.378.513.47.861.237.829.114,1.544.11,1.585Zm1.159,2.334c-.122-.071-.243-.133-.363-.219-.013-.018-.067-.04-.027-.144l.257-.712c.038-.117.148-.074.172-.059.069.044.123.081.214.136.757.476,1.457.481,1.677.481.566,0,.918-.3.918-.703v-.021c0-.443-.541-.607-1.167-.8l-.138-.042c-.86-.246-1.778-.6-1.778-1.687v-.022c0-1.031.832-1.751,2.023-1.751h.13c.7,0,1.376.203,1.865.5.044.026.088.077.063.146-.023.064-.24.647-.265.713-.046.122-.172.041-.172.041-.429-.237-1.094-.423-1.654-.423-.505,0-.83.267-.83.631v.022c0,.425.557.606,1.203.816l.111.036c.856.271,1.768.646,1.768,1.675v.022c0,1.115-.808,1.808-2.11,1.808-.639,0-1.25-.101-1.898-.444Zm8.323-4.53c-.021.111-.123.108-.123.108h-1.211l-.829,4.689c-.087.486-.196.901-.323,1.236-.128.338-.263.586-.477.823-.199.219-.423.38-.68.474-.256.092-.565.14-.903.14-.162,0-.334-.003-.539-.051-.147-.034-.228-.061-.336-.098-.046-.017-.082-.074-.057-.146.026-.074.243-.67.273-.748.038-.095.133-.059.133-.059.066.028.112.047.199.065.088.018.206.031.295.031.16,0,.307-.018.433-.061.154-.051.242-.14.336-.26.098-.124.176-.295.257-.524.082-.23.156-.535.221-.907l.824-4.603h-.813c-.098,0-.129-.046-.119-.118l.137-.766c.022-.111.123-.107.123-.107h.835l.045-.249c.125-.738.373-1.301.74-1.669.368-.372.892-.559,1.558-.559.191,0,.359.012.5.038.139.025.246.051.364.087.025.009.097.045.068.128l-.281.772c-.024.058-.04.094-.16.057-.03-.009-.074-.022-.188-.046-.082-.017-.192-.03-.302-.03-.146,0-.279.018-.395.055-.114.038-.218.102-.308.192-.091.093-.2.227-.258.393-.135.39-.188.804-.194.83h1.176c.099,0,.129.045.12.118l-.137.764Zm5.385,3.151c-.107.361-.273.68-.494.944-.222.266-.503.478-.835.63-.333.15-.724.227-1.164.227s-.833-.077-1.165-.227c-.332-.152-.613-.363-.834-.63-.222-.265-.388-.585-.495-.944-.106-.357-.159-.75-.159-1.167s.053-.81.159-1.167c.108-.36.274-.679.495-.945.222-.266.502-.479.835-.636.332-.153.724-.233,1.165-.233s.833.08,1.164.233c.333.157.613.37.834.636.221.264.388.583.495.945.107.357.16.751.16,1.167s-.053.809-.16,1.167Zm4.27-3.071c-.023.065-.063.108-.134.099,0,0-.212-.049-.404-.049-.134,0-.323.017-.494.069-.167.052-.32.143-.455.273-.134.131-.242.314-.322.541-.081.23-.122.598-.122.966v2.741c0,.062-.049.112-.111.112h-.966c-.061,0-.112-.05-.112-.112v-5.486c0-.062.044-.113.106-.113h.943c.062,0,.106.051.106.113v.447c.141-.188.394-.354.622-.458.23-.103.486-.181.948-.153.241.015.554.081.617.105.024.009.083.049.055.132-.034.101-.213.604-.277.772Zm4.876,4.595c-.41.161-.982.275-1.539.275-.942,0-1.664-.271-2.145-.807-.48-.534-.723-1.262-.723-2.164,0-.417.06-.811.177-1.17.118-.359.295-.678.529-.944.233-.266.528-.479.875-.634.348-.156.755-.233,1.211-.233.306,0,.58.019.815.054.251.038.584.128.725.183.025.011.096.046.067.128-.101.29-.172.48-.267.743-.041.114-.127.075-.127.075-.358-.112-.7-.164-1.148-.164-.538,0-.941.18-1.206.531-.267.353-.415.816-.417,1.431-.002.676.166,1.176.466,1.486.299.309.717.465,1.243.465.214,0,.414-.015.596-.042.179-.029.347-.085.505-.146,0,0,.102-.039.138.067l.267.737c.034.091-.044.13-.044.13Zm5.447-2.479c-.01.094-.107.095-.107.095l-3.679-.003c.023.557.157.954.429,1.223.265.264.688.433,1.259.433.872.002,1.247-.173,1.51-.272,0,0,.102-.037.138.064l.241.674c.049.115.01.154-.031.177-.231.127-.79.365-1.852.368-.516.001-.966-.073-1.335-.215-.372-.144-.684-.351-.925-.614-.242-.26-.421-.576-.533-.934-.111-.355-.167-.75-.167-1.175,0-.417.054-.811.162-1.174.107-.365.275-.686.498-.956.223-.269.508-.487.847-.647.338-.159.755-.236,1.214-.236.394,0,.754.085,1.054.214.23.1.461.277.698.532.15.162.379.513.471.861.236.829.113,1.544.109,1.585Zm-2.419-2.218c-.483,0-.826.19-1.051.535-.149.226-.246.517-.298.867h2.624c-.026-.337-.092-.641-.244-.867-.229-.344-.548-.535-1.031-.535Zm-14.668.023c-.484,0-.828.167-1.053.511-.228.346-.344.843-.344,1.472s.116,1.128.344,1.478c.225.347.57.516,1.053.516s.829-.169,1.058-.516c.231-.351.349-.847.349-1.478s-.117-1.126-.348-1.472c-.23-.344-.576-.511-1.059-.511Z"/>
  </g>
</svg>