<?xml version="1.0" encoding="UTF-8"?>
<svg id="Layer_2" data-name="Layer 2" xmlns="http://www.w3.org/2000/svg" width="338.097" height="25.624" viewBox="0 0 338.097 25.624">
  <defs>
    <style>
      .cls-1 {
        fill: #adadad;
      }
    </style>
  </defs>
  <g id="Layer_1-2" data-name="Layer 1">
    <path class="cls-1" d="m327.529,12.908h-6.297V3.858h6.517c3.038.082,5.254,1.838,5.263,4.712-.034,2.529-1.672,4.265-5.484,4.338h.001Zm10.253,10.349c-1.889-2.524-4.714-6.264-5.946-7.9,2.772-1.19,4.702-3.577,4.702-6.851-.008-4.213-3.471-7.916-8.716-7.916h-9.18l-.065-.016c-.347,0-.989.642-.989,1.117-.011.403-.011,21.832,0,22.324.007.172-.027.357.187.698.277.374.687.395.868.395h1.529c.084,0,.409.025.803-.364.29-.333.242-.541.257-.728v-7.905h6.838l6.221,8.434c.162.269.729.564,1.138.564h1.491c.108,0,1.174-.279,1.174-.977.034-.329-.217-.765-.313-.873h.001Zm-30.104-.183c-.022-.199.107-.383-.237-.918-.386-.322-.637-.322-.834-.322-.022,0-.088.027-.146,0h-12.926v-7.542h12.681c.771,0,1.075-1.062,1.075-1.349v-.699c0-.178-.341-1.239-1.075-1.239h-12.647V3.862h12.791c.16.018.628-.005.939-.411.233-.399.214-.606.225-.833v-.856c-.063-.199.041-.437-.232-.868-.377-.304-.684-.304-.863-.304h-15.604c-.097-.018-.278-.018-.586.187-.401.38-.27.688-.287.745v22.344c.017.218-.096.424.166.777.27.4.674.462.885.462h15.606c.146,0,.38.007.771-.296.394-.44.287-.682.298-.887v-.85Zm-35.791-12.207l7.926-8.629c.128-.162.263-.349.263-.592-.056-.66-.556-1.056-1.156-1.056h-1.465c-.494-.051-.999.296-1.138.395l-11.921,13.156V1.734c0-.17.027-.409-.237-.797-.297-.338-.71-.347-.89-.347h-1.366c-.169,0-.491,0-.849.286-.29.315-.282.635-.282.813-.008.314-.008,22.093,0,22.343,0,.176,0,.509.295.757.288.269.637.316.881.316h1.223c.214-.02.481.007.902-.26.349-.331.321-.682.321-.813v-5.017l4.947-5.421,8.435,10.814c.32.252.425.544,1.33.699h1.604c.372,0,1.125-.364,1.125-.967-.008-.346-.115-.509-.25-.687l-9.697-12.588h0Zm-30.878,2.043h-6.341V3.858h6.502c3.045.082,5.303,1.838,5.328,4.712-.034,2.529-1.677,4.265-5.488,4.338h-.001Zm4.297,2.448c2.768-1.19,4.718-3.577,4.708-6.851,0-4.213-3.433-7.916-8.762-7.916h-9.151l-.034-.017c-.338,0-.995.642-.995,1.117v22.324c.008.172-.045.357.206.698.275.374.687.395.823.395h1.512c.064,0,.435.025.811-.364.304-.333.243-.541.243-.728v-7.905h6.874l6.254,8.434c.124.269.69.564,1.118.564h1.431c.152,0,1.219-.279,1.219-.977.015-.329-.229-.765-.324-.873-1.905-2.524-4.669-6.264-5.936-7.9h0Zm-39.649,1.028c1.104-2.136,3.518-6.922,5.131-10.303.019-.012.028-.019.028-.029.034.017.043.028.07.058,1.648,3.342,4.014,8.137,5.06,10.273h-10.289Zm6.196-15.711c0-.021-.358-.699-1.037-.671-.642-.026-.975.671-.975.671-2.272,4.264-10.34,20.284-11.619,22.85-.109.117-.195.278-.195.665.086.919,1.037.919,1.219.919h1.203c.58.096,1.288-.535,1.311-.786l2.403-4.741h13.343l2.423,4.837c.025.217.642.698,1.037.698.017,0,.045,0,.068-.007h1.499c.268,0,1.136-.296,1.136-.931-.02-.296-.126-.437-.162-.614-1.435-2.884-9.472-18.524-11.655-22.888h.001Zm-25.929,12.291c-1.986-.02-5.071-.02-6.574-.02V3.862h6.507c2.953.077,5.245,1.683,5.245,4.545-.016,3.033-2.279,4.525-5.176,4.556h-.001Zm.043-12.374h-9.191c-.126-.017-.477.011-.737.296-.253.27-.306.552-.306.804v22.324c.053.172-.056.357.275.755.312.338.624.338.76.338h1.592c.116,0,.552,0,.823-.447.232-.369.144-.518.169-.646v-7.798h5.932c5.463-.011,9.426-2.986,9.446-7.808-.02-4.847-4.17-7.818-8.761-7.818h-.001Zm-37.837,0h-1.434c-.473-.023-.992.439-1.125.743-1.234,1.843-5.485,8.353-7.139,10.93-1.664-2.615-5.902-9.176-7.137-11.025,0-.218-.829-.772-1.19-.648h-1.27c-.248,0-1.118,0-1.294.932.016.313.133.469.176.571,1.788,2.763,7.954,12.34,8.917,13.766v8.102c.019.223-.052.447.27.805.231.292.584.339.763.339h1.4c.214,0,.518,0,.905-.339.312-.424.241-.653.241-.89v-8.019c.958-1.397,6.908-10.581,8.844-13.649.073-.218.171-.286.198-.687-.063-.885-1.001-.933-1.124-.933l-.002.002Zm-35.311,21.271h-7.982v-7.514h7.918c3.46.051,5.224,1.591,5.255,3.815-.101,2.531-1.397,3.553-5.19,3.697v.002Zm-7.982-18.003h6.927c3.302.09,4.875,1.503,4.917,3.621-.187,2.715-.963,3.525-4.333,3.665h-7.511V3.858h0Zm13.261,8.548c1.386-1.028,2.262-2.757,2.211-5.068,0-4.357-4.034-6.748-8.774-6.748h-9.185c-.163,0-.503,0-.842.267-.332.262-.332.654-.332.878v22.28c0,.358.583,1.093,1.093,1.093h10.81c5.24,0,8.553-2.328,8.57-6.942,0-2.566-1.386-4.695-3.55-5.759h-.001Zm-36.705.501h-6.398V3.862h6.557c2.991.077,5.24,1.835,5.297,4.706-.108,2.53-1.719,4.293-5.457,4.338v.002Zm4.267,2.458c2.763-1.198,4.731-3.584,4.731-6.859-.054-4.224-3.466-7.918-8.748-7.918h-9.204c-.132-.017-.491.011-.732.296-.259.27-.286.552-.286.804v22.324c0,.172-.063.357.178.687.313.406.723.406.887.406h1.501c.135,0,.439,0,.785-.338.304-.397.205-.583.241-.755v-7.869h6.88l6.248,8.398c.191.248.642.564,1.048.564h1.512c.16,0,1.197-.232,1.197-.977.017-.337-.248-.778-.332-.873-1.877-2.505-4.658-6.264-5.91-7.892l.005.002Zm-39.866,1.021c1.056-2.136,3.488-6.923,5.143-10.305,0-.011.008-.017.008-.045.008.034.029.045.045.075,1.682,3.342,4.007,8.136,5.098,10.273h-10.295v.002ZM51.95.672c0-.021-.296-.699-.996-.671-.642-.026-1.025.671-1.025.671-2.209,4.264-10.297,20.284-11.582,22.85-.101.117-.225.278-.225.665.124.919,1.093.919,1.262.919h1.206c.575.096,1.246-.535,1.325-.786l2.306-4.741h13.383l2.397,4.837c.022.217.676.698,1.048.698.023,0,.068,0,.087-.007h1.529c.257,0,1.104-.296,1.104-.931,0-.296-.079-.437-.174-.614-1.387-2.884-9.411-18.526-11.645-22.888Zm-18.454-.082h-1.209c-.3-.096-1.24.334-1.24.735l-6.393,16.793L18.437,1.199c-.113-.536-.969-.717-1.033-.671h-.097c-.32-.106-.998.439-.998.688l-6.021,16.919C8.783,14.329,5.567,6.153,3.733,1.473c-.077-.371-.608-.935-1.175-.883H.999c-.101,0-.248-.017-.586.127C.1.897-.017,1.325.002,1.494.002,1.772.092,1.897.132,2.092l9.068,22.876c.344.548.852.654,1.014.654h.072s.817.05,1.063-.722c1.727-4.75,4.635-12.584,6.029-16.304,1.366,3.765,4.273,11.742,5.989,16.312.113.546,1.003.735,1.1.714.07.023.961-.168,1.042-.687,3.041-7.619,6.681-16.796,9.032-22.843.061-.195.09-.267.115-.57,0-.805-1.064-.932-1.161-.932Z"/>
  </g>
</svg>