<?xml version="1.0" encoding="UTF-8"?>
<svg id="Layer_2" data-name="Layer 2" xmlns="http://www.w3.org/2000/svg" width="275.965" height="43.845" viewBox="0 0 275.965 43.845">
  <defs>
    <style>
      .cls-1 {
        fill: #787878;
      }

      .cls-2 {
        fill: #adadad;
      }
    </style>
  </defs>
  <g id="Layer_1-2" data-name="Layer 1">
    <g>
      <path class="cls-1" d="m16.755,16.755V6.424H6.425v10.331"/>
      <path class="cls-1" d="m6.425,27.088h10.329v-10.333H6.425v10.333Z"/>
      <path class="cls-1" d="m6.425,37.419h10.329v-10.331H6.425v10.331Z"/>
      <path class="cls-1" d="m16.755,16.755h10.331V6.424h-10.331v10.331Z"/>
      <path class="cls-1" d="m16.755,37.419h10.331v-10.331h-10.331v10.331Z"/>
      <path class="cls-1" d="m27.086,16.755h10.331V6.424h-10.331v10.331Z"/>
      <path class="cls-1" d="m27.086,27.088h10.331v-10.333h-10.331v10.333Z"/>
      <path class="cls-1" d="m27.086,37.419h10.331v-10.331h-10.331v10.331Z"/>
      <path class="cls-2" d="m16.755,6.425V.606c-3.976.962-7.529,3.021-10.329,5.82h10.329"/>
      <path class="cls-2" d="m27.086,6.425V.606c3.978.962,7.532,3.021,10.331,5.82h-10.331"/>
      <path class="cls-2" d="m21.94,0c-1.779,0-3.527.207-5.185.606v5.82h10.331V.611c-1.656-.398-3.37-.611-5.146-.611"/>
      <path class="cls-2" d="m27.086,37.419v5.818c3.978-.962,7.532-3.021,10.331-5.818h-10.331"/>
      <path class="cls-2" d="m16.755,37.419v5.818c-3.976-.962-7.529-3.021-10.329-5.818h10.329"/>
      <path class="cls-2" d="m21.902,43.845c1.781,0,3.527-.207,5.184-.607v-5.818h-10.331v5.813c1.658.4,3.369.613,5.148.613"/>
      <path class="cls-2" d="m37.417,16.755h5.82c-.962-3.974-3.019-7.529-5.82-10.329v10.329"/>
      <path class="cls-2" d="m37.417,27.088h5.82c-.962,3.976-3.019,7.53-5.82,10.331v-10.331"/>
      <path class="cls-2" d="m43.845,21.94c0-1.779-.207-3.529-.607-5.185h-5.82v10.333h5.813c.402-1.656.615-3.37.615-5.148"/>
      <path class="cls-2" d="m6.425,27.088H.607c.959,3.976,3.019,7.53,5.818,10.331v-10.331"/>
      <path class="cls-2" d="m6.425,16.755H.607c.959-3.974,3.019-7.529,5.818-10.329v10.329"/>
      <path class="cls-2" d="m0,21.902c0,1.781.207,3.529.607,5.185h5.818v-10.333H.613c-.402,1.656-.613,3.372-.613,5.148"/>
      <path class="cls-2" d="m16.755,27.088h10.331v-10.333h-10.331v10.333Z"/>
      <path class="cls-2" d="m80.157,37.522h-1.977l-4.515-12.687c-.373-1.044-.82-2.35-1.269-3.841h-.074c-.449,1.453-.896,2.686-1.307,3.841l-4.701,12.687h-2.015l-8.545-24.7h2.947l5.486,16.418c.447,1.381.858,2.612,1.193,3.843h.074c.337-1.193.822-2.424,1.307-3.769l4.254-11.642-1.68-4.85h2.875l5.634,16.268c.485,1.418.97,2.612,1.305,3.807h.076c.297-1.233.633-2.352,1.081-3.695l5.373-16.38h2.873l-8.395,24.7"/>
      <path class="cls-2" d="m96.532,21.629c-3.322,0-5.225,2.686-5.225,6.863s1.977,6.941,5.261,6.941,5.261-2.761,5.261-6.941-1.902-6.863-5.297-6.863Zm5.559,13.954c-1.381,1.418-3.322,2.202-5.596,2.202-2.202,0-4.104-.748-5.485-2.166-1.606-1.64-2.464-4.14-2.464-7.051s.896-5.335,2.464-6.977c1.417-1.456,3.32-2.276,5.522-2.276,2.275,0,4.178.82,5.596,2.276,1.566,1.642,2.462,4.066,2.462,6.977s-.896,5.373-2.5,7.015"/>
      <path class="cls-2" d="m111.234,37.785c-2.166,0-3.098-1.382-3.098-3.248V10.994h2.723v22.312c0,1.678.411,2.015,1.456,2.015.186,0,.485,0,.932-.112l.335,1.979c-.82.409-1.455.597-2.349.597"/>
      <path class="cls-2" d="m121.158,37.785c-2.538,0-3.769-1.494-3.769-3.769v-11.941h-2.873v-2.314h2.873v-3.881l2.725-.932v4.812h5.409l-.97,2.314h-4.439v11.119c0,1.492.559,2.165,1.716,2.165,1.267,0,2.424-.708,3.133-1.269l.86,1.939c-1.307.971-3.023,1.756-4.665,1.756"/>
      <path class="cls-2" d="m133.992,21.629c-2.61,0-4.254,2.312-4.254,5.11h8.322c0-2.462-1.381-5.11-4.068-5.11Zm-4.29,7.424c0,3.36,1.939,6.344,5.858,6.344,1.492,0,3.133-.597,4.18-1.269l.82,1.865c-1.267,1.044-3.507,1.792-5.559,1.792-5.524,0-8.212-4.517-8.212-9.553,0-5.113,2.913-8.918,7.166-8.918,4.553,0,7.053,3.619,7.053,9.104v.634h-11.306"/>
      <path class="cls-2" d="m153.469,22.485c-.371-.148-.932-.297-1.678-.297-1.044,0-2.761.894-3.881,2.127v13.096h-2.722v-17.649h2.237l.373,2.015c2.426-2.201,3.767-2.462,5.036-2.462.784,0,1.456.297,1.792.523l-1.157,2.648"/>
      <path class="cls-2" d="m160.26,37.785c-2.538,0-4.066-.672-5.225-1.345l1.047-2.127c.818.523,2.35,1.269,4.291,1.269,2.163,0,3.729-.97,3.729-2.612,0-4.329-8.021-2.799-8.021-8.992,0-2.538,1.828-4.665,5.858-4.665,1.865,0,3.282.411,4.439.932v2.388c-1.231-.521-2.5-1.044-4.327-1.044-1.792,0-3.284.634-3.284,2.239,0,3.954,8.17,2.947,8.17,8.731,0,3.693-3.059,5.225-6.678,5.225"/>
      <path class="cls-2" d="m191.081,37.41l-9.816-11.119h-.036v11.119h-2.723V12.822h2.723v11.306h.036l9.143-11.232h3.394l-10.111,12.089,11.009,12.426h-3.619"/>
      <path class="cls-2" d="m200.408,37.785c-2.165,0-3.096-1.382-3.096-3.248V10.994h2.723v22.312c0,1.678.409,2.015,1.455,2.015.187,0,.487,0,.934-.112l.337,1.979c-.822.409-1.456.597-2.352.597"/>
      <path class="cls-2" d="m217.273,37.41l-.708-1.828c-1.307,1.119-3.358,2.202-5.708,2.202-2.388,0-5.373-1.231-5.373-6.195v-11.829h2.722v11.566c0,2.949,1.233,4.106,3.435,4.106,2.239,0,3.954-1.417,4.699-2.35v-13.321h2.725v10.263c0,5.559.112,6.64.373,7.386h-2.165"/>
      <path class="cls-2" d="m241.488,37.522h-2.462l-4.401-14.253h-.114l-4.365,14.253h-2.388l-5.896-17.761h2.763l4.328,14.03h.112l4.365-14.03h2.464l4.401,14.068h.112l4.254-14.068h2.649l-5.822,17.761"/>
      <path class="cls-2" d="m255.855,21.629c-2.613,0-4.255,2.312-4.255,5.11h8.322c0-2.462-1.381-5.11-4.066-5.11Zm-4.291,7.424c0,3.36,1.939,6.344,5.858,6.344,1.492,0,3.134-.597,4.18-1.269l.82,1.865c-1.269,1.044-3.507,1.792-5.56,1.792-5.521,0-8.208-4.517-8.208-9.553,0-5.113,2.911-8.918,7.164-8.918,4.551,0,7.051,3.619,7.051,9.104v.634h-11.305"/>
      <path class="cls-2" d="m274.808,22.485c-.373-.148-.932-.297-1.678-.297-1.045,0-2.761.894-3.881,2.127v13.096h-2.725v-17.649h2.239l.375,2.015c2.424-2.201,3.769-2.462,5.036-2.462.784,0,1.456.297,1.792.523l-1.157,2.648"/>
      <path class="cls-2" d="m43.695,35.17h-.726v2.237h-.647v-2.237h-.806v-.514h2.312l-.133.514"/>
      <path class="cls-2" d="m46.433,37.407v-1.402c0-.099,0-.213.005-.296h-.005c-.023.058-.137.22-.182.292l-.452.676h-.279l-.514-.701c-.058-.079-.124-.162-.184-.267h-.007c.004.092.004.2.004.276v1.422h-.634v-2.75h.577l.688.961c.083.117.15.216.213.326h.009c.05-.101.115-.218.2-.348l.618-.939h.58v2.75h-.636"/>
    </g>
  </g>
</svg>