<?xml version="1.0" encoding="UTF-8"?>
<svg id="Layer_2" data-name="Layer 2" xmlns="http://www.w3.org/2000/svg" width="190.146" height="41.879" viewBox="0 0 190.146 41.879">
  <defs>
    <style>
      .cls-1 {
        fill: #adadad;
      }
    </style>
  </defs>
  <g id="Layer_1-2" data-name="Layer 1">
    <path class="cls-1" d="m160.986,21.558h.001c.061.019.123.028.186.028.87,0,1.796-1.665.423-2.186-.544-.206-1.519-.26-2.249-.26-.25,0-.472.006-.637.015-.326.017-.89.072-1.522.143-.023-1.301-.111-6.161.11-8.817.204-2.501.435-4.47,1.363-5.536.455-.521.832-.705,1.158-.705.592,0,1.016.605,1.428.914.242.181.502.261.748.261.583,0,1.092-.45,1.126-1.082,0-.007,0-.015,0-.023v-.102c-.042-1.078-1.424-1.754-2.932-1.754-.442,0-.895.057-1.329.181-.994.283-4.652,2.138-5.314,7.448-.348,2.795-.272,7.274-.107,9.509-1.041.138-2.875.389-4.057.554-.017-.338-.043-.698-.079-1.014-.117-.945-.421-6.69.136-10.784.511-3.787,1.583-5.535,3.063-5.535.119,0,.24.011.365.033.577.106,1.031.42,1.62.42.146,0,.3-.019.466-.065.732-.204,1.51-1.626-.045-2.173-.221-.078-.509-.121-.846-.125-.019,0-.038,0-.057,0-.019,0-.039,0-.059,0-2.573.033-7.725,2.203-8.294,8.193-.432,4.549-.306,3.444-.119,8.045.025.577.138,2.426.196,3.347-.927.054-1.929.095-2.708.095h-.031c-.292,0-.482.092-.6.238-.172-3.34-.99-5.503-2.622-6.617-.757-.515-1.791-.843-2.881-.843-1.637,0-3.401.737-4.547,2.677-1.796,3.035-2.344,6.095-2.348,8.656v.056c.004,2.283.438,4.164.798,5.269.949,2.905,2.89,3.478,3.622,3.604.416.072.811.107,1.188.107,4.945,0,6.557-5.901,6.744-9.008.059-.991.085-1.911.077-2.764.226.482.65.905,1.07.905.436,0,1.222-.071,2.162-.183.075,1.52.357,8.003.294,10.367-.066,2.416-1.123,4.41-2.36,4.476-.021,0-.041.001-.06.001-.804,0-.934-.882-1.411-.882-.853,0-.796.926-.413,1.248.222.184,1.228.957,2.551.957.974,0,2.121-.418,3.252-1.799,1.573-1.918,2.126-5.812,2.219-9.973.034-1.426-.163-3.561-.217-4.942.697-.114,1.341-.223,1.861-.322.713-.136,1.485-.242,2.232-.326.197,1.759.668,6.714.615,10.413-.071,5.074-.232,7.956-1.471,8.365-.198.065-.371.091-.529.091-.456,0-.778-.21-1.155-.253-.036-.004-.07-.006-.102-.006-.428,0-.572.337-.351.703.245.41,1.262,1.054,2.296,1.077.016,0,.031,0,.047.001h.024c.016,0,.031,0,.047-.001.105-.003.209-.011.313-.028,3.369-.541,3.995-3.257,4.316-8.102.287-4.355-.241-10.548-.337-12.485.36-.032.77-.074,1.248-.074.663,0,1.456.08,2.427.369Zm-22.012,4.912h-.001c-.57,3.898-1.733,5.039-2.744,5.039-.69,0-1.309-.532-1.619-1.083-.879-1.566-1.166-3.633-1.207-4.955-.052-1.673-.163-6.016,1.34-8.828.309-.55.849-1.121,1.435-1.241.041-.011.096-.019.164-.019.723,0,2.821.817,2.827,7.165.002.939-.106,3.308-.196,3.921Zm-93.02-5.02h.001c.023-.367.732-.167,1.862-.318,1.546-.203,2.381-.591,3.187-.966,1.63-.758,3.126-1.819,4.343-3.147,2.377-2.587,3.639-6.225,3.132-9.697-.339-2.32-1.512-4.588-3.467-5.891-1.474-.981-3.282-1.358-5.051-1.421-1.77-.065-3.538.159-5.306.269-1.683.108-3.275.302-4.951.119-.187-.019-1.274-.116-1.533-.138-.894-.086-1.313-.189-1.621.599-.325.832.501,1.561,1.268,1.656.942.118,3.71.114,3.71.114,0,0,.034,21.068.066,31.332,0,.368,0,.833-.094,1.064-.031.074-.792.125-1.166.079-.383-.046-.894-.098-1.219.027-.328.124-.396.603-.174.872.15.183.419.215.654.204,2.572-.133,4.904-.213,7.598-.007.251.018.586.056.781-.102.26-.212.509-.86.115-1.085-.251-.144-.557-.064-.891-.042-.253.022-1.052-.155-1.052-.155,0,0-.193-.486-.204-1.075-.079-1.922-.113-4.667-.119-5.753,0-1.611-.019-3.115.065-4.721.023-.434.026-1.204.066-1.818Zm-.186-14.417h-.002c-.038-1.196-.145-2.398-.027-3.85.027-.344.215-.687.767-.706.706-.025,1.321-.06,1.929.034,1.926.294,3.821,1.222,4.943,2.816,1.185,1.68,1.379,3.892,1.041,5.919-.333,2.017-1.162,3.971-2.498,5.521-1.336,1.55-3.19,2.679-5.209,3.018-.167.026-.345.049-.5-.02-.328-.147-.371-.588-.365-.948.074-3.927.047-7.855-.079-11.782Zm44.861,27.291h-.002c-.526-.152-.833.612-1.279.948-.526.396-1.308.124-1.714-.412-.408-.539-.529-1.252-.617-1.938-.66-5.116.223-10.291.342-15.456.011-.539.023-.844.023-.844,0,0,.285-.068.664-.088.707-.037,1.347-.006,2.066.034,1.109.06,2.155-.079,2.42-.403.172-.216.317-.496.328-.952.011-.694-.394-.76-1.2-.714-1.553.088-4.109.4-4.109.4,0,0,.031-.278.023-.812-.015-1.189-.12-2.376-.3-3.552-.162-1.05-.543-2.125-1.262-2.829-.634-.622-4.241-1.652-4.326-.105-.02.374.551.63.781.802.668.497.822,1.499.971,2.292.179.95.283,1.917.34,2.883.036.58-.015,1.676-.015,1.676,0,0-1.675.212-2.508.312-.339.039-.464.256-.534.539-.102.413.204.864.586.985.39.12,1.134.047,1.802-.068l.627-.11s-.147,3.372-.204,4.167c-.113,1.593-.244,3.176-.36,4.77-.208,2.841-.309,5.726.207,8.541.265,1.45.792,3.002,2.001,3.713.911.536,2.062.467,3.007,0,.943-.468,1.698-1.293,2.295-2.203.167-.254.328-.531.351-.838.027-.309-.125-.656-.405-.739Zm12.674-21.558h.001c-.589.05-.996.948-.996.948,0,0-2.208-1.645-4.544-1.181-3.386.672-5.63,4.142-4.566,7.444.521,1.614,1.604,2.986,2.732,4.258,1.127,1.273,2.332,2.502,3.178,3.973.392.678.705,1.421.765,2.202.059.782-.161,1.607-.715,2.161-.721.723-1.917.855-2.849.435-.932-.418-1.594-1.312-1.879-2.293-.125-.434-.183-.893-.371-1.306-.19-.412-.549-.788-1.002-.829-.422-.037-.826.233-1.044.595-.217.363-.269.799-.26,1.219.045,1.619,1.03,3.155,2.437,3.973,1.403.815,3.175.929,4.712.398,1.539-.528,2.836-1.664,3.664-3.056.622-1.05.994-2.274.9-3.489-.127-1.636-1.07-3.101-2.166-4.324-1.098-1.222-2.375-2.283-3.399-3.568-.642-.81-1.179-1.701-1.591-2.644-.221-.503-.408-1.06-.268-1.589.159-.6.705-1.027,1.281-1.268.564-.237,1.196-.34,1.797-.215.6.124,1.16.493,1.446,1.033.393.745.266,1.759.888,2.329.507.465,1.419.364,1.814-.198.428-.61.208-1.437.179-2.181-.023-.575-.045-1.172.174-1.703.093-.226.358-.497.281-.729-.102-.305-.277-.423-.6-.396Zm-24.207,15.092c-.347-.038-.548.331-.739.635-.524.838-1.215,1.702-2.037,2.209-.826.504-1.865.61-2.753.237-1.754-.758-2.465-3.196-2.728-4.972-.109-.727-.226-2.396.002-2.764.143-.229.69-.206.951-.226,1.917-.147,3.006-.218,4.595-.26.724-.018,1.521-.046,2.062-.551.509-.471.645-1.237.696-1.947.085-1.18.011-2.371-.22-3.528-.192-.977-.515-1.958-1.116-2.729l-.181-.214c-1.122-1.236-2.967-1.569-4.531-1.083-3.437,1.066-4.79,4.794-5.38,8.129-.11.62-.119.723-.538.763-.32.03-.948.091-.845.487.094.366.781.555.868.939.147.627-.06,1.648-.091,2.433-.034.947.039,1.882.204,2.817.23,1.307.733,2.565,1.547,3.594.89,1.122,2.166,1.946,3.554,2.1,1.149.128,2.32-.2,3.328-.791,1.005-.592,1.86-1.435,2.601-2.361.357-.449.69-.918.971-1.421.145-.26.28-.546.272-.849-.008-.3-.206-.616-.494-.647Zm-7.219-11.04v-.002c.335-.883.975-2.547,2.154-2.327.164.032.309.102.436.2.368.283.593.796.722,1.276.43,1.592.37,3.277.306,4.931-.016.408-.211.556-.598.564-.804.022-1.614.104-2.419.064-.914-.047-1.528.011-1.533-.411-.011-1.324.494-3.136.932-4.295Zm-5.948,13.237h0c-.178.006-.315.166-.426.318-.575.766-1.12,1.573-1.836,2.19-.716.623-1.647,1.042-2.558.881-.762-.136-1.426-.663-1.886-1.321-.464-.655-.742-1.433-.968-2.218-.272-.946-.498-1.955-.569-2.943-.05-.676-.097-1.274.113-1.496.165-.177.869-.169,1.582-.208,1.871-.102,2.961-.17,4.646-.29.346-.025.711-.056,1-.257.43-.299.583-.883.663-1.42.294-1.965.061-4.019-.668-5.854-.257-.648-.586-1.281-1.056-1.769l-.263-.243c-1.126-.936-2.774-.878-4.077-.249-1.471.714-2.875,2.057-3.675,3.534-.444.819-.8,1.691-1.064,2.592-.145.49-.196,1.029-.285,1.533-.071.404-.05,1.19-.324,1.19-.238,0-.665-.005-.894.058-.215.052-.487.246-.215.709.235.396.982.582.982.872,0,.784-.023,2.232.014,3.013.085,1.8.54,3.62,1.551,5.068,1.007,1.448,2.626,2.482,4.323,2.47,1.09-.008,2.15-.435,3.067-1.062,1.415-.967,2.521-2.43,3.109-4.102.068-.192.129-.401.097-.603-.034-.203-.192-.401-.387-.395Zm-7.84-7.456c.105-1.064.351-2.11.719-3.104.328-.886.736-1.955,1.555-2.457.317-.189.729-.248,1.038-.047.306.203.437.583.532.939.396,1.516.464,3.115.301,4.678-.034.328-.102.697-.367.874-.147.1-.333.116-.509.132-.762.06-1.238.067-2.001.124-.449.03-.993.081-1.222.011-.226-.068-.085-.758-.045-1.151Zm128.248,5.259h-.001c-.347-.038-.602.316-.792.622-.525.834-1.158,1.623-1.984,2.131-.823.509-1.865.701-2.75.328-1.756-.758-2.467-3.196-2.73-4.972-.107-.728-.226-2.396.002-2.764.143-.23.69-.206.951-.226,1.919-.147,3.007-.216,4.597-.258.724-.021,1.52-.046,2.06-.553.509-.471.645-1.237.697-1.947.084-1.181.011-2.371-.219-3.528-.195-.979-.515-1.961-1.116-2.729l-.181-.214c-1.119-1.237-2.966-1.569-4.531-1.083-3.438,1.066-4.79,4.794-5.38,8.129-.11.619-.12.726-.539.762-.319.031-.947.09-.845.487.095.367.781.557.869.939.145.628-.061,1.648-.091,2.433-.034.948.038,1.881.204,2.819.23,1.307.732,2.565,1.547,3.593.888,1.122,2.165,1.946,3.554,2.099,1.149.13,2.32-.2,3.325-.791,1.007-.592,1.862-1.435,2.603-2.36.355-.449.69-.918.971-1.421.147-.26.281-.547.272-.849-.007-.3-.206-.615-.493-.647Zm-7.22-11.04v-.002c.336-.883.975-2.547,2.155-2.327.164.032.309.102.438.199.366.283.592.797.721,1.277.43,1.591.369,3.277.306,4.931-.016.408-.211.553-.598.564-.806.022-1.614.104-2.419.063-.917-.047-1.528.013-1.534-.408-.011-1.326.494-3.14.93-4.297Zm-5.946,13.238h-.002c-.178.005-.315.166-.426.316-.575.767-1.121,1.573-1.836,2.192-.716.623-1.646,1.042-2.558.881-.762-.136-1.426-.664-1.887-1.321-.462-.655-.742-1.434-.967-2.218-.272-.946-.498-1.955-.571-2.943-.049-.676-.096-1.274.113-1.496.166-.177.871-.169,1.585-.208,1.868-.099,2.96-.17,4.645-.29.346-.026.711-.056,1.001-.258.43-.298.583-.881.663-1.419.294-1.966.061-4.019-.668-5.854-.258-.646-.586-1.281-1.056-1.769l-.263-.243c-1.126-.934-2.774-.878-4.077-.246-1.471.713-2.875,2.055-3.675,3.532-.444.82-.8,1.691-1.064,2.592-.147.492-.196,1.029-.286,1.534-.07.403-.05,1.191-.324,1.191-.234,0-.663-.005-.894.058-.212.053-.485.245-.212.709.235.396.982.582.982.872,0,.785-.023,2.232.011,3.013.088,1.8.543,3.619,1.551,5.069,1.011,1.448,2.626,2.482,4.326,2.469,1.09-.007,2.15-.435,3.067-1.061,1.415-.968,2.521-2.431,3.108-4.102.07-.192.131-.4.099-.604-.034-.204-.193-.399-.387-.396Zm-7.842-7.456v-.002c.105-1.062.349-2.109.719-3.101.328-.887.736-1.957,1.555-2.457.317-.192.729-.25,1.038-.047.306.203.437.582.532.937.396,1.517.464,3.118.301,4.682-.034.329-.102.697-.367.872-.147.102-.333.117-.51.134-.76.059-1.239.067-2.001.124-.45.03-.993.081-1.222.011-.226-.068-.085-.758-.045-1.152Zm-36.013,10.065h.001c-.566.681-3.203,5.139-9.062,1.87-5.858-3.271-7.102-14.583-4.29-23.354,2.817-8.771,9.044-6.968,9.863-6.381.819.586,2.547,1.75,2.365,5.507-.113,2.342.765,3.022,1.525,3.078.851.061,1.531-.716,1.732-1.908.204-1.194.164-4.754.541-6.167.377-1.412.772-1.595.637-2.249-.131-.652-1.071-.798-1.577.487-.371.948-.479,1.319-.479,1.319,0,0-2.389-3.704-8.392-2.276-6.003,1.429-9.179,5.731-10.822,12.983-1.648,7.252-1.158,16.382,4.954,20.995,6.112,4.614,12.278-.457,12.996-1.304.716-.849,1.539-2.085,1.435-2.444-.122-.411-.86-.835-1.426-.156Zm-36.833-19.097c.521-.16,1.128-.754,1.478-1.146.559-.632,1.109-1.547,1.111-2.414,0-.292-.098-.514-.26-.669-.234-.222-.595-.31-.978-.279-.86.068-1.766.493-2.015,1.367-.14.504-.102,3.378.663,3.141ZM27.09,8.456h.001c-.98-.725-2.888-1.598-5.725-1.598-.83,0-2.999-.068-3.617-.049,0,0-10.597-.062-15.909.049-.813.017-1.84.534-1.84,1.763,0,0,.019,8.017.019,10.766,0,3.025-.019,12.104-.019,12.104,0,1.334,1.098,1.334,1.599,1.334h16.51c.509,0,1.553,0,1.553-.957l.023-5.112c10.304,0,11.27-6.945,11.27-9.909,0-3.846-1.607-6.724-3.864-8.391ZM5.664,19.358l-.005-.009-.052-.057c-.28-.333-.509-.635-.728-.928-.226-.298-.455-.602-.736-.939-.249-.3-.634-.71-1.004-1.108-.573-.618-1.216-1.308-1.298-1.518-.162-.407.034-.628.122-.704.094-.08.209-.123.328-.123l.236.07c.294.205,1.919,2.156,2.66,3.068.145.178.283.375.413.56.134.19.272.384.419.569l.235.252.226.241.159.182c.139.153.294.325.36.49.122.315-.109.587-.333.851l-.063.076c-.781.934-2.119,2.603-3.004,3.707l-.008.011c-.47.584-.841,1.046-.877,1.088-.079.083-.206.13-.34.13l-.12-.011c-.159-.036-.272-.135-.317-.269-.102-.305.276-.751.503-1.017v.002s.103-.121.103-.121c.344-.428,1.124-1.343,1.751-2.078l.011-.014c.447-.526.834-.981.956-1.132.079-.097.611-.772.64-.911.019-.084-.061-.178-.238-.356Zm6.628,11.109l-.003.002c-.186.158-.487.212-.699-.042-.423-.498-.807-1.062-1.177-1.606-.294-.429-.594-.872-.913-1.279l-.063-.034-.066.034c-.643.838-2.23,2.787-2.318,2.893-.158.189-.398.31-.608.31h-.026c-.149-.008-.268-.074-.353-.194-.287-.408.008-.818.393-1.273l.104-.125c.278-.34.557-.676.835-1.013l.034-.04c.294-.359.593-.718.886-1.076l.015-.019c.143-.172.302-.367.482-.487.17-.112.387-.177.594-.177.256,0,.481.095.634.27.19.219.38.489.566.752l.02.031.19.263c.238.326.472.654.708.98l.081.116c.256.354.512.709.77,1.062.192.266.075.517-.086.654Zm.021-4.923h-.002c-.192.162-.495.221-.708-.036-.551-.662-1.081-1.372-1.594-2.06-.204-.272-.403-.538-.606-.805l-.063-.032-.063.029c-.041.05-.26.303-.564.651-.781.897-2.23,2.565-2.954,3.436-.532.64-1.623,2.03-2.275,2.859-.275.348-.472.598-.491.62-.159.164-.345.252-.521.252h-.043c-.147-.016-.272-.095-.37-.237-.181-.266-.096-.614.079-.823.102-.122.48-.544.917-1.033.766-.858,1.813-2.029,2.309-2.618,1.064-1.267,3.367-3.868,3.554-3.995.2-.132.437-.207.648-.207.23,0,.419.086.549.244.113.149.659.886,1.185,1.603l.015.019c.413.562.841,1.145,1.087,1.472.198.265.077.522-.088.662Zm-.085-10.278l-.004-.004-.028.034-.659.807-.037.045c-.573.703-1.222,1.497-1.398,1.683-.186.219-.48.408-.774.408l-.283-.065c-.28-.09-.528-.412-.747-.693-.11-.144-.215-.279-.308-.366-.335-.399-.679-.817-1.01-1.22l-.043-.051c-.697-.846-1.415-1.721-2.073-2.475-.252-.302-.517-.614-.773-.916l-.017-.019c-.521-.615-1.058-1.248-1.526-1.84l-.212-.237c-.138-.147-.283-.304-.379-.471-.109-.131-.167-.265-.147-.544.015-.205.129-.325.222-.388.154-.104.367-.131.543-.069.173.064.39.339.566.562l.111.14c.049.059,5.082,6.218,6.037,7.437l.062.031.066-.028.249-.294c.374-.441,1.067-1.268,1.389-1.637l.131-.155c.083-.098.164-.195.294-.342l.06-.075c.087-.108.147-.185.349-.289l.008-.002c.204-.038.427.107.547.259.154.282.014.487-.215.776Zm-.027-5.117h0s-.027.032-.027.032c-.133.158-.263.32-.407.501l-.016.02c-.158.199-.324.403-.492.6-.339.401-.697.829-1.096,1.312-.158.192-.371.309-.651.36l-.179.018c-.249,0-.461-.104-.634-.309-.096-.114-.186-.234-.274-.354l-.219-.291c-.238-.299-.491-.595-.734-.88l-.007-.011c-.186-.216-.376-.441-.566-.671l-.242-.285c-.129-.148-.26-.3-.38-.46-.163-.215-.141-.446.057-.619.104-.09.189-.115.317-.1.042.007.181.056.286.147.066.056.366.374.487.521.125.153.26.334.389.506.128.173.26.352.385.504.091.109.188.219.272.317l.009.006.252.295.532.59.063.023.059-.028.247-.266.011-.012c.086-.088.177-.18.26-.281.175-.212.364-.409.545-.598.178-.187.36-.376.532-.579.12-.144.233-.296.335-.43.102-.141.208-.283.324-.418.119-.144.302-.318.495-.332l.283.11.008.006.009.008c.332.311.091.657-.233,1.045Zm8.125,10.46h-.244c-.153,0-.419-.125-.419-.516,0-.66.034-1.924.034-3.148,0-1.612-.034-3.154-.034-3.154,0-.283.221-.514.495-.514h.79c1.045,0,1.748.323,2.109.588.833.615,1.424,1.675,1.424,3.092,0,1.092-.354,3.652-4.154,3.652Zm169.401-7.026l-.422,1.807-.438-1.807h-.426v2.263h.267v-1.927l.464,1.927h.264l.446-1.899v1.899h.264v-2.263h-.419Zm-2.897.336h.562v1.927h.29v-1.927h.566v-.336h-1.418v.336Z"/>
  </g>
</svg>