<?xml version="1.0" encoding="UTF-8"?>
<svg id="Layer_2" data-name="Layer 2" xmlns="http://www.w3.org/2000/svg" width="111.081" height="53.997" viewBox="0 0 111.081 53.997">
  <defs>
    <style>
      .cls-1 {
        fill: #adadad;
      }
    </style>
  </defs>
  <g id="Layer_1-2" data-name="Layer 1">
    <path class="cls-1" d="m31.297,37.782c.028,2.569-2.031,4.673-4.599,4.702-.034,0-.069,0-.103,0-2.548.049-4.653-1.975-4.703-4.522-.001-.061-.001-.12,0-.18v-16.216c-.081-1.606.724-2.468.973-2.755h-6.324c.332.287,1.135,1.206,1.135,2.757v15.246c.008,4.946,3.992,8.468,8.919,8.433,4.897.035,8.878-3.487,8.919-8.433v-15.249c-.032-1.609.77-2.468,1.135-2.757h-6.324c.216.286,1.019,1.205.973,2.757v16.216Zm-24.973,7.138c-.249-.321-1.054-1.184-.973-2.76v-10.378h5.514c1.011.009,1.873.467,2.432.973l-.162-3.566h-7.784v-7.783h7.459c1.016-.067,1.878.391,2.432.973l-.162-3.568H0c.332.287,1.135,1.206,1.135,2.757v20.595c0,1.576-.803,2.435-1.135,2.76h6.324v-.003Zm30.811,9.078c.297-.21,3.513-3.829,3.567-6.325v-26.107c-.023-1.027-.428-2.011-1.135-2.757h6.324c-.303.286-1.108,1.148-1.135,2.757v22.54c.027,5.489-2.5,9.738-7.622,9.892Zm16.703-11.834c.022,1.576.824,2.435,1.135,2.76h-6.324c.27-.323,1.073-1.24,1.135-2.919v-20.437c-.03-1.025-.434-2.006-1.135-2.755h6.324c-.311.287-1.113,1.149-1.135,2.757v20.595Zm8.432-23.352h6.324M47.027,2.757c1.549-2.035,3.343-2.681,5.351-2.757,3.857.076,6.949,3.168,6.973,6.974-.024,3.819-3.116,6.911-6.973,6.973-1.441-.074-2.838-.522-4.054-1.298-1.359-.859-2.622-2.623-3.243-3.405-.673-.83-1.688-1.308-2.757-1.298-2.06,0-3.73,1.671-3.73,3.73.024,1.998,1.678,3.652,3.73,3.73,1.762-.079,3.722-1.708,4.216-2.595v2.595c-1.084,1.172-2.62,1.822-4.216,1.784-3.084.005-5.573-2.483-5.514-5.514-.059-3.115,2.43-5.608,5.514-5.675,1.63.068,3.1.775,4.054,1.946.932,1.16,2.095,2.69,3.243,3.243.795.512,1.759.827,2.757.811,2.731.045,4.982-2.132,5.027-4.863,0-.054,0-.108,0-.161.054-2.773-2.203-5.027-5.027-5.027-2.389,0-4.262,1.36-5.676,4.22l.324-3.412Zm58.865,35.024c-.016,2.605-2.143,4.733-4.703,4.702-2.64.041-4.816-2.063-4.865-4.702v-16.216c.032-1.609.838-2.468,1.135-2.757h-6.324c.281.286,1.086,1.205,1.135,2.757v15.246c-.04,4.946,3.94,8.468,8.919,8.432,4.846.036,8.83-3.486,8.757-8.432v-15.246c.081-1.609.884-2.468,1.135-2.757h-6.324c.33.286,1.132,1.205,1.135,2.757v16.216h0Zm-49.622-15.241c1.262-1.433,2.527-1.203,3.567-1.135h3.568v20.595c-.013,1.679-.816,2.598-1.135,2.919h6.324c-.262-.321-1.067-1.184-1.135-2.76v-20.754h3.405c1.084-.067,2.003-.181,2.595,1.135l1.135-3.73h-17.189l-1.135,3.73m31.622,0v-3.73c-2.103-.576-11.522-2.124-13.297,5.19-.462,2.622.684,6.01,4.054,7.783,2.203,1.041,5.073,2.649,6,3.243,1.486.897,1.757,2.286,1.297,4.054-.443,1.956-5.211,6.206-11.351.81l1.297,4.541c3.811,1.488,9.957.914,12.811-2.27,2.773-3.135,2.313-7.787-.649-9.731-1.908-1.302-6.743-3.972-7.622-4.378-.732-.397-3.43-3.5-.486-6.325,2.9-2.784,7.049-1.138,7.946.811h0Z"/>
  </g>
</svg>