<?xml version="1.0" encoding="UTF-8"?>
<svg id="Layer_2" data-name="Layer 2" xmlns="http://www.w3.org/2000/svg" width="154.039" height="43.779" viewBox="0 0 154.039 43.779">
  <defs>
    <style>
      .cls-1 {
        fill: #adadad;
      }
    </style>
  </defs>
  <g id="Layer_1-2" data-name="Layer 1">
    <path class="cls-1" d="m68.321,28.338l-9.325-16.128h-4.55v20.601h3.25l.003-16.273,9.325,16.273h4.586V12.21h-3.293l.004,16.128Zm12.766-11.421c-1.801.001-3.597.185-5.36.549l-.207.044v2.75l.3-.054c1.57-.281,3.348-.598,4.95-.598,4.039,0,4.078.664,4.082,3.449-.442-.019-1.883-.086-2.188-.086-3.058,0-8.175,0-8.175,4.965,0,4.561,3.308,5.192,6.886,5.192,1.84,0,3.993-.039,6.703-.343l.239-.028v-10.589c0-4.856-3.317-5.251-7.23-5.251Zm3.972,13.675c-.449.032-1.918.136-2.738.136-2.188,0-4.516-.207-4.516-2.705,0-2.161,1.824-2.596,4.773-2.596h0c.199,0,1.843.06,2.48.086v5.079Zm13.043-7.257c-1.832-.4-3.414-.744-3.414-1.947,0-1.449,1.933-1.753,3.562-1.753,1.465,0,2.989.245,4.289.484l.297.055v-2.794l-.558-.082c-1.149-.172-2.578-.382-4.547-.382-4.102,0-6.454,1.702-6.454,4.674,0,3.048,2.426,3.934,4.7,4.525.23.058.503.113.793.167l.098.02c1.55.297,3.48.669,3.48,2.149,0,1.765-2.793,1.953-3.992,1.953-1.485,0-2.969-.313-4.688-.68l-.308-.066v2.878l.211.039c1.949.376,3.586.552,5.156.552,4.523,0,7.113-1.84,7.113-5.047,0-3.495-3.176-4.192-5.738-4.746Zm18.567-6.188c-1.153-.144-1.997-.164-2.61-.164h-.41c-4.887,0-7.922,3.191-7.922,8.32,0,4.942,3.289,8.009,8.582,8.009,2.532,0,5.812-.558,5.812-.558V10.957h-3.452v6.19Zm-.001,13.351c-.946.081-1.64.122-2.246.122-3.152,0-5.114-2.071-5.114-5.403,0-3.711,1.626-5.516,4.97-5.516.683,0,1.445.069,2.39.222v10.575Zm12.86-13.581c-1.789,0-3.544.179-5.364.549l-.202.044v2.75l.3-.054c1.57-.281,3.348-.598,4.949-.598,4.039,0,4.074.664,4.078,3.449-.441-.019-1.879-.086-2.183-.086-3.059,0-8.176,0-8.176,4.965,0,4.561,3.309,5.192,6.882,5.192h0c1.844,0,3.996-.039,6.707-.343l.238-.028v-10.589c0-4.856-3.316-5.251-7.23-5.251Zm3.968,13.675c-.449.032-1.918.136-2.734.136-2.188,0-4.52-.207-4.52-2.705,0-2.161,1.828-2.596,4.778-2.596.199,0,1.844.06,2.476.086v5.079Zm18.582-13.478c-1.207-.07-2.457-.14-3.382-.14-2.586,0-4.305.372-5.762,1.242-2.902,1.755-3.336,5.009-3.336,6.789,0,3.567,1.57,6.347,4.203,7.442,1.176.496,2.695.792,4.063.792.578,0,1.293,0,2.64-.188v6.759l3.535-1.567v-21.028l-1.961-.102Zm-1.54,13.208c-1.351.172-1.961.172-2.504.172-2.23,0-4.882-.952-4.882-5.489,0-3.521,1.777-5.312,5.283-5.312h.002c.554,0,1.043.03,2.101.099v10.531Zm-122.932,1.046c-.288.788-1.001,1.343-1.836,1.427v.015h12.07c.945,0,1.754-.601,2.055-1.441L51.317,0h-12.293l-11.418,31.37Zm-1.133.091c.039-.055.176-.247.273-.509l4.188-11.512-2.45-6.723c-.442-1.055-1.655-1.551-2.709-1.108-.356.149-.664.396-.888.71-.04.055-.203.3-.273.509l-4.188,11.508,2.461,6.75c.326.758,1.073,1.25,1.898,1.25.7,0,1.313-.348,1.688-.875Zm-.793-20.49v-.003h-12.203c-.945,0-1.754.598-2.059,1.442L0,43.779h12.293l11.419-31.369c.303-.834,1.081-1.402,1.968-1.439Z"/>
  </g>
</svg>