<?xml version="1.0" encoding="UTF-8"?>
<svg id="Layer_2" data-name="Layer 2" xmlns="http://www.w3.org/2000/svg" width="158.98" height="29.219" viewBox="0 0 158.98 29.219">
  <defs>
    <style>
      .cls-1 {
        fill: #adadad;
        fill-rule: evenodd;
      }
    </style>
  </defs>
  <g id="Layer_1-2" data-name="Layer 1">
    <g id="Page-1">
      <g id="simplisafe-logo">
        <g id="Group">
          <path id="Shape" class="cls-1" d="m139.226,13.33c-.125,0-.199-.076-.199-.203,0-.507.075-.862.174-1.216.374-1.115,1.345-1.774,2.665-1.774s2.316.659,2.665,1.774c.1.329.174.71.174,1.216,0,.127-.075.203-.199.203h-5.28Zm2.839,10.213c2.939,0,5.28-1.064,6.799-2.712.125-.127.125-.329-.025-.482l-2.167-2.078c-.125-.177-.299-.127-.473,0-.922.862-2.067,1.444-3.661,1.444-1.644,0-2.864-.735-3.288-2.154-.1-.279-.174-.583-.199-.912,0-.127.075-.203.199-.203h9.663c.224,0,.374-.127.374-.329,0-2.762-.199-3.928-.523-4.992-.922-2.864-3.362-4.562-6.899-4.562-3.387,0-5.928,1.673-6.849,4.587-.324,1.014-.523,2.179-.523,3.903,0,1.673.224,2.864.573,3.852.872,2.914,3.362,4.638,6.999,4.638h0Zm-12.279-.38c.199,0,.324-.127.324-.329v-12.24c0-.127.075-.203.199-.203h2.615c.199,0,.324-.127.324-.329v-2.788c0-.203-.125-.329-.324-.329h-2.59c-.125,0-.199-.076-.199-.203v-.811c0-1.368.374-1.749,1.818-1.749h1.021c.199,0,.324-.127.324-.329V.684c0-.203-.125-.329-.324-.329h-1.818c-3.786,0-5.604,1.647-5.604,5.601v.76c0,.127-.075.203-.199.203h-.996c-.199,0-.324.127-.324.329v2.788c0,.203.125.329.324.329h.996c.125,0,.199.076.199.203v12.24c0,.203.125.329.324.329h3.91v.025h0Zm-15.417-3.142c-1.519,0-2.316-.583-2.316-1.723,0-1.267.897-1.85,2.839-1.85h2.242c.125,0,.199.076.199.203v1.115c0,1.521-.996,2.255-2.964,2.255h0Zm7.023,3.142c.199,0,.324-.127.324-.329v-10.39c0-4.055-1.868-5.879-7.098-5.879-2.64,0-4.583.634-5.928,1.622-.174.101-.199.279-.1.481l1.494,2.661c.1.177.274.203.423.076.747-.583,1.943-1.039,3.562-1.039,2.54,0,3.263.71,3.263,2.205v.608c0,.127-.075.203-.199.203h-2.839c-3.96,0-6.625,1.647-6.625,5.246,0,3.447,2.466,4.967,5.305,4.967,2.167,0,3.562-.71,4.383-1.774h.025v1.064c0,.203.125.329.324.329h3.686v-.051h0Zm-24.208.38c5.803,0,8.817-3.041,8.817-7.172s-2.441-6.285-7.048-6.918l-1.195-.177c-2.565-.38-3.487-1.216-3.487-2.509,0-1.445,1.021-2.484,2.989-2.484,1.843,0,3.487.608,5.205,1.749.174.101.324.076.473-.101l2.017-3.041c.174-.228.125-.38-.075-.507-1.868-1.47-4.657-2.382-7.621-2.382-4.857,0-7.945,2.788-7.945,6.969,0,4.029,2.54,6.209,7.098,6.842l1.195.177c2.665.38,3.462,1.216,3.462,2.56,0,1.622-1.32,2.712-3.661,2.712-2.366,0-4.383-1.14-5.878-2.357-.174-.127-.374-.127-.498.025l-2.515,2.914c-.174.203-.1.431.025.558,1.743,1.723,5.155,3.142,8.642,3.142h0Z"/>
          <path id="Shape-2" data-name="Shape" class="cls-1" d="m85.754,23.163c.199,0,.324-.127.324-.329V7.273c0-.203-.125-.329-.324-.329h-3.96c-.199,0-.324.127-.324.329v15.56c0,.203.125.329.324.329h3.96Zm0-18.804c.199,0,.324-.127.324-.329V.684c0-.203-.125-.329-.324-.329h-3.96c-.199,0-.324.127-.324.329v3.32c0,.203.125.329.324.329h3.96v.025h0Zm-6.874,19.007c.199,0,.324-.127.324-.329v-3.32c0-.203-.125-.329-.324-.329h-.697c-.946,0-1.395-.431-1.395-1.546V.684c0-.203-.125-.329-.324-.329h-3.96c-.199,0-.324.127-.324.329v17.511c0,3.599,1.42,5.17,4.956,5.17h1.743Zm-16.612-3.776c-1.22,0-2.067-.608-2.441-1.749-.199-.634-.299-1.343-.299-2.788s.1-2.154.299-2.788c.374-1.166,1.22-1.749,2.441-1.749,1.245,0,2.117.558,2.466,1.749.199.634.299,1.343.299,2.788s-.1,2.154-.299,2.788c-.349,1.14-1.22,1.749-2.466,1.749h0Zm-3.063,9.63c.199,0,.324-.127.324-.329v-7.223h.025c.722,1.115,2.067,1.875,4.184,1.875,2.665,0,4.583-1.343,5.405-3.903.398-1.267.573-2.509.573-4.587,0-2.103-.174-3.32-.573-4.587-.822-2.585-2.74-3.903-5.405-3.903-2.117,0-3.462.76-4.184,1.875h-.025v-1.166c0-.203-.125-.329-.324-.329h-3.96c-.199,0-.324.127-.324.329v21.617c0,.203.125.329.324.329h3.96Zm-7.82-6.057c.199,0,.324-.127.324-.329v-10.238c0-3.599-1.943-6.031-5.703-6.031-2.242,0-3.835.76-5.006,2.053h-.025c-.922-1.343-2.341-2.053-4.284-2.053-2.042,0-3.387.836-4.109,1.85h-.025v-1.14c0-.203-.125-.329-.324-.329h-4.01c-.199,0-.324.127-.324.329v15.56c0,.203.125.329.324.329h3.96c.199,0,.324-.127.324-.329v-9.326c0-1.774.922-2.94,2.515-2.94,1.644,0,2.466,1.166,2.466,2.94v9.326c0,.203.125.329.324.329h3.96c.199,0,.324-.127.324-.329v-9.326c0-1.774.897-2.94,2.466-2.94,1.644,0,2.515,1.166,2.515,2.94v9.326c0,.203.125.329.324.329h3.985Zm-27.147,0c.199,0,.324-.127.324-.329V7.273c0-.203-.125-.329-.324-.329h-3.96c-.199,0-.324.127-.324.329v15.56c0,.203.125.329.324.329h3.96Zm0-18.804c.199,0,.324-.127.324-.329V.684c0-.203-.125-.329-.324-.329h-3.96c-.199,0-.324.127-.324.329v3.32c0,.203.125.329.324.329h3.96v.025h0Zm-15.466,19.184c5.803,0,8.792-3.041,8.792-7.172s-2.441-6.285-7.048-6.918l-1.171-.177c-2.565-.38-3.487-1.216-3.487-2.509,0-1.445,1.021-2.484,3.014-2.484,1.843,0,3.487.608,5.205,1.749.174.101.324.076.473-.101l2.017-3.041c.174-.228.125-.38-.075-.507-1.868-1.47-4.657-2.382-7.621-2.382C4.013,0,.925,2.788.925,6.969c0,4.029,2.54,6.209,7.098,6.842l1.195.177c2.665.38,3.462,1.216,3.462,2.56,0,1.622-1.32,2.712-3.661,2.712-2.366,0-4.383-1.14-5.878-2.357-.174-.127-.374-.127-.498.025L.103,19.843c-.174.203-.1.431.025.558,1.743,1.723,5.155,3.142,8.642,3.142h0Z"/>
        </g>
        <g id="Fill-3-_-R" data-name="Fill-3-+-R">
          <path id="Fill-3" class="cls-1" d="m152.658,8.914c-.003-.41.082-.817.248-1.194.325-.732.926-1.317,1.678-1.632.784-.325,1.671-.325,2.455,0,.758.313,1.364.898,1.691,1.632.335.762.335,1.626,0,2.388-.324.732-.925,1.317-1.678,1.632-.783.325-1.671.325-2.455,0-.752-.316-1.353-.9-1.678-1.632-.171-.376-.26-.783-.261-1.194h0Zm.561,0c-.003.338.067.673.202.984.266.607.765,1.091,1.391,1.347.645.263,1.372.263,2.017,0,.623-.257,1.12-.74,1.384-1.347.27-.628.27-1.335,0-1.963-.266-.607-.764-1.091-1.391-1.347-.643-.261-1.367-.261-2.011,0-.623.257-1.12.74-1.384,1.347-.137.309-.208.642-.209.978h0Z"/>
          <path id="R" class="cls-1" d="m154.744,7.542h.207c.107,0,.232-.005.376-.014.144-.01.296-.014.458-.014s.31.014.446.043c.136.029.252.074.349.136.204.13.305.327.305.589,0,.201-.052.364-.157.489-.105.125-.248.215-.43.268.121.069.246.223.376.46.037.066.073.132.107.197.114.223.226.415.337.578h-.54c-.02-.024-.041-.056-.062-.097-.021-.041-.043-.081-.066-.122-.023-.041-.048-.093-.077-.158-.028-.065-.058-.13-.09-.197-.031-.066-.064-.132-.098-.196-.034-.064-.071-.123-.111-.177-.088-.118-.184-.192-.288-.221-.064.002-.141.004-.231.004h-.335v1.163h-.476v-2.732Zm.907.266c-.165,0-.309.011-.431.032v.987c.068.007.162.011.28.011h.222c.451,0,.677-.179.677-.537,0-.174-.052-.299-.156-.375-.11-.079-.307-.118-.591-.118h0Z"/>
        </g>
      </g>
    </g>
  </g>
</svg>