<?xml version="1.0" encoding="UTF-8"?>
<svg id="Layer_2" data-name="Layer 2" xmlns="http://www.w3.org/2000/svg" width="152.069" height="40.305" viewBox="0 0 152.069 40.305">
  <defs>
    <style>
      .cls-1 {
        fill: #adadad;
      }
    </style>
  </defs>
  <g id="Layer_1-2" data-name="Layer 1">
    <path class="cls-1" d="m21.25,34.156c-1.454,0-2.652,1.189-2.652,2.633s1.181,2.633,2.652,2.633c1.454,0,2.652-1.189,2.652-2.633s-1.198-2.633-2.652-2.633Zm.188-2.191v-5.265h-.188c-7.34,0-13.311,5.928-13.311,13.214v.17h5.321v-.187c0-4.364,3.576-7.932,7.99-7.932h.188Zm14.56-7.745c-.274-.085-.548-.136-.821-.136-1.163,0-2.173.731-2.532,1.817-.445,1.393.325,2.888,1.711,3.33.274.084.547.136.821.136,1.164,0,2.173-.73,2.532-1.817.445-1.394-.325-2.887-1.711-3.329Zm-5.407,1.019l.051-.186-5.047-1.631-.051.187c-1.095,3.345-.804,6.93.804,10.073,1.608,3.159,4.363,5.486,7.733,6.572l.188.052,1.642-5.011-.188-.051c-4.192-1.359-6.502-5.843-5.133-10.004Zm-2.292-12.654c.462.34.992.51,1.557.51.855,0,1.66-.408,2.156-1.087.428-.578.582-1.274.479-1.97-.103-.697-.479-1.308-1.061-1.716-.462-.34-.992-.509-1.557-.509-.855,0-1.66.407-2.156,1.086-.428.578-.582,1.274-.479,1.971.103.697.479,1.307,1.061,1.715Zm9.889,0c-1.249,1.716-3.114,2.837-5.218,3.176-.411.068-.838.102-1.266.102-1.694,0-3.319-.526-4.688-1.512l-.154-.119-3.114,4.264.154.118c2.276,1.648,4.979,2.514,7.802,2.514,4.26,0,8.281-2.038,10.779-5.452l.12-.152-4.294-3.092-.12.153Zm-25.561.51c.565,0,1.095-.17,1.557-.51.565-.408.958-1.019,1.061-1.715.103-.697-.068-1.393-.479-1.971-.496-.679-1.3-1.086-2.156-1.086-.565,0-1.095.186-1.557.509-.565.408-.958,1.019-1.061,1.716-.103.696.068,1.392.479,1.97.496.679,1.3,1.087,2.156,1.087Zm5.971,5.52c2.874-2.089,4.773-5.146,5.321-8.628.547-3.481-.291-6.981-2.378-9.835l-.12-.152-4.294,3.091.12.154c1.249,1.715,1.762,3.821,1.42,5.91-.342,2.089-1.471,3.94-3.2,5.18l-.154.119,3.131,4.28.154-.119Zm-8.76,7.286c-.359-1.086-1.386-1.817-2.532-1.817-.274,0-.548.051-.821.136-1.403.459-2.156,1.954-1.711,3.329.359,1.087,1.386,1.817,2.532,1.817.274,0,.547-.052.821-.136,1.403-.46,2.156-1.955,1.711-3.33Zm2.053-.662l.068.204,5.047-1.631-.051-.187c-1.112-3.363-3.456-6.098-6.621-7.693-1.899-.952-3.918-1.444-6.023-1.444-1.386,0-2.772.203-4.123.645l-.188.052,1.643,5.026.171-.068c.804-.256,1.643-.391,2.481-.391,1.266,0,2.481.289,3.627.867,1.899.969,3.302,2.599,3.97,4.62Zm113.693-3.975c-.462,1.342-.821,2.956-1.044,4.161h-.394c-.222-1.205-.616-2.869-1.044-4.194l-3.148-9.241h-5.184v.357l6.758,17.036h5.612l6.758-17.036v-.357h-5.184l-3.131,9.274Zm21.472,2.123v.459c0,1.001-.788,2.343-3.473,2.343-2.618,0-4.072-1.461-4.072-4.909h12.336c.102-.815.222-2.055.222-2.955,0-3.907-3.045-6.708-8.401-6.708-6.365,0-9.153,3.974-9.153,9.052,0,5.758,3.08,9.053,9.051,9.053,7.22,0,8.367-3.618,8.367-5.606,0-.169-.034-.424-.069-.644l-4.807-.086Zm-3.353-8.408c1.967,0,3.644,1.002,3.644,2.956,0,.102,0,.289-.034.459h-7.648c.205-2.395,1.745-3.415,4.038-3.415Zm-50.149-2.989h-3.507v4.043h3.507v13.35h5.15v-13.35h8.503v13.35h5.15V11.99h-13.654v-.916c0-2.243.428-3.431,3.798-3.431h9.855V3.465h-10.368c-6.313,0-8.435,2.021-8.435,8.525Zm-30.814,0h-4.312c-.855,1.886-2.498,2.871-5.047,2.871h-1.95v3.991h6.005v6.352h-6.005v4.179h17.315v-4.195h-6.005v-13.198Zm19.094,8.238c-2.327,0-4.26.816-5.218,1.597h-.291l.462-5.793h11.018v-4.043h-15.484l-1.283,13.418h4.893c.684-.951,2.07-1.85,3.833-1.85,2.857,0,4.654,1.495,4.654,4.619,0,2.633-1.643,4.587-4.397,4.587-3.217,0-4.294-1.987-4.294-3.873,0-.102,0-.221.034-.424l-5.253.101c-.034.102-.069.391-.069.646,0,3.975,2.977,7.627,9.735,7.627,5.68,0,9.838-3.347,9.838-8.731-.017-4.891-3.063-7.88-8.178-7.88Z"/>
  </g>
</svg>