<?xml version="1.0" encoding="UTF-8"?>
<svg id="Layer_2" data-name="Layer 2" xmlns="http://www.w3.org/2000/svg" width="140.143" height="33.217" viewBox="0 0 140.143 33.217">
  <defs>
    <style>
      .cls-1 {
        fill: #adadad;
      }
    </style>
  </defs>
  <g id="Layer_1-2" data-name="Layer 1">
    <path class="cls-1" d="m9.632,6.978h4.307v-2.667h14.963v14.96h-5.323v-9.634H0v23.58h23.579v-6.974h-4.307v2.664H4.307v-14.962h5.327v9.637h23.577V.003H9.632v6.975Zm9.636,12.295h-5.327v-5.328h5.327v5.328Zm79.733-9.833h3.572l2.886,5.755h4.084l-3.494-6.467c.373-.108.721-.29,1.023-.536.303-.244.554-.546.74-.888.362-.626.57-1.535.57-2.683.008-.546-.046-1.092-.163-1.627-.1-.439-.278-.858-.525-1.236-.336-.57-.838-1.023-1.439-1.3-.755-.327-1.574-.483-2.396-.457h-8.441v15.193h3.583v-5.755Zm.019-6.306h4.107c.343-.013.685.047,1.005.172.114.049.219.117.311.202.086.08.158.178.21.282.025.061.046.122.06.186.061.298.091.603.088.907-.001.193-.019.384-.052.573-.024.168-.068.332-.133.489-.042.079-.099.15-.167.205-.136.106-.293.181-.459.221-.221.055-.448.083-.676.08h-4.294v-3.316Zm8.794,4.171h0v.002-.002Zm15.815,7.891v-3.169h-8.221v-2.824h7.828v-3.207h-7.828v-2.803h8.128V.003h-11.693v15.193h11.786Zm-38.978,0h3.695V3.135h4.833V.003h-13.34v3.132h4.812v12.061Zm-21.717,0V.003h-3.695v15.193h3.695Zm7.055,0h3.695V3.135h4.831V.003h-13.34v3.132h4.814v12.061Zm-16.145-.338c.558-.208,1.065-.532,1.485-.955.353-.362.622-.796.789-1.274.189-.525.284-1.079.28-1.637.005-.514-.065-1.026-.208-1.519-.123-.435-.347-.835-.654-1.169-.315-.315-.677-.58-1.073-.785-.196-.102-.399-.19-.609-.26l.134-.065c.257-.134.493-.302.702-.501.347-.357.606-.791.756-1.264.164-.51.245-1.041.24-1.575.006-.517-.081-1.032-.256-1.517-.158-.436-.412-.83-.743-1.153C53.965.484,52.753.004,51.122.004h-8.554v15.193h9.17c.716.015,1.428-.1,2.104-.339Zm-7.709-11.851h4.033c.26-.006.521.024.774.083.191.044.368.134.518.26.146.138.258.307.327.497l-.008-.004c.087.223.13.46.13.7.005.268-.039.534-.13.786-.07.193-.184.369-.332.513-.123.116-.27.204-.431.259-.173.056-.354.084-.537.081h-4.345v-3.175Zm4.669,9.172h-4.669v-3.077h4.707c.464-.022.922.114,1.3.386.165.135.289.315.358.518.079.235.116.483.111.731.004.22-.032.44-.106.648-.069.174-.184.327-.332.443-.167.122-.356.208-.557.257-.266.066-.538.096-.811.094Zm38.397,16.849c.763,0,1.157-.236,1.456-.535.356-.356.507-1.132.507-1.947s-.151-1.556-.461-1.883c-.31-.326-.702-.572-1.517-.572s-1.181.225-1.498.581c-.291.327-.459,1.086-.459,1.883,0,.833.186,1.599.557,1.975.301.301.694.498,1.415.498Zm-46.548,4.187h97.47v-13.328H42.653v13.328Zm66.491-10.359h1.63v6.022h3.7v1.376h-5.33v-7.398Zm-5.449,0h2.042l2.707,7.398h-1.685l-.628-1.742h-2.98l-.665,1.742h-1.658l2.867-7.398Zm-9.892,0h4.177c.797,0,1.376.233,1.714.556.16.168.283.367.364.583.08.219.116.45.104.68.026.494-.142.978-.468,1.349-.2.185-.445.312-.711.371.43.062.828.262,1.133.572.271.279.403.743.403,1.274.018.51-.163,1.007-.505,1.387-.375.382-.928.625-1.725.625h-4.486v-7.398Zm-7.586,1.143c.557-.768,1.47-1.255,2.971-1.255,1.469,0,2.416.422,2.976,1.189.431.571.628,1.424.628,2.577,0,1.206-.234,2.042-.655,2.667-.514.769-1.498,1.181-2.95,1.181s-2.397-.395-2.932-1.163c-.459-.628-.674-1.507-.674-2.667,0-1.097.197-1.95.637-2.529Zm-6.042-1.143h1.63v6.022h3.7v1.376h-5.33v-7.398Zm-7.257,1.085c.477-.645,1.376-1.198,2.856-1.198,1.574,0,2.482.514,2.922,1.3.234.414.357.881.357,1.357h-1.575c-.019-.313-.151-.609-.371-.833-.173-.158-.375-.28-.595-.358-.22-.08-.454-.114-.688-.101-.657,0-1.125.17-1.443.516-.318.347-.487.965-.487,1.977s.16,1.545.459,1.92c.245.3.787.543,1.5.543.945,0,1.619-.478,1.751-1.085v-.683h-2.139v-1.329h3.628v2.286c0,.907.009,1.966.009,1.993l-1.296.007-.074-.693c-.394.459-.965.797-2.156.797-1.161,0-2.089-.412-2.631-1.095-.403-.508-.704-1.453-.704-2.699,0-1.076.122-1.872.676-2.623ZM135.453.003v2.623h2.066v2.066h2.624V.003h-4.69Zm-2.472,4.977L129.639.003h-4.272l5.249,7.52-5.577,7.673h4.171l.082-.118,3.309-4.764,3.286,4.882h4.255l-5.552-7.922-1.61-2.294Zm-34.214,23.484c.045-.11.064-.228.056-.346.011-.13-.008-.261-.055-.382-.047-.121-.121-.23-.216-.319-.206-.15-.458-.226-.713-.215h-2.453v1.742h2.434c.262.015.523-.054.743-.197.089-.077.159-.173.204-.282Zm-.551-2.715c.091-.095.161-.208.206-.333.045-.125.064-.257.056-.389.004-.124-.018-.247-.062-.364-.045-.115-.113-.221-.199-.31h-.002c-.206-.149-.458-.218-.711-.198h-2.117v1.79h2.273c.204.012.405-.06.557-.197Zm6.641-.852l-.169-.608-.186.618-.843,2.266h1.983l-.786-2.276Z"/>
  </g>
</svg>