<?xml version="1.0" encoding="UTF-8"?>
<svg id="Layer_2" data-name="Layer 2" xmlns="http://www.w3.org/2000/svg" width="220.222" height="51.655" viewBox="0 0 220.222 51.655">
  <defs>
    <style>
      .cls-1 {
        fill: #adadad;
      }
    </style>
  </defs>
  <g id="Layer_1-2" data-name="Layer 1">
    <path class="cls-1" d="m25.827,0C11.563,0,0,11.563,0,25.827s11.563,25.827,25.827,25.827,25.828-11.563,25.828-25.827S40.091,0,25.827,0Zm2.116,18.343l1.004-1.172,3.481-4.059h3.149l-6.659,7.754s-.741-.878-.995-1.171c-.331-.394-.322-.98.02-1.353Zm-8.366-5.23s5.577,6.674,7.595,8.744c.322.323.263.747-.029,1.09-1.073,1.262-1.102,1.282-1.102,1.282l-9.594-11.116h3.13Zm4.534,20.033l-1.004,1.17-3.481,4.06h-3.149l6.659-7.754s.741.878.995,1.172c.331.393.322.979-.02,1.353Zm.127-6.817c-2.711,3.141-10.335,12.047-10.335,12.047h-3.383l10.374-12.015c.331-.383.331-.959,0-1.333l-10.296-11.914h3.257l10.355,12.015c.264.353.312.869.029,1.201Zm8.19,12.047l-7.03-8.2-.351-.444c-.331-.384-.322-.98.019-1.353l13.104-15.267h3.247l-13.182,15.065c-.341.374-.351.97-.019,1.353l7.605,8.845h-3.393Zm5.987,0s-5.675-6.624-7.566-8.835c-.215-.252-.292-.596-.215-.908.059-.172.185-.365.302-.495l.878-.971,9.682,11.209h-3.081Zm27.078-2.543h3.978V15.164h-3.978v20.668Zm24.82-15.047c-1.974,0-3.791.822-4.871,2.537-.807-1.672-2.422-2.537-4.511-2.537-1.773,0-3.416.778-4.41,2.379v-2.09h-3.834v14.759h3.834v-8.201c0-2.061,1.398-3.604,3.171-3.604h.231c1.571,0,2.306.994,2.306,2.955v8.849h3.834v-8.201c0-2.061,1.384-3.604,3.157-3.604h.231c1.571,0,2.277.994,2.277,2.955v8.849h3.834v-9.296c0-1.745-.418-3.142-1.254-4.195-.85-1.037-2.176-1.556-3.993-1.556Zm25.499,0c-1.976,0-3.791.822-4.872,2.537-.807-1.672-2.422-2.537-4.511-2.537-1.773,0-3.416.778-4.41,2.379v-2.09h-3.834v14.759h3.834v-8.201c0-2.061,1.398-3.604,3.171-3.604h.231c1.571,0,2.306.994,2.306,2.955v8.849h3.834v-8.201c0-2.061,1.384-3.604,3.158-3.604h.229c1.572,0,2.277.994,2.277,2.955v8.849h3.834v-9.296c0-1.745-.416-3.142-1.254-4.195-.85-1.037-2.176-1.556-3.991-1.556Zm29.043,10.177v-6.789h3.3v-3.099h-3.3v-4.785h-3.834v4.785h-8.186v8.201c0,2.061-1.37,3.747-3.042,3.747h-.229c-1.398,0-2.193-1.038-2.193-2.94v-9.008h-3.832v9.44c0,1.716.416,3.071,1.252,4.079.823,1.024,2.077,1.527,3.733,1.527,1.832,0,3.404-.936,4.311-2.449v2.161h3.834v-11.659h4.352v7.826c0,2.493,1.341,3.833,3.834,3.833h3.748v-3.242h-2.118c-1.355,0-1.629-.274-1.629-1.628Zm17.427-4.872c0-3.402-2.479-5.304-6.198-5.304-3.632,0-6.039,2.061-6.355,4.857h3.846c.087-.894.994-1.758,2.378-1.758h.245c1.413,0,2.364,1.023,2.364,2.35v.359l-3.719.332c-1.584.13-2.881.591-3.892,1.398-1.009.808-1.512,1.96-1.512,3.459-.043,2.595,2.19,4.368,4.843,4.338,1.887,0,3.444-.806,4.366-2.089.029.778.087,1.384.173,1.801h3.603c-.101-.691-.144-1.772-.144-3.242v-6.5Zm-3.719,3.718c0,1.859-1.543,3.214-3.286,3.214h-.231c-1.052,0-1.829-.591-1.829-1.499,0-.562.214-.979.647-1.283.433-.303.936-.475,1.5-.518l3.199-.332v.418Zm14.459-9.023c-1.976,0-3.618,1.125-4.253,2.206v-7.827h-3.834v20.668h3.834v-1.917c.635,1.081,2.277,2.205,4.253,2.205,4.135.072,6.6-3.631,6.557-7.667.043-4.036-2.421-7.74-6.557-7.668Zm-.65,12.237h-.231c-1.757.044-3.401-1.859-3.372-4.568-.029-2.709,1.615-4.613,3.372-4.57h.231c1.93,0,3.372,1.773,3.372,4.541s-1.456,4.597-3.372,4.597Zm9.125,2.811h3.834V15.164h-3.834v20.668Zm12.815-15.047c-4.325-.058-7.065,3.258-7.021,7.669-.072,4.712,3.317,7.725,7.021,7.667,3.615,0,5.953-2.019,6.672-4.959h-3.805c-.274,1.082-1.211,1.86-2.595,1.86h-.246c-1.598,0-3.185-1.383-3.329-3.358h9.975c.043-.635.058-1.096.058-1.384.043-4.31-2.422-7.539-6.73-7.496Zm-3.302,5.924c.087-1.744,1.427-2.825,3.042-2.825h.229c1.615,0,2.956,1.081,3.042,2.825h-6.314Zm22.205-1.325l6.569-9.732h-4.393l-4.366,6.455-4.294-6.455h-4.59l6.569,9.873-7.007,10.382h4.393l4.804-7.105,4.718,7.105h4.605l-7.007-10.523Z"/>
  </g>
</svg>