<?xml version="1.0" encoding="UTF-8"?>
<svg id="Layer_2" data-name="Layer 2" xmlns="http://www.w3.org/2000/svg" width="52.874" height="38.451" viewBox="0 0 52.874 38.451">
  <defs>
    <style>
      .cls-1 {
        fill: #adadad;
      }
    </style>
  </defs>
  <g id="Layer_1-2" data-name="Layer 1">
    <path class="cls-1" d="m50.03,19.81c-.519-.621-.77-1.85-.77-3.387h2.771v-8.192h-2.625c-.494-3.071-2.338-7.699-9.181-8.214,0,0-.433-.017-.914-.017h-.003c-.176,0-.359.002-.529.008-.495.017-1.232.089-1.232.089-8.311.748-8.81,8.659-8.81,10.546,0,.256.009.402.009.402v17.657c5.134,0,7.7-2.464,7.7-5.876v-2.307h3.787v-7.68h-3.787v-1.028c0-1.201.318-2.124.851-2.774.522-.633,1.283-.956,2.233-.97.633.007,1.797.216,2.032,1.13l.017.072v8.005c0,2.94.554,5.299,1.744,7.08.94,1.394,2.168,2.497,3.725,3.313,1.557.814,3.194,1.218,4.952,1.218.194,0,.546-.005.872-.02v-8.134c-1.628,0-2.326-.3-2.844-.922ZM10.646,28.064c-.326-.262-.628-.552-.902-.868-1.257-1.44-1.788-3.273-1.788-5.5V.531H0v21.164c0,2.228.537,4.061,1.793,5.501,1.255,1.44,2.81,2.16,4.749,2.16.449,0,.917-.056,1.388-.159l.026.037v-.041c.77-.199,1.81-.575,2.695-1.117l-.006-.012Zm8.861-9.215c0,1.354-.142,2.029-1.124,2.029-1.025,0-1.186-.614-1.186-1.842v-10.804h-7.957v12.69c0,2.207.532,4.024,1.777,5.452,1.245,1.428,2.784,2.142,4.708,2.142,1.3,0,2.606-.4,3.962-1.2-.747,2.829-2.426,4.244-4.945,4.244-.788,0-1.541-.221-2.784-.664,0,0-1.177-.375-2.717-1.272v6.593s1.532.96,2.717,1.406c1.452.552,2.881.828,4.32.828,3.28,0,6.023-1.255,8.334-3.766,1.937-2.112,2.854-4.886,2.854-8.322V8.231h-7.957v10.617Z"/>
  </g>
</svg>