<?xml version="1.0" encoding="UTF-8"?>
<svg id="Layer_2" data-name="Layer 2" xmlns="http://www.w3.org/2000/svg" width="99.891" height="34.678" viewBox="0 0 99.891 34.678">
  <defs>
    <style>
      .cls-1 {
        fill: #adadad;
      }
    </style>
  </defs>
  <g id="Layer_1-2" data-name="Layer 1">
    <path class="cls-1" d="m5.747,24.767c.422,1.121,1.006,2.078,1.753,2.874.747.796,1.632,1.404,2.654,1.825,1.023.423,2.135.634,3.336.634,1.169,0,2.265-.22,3.287-.658,1.023-.438,1.916-1.055,2.679-1.85.763-.796,1.356-1.746,1.778-2.85.422-1.103.633-2.336.633-3.702V0h5.114v34.094h-5.065v-3.166c-1.136,1.201-2.476,2.126-4.018,2.776-1.542.649-3.206.974-4.992.974-1.818,0-3.515-.318-5.09-.95-1.575-.632-2.939-1.534-4.091-2.703-1.153-1.168-2.062-2.573-2.727-4.213-.666-1.639-.998-3.466-.998-5.48V0h5.114v21.04c0,1.365.211,2.606.633,3.727h0ZM35.797,0v12.421c1.136-1.137,2.451-2.039,3.945-2.705,1.494-.665,3.117-.998,4.87-.998,1.818,0,3.523.341,5.114,1.023,1.591.683,2.971,1.608,4.14,2.776,1.169,1.169,2.094,2.549,2.776,4.14.682,1.59,1.023,3.28,1.023,5.065s-.341,3.465-1.023,5.039c-.682,1.575-1.607,2.948-2.776,4.117-1.169,1.169-2.549,2.094-4.14,2.776-1.591.682-3.296,1.023-5.114,1.023-1.753,0-3.385-.333-4.895-.999-1.51-.665-2.833-1.566-3.969-2.703v3.118h-4.87V0h4.919Zm.56,25.084c.438,1.039,1.047,1.948,1.826,2.727.779.78,1.688,1.397,2.727,1.851,1.039.454,2.159.682,3.361.682,1.169,0,2.273-.227,3.312-.682,1.039-.454,1.94-1.072,2.703-1.851.763-.779,1.372-1.688,1.826-2.727.455-1.039.682-2.159.682-3.361s-.227-2.329-.682-3.385c-.455-1.055-1.063-1.973-1.826-2.752-.763-.779-1.664-1.388-2.703-1.826s-2.143-.657-3.312-.657-2.273.219-3.312.657c-1.039.438-1.948,1.048-2.727,1.826-.779.779-1.396,1.697-1.851,2.752-.455,1.056-.682,2.183-.682,3.385,0,1.202.219,2.321.657,3.361h0Zm24.084-8.378c.649-1.559,1.542-2.93,2.679-4.115,1.136-1.185,2.484-2.118,4.042-2.801,1.559-.681,3.247-1.022,5.065-1.022,1.786,0,3.442.324,4.968.973,1.526.649,2.841,1.55,3.945,2.704,1.104,1.153,1.964,2.516,2.581,4.091.617,1.576.925,3.287.925,5.139v1.606h-20.212c.162,1.007.487,1.941.974,2.8.487.861,1.096,1.608,1.826,2.241.731.633,1.559,1.128,2.484,1.485.925.357,1.907.536,2.947.536,2.955,0,5.341-1.218,7.16-3.653l3.555,2.629c-1.234,1.656-2.76,2.956-4.578,3.897-1.818.942-3.864,1.413-6.137,1.413-1.851,0-3.58-.325-5.187-.974-1.607-.649-3.003-1.558-4.188-2.727-1.185-1.169-2.119-2.541-2.8-4.116-.682-1.575-1.023-3.287-1.023-5.138,0-1.753.325-3.409.974-4.968h0Zm6.843-1.924c-1.38,1.153-2.297,2.686-2.752,4.602h15.147c-.422-1.916-1.323-3.45-2.703-4.602-1.38-1.153-2.995-1.729-4.846-1.729s-3.466.576-4.846,1.729h0Zm26.568.56c-1.039,1.136-1.558,2.678-1.558,4.627v14.125h-4.919V9.255h4.87v3.068c.617-1.006,1.421-1.801,2.411-2.386.99-.585,2.167-.878,3.531-.878h1.705v4.579h-2.046c-1.623,0-2.955.568-3.994,1.705h0Z"/>
  </g>
</svg>