<?xml version="1.0" encoding="UTF-8"?>
<svg id="Layer_2" data-name="Layer 2" xmlns="http://www.w3.org/2000/svg" width="223.523" height="29.787" viewBox="0 0 223.523 29.787">
  <defs>
    <style>
      .cls-1 {
        fill: #adadad;
      }
    </style>
  </defs>
  <g id="Layer_1-2" data-name="Layer 1">
    <path class="cls-1" d="m154.324,11.686c0-3.668-2.291-6.302-6.53-6.302h-13.977v19.018h4.583v-6.53h5.385l5.27,6.53h5.156v-.458l-5.156-6.187c3.322-.688,5.27-3.093,5.27-6.072Zm-7.103,2.292h-8.822v-4.698h8.822c1.604,0,2.635.916,2.635,2.406.114,1.489-.917,2.292-2.635,2.292Zm72.064-8.708v7.218h-11.571v-7.218h-4.583v19.018h4.583v-7.446h11.571v7.446h4.239V5.269h-4.239Zm-102.768,15.925h-.229l-5.156-15.925h-8.134v19.018h4.353v-15.581h.229l5.041,15.581h6.989l5.156-15.581h.229v15.581h4.468V5.269h-7.905l-5.041,15.925Zm-44.796-8.134c-1.604-.115-4.583-.459-6.301-.573-1.604-.115-2.521-.688-2.521-1.718s1.031-1.834,4.927-1.834c3.437,0,6.645.802,9.509,2.063v-4.239c-2.75-1.375-5.843-1.948-9.738-1.948-5.385,0-9.166,2.291-9.166,6.072,0,3.208,2.177,5.041,6.645,5.5,1.604.228,4.354.459,6.187.572,2.062.115,2.635.803,2.635,1.719,0,1.261-1.489,2.062-5.041,2.062-3.666,0-7.447-1.261-10.197-2.864v4.354c2.177,1.489,5.843,2.635,10.082,2.635,5.843,0,9.624-2.291,9.624-6.302,0-3.093-1.948-5.041-6.645-5.498Zm9.738,11.227h17.644v-3.894h-13.29v-3.896h13.061v-3.896h-13.061v-3.437h13.29v-3.896h-17.644v19.018Zm112.163-11.227c-1.604-.115-4.583-.459-6.301-.573-1.604-.115-2.521-.688-2.521-1.718s1.031-1.834,4.926-1.834c3.437,0,6.645.688,9.509,2.063v-4.239c-2.75-1.375-5.843-1.948-9.738-1.948-5.385,0-9.165,2.291-9.165,6.072,0,3.208,2.177,5.041,6.645,5.5,1.604.228,4.354.459,6.187.572,2.062.115,2.635.803,2.635,1.719,0,1.261-1.489,2.062-5.041,2.062-3.666,0-7.447-1.261-10.197-2.864v4.354c2.177,1.489,5.843,2.635,10.082,2.635,5.843,0,9.624-2.291,9.624-6.302,0-3.093-2.062-5.041-6.645-5.498Zm-20.966,1.947c0,3.667-2.291,5.729-5.614,5.729-3.437,0-5.614-1.948-5.614-5.729V5.269h-4.583v9.28c0,6.874,4.354,10.312,10.197,10.312,5.729,0,10.082-3.323,10.082-10.083V5.269h-4.468v9.738ZM34.943,6.988c-.802,0-.917.458-.917,1.49,0,1.146.229,1.375,1.031,1.489,2.75.115,4.354,2.177,4.583,4.583.115.917.344,1.146,1.604,1.146,1.146,0,1.604-.114,1.604-1.03,0-3.781-3.322-7.562-7.905-7.677Zm-1.375-6.988H11.457c-.458,0-.802.229-.802.686,0,.229.115.459.344.573.802.688,1.948,1.374,3.552,2.178,1.489.802,2.75,1.26,3.895,1.717.458.229.688.459.688.689,0,.343-.229.687-.802.687H.802c-.573-.115-.802.229-.802.572s.115.573.344.802c1.375,1.49,3.666,3.323,6.989,5.385,2.864,1.833,6.53,3.781,9.394,5.156.458.229.687.458.687.801s-.229.573-.802.573h-8.134c-.458,0-.687.231-.687.574,0,.228.115.457.344.687,1.833,1.719,4.812,3.437,8.707,5.155,5.27,2.178,10.54,3.552,16.498,3.552,11.342,0,16.269-8.478,16.269-15.123,0-7.105-4.812-14.665-16.04-14.665Zm1.26,24.861c-5.499,0-10.197-4.468-10.197-10.196,0-5.5,4.583-9.968,10.197-9.968,5.728,0,10.196,4.468,10.196,9.968,0,5.614-4.468,10.196-10.196,10.196Z"/>
  </g>
</svg>