<?xml version="1.0" encoding="UTF-8"?>
<svg id="Layer_2" data-name="Layer 2" xmlns="http://www.w3.org/2000/svg" width="139.21" height="43.446" viewBox="0 0 139.21 43.446">
  <defs>
    <style>
      .cls-1 {
        fill: #adadad;
      }
    </style>
  </defs>
  <g id="Layer_1-2" data-name="Layer 1">
    <path class="cls-1" d="m73.368,10.917c0,1.565-1.262,2.826-2.827,2.826s-2.826-1.262-2.826-2.826,1.218-2.826,2.826-2.826c1.61.043,2.827,1.304,2.827,2.826Zm-11.655,5.698v.695s-1.348-1.74-4.218-1.74c-4.74,0-8.437,3.609-8.437,8.611,0,4.957,3.654,8.611,8.437,8.611,2.914,0,4.218-1.784,4.218-1.784v.74c0,.347.261.608.609.608h3.522v-16.352h-3.522c-.348.001-.609.307-.609.612h0Zm0,10.479c-.652.958-1.957,1.784-3.522,1.784-2.783,0-4.915-1.739-4.915-4.697s2.131-4.697,4.915-4.697c1.522,0,2.914.869,3.522,1.783v5.827Zm6.741-11.09h4.175v16.353h-4.175v-16.353h0Zm62.364-.435c-2.87,0-4.219,1.741-4.219,1.741v-9.176h-4.175v24.223h3.523c.348,0,.608-.304.608-.609v-.739s1.348,1.782,4.218,1.782c4.741,0,8.437-3.652,8.437-8.609s-3.696-8.613-8.393-8.613h0Zm-.696,13.265c-1.61,0-2.87-.826-3.523-1.782v-5.828c.653-.87,2.044-1.783,3.523-1.783,2.783,0,4.914,1.739,4.914,4.697s-2.131,4.697-4.914,4.697Zm-9.872-6.175v9.742h-4.175v-9.263c0-2.696-.87-3.782-3.217-3.782-1.261,0-2.566.65-3.394,1.608v11.395h-4.174v-16.353h3.304c.348,0,.609.305.609.61v.695c1.218-1.262,2.827-1.74,4.435-1.74,1.827,0,3.349.522,4.567,1.567,1.478,1.217,2.044,2.782,2.044,5.522h0Zm-25.094-7.09c-2.87,0-4.218,1.741-4.218,1.741v-9.176h-4.175v24.223h3.522c.348,0,.609-.304.609-.609v-.739s1.348,1.782,4.218,1.782c4.741,0,8.437-3.652,8.437-8.609.043-4.959-3.653-8.613-8.394-8.613h0Zm-.696,13.265c-1.609,0-2.87-.826-3.522-1.782v-5.828c.652-.87,2.044-1.783,3.522-1.783,2.784,0,4.914,1.739,4.914,4.697s-2.131,4.697-4.914,4.697Zm-11.307-13.265c1.261,0,1.913.218,1.913.218v3.871s-3.479-1.175-5.653,1.304v11.437h-4.176v-16.395h3.523c.348,0,.608.305.608.61v.696c.784-.915,2.48-1.741,3.784-1.741h0Zm-43.358,15.308c-.217-.521-.435-1.085-.652-1.566-.348-.782-.696-1.522-1-2.218l-.043-.042c-3.001-6.524-6.219-13.134-9.611-19.657l-.13-.262c-.357-.677-.705-1.357-1.043-2.044-.435-.784-.87-1.609-1.566-2.393-1.391-1.739-3.392-2.696-5.523-2.696-2.175,0-4.131.957-5.566,2.609-.652.782-1.131,1.609-1.566,2.392-.339.685-.687,1.367-1.043,2.043l-.131.262c-3.349,6.524-6.61,13.134-9.611,19.657l-.044.087c-.304.696-.653,1.435-1,2.217-.217.478-.434,1-.652,1.565-.566,1.609-.74,3.131-.522,4.697.478,3.263,2.652,6.001,5.654,7.22,1.131.479,2.305.696,3.522.696.348,0,.782-.044,1.131-.087,1.435-.173,2.914-.652,4.349-1.478,1.783-1.001,3.479-2.434,5.392-4.523,1.913,2.088,3.653,3.522,5.392,4.523,1.436.826,2.914,1.305,4.349,1.478.348.044.783.087,1.131.087,1.218,0,2.435-.218,3.522-.696,3.045-1.219,5.175-4.001,5.654-7.22.345-1.521.172-3.042-.393-4.653h0Zm-19.613,2.263c-2.349-2.958-3.871-5.742-4.392-8.089-.217-1-.261-1.87-.13-2.654.087-.695.348-1.303.696-1.825.826-1.174,2.218-1.914,3.827-1.914s3.044.697,3.827,1.914c.348.522.609,1.13.696,1.825.13.784.086,1.696-.131,2.654-.523,2.306-2.046,5.089-4.394,8.089Zm17.351,2.043c-.304,2.262-1.826,4.219-3.957,5.09-1.043.434-2.175.565-3.305.434-1.087-.131-2.175-.478-3.305-1.131-1.566-.871-3.131-2.218-4.958-4.219,2.87-3.522,4.61-6.742,5.262-9.611.304-1.349.348-2.566.217-3.698-.173-1.086-.565-2.087-1.174-2.957-1.349-1.956-3.611-3.087-6.132-3.087s-4.783,1.175-6.131,3.087c-.609.871-1.001,1.871-1.174,2.957-.174,1.132-.131,2.393.217,3.698.652,2.869,2.435,6.132,5.262,9.654-1.783,2.001-3.392,3.349-4.958,4.218-1.131.654-2.217,1.001-3.304,1.13-1.174.131-2.305-.042-3.305-.433-2.13-.871-3.653-2.828-3.957-5.089-.13-1.087-.044-2.173.392-3.392.13-.435.348-.869.565-1.391.305-.697.652-1.436,1-2.175l.044-.087c3-6.481,6.218-13.091,9.567-19.526l.13-.262c.348-.651.696-1.349,1.044-2.001.348-.695.739-1.347,1.218-1.914.913-1.043,2.131-1.609,3.479-1.609s2.566.566,3.479,1.609c.479.567.87,1.22,1.218,1.914.348.653.696,1.35,1.043,2.001l.131.262c3.298,6.463,6.473,12.987,9.524,19.569v.045c.348.695.653,1.478,1.001,2.175.217.521.435.956.565,1.391.347,1.13.477,2.219.303,3.348h0Z"/>
  </g>
</svg>