<svg width="128" height="100" viewBox="0 0 128 100" fill="none" xmlns="http://www.w3.org/2000/svg">
<path d="M2.15408 85.847C2.25277 85.945 2.3866 86 2.52614 86C2.66569 86 2.79952 85.945 2.89821 85.847L5.50318 83.261L8.10815 85.847C8.2074 85.9422 8.34033 85.9949 8.47832 85.9937C8.6163 85.9925 8.74829 85.9375 8.84586 85.8407C8.94344 85.7438 8.99878 85.6128 8.99998 85.4758C9.00118 85.3388 8.94814 85.2069 8.85227 85.1083L5.87524 82.153C5.77655 82.055 5.64272 82 5.50318 82C5.36363 82 5.2298 82.055 5.13111 82.153L2.15408 85.1083C2.05542 85.2063 2 85.3392 2 85.4777C2 85.6162 2.05542 85.7491 2.15408 85.847Z" fill="#5DB947"/>
<path d="M115.154 17.847C115.253 17.945 115.387 18 115.526 18C115.666 18 115.8 17.945 115.898 17.847L118.503 15.261L121.108 17.847C121.207 17.9422 121.34 17.9949 121.478 17.9937C121.616 17.9925 121.748 17.9375 121.846 17.8407C121.943 17.7438 121.999 17.6128 122 17.4758C122.001 17.3388 121.948 17.2069 121.852 17.1083L118.875 14.153C118.777 14.055 118.643 14 118.503 14C118.364 14 118.23 14.055 118.131 14.153L115.154 17.1083C115.055 17.2063 115 17.3392 115 17.4777C115 17.6162 115.055 17.7491 115.154 17.847Z" fill="#5DB947"/>
<path d="M118.154 62.847C118.253 62.945 118.387 63 118.526 63C118.666 63 118.8 62.945 118.898 62.847L121.503 60.261L124.108 62.847C124.207 62.9422 124.34 62.9949 124.478 62.9937C124.616 62.9925 124.748 62.9375 124.846 62.8407C124.943 62.7438 124.999 62.6128 125 62.4758C125.001 62.3388 124.948 62.2069 124.852 62.1083L121.875 59.153C121.777 59.055 121.643 59 121.503 59C121.364 59 121.23 59.055 121.131 59.153L118.154 62.1083C118.055 62.2063 118 62.3392 118 62.4777C118 62.6162 118.055 62.7491 118.154 62.847Z" fill="#5DB947"/>
<path d="M2.15408 34.847C2.25277 34.945 2.3866 35 2.52614 35C2.66569 35 2.79952 34.945 2.89821 34.847L5.50318 32.261L8.10815 34.847C8.2074 34.9422 8.34033 34.9949 8.47832 34.9937C8.6163 34.9925 8.74829 34.9375 8.84586 34.8407C8.94344 34.7438 8.99878 34.6128 8.99998 34.4758C9.00118 34.3388 8.94814 34.2069 8.85227 34.1083L5.87524 31.153C5.77655 31.055 5.64272 31 5.50318 31C5.36363 31 5.2298 31.055 5.13111 31.153L2.15408 34.1083C2.05542 34.2063 2 34.3392 2 34.4777C2 34.6162 2.05542 34.7491 2.15408 34.847Z" fill="#5DB947"/>
<path d="M103.501 27.4804V47.3554C103.481 49.1913 101.981 50.6679 100.145 50.6562H80.2702C78.4343 50.6562 76.946 49.1679 76.946 47.3359V27.4809C76.946 25.645 78.4343 24.1567 80.2702 24.1567H100.145C101.981 24.1567 103.473 25.645 103.477 27.4809L103.501 27.4804ZM95.2195 43.6684C95.2117 43.2387 94.8679 42.8911 94.4382 42.8872H85.9891C85.5594 42.8872 85.2078 43.2387 85.2078 43.6684C85.2078 44.0981 85.5594 44.4497 85.9891 44.4497H94.4461C94.8718 44.4379 95.2117 44.0942 95.2195 43.6684ZM95.2195 39.5004C95.2117 39.0707 94.8679 38.727 94.4382 38.7191H85.9891C85.5594 38.7191 85.2078 39.0707 85.2078 39.5004C85.2078 39.934 85.5594 40.2816 85.9891 40.2816H94.4461C94.8718 40.2699 95.2117 39.9262 95.2195 39.5004ZM95.2195 35.3363C95.2117 34.9066 94.8679 34.559 94.4382 34.5551H85.9891C85.5594 34.5551 85.2078 34.9027 85.2078 35.3363C85.2078 35.766 85.5594 36.1176 85.9891 36.1176H94.4461C94.8718 36.1058 95.2117 35.7621 95.2195 35.3363ZM95.2195 31.1683C95.2117 30.7386 94.8679 30.391 94.4382 30.3871H85.9891C85.5594 30.3871 85.2078 30.7386 85.2078 31.1683C85.2078 31.598 85.5594 31.9496 85.9891 31.9496H94.4461C94.8718 31.9378 95.2117 31.5941 95.2195 31.1683ZM39.5825 67.6994C39.5864 67.4924 39.5044 67.2892 39.3559 67.1447C39.2114 66.9963 39.0083 66.9142 38.8012 66.9182H25.7812C25.3477 66.9182 25 67.2697 25 67.6994C25 68.1291 25.3477 68.4807 25.7812 68.4807H38.8012C39.2309 68.4807 39.5825 68.1291 39.5825 67.6994ZM48.9575 73.9494C48.9536 73.5197 48.6059 73.1721 48.1763 73.1682H25.7812C25.3477 73.1682 25 73.5197 25 73.9494C25 74.3791 25.3477 74.7307 25.7812 74.7307H48.1253C48.3362 74.7267 48.5393 74.6408 48.6878 74.4846C48.8362 74.3283 48.9143 74.1213 48.9065 73.9064L48.9575 73.9494ZM48.9575 80.1994C48.9536 79.7697 48.6059 79.4221 48.1763 79.4182H25.7812C25.3477 79.4182 25 79.7697 25 80.1994C25 80.6291 25.3477 80.9807 25.7812 80.9807H48.1253C48.3479 80.9807 48.5588 80.8869 48.7073 80.7228C48.8557 80.5588 48.9299 80.3361 48.9065 80.1174L48.9575 80.1994ZM79.1875 13.2304C78.7656 13.2304 78.3867 13.4843 78.2227 13.8749C78.0625 14.2617 78.1523 14.7109 78.4492 15.0077C78.7461 15.3046 79.1953 15.3945 79.5859 15.2343C79.9726 15.0741 80.2265 14.6952 80.2265 14.2733C80.2265 13.996 80.1172 13.7304 79.9219 13.5351C79.7265 13.3398 79.4609 13.2304 79.1875 13.2304ZM95.2495 13.2304C94.8276 13.2304 94.4487 13.4843 94.2847 13.8749C94.1245 14.2617 94.2143 14.7109 94.5112 15.0077C94.8081 15.3046 95.2573 15.3945 95.6479 15.2343C96.0346 15.0741 96.2885 14.6952 96.2885 14.2733C96.2885 13.996 96.1792 13.7304 95.9838 13.5351C95.7885 13.3398 95.5229 13.2304 95.2495 13.2304ZM87.2183 13.2304C86.7964 13.2304 86.4175 13.4843 86.2535 13.8749C86.0933 14.2617 86.1831 14.7109 86.48 15.0077C86.7769 15.3046 87.2261 15.3945 87.6167 15.2343C88.0034 15.0741 88.2573 14.6952 88.2573 14.2733C88.2573 13.996 88.148 13.7304 87.9527 13.5351C87.7573 13.3398 87.4917 13.2304 87.2183 13.2304ZM103.476 11.0742V17.4922C103.445 19.1914 102.054 20.5547 100.351 20.5547H28.0703C26.3906 20.5274 25.0312 19.1719 25 17.4922V11.0742C25.0273 9.3906 26.3867 8.0273 28.0703 8H100.406C102.09 8.02734 103.449 9.3906 103.476 11.0742ZM56.1833 12.4492H56.1872C56.1872 12.0195 55.8356 11.668 55.406 11.668H31.394C31.1869 11.664 30.9838 11.7461 30.8393 11.8945C30.6908 12.039 30.6088 12.2422 30.6127 12.4492V16.1172C30.6088 16.3242 30.6908 16.5234 30.8393 16.6719C30.9838 16.8203 31.1869 16.8985 31.394 16.8985H55.406C55.8356 16.8985 56.1872 16.5469 56.1872 16.1172L56.1833 12.4492ZM81.8002 14.2812C81.8002 13.2265 81.1635 12.2734 80.1869 11.8671C79.2103 11.4608 78.0853 11.6874 77.3353 12.4335C76.5892 13.1796 76.3666 14.3046 76.7689 15.2812C77.1751 16.2617 78.1283 16.8984 79.1869 16.8984C80.6283 16.8984 81.8002 15.7265 81.8002 14.2812ZM89.8314 14.2812C89.8314 13.2265 89.1947 12.2734 88.2181 11.8671C87.2416 11.4608 86.1165 11.6874 85.3665 12.4335C84.6204 13.1796 84.3978 14.3046 84.8001 15.2812C85.2063 16.2617 86.1595 16.8984 87.2181 16.8984C87.9095 16.8984 88.5736 16.6211 89.0658 16.1328C89.5541 15.6406 89.8314 14.9766 89.8314 14.2812ZM97.8626 14.2812C97.8626 13.2265 97.2259 12.2734 96.2493 11.8671C95.2727 11.4608 94.1477 11.6874 93.3977 12.4335C92.6516 13.1796 92.429 14.3046 92.8313 15.2812C93.2375 16.2617 94.1907 16.8984 95.2493 16.8984C95.9407 16.8984 96.6048 16.6211 97.097 16.1328C97.5853 15.6406 97.8626 14.9766 97.8626 14.2812ZM32.1707 15.3242H54.6237V13.2422H32.1747L32.1707 15.3242Z" fill="#C8F4BD"/>
<path d="M37.3945 35.8977C37.3945 34.7649 38.0781 33.7415 39.125 33.3079C40.1719 32.8743 41.375 33.1126 42.1797 33.9134C42.9805 34.7181 43.2188 35.9212 42.7851 36.9681C42.3515 38.015 41.3281 38.6986 40.1953 38.6986C38.6484 38.6986 37.3945 37.4446 37.3945 35.8977ZM57.6955 35.2727C57.0236 34.6321 55.9728 34.6321 55.301 35.2727L41.758 48.8157V48.8118C40.4846 50.0774 38.4299 50.0774 37.1564 48.8118L33.3009 44.9563V44.9602C32.6329 44.3235 31.5821 44.3235 30.9142 44.9602L24.0001 51.886V55.1672C23.9923 56.6711 24.5821 58.1125 25.6407 59.1789C26.6993 60.2453 28.1407 60.843 29.6446 60.843H66.9886C68.4886 60.8391 69.9222 60.2375 70.9769 59.1711C72.0355 58.1086 72.6214 56.6672 72.6136 55.1672V50.2102L57.6955 35.2727ZM24.0005 49.6677V30.6367C24.0044 27.5234 26.5317 25 29.645 25H66.989C70.0945 25.0117 72.6101 27.5312 72.614 30.6367V48.0317L58.802 34.1687C57.5286 32.8992 55.47 32.8992 54.1965 34.1687L40.6535 47.7117H40.6574C39.9855 48.3484 38.9308 48.3484 38.259 47.7117L34.4035 43.8562H34.4074C33.798 43.2468 32.9699 42.9031 32.1105 42.9031C31.2472 42.9031 30.4191 43.2468 29.8136 43.8562L24.0005 49.6677ZM35.8325 35.8977C35.8325 37.6633 36.895 39.2532 38.5278 39.9289C40.1567 40.6047 42.0356 40.2297 43.2817 38.9836C44.5317 37.7336 44.9067 35.8586 44.2309 34.2258C43.5551 32.5969 41.9614 31.5305 40.1957 31.5305C37.7895 31.5383 35.8364 33.4875 35.8325 35.8977ZM102.471 59.886L102.475 84.156C102.487 85.7029 101.882 87.1912 100.792 88.2888C99.702 89.3904 98.2215 90.0076 96.6746 90.0115H59.6436C58.1006 90.0076 56.6202 89.3865 55.5342 88.2849C54.4522 87.1872 53.8467 85.7029 53.8623 84.156V62.375H66.9873C70.96 62.3633 74.1787 59.1445 74.1865 55.168V54.125H96.6745C99.8698 54.125 102.464 56.7109 102.475 59.9062L102.471 59.886ZM84.7645 72.386H84.7684C84.7645 71.4212 84.3114 70.5149 83.5496 69.929L76.0496 64.2298C75.1082 63.5306 73.8543 63.4173 72.8035 63.9329C71.7527 64.4524 71.0769 65.5149 71.0613 66.6868V78.1478C71.0691 79.3236 71.7371 80.3939 72.7879 80.9173C73.8426 81.4564 75.116 81.3353 76.0496 80.6048L83.5184 74.9056C84.2996 74.3041 84.7528 73.3704 84.7372 72.3861L84.7645 72.386ZM82.5965 71.1672L75.1277 65.468H75.1316C74.8699 65.261 74.5417 65.1477 74.2058 65.1477C73.9675 65.1438 73.7292 65.2024 73.5183 65.3117C72.9675 65.55 72.6121 66.0891 72.6121 66.6867V78.1477C72.6082 78.7337 72.9441 79.2688 73.4753 79.5227C73.9988 79.7884 74.6315 79.7298 75.0925 79.3665L82.5613 73.6673C82.9402 73.3743 83.1629 72.9212 83.1629 72.4446C83.1629 71.9641 82.9402 71.511 82.5613 71.218L82.5965 71.1672Z" fill="#C8F4BD"/>
<path d="M32.9559 47.3221L33.035 47.3976L36.8028 51.1653L36.8039 51.1664C38.0131 52.3681 39.8331 52.5803 41.258 51.8031V52.0228L42.1115 51.1693L55.65 37.6308C56.1274 37.1794 56.8688 37.1794 57.3464 37.6307L72.1136 52.4171L72.1136 57.1672L72.1136 57.1698C72.1207 58.5378 71.5864 59.8509 70.6227 60.8182L70.6214 60.8195C69.6601 61.7914 68.354 62.3394 66.9873 62.343H29.6446C28.2733 62.343 26.9598 61.798 25.9955 60.8267C25.0306 59.8546 24.4929 58.5408 24.5001 57.1698V57.1672V54.0929L31.2633 47.3182C31.7382 46.8695 32.4824 46.8708 32.9559 47.3221ZM40.2999 49.3581L40.2699 49.3881C39.7914 49.801 39.0722 49.7893 38.6074 49.353L35.6106 46.3562H35.6145L34.7609 45.5027C34.0581 44.7998 33.103 44.4031 32.1105 44.4031C31.1151 44.4031 30.1595 44.7991 29.4598 45.5029C29.4595 45.5032 29.4592 45.5035 29.4589 45.5038L24.5005 50.4608V32.637C24.5042 29.7998 26.8076 27.5 29.645 27.5H66.988C69.8182 27.5112 72.1104 29.8076 72.114 32.6373V48.8214L59.1562 35.8158L59.155 35.8146C57.6864 34.3506 55.3121 34.3506 53.8435 35.8146L53.8429 35.8151L40.2999 49.3581ZM35.3325 37.8969V37.8977C35.3325 39.8655 36.5167 41.6376 38.3362 42.3907C40.1523 43.1442 42.2463 42.7261 43.6352 41.3371C45.0279 39.9445 45.4462 37.8546 44.6929 36.0346L44.6927 36.0342C43.9396 34.2189 42.1638 33.0305 40.1957 33.0305L40.1941 33.0305C37.5134 33.0392 35.3368 35.2107 35.3325 37.8969ZM74.6865 57.168V56.625H96.6745C99.5867 56.625 101.953 58.976 101.975 61.8857L101.971 61.8861L101.975 86.1561L101.975 86.1598C101.986 87.5737 101.433 88.9337 100.437 89.9365L100.436 89.9372C99.4405 90.9438 98.0876 91.5079 96.6733 91.5115H59.6449C58.2353 91.5079 56.8826 90.9405 55.8903 89.9339C54.901 88.9303 54.348 87.5738 54.3623 86.161V86.156V64.875L66.9873 64.875L66.9888 64.875C71.2365 64.8625 74.6781 61.4208 74.6865 57.169V57.168ZM85.2093 74.886H85.2704L85.2684 74.384C85.2638 73.2633 84.7377 72.212 83.8544 71.5327L83.8521 71.5309L76.3521 65.8317L76.3521 65.8317L76.3477 65.8284C75.2558 65.0174 73.8018 64.8861 72.5832 65.484L72.5819 65.4847C71.3643 66.0867 70.5795 67.3187 70.5613 68.6802L70.5613 68.6802V68.6868L70.5613 80.1478L70.5613 80.1511C70.5704 81.5146 71.3446 82.7561 72.563 83.3639C73.7893 83.9894 75.2691 83.8488 76.3553 83.0005C76.3561 82.9999 76.3569 82.9992 76.3577 82.9986L83.8217 77.3031L83.8234 77.3018C84.5935 76.7088 85.0893 75.8368 85.2093 74.886ZM74.2058 67.6477C74.4006 67.6477 74.5909 67.7049 74.7505 67.8092L74.8244 67.8655L81.9137 73.2752L81.8803 73.3234L82.2555 73.6135C82.5119 73.8118 82.6629 74.1188 82.6629 74.4446C82.6629 74.7654 82.5128 75.0723 82.2565 75.271C82.2561 75.2712 82.2558 75.2715 82.2555 75.2717L74.7892 80.969L74.7892 80.969L74.7831 80.9738C74.4773 81.2147 74.054 81.2557 73.7016 81.0769L73.7017 81.0767L73.6909 81.0716C73.3335 80.9008 73.1094 80.5421 73.1121 80.1511V80.1477V68.6867C73.1121 68.2897 73.3479 67.9302 73.7168 67.7706L73.7329 67.7637L73.7485 67.7556C73.8889 67.6828 74.0456 67.6451 74.1976 67.6476L74.1976 67.6477H74.2058ZM37.8945 37.8977C37.8945 36.9671 38.4563 36.126 39.3163 35.7698C40.1761 35.4137 41.1643 35.6089 41.8262 36.267C42.4842 36.929 42.6793 37.917 42.3232 38.7767C41.967 39.6368 41.1259 40.1986 40.1953 40.1986C38.9246 40.1986 37.8945 39.1685 37.8945 37.8977Z" fill="#5DB947" stroke="black"/>
<mask id="path-8-inside-1_176_72" fill="white">
<path d="M102.501 28.4804V48.3554C102.481 50.1913 100.981 51.6679 99.1452 51.6562H79.2702C77.4343 51.6562 75.946 50.1679 75.946 48.3359V28.4809C75.946 26.645 77.4343 25.1567 79.2702 25.1567H99.1452C100.981 25.1567 102.473 26.645 102.477 28.4809L102.501 28.4804ZM94.2195 44.6684C94.2117 44.2387 93.8679 43.8911 93.4382 43.8872H84.9891C84.5594 43.8872 84.2078 44.2387 84.2078 44.6684C84.2078 45.0981 84.5594 45.4497 84.9891 45.4497H93.4461C93.8718 45.4379 94.2117 45.0942 94.2195 44.6684ZM94.2195 40.5004C94.2117 40.0707 93.8679 39.727 93.4382 39.7191H84.9891C84.5594 39.7191 84.2078 40.0707 84.2078 40.5004C84.2078 40.934 84.5594 41.2816 84.9891 41.2816H93.4461C93.8718 41.2699 94.2117 40.9262 94.2195 40.5004ZM94.2195 36.3363C94.2117 35.9066 93.8679 35.559 93.4382 35.5551H84.9891C84.5594 35.5551 84.2078 35.9027 84.2078 36.3363C84.2078 36.766 84.5594 37.1176 84.9891 37.1176H93.4461C93.8718 37.1058 94.2117 36.7621 94.2195 36.3363ZM94.2195 32.1683C94.2117 31.7386 93.8679 31.391 93.4382 31.3871H84.9891C84.5594 31.3871 84.2078 31.7386 84.2078 32.1683C84.2078 32.598 84.5594 32.9496 84.9891 32.9496H93.4461C93.8718 32.9378 94.2117 32.5941 94.2195 32.1683ZM38.5825 68.6994C38.5864 68.4924 38.5044 68.2892 38.3559 68.1447C38.2114 67.9963 38.0083 67.9142 37.8012 67.9182H24.7812C24.3477 67.9182 24 68.2697 24 68.6994C24 69.1291 24.3477 69.4807 24.7812 69.4807H37.8012C38.2309 69.4807 38.5825 69.1291 38.5825 68.6994ZM47.9575 74.9494C47.9536 74.5197 47.6059 74.1721 47.1763 74.1682H24.7812C24.3477 74.1682 24 74.5197 24 74.9494C24 75.3791 24.3477 75.7307 24.7812 75.7307H47.1253C47.3362 75.7267 47.5393 75.6408 47.6878 75.4846C47.8362 75.3283 47.9143 75.1213 47.9065 74.9064L47.9575 74.9494ZM47.9575 81.1994C47.9536 80.7697 47.6059 80.4221 47.1763 80.4182H24.7812C24.3477 80.4182 24 80.7697 24 81.1994C24 81.6291 24.3477 81.9807 24.7812 81.9807H47.1253C47.3479 81.9807 47.5588 81.8869 47.7073 81.7228C47.8557 81.5588 47.9299 81.3361 47.9065 81.1174L47.9575 81.1994ZM78.1875 14.2304C77.7656 14.2304 77.3867 14.4843 77.2227 14.8749C77.0625 15.2617 77.1523 15.7109 77.4492 16.0077C77.7461 16.3046 78.1953 16.3945 78.5859 16.2343C78.9726 16.0741 79.2265 15.6952 79.2265 15.2733C79.2265 14.996 79.1172 14.7304 78.9219 14.5351C78.7265 14.3398 78.4609 14.2304 78.1875 14.2304ZM94.2495 14.2304C93.8276 14.2304 93.4487 14.4843 93.2847 14.8749C93.1245 15.2617 93.2143 15.7109 93.5112 16.0077C93.8081 16.3046 94.2573 16.3945 94.6479 16.2343C95.0346 16.0741 95.2885 15.6952 95.2885 15.2733C95.2885 14.996 95.1792 14.7304 94.9838 14.5351C94.7885 14.3398 94.5229 14.2304 94.2495 14.2304ZM86.2183 14.2304C85.7964 14.2304 85.4175 14.4843 85.2535 14.8749C85.0933 15.2617 85.1831 15.7109 85.48 16.0077C85.7769 16.3046 86.2261 16.3945 86.6167 16.2343C87.0034 16.0741 87.2573 15.6952 87.2573 15.2733C87.2573 14.996 87.148 14.7304 86.9527 14.5351C86.7573 14.3398 86.4917 14.2304 86.2183 14.2304ZM102.476 12.0742V18.4922C102.445 20.1914 101.054 21.5547 99.3513 21.5547H27.0703C25.3906 21.5274 24.0312 20.1719 24 18.4922V12.0742C24.0273 10.3906 25.3867 9.0273 27.0703 9H99.4063C101.09 9.02734 102.449 10.3906 102.476 12.0742ZM55.1833 13.4492H55.1872C55.1872 13.0195 54.8356 12.668 54.406 12.668H30.394C30.1869 12.664 29.9838 12.7461 29.8393 12.8945C29.6908 13.039 29.6088 13.2422 29.6127 13.4492V17.1172C29.6088 17.3242 29.6908 17.5234 29.8393 17.6719C29.9838 17.8203 30.1869 17.8985 30.394 17.8985H54.406C54.8356 17.8985 55.1872 17.5469 55.1872 17.1172L55.1833 13.4492ZM80.8002 15.2812C80.8002 14.2265 80.1635 13.2734 79.1869 12.8671C78.2103 12.4608 77.0853 12.6874 76.3353 13.4335C75.5892 14.1796 75.3666 15.3046 75.7689 16.2812C76.1751 17.2617 77.1283 17.8984 78.1869 17.8984C79.6283 17.8984 80.8002 16.7265 80.8002 15.2812ZM88.8314 15.2812C88.8314 14.2265 88.1947 13.2734 87.2181 12.8671C86.2416 12.4608 85.1165 12.6874 84.3665 13.4335C83.6204 14.1796 83.3978 15.3046 83.8001 16.2812C84.2063 17.2617 85.1595 17.8984 86.2181 17.8984C86.9095 17.8984 87.5736 17.6211 88.0658 17.1328C88.5541 16.6406 88.8314 15.9766 88.8314 15.2812ZM96.8626 15.2812C96.8626 14.2265 96.2259 13.2734 95.2493 12.8671C94.2727 12.4608 93.1477 12.6874 92.3977 13.4335C91.6516 14.1796 91.429 15.3046 91.8313 16.2812C92.2375 17.2617 93.1907 17.8984 94.2493 17.8984C94.9407 17.8984 95.6048 17.6211 96.097 17.1328C96.5853 16.6406 96.8626 15.9766 96.8626 15.2812ZM31.1707 16.3242H53.6237V14.2422H31.1747L31.1707 16.3242Z"/>
</mask>
<path d="M102.501 28.4804V48.3554C102.481 50.1913 100.981 51.6679 99.1452 51.6562H79.2702C77.4343 51.6562 75.946 50.1679 75.946 48.3359V28.4809C75.946 26.645 77.4343 25.1567 79.2702 25.1567H99.1452C100.981 25.1567 102.473 26.645 102.477 28.4809L102.501 28.4804ZM94.2195 44.6684C94.2117 44.2387 93.8679 43.8911 93.4382 43.8872H84.9891C84.5594 43.8872 84.2078 44.2387 84.2078 44.6684C84.2078 45.0981 84.5594 45.4497 84.9891 45.4497H93.4461C93.8718 45.4379 94.2117 45.0942 94.2195 44.6684ZM94.2195 40.5004C94.2117 40.0707 93.8679 39.727 93.4382 39.7191H84.9891C84.5594 39.7191 84.2078 40.0707 84.2078 40.5004C84.2078 40.934 84.5594 41.2816 84.9891 41.2816H93.4461C93.8718 41.2699 94.2117 40.9262 94.2195 40.5004ZM94.2195 36.3363C94.2117 35.9066 93.8679 35.559 93.4382 35.5551H84.9891C84.5594 35.5551 84.2078 35.9027 84.2078 36.3363C84.2078 36.766 84.5594 37.1176 84.9891 37.1176H93.4461C93.8718 37.1058 94.2117 36.7621 94.2195 36.3363ZM94.2195 32.1683C94.2117 31.7386 93.8679 31.391 93.4382 31.3871H84.9891C84.5594 31.3871 84.2078 31.7386 84.2078 32.1683C84.2078 32.598 84.5594 32.9496 84.9891 32.9496H93.4461C93.8718 32.9378 94.2117 32.5941 94.2195 32.1683ZM38.5825 68.6994C38.5864 68.4924 38.5044 68.2892 38.3559 68.1447C38.2114 67.9963 38.0083 67.9142 37.8012 67.9182H24.7812C24.3477 67.9182 24 68.2697 24 68.6994C24 69.1291 24.3477 69.4807 24.7812 69.4807H37.8012C38.2309 69.4807 38.5825 69.1291 38.5825 68.6994ZM47.9575 74.9494C47.9536 74.5197 47.6059 74.1721 47.1763 74.1682H24.7812C24.3477 74.1682 24 74.5197 24 74.9494C24 75.3791 24.3477 75.7307 24.7812 75.7307H47.1253C47.3362 75.7267 47.5393 75.6408 47.6878 75.4846C47.8362 75.3283 47.9143 75.1213 47.9065 74.9064L47.9575 74.9494ZM47.9575 81.1994C47.9536 80.7697 47.6059 80.4221 47.1763 80.4182H24.7812C24.3477 80.4182 24 80.7697 24 81.1994C24 81.6291 24.3477 81.9807 24.7812 81.9807H47.1253C47.3479 81.9807 47.5588 81.8869 47.7073 81.7228C47.8557 81.5588 47.9299 81.3361 47.9065 81.1174L47.9575 81.1994ZM78.1875 14.2304C77.7656 14.2304 77.3867 14.4843 77.2227 14.8749C77.0625 15.2617 77.1523 15.7109 77.4492 16.0077C77.7461 16.3046 78.1953 16.3945 78.5859 16.2343C78.9726 16.0741 79.2265 15.6952 79.2265 15.2733C79.2265 14.996 79.1172 14.7304 78.9219 14.5351C78.7265 14.3398 78.4609 14.2304 78.1875 14.2304ZM94.2495 14.2304C93.8276 14.2304 93.4487 14.4843 93.2847 14.8749C93.1245 15.2617 93.2143 15.7109 93.5112 16.0077C93.8081 16.3046 94.2573 16.3945 94.6479 16.2343C95.0346 16.0741 95.2885 15.6952 95.2885 15.2733C95.2885 14.996 95.1792 14.7304 94.9838 14.5351C94.7885 14.3398 94.5229 14.2304 94.2495 14.2304ZM86.2183 14.2304C85.7964 14.2304 85.4175 14.4843 85.2535 14.8749C85.0933 15.2617 85.1831 15.7109 85.48 16.0077C85.7769 16.3046 86.2261 16.3945 86.6167 16.2343C87.0034 16.0741 87.2573 15.6952 87.2573 15.2733C87.2573 14.996 87.148 14.7304 86.9527 14.5351C86.7573 14.3398 86.4917 14.2304 86.2183 14.2304ZM102.476 12.0742V18.4922C102.445 20.1914 101.054 21.5547 99.3513 21.5547H27.0703C25.3906 21.5274 24.0312 20.1719 24 18.4922V12.0742C24.0273 10.3906 25.3867 9.0273 27.0703 9H99.4063C101.09 9.02734 102.449 10.3906 102.476 12.0742ZM55.1833 13.4492H55.1872C55.1872 13.0195 54.8356 12.668 54.406 12.668H30.394C30.1869 12.664 29.9838 12.7461 29.8393 12.8945C29.6908 13.039 29.6088 13.2422 29.6127 13.4492V17.1172C29.6088 17.3242 29.6908 17.5234 29.8393 17.6719C29.9838 17.8203 30.1869 17.8985 30.394 17.8985H54.406C54.8356 17.8985 55.1872 17.5469 55.1872 17.1172L55.1833 13.4492ZM80.8002 15.2812C80.8002 14.2265 80.1635 13.2734 79.1869 12.8671C78.2103 12.4608 77.0853 12.6874 76.3353 13.4335C75.5892 14.1796 75.3666 15.3046 75.7689 16.2812C76.1751 17.2617 77.1283 17.8984 78.1869 17.8984C79.6283 17.8984 80.8002 16.7265 80.8002 15.2812ZM88.8314 15.2812C88.8314 14.2265 88.1947 13.2734 87.2181 12.8671C86.2416 12.4608 85.1165 12.6874 84.3665 13.4335C83.6204 14.1796 83.3978 15.3046 83.8001 16.2812C84.2063 17.2617 85.1595 17.8984 86.2181 17.8984C86.9095 17.8984 87.5736 17.6211 88.0658 17.1328C88.5541 16.6406 88.8314 15.9766 88.8314 15.2812ZM96.8626 15.2812C96.8626 14.2265 96.2259 13.2734 95.2493 12.8671C94.2727 12.4608 93.1477 12.6874 92.3977 13.4335C91.6516 14.1796 91.429 15.3046 91.8313 16.2812C92.2375 17.2617 93.1907 17.8984 94.2493 17.8984C94.9407 17.8984 95.6048 17.6211 96.097 17.1328C96.5853 16.6406 96.8626 15.9766 96.8626 15.2812ZM31.1707 16.3242H53.6237V14.2422H31.1747L31.1707 16.3242Z" fill="white"/>
<path d="M93.7195 36.3324V36.3363H94.7195V36.3324H93.7195ZM93.7195 32.1644V32.1683H94.7195V32.1644H93.7195ZM80.7963 15.7812H80.8002V14.7812H80.7963V15.7812ZM88.8275 15.7812H88.8314V14.7812H88.8275V15.7812ZM96.8587 15.7812H96.8626V14.7812H96.8587V15.7812ZM102.501 28.4804H103.501V27.4589L102.479 27.4806L102.501 28.4804ZM102.501 48.3554L103.501 48.366V48.3554H102.501ZM99.1452 51.6562L99.1516 50.6562H99.1452V51.6562ZM102.477 28.4809L101.477 28.483L101.479 29.5023L102.498 29.4807L102.477 28.4809ZM94.2195 44.6684L95.2193 44.6868L95.2197 44.6685L95.2193 44.6502L94.2195 44.6684ZM93.4382 43.8872L93.4473 42.8872H93.4382V43.8872ZM93.4461 45.4497V46.4497H93.4598L93.4736 46.4493L93.4461 45.4497ZM94.2195 40.5004L95.2193 40.5188L95.2197 40.5005L95.2193 40.4822L94.2195 40.5004ZM93.4382 39.7191L93.4564 38.7193L93.4473 38.7191H93.4382V39.7191ZM93.4461 41.2816V42.2816H93.4598L93.4736 42.2813L93.4461 41.2816ZM94.2195 36.3363L95.2193 36.3547L95.2197 36.3364L95.2193 36.3181L94.2195 36.3363ZM93.4382 35.5551L93.4473 34.5551H93.4382V35.5551ZM93.4461 37.1176V38.1176H93.4598L93.4736 38.1172L93.4461 37.1176ZM94.2195 32.1683L95.2193 32.1867L95.2197 32.1684L95.2193 32.1501L94.2195 32.1683ZM93.4382 31.3871L93.4473 30.3871H93.4382V31.3871ZM93.4461 32.9496V33.9496H93.4598L93.4736 33.9492L93.4461 32.9496ZM38.5825 68.6994L37.5827 68.6805L37.5825 68.69V68.6994H38.5825ZM38.3559 68.1447L37.6395 68.8423L37.6488 68.8519L37.6583 68.8612L38.3559 68.1447ZM37.8012 67.9182V68.9182H37.8107L37.8201 68.918L37.8012 67.9182ZM47.9575 74.9494L47.3132 75.7142L48.9772 77.116L48.9575 74.9403L47.9575 74.9494ZM47.1763 74.1682L47.1854 73.1682H47.1763V74.1682ZM47.1253 75.7307V76.7307H47.1345L47.1438 76.7305L47.1253 75.7307ZM47.6878 75.4846L48.4127 76.1733L48.4127 76.1733L47.6878 75.4846ZM47.9065 74.9064L48.5508 74.1416L46.8252 72.688L46.9072 74.9428L47.9065 74.9064ZM47.9575 81.1994L47.1082 81.7274L48.9899 84.7539L48.9575 81.1903L47.9575 81.1994ZM47.1763 80.4182L47.1854 79.4182H47.1763V80.4182ZM47.9065 81.1174L48.7558 80.5894L46.9122 81.2239L47.9065 81.1174ZM77.2227 14.8749L76.3007 14.4877L76.2988 14.4923L77.2227 14.8749ZM77.4492 16.0077L78.1563 15.3006L78.1563 15.3006L77.4492 16.0077ZM78.5859 16.2343L78.9653 17.1595L78.9686 17.1582L78.5859 16.2343ZM93.2847 14.8749L92.3627 14.4877L92.3608 14.4923L93.2847 14.8749ZM93.5112 16.0077L94.2183 15.3006L94.2183 15.3006L93.5112 16.0077ZM94.6479 16.2343L95.0273 17.1595L95.0305 17.1582L94.6479 16.2343ZM85.2535 14.8749L84.3315 14.4877L84.3296 14.4923L85.2535 14.8749ZM85.48 16.0077L86.1871 15.3006L86.1871 15.3006L85.48 16.0077ZM86.6167 16.2343L86.9961 17.1595L86.9994 17.1582L86.6167 16.2343ZM102.476 12.0742H103.476V12.0661L103.476 12.058L102.476 12.0742ZM102.476 18.4922L103.476 18.5106L103.476 18.5014V18.4922H102.476ZM27.0703 21.5547L27.054 22.5546L27.0622 22.5547H27.0703V21.5547ZM24 18.4922H23V18.5015L23.0002 18.5108L24 18.4922ZM24 12.0742L23.0001 12.058L23 12.0661V12.0742H24ZM27.0703 9V8H27.0622L27.0541 8.00013L27.0703 9ZM99.4063 9L99.4225 8.00013L99.4144 8H99.4063V9ZM55.1833 13.4492V12.4492H54.1822L54.1833 13.4503L55.1833 13.4492ZM55.1872 13.4492V14.4492H56.1872V13.4492H55.1872ZM30.394 12.668L30.3751 13.6678L30.3845 13.668H30.394V12.668ZM29.8393 12.8945L30.5369 13.611L30.5464 13.6017L30.5557 13.5921L29.8393 12.8945ZM29.6127 13.4492H30.6127V13.4398L30.6125 13.4303L29.6127 13.4492ZM29.6127 17.1172L30.6125 17.1361L30.6127 17.1266V17.1172H29.6127ZM29.8393 17.6719L30.5558 16.9742L30.5464 16.9648L29.8393 17.6719ZM55.1872 17.1172H56.1872V17.1161L55.1872 17.1172ZM79.1869 12.8671L79.571 11.9438L79.571 11.9438L79.1869 12.8671ZM76.3353 13.4335L75.63 12.7246L75.6282 12.7264L76.3353 13.4335ZM75.7689 16.2812L74.8443 16.6621L74.8451 16.664L75.7689 16.2812ZM87.2181 12.8671L87.6022 11.9438L87.6022 11.9438L87.2181 12.8671ZM84.3665 13.4335L83.6612 12.7246L83.6594 12.7264L84.3665 13.4335ZM83.8001 16.2812L82.8755 16.6621L82.8763 16.664L83.8001 16.2812ZM88.0658 17.1328L88.7701 17.8427L88.7757 17.8371L88.0658 17.1328ZM95.2493 12.8671L95.6334 11.9438L95.6334 11.9438L95.2493 12.8671ZM92.3977 13.4335L91.6924 12.7246L91.6906 12.7264L92.3977 13.4335ZM91.8313 16.2812L90.9067 16.6621L90.9075 16.664L91.8313 16.2812ZM96.097 17.1328L96.8013 17.8427L96.8069 17.8371L96.097 17.1328ZM31.1707 16.3242L30.1707 16.3223L30.1688 17.3242H31.1707V16.3242ZM53.6237 16.3242V17.3242H54.6237V16.3242H53.6237ZM53.6237 14.2422H54.6237V13.2422H53.6237V14.2422ZM31.1747 14.2422V13.2422H30.1766L30.1747 14.2403L31.1747 14.2422ZM101.501 28.4804V48.3554H103.501V28.4804H101.501ZM101.501 48.3448C101.487 49.6308 100.436 50.6644 99.1516 50.6562L99.1388 52.6562C101.526 52.6714 103.475 50.7518 103.501 48.366L101.501 48.3448ZM99.1452 50.6562H79.2702V52.6562H99.1452V50.6562ZM79.2702 50.6562C77.9858 50.6562 76.946 49.6148 76.946 48.3359H74.946C74.946 50.721 76.8828 52.6562 79.2702 52.6562V50.6562ZM76.946 48.3359V28.4809H74.946V48.3359H76.946ZM76.946 28.4809C76.946 27.1973 77.9866 26.1567 79.2702 26.1567V24.1567C76.882 24.1567 74.946 26.0927 74.946 28.4809H76.946ZM79.2702 26.1567H99.1452V24.1567H79.2702V26.1567ZM99.1452 26.1567C100.43 26.1567 101.474 27.1989 101.477 28.483L103.477 28.4788C103.472 26.0911 101.532 24.1567 99.1452 24.1567V26.1567ZM102.498 29.4807L102.522 29.4802L102.479 27.4806L102.456 27.4811L102.498 29.4807ZM95.2193 44.6502C95.2019 43.6907 94.4303 42.8961 93.4473 42.8872L93.4291 44.8871C93.3056 44.886 93.2215 44.7868 93.2197 44.6866L95.2193 44.6502ZM93.4382 42.8872H84.9891V44.8872H93.4382V42.8872ZM84.9891 42.8872C84.0071 42.8872 83.2078 43.6864 83.2078 44.6684H85.2078C85.2078 44.791 85.1116 44.8872 84.9891 44.8872V42.8872ZM83.2078 44.6684C83.2078 45.6504 84.0071 46.4497 84.9891 46.4497V44.4497C85.1116 44.4497 85.2078 44.5458 85.2078 44.6684H83.2078ZM84.9891 46.4497H93.4461V44.4497H84.9891V46.4497ZM93.4736 46.4493C94.4348 46.4228 95.2017 45.6457 95.2193 44.6868L93.2197 44.65C93.2216 44.5427 93.3089 44.4531 93.4185 44.45L93.4736 46.4493ZM95.2193 40.4822C95.2017 39.5145 94.4242 38.7369 93.4564 38.7193L93.4201 40.719C93.3117 40.717 93.2216 40.6269 93.2197 40.5186L95.2193 40.4822ZM93.4382 38.7191H84.9891V40.7191H93.4382V38.7191ZM84.9891 38.7191C84.0071 38.7191 83.2078 39.5184 83.2078 40.5004H85.2078C85.2078 40.623 85.1116 40.7191 84.9891 40.7191V38.7191ZM83.2078 40.5004C83.2078 41.4895 84.0103 42.2816 84.9891 42.2816V40.2816C85.1084 40.2816 85.2078 40.3785 85.2078 40.5004H83.2078ZM84.9891 42.2816H93.4461V40.2816H84.9891V42.2816ZM93.4736 42.2813C94.4348 42.2548 95.2017 41.4777 95.2193 40.5188L93.2197 40.482C93.2216 40.3747 93.3089 40.285 93.4185 40.282L93.4736 42.2813ZM95.2193 36.3181C95.2019 35.3586 94.4303 34.564 93.4473 34.5551L93.4291 36.555C93.3056 36.5539 93.2215 36.4547 93.2197 36.3545L95.2193 36.3181ZM93.4382 34.5551H84.9891V36.5551H93.4382V34.5551ZM84.9891 34.5551C84.0103 34.5551 83.2078 35.3472 83.2078 36.3363H85.2078C85.2078 36.4582 85.1084 36.5551 84.9891 36.5551V34.5551ZM83.2078 36.3363C83.2078 37.3183 84.0071 38.1176 84.9891 38.1176V36.1176C85.1116 36.1176 85.2078 36.2137 85.2078 36.3363H83.2078ZM84.9891 38.1176H93.4461V36.1176H84.9891V38.1176ZM93.4736 38.1172C94.4348 38.0907 95.2017 37.3136 95.2193 36.3547L93.2197 36.3179C93.2216 36.2106 93.3089 36.121 93.4185 36.1179L93.4736 38.1172ZM95.2193 32.1501C95.2019 31.1906 94.4303 30.396 93.4473 30.3871L93.4291 32.387C93.3056 32.3859 93.2215 32.2867 93.2197 32.1865L95.2193 32.1501ZM93.4382 30.3871H84.9891V32.3871H93.4382V30.3871ZM84.9891 30.3871C84.0071 30.3871 83.2078 31.1863 83.2078 32.1683H85.2078C85.2078 32.2909 85.1116 32.3871 84.9891 32.3871V30.3871ZM83.2078 32.1683C83.2078 33.1503 84.0071 33.9496 84.9891 33.9496V31.9496C85.1116 31.9496 85.2078 32.0457 85.2078 32.1683H83.2078ZM84.9891 33.9496H93.4461V31.9496H84.9891V33.9496ZM93.4736 33.9492C94.4348 33.9227 95.2017 33.1456 95.2193 32.1867L93.2197 32.1499C93.2216 32.0426 93.3089 31.953 93.4185 31.9499L93.4736 33.9492ZM39.5823 68.7183C39.5914 68.2396 39.4034 67.7688 39.0536 67.4282L37.6583 68.8612C37.6054 68.8096 37.5815 68.7451 37.5827 68.6805L39.5823 68.7183ZM39.0724 67.4471C38.7318 67.0973 38.261 66.9093 37.7824 66.9183L37.8201 68.918C37.7555 68.9192 37.691 68.8953 37.6395 68.8423L39.0724 67.4471ZM37.8012 66.9182H24.7812V68.9182H37.8012V66.9182ZM24.7812 66.9182C23.7921 66.9182 23 67.7207 23 68.6994H25C25 68.8187 24.9032 68.9182 24.7812 68.9182V66.9182ZM23 68.6994C23 69.6781 23.7921 70.4807 24.7812 70.4807V68.4807C24.9032 68.4807 25 68.5801 25 68.6994H23ZM24.7812 70.4807H37.8012V68.4807H24.7812V70.4807ZM37.8012 70.4807C38.7832 70.4807 39.5825 69.6814 39.5825 68.6994H37.5825C37.5825 68.5768 37.6787 68.4807 37.8012 68.4807V70.4807ZM48.9575 74.9403C48.9486 73.9654 48.1602 73.1771 47.1854 73.1682L47.1672 75.1681C47.0517 75.1671 46.9586 75.074 46.9575 74.9585L48.9575 74.9403ZM47.1763 73.1682H24.7812V75.1682H47.1763V73.1682ZM24.7812 73.1682C23.7921 73.1682 23 73.9707 23 74.9494H25C25 75.0687 24.9032 75.1682 24.7812 75.1682V73.1682ZM23 74.9494C23 75.9281 23.7921 76.7307 24.7812 76.7307V74.7307C24.9032 74.7307 25 74.8301 25 74.9494H23ZM24.7812 76.7307H47.1253V74.7307H24.7812V76.7307ZM47.1438 76.7305C47.6142 76.7218 48.0744 76.5294 48.4127 76.1733L46.9628 74.7958C47.0042 74.7522 47.0581 74.7317 47.1067 74.7308L47.1438 76.7305ZM48.4127 76.1733C48.7466 75.8219 48.9234 75.3534 48.9058 74.8701L46.9072 74.9428C46.9052 74.8892 46.9257 74.8348 46.9628 74.7958L48.4127 76.1733ZM47.2622 75.6712L47.3132 75.7142L48.6018 74.1846L48.5508 74.1416L47.2622 75.6712ZM48.9575 81.1903C48.9486 80.2154 48.1602 79.4271 47.1854 79.4182L47.1672 81.4181C47.0517 81.4171 46.9586 81.324 46.9575 81.2085L48.9575 81.1903ZM47.1763 79.4182H24.7812V81.4182H47.1763V79.4182ZM24.7812 79.4182C23.7921 79.4182 23 80.2207 23 81.1994H25C25 81.3187 24.9032 81.4182 24.7812 81.4182V79.4182ZM23 81.1994C23 82.1781 23.7921 82.9807 24.7812 82.9807V80.9807C24.9032 80.9807 25 81.0801 25 81.1994H23ZM24.7812 82.9807H47.1253V80.9807H24.7812V82.9807ZM47.1253 82.9807C47.63 82.9807 48.1104 82.7677 48.4488 82.3938L46.9658 81.0519C47.0072 81.0061 47.0659 80.9807 47.1253 80.9807V82.9807ZM48.4488 82.3938C48.7839 82.0234 48.9553 81.5195 48.9008 81.0108L46.9122 81.2239C46.9046 81.1527 46.9275 81.0942 46.9658 81.0519L48.4488 82.3938ZM47.0572 81.6454L47.1082 81.7274L48.8068 80.6714L48.7558 80.5894L47.0572 81.6454ZM78.1875 13.2304C77.3585 13.2304 76.6189 13.7299 76.3007 14.4877L78.1446 15.2622C78.1545 15.2387 78.1727 15.2304 78.1875 15.2304V13.2304ZM76.2988 14.4923C75.9832 15.2542 76.1604 16.1332 76.7421 16.7149L78.1563 15.3006C78.1513 15.2956 78.147 15.2884 78.1451 15.2789C78.1432 15.2694 78.1446 15.2623 78.1466 15.2576L76.2988 14.4923ZM76.7421 16.7148C77.3254 17.2982 78.2035 17.4719 78.9653 17.1595L78.2066 15.309C78.1975 15.3127 78.1879 15.3137 78.1781 15.3117C78.1682 15.3098 78.1612 15.3055 78.1563 15.3006L76.7421 16.7148ZM78.9686 17.1582C79.7296 16.843 80.2265 16.0991 80.2265 15.2733H78.2265C78.2265 15.2914 78.2157 15.3052 78.2033 15.3104L78.9686 17.1582ZM80.2265 15.2733C80.2265 14.733 80.0133 14.2123 79.629 13.828L78.2147 15.2422C78.221 15.2484 78.2265 15.2591 78.2265 15.2733H80.2265ZM79.629 13.828C79.246 13.445 78.726 13.2304 78.1875 13.2304V15.2304C78.191 15.2304 78.1959 15.2311 78.2014 15.2334C78.2069 15.2357 78.2114 15.2388 78.2147 15.2422L79.629 13.828ZM94.2495 13.2304C93.4205 13.2304 92.6809 13.7299 92.3627 14.4877L94.2066 15.2622C94.2165 15.2387 94.2347 15.2304 94.2495 15.2304V13.2304ZM92.3608 14.4923C92.0452 15.2542 92.2224 16.1332 92.8041 16.7149L94.2183 15.3006C94.2133 15.2956 94.209 15.2884 94.2071 15.2789C94.2052 15.2694 94.2066 15.2623 94.2086 15.2576L92.3608 14.4923ZM92.8041 16.7148C93.3874 17.2982 94.2655 17.4719 95.0273 17.1595L94.2685 15.309C94.2595 15.3127 94.2499 15.3137 94.2401 15.3117C94.2302 15.3098 94.2232 15.3055 94.2183 15.3006L92.8041 16.7148ZM95.0305 17.1582C95.7916 16.843 96.2885 16.0991 96.2885 15.2733H94.2885C94.2885 15.2914 94.2777 15.3052 94.2653 15.3104L95.0305 17.1582ZM96.2885 15.2733C96.2885 14.7329 96.0753 14.2123 95.691 13.828L94.2767 15.2422C94.283 15.2484 94.2885 15.2591 94.2885 15.2733H96.2885ZM95.691 13.828C95.308 13.445 94.788 13.2304 94.2495 13.2304V15.2304C94.253 15.2304 94.2579 15.2311 94.2634 15.2334C94.2689 15.2357 94.2734 15.2388 94.2767 15.2422L95.691 13.828ZM86.2183 13.2304C85.3893 13.2304 84.6497 13.7299 84.3315 14.4877L86.1754 15.2622C86.1853 15.2387 86.2035 15.2304 86.2183 15.2304V13.2304ZM84.3296 14.4923C84.014 15.2542 84.1912 16.1331 84.7729 16.7149L86.1871 15.3006C86.1821 15.2956 86.1778 15.2884 86.1759 15.2789C86.174 15.2694 86.1754 15.2623 86.1774 15.2576L84.3296 14.4923ZM84.7729 16.7148C85.3562 17.2982 86.2343 17.4719 86.9961 17.1595L86.2374 15.309C86.2283 15.3127 86.2187 15.3137 86.2089 15.3117C86.199 15.3098 86.192 15.3055 86.1871 15.3006L84.7729 16.7148ZM86.9994 17.1582C87.7604 16.843 88.2573 16.0991 88.2573 15.2733H86.2573C86.2573 15.2914 86.2465 15.3052 86.2341 15.3104L86.9994 17.1582ZM88.2573 15.2733C88.2573 14.733 88.0441 14.2123 87.6598 13.828L86.2455 15.2422C86.2518 15.2484 86.2573 15.2591 86.2573 15.2733H88.2573ZM87.6598 13.828C87.2768 13.445 86.7568 13.2304 86.2183 13.2304V15.2304C86.2218 15.2304 86.2267 15.2311 86.2322 15.2334C86.2377 15.2357 86.2422 15.2388 86.2455 15.2422L87.6598 13.828ZM101.476 12.0742V18.4922H103.476V12.0742H101.476ZM101.476 18.4738C101.455 19.6264 100.511 20.5547 99.3513 20.5547V22.5547C101.598 22.5547 103.435 20.7564 103.476 18.5106L101.476 18.4738ZM99.3513 20.5547H27.0703V22.5547H99.3513V20.5547ZM27.0866 20.5548C25.9452 20.5363 25.021 19.6144 24.9998 18.4736L23.0002 18.5108C23.0414 20.7294 24.836 22.5185 27.054 22.5546L27.0866 20.5548ZM25 18.4922V12.0742H23V18.4922H25ZM24.9999 12.0904C25.0185 10.9448 25.9442 10.0184 27.0865 9.99987L27.0541 8.00013C24.8292 8.03621 23.0362 9.83645 23.0001 12.058L24.9999 12.0904ZM27.0703 10H99.4063V8H27.0703V10ZM99.3901 9.99987C100.532 10.0184 101.458 10.9447 101.476 12.0904L103.476 12.058C103.44 9.83653 101.647 8.03627 99.4225 8.00013L99.3901 9.99987ZM55.1833 14.4492H55.1872V12.4492H55.1833V14.4492ZM56.1872 13.4492C56.1872 12.4672 55.3879 11.668 54.406 11.668V13.668C54.2834 13.668 54.1872 13.5718 54.1872 13.4492H56.1872ZM54.406 11.668H30.394V13.668H54.406V11.668ZM30.4128 11.6681C29.9342 11.6591 29.4634 11.8471 29.1228 12.1969L30.5557 13.5921C30.5042 13.6451 30.4397 13.669 30.3751 13.6678L30.4128 11.6681ZM29.1417 12.178C28.7918 12.5186 28.6038 12.9894 28.6129 13.4681L30.6125 13.4303C30.6137 13.4949 30.5898 13.5594 30.5369 13.611L29.1417 12.178ZM28.6127 13.4492V17.1172H30.6127V13.4492H28.6127ZM28.6129 17.0983C28.6037 17.5846 28.797 18.0438 29.1321 18.379L30.5464 16.9648C30.5847 17.0031 30.6139 17.0638 30.6125 17.1361L28.6129 17.0983ZM29.1228 18.3695C29.4725 18.7286 29.9423 18.8985 30.394 18.8985V16.8985C30.4315 16.8985 30.4951 16.912 30.5557 16.9743L29.1228 18.3695ZM30.394 18.8985H54.406V16.8985H30.394V18.8985ZM54.406 18.8985C55.3879 18.8985 56.1872 18.0992 56.1872 17.1172H54.1872C54.1872 16.9946 54.2834 16.8985 54.406 16.8985V18.8985ZM56.1872 17.1161L56.1833 13.4481L54.1833 13.4503L54.1872 17.1183L56.1872 17.1161ZM81.8002 15.2812C81.8002 13.8213 80.9193 12.5048 79.571 11.9438L78.8028 13.7904C79.4076 14.042 79.8002 14.6317 79.8002 15.2812H81.8002ZM79.571 11.9438C78.2176 11.3808 76.6636 11.6964 75.63 12.7246L77.0406 14.1425C77.507 13.6785 78.2031 13.5409 78.8028 13.7904L79.571 11.9438ZM75.6282 12.7264C74.5952 13.7594 74.2889 15.314 74.8443 16.6621L76.6935 15.9003C76.4442 15.2952 76.5832 14.5998 77.0424 14.1406L75.6282 12.7264ZM74.8451 16.664C75.4059 18.0176 76.7233 18.8984 78.1869 18.8984V16.8984C77.5333 16.8984 76.9444 16.5058 76.6927 15.8984L74.8451 16.664ZM78.1869 18.8984C80.1816 18.8984 81.8002 17.2778 81.8002 15.2812H79.8002C79.8002 16.1752 79.075 16.8984 78.1869 16.8984V18.8984ZM89.8314 15.2812C89.8314 13.8213 88.9505 12.5048 87.6022 11.9438L86.834 13.7904C87.4389 14.042 87.8314 14.6317 87.8314 15.2812H89.8314ZM87.6022 11.9438C86.2488 11.3808 84.6948 11.6964 83.6612 12.7246L85.0718 14.1425C85.5382 13.6785 86.2343 13.5409 86.834 13.7904L87.6022 11.9438ZM83.6594 12.7264C82.6264 13.7594 82.3201 15.314 82.8755 16.6621L84.7247 15.9003C84.4754 15.2952 84.6144 14.5998 85.0736 14.1406L83.6594 12.7264ZM82.8763 16.664C83.4371 18.0176 84.7545 18.8984 86.2181 18.8984V16.8984C85.5645 16.8984 84.9756 16.5058 84.7239 15.8984L82.8763 16.664ZM86.2181 18.8984C87.1774 18.8984 88.0935 18.5139 88.7701 17.8427L87.3615 16.4229C87.0537 16.7282 86.6416 16.8984 86.2181 16.8984V18.8984ZM88.7757 17.8371C89.4474 17.16 89.8314 16.2438 89.8314 15.2812H87.8314C87.8314 15.7094 87.6607 16.1212 87.3559 16.4285L88.7757 17.8371ZM97.8626 15.2812C97.8626 13.8213 96.9817 12.5048 95.6334 11.9438L94.8652 13.7904C95.47 14.042 95.8626 14.6317 95.8626 15.2812H97.8626ZM95.6334 11.9438C94.28 11.3808 92.726 11.6964 91.6924 12.7246L93.103 14.1425C93.5694 13.6785 94.2655 13.5409 94.8652 13.7904L95.6334 11.9438ZM91.6906 12.7264C90.6576 13.7594 90.3513 15.314 90.9067 16.6621L92.7559 15.9003C92.5066 15.2952 92.6456 14.5998 93.1048 14.1406L91.6906 12.7264ZM90.9075 16.664C91.4683 18.0176 92.7857 18.8984 94.2493 18.8984V16.8984C93.5957 16.8984 93.0068 16.5058 92.7551 15.8984L90.9075 16.664ZM94.2493 18.8984C95.2087 18.8984 96.1247 18.5139 96.8013 17.8427L95.3927 16.4229C95.0849 16.7282 94.6728 16.8984 94.2493 16.8984V18.8984ZM96.8069 17.8371C97.4787 17.16 97.8626 16.2438 97.8626 15.2812H95.8626C95.8626 15.7094 95.6919 16.1212 95.3871 16.4285L96.8069 17.8371ZM31.1707 17.3242H53.6237V15.3242H31.1707V17.3242ZM54.6237 16.3242V14.2422H52.6237V16.3242H54.6237ZM53.6237 13.2422H31.1747V15.2422H53.6237V13.2422ZM30.1747 14.2403L30.1707 16.3223L32.1707 16.3261L32.1747 14.2441L30.1747 14.2403Z" fill="black" mask="url(#path-8-inside-1_176_72)"/>
</svg>
