<svg width="128" height="100" viewBox="0 0 128 100" fill="none" xmlns="http://www.w3.org/2000/svg">
<path d="M2.15408 39.847C2.25277 39.945 2.3866 40 2.52614 40C2.66569 40 2.79952 39.945 2.89821 39.847L5.50318 37.261L8.10815 39.847C8.2074 39.9422 8.34033 39.9949 8.47832 39.9937C8.6163 39.9925 8.74829 39.9375 8.84586 39.8407C8.94344 39.7438 8.99878 39.6128 8.99998 39.4758C9.00118 39.3388 8.94814 39.2069 8.85227 39.1083L5.87524 36.153C5.77655 36.055 5.64272 36 5.50318 36C5.36363 36 5.2298 36.055 5.13111 36.153L2.15408 39.1083C2.05542 39.2063 2 39.3392 2 39.4777C2 39.6162 2.05542 39.7491 2.15408 39.847Z" fill="#5DB947"/>
<path d="M14.1541 71.847C14.2528 71.945 14.3866 72 14.5261 72C14.6657 72 14.7995 71.945 14.8982 71.847L17.5032 69.261L20.1081 71.847C20.2074 71.9422 20.3403 71.9949 20.4783 71.9937C20.6163 71.9925 20.7483 71.9375 20.8459 71.8407C20.9434 71.7438 20.9988 71.6128 21 71.4758C21.0012 71.3388 20.9481 71.2069 20.8523 71.1083L17.8752 68.153C17.7766 68.055 17.6427 68 17.5032 68C17.3636 68 17.2298 68.055 17.1311 68.153L14.1541 71.1083C14.0554 71.2063 14 71.3392 14 71.4777C14 71.6162 14.0554 71.7491 14.1541 71.847Z" fill="#5DB947"/>
<path d="M112.154 66.847C112.253 66.945 112.387 67 112.526 67C112.666 67 112.8 66.945 112.898 66.847L115.503 64.261L118.108 66.847C118.207 66.9422 118.34 66.9949 118.478 66.9937C118.616 66.9925 118.748 66.9375 118.846 66.8407C118.943 66.7438 118.999 66.6128 119 66.4758C119.001 66.3388 118.948 66.2069 118.852 66.1083L115.875 63.153C115.777 63.055 115.643 63 115.503 63C115.364 63 115.23 63.055 115.131 63.153L112.154 66.1083C112.055 66.2063 112 66.3392 112 66.4777C112 66.6162 112.055 66.7491 112.154 66.847Z" fill="#5DB947"/>
<path d="M109.776 32.312L86.5176 65.429C86.2636 65.8001 85.9004 66.0813 85.4746 66.2298L76.2363 69.0618C76.037 69.1243 75.83 69.1555 75.6191 69.1555C75.1933 69.1594 74.7753 69.0266 74.4238 68.7805C73.8964 68.4133 73.5683 67.8196 73.537 67.1789L73.08 57.5109C73.0488 57.05 73.1816 56.593 73.455 56.2179L96.65 23.1049C97.8414 21.2846 99.7164 20.0268 101.849 19.6166C103.982 19.2065 106.193 19.6791 107.97 20.9291C109.752 22.1752 110.947 24.0932 111.287 26.2377C111.627 28.3822 111.084 30.5776 109.776 32.312ZM48.4436 81.386C41.51 80.7337 36.4126 74.593 37.0486 67.656L41.7556 17L33.3611 18.043C28.7439 18.6446 25.4822 22.8633 26.0681 27.4805L32.4743 78.1795C33.0133 82.3787 36.572 85.535 40.8063 85.5623C41.1539 85.5623 41.5016 85.5428 41.8493 85.4998L63.4623 82.7615L48.4436 81.386Z" fill="#C8F4BD"/>
<path d="M90.9314 68.337L95.9744 61.1612L94.8299 73.4542C94.4158 77.7901 90.7791 81.1065 86.4237 81.1183H85.6424L49.8064 77.7355C45.1658 77.2941 41.7556 73.1808 42.1814 68.5363L46.9002 17.6613C47.1112 15.4308 48.1971 13.3722 49.9197 11.9425C51.6463 10.5128 53.8689 9.82925 56.0994 10.0363L91.9004 13.3605C94.1348 13.5598 96.1934 14.6417 97.6192 16.3683C97.9083 16.7238 98.17 17.0988 98.4005 17.4933C96.7443 18.3918 95.3185 19.6613 94.2364 21.2042L70.9864 54.2862C70.1895 55.4268 69.795 56.794 69.8614 58.1807L70.0606 62.2432L52.4946 60.9424C51.3462 60.8565 50.3423 61.7198 50.2563 62.8682C50.1703 64.0205 51.0336 65.0244 52.1821 65.1104L70.2561 66.4737L70.3303 67.8292C70.4905 71.1612 73.2405 73.7784 76.5803 73.7745C77.2014 73.7745 77.8186 73.6808 78.4123 73.505L87.6623 70.6612C88.9826 70.2628 90.1311 69.4385 90.9318 68.3174L90.9314 68.337ZM53.7984 24.806C53.6929 25.9505 54.5366 26.9622 55.6812 27.0677L81.5442 29.4739H81.7434C82.8957 29.5247 83.8684 28.6341 83.9231 27.4856C83.9739 26.3333 83.0832 25.3606 81.9309 25.3059L56.0559 22.9231C54.9114 22.8177 53.9 23.6615 53.7984 24.806ZM54.4859 39.704L66.8299 40.9657H67.0486V40.9618C68.1189 40.9697 69.0174 40.1611 69.1306 39.0985C69.1892 38.5478 69.0251 37.9969 68.6775 37.5673C68.3298 37.1377 67.8259 36.8642 67.2752 36.8056L54.9002 35.5986C53.7596 35.4814 52.74 36.3135 52.619 37.4541C52.5252 38.5869 53.353 39.5868 54.4859 39.704ZM51.4429 50.118C51.3921 50.6688 51.5601 51.2196 51.9155 51.6453C52.2671 52.0711 52.7749 52.3407 53.3296 52.3914L64.2866 53.4344H64.4858V53.4305C65.6342 53.4852 66.6108 52.5946 66.6616 51.4422C66.7124 50.2899 65.8218 49.3172 64.6733 49.2664L53.7163 48.2234H53.7124C53.1617 48.1726 52.6108 48.3406 52.1851 48.7C51.7554 49.0555 51.4897 49.5672 51.4429 50.118Z" fill="#C8F4BD"/>
<path d="M77.6211 71.6555C77.8805 71.6553 78.1368 71.6168 78.3843 71.5394C78.3848 71.5392 78.3854 71.539 78.3859 71.5389L87.6211 68.7078L87.6302 68.705L87.6391 68.7019C88.1667 68.518 88.6155 68.1702 88.9286 67.7137C88.9291 67.7129 88.9297 67.7121 88.9302 67.7113L112.18 34.6063C113.567 32.7639 114.141 30.4344 113.781 28.1595C113.42 25.8816 112.15 23.8439 110.257 22.5198C108.369 21.1919 106.02 20.6899 103.755 21.1256L103.849 21.6166L103.755 21.1256C101.491 21.5609 99.5017 22.8947 98.236 24.8244L75.051 57.9234C75.0501 57.9246 75.0491 57.9259 75.0482 57.9272C74.709 58.3943 74.543 58.9637 74.5808 59.5394L75.0376 69.2025L75.0376 69.2033C75.0764 69.9984 75.4832 70.7346 76.1375 71.1905C76.5712 71.4939 77.0894 71.6599 77.6211 71.6555ZM77.6211 71.6555C77.622 71.6555 77.6228 71.6555 77.6236 71.6555L77.6191 71.1555V71.6555C77.6197 71.6555 77.6204 71.6555 77.6211 71.6555ZM44.2534 19.0463L44.3109 18.4272L43.6939 18.5038L35.2994 19.5468L35.2994 19.5468L35.2965 19.5472C30.4066 20.1843 26.9515 24.6523 27.572 29.5432C27.572 29.5433 27.572 29.5434 27.572 29.5434L33.9782 80.2422L33.9783 80.2432C34.5492 84.6903 38.3181 88.0334 42.803 88.0623H42.8063C43.1727 88.0623 43.5409 88.0417 43.9106 87.996L43.9121 87.9958L65.5251 85.2575L65.5079 84.2636L50.4904 82.8882C50.4902 82.8882 50.49 82.8882 50.4898 82.8881C43.831 82.2613 38.9357 76.3639 39.5465 69.7016L44.2534 19.0463Z" fill="#5DB947" stroke="black"/>
<path d="M91.4018 70.6651C90.6631 71.3403 89.7785 71.8465 88.8078 72.1396C88.8075 72.1397 88.8071 72.1398 88.8068 72.1399L79.5592 74.9829L79.5543 74.9845C78.9166 75.1732 78.2517 75.2746 77.5803 75.2746M91.4018 70.6651L95.332 74.4079C94.9418 78.4873 91.52 81.6072 87.4223 81.6183H86.666L50.8538 78.2378C46.4875 77.8225 43.2787 73.9523 43.6793 69.582L48.398 18.7084C48.398 18.7083 48.398 18.7082 48.398 18.708C48.5966 16.6091 49.6186 14.6723 51.2389 13.3274C52.8632 11.9826 54.9543 11.3393 57.0532 11.5342L92.8542 14.8584L92.856 14.8586C94.957 15.0459 96.8921 16.0629 98.2324 17.6852C98.3984 17.8894 98.5546 18.1 98.7001 18.3171C97.1724 19.2305 95.8517 20.4561 94.827 21.9171L71.5773 54.9987L71.5765 54.9999C70.7163 56.2311 70.2902 57.7074 70.3619 59.2047L70.362 59.2052L70.5335 62.7028L53.5319 61.4438C52.1084 61.3373 50.8643 62.4068 50.7577 63.8309L50.7577 63.8311C50.6513 65.2577 51.7199 66.5022 53.1445 66.609C53.1446 66.609 53.1447 66.609 53.1448 66.6091L70.7808 67.9393L70.8309 68.8532C70.8309 68.8538 70.8309 68.8543 70.831 68.8549C71.0048 72.4529 73.9746 75.2785 77.5803 75.2746M91.4018 70.6651L91.3951 70.9697L92.3404 69.6245L96.3022 63.9873L95.3321 74.4067L91.4018 70.6651ZM77.5803 75.2746V74.7745M77.5803 75.2746C77.5805 75.2746 77.5807 75.2745 77.5809 75.2745L77.5803 74.7745M77.5803 74.7745C78.2014 74.7745 78.8186 74.6808 79.4123 74.505L88.6623 71.6612L77.5803 74.7745ZM82.4978 30.9718L82.521 30.9739H82.5442H82.7329C84.1558 31.0304 85.3549 29.9287 85.4225 28.5094L85.4226 28.5077C85.4854 27.083 84.3871 25.8808 82.9663 25.8071L57.1018 23.4253C57.1018 23.4253 57.1017 23.4253 57.1017 23.4253C55.6821 23.2944 54.4274 24.3408 54.3005 25.7602C54.1696 27.1804 55.2165 28.4346 56.6348 28.5656L56.6353 28.5656L82.4978 30.9718ZM55.4344 41.2014L55.435 41.2015L67.779 42.4632L67.8044 42.4657H67.8299H68.0486H68.5486V42.4162C69.6461 42.2064 70.5057 41.2973 70.6278 40.1515L70.6278 40.1514C70.7005 39.4679 70.4969 38.7851 70.0662 38.2528C69.6349 37.7199 69.01 37.381 68.3281 37.3084L68.3237 37.308L55.9513 36.1012C55.9508 36.1012 55.9503 36.1011 55.9498 36.1011C54.5339 35.9564 53.2716 36.9891 53.1218 38.4014L53.1217 38.4014L53.1207 38.4129C53.0045 39.8166 54.0306 41.0562 55.4344 41.2014ZM65.9858 54.9344V54.9019C67.1728 54.7159 68.1061 53.7137 68.1612 52.4642C68.2239 51.041 67.1271 49.8375 65.7087 49.7675L54.7637 48.7257L54.7401 48.7234H54.7342C54.0616 48.6677 53.388 48.8752 52.8644 49.3164C52.3324 49.7574 52.0034 50.3915 51.9448 51.0739C51.8826 51.754 52.0898 52.436 52.5308 52.9648C52.9669 53.4923 53.5963 53.8261 54.283 53.8893C54.2834 53.8893 54.2837 53.8893 54.284 53.8894L65.2392 54.9322L65.2629 54.9344H65.2866H65.4858H65.9858Z" fill="white" stroke="black"/>
<path d="M110.154 11.847C110.253 11.945 110.387 12 110.526 12C110.666 12 110.8 11.945 110.898 11.847L113.503 9.26103L116.108 11.847C116.207 11.9422 116.34 11.9949 116.478 11.9937C116.616 11.9925 116.748 11.9375 116.846 11.8407C116.943 11.7438 116.999 11.6128 117 11.4758C117.001 11.3388 116.948 11.2069 116.852 11.1083L113.875 8.15296C113.777 8.05502 113.643 8 113.503 8C113.364 8 113.23 8.05502 113.131 8.15296L110.154 11.1083C110.055 11.2063 110 11.3392 110 11.4777C110 11.6162 110.055 11.7491 110.154 11.847Z" fill="#5DB947"/>
</svg>
