<svg width="128" height="100" viewBox="0 0 128 100" fill="none" xmlns="http://www.w3.org/2000/svg">
<path d="M27.1541 74.847C27.2528 74.945 27.3866 75 27.5261 75C27.6657 75 27.7995 74.945 27.8982 74.847L30.5032 72.261L33.1081 74.847C33.2074 74.9422 33.3403 74.9949 33.4783 74.9937C33.6163 74.9925 33.7483 74.9375 33.8459 74.8407C33.9434 74.7438 33.9988 74.6128 34 74.4758C34.0012 74.3388 33.9481 74.2069 33.8523 74.1083L30.8752 71.153C30.7766 71.055 30.6427 71 30.5032 71C30.3636 71 30.2298 71.055 30.1311 71.153L27.1541 74.1083C27.0554 74.2063 27 74.3392 27 74.4777C27 74.6162 27.0554 74.7491 27.1541 74.847Z" fill="#5DB947"/>
<path d="M121.154 29.847C121.253 29.945 121.387 30 121.526 30C121.666 30 121.8 29.945 121.898 29.847L124.503 27.261L127.108 29.847C127.207 29.9422 127.34 29.9949 127.478 29.9937C127.616 29.9925 127.748 29.9375 127.846 29.8407C127.943 29.7438 127.999 29.6128 128 29.4758C128.001 29.3388 127.948 29.2069 127.852 29.1083L124.875 26.153C124.777 26.055 124.643 26 124.503 26C124.364 26 124.23 26.055 124.131 26.153L121.154 29.1083C121.055 29.2063 121 29.3392 121 29.4777C121 29.6162 121.055 29.7491 121.154 29.847Z" fill="#5DB947"/>
<path d="M115.154 78.847C115.253 78.945 115.387 79 115.526 79C115.666 79 115.8 78.945 115.898 78.847L118.503 76.261L121.108 78.847C121.207 78.9422 121.34 78.9949 121.478 78.9937C121.616 78.9925 121.748 78.9375 121.846 78.8407C121.943 78.7438 121.999 78.6128 122 78.4758C122.001 78.3388 121.948 78.2069 121.852 78.1083L118.875 75.153C118.777 75.055 118.643 75 118.503 75C118.364 75 118.23 75.055 118.131 75.153L115.154 78.1083C115.055 78.2063 115 78.3392 115 78.4777C115 78.6162 115.055 78.7491 115.154 78.847Z" fill="#5DB947"/>
<path d="M11.1541 31.847C11.2528 31.945 11.3866 32 11.5261 32C11.6657 32 11.7995 31.945 11.8982 31.847L14.5032 29.261L17.1081 31.847C17.2074 31.9422 17.3403 31.9949 17.4783 31.9937C17.6163 31.9925 17.7483 31.9375 17.8459 31.8407C17.9434 31.7438 17.9988 31.6128 18 31.4758C18.0012 31.3388 17.9481 31.2069 17.8523 31.1083L14.8752 28.153C14.7766 28.055 14.6427 28 14.5032 28C14.3636 28 14.2298 28.055 14.1311 28.153L11.1541 31.1083C11.0554 31.2063 11 31.3392 11 31.4777C11 31.6162 11.0554 31.7491 11.1541 31.847Z" fill="#5DB947"/>
<path d="M44.0587 69.128C43.6329 65.6827 43.8243 62.1866 44.6251 58.812C41.1485 58.5581 37.8829 57.0542 35.4337 54.5737C32.9806 52.0932 31.5157 48.8081 31.3087 45.3276C31.1017 41.8471 32.1642 38.4096 34.3048 35.6557C36.4415 32.9018 39.504 31.0151 42.9298 30.3549C46.3517 29.6908 49.8986 30.2924 52.9103 32.0502C55.922 33.808 58.1915 36.5971 59.297 39.9057C61.254 38.8745 63.3243 38.0698 65.4611 37.5073C65.3322 37.144 65.1955 36.7886 65.051 36.4331C64.8713 36.0073 64.6838 35.5894 64.4806 35.1831C63.7424 33.7261 63.7541 32.0034 64.508 30.5542L64.7463 30.0972C65.0392 29.5386 64.9299 28.855 64.4767 28.4175L61.7033 25.6441H61.6994C61.4846 25.4253 61.2072 25.2808 60.9065 25.23C60.6018 25.187 60.2932 25.2378 60.0197 25.3785L59.5627 25.6128C58.8479 25.9839 58.0549 26.1792 57.2463 26.191C56.4455 26.191 55.6525 26.0035 54.9377 25.6363C54.5315 25.437 54.1096 25.2495 53.6799 25.0699C53.2502 24.8902 52.8284 24.73 52.3947 24.5855C50.8439 24.0777 49.633 22.855 49.1447 21.3003L48.9885 20.8081C48.8947 20.519 48.7111 20.2651 48.4689 20.0776C48.2189 19.8979 47.9181 19.8042 47.6135 19.8081H43.6916C43.3869 19.8042 43.0861 19.8979 42.84 20.0776C42.5939 20.2612 42.4103 20.5151 42.3127 20.8081L42.1564 21.3003C41.6681 22.855 40.4572 24.0776 38.9064 24.5855C38.4767 24.73 38.0431 24.8941 37.6212 25.0699C37.1993 25.2495 36.7697 25.437 36.3595 25.6363C35.6408 26.0035 34.8478 26.191 34.0431 26.191C33.2384 26.1792 32.4493 25.98 31.7345 25.6128L31.2775 25.3785H31.2736C31.004 25.2378 30.6915 25.187 30.3908 25.23C30.09 25.2808 29.8126 25.4253 29.5978 25.6441L26.8361 28.4175C26.3791 28.855 26.2697 29.5386 26.5666 30.0972L26.8048 30.5542H26.8009C27.5548 32.0034 27.5666 33.7261 26.8283 35.1831C26.6291 35.5854 26.4338 36.0073 26.2541 36.4331C26.0744 36.8589 25.9181 37.2886 25.7697 37.7222H25.7736C25.5197 38.4878 25.0939 39.1792 24.5236 39.7495C23.9494 40.3081 23.2502 40.7261 22.4845 40.9683L22.0001 41.1285H21.9962C21.7071 41.2222 21.4493 41.4058 21.2696 41.6519C21.0939 41.9019 20.9962 42.2027 21.0001 42.5113V46.4371C20.9962 46.7418 21.0939 47.0425 21.2696 47.2886C21.4532 47.5386 21.7071 47.7222 22.0001 47.816L22.4845 47.9722C23.2501 48.2183 23.9493 48.6363 24.5236 49.1988C25.0939 49.7613 25.5236 50.4527 25.7736 51.2183C25.9259 51.6558 26.09 52.0855 26.258 52.5074C26.4259 52.9293 26.6291 53.3551 26.8322 53.7613V53.7574C27.5705 55.2183 27.5588 56.941 26.8048 58.3902L26.5666 58.8473C26.2697 59.4058 26.383 60.0934 26.8361 60.527L29.6095 63.3004C30.047 63.7613 30.7384 63.8707 31.2931 63.566L31.7501 63.3316L31.754 63.3355C33.1993 62.5816 34.9181 62.5699 36.3751 63.3082C36.7814 63.5074 37.2033 63.6988 37.6368 63.8746C38.0743 64.0543 38.4884 64.2144 38.922 64.3589C40.4728 64.8668 41.6798 66.0933 42.172 67.648L42.3283 68.1402C42.422 68.4293 42.6056 68.6871 42.8556 68.8668C43.1017 69.0465 43.4025 69.1402 43.7072 69.1363L44.0587 69.128ZM110.648 30.7888V49.1518H100.859V30.7888H96.9216L101.336 25.5466L105.758 20.3122L110.172 25.5466L114.594 30.7849L110.648 30.7888ZM86.2612 14.4688V32.8358H76.4721L76.4682 14.4688H72.5346L76.9526 9.2344L81.3667 4L85.7886 9.2344L90.2105 14.4727L86.2612 14.4688Z" fill="#C8F4BD"/>
<path d="M102.499 68.2426C102.499 59.7738 98.5576 51.7816 91.835 46.6296C85.1123 41.4734 76.374 39.7351 68.194 41.9304C60.0104 44.1257 53.315 50.0007 50.073 57.8254C46.8308 65.6535 47.4168 74.5444 51.655 81.8804C55.8894 89.2163 63.3 94.1614 71.698 95.2674C80.0964 96.3729 88.534 93.5057 94.522 87.5174C99.6314 82.4041 102.502 75.4704 102.499 68.2444L102.499 68.2426ZM76.956 66.5473C76.5068 66.0942 75.8896 65.8403 75.2529 65.8403C73.9209 65.8403 72.8427 66.9184 72.8427 68.2505C72.8427 69.5826 73.9208 70.6607 75.2529 70.6607C76.2256 70.6607 77.1006 70.0708 77.4756 69.1724C77.8467 68.2739 77.6435 67.2387 76.956 66.5473ZM74.3935 64.2153V54.7426C74.4091 54.2778 74.788 53.9145 75.2529 53.9145C75.7138 53.9145 76.0927 54.2778 76.1122 54.7426V64.2153C78.163 64.6528 79.5536 66.5747 79.3349 68.6606C79.1123 70.7504 77.3505 72.3364 75.2529 72.3364C73.1513 72.3364 71.3896 70.7505 71.1709 68.6606C70.9483 66.5747 72.3388 64.6528 74.3935 64.2153ZM95.7295 69.1059H93.9834C93.5107 69.1059 93.1279 68.7231 93.1279 68.2504C93.1279 67.7778 93.5107 67.395 93.9834 67.395H95.7334H95.7295C95.6084 64.3755 94.8193 61.4223 93.417 58.7466L91.9014 59.6255H91.8975C91.4912 59.8638 90.9678 59.7231 90.7295 59.3169C90.4951 58.9067 90.6318 58.3833 91.042 58.1489L92.5654 57.27L92.5615 57.2661C90.9404 54.7231 88.7803 52.563 86.2295 50.9419L85.3545 52.4575H85.3584C85.1201 52.8676 84.5967 53.0043 84.1865 52.77C83.7802 52.5317 83.6396 52.0083 83.8779 51.602L84.7529 50.0864V50.0825C82.0771 48.6841 79.1279 47.8911 76.1123 47.7661V49.5161C76.1201 49.7504 76.0303 49.977 75.8701 50.145C75.706 50.309 75.4834 50.4067 75.2529 50.4067C75.0185 50.4067 74.7959 50.309 74.6357 50.145C74.4717 49.977 74.3857 49.7504 74.3935 49.5161V47.77C71.3779 47.895 68.4247 48.684 65.7529 50.0864L66.6279 51.602C66.8623 52.0121 66.7256 52.5356 66.3154 52.77C65.9092 53.0082 65.3857 52.8676 65.1474 52.4614L64.2724 50.9458C61.7255 52.5669 59.5654 54.7231 57.9404 57.27L59.4638 58.1489C59.8701 58.3872 60.0107 58.9106 59.7724 59.3208C59.5341 59.727 59.0107 59.8677 58.6044 59.6294L57.0888 58.7427C55.6865 61.4185 54.8935 64.3716 54.7724 67.3911H56.5224H56.5185C56.9912 67.3911 57.374 67.7739 57.374 68.2465C57.374 68.7192 56.9912 69.102 56.5185 69.102H54.7724C55.0732 76.2114 59.0419 82.657 65.2524 86.129C71.4672 89.5978 79.0334 89.5978 85.2484 86.129C91.4593 82.6563 95.4284 76.211 95.7284 69.102L95.7295 69.1059ZM85.0105 76.3129H65.4905V79.4691L85.0105 79.473V76.3129ZM64.6315 74.602H85.8695C86.3422 74.602 86.725 74.9848 86.725 75.4536V80.3247C86.725 80.5512 86.6351 80.77 86.475 80.9301C86.3148 81.0942 86.0961 81.184 85.8695 81.184H64.6315C64.4049 81.184 64.1862 81.0942 64.026 80.9301C63.8659 80.77 63.776 80.5512 63.776 80.3247V75.4536C63.776 74.9848 64.1627 74.602 64.6315 74.602ZM75.2525 46.036C82.1548 46.036 88.6705 49.2469 92.8735 54.7274C97.0766 60.204 98.4946 67.3254 96.7055 73.9974C94.9203 80.6654 90.1313 86.1264 83.7525 88.7674C77.3736 91.4119 70.1275 90.9354 64.1475 87.4822C58.167 84.033 54.1355 77.9939 53.2335 71.1462C52.3311 64.3024 54.6671 57.4232 59.5499 52.5442C63.7101 48.3723 69.362 46.0321 75.2525 46.036Z" fill="#C8F4BD"/>
<path d="M44.0705 71.6279L44.6227 71.6148L44.5549 71.0667C44.1364 67.6803 44.3246 64.244 45.1116 60.9274L45.2472 60.3561L44.6615 60.3133C41.3054 60.0682 38.1534 58.6165 35.7895 56.2224L35.7892 56.2221C33.4215 53.8279 32.0076 50.6573 31.8078 47.2979C31.608 43.9382 32.6336 40.6204 34.6996 37.9626L34.6999 37.9622C36.7624 35.3038 39.7183 33.483 43.0244 32.8459L43.0251 32.8457C46.328 32.2048 49.7514 32.7854 52.6583 34.482C55.5654 36.1788 57.7558 38.8708 58.8228 42.0642L59.0093 42.6225L59.5301 42.348C61.4534 41.3346 63.4882 40.5437 65.5884 39.9908L66.1141 39.8524L65.9323 39.3401C65.8005 38.9687 65.661 38.6061 65.5141 38.2448L65.5142 38.2447L65.5116 38.2387C65.3292 37.8064 65.1372 37.3781 64.9279 36.9595L64.9267 36.9571C64.2615 35.6444 64.2717 34.0917 64.9516 32.785L65.1891 32.3294C65.584 31.5763 65.438 30.6535 64.8275 30.0611L62.0569 27.2905L61.9104 27.1441H61.8915C61.6315 26.9336 61.3212 26.793 60.9897 26.737L60.9897 26.7368L60.9763 26.7349C60.5709 26.6777 60.1578 26.7452 59.7911 26.9338L59.3345 27.1679L59.3323 27.1691C58.6893 27.5029 57.9742 27.6798 57.2426 27.6909C56.5209 27.6904 55.8078 27.5211 55.1662 27.1915L55.1662 27.1914L55.1579 27.1873C54.7404 26.9826 54.309 26.791 53.8728 26.6086C53.433 26.4246 52.9995 26.26 52.5528 26.1111L52.5503 26.1103C51.1523 25.6525 50.0615 24.5506 49.6217 23.1504L49.6213 23.149L49.465 22.6568L49.4641 22.6538C49.3377 22.2643 49.0925 21.928 48.775 21.6822L48.768 21.6768L48.7608 21.6716C48.4244 21.4299 48.0204 21.3036 47.6105 21.3081H43.6945C43.2853 21.3036 42.8797 21.4295 42.5452 21.6738L42.5451 21.6738L42.541 21.6768C42.2129 21.9216 41.9682 22.2603 41.8383 22.65L41.8383 22.65L41.8361 22.6568L41.6798 23.149L41.6794 23.1505C41.2397 24.5506 40.1488 25.6524 38.7508 26.1103L38.747 26.1116C38.3055 26.2601 37.8609 26.4283 37.4289 26.6083L37.4289 26.6083L37.4253 26.6098C37.0016 26.7903 36.5627 26.9817 36.1411 27.1865L36.141 27.1864L36.132 27.191C35.4859 27.5211 34.7724 27.6904 34.0467 27.6909C33.3212 27.6798 32.609 27.4999 31.963 27.1681L31.9627 27.1679L31.5056 26.9335L31.3982 26.8785H31.3864C31.0508 26.7319 30.6786 26.6838 30.3201 26.735L30.32 26.7349L30.3075 26.737C29.9033 26.8052 29.5308 26.9993 29.2424 27.2923C29.242 27.2928 29.2415 27.2933 29.2411 27.2937L26.4857 30.0607C25.9444 30.5824 25.7661 31.3609 26.0044 32.0542H25.9772L26.3574 32.785C27.0372 34.0917 27.0474 35.6444 26.3823 36.9571L26.3802 36.9612C26.1771 37.3715 25.9775 37.8026 25.7934 38.2387C25.6074 38.6794 25.4469 39.1212 25.2966 39.5603L25.2184 39.7888C24.9845 40.3906 24.6301 40.9352 24.1725 41.3935C23.6547 41.8965 23.0242 42.2731 22.3337 42.4916L22.3337 42.4915L22.3275 42.4936L21.9196 42.6285H21.9171L21.8419 42.6528C21.4554 42.7782 21.1092 43.0237 20.8658 43.3571L20.8658 43.357L20.8606 43.3643C20.6277 43.6957 20.4956 44.0973 20.5001 44.5142V48.4341C20.4956 48.8473 20.6278 49.2502 20.8628 49.5793L20.8627 49.5793L20.8666 49.5846C21.1118 49.9185 21.4529 50.1658 21.8476 50.2921C21.8476 50.2922 21.8477 50.2922 21.8477 50.2922L22.331 50.4481L22.3315 50.4482C23.0243 50.6709 23.6554 51.0485 24.173 51.5553C24.6866 52.062 25.0733 52.6845 25.2983 53.3735L25.2982 53.3736L25.3014 53.3828C25.4569 53.8293 25.6238 54.2662 25.7934 54.6924L26.258 54.5074L25.7934 54.6924C25.9692 55.1338 26.1797 55.5744 26.385 55.9849L26.3867 55.9845C27.0515 57.3013 27.0407 58.8534 26.3613 60.1595L26.1251 60.6126C26.1247 60.6132 26.1244 60.6138 26.1241 60.6144C25.7239 61.3692 25.8759 62.2964 26.4861 62.8841L29.2517 65.6497C29.843 66.2681 30.7751 66.4171 31.5272 66.0078L31.6541 65.9427L31.6599 65.9485L31.9853 65.7788C33.2877 65.0994 34.8362 65.0889 36.1491 65.7542L36.1491 65.7542L36.155 65.7571C36.5699 65.9606 37.0021 66.1567 37.4476 66.3374C37.8907 66.5194 38.3159 66.684 38.7639 66.8333L38.7664 66.8341C40.1631 67.2915 41.2514 68.3966 41.6954 69.799L41.6955 69.7993L41.8517 70.2915L41.8527 70.2945C41.978 70.6809 42.2236 71.0278 42.5623 71.2717C42.8975 71.5159 43.3039 71.6415 43.7136 71.6363L43.719 71.6362L44.0705 71.6279ZM96.9216 33.2888H100.359V51.1518V51.6518H100.859H110.648H111.148V51.1518V33.2883L114.594 33.2849L115.669 33.2838L114.976 32.4624L110.554 27.2243L110.554 27.2241L106.14 21.9899L105.758 21.537L105.376 21.9895L100.954 27.2239L100.953 27.2245L96.5391 32.4667L95.8469 33.2888H96.9216ZM86.7612 16.9693L90.21 16.9727L91.2878 16.9738L90.5926 16.1502L86.1707 10.9119L86.1706 10.9117L81.7486 5.67734L81.3664 5.2248L80.9845 5.67767L76.5705 10.9119L76.5704 10.9121L72.1525 16.1463L71.4583 16.9688H72.5346H75.9683L75.9721 34.8359L75.9722 35.3358H76.4721H86.2612H86.7612V34.8358V16.9693Z" fill="white" stroke="black"/>
<path d="M91.5309 48.0265L91.5307 48.0263C84.9312 42.9647 76.3533 41.2584 68.3236 43.4133L68.3235 43.4133C60.2901 45.5684 53.7175 51.3356 50.5349 59.0168C47.3522 66.7012 47.9275 75.4289 52.0879 82.6303L52.088 82.6305C56.2446 89.8315 63.5191 94.686 71.7633 95.7717C80.0074 96.8569 88.2902 94.0424 94.1683 88.164L91.5309 48.0265ZM91.5309 48.0265C98.1156 53.0728 101.982 60.8952 101.999 69.1884L101.999 69.1901M91.5309 48.0265L101.999 69.1901M101.999 69.1901L101.999 69.2447M101.999 69.1901L101.999 69.2447M101.999 69.2447C102.002 76.3378 99.1841 83.1443 94.1684 88.1639L101.999 69.2447ZM70.6737 69.7126C70.919 72.0574 72.8956 73.8364 75.2529 73.8364C77.6068 73.8364 79.5825 72.0569 79.8321 69.7136L79.8322 69.7127C80.0632 67.5102 78.6944 65.47 76.6122 64.8291V55.7426V55.7321L76.6118 55.7216C76.5811 54.9906 75.9834 54.4145 75.2529 54.4145C74.5207 54.4145 73.9185 54.9892 73.8938 55.7258L73.8935 55.7342V55.7426V64.829C71.8082 65.4694 70.439 67.5093 70.6737 69.7126ZM70.6737 69.7126L71.1709 69.6606M70.6737 69.7126C70.6737 69.713 70.6737 69.7133 70.6738 69.7137L71.1709 69.6606M71.1709 69.6606C71.3896 71.7505 73.1513 73.3364 75.2529 73.3364C77.3505 73.3364 79.1123 71.7504 79.3349 69.6606H71.1709ZM86.2205 52.9575H86.2271L85.7907 53.7086C85.4127 54.3593 84.5841 54.5731 83.9384 54.2041L83.9335 54.2013L83.9335 54.2013C83.2935 53.8259 83.0669 52.999 83.4454 52.351C83.4458 52.3504 83.4462 52.3497 83.4466 52.349L84.0575 51.2908C81.7275 50.1488 79.1996 49.4693 76.6123 49.2941V50.5087C76.6221 50.8783 76.4796 51.2303 76.232 51.49L76.2238 51.4986L76.2237 51.4985C75.9718 51.7503 75.6243 51.9067 75.2529 51.9067C74.8799 51.9067 74.5294 51.7518 74.278 51.4943C74.0189 51.2291 73.8838 50.8732 73.8935 50.5086V49.2979C71.3059 49.4728 68.7758 50.1493 66.4496 51.2931L67.0609 52.352L67.0621 52.3539C67.4299 52.9976 67.2193 53.8276 66.5659 54.2027C65.918 54.5809 65.0915 54.3541 64.7162 53.7144L64.7144 53.7114L64.1038 52.6538C61.9524 54.1025 60.1011 55.9506 58.649 58.1015L59.7137 58.7158L59.7168 58.7176C60.3589 59.0942 60.5823 59.9221 60.2048 60.5719L60.2037 60.5737C59.828 61.2144 58.9998 61.4408 58.3516 61.0607L58.3519 61.0609L58.6044 60.6294L58.3515 61.0607L57.2944 60.4422C56.1506 62.7716 55.4718 65.3016 55.2997 67.8911H56.5185L86.2205 52.9575ZM86.2205 52.9575L86.3982 52.6496M86.2205 52.9575L86.3982 52.6496M86.3982 52.6496C88.554 54.0995 90.4064 55.9518 91.856 58.102L90.7939 58.7148C90.7936 58.715 90.7933 58.7151 90.793 58.7153C90.1384 59.0901 89.9273 59.9208 90.2954 60.565L90.2953 60.565L90.2982 60.5699C90.6487 61.1673 91.3926 61.4045 92.017 61.1255H92.0359L92.1522 61.058L93.2104 60.4443C94.3543 62.7738 95.0305 65.3044 95.2022 67.895H93.9834C93.2346 67.895 92.6279 68.5016 92.6279 69.2504C92.6279 69.9992 93.2346 70.6059 93.9834 70.6059H95.1998C94.7389 77.3325 90.9108 83.39 85.0047 86.6924C78.9412 90.0767 71.5594 90.0767 65.4961 86.6924C59.5893 83.39 55.7612 77.3306 55.3008 70.602L86.3982 52.6496ZM52.7378 72.2115C53.66 79.2131 57.7822 85.3883 63.8977 88.9153C70.0121 92.4461 77.4212 92.9334 83.9438 90.2294C90.4662 87.5289 95.3631 81.9449 97.1885 75.1267C99.0178 68.3046 97.5679 61.023 93.2703 55.4231C88.9726 49.8192 82.3104 46.5361 75.2528 46.536M52.7378 72.2115L53.2335 72.1462L52.7378 72.2115ZM52.7378 72.2115C51.8151 65.2137 54.2035 58.1799 59.196 53.191M59.196 53.191C59.1961 53.1908 59.1963 53.1907 59.1965 53.1905L59.5499 53.5442L59.1958 53.1911C59.1959 53.1911 59.1959 53.1911 59.196 53.191ZM59.196 53.191C63.4502 48.9249 69.2296 46.532 75.2528 46.536M75.2528 46.536L75.2525 47.036V46.536C75.2526 46.536 75.2527 46.536 75.2528 46.536ZM76.6009 67.8993L76.6014 67.8999C77.1463 68.4478 77.3076 69.2682 77.0139 69.9805C76.7154 70.6948 76.021 71.1607 75.2529 71.1607C74.1969 71.1607 73.3427 70.3064 73.3427 69.2505C73.3427 68.1945 74.197 67.3403 75.2529 67.3403C75.7578 67.3403 76.2467 67.542 76.6009 67.8993ZM65.9905 79.9692V77.8129H84.5105V79.9729L65.9905 79.9692ZM85.8695 75.102H64.6315C63.8896 75.102 63.276 75.7057 63.276 76.4536V81.3247C63.276 81.6816 63.4169 82.027 63.6703 82.2815C63.9262 82.5425 64.2738 82.684 64.6315 82.684H85.8695C86.2272 82.684 86.5749 82.5424 86.8307 82.2815C87.0841 82.0269 87.225 81.6816 87.225 81.3247V76.4536C87.225 75.7072 86.6168 75.102 85.8695 75.102Z" fill="#5DB947" stroke="black"/>
</svg>
