<svg width="128" height="100" viewBox="0 0 128 100" fill="none" xmlns="http://www.w3.org/2000/svg">
<path d="M27.1541 74.847C27.2528 74.945 27.3866 75 27.5261 75C27.6657 75 27.7995 74.945 27.8982 74.847L30.5032 72.261L33.1081 74.847C33.2074 74.9422 33.3403 74.9949 33.4783 74.9937C33.6163 74.9925 33.7483 74.9375 33.8459 74.8407C33.9434 74.7438 33.9988 74.6128 34 74.4758C34.0012 74.3388 33.9481 74.2069 33.8523 74.1083L30.8752 71.153C30.7766 71.055 30.6427 71 30.5032 71C30.3636 71 30.2298 71.055 30.1311 71.153L27.1541 74.1083C27.0554 74.2063 27 74.3392 27 74.4777C27 74.6162 27.0554 74.7491 27.1541 74.847Z" fill="#5DB947"/>
<path d="M121.154 29.847C121.253 29.945 121.387 30 121.526 30C121.666 30 121.8 29.945 121.898 29.847L124.503 27.261L127.108 29.847C127.207 29.9422 127.34 29.9949 127.478 29.9937C127.616 29.9925 127.748 29.9375 127.846 29.8407C127.943 29.7438 127.999 29.6128 128 29.4758C128.001 29.3388 127.948 29.2069 127.852 29.1083L124.875 26.153C124.777 26.055 124.643 26 124.503 26C124.364 26 124.23 26.055 124.131 26.153L121.154 29.1083C121.055 29.2063 121 29.3392 121 29.4777C121 29.6162 121.055 29.7491 121.154 29.847Z" fill="#5DB947"/>
<path d="M115.154 78.847C115.253 78.945 115.387 79 115.526 79C115.666 79 115.8 78.945 115.898 78.847L118.503 76.261L121.108 78.847C121.207 78.9422 121.34 78.9949 121.478 78.9937C121.616 78.9925 121.748 78.9375 121.846 78.8407C121.943 78.7438 121.999 78.6128 122 78.4758C122.001 78.3388 121.948 78.2069 121.852 78.1083L118.875 75.153C118.777 75.055 118.643 75 118.503 75C118.364 75 118.23 75.055 118.131 75.153L115.154 78.1083C115.055 78.2063 115 78.3392 115 78.4777C115 78.6162 115.055 78.7491 115.154 78.847Z" fill="#5DB947"/>
<path d="M11.1541 31.847C11.2528 31.945 11.3866 32 11.5261 32C11.6657 32 11.7995 31.945 11.8982 31.847L14.5032 29.261L17.1081 31.847C17.2074 31.9422 17.3403 31.9949 17.4783 31.9937C17.6163 31.9925 17.7483 31.9375 17.8459 31.8407C17.9434 31.7438 17.9988 31.6128 18 31.4758C18.0012 31.3388 17.9481 31.2069 17.8523 31.1083L14.8752 28.153C14.7766 28.055 14.6427 28 14.5032 28C14.3636 28 14.2298 28.055 14.1311 28.153L11.1541 31.1083C11.0554 31.2063 11 31.3392 11 31.4777C11 31.6162 11.0554 31.7491 11.1541 31.847Z" fill="#5DB947"/>
<path d="M69.8416 46.3008L83.1673 35.9837V22.8428H22.0038V55.264C22.0038 55.8753 22.2562 56.4354 22.6624 56.8415C23.0647 57.2438 23.6247 57.5001 24.236 57.5001H62.214L61.0782 54.3807C60.6838 53.1975 60.7903 51.9553 61.2794 50.8984C61.7763 49.8335 62.6675 48.9501 63.827 48.4927L64.0597 48.4059L69.8373 46.3039L69.8416 46.3008ZM48.5453 30.5024L60.0891 37.1634C60.6373 37.4789 61.0711 37.9128 61.3668 38.4294L61.426 38.5438C61.6902 39.0407 61.8282 39.5928 61.8282 40.1686C61.8282 40.7917 61.6665 41.3872 61.3629 41.9078L61.2958 42.0143C61.0001 42.4836 60.5899 42.8819 60.0891 43.1737L48.5383 49.8387C47.9861 50.1542 47.3985 50.3159 46.807 50.3159C46.2154 50.3159 45.6199 50.1542 45.0678 49.8387C44.5275 49.5271 44.0976 49.0894 43.7979 48.5728C43.4942 48.0522 43.3325 47.4566 43.3325 46.8335L43.3404 33.5078C43.3325 32.8847 43.4942 32.2853 43.7979 31.7647L43.8649 31.6582C44.1607 31.181 44.5709 30.7827 45.123 30.4711C45.6909 30.1674 46.2509 30.0215 46.8109 30.0215C47.4025 30.0215 47.9902 30.1832 48.5422 30.4987L48.5453 30.5024ZM58.5625 39.8057L47.0268 33.1446C46.9637 33.1092 46.8888 33.0855 46.8138 33.0855C46.7586 33.0855 46.6995 33.0973 46.6443 33.1249L46.4589 33.2748C46.4195 33.3418 46.4037 33.4168 46.4037 33.5035L46.3958 46.8292C46.4037 46.916 46.4195 46.9909 46.4471 47.0382C46.4747 47.0974 46.5338 47.1487 46.6088 47.192C46.6758 47.2315 46.7468 47.2512 46.8138 47.2512C46.8848 47.2512 46.9598 47.2315 47.0268 47.192C49.8624 45.5554 56.5233 42.1993 58.7159 40.3969C58.7514 40.3299 58.7711 40.255 58.7711 40.1682L58.7278 39.9592C58.6962 39.9 58.641 39.8487 58.5661 39.8054L58.5625 39.8057ZM83.1633 19.7793V15.2361C83.1633 14.6248 82.9109 14.0648 82.5047 13.6586C82.0985 13.2524 81.5425 13 80.9312 13H24.2322C23.6209 13 23.0608 13.2524 22.6586 13.6586C22.2524 14.0648 22 14.6209 22 15.2361V19.7793H83.1633Z" fill="#C8F4BD"/>
<path d="M69.6221 64.5381C69.7759 64.964 70.0993 65.2953 70.5331 65.4964C70.9433 65.666 71.3731 65.6857 71.7715 65.5398L76.4409 63.84L72.1974 52.1782L67.5044 53.8858C67.0824 54.0435 66.7591 54.359 66.5816 54.7376C66.4002 55.132 66.3647 55.5974 66.5224 56.0272C67.5557 58.8627 68.585 61.6983 69.6183 64.5339L69.6221 64.5381ZM90.9377 72.7805L94.2032 69.1641L92.9451 65.7055L88.4295 65.8829L90.9377 72.7805ZM85.2588 66.1077L80.5538 66.1944L88.1219 86.9901L92.3062 85.4679L85.2588 66.1077ZM74.9257 50.747L79.4532 63.1852C87.1435 62.8815 94.8293 62.5779 102.52 62.2781L93.1817 36.6162C87.0965 41.325 81.0106 46.0382 74.9257 50.747ZM100.221 28.3349L97.295 29.3997C96.455 29.7034 95.8081 30.3344 95.4533 31.0995C95.0983 31.8646 95.0273 32.8111 95.335 33.6077C98.9277 43.4828 102.434 53.4645 106.137 63.2879C106.456 64.0885 107.067 64.7036 107.805 65.0468C108.538 65.386 109.402 65.4609 110.222 65.1888L113.235 64.0924C114.075 63.7888 114.718 63.1578 115.077 62.3927C115.432 61.6276 115.499 60.7324 115.195 59.8884L104.425 30.2951C104.129 29.4866 103.542 28.8595 102.776 28.473C101.964 28.0984 101.065 28.0312 100.221 28.3349Z" fill="#C8F4BD"/>
<path d="M70.0924 65.378L70.0583 65.2836L70.054 65.2789C69.5488 63.8925 69.0445 62.506 68.5402 61.1194L68.5398 61.1181C68.0243 59.7008 67.5087 58.2833 66.9922 56.8658L66.9918 56.8647C66.8833 56.5689 66.9052 56.2413 67.0351 55.958C67.1593 55.6941 67.3847 55.4747 67.6776 55.3646C67.6782 55.3644 67.6789 55.3641 67.6795 55.3639L71.8985 53.8287L75.8001 64.551L71.6005 66.0797L71.5995 66.08C71.333 66.1777 71.0366 66.1708 70.7338 66.0481C70.4116 65.8961 70.1946 65.6611 70.0924 65.378ZM97.465 30.8797L97.466 30.8793L100.39 29.8151C100.391 29.815 100.391 29.8149 100.391 29.8148C101.098 29.5607 101.858 29.612 102.559 29.9331C103.215 30.2669 103.707 30.7987 103.955 31.4766L114.725 61.0674C114.981 61.7806 114.926 62.5391 114.624 63.1911C114.317 63.8449 113.771 64.3769 113.065 64.632L113.064 64.6323L110.058 65.7261C109.367 65.9534 108.638 65.8906 108.016 65.6032C107.39 65.3121 106.873 64.7917 106.603 64.1166C104.124 57.5409 101.735 50.8972 99.347 44.2579C98.1694 40.9835 96.9922 37.7101 95.8048 34.4465L95.8049 34.4465L95.8014 34.4374C95.5482 33.7816 95.6022 32.9764 95.9068 32.3197L95.9069 32.3196C96.209 31.6682 96.7577 31.1354 97.465 30.8797ZM92.6 67.2292L93.6305 70.0621L91.1236 72.8384L89.1334 67.3654L92.6 67.2292ZM84.911 67.6239L91.6653 86.1787L88.4208 87.3591L81.2632 67.6912L84.911 67.6239ZM79.7982 63.681L75.5204 51.9287C78.4117 49.6913 81.3022 47.4536 84.1928 45.2159C87.1103 42.9573 90.0279 40.6988 92.946 38.4405L101.816 62.815C94.6613 63.094 87.5107 63.3764 80.3567 63.6589L79.7982 63.681Z" fill="#5DB947" stroke="black"/>
<path d="M84.8778 15.3241C84.3838 14.8301 83.7028 14.519 82.9507 14.519H26.2517C25.5014 14.519 24.8155 14.8288 24.3237 15.325C23.8299 15.8193 23.5195 16.5 23.5195 17.2551V21.7983V22.2983H24.0195H85.1829H85.6829V21.7983V17.2551C85.6829 16.504 85.3725 15.8188 84.8778 15.3241ZM84.8778 15.3241L84.5246 15.6773L84.8778 15.3241C84.8778 15.3241 84.8778 15.3241 84.8778 15.3241ZM72.1552 48.7242L72.1613 48.7198L72.1672 48.7152L85.4929 38.3981L85.6868 38.248V38.0028V24.8619V24.3619H85.1868H24.0233H23.5233V24.8619V57.2831C23.5233 58.0342 23.8337 58.7194 24.3284 59.2141C24.818 59.7037 25.5028 60.0192 26.2555 60.0192H64.2335H64.9477L64.7034 59.3481L63.57 56.2352C63.2205 55.1812 63.3152 54.0733 63.7524 53.1279C64.1972 52.1754 64.9931 51.3873 66.0257 50.9785L66.2501 50.8948L66.2539 50.8935L72.0278 48.7929L72.094 48.7688L72.1509 48.7273L72.1552 48.7242ZM48.8305 32.5406C49.3031 32.5406 49.7797 32.6627 50.2389 32.9104L50.2394 32.9109L50.315 32.9545L61.8587 39.6156L61.8592 39.6158C62.3301 39.8869 62.6973 40.2548 62.9473 40.6879L63.0014 40.7925L63.0014 40.7925L63.004 40.7975C63.2295 41.2215 63.3478 41.693 63.3478 42.1876C63.3478 42.7205 63.2105 43.2264 62.9546 43.668L62.8924 43.7668C62.6402 44.1669 62.2894 44.5086 61.8578 44.7602C61.8575 44.7604 61.8572 44.7606 61.8569 44.7607L50.3097 51.4236C50.3095 51.4237 50.3094 51.4238 50.3092 51.4239C49.8271 51.6993 49.3246 51.8349 48.8265 51.8349C48.3274 51.8349 47.8172 51.6987 47.3363 51.4242C46.8736 51.1572 46.5064 50.7831 46.2499 50.3409L46.2493 50.3399C45.9909 49.8968 45.8521 49.3885 45.8521 48.8529C45.8521 48.8528 45.8521 48.8527 45.8521 48.8526L45.8599 35.5272H45.86L45.8599 35.5206C45.8532 34.9914 45.9896 34.4838 46.2452 34.0427L46.3076 33.9436L46.3094 33.9407C46.5583 33.5392 46.9041 33.1998 47.3833 32.9284C47.8852 32.6609 48.3633 32.5406 48.8305 32.5406ZM49.2964 34.7307L49.2964 34.7307L49.2915 34.7279C49.1686 34.6588 49.0099 34.6045 48.8334 34.6045C48.7085 34.6045 48.5716 34.6311 48.4402 34.6968L48.3916 34.721L48.3494 34.7552L48.1641 34.905L48.0935 34.9621L48.0475 35.0403C47.951 35.2042 47.9233 35.3731 47.9232 35.5223C47.9232 35.5224 47.9232 35.5225 47.9232 35.5226L47.9153 48.8479L47.9153 48.8708L47.9174 48.8935C47.9259 48.9868 47.9462 49.1454 48.0232 49.2886C48.1159 49.4722 48.2717 49.5822 48.3763 49.6429C48.5122 49.7225 48.6694 49.7702 48.8334 49.7702C48.9946 49.7702 49.1569 49.7261 49.2998 49.642L49.0463 49.2111L49.2963 49.6441C50.1117 49.1734 51.238 48.5637 52.4886 47.8868C53.408 47.3891 54.3945 46.855 55.374 46.3132C57.6566 45.0505 59.9141 43.7383 61.053 42.8022L61.1304 42.7386L61.1773 42.6499C61.2515 42.5099 61.2907 42.3545 61.2907 42.1872V42.1359L61.2802 42.0856L61.2369 41.8766L61.2223 41.8063L61.1885 41.7429C61.0994 41.5759 60.9623 41.4648 60.8361 41.3917L60.7009 41.3134L60.697 41.3137L49.2964 34.7307Z" fill="white" stroke="black"/>
</svg>
