<svg width="128" height="100" viewBox="0 0 128 100" fill="none" xmlns="http://www.w3.org/2000/svg">
<path d="M7.15408 61.847C7.25277 61.945 7.3866 62 7.52614 62C7.66569 62 7.79952 61.945 7.89821 61.847L10.5032 59.261L13.1081 61.847C13.2074 61.9422 13.3403 61.9949 13.4783 61.9937C13.6163 61.9925 13.7483 61.9375 13.8459 61.8407C13.9434 61.7438 13.9988 61.6128 14 61.4758C14.0012 61.3388 13.9481 61.2069 13.8523 61.1083L10.8752 58.153C10.7766 58.055 10.6427 58 10.5032 58C10.3636 58 10.2298 58.055 10.1311 58.153L7.15408 61.1083C7.05542 61.2063 7 61.3392 7 61.4777C7 61.6162 7.05542 61.7491 7.15408 61.847Z" fill="#5DB947"/>
<path d="M103.154 29.847C103.253 29.945 103.387 30 103.526 30C103.666 30 103.8 29.945 103.898 29.847L106.503 27.261L109.108 29.847C109.207 29.9422 109.34 29.9949 109.478 29.9937C109.616 29.9925 109.748 29.9375 109.846 29.8407C109.943 29.7438 109.999 29.6128 110 29.4758C110.001 29.3388 109.948 29.2069 109.852 29.1083L106.875 26.153C106.777 26.055 106.643 26 106.503 26C106.364 26 106.23 26.055 106.131 26.153L103.154 29.1083C103.055 29.2063 103 29.3392 103 29.4777C103 29.6162 103.055 29.7491 103.154 29.847Z" fill="#5DB947"/>
<path d="M116.154 73.847C116.253 73.945 116.387 74 116.526 74C116.666 74 116.8 73.945 116.898 73.847L119.503 71.261L122.108 73.847C122.207 73.9422 122.34 73.9949 122.478 73.9937C122.616 73.9925 122.748 73.9375 122.846 73.8407C122.943 73.7438 122.999 73.6128 123 73.4758C123.001 73.3388 122.948 73.2069 122.852 73.1083L119.875 70.153C119.777 70.055 119.643 70 119.503 70C119.364 70 119.23 70.055 119.131 70.153L116.154 73.1083C116.055 73.2063 116 73.3392 116 73.4777C116 73.6162 116.055 73.7491 116.154 73.847Z" fill="#5DB947"/>
<path d="M20.1541 14.847C20.2528 14.945 20.3866 15 20.5261 15C20.6657 15 20.7995 14.945 20.8982 14.847L23.5032 12.261L26.1081 14.847C26.2074 14.9422 26.3403 14.9949 26.4783 14.9937C26.6163 14.9925 26.7483 14.9375 26.8459 14.8407C26.9434 14.7438 26.9988 14.6128 27 14.4758C27.0012 14.3388 26.9481 14.2069 26.8523 14.1083L23.8752 11.153C23.7766 11.055 23.6427 11 23.5032 11C23.3636 11 23.2298 11.055 23.1311 11.153L20.1541 14.1083C20.0554 14.2063 20 14.3392 20 14.4777C20 14.6162 20.0554 14.7491 20.1541 14.847Z" fill="#5DB947"/>
<path d="M75.2316 85.2183H103.505C104.167 85.2183 104.801 84.9555 105.269 84.4876C105.737 84.0198 106 83.3852 106 82.7236V80.8525H72.7368V82.7236C72.7368 83.3852 72.9997 84.0198 73.4675 84.4876C73.9354 84.9555 74.5699 85.2183 75.2316 85.2183Z" fill="#C8F4BD"/>
<path d="M88.2289 65.5349C88.1742 65.4923 88.107 65.4689 88.0377 65.4683C87.9855 65.4578 87.9318 65.4578 87.8797 65.4683C87.8245 65.4958 87.7787 65.5388 87.7476 65.592C87.7166 65.6451 87.7018 65.7062 87.705 65.7677V73.1189C87.7046 73.18 87.721 73.24 87.7525 73.2924C87.7839 73.3448 87.8292 73.3875 87.8833 73.4158C87.9374 73.4442 87.9983 73.4571 88.0593 73.4531C88.1202 73.4491 88.1789 73.4284 88.2289 73.3933L93.3847 69.7343C93.4298 69.7045 93.4664 69.6636 93.4912 69.6156C93.5159 69.5675 93.5279 69.5139 93.5261 69.4599C93.5272 69.406 93.5148 69.3527 93.4901 69.3048C93.4655 69.2569 93.4292 69.2159 93.3847 69.1855L88.2289 65.5349Z" fill="#C8F4BD"/>
<path d="M106 60.8946C106 60.233 105.737 59.5984 105.269 59.1306C104.801 58.6627 104.167 58.3999 103.505 58.3999H75.2316C74.5699 58.3999 73.9354 58.6627 73.4675 59.1306C72.9997 59.5984 72.7368 60.233 72.7368 60.8946V79.1894H106V60.8946ZM94.3579 71.0898L89.2021 74.7487C88.8638 74.9871 88.46 75.1149 88.0462 75.1146C87.5161 75.1146 87.0076 74.9046 86.632 74.5306C86.2564 74.1565 86.0443 73.6489 86.0421 73.1188V65.8093C86.0353 65.4399 86.1312 65.076 86.3191 64.7579C86.5069 64.4399 86.7794 64.1802 87.1061 64.0078C87.4328 63.8354 87.8009 63.757 88.1695 63.7814C88.5381 63.8059 88.8927 63.9321 89.1938 64.1461L94.3579 67.83C94.6171 68.0155 94.8283 68.2601 94.9741 68.5436C95.1198 68.827 95.1958 69.1412 95.1958 69.4599C95.1958 69.7786 95.1198 70.0928 94.9741 70.3762C94.8283 70.6597 94.6171 70.9043 94.3579 71.0898Z" fill="#C8F4BD"/>
<path d="M28.1729 24.2056H40.2058V12.1726L28.1729 24.2056Z" fill="#C8F4BD"/>
<path d="M34.3844 55.2816H87.7053V11H41.8686V25.0371C41.8686 25.2576 41.781 25.4691 41.6251 25.6251C41.4691 25.781 41.2576 25.8686 41.0371 25.8686H27V83.7632H71.0737L71.0072 83.6634C70.9677 83.5911 70.9232 83.5216 70.8741 83.4555C70.7883 83.313 70.7106 83.1659 70.6413 83.0147C70.6413 82.9316 70.5664 82.8484 70.5332 82.7736C70.4692 82.611 70.4164 82.4443 70.3752 82.2746C70.3752 82.1915 70.3752 82.1166 70.3169 82.0418C70.2707 81.7865 70.2456 81.5278 70.2421 81.2684V77.5263H34.3844C34.1639 77.5263 33.9524 77.4387 33.7964 77.2828C33.6405 77.1268 33.5528 76.9153 33.5528 76.6947C33.5528 76.4742 33.6405 76.2627 33.7964 76.1067C33.9524 75.9508 34.1639 75.8632 34.3844 75.8632H70.2421V70.6658H34.3844C34.1639 70.6658 33.9524 70.5782 33.7964 70.4222C33.6405 70.2663 33.5528 70.0548 33.5528 69.8342C33.5528 69.6137 33.6405 69.4021 33.7964 69.2462C33.9524 69.0902 34.1639 69.0026 34.3844 69.0026H70.2421V63.8053H34.3844C34.1639 63.8053 33.9524 63.7176 33.7964 63.5617C33.6405 63.4057 33.5528 63.1942 33.5528 62.9737C33.5528 62.7531 33.6405 62.5416 33.7964 62.3857C33.9524 62.2297 34.1639 62.1421 34.3844 62.1421H70.2421V59.4395C70.2372 58.539 70.5295 57.6621 71.0737 56.9447H34.3844C34.1639 56.9447 33.9524 56.8571 33.7964 56.7012C33.6405 56.5452 33.5528 56.3337 33.5528 56.1132C33.5528 55.8926 33.6405 55.6811 33.7964 55.5251C33.9524 55.3692 34.1639 55.2816 34.3844 55.2816ZM46.6752 36.2052V17.0788C46.6752 16.8583 46.7628 16.6468 46.9187 16.4908C47.0747 16.3349 47.2862 16.2473 47.5067 16.2473H72.7368C72.9574 16.2473 73.1689 16.3349 73.3249 16.4908C73.4808 16.6468 73.5684 16.8583 73.5684 17.0788V42.3256C73.5684 42.5461 73.4808 42.7576 73.3249 42.9136C73.1689 43.0695 72.9574 43.1572 72.7368 43.1572H47.5067C47.2862 43.1572 47.0747 43.0695 46.9187 42.9136C46.7628 42.7576 46.6752 42.5461 46.6752 42.3256V36.2052ZM34.3844 48.4211H80.3208C80.5414 48.4211 80.7529 48.5087 80.9089 48.6646C81.0648 48.8206 81.1524 49.0321 81.1524 49.2526C81.1524 49.4732 81.0648 49.6847 80.9089 49.8406C80.7529 49.9966 80.5414 50.0842 80.3208 50.0842H34.3844C34.1639 50.0842 33.9524 49.9966 33.7964 49.8406C33.6405 49.6847 33.5528 49.4732 33.5528 49.2526C33.5528 49.0321 33.6405 48.8206 33.7964 48.6646C33.9524 48.5087 34.1639 48.4211 34.3844 48.4211Z" fill="#C8F4BD"/>
<path d="M55.9889 27.723L60.047 31.7811L66.4834 25.3447C66.6392 25.1898 66.85 25.1029 67.0697 25.1029C67.2894 25.1029 67.5002 25.1898 67.656 25.3447L71.9053 29.5026V17.927H48.3384V34.1927L54.8164 27.723C54.9722 27.5681 55.183 27.4812 55.4026 27.4812C55.6223 27.4812 55.8331 27.5681 55.9889 27.723ZM60.1468 19.7897C60.8922 19.7881 61.6213 20.0076 62.2419 20.4206C62.8625 20.8335 63.3466 21.4212 63.633 22.1094C63.9194 22.7976 63.9952 23.5553 63.8508 24.2866C63.7064 25.0179 63.3483 25.6899 62.8218 26.2175C62.2953 26.7452 61.6241 27.1048 60.8931 27.2508C60.1621 27.3969 59.4043 27.3228 58.7155 27.0379C58.0266 26.753 57.4378 26.2702 57.0235 25.6505C56.6092 25.0308 56.3881 24.3022 56.3881 23.5568C56.3858 22.5628 56.7775 21.6084 57.4772 20.9024C58.177 20.1964 59.1279 19.7963 60.1219 19.7897H60.1468Z" fill="#C8F4BD"/>
<path d="M60.122 25.6524C60.5388 25.654 60.9467 25.5318 61.2939 25.3013C61.6412 25.0707 61.9121 24.7422 62.0724 24.3574C62.2327 23.9727 62.275 23.549 62.1941 23.1401C62.1132 22.7312 61.9127 22.3555 61.6179 22.0608C61.3232 21.7661 60.9476 21.5655 60.5387 21.4846C60.1298 21.4037 59.7061 21.4461 59.3213 21.6063C58.9365 21.7666 58.608 22.0375 58.3775 22.3848C58.1469 22.7321 58.0247 23.14 58.0264 23.5568C58.0264 24.1126 58.2472 24.6456 58.6402 25.0386C59.0332 25.4316 59.5662 25.6524 60.122 25.6524Z" fill="#C8F4BD"/>
<path d="M71.9053 31.8477L67.0822 27.1077L60.6374 33.5441L58.018 36.1636C57.8614 36.319 57.6494 36.406 57.4288 36.4052C57.2081 36.4044 56.9968 36.316 56.8413 36.1594C56.6858 36.0028 56.5989 35.7909 56.5997 35.5702C56.6004 35.3495 56.6888 35.1382 56.8454 34.9827L58.8745 32.9537L55.3985 29.486L48.3384 36.571V41.5605H71.9053V31.8477Z" fill="#C8F4BD"/>
<path d="M103.505 85.5501H75.2316C74.7025 85.5501 74.1951 85.34 73.8211 84.9659C73.447 84.5918 73.2368 84.0844 73.2368 83.5554V82.1843H105.5V83.5554C105.5 84.0844 105.29 84.5918 104.916 84.9659C104.542 85.34 104.034 85.5501 103.505 85.5501Z" fill="#5DB947" stroke="black"/>
<mask id="path-14-inside-1_166_969" fill="white">
<path d="M88.2289 66.3667C88.1742 66.3241 88.107 66.3007 88.0377 66.3001C87.9855 66.2896 87.9318 66.2896 87.8797 66.3001C87.8245 66.3276 87.7787 66.3706 87.7476 66.4237C87.7166 66.4769 87.7018 66.538 87.705 66.5995V73.9507C87.7046 74.0117 87.721 74.0718 87.7525 74.1242C87.7839 74.1765 87.8292 74.2192 87.8833 74.2476C87.9374 74.2759 87.9983 74.2888 88.0593 74.2849C88.1202 74.2809 88.1789 74.2602 88.2289 74.2251L93.3847 70.5661C93.4298 70.5363 93.4664 70.4954 93.4912 70.4474C93.5159 70.3993 93.5279 70.3457 93.5261 70.2917C93.5272 70.2378 93.5148 70.1845 93.4901 70.1366C93.4655 70.0887 93.4292 70.0477 93.3847 70.0173L88.2289 66.3667Z"/>
</mask>
<path d="M88.2289 66.3667C88.1742 66.3241 88.107 66.3007 88.0377 66.3001C87.9855 66.2896 87.9318 66.2896 87.8797 66.3001C87.8245 66.3276 87.7787 66.3706 87.7476 66.4237C87.7166 66.4769 87.7018 66.538 87.705 66.5995V73.9507C87.7046 74.0117 87.721 74.0718 87.7525 74.1242C87.7839 74.1765 87.8292 74.2192 87.8833 74.2476C87.9374 74.2759 87.9983 74.2888 88.0593 74.2849C88.1202 74.2809 88.1789 74.2602 88.2289 74.2251L93.3847 70.5661C93.4298 70.5363 93.4664 70.4954 93.4912 70.4474C93.5159 70.3993 93.5279 70.3457 93.5261 70.2917C93.5272 70.2378 93.5148 70.1845 93.4901 70.1366C93.4655 70.0887 93.4292 70.0477 93.3847 70.0173L88.2289 66.3667Z" fill="#5DB947"/>
<path d="M88.2289 66.3667L87.6151 67.1561L87.6328 67.1698L87.651 67.1828L88.2289 66.3667ZM88.0377 66.3001L87.8397 67.2804L87.9335 67.2993L88.0291 67.3001L88.0377 66.3001ZM87.8797 66.3001L87.6817 65.3199L87.5521 65.3461L87.4337 65.4051L87.8797 66.3001ZM87.705 66.5995H88.705V66.5733L88.7037 66.5472L87.705 66.5995ZM87.705 73.9507L88.705 73.9575V73.9507H87.705ZM88.2289 74.2251L88.8039 75.0432L88.8077 75.0406L88.2289 74.2251ZM93.3847 70.5661L92.8327 69.7323L92.8192 69.7412L92.806 69.7506L93.3847 70.5661ZM93.5261 70.2917L92.5263 70.2714L92.5257 70.2989L92.5267 70.3263L93.5261 70.2917ZM93.3847 70.0173L92.8068 70.8334L92.8138 70.8383L92.8208 70.8431L93.3847 70.0173ZM88.8427 65.5772C88.6148 65.4 88.335 65.3026 88.0462 65.3002L88.0291 67.3001C87.879 67.2988 87.7335 67.2482 87.6151 67.1561L88.8427 65.5772ZM88.2356 65.3199C88.0528 65.283 87.8645 65.283 87.6817 65.3199L88.0776 67.2804C87.9991 67.2962 87.9182 67.2962 87.8397 67.2804L88.2356 65.3199ZM87.4337 65.4051C87.2041 65.5195 87.013 65.6984 86.8839 65.9199L88.6114 66.9276C88.5443 67.0427 88.445 67.1357 88.3257 67.1952L87.4337 65.4051ZM86.8839 65.9199C86.7547 66.1413 86.693 66.3957 86.7064 66.6518L88.7037 66.5472C88.7106 66.6803 88.6786 66.8125 88.6114 66.9276L86.8839 65.9199ZM86.705 66.5995V73.9507H88.705V66.5995H86.705ZM86.705 73.9438C86.7034 74.1885 86.7691 74.429 86.8951 74.6389L88.6098 73.6094C88.6729 73.7145 88.7058 73.835 88.705 73.9575L86.705 73.9438ZM86.8951 74.6389C87.0211 74.8488 87.2025 75.0199 87.4193 75.1334L88.3473 73.3618C88.4559 73.4186 88.5467 73.5043 88.6098 73.6094L86.8951 74.6389ZM87.4193 75.1334C87.6361 75.247 87.88 75.2987 88.1243 75.2828L87.9943 73.287C88.1166 73.279 88.2387 73.3049 88.3473 73.3618L87.4193 75.1334ZM88.1243 75.2828C88.3685 75.2668 88.6037 75.184 88.8039 75.0432L87.6539 73.4069C87.7542 73.3365 87.8719 73.295 87.9943 73.287L88.1243 75.2828ZM88.8077 75.0406L93.9635 71.3816L92.806 69.7506L87.6502 73.4096L88.8077 75.0406ZM93.9367 71.4C94.1244 71.2757 94.2771 71.1054 94.3802 70.9053L92.6022 69.9894C92.6558 69.8854 92.7351 69.7969 92.8327 69.7323L93.9367 71.4ZM94.3802 70.9053C94.4832 70.7052 94.5333 70.4821 94.5255 70.2571L92.5267 70.3263C92.5226 70.2094 92.5486 70.0934 92.6022 69.9894L94.3802 70.9053ZM94.5259 70.312C94.5303 70.092 94.4799 69.8743 94.3791 69.6786L92.6012 70.5946C92.5497 70.4947 92.524 70.3837 92.5263 70.2714L94.5259 70.312ZM94.3791 69.6786C94.2783 69.483 94.1304 69.3156 93.9486 69.1914L92.8208 70.8431C92.728 70.7798 92.6526 70.6944 92.6012 70.5946L94.3791 69.6786ZM93.9626 69.2012L88.8068 65.5505L87.651 67.1828L92.8068 70.8334L93.9626 69.2012Z" fill="black" mask="url(#path-14-inside-1_166_969)"/>
<path d="M89.4915 75.988L89.4901 75.989C89.0674 76.2869 88.5629 76.4466 88.0458 76.4462M89.4915 75.988L88.0462 75.9462M89.4915 75.988L94.6472 72.3291L94.6488 72.328C94.9727 72.0962 95.2367 71.7906 95.4187 71.4364C95.6008 71.0822 95.6958 70.6897 95.6958 70.2914C95.6958 69.8932 95.6008 69.5007 95.4187 69.1465C95.2367 68.7923 94.9727 68.4866 94.6488 68.2549L94.6482 68.2545L89.4841 64.5706L89.4834 64.5701C89.1069 64.3025 88.6635 64.1446 88.2026 64.1141C87.7416 64.0835 87.2813 64.1815 86.8727 64.3971C86.4642 64.6127 86.1235 64.9374 85.8886 65.3352C85.6545 65.7316 85.5346 66.1849 85.5421 66.6451M89.4915 75.988L89.1938 64.9777M88.0458 76.4462L88.0462 75.9462M88.0458 76.4462C88.0459 76.4462 88.0461 76.4462 88.0462 76.4462L88.0462 75.9462M88.0458 76.4462C87.3836 76.4461 86.7484 76.1837 86.2792 75.7164C85.8099 75.2491 85.5448 74.6148 85.5421 73.9525L85.5421 73.9504L85.5421 66.6451M88.0462 75.9462C87.5161 75.9462 87.0076 75.7362 86.632 75.3621C86.2564 74.9881 86.0443 74.4805 86.0421 73.9504V66.6408M85.5421 66.6451C85.5421 66.6467 85.5421 66.6483 85.5422 66.6499L86.0421 66.6408M85.5421 66.6451V66.6408H86.0421M86.0421 66.6408C86.0353 66.2715 86.1312 65.9075 86.3191 65.5895C86.5069 65.2714 86.7794 65.0117 87.1061 64.8393C87.4328 64.6669 87.8009 64.5886 88.1695 64.613C88.5381 64.6374 88.8927 64.7637 89.1938 64.9777M89.1938 64.9777L94.3579 68.6615C94.6171 68.847 94.8283 69.0916 94.9741 69.3751L89.1938 64.9777ZM104.916 60.3157C105.29 60.6898 105.5 61.1971 105.5 61.7262V79.5209H73.2368V61.7262C73.2368 61.1971 73.447 60.6898 73.8211 60.3157C74.1951 59.9416 74.7025 59.7314 75.2316 59.7314H103.505C104.034 59.7314 104.542 59.9416 104.916 60.3157Z" fill="#5DB947" stroke="black"/>
<path d="M39.7058 15.0428V25.3686H29.38L39.7058 15.0428Z" fill="white" stroke="black"/>
<path d="M70.2053 84.9262H27.5V28.0317H41.0371C41.3902 28.0317 41.7289 27.8914 41.9786 27.6417C42.2283 27.392 42.3686 27.0533 42.3686 26.7001V13.1631H87.2053V56.4447H34.3844C34.0313 56.4447 33.6926 56.585 33.4429 56.8347L33.7964 57.1882L33.4429 56.8347C33.1931 57.0844 33.0528 57.4231 33.0528 57.7762C33.0528 58.1294 33.1931 58.4681 33.4429 58.7178L33.7964 58.3643L33.4429 58.7178C33.6926 58.9675 34.0313 59.1078 34.3844 59.1078H70.1874C69.8925 59.7276 69.7386 60.4095 69.7421 61.1038V63.3052H34.3844C34.0313 63.3052 33.6926 63.4455 33.4429 63.6952L33.7964 64.0488L33.4429 63.6952C33.1931 63.9449 33.0528 64.2836 33.0528 64.6368C33.0528 64.9899 33.1931 65.3286 33.4429 65.5783L33.7964 65.2248L33.4429 65.5783C33.6926 65.8281 34.0313 65.9683 34.3844 65.9683H69.7421V70.1657H34.3844C34.0313 70.1657 33.6926 70.306 33.4429 70.5557L33.7964 70.9093L33.4429 70.5557C33.1931 70.8054 33.0528 71.1441 33.0528 71.4973C33.0528 71.8504 33.1931 72.1891 33.4429 72.4389C33.6926 72.6886 34.0313 72.8289 34.3844 72.8289H69.7421V77.0262H34.3844C34.0313 77.0262 33.6926 77.1665 33.4429 77.4163C33.1931 77.666 33.0528 78.0047 33.0528 78.3578C33.0528 78.711 33.1931 79.0497 33.4429 79.2994C33.6926 79.5491 34.0313 79.6894 34.3844 79.6894H69.7421L69.7421 82.9315L69.7422 82.9383C69.746 83.2253 69.7737 83.5116 69.825 83.7941L69.8469 83.9149L69.8752 83.9513V83.9976L69.8893 84.0558C69.9359 84.2476 69.9956 84.436 70.0679 84.6197L70.0718 84.6298L70.0763 84.6397C70.0816 84.6517 70.0869 84.663 70.0922 84.6734C70.0978 84.6848 70.1033 84.6951 70.1083 84.7043C70.1179 84.722 70.1272 84.7379 70.1346 84.7502L70.1413 84.7613V84.787L70.1868 84.8863C70.1929 84.8996 70.1991 84.913 70.2053 84.9262ZM73.6784 17.8004L73.3249 18.1539L73.6784 17.8004C73.4287 17.5506 73.09 17.4103 72.7368 17.4103H47.5067C47.1536 17.4103 46.8149 17.5506 46.5652 17.8004C46.3154 18.0501 46.1752 18.3888 46.1752 18.7419V37.8682V43.9887C46.1752 44.3418 46.3154 44.6805 46.5652 44.9302C46.8149 45.18 47.1536 45.3202 47.5067 45.3202H72.7368C73.09 45.3202 73.4287 45.18 73.6784 44.9302C73.9281 44.6805 74.0684 44.3418 74.0684 43.9887V18.7419C74.0684 18.3888 73.9281 18.0501 73.6784 17.8004ZM80.3208 49.5841H34.3844C34.0313 49.5841 33.6926 49.7244 33.4429 49.9741C33.1931 50.2239 33.0528 50.5626 33.0528 50.9157C33.0528 51.2689 33.1931 51.6076 33.4429 51.8573C33.6926 52.107 34.0313 52.2473 34.3844 52.2473H80.3208C80.674 52.2473 81.0127 52.107 81.2624 51.8573C81.5121 51.6076 81.6524 51.2689 81.6524 50.9157C81.6524 50.5626 81.5121 50.2239 81.2624 49.9741C81.0127 49.7244 80.674 49.5841 80.3208 49.5841Z" fill="white" stroke="black"/>
<path d="M60.1185 20.9531L60.1219 20.9531L60.1463 20.9531H60.1468V21.4531L60.1185 20.9531ZM60.1185 20.9531C58.9923 20.9606 57.9149 21.4138 57.1221 22.2137C56.3294 23.0135 55.8857 24.0946 55.8881 25.2207L60.1185 20.9531ZM56.3425 29.0328L56.3414 29.0317C56.0919 28.7837 55.7544 28.6445 55.4026 28.6445C55.0509 28.6445 54.7134 28.7837 54.4639 29.0317L54.4631 29.0326L48.8384 34.65V20.0903H71.4053V29.9771L68.0085 26.6534C68.0079 26.6529 68.0074 26.6524 68.0069 26.6519C67.7576 26.4048 67.4208 26.2662 67.0697 26.2662C66.7179 26.2662 66.3804 26.4054 66.1309 26.6534L66.1299 26.6545L60.047 32.7373L56.3425 29.0328Z" fill="white" stroke="black"/>
<path d="M60.1239 26.8157V26.8157H60.122C59.6988 26.8157 59.2929 26.6476 58.9937 26.3484C58.6945 26.0491 58.5264 25.6433 58.5264 25.2201L58.5264 25.2181C58.5251 24.9004 58.6183 24.5894 58.794 24.3247C58.9698 24.06 59.2202 23.8534 59.5136 23.7312C59.8069 23.609 60.1299 23.5767 60.4416 23.6384C60.7533 23.7001 61.0397 23.853 61.2644 24.0777L61.6179 23.7241L61.2644 24.0777C61.4891 24.3024 61.642 24.5887 61.7036 24.9005C61.7653 25.2122 61.733 25.5352 61.6109 25.8285C61.4887 26.1218 61.2821 26.3723 61.0174 26.548C60.7527 26.7238 60.4417 26.8169 60.1239 26.8157Z" fill="white" stroke="black"/>
<path d="M55.3995 31.8566L58.167 34.6174L56.4931 36.2912C56.4929 36.2914 56.4927 36.2916 56.4925 36.2918C56.2422 36.5407 56.1009 36.8788 56.0997 37.2318C56.0984 37.585 56.2375 37.9243 56.4865 38.175C56.7354 38.4257 57.0737 38.5673 57.427 38.5685C57.7803 38.5698 58.1196 38.4306 58.3703 38.1817L58.3715 38.1804L60.9908 35.5612L60.991 35.561L67.085 29.4748L71.4053 33.7207V42.7238H48.8384V38.441L55.3995 31.8566Z" fill="white" stroke="black"/>
</svg>
