<svg width="128" height="100" viewBox="0 0 128 100" fill="none" xmlns="http://www.w3.org/2000/svg">
<path d="M7.15408 56.847C7.25277 56.945 7.3866 57 7.52614 57C7.66569 57 7.79952 56.945 7.89821 56.847L10.5032 54.261L13.1081 56.847C13.2074 56.9422 13.3403 56.9949 13.4783 56.9937C13.6163 56.9925 13.7483 56.9375 13.8459 56.8407C13.9434 56.7438 13.9988 56.6128 14 56.4758C14.0012 56.3388 13.9481 56.2069 13.8523 56.1083L10.8752 53.153C10.7766 53.055 10.6427 53 10.5032 53C10.3636 53 10.2298 53.055 10.1311 53.153L7.15408 56.1083C7.05542 56.2063 7 56.3392 7 56.4777C7 56.6162 7.05542 56.7491 7.15408 56.847Z" fill="#5DB947"/>
<path d="M28.1541 19.847C28.2528 19.945 28.3866 20 28.5261 20C28.6657 20 28.7995 19.945 28.8982 19.847L31.5032 17.261L34.1081 19.847C34.2074 19.9422 34.3403 19.9949 34.4783 19.9937C34.6163 19.9925 34.7483 19.9375 34.8459 19.8407C34.9434 19.7438 34.9988 19.6128 35 19.4758C35.0012 19.3388 34.9481 19.2069 34.8523 19.1083L31.8752 16.153C31.7766 16.055 31.6427 16 31.5032 16C31.3636 16 31.2298 16.055 31.1311 16.153L28.1541 19.1083C28.0554 19.2063 28 19.3392 28 19.4777C28 19.6162 28.0554 19.7491 28.1541 19.847Z" fill="#5DB947"/>
<path d="M107.154 12.847C107.253 12.945 107.387 13 107.526 13C107.666 13 107.8 12.945 107.898 12.847L110.503 10.261L113.108 12.847C113.207 12.9422 113.34 12.9949 113.478 12.9937C113.616 12.9925 113.748 12.9375 113.846 12.8407C113.943 12.7438 113.999 12.6128 114 12.4758C114.001 12.3388 113.948 12.2069 113.852 12.1083L110.875 9.15296C110.777 9.05502 110.643 9 110.503 9C110.364 9 110.23 9.05502 110.131 9.15296L107.154 12.1083C107.055 12.2063 107 12.3392 107 12.4777C107 12.6162 107.055 12.7491 107.154 12.847Z" fill="#5DB947"/>
<path d="M30.093 60.5968C29.7239 59.9508 28.9006 59.733 28.262 60.1058L21.569 64.0079C20.9266 64.3808 20.6977 65.2187 21.0669 65.8611L36.136 92.3524C36.5052 92.9947 37.3321 93.2162 37.9745 92.8434L44.6675 88.9413C45.3098 88.5647 45.5313 87.7304 45.1658 87.0881L30.093 60.5968Z" fill="#C8F4BD"/>
<path d="M102.28 57.8599C102.778 58.7754 102.856 59.8201 102.579 60.7652C102.306 61.7066 101.678 62.5409 100.774 63.043L70.7754 79.5666C69.3615 80.3419 67.907 80.8033 66.4378 80.9436C64.9611 81.0839 63.4475 80.9067 61.9154 80.4046L55.4365 78.2929C53.5427 77.6727 51.6636 77.4549 49.8141 77.6321C48.1159 77.7946 46.4583 78.2782 44.8561 79.1014L35.3091 62.3189L46.6716 56.0541C48.6873 54.9466 50.762 54.2895 52.8626 54.0865C54.9743 53.8908 57.1338 54.1418 59.323 54.858L77.062 60.6392C77.7597 60.8718 78.3504 61.2926 78.7896 61.8353C79.5907 62.8173 79.875 64.1241 79.5206 65.3535C79.4947 65.4089 79.48 65.4716 79.4652 65.5381C78.8044 67.4466 76.7592 68.5099 74.8396 67.934C74.7768 67.9082 74.7104 67.886 74.6439 67.8713L59.6891 63.0057C58.9656 62.7731 58.1829 63.1755 57.9504 63.9101C57.7178 64.6485 58.1165 65.4385 58.8438 65.6748L73.895 70.5884C75.6079 71.1421 77.3873 70.9391 78.875 70.1675C80.396 69.3812 81.6179 67.9673 82.1274 66.3061C82.3193 65.7006 82.4227 65.0804 82.4375 64.4417L97.1635 56.3238C98.0754 55.8254 99.1054 55.7478 100.036 56.0247C100.966 56.3053 101.785 56.937 102.28 57.8599ZM80.931 60.049C81.3075 60.5142 81.625 61.0236 81.8613 61.559L90.3816 56.8631C90.3189 56.7081 90.2487 56.5641 90.1675 56.4127C88.8127 53.8913 85.6637 52.9499 83.1755 54.327L77.0621 57.6901L77.9074 57.9633C79.0925 58.3583 80.141 59.0782 80.931 60.049ZM114.385 32.8339V45.8098C114.385 46.3487 113.938 46.7918 113.403 46.7918L88.5982 46.7955C88.0555 46.7955 87.6162 46.3488 87.6162 45.8134V40.8334L76.9218 40.8297C76.357 41.9741 75.183 42.7642 73.8208 42.7642C72.4586 42.7642 71.2809 41.9705 70.7199 40.8297H60.0255V45.8098C60.0255 46.3487 59.5788 46.7918 59.0434 46.7918L34.2391 46.7955C33.7001 46.7955 33.2571 46.3488 33.2571 45.8134L33.2534 32.8339C33.2534 32.2949 33.7001 31.8518 34.2354 31.8518H59.0397C59.5787 31.8518 60.0218 32.2985 60.0218 32.8339V37.8139H70.7162C71.0521 37.1199 71.6169 36.5624 72.3036 36.2265L72.311 21.9436H61.4172C60.8745 21.9436 60.4351 21.4969 60.4351 20.9616V7.98202C60.4351 7.44304 60.8745 7 61.4172 7H86.2215C86.7605 7 87.2035 7.4467 87.2035 7.98202V20.9578C87.2035 21.4968 86.7568 21.9399 86.2215 21.9399L75.3276 21.9435V36.2226C76.0217 36.5585 76.5791 37.116 76.9225 37.81H87.6169V32.83C87.6169 32.291 88.0562 31.848 88.5989 31.848H113.403C113.938 31.848 114.385 32.2949 114.385 32.8339ZM48.1446 41.8564C48.1446 41.0221 47.4727 40.3465 46.6384 40.3465L38.4244 40.3428C37.5901 40.3428 36.9181 41.0221 36.9181 41.8527C36.9181 42.6871 37.59 43.359 38.4244 43.359H46.6384C47.4727 43.3627 48.1446 42.6907 48.1446 41.8564ZM56.3586 36.7877C56.3586 35.9534 55.6793 35.2778 54.8523 35.2778H38.4242C37.5899 35.2778 36.9179 35.9571 36.9179 36.7877C36.9179 37.6221 37.5898 38.294 38.4242 38.294H54.8523C55.683 38.294 56.3586 37.6221 56.3586 36.7877ZM64.1 11.939C64.1 12.7733 64.7719 13.449 65.6063 13.449H82.0306C82.865 13.449 83.5406 12.7697 83.5406 11.939C83.5406 11.1047 82.8613 10.4328 82.0306 10.4328L65.6063 10.4291C64.772 10.4291 64.1 11.1047 64.1 11.939ZM75.3265 17.004C75.3265 16.1697 74.6546 15.4978 73.8203 15.4978H65.6063C64.772 15.4978 64.1 16.1697 64.1 17.004C64.1 17.8384 64.7719 18.514 65.6063 18.514H73.8203C74.6546 18.5177 75.3265 17.8384 75.3265 17.004ZM102.505 41.8565C102.505 41.0222 101.833 40.3466 100.999 40.3466L92.7846 40.3429C91.9503 40.3429 91.2784 41.0222 91.2784 41.8528C91.2784 42.6872 91.9502 43.3591 92.7846 43.3591H100.999C101.833 43.3628 102.505 42.6908 102.505 41.8565ZM110.723 36.7878C110.723 35.9535 110.043 35.2779 109.213 35.2779H92.7844C91.9501 35.2779 91.2782 35.9572 91.2782 36.7878C91.2782 37.6222 91.95 38.2941 92.7844 38.2941H109.209C110.043 38.2941 110.723 37.6222 110.723 36.7878Z" fill="#C8F4BD"/>
<mask id="path-6-outside-1_156_441" maskUnits="userSpaceOnUse" x="32.2534" y="7.89014" width="84" height="76" fill="black">
<rect fill="white" x="32.2534" y="7.89014" width="84" height="76"/>
<path d="M102.28 59.75C102.778 60.6655 102.856 61.7103 102.579 62.6553C102.306 63.5967 101.678 64.431 100.774 64.9331L70.7754 81.4567C69.3615 82.232 67.907 82.6935 66.4378 82.8337C64.9611 82.974 63.4475 82.7968 61.9154 82.2947L55.4365 80.1831C53.5427 79.5629 51.6636 79.3451 49.8141 79.5223C48.1159 79.6847 46.4583 80.1683 44.8561 80.9916L35.3091 64.209L46.6716 57.9442C48.6873 56.8367 50.762 56.1796 52.8626 55.9766C54.9743 55.7809 57.1338 56.032 59.323 56.7482L77.062 62.5293C77.7597 62.7619 78.3504 63.1828 78.7896 63.7254C79.5907 64.7074 79.875 66.0143 79.5206 67.2436C79.4947 67.299 79.48 67.3618 79.4652 67.4282C78.8044 69.3368 76.7592 70.4 74.8396 69.8242C74.7768 69.7983 74.7104 69.7762 74.6439 69.7614L59.6891 64.8958C58.9656 64.6632 58.1829 65.0656 57.9504 65.8003C57.7178 66.5386 58.1165 67.3286 58.8438 67.5649L73.895 72.4785C75.6079 73.0323 77.3873 72.8292 78.875 72.0577C80.396 71.2713 81.6179 69.8574 82.1274 68.1962C82.3193 67.5908 82.4227 66.9705 82.4375 66.3319L97.1635 58.2139C98.0754 57.7155 99.1054 57.638 100.036 57.9149C100.966 58.1954 101.785 58.8271 102.28 59.75ZM80.931 61.9392C81.3075 62.4043 81.625 62.9137 81.8613 63.4491L90.3816 58.7532C90.3189 58.5982 90.2487 58.4542 90.1675 58.3029C88.8127 55.7814 85.6637 54.84 83.1755 56.2171L77.0621 59.5802L77.9074 59.8534C79.0925 60.2484 80.141 60.9683 80.931 61.9392ZM114.385 34.7241V47.6999C114.385 48.2389 113.938 48.6819 113.403 48.6819L88.5982 48.6856C88.0555 48.6856 87.6162 48.2389 87.6162 47.7036V42.7235L76.9218 42.7198C76.357 43.8642 75.183 44.6543 73.8208 44.6543C72.4586 44.6543 71.2809 43.8606 70.7199 42.7198H60.0255V47.6999C60.0255 48.2389 59.5788 48.6819 59.0434 48.6819L34.2391 48.6856C33.7001 48.6856 33.2571 48.2389 33.2571 47.7036L33.2534 34.724C33.2534 34.185 33.7001 33.742 34.2354 33.742H59.0397C59.5787 33.742 60.0218 34.1887 60.0218 34.724V39.704H70.7162C71.0521 39.01 71.6169 38.4526 72.3036 38.1166L72.311 23.8338H61.4172C60.8745 23.8338 60.4351 23.3871 60.4351 22.8517V9.87216C60.4351 9.33318 60.8745 8.89014 61.4172 8.89014H86.2215C86.7605 8.89014 87.2035 9.33683 87.2035 9.87216V22.848C87.2035 23.3869 86.7568 23.83 86.2215 23.83L75.3276 23.8337V38.1127C76.0217 38.4487 76.5791 39.0061 76.9225 39.7002H87.6169V34.7201C87.6169 34.1811 88.0562 33.7381 88.5989 33.7381H113.403C113.938 33.7381 114.385 34.1851 114.385 34.7241ZM48.1446 43.7466C48.1446 42.9123 47.4727 42.2366 46.6384 42.2366L38.4244 42.2329C37.5901 42.2329 36.9181 42.9122 36.9181 43.7429C36.9181 44.5772 37.59 45.2491 38.4244 45.2491H46.6384C47.4727 45.2528 48.1446 44.5809 48.1446 43.7466ZM56.3586 38.6779C56.3586 37.8436 55.6793 37.1679 54.8523 37.1679H38.4242C37.5899 37.1679 36.9179 37.8472 36.9179 38.6779C36.9179 39.5122 37.5898 40.1841 38.4242 40.1841H54.8523C55.683 40.1841 56.3586 39.5122 56.3586 38.6779ZM64.1 13.8292C64.1 14.6635 64.7719 15.3391 65.6063 15.3391H82.0306C82.865 15.3391 83.5406 14.6598 83.5406 13.8292C83.5406 12.9948 82.8613 12.3229 82.0306 12.3229L65.6063 12.3192C64.772 12.3192 64.1 12.9948 64.1 13.8292ZM75.3265 18.8942C75.3265 18.0598 74.6546 17.3879 73.8203 17.3879H65.6063C64.772 17.3879 64.1 18.0598 64.1 18.8942C64.1 19.7285 64.7719 20.4041 65.6063 20.4041H73.8203C74.6546 20.4078 75.3265 19.7285 75.3265 18.8942ZM102.505 43.7467C102.505 42.9123 101.833 42.2367 100.999 42.2367L92.7846 42.233C91.9503 42.233 91.2784 42.9123 91.2784 43.743C91.2784 44.5773 91.9502 45.2492 92.7846 45.2492H100.999C101.833 45.2529 102.505 44.5809 102.505 43.7467ZM110.723 38.678C110.723 37.8437 110.043 37.168 109.213 37.168H92.7844C91.9501 37.168 91.2782 37.8473 91.2782 38.678C91.2782 39.5123 91.95 40.1842 92.7844 40.1842H109.209C110.043 40.1842 110.723 39.5123 110.723 38.678Z"/>
</mask>
<path d="M102.28 59.75C102.778 60.6655 102.856 61.7103 102.579 62.6553C102.306 63.5967 101.678 64.431 100.774 64.9331L70.7754 81.4567C69.3615 82.232 67.907 82.6935 66.4378 82.8337C64.9611 82.974 63.4475 82.7968 61.9154 82.2947L55.4365 80.1831C53.5427 79.5629 51.6636 79.3451 49.8141 79.5223C48.1159 79.6847 46.4583 80.1683 44.8561 80.9916L35.3091 64.209L46.6716 57.9442C48.6873 56.8367 50.762 56.1796 52.8626 55.9766C54.9743 55.7809 57.1338 56.032 59.323 56.7482L77.062 62.5293C77.7597 62.7619 78.3504 63.1828 78.7896 63.7254C79.5907 64.7074 79.875 66.0143 79.5206 67.2436C79.4947 67.299 79.48 67.3618 79.4652 67.4282C78.8044 69.3368 76.7592 70.4 74.8396 69.8242C74.7768 69.7983 74.7104 69.7762 74.6439 69.7614L59.6891 64.8958C58.9656 64.6632 58.1829 65.0656 57.9504 65.8003C57.7178 66.5386 58.1165 67.3286 58.8438 67.5649L73.895 72.4785C75.6079 73.0323 77.3873 72.8292 78.875 72.0577C80.396 71.2713 81.6179 69.8574 82.1274 68.1962C82.3193 67.5908 82.4227 66.9705 82.4375 66.3319L97.1635 58.2139C98.0754 57.7155 99.1054 57.638 100.036 57.9149C100.966 58.1954 101.785 58.8271 102.28 59.75ZM80.931 61.9392C81.3075 62.4043 81.625 62.9137 81.8613 63.4491L90.3816 58.7532C90.3189 58.5982 90.2487 58.4542 90.1675 58.3029C88.8127 55.7814 85.6637 54.84 83.1755 56.2171L77.0621 59.5802L77.9074 59.8534C79.0925 60.2484 80.141 60.9683 80.931 61.9392ZM114.385 34.7241V47.6999C114.385 48.2389 113.938 48.6819 113.403 48.6819L88.5982 48.6856C88.0555 48.6856 87.6162 48.2389 87.6162 47.7036V42.7235L76.9218 42.7198C76.357 43.8642 75.183 44.6543 73.8208 44.6543C72.4586 44.6543 71.2809 43.8606 70.7199 42.7198H60.0255V47.6999C60.0255 48.2389 59.5788 48.6819 59.0434 48.6819L34.2391 48.6856C33.7001 48.6856 33.2571 48.2389 33.2571 47.7036L33.2534 34.724C33.2534 34.185 33.7001 33.742 34.2354 33.742H59.0397C59.5787 33.742 60.0218 34.1887 60.0218 34.724V39.704H70.7162C71.0521 39.01 71.6169 38.4526 72.3036 38.1166L72.311 23.8338H61.4172C60.8745 23.8338 60.4351 23.3871 60.4351 22.8517V9.87216C60.4351 9.33318 60.8745 8.89014 61.4172 8.89014H86.2215C86.7605 8.89014 87.2035 9.33683 87.2035 9.87216V22.848C87.2035 23.3869 86.7568 23.83 86.2215 23.83L75.3276 23.8337V38.1127C76.0217 38.4487 76.5791 39.0061 76.9225 39.7002H87.6169V34.7201C87.6169 34.1811 88.0562 33.7381 88.5989 33.7381H113.403C113.938 33.7381 114.385 34.1851 114.385 34.7241ZM48.1446 43.7466C48.1446 42.9123 47.4727 42.2366 46.6384 42.2366L38.4244 42.2329C37.5901 42.2329 36.9181 42.9122 36.9181 43.7429C36.9181 44.5772 37.59 45.2491 38.4244 45.2491H46.6384C47.4727 45.2528 48.1446 44.5809 48.1446 43.7466ZM56.3586 38.6779C56.3586 37.8436 55.6793 37.1679 54.8523 37.1679H38.4242C37.5899 37.1679 36.9179 37.8472 36.9179 38.6779C36.9179 39.5122 37.5898 40.1841 38.4242 40.1841H54.8523C55.683 40.1841 56.3586 39.5122 56.3586 38.6779ZM64.1 13.8292C64.1 14.6635 64.7719 15.3391 65.6063 15.3391H82.0306C82.865 15.3391 83.5406 14.6598 83.5406 13.8292C83.5406 12.9948 82.8613 12.3229 82.0306 12.3229L65.6063 12.3192C64.772 12.3192 64.1 12.9948 64.1 13.8292ZM75.3265 18.8942C75.3265 18.0598 74.6546 17.3879 73.8203 17.3879H65.6063C64.772 17.3879 64.1 18.0598 64.1 18.8942C64.1 19.7285 64.7719 20.4041 65.6063 20.4041H73.8203C74.6546 20.4078 75.3265 19.7285 75.3265 18.8942ZM102.505 43.7467C102.505 42.9123 101.833 42.2367 100.999 42.2367L92.7846 42.233C91.9503 42.233 91.2784 42.9123 91.2784 43.743C91.2784 44.5773 91.9502 45.2492 92.7846 45.2492H100.999C101.833 45.2529 102.505 44.5809 102.505 43.7467ZM110.723 38.678C110.723 37.8437 110.043 37.168 109.213 37.168H92.7844C91.9501 37.168 91.2782 37.8473 91.2782 38.678C91.2782 39.5123 91.95 40.1842 92.7844 40.1842H109.209C110.043 40.1842 110.723 39.5123 110.723 38.678Z" fill="white"/>
<path d="M102.28 59.75C102.778 60.6655 102.856 61.7103 102.579 62.6553C102.306 63.5967 101.678 64.431 100.774 64.9331L70.7754 81.4567C69.3615 82.232 67.907 82.6935 66.4378 82.8337C64.9611 82.974 63.4475 82.7968 61.9154 82.2947L55.4365 80.1831C53.5427 79.5629 51.6636 79.3451 49.8141 79.5223C48.1159 79.6847 46.4583 80.1683 44.8561 80.9916L35.3091 64.209L46.6716 57.9442C48.6873 56.8367 50.762 56.1796 52.8626 55.9766C54.9743 55.7809 57.1338 56.032 59.323 56.7482L77.062 62.5293C77.7597 62.7619 78.3504 63.1828 78.7896 63.7254C79.5907 64.7074 79.875 66.0143 79.5206 67.2436C79.4947 67.299 79.48 67.3618 79.4652 67.4282C78.8044 69.3368 76.7592 70.4 74.8396 69.8242C74.7768 69.7983 74.7104 69.7762 74.6439 69.7614L59.6891 64.8958C58.9656 64.6632 58.1829 65.0656 57.9504 65.8003C57.7178 66.5386 58.1165 67.3286 58.8438 67.5649L73.895 72.4785C75.6079 73.0323 77.3873 72.8292 78.875 72.0577C80.396 71.2713 81.6179 69.8574 82.1274 68.1962C82.3193 67.5908 82.4227 66.9705 82.4375 66.3319L97.1635 58.2139C98.0754 57.7155 99.1054 57.638 100.036 57.9149C100.966 58.1954 101.785 58.8271 102.28 59.75ZM80.931 61.9392C81.3075 62.4043 81.625 62.9137 81.8613 63.4491L90.3816 58.7532C90.3189 58.5982 90.2487 58.4542 90.1675 58.3029C88.8127 55.7814 85.6637 54.84 83.1755 56.2171L77.0621 59.5802L77.9074 59.8534C79.0925 60.2484 80.141 60.9683 80.931 61.9392ZM114.385 34.7241V47.6999C114.385 48.2389 113.938 48.6819 113.403 48.6819L88.5982 48.6856C88.0555 48.6856 87.6162 48.2389 87.6162 47.7036V42.7235L76.9218 42.7198C76.357 43.8642 75.183 44.6543 73.8208 44.6543C72.4586 44.6543 71.2809 43.8606 70.7199 42.7198H60.0255V47.6999C60.0255 48.2389 59.5788 48.6819 59.0434 48.6819L34.2391 48.6856C33.7001 48.6856 33.2571 48.2389 33.2571 47.7036L33.2534 34.724C33.2534 34.185 33.7001 33.742 34.2354 33.742H59.0397C59.5787 33.742 60.0218 34.1887 60.0218 34.724V39.704H70.7162C71.0521 39.01 71.6169 38.4526 72.3036 38.1166L72.311 23.8338H61.4172C60.8745 23.8338 60.4351 23.3871 60.4351 22.8517V9.87216C60.4351 9.33318 60.8745 8.89014 61.4172 8.89014H86.2215C86.7605 8.89014 87.2035 9.33683 87.2035 9.87216V22.848C87.2035 23.3869 86.7568 23.83 86.2215 23.83L75.3276 23.8337V38.1127C76.0217 38.4487 76.5791 39.0061 76.9225 39.7002H87.6169V34.7201C87.6169 34.1811 88.0562 33.7381 88.5989 33.7381H113.403C113.938 33.7381 114.385 34.1851 114.385 34.7241ZM48.1446 43.7466C48.1446 42.9123 47.4727 42.2366 46.6384 42.2366L38.4244 42.2329C37.5901 42.2329 36.9181 42.9122 36.9181 43.7429C36.9181 44.5772 37.59 45.2491 38.4244 45.2491H46.6384C47.4727 45.2528 48.1446 44.5809 48.1446 43.7466ZM56.3586 38.6779C56.3586 37.8436 55.6793 37.1679 54.8523 37.1679H38.4242C37.5899 37.1679 36.9179 37.8472 36.9179 38.6779C36.9179 39.5122 37.5898 40.1841 38.4242 40.1841H54.8523C55.683 40.1841 56.3586 39.5122 56.3586 38.6779ZM64.1 13.8292C64.1 14.6635 64.7719 15.3391 65.6063 15.3391H82.0306C82.865 15.3391 83.5406 14.6598 83.5406 13.8292C83.5406 12.9948 82.8613 12.3229 82.0306 12.3229L65.6063 12.3192C64.772 12.3192 64.1 12.9948 64.1 13.8292ZM75.3265 18.8942C75.3265 18.0598 74.6546 17.3879 73.8203 17.3879H65.6063C64.772 17.3879 64.1 18.0598 64.1 18.8942C64.1 19.7285 64.7719 20.4041 65.6063 20.4041H73.8203C74.6546 20.4078 75.3265 19.7285 75.3265 18.8942ZM102.505 43.7467C102.505 42.9123 101.833 42.2367 100.999 42.2367L92.7846 42.233C91.9503 42.233 91.2784 42.9123 91.2784 43.743C91.2784 44.5773 91.9502 45.2492 92.7846 45.2492H100.999C101.833 45.2529 102.505 44.5809 102.505 43.7467ZM110.723 38.678C110.723 37.8437 110.043 37.168 109.213 37.168H92.7844C91.9501 37.168 91.2782 37.8473 91.2782 38.678C91.2782 39.5123 91.95 40.1842 92.7844 40.1842H109.209C110.043 40.1842 110.723 39.5123 110.723 38.678Z" stroke="black" stroke-width="2" mask="url(#path-6-outside-1_156_441)"/>
<path d="M28.6375 60.3496L28.637 60.3487C28.1297 59.4609 26.9981 59.1614 26.12 59.6739C26.12 59.6739 26.1199 59.6739 26.1199 59.6739C26.1199 59.674 26.1198 59.674 26.1197 59.674L19.4278 63.5755C19.4277 63.5756 19.4275 63.5757 19.4274 63.5758C18.5505 64.0851 18.2356 65.2255 18.7427 66.1092C18.7429 66.1095 18.7431 66.1099 18.7433 66.1102L33.8113 92.5996L33.8124 92.6015C34.3198 93.4844 35.4538 93.7875 36.3354 93.2758L36.3362 93.2753L43.0292 89.3732L43.0302 89.3726C43.9085 88.8577 44.2111 87.7211 43.7103 86.8408L43.2757 87.0881L43.7103 86.8408L28.6375 60.3496Z" fill="#5DB947" stroke="black"/>
<path d="M114.154 69.847C114.253 69.945 114.387 70 114.526 70C114.666 70 114.8 69.945 114.898 69.847L117.503 67.261L120.108 69.847C120.207 69.9422 120.34 69.9949 120.478 69.9937C120.616 69.9925 120.748 69.9375 120.846 69.8407C120.943 69.7438 120.999 69.6128 121 69.4758C121.001 69.3388 120.948 69.2069 120.852 69.1083L117.875 66.153C117.777 66.055 117.643 66 117.503 66C117.364 66 117.23 66.055 117.131 66.153L114.154 69.1083C114.055 69.2063 114 69.3392 114 69.4777C114 69.6162 114.055 69.7491 114.154 69.847Z" fill="#5DB947"/>
</svg>
