<svg width="128" height="100" viewBox="0 0 128 100" fill="none" xmlns="http://www.w3.org/2000/svg">
<path d="M0.154081 32.847C0.252768 32.945 0.3866 33 0.526144 33C0.665688 33 0.79952 32.945 0.898207 32.847L3.50318 30.261L6.10815 32.847C6.2074 32.9422 6.34033 32.9949 6.47832 32.9937C6.6163 32.9925 6.74829 32.9375 6.84586 32.8407C6.94344 32.7438 6.99878 32.6128 6.99998 32.4758C7.00118 32.3388 6.94814 32.2069 6.85227 32.1083L3.87524 29.153C3.77655 29.055 3.64272 29 3.50318 29C3.36363 29 3.2298 29.055 3.13111 29.153L0.154081 32.1083C0.0554229 32.2063 0 32.3392 0 32.4777C0 32.6162 0.0554229 32.7491 0.154081 32.847Z" fill="#5DB947"/>
<path d="M7.15408 77.847C7.25277 77.945 7.3866 78 7.52614 78C7.66569 78 7.79952 77.945 7.89821 77.847L10.5032 75.261L13.1081 77.847C13.2074 77.9422 13.3403 77.9949 13.4783 77.9937C13.6163 77.9925 13.7483 77.9375 13.8459 77.8407C13.9434 77.7438 13.9988 77.6128 14 77.4758C14.0012 77.3388 13.9481 77.2069 13.8523 77.1083L10.8752 74.153C10.7766 74.055 10.6427 74 10.5032 74C10.3636 74 10.2298 74.055 10.1311 74.153L7.15408 77.1083C7.05542 77.2063 7 77.3392 7 77.4777C7 77.6162 7.05542 77.7491 7.15408 77.847Z" fill="#5DB947"/>
<path d="M121.154 29.847C121.253 29.945 121.387 30 121.526 30C121.666 30 121.8 29.945 121.898 29.847L124.503 27.261L127.108 29.847C127.207 29.9422 127.34 29.9949 127.478 29.9937C127.616 29.9925 127.748 29.9375 127.846 29.8407C127.943 29.7438 127.999 29.6128 128 29.4758C128.001 29.3388 127.948 29.2069 127.852 29.1083L124.875 26.153C124.777 26.055 124.643 26 124.503 26C124.364 26 124.23 26.055 124.131 26.153L121.154 29.1083C121.055 29.2063 121 29.3392 121 29.4777C121 29.6162 121.055 29.7491 121.154 29.847Z" fill="#5DB947"/>
<path d="M108.154 76.847C108.253 76.945 108.387 77 108.526 77C108.666 77 108.8 76.945 108.898 76.847L111.503 74.261L114.108 76.847C114.207 76.9422 114.34 76.9949 114.478 76.9937C114.616 76.9925 114.748 76.9375 114.846 76.8407C114.943 76.7438 114.999 76.6128 115 76.4758C115.001 76.3388 114.948 76.2069 114.852 76.1083L111.875 73.153C111.777 73.055 111.643 73 111.503 73C111.364 73 111.23 73.055 111.131 73.153L108.154 76.1083C108.055 76.2063 108 76.3392 108 76.4777C108 76.6162 108.055 76.7491 108.154 76.847Z" fill="#5DB947"/>
<path d="M85.844 18H94.372C95.204 20.324 97.4 22 100 22C103.309 22 106 19.308 106 16C106 12.692 103.309 10 100 10C97.4 10 95.2 11.676 94.372 14H74.527C74.484 13.992 74.448 13.98 74.412 13.976C74.244 13.944 74.08 13.976 73.916 13.992V8C73.916 6.896 73.016 6 71.916 6H55.916C54.812 6 53.916 6.896 53.916 8V13.992C53.752 13.976 53.588 13.948 53.416 13.976C53.38 13.98 53.34 13.992 53.3 14H33.628C32.796 11.676 30.6 10 28 10C24.692 10 22 12.692 22 16C22 19.308 24.692 22 28 22C30.604 22 32.804 20.324 33.632 18H41.984C30.284 24.388 22.572 36.752 22.572 50.752C22.572 51.856 23.468 52.752 24.572 52.752C25.672 52.752 26.572 51.856 26.572 50.752C26.572 34.656 37.972 20.956 53.732 18H53.912V24C53.912 25.104 54.808 26 55.912 26H71.912C73.012 26 73.912 25.104 73.912 24V18H74.092C89.844 20.948 101.252 34.652 101.252 50.752C101.252 51.856 102.148 52.752 103.252 52.752C104.352 52.752 105.252 51.856 105.252 50.752C105.256 36.748 97.548 24.388 85.844 18Z" fill="#C8F4BD"/>
<path d="M63.916 75.7521C65.02 75.7521 65.916 74.8521 65.916 73.7521C65.916 72.8641 65.332 72.1451 64.536 71.8721C64.34 71.9431 64.132 71.9961 63.916 71.9961C63.7 71.9961 63.496 71.9351 63.296 71.8721C62.5 72.1361 61.916 72.8641 61.916 73.7521C61.916 74.8551 62.816 75.7521 63.916 75.7521Z" fill="#C8F4BD"/>
<path d="M81.916 80.0001H78.684C78.729 79.9081 78.821 79.8481 78.848 79.7441L83.848 59.9921C83.985 59.4481 83.893 58.8761 83.588 58.4081L65.916 31.4081V66.1241C68.24 66.9561 69.916 69.1521 69.916 71.7521C69.916 75.0611 67.225 77.7521 63.916 77.7521C60.608 77.7521 57.916 75.0611 57.916 71.7521C57.916 69.1521 59.592 66.9521 61.916 66.1241V31.4041L44.244 58.4041C43.936 58.8721 43.84 59.4521 43.98 59.9881L48.98 79.7401C49.004 79.8361 49.068 79.9121 49.104 79.9961H45.916C44.812 79.9961 43.916 80.8961 43.916 81.9961C43.916 83.0961 44.812 83.9961 45.916 83.9961H81.916C83.02 83.9961 83.916 83.0961 83.916 81.9961C83.916 80.8961 83.023 80.0001 81.916 80.0001Z" fill="#C8F4BD"/>
<path d="M105.752 53.7521C105.756 40.2186 98.6517 28.1996 87.7066 21.5H94.0301C95.0132 23.8389 97.3032 25.5 100 25.5C103.585 25.5 106.5 22.5841 106.5 19C106.5 15.4159 103.585 12.5 100 12.5C97.3039 12.5 95.0098 14.1604 94.0297 16.5H74.5823C74.5648 16.4958 74.5303 16.4876 74.4888 16.4818C74.4646 16.4776 74.4403 16.4742 74.416 16.4715V11C74.416 9.61921 73.2915 8.5 71.916 8.5H55.916C54.5359 8.5 53.416 9.61986 53.416 11V16.472C53.3929 16.4743 53.3696 16.4772 53.3464 16.4808C53.3038 16.4864 53.2671 16.4947 53.2471 16.4993C53.246 16.4995 53.245 16.4998 53.2441 16.5H33.9699C32.9868 14.1611 30.6968 12.5 28 12.5C24.4159 12.5 21.5 15.4159 21.5 19C21.5 22.5841 24.4159 25.5 28 25.5C30.6997 25.5 32.9941 23.8397 33.9743 21.5H40.122C29.18 28.1999 22.072 40.2223 22.072 53.752C22.072 55.1321 23.1919 56.252 24.572 56.252C25.9475 56.252 27.072 55.1328 27.072 53.752C27.072 38.0374 38.1022 24.6427 53.412 21.5714V27C53.412 28.3801 54.5319 29.5 55.912 29.5H71.912C73.2875 29.5 74.412 28.3808 74.412 27V21.5713C89.714 24.6349 100.752 38.0334 100.752 53.752C100.752 55.1321 101.872 56.252 103.252 56.252C104.627 56.252 105.752 55.1329 105.752 53.7521ZM105.752 53.7521L105.252 53.752L105.752 53.7521Z" fill="white" stroke="black"/>
<path d="M64.6982 74.3991L64.5315 74.3419L64.3657 74.402C64.1984 74.4626 64.0516 74.4961 63.916 74.4961C63.7868 74.4961 63.6513 74.4598 63.4462 74.3952L63.2921 74.3466L63.1386 74.3975C62.1541 74.724 61.416 75.6322 61.416 76.7521C61.416 78.1317 62.5404 79.2521 63.916 79.2521C65.2968 79.2521 66.416 78.1276 66.416 76.7521C66.416 75.6288 65.675 74.7341 64.6982 74.3991Z" fill="#5DB947" stroke="black"/>
<path d="M81.916 84.5001H79.4256L84.3327 65.1148L84.3329 65.1142C84.5033 64.4376 84.3894 63.722 84.0069 63.1351L84.0064 63.1342L66.3344 36.1342L65.416 34.7311V36.4081V71.1241V71.4761L65.7475 71.5948C67.8836 72.3595 69.416 74.3746 69.416 76.7521C69.416 79.7849 66.9489 82.2521 63.916 82.2521C60.8841 82.2521 58.416 79.7849 58.416 76.7521C58.416 74.3741 59.9488 72.3557 62.0838 71.5951L62.416 71.4767V71.1241V36.4041V34.7271L61.4977 36.1302L43.8263 63.1292C43.8263 63.1293 43.8262 63.1294 43.8261 63.1296C43.4414 63.7143 43.3204 64.439 43.4957 65.1125C43.4959 65.1131 43.4961 65.1138 43.4962 65.1144L48.4025 84.4961H45.916C44.5352 84.4961 43.416 85.6206 43.416 86.9961C43.416 88.3715 44.5352 89.4961 45.916 89.4961H81.916C83.2968 89.4961 84.416 88.3715 84.416 86.9961C84.416 85.6198 83.299 84.5001 81.916 84.5001ZM48.4949 84.8613C48.495 84.8616 48.4951 84.8619 48.4951 84.8621L48.4949 84.8613Z" fill="#5DB947" stroke="black"/>
</svg>
