<svg width="128" height="100" viewBox="0 0 128 100" fill="none" xmlns="http://www.w3.org/2000/svg">
<path d="M9.15408 78.847C9.25277 78.945 9.3866 79 9.52614 79C9.66569 79 9.79952 78.945 9.89821 78.847L12.5032 76.261L15.1081 78.847C15.2074 78.9422 15.3403 78.9949 15.4783 78.9937C15.6163 78.9925 15.7483 78.9375 15.8459 78.8407C15.9434 78.7438 15.9988 78.6128 16 78.4758C16.0012 78.3388 15.9481 78.2069 15.8523 78.1083L12.8752 75.153C12.7766 75.055 12.6427 75 12.5032 75C12.3636 75 12.2298 75.055 12.1311 75.153L9.15408 78.1083C9.05542 78.2063 9 78.3392 9 78.4777C9 78.6162 9.05542 78.7491 9.15408 78.847Z" fill="#5DB947"/>
<path d="M5.15408 27.847C5.25277 27.945 5.3866 28 5.52614 28C5.66569 28 5.79952 27.945 5.89821 27.847L8.50318 25.261L11.1081 27.847C11.2074 27.9422 11.3403 27.9949 11.4783 27.9937C11.6163 27.9925 11.7483 27.9375 11.8459 27.8407C11.9434 27.7438 11.9988 27.6128 12 27.4758C12.0012 27.3388 11.9481 27.2069 11.8523 27.1083L8.87524 24.153C8.77655 24.055 8.64272 24 8.50318 24C8.36363 24 8.2298 24.055 8.13111 24.153L5.15408 27.1083C5.05542 27.2063 5 27.3392 5 27.4777C5 27.6162 5.05542 27.7491 5.15408 27.847Z" fill="#5DB947"/>
<path d="M118.154 18.847C118.253 18.945 118.387 19 118.526 19C118.666 19 118.8 18.945 118.898 18.847L121.503 16.261L124.108 18.847C124.207 18.9422 124.34 18.9949 124.478 18.9937C124.616 18.9925 124.748 18.9375 124.846 18.8407C124.943 18.7438 124.999 18.6128 125 18.4758C125.001 18.3388 124.948 18.2069 124.852 18.1083L121.875 15.153C121.777 15.055 121.643 15 121.503 15C121.364 15 121.23 15.055 121.131 15.153L118.154 18.1083C118.055 18.2063 118 18.3392 118 18.4777C118 18.6162 118.055 18.7491 118.154 18.847Z" fill="#5DB947"/>
<path d="M118.154 59.847C118.253 59.945 118.387 60 118.526 60C118.666 60 118.8 59.945 118.898 59.847L121.503 57.261L124.108 59.847C124.207 59.9422 124.34 59.9949 124.478 59.9937C124.616 59.9925 124.748 59.9375 124.846 59.8407C124.943 59.7438 124.999 59.6128 125 59.4758C125.001 59.3388 124.948 59.2069 124.852 59.1083L121.875 56.153C121.777 56.055 121.643 56 121.503 56C121.364 56 121.23 56.055 121.131 56.153L118.154 59.1083C118.055 59.2063 118 59.3392 118 59.4777C118 59.6162 118.055 59.7491 118.154 59.847Z" fill="#5DB947"/>
<path d="M104.262 86.5H23.2388C22.3873 86.5117 21.7036 87.207 21.7036 88.0625C21.7036 88.9141 22.3872 89.6094 23.2427 89.625H104.263C105.114 89.6094 105.798 88.9141 105.798 88.0625C105.798 87.207 105.113 86.5117 104.262 86.5Z" fill="#C8F4BD"/>
<path d="M87.7339 38.093H95.937V81.109H87.7339V38.093Z" fill="#C8F4BD"/>
<path d="M69 46.312H77.2188V81.109H69V46.312Z" fill="#C8F4BD"/>
<path d="M50.2808 57H58.4996V81.109H50.2808V57Z" fill="#C8F4BD"/>
<path d="M31.5469 66.4839H39.7813V81.1089H31.5469V66.4839Z" fill="#C8F4BD"/>
<path d="M23.125 28.2959H20V67.5459C20 71.124 22.8945 74.0225 26.4688 74.0303H28.4219C28.4258 72.0381 28.418 66.0069 28.4219 63.9213C28.4219 63.5072 28.586 63.1088 28.8789 62.8158C29.1719 62.5228 29.5703 62.3588 29.9844 62.3588H41.3434C41.7575 62.3588 42.1559 62.5228 42.4489 62.8158C42.7419 63.1088 42.906 63.5072 42.906 63.9213V74.0303H47.156C47.1794 72.3272 47.1403 56.5733 47.156 54.4363C47.1599 53.5769 47.8552 52.8777 48.7185 52.8738H60.0625C60.9257 52.8777 61.6211 53.5769 61.625 54.4363V74.0303H65.875C65.8711 73.1905 65.8789 45.4323 65.875 43.7493C65.8789 42.8899 66.5742 42.1907 67.4375 42.1868H78.7815C79.6447 42.1907 80.3401 42.8899 80.344 43.7493V74.0303H84.6096V35.5303C84.6135 34.6709 85.3088 33.9717 86.1721 33.9678H97.5001C97.9141 33.9678 98.3126 34.1319 98.6056 34.4248C98.8986 34.7178 99.0626 35.1162 99.0626 35.5303V74.0303H101.031C104.606 74.0225 107.5 71.1241 107.5 67.5459V28.2959L23.125 28.2959Z" fill="#C8F4BD"/>
<path d="M101.031 9H26.4688C22.8946 9.01172 20 11.9102 20 15.4844V22.1719H107.5V15.4844C107.5 11.9102 104.605 9.0117 101.031 9ZM44.0928 19.109H29.1088C28.2533 19.0973 27.5697 18.402 27.5697 17.5465C27.5697 16.6949 28.2533 15.9996 29.1088 15.984H44.0928C44.9483 15.9957 45.6358 16.691 45.6358 17.5465C45.6358 18.402 44.9483 19.1012 44.0928 19.109ZM85.2808 19.4215C84.2535 19.4098 83.4292 18.5738 83.4292 17.5465C83.4292 16.5231 84.2534 15.6871 85.2808 15.6715C86.3081 15.6871 87.1324 16.5231 87.1324 17.5465C87.1324 18.5738 86.3082 19.4098 85.2808 19.4215ZM90.9058 19.4215C89.8785 19.4098 89.0542 18.5738 89.0542 17.5465C89.0542 16.5231 89.8784 15.6871 90.9058 15.6715C91.9331 15.6871 92.7574 16.5231 92.7574 17.5465C92.7574 18.5738 91.9332 19.4098 90.9058 19.4215ZM96.5152 19.4215C95.4879 19.4098 94.6636 18.5738 94.6636 17.5465C94.6636 16.5231 95.4878 15.6871 96.5152 15.6715C97.5425 15.6871 98.3668 16.5231 98.3668 17.5465C98.3668 18.5738 97.5426 19.4098 96.5152 19.4215Z" fill="#C8F4BD"/>
<path d="M101.032 10.5H101.031L26.4688 10.5L26.4672 10.5C22.618 10.5126 19.5 13.6341 19.5 17.4844V24.1719V24.6719H20H107.5H108V24.1719V17.4844C108 13.6341 104.882 10.5126 101.032 10.5ZM45.1358 19.5465C45.1358 20.1292 44.6683 20.6026 44.0903 20.609H29.1126C28.5329 20.5994 28.0697 20.1284 28.0697 19.5465C28.0697 18.9701 28.5316 18.4968 29.1138 18.484H44.089C44.6703 18.4936 45.1358 18.9663 45.1358 19.5465ZM86.6324 19.5465C86.6324 20.2988 86.0309 20.9099 85.2808 20.9215C84.5308 20.9099 83.9292 20.2988 83.9292 19.5465C83.9292 18.7998 84.5291 18.187 85.2808 18.1716C86.0324 18.1871 86.6324 18.7998 86.6324 19.5465ZM92.2574 19.5465C92.2574 20.2988 91.6559 20.9099 90.9058 20.9215C90.1558 20.9099 89.5542 20.2988 89.5542 19.5465C89.5542 18.7998 90.1541 18.187 90.9058 18.1716C91.6574 18.1871 92.2574 18.7998 92.2574 19.5465ZM97.8668 19.5465C97.8668 20.2988 97.2653 20.9099 96.5152 20.9215C95.7652 20.9099 95.1636 20.2988 95.1636 19.5465C95.1636 18.7998 95.7635 18.187 96.5152 18.1716C97.2668 18.1871 97.8668 18.7998 97.8668 19.5465Z" fill="#5DB947" stroke="black"/>
<path d="M31.5469 67.9839H31.0469V68.4839V83.1089V83.6089H31.5469H39.7813H40.2813V83.1089V68.4839V67.9839H39.7813H31.5469Z" fill="white" stroke="black"/>
<path d="M50.2808 58.5H49.7808V59V83.109V83.609H50.2808H58.4996H58.9996V83.109V59V58.5H58.4996H50.2808Z" fill="#5DB947" stroke="black"/>
<path d="M69 47.812H68.5V48.312V83.109V83.609H69H77.2188H77.7188V83.109V48.312V47.812H77.2188H69Z" fill="white" stroke="black"/>
<path d="M87.7339 39.593H87.2339V40.093V83.109V83.609H87.7339H95.937H96.437V83.109V40.093V39.593H95.937H87.7339Z" fill="#5DB947" stroke="black"/>
<path d="M20 29.7959H19.5V30.2959V69.5459C19.5 73.3998 22.6177 76.5219 26.4677 76.5303H26.4688H28.4219H28.9209L28.9219 76.0313C28.9238 75.0368 28.9229 73.0376 28.9219 71.0255L28.9219 71.0106C28.9209 68.9927 28.9199 66.9643 28.9219 65.9222V65.9213C28.9219 65.6391 29.0338 65.368 29.2325 65.1693C29.4311 64.9707 29.7022 64.8588 29.9844 64.8588H41.3434C41.6256 64.8588 41.8967 64.9707 42.0954 65.1694C42.294 65.368 42.406 65.6391 42.406 65.9213V76.0303V76.5303H42.906H47.156H47.6491L47.6559 76.0372C47.6686 75.1145 47.6629 70.0326 47.6576 65.2446C47.6531 61.2217 47.6489 57.4062 47.6559 56.44L47.656 56.4386C47.6586 55.8531 48.132 55.3771 48.7196 55.3738H60.0613C60.6486 55.3771 61.1219 55.8527 61.125 56.4378C61.125 56.438 61.125 56.4383 61.125 56.4386L61.125 76.0303V76.5303H61.625H65.875H66.3773L66.375 76.028C66.373 75.6106 66.374 68.563 66.3749 61.3636C66.3759 54.0646 66.3769 46.6096 66.375 45.75C66.3785 45.1652 66.8516 44.69 67.4388 44.6868H78.7802C79.3676 44.69 79.8409 45.1656 79.844 45.7508C79.844 45.751 79.844 45.7513 79.844 45.7516L79.844 76.0303V76.5303H80.344H84.6096H85.1096V76.0303L85.1096 37.5326C85.1096 37.5321 85.1096 37.5316 85.1096 37.5311C85.113 36.9463 85.5862 36.471 86.1733 36.4678H97.5001C97.7823 36.4678 98.0533 36.5797 98.252 36.7784C98.4507 36.977 98.5626 37.2481 98.5626 37.5303V76.0303V76.5303H99.0626H101.031H101.032C104.882 76.5219 108 73.3999 108 69.5459V30.2959V29.7959L107.5 29.7959L23.125 29.7959H20Z" fill="white" stroke="black"/>
<path d="M104.269 88V88H104.262H23.2388V88L23.2319 88C22.1052 88.0156 21.2036 88.9353 21.2036 90.0625C21.2036 91.1878 22.1067 92.1044 23.2336 92.1249L23.2336 92.125H23.2427L104.263 92.1251L104.272 92.1249C105.396 92.1043 106.298 91.1871 106.298 90.0625C106.298 88.9349 105.395 88.0155 104.269 88Z" fill="white" stroke="black"/>
</svg>
