<svg width="128" height="100" viewBox="0 0 128 100" fill="none" xmlns="http://www.w3.org/2000/svg">
<path d="M6.15408 67.847C6.25277 67.945 6.3866 68 6.52614 68C6.66569 68 6.79952 67.945 6.89821 67.847L9.50318 65.261L12.1081 67.847C12.2074 67.9422 12.3403 67.9949 12.4783 67.9937C12.6163 67.9925 12.7483 67.9375 12.8459 67.8407C12.9434 67.7438 12.9988 67.6128 13 67.4758C13.0012 67.3388 12.9481 67.2069 12.8523 67.1083L9.87524 64.153C9.77655 64.055 9.64272 64 9.50318 64C9.36363 64 9.2298 64.055 9.13111 64.153L6.15408 67.1083C6.05542 67.2063 6 67.3392 6 67.4777C6 67.6162 6.05542 67.7491 6.15408 67.847Z" fill="#5DB947"/>
<path d="M106.154 18.847C106.253 18.945 106.387 19 106.526 19C106.666 19 106.8 18.945 106.898 18.847L109.503 16.261L112.108 18.847C112.207 18.9422 112.34 18.9949 112.478 18.9937C112.616 18.9925 112.748 18.9375 112.846 18.8407C112.943 18.7438 112.999 18.6128 113 18.4758C113.001 18.3388 112.948 18.2069 112.852 18.1083L109.875 15.153C109.777 15.055 109.643 15 109.503 15C109.364 15 109.23 15.055 109.131 15.153L106.154 18.1083C106.055 18.2063 106 18.3392 106 18.4777C106 18.6162 106.055 18.7491 106.154 18.847Z" fill="#5DB947"/>
<path d="M121.154 43.847C121.253 43.945 121.387 44 121.526 44C121.666 44 121.8 43.945 121.898 43.847L124.503 41.261L127.108 43.847C127.207 43.9422 127.34 43.9949 127.478 43.9937C127.616 43.9925 127.748 43.9375 127.846 43.8407C127.943 43.7438 127.999 43.6128 128 43.4758C128.001 43.3388 127.948 43.2069 127.852 43.1083L124.875 40.153C124.777 40.055 124.643 40 124.503 40C124.364 40 124.23 40.055 124.131 40.153L121.154 43.1083C121.055 43.2063 121 43.3392 121 43.4777C121 43.6162 121.055 43.7491 121.154 43.847Z" fill="#5DB947"/>
<path d="M13.1541 31.847C13.2528 31.945 13.3866 32 13.5261 32C13.6657 32 13.7995 31.945 13.8982 31.847L16.5032 29.261L19.1081 31.847C19.2074 31.9422 19.3403 31.9949 19.4783 31.9937C19.6163 31.9925 19.7483 31.9375 19.8459 31.8407C19.9434 31.7438 19.9988 31.6128 20 31.4758C20.0012 31.3388 19.9481 31.2069 19.8523 31.1083L16.8752 28.153C16.7766 28.055 16.6427 28 16.5032 28C16.3636 28 16.2298 28.055 16.1311 28.153L13.1541 31.1083C13.0554 31.2063 13 31.3392 13 31.4777C13 31.6162 13.0554 31.7491 13.1541 31.847Z" fill="#5DB947"/>
<path fill-rule="evenodd" clip-rule="evenodd" d="M37.8213 44.329L30.0973 52.053C29.7539 52.3851 29.4801 52.7822 29.2917 53.2211C29.1034 53.6601 29.0042 54.1321 29.0001 54.6098C28.996 55.0874 29.087 55.5611 29.2678 56.0033C29.4486 56.4454 29.7156 56.8471 30.0532 57.1851C30.3908 57.523 30.7922 57.7903 31.2342 57.9716C31.6761 58.1528 32.1497 58.2443 32.6274 58.2406C33.105 58.237 33.5772 58.1383 34.0163 57.9504C34.4555 57.7625 34.8528 57.489 35.1853 57.146L42.9093 49.421C43.5845 48.7458 43.9639 47.8299 43.9639 46.875C43.9639 45.9201 43.5845 45.0042 42.9093 44.329C42.234 43.6538 41.3182 43.2744 40.3633 43.2744C39.4083 43.2744 38.4925 43.6538 37.8173 44.329H37.8213ZM42.9853 41.766L46.2803 38.466C46.6533 38.914 47.0473 39.349 47.4673 39.766C47.8873 40.183 48.3203 40.58 48.7673 40.955L45.4673 44.248C44.9194 43.1818 44.0515 42.3139 42.9853 41.766ZM48.9853 38.26C46.1811 35.4559 44.436 31.7662 44.0474 27.8197C43.6588 23.8731 44.6507 19.9139 46.854 16.6167C49.0574 13.3196 52.3359 10.8884 56.1309 9.73759C59.9259 8.58678 64.0025 8.78749 67.6661 10.3055C71.3297 11.8236 74.3535 14.565 76.2223 18.0627C78.0911 21.5604 78.6893 25.5979 77.9149 29.4872C77.1404 33.3765 75.0414 36.8769 71.9753 39.3919C68.9092 41.907 65.0659 43.2811 61.1003 43.28C56.5566 43.2766 52.1997 41.4713 48.9853 38.26ZM61.1043 40.347C64.3891 40.344 67.5712 39.2022 70.1087 37.1162C72.6461 35.0302 74.3819 32.1291 75.0203 28.9069C75.6587 25.6847 75.1603 22.3409 73.61 19.445C72.0596 16.549 69.5532 14.2802 66.5178 13.0248C63.4823 11.7695 60.1055 11.6054 56.9626 12.5604C53.8197 13.5155 51.1051 15.5306 49.2812 18.2625C47.4573 20.9944 46.637 24.2742 46.9599 27.543C47.2828 30.8119 48.7291 33.8678 51.0523 36.19C52.3708 37.5105 53.9372 38.5575 55.6616 39.2709C57.3859 39.9842 59.2342 40.35 61.1003 40.347H61.1043ZM52.5663 34.68C54.5411 36.6546 57.1395 37.8834 59.9187 38.157C62.6979 38.4306 65.486 37.732 67.808 36.1804C70.1299 34.6288 71.842 32.3201 72.6526 29.6477C73.4632 26.9752 73.3221 24.1044 72.2533 21.5244C71.1845 18.9443 69.2542 16.8146 66.7913 15.4982C64.3283 14.1818 61.4852 13.7601 58.7462 14.305C56.0072 14.8499 53.5418 16.3276 51.7702 18.4863C49.9986 20.6451 49.0303 23.3513 49.0303 26.144C49.0317 29.3454 50.3034 32.4154 52.5663 34.68Z" fill="#C8F4BD"/>
<path fill-rule="evenodd" clip-rule="evenodd" d="M98.2959 46.3469C97.0023 45.0411 96.2505 43.2942 96.1914 41.457C96.1323 39.6198 96.7702 37.8283 97.9772 36.442C99.1842 35.0556 100.871 34.1771 102.699 33.9827C104.527 33.7884 106.36 34.2925 107.832 35.394C109.303 36.4955 110.304 38.1129 110.632 39.9214C110.961 41.7299 110.593 43.5958 109.603 45.1445C108.613 46.6933 107.074 47.8102 105.295 48.2712C103.515 48.7322 101.627 48.5031 100.01 47.6299L87.0659 64.4799C87.8003 65.3845 88.3069 66.4521 88.5429 67.5931C88.779 68.7341 88.7376 69.9151 88.4224 71.0369C88.1071 72.1586 87.5272 73.1882 86.7312 74.0391C85.9353 74.8901 84.9467 75.5375 83.8486 75.927C82.7504 76.3165 81.5748 76.4366 80.4206 76.2772C79.2664 76.1179 78.1673 75.6838 77.2157 75.0114C76.2642 74.3389 75.488 73.4479 74.9524 72.4131C74.4168 71.3783 74.1374 70.2301 74.1379 69.0649C74.1391 68.6221 74.1803 68.1804 74.2609 67.7449L61.0709 62.9579C60.484 63.7478 59.7429 64.4102 58.8924 64.9051C58.0418 65.3999 57.0997 65.7169 56.123 65.8368C55.1464 65.9566 54.1555 65.8769 53.2106 65.6024C52.2657 65.328 51.3863 64.8644 50.6259 64.2399L36.4169 77.1429C37.4091 78.6913 37.7789 80.5577 37.452 82.3675C37.1252 84.1772 36.1259 85.7963 34.6548 86.8998C33.1836 88.0033 31.3495 88.5095 29.5206 88.3168C27.6918 88.1241 26.0035 87.2467 24.7946 85.8608C23.5858 84.4749 22.946 82.683 23.0036 80.8449C23.0611 79.0068 23.8119 77.2585 25.105 75.9509C26.3982 74.6434 28.1381 73.8733 29.9755 73.7955C31.8128 73.7176 33.6117 74.3375 35.0109 75.5309L49.1859 62.6549C48.4956 61.6227 48.0808 60.431 47.9812 59.1933C47.8815 57.9555 48.1002 56.7128 48.6164 55.5834C49.1326 54.454 49.9292 53.4755 50.9305 52.741C51.9317 52.0064 53.1042 51.5403 54.3365 51.3868C55.5687 51.2334 56.8197 51.3978 57.9705 51.8644C59.1213 52.3311 60.1335 53.0844 60.9109 54.0527C61.6884 55.021 62.2051 56.1721 62.412 57.3966C62.6188 58.621 62.509 59.878 62.0929 61.0479L74.9559 65.7179C75.4269 64.806 76.0855 64.0042 76.8886 63.3651C77.6917 62.7259 78.621 62.2641 79.6153 62.0098C80.6097 61.7555 81.6466 61.7146 82.6579 61.8897C83.6692 62.0649 84.6319 62.4521 85.4829 63.0259L98.2959 46.3469Z" fill="#C8F4BD"/>
<path d="M36.8516 46.729H36.8556L29.8192 53.7655C29.8183 53.7663 29.8175 53.7671 29.8167 53.7679C29.4364 54.1364 29.133 54.5767 28.9241 55.0634C28.7148 55.5511 28.6047 56.0756 28.6001 56.6064C28.5956 57.1371 28.6967 57.6634 28.8976 58.1547C29.0984 58.6459 29.3951 59.0923 29.7702 59.4678C30.1453 59.8432 30.5914 60.1403 31.0824 60.3417C31.5735 60.543 32.0997 60.6446 32.6304 60.6406C33.1612 60.6366 33.6858 60.527 34.1737 60.3181C34.6607 60.1098 35.1014 59.8067 35.4703 59.4267C35.471 59.4259 35.4718 59.4251 35.4725 59.4244L43.1921 51.7038C43.9424 50.9536 44.3638 49.936 44.3638 48.875C44.3638 47.814 43.9424 46.7964 43.1921 46.0462C42.4418 45.2959 41.4243 44.8744 40.3633 44.8744C39.3022 44.8744 38.2847 45.2959 37.5344 46.0462L36.8516 46.729ZM42.7022 43.4834L42.3149 43.8713L42.8024 44.1218C43.7944 44.6315 44.6018 45.4389 45.1115 46.4308L45.3619 46.9182L45.7498 46.5311L49.0498 43.2381L49.3592 42.9294L49.0243 42.6486C48.5864 42.2812 48.1616 41.8917 47.7491 41.4821C47.339 41.075 46.9535 40.6495 46.5877 40.2101L46.3071 39.873L45.9972 40.1834L42.7022 43.4834ZM48.7024 40.5429L48.7026 40.543C51.992 43.8291 56.4504 45.6765 61.1 45.68H61.1002C65.1583 45.6811 69.0913 44.275 72.229 41.7012C75.3666 39.1275 77.5147 35.5454 78.3072 31.5653C79.0997 27.5852 78.4876 23.4535 76.5751 19.8742C74.6627 16.2949 71.5683 13.4895 67.8192 11.936C64.0701 10.3825 59.8984 10.1771 56.0148 11.3548C52.1313 12.5325 48.7762 15.0204 46.5215 18.3945C44.2667 21.7686 43.2516 25.8202 43.6493 29.8589C44.047 33.8975 45.8328 37.6733 48.7024 40.5429ZM51.3353 37.9074L51.335 37.9071C49.0773 35.6503 47.6718 32.6805 47.358 29.5037C47.0441 26.3269 47.8413 23.1395 49.6139 20.4846C51.3864 17.8296 54.0245 15.8713 57.0789 14.9431C60.1332 14.015 63.4149 14.1745 66.3649 15.3945C69.3149 16.6144 71.7507 18.8194 73.2573 21.6337C74.764 24.4481 75.2484 27.6977 74.6279 30.8291C74.0075 33.9605 72.3206 36.78 69.8546 38.8072C67.3887 40.8344 64.2962 41.944 61.1039 41.947H61.1003H61.0996C59.2862 41.9499 57.4901 41.5945 55.8145 40.9012C54.1388 40.208 52.6166 39.1906 51.3353 37.9074ZM52.2833 36.9627L52.2834 36.9629C54.3237 39.0029 57.0082 40.2724 59.8795 40.555C62.7508 40.8377 65.6313 40.116 68.0302 38.513C70.4291 36.91 72.198 34.5248 73.0354 31.7638C73.8728 29.0028 73.727 26.0368 72.6228 23.3713C71.5186 20.7057 69.5244 18.5055 66.9798 17.1455C64.4353 15.7855 61.4979 15.3498 58.6681 15.9127C55.8384 16.4756 53.2913 18.0023 51.461 20.2326C49.6307 22.4629 48.6303 25.2588 48.6303 28.144V28.1442C48.6317 31.4515 49.9456 34.6232 52.2833 36.9627Z" fill="#5DB947" stroke="black" stroke-width="0.8"/>
<path d="M73.6379 71.0635V71.0648C73.6374 72.31 73.9359 73.5371 74.5083 74.643C75.0807 75.7488 75.9102 76.7011 76.9272 77.4197C77.9441 78.1383 79.1187 78.6023 80.3522 78.7725C81.5858 78.9428 82.8421 78.8145 84.0157 78.3982C85.1893 77.982 86.2458 77.2901 87.0964 76.3807C87.947 75.4713 88.5668 74.3709 88.9037 73.1721C89.2407 71.9734 89.2848 70.7112 89.0326 69.4918C88.8072 68.4024 88.351 67.3755 87.6966 66.4796L100.154 50.2627C101.794 51.0348 103.657 51.212 105.42 50.7552C107.322 50.2626 108.966 49.0689 110.025 47.4138C111.083 45.7588 111.475 43.7647 111.124 41.832C110.773 39.8993 109.704 38.1709 108.131 36.9938C106.559 35.8166 104.599 35.2778 102.646 35.4855C100.692 35.6933 98.89 36.6321 97.6001 38.1136C96.3102 39.5952 95.6285 41.5098 95.6916 43.4731C95.7501 45.29 96.4424 47.0241 97.6409 48.3787L85.364 64.3599C84.5568 63.8841 83.669 63.5574 82.7432 63.3971C81.6624 63.2099 80.5541 63.2536 79.4914 63.5254C78.4287 63.7971 77.4356 64.2908 76.5773 64.9738C75.8343 65.5651 75.2069 66.2868 74.7252 67.1023L62.7155 62.7421C63.0327 61.6295 63.0984 60.4581 62.905 59.3133C62.6839 58.0047 62.1317 56.7745 61.3008 55.7397C60.47 54.7048 59.3882 53.8998 58.1584 53.4011C56.9286 52.9024 55.5916 52.7267 54.2747 52.8907C52.9578 53.0546 51.7047 53.5528 50.6347 54.3378C49.5647 55.1229 48.7133 56.1686 48.1616 57.3756C47.6099 58.5825 47.3762 59.9106 47.4828 61.2334C47.5777 62.4121 47.9399 63.5517 48.5397 64.5664L34.9911 76.8734C33.5509 75.7798 31.7702 75.2189 29.9543 75.2959C27.9908 75.3791 26.1315 76.202 24.7495 77.5993C23.3676 78.9966 22.5653 80.8649 22.5038 82.8292C22.4423 84.7935 23.1261 86.7084 24.4178 88.1894C25.7096 89.6705 27.5138 90.6081 29.4682 90.814C31.4227 91.02 33.3827 90.4791 34.9548 89.2998C36.5269 88.1206 37.5948 86.3903 37.9441 84.4563C38.2681 82.662 37.9514 80.8156 37.0572 79.2369L50.6514 66.8922C51.3815 67.4264 52.2002 67.8296 53.0711 68.0826C54.0811 68.376 55.1401 68.4612 56.1839 68.3331C57.2278 68.2049 58.2348 67.8661 59.1438 67.3372C59.9446 66.8713 60.6548 66.2663 61.2413 65.5517L73.7031 70.0744C73.6606 70.4023 73.6388 70.7327 73.6379 71.0635Z" fill="white" stroke="black"/>
</svg>
