<svg width="128" height="100" viewBox="0 0 128 100" fill="none" xmlns="http://www.w3.org/2000/svg">
<path d="M14.1541 52.847C14.2528 52.945 14.3866 53 14.5261 53C14.6657 53 14.7995 52.945 14.8982 52.847L17.5032 50.261L20.1081 52.847C20.2074 52.9422 20.3403 52.9949 20.4783 52.9937C20.6163 52.9925 20.7483 52.9375 20.8459 52.8407C20.9434 52.7438 20.9988 52.6128 21 52.4758C21.0012 52.3388 20.9481 52.2069 20.8523 52.1083L17.8752 49.153C17.7766 49.055 17.6427 49 17.5032 49C17.3636 49 17.2298 49.055 17.1311 49.153L14.1541 52.1083C14.0554 52.2063 14 52.3392 14 52.4777C14 52.6162 14.0554 52.7491 14.1541 52.847Z" fill="#5DB947"/>
<path d="M7.15408 34.847C7.25277 34.945 7.3866 35 7.52614 35C7.66569 35 7.79952 34.945 7.89821 34.847L10.5032 32.261L13.1081 34.847C13.2074 34.9422 13.3403 34.9949 13.4783 34.9937C13.6163 34.9925 13.7483 34.9375 13.8459 34.8407C13.9434 34.7438 13.9988 34.6128 14 34.4758C14.0012 34.3388 13.9481 34.2069 13.8523 34.1083L10.8752 31.153C10.7766 31.055 10.6427 31 10.5032 31C10.3636 31 10.2298 31.055 10.1311 31.153L7.15408 34.1083C7.05542 34.2063 7 34.3392 7 34.4777C7 34.6162 7.05542 34.7491 7.15408 34.847Z" fill="#5DB947"/>
<path d="M114.154 36.847C114.253 36.945 114.387 37 114.526 37C114.666 37 114.8 36.945 114.898 36.847L117.503 34.261L120.108 36.847C120.207 36.9422 120.34 36.9949 120.478 36.9937C120.616 36.9925 120.748 36.9375 120.846 36.8407C120.943 36.7438 120.999 36.6128 121 36.4758C121.001 36.3388 120.948 36.2069 120.852 36.1083L117.875 33.153C117.777 33.055 117.643 33 117.503 33C117.364 33 117.23 33.055 117.131 33.153L114.154 36.1083C114.055 36.2063 114 36.3392 114 36.4777C114 36.6162 114.055 36.7491 114.154 36.847Z" fill="#5DB947"/>
<path d="M110.154 82.847C110.253 82.945 110.387 83 110.526 83C110.666 83 110.8 82.945 110.898 82.847L113.503 80.261L116.108 82.847C116.207 82.9422 116.34 82.9949 116.478 82.9937C116.616 82.9925 116.748 82.9375 116.846 82.8407C116.943 82.7438 116.999 82.6128 117 82.4758C117.001 82.3388 116.948 82.2069 116.852 82.1083L113.875 79.153C113.777 79.055 113.643 79 113.503 79C113.364 79 113.23 79.055 113.131 79.153L110.154 82.1083C110.055 82.2063 110 82.3392 110 82.4777C110 82.6162 110.055 82.7491 110.154 82.847Z" fill="#5DB947"/>
<path d="M40.4642 61.2603V40.2602L45.5492 46.1195L46.4274 45.3575L39.8829 37.8154L33.3384 45.3575L34.2166 46.1195L39.3015 40.2602V61.2603H40.4642Z" fill="#C8F4BD"/>
<path d="M60.8062 69.9487L60.0443 69.0713L52.5029 75.6158L60.0443 82.1603L60.8062 81.2821L54.9469 76.1971H75.9478V75.0344H54.9469L60.8062 69.9487Z" fill="#C8F4BD"/>
<path d="M70.0815 16.7418L75.9416 21.8267H54.9399V22.9894H75.9416L70.0815 28.0751L70.8435 28.9533L78.3856 22.408L70.8435 15.8635L70.0815 16.7418Z" fill="#C8F4BD"/>
<path d="M89.8501 38.7031V59.7048L84.7659 53.8439L83.8877 54.6051L90.4314 62.1488L96.9752 54.6051L96.0977 53.8439L91.0128 59.7048V38.7031H89.8501Z" fill="#C8F4BD"/>
<path d="M73.7304 37.5093H66.0185H59.8151H52.104V59.1349H73.7304V37.5093Z" fill="#C8F4BD"/>
<path d="M48.6292 11H25.375V34.2542H48.6292V11Z" fill="#C8F4BD"/>
<path d="M24.9355 87.2203H47.079L36.0076 67.1458L24.9355 87.2203Z" fill="#C8F4BD"/>
<path d="M49.9047 12.886V12.386H49.4047H27.2612H26.7612V12.886V35.0294V35.5294H27.2612H49.4047H49.9047V35.0294V12.886Z" fill="white" stroke="black"/>
<path d="M92.3727 34.2549C98.7942 34.2549 104 29.0493 104 22.6278C104 16.2064 98.7942 11.0007 92.3727 11.0007C85.9512 11.0007 80.7456 16.2064 80.7456 22.6278C80.7456 29.0493 85.9512 34.2549 92.3727 34.2549Z" fill="#C8F4BD"/>
<path d="M91.9813 35.5302C98.3724 35.5302 103.553 30.3492 103.553 23.9581C103.553 17.567 98.3724 12.386 91.9813 12.386C85.5902 12.386 80.4092 17.567 80.4092 23.9581C80.4092 30.3492 85.5902 35.5302 91.9813 35.5302Z" fill="#5DB947" stroke="black"/>
<path d="M26.8234 86.961L26.4144 87.7025H27.2612H49.4047H50.2514L49.8425 86.961L38.7712 66.8865L38.3333 66.0926L37.8955 66.8865L26.8234 86.961Z" fill="#5DB947" stroke="black"/>
<path d="M89.6557 65.92L78.4136 77.1621L89.6573 88.4059L100.899 77.1638L89.6557 65.92Z" fill="#C8F4BD"/>
<path d="M92.3339 65.5665L91.9804 65.2129L91.6268 65.5665L80.3847 76.8086L80.0312 77.1621L80.3847 77.5157L91.6285 88.7594L91.982 89.113L92.3356 88.7594L103.578 77.5173L103.931 77.1638L103.578 76.8102L92.3339 65.5665Z" fill="#EEEEEE" stroke="black"/>
<path d="M68.9285 17.9641L68.6008 18.3418L68.9784 18.6695L73.8271 22.8767H54.1646H53.6646V23.3767V24.5394V25.0394H54.1646H73.8272L68.9784 29.2475L68.6008 29.5752L68.9285 29.9528L69.6904 30.831L70.0181 31.2087L70.3958 30.881L77.9379 24.3357L78.3731 23.9581L77.9379 23.5804L70.3958 17.0359L70.0181 16.7082L69.6904 17.0859L68.9285 17.9641Z" fill="white" stroke="black"/>
<path d="M91.4009 37.4277H90.9009V37.9277V57.59L86.6944 52.7409L86.3669 52.3634L85.9892 52.6907L85.111 53.4519L84.733 53.7795L85.0608 54.1574L91.6045 61.701L91.9822 62.1364L92.3599 61.701L98.9036 54.1574L99.2313 53.7797L98.8536 53.452L97.9761 52.6909L97.5985 52.3632L97.2708 52.7409L93.0636 57.5901V37.9277V37.4277H92.5636H91.4009Z" fill="white" stroke="black"/>
<path d="M61.9094 71.8766L62.2871 71.5488L61.9591 71.1712L61.1972 70.2937L60.8695 69.9163L60.4919 70.244L52.9506 76.7885L52.5155 77.1661L52.9506 77.5437L60.4919 84.0882L60.8696 84.416L61.1973 84.0383L61.9593 83.16L62.2869 82.7824L61.9093 82.4547L57.0613 78.2474H76.7232H77.2232V77.7474V76.5847V76.0847H76.7232H57.0612L61.9094 71.8766Z" fill="white" stroke="black"/>
<path d="M38.9149 62.5355H39.4149V62.0355V42.3744L43.6222 47.2224L43.9499 47.5999L44.3275 47.2723L45.2057 46.5104L45.5834 46.1827L45.2557 45.805L38.7112 38.2629L38.3336 37.8277L37.9559 38.2629L31.4114 45.805L31.0837 46.1827L31.4614 46.5104L32.3396 47.2723L32.7172 47.5999L33.0449 47.2224L37.2522 42.3744V62.0355V62.5355H37.7522H38.9149Z" fill="white" stroke="black"/>
<path d="M76.5561 39.8345V39.3345H76.0561H68.3442H62.1408H54.4297H53.9297V39.8345V61.4601V61.9601H54.4297H76.0561H76.5561V61.4601V39.8345Z" fill="white" stroke="black"/>
</svg>
