<svg width="128" height="100" viewBox="0 0 128 100" fill="none" xmlns="http://www.w3.org/2000/svg">
<path d="M0.154081 32.847C0.252768 32.945 0.3866 33 0.526144 33C0.665688 33 0.79952 32.945 0.898207 32.847L3.50318 30.261L6.10815 32.847C6.2074 32.9422 6.34033 32.9949 6.47832 32.9937C6.6163 32.9925 6.74829 32.9375 6.84586 32.8407C6.94344 32.7438 6.99878 32.6128 6.99998 32.4758C7.00118 32.3388 6.94814 32.2069 6.85227 32.1083L3.87524 29.153C3.77655 29.055 3.64272 29 3.50318 29C3.36363 29 3.2298 29.055 3.13111 29.153L0.154081 32.1083C0.0554229 32.2063 0 32.3392 0 32.4777C0 32.6162 0.0554229 32.7491 0.154081 32.847Z" fill="#5DB947"/>
<path d="M7.15408 53.847C7.25277 53.945 7.3866 54 7.52614 54C7.66569 54 7.79952 53.945 7.89821 53.847L10.5032 51.261L13.1081 53.847C13.2074 53.9422 13.3403 53.9949 13.4783 53.9937C13.6163 53.9925 13.7483 53.9375 13.8459 53.8407C13.9434 53.7438 13.9988 53.6128 14 53.4758C14.0012 53.3388 13.9481 53.2069 13.8523 53.1083L10.8752 50.153C10.7766 50.055 10.6427 50 10.5032 50C10.3636 50 10.2298 50.055 10.1311 50.153L7.15408 53.1083C7.05542 53.2063 7 53.3392 7 53.4777C7 53.6162 7.05542 53.7491 7.15408 53.847Z" fill="#5DB947"/>
<path d="M121.154 53.847C121.253 53.945 121.387 54 121.526 54C121.666 54 121.8 53.945 121.898 53.847L124.503 51.261L127.108 53.847C127.207 53.9422 127.34 53.9949 127.478 53.9937C127.616 53.9925 127.748 53.9375 127.846 53.8407C127.943 53.7438 127.999 53.6128 128 53.4758C128.001 53.3388 127.948 53.2069 127.852 53.1083L124.875 50.153C124.777 50.055 124.643 50 124.503 50C124.364 50 124.23 50.055 124.131 50.153L121.154 53.1083C121.055 53.2063 121 53.3392 121 53.4777C121 53.6162 121.055 53.7491 121.154 53.847Z" fill="#5DB947"/>
<path d="M106.154 95.847C106.253 95.945 106.387 96 106.526 96C106.666 96 106.8 95.945 106.898 95.847L109.503 93.261L112.108 95.847C112.207 95.9422 112.34 95.9949 112.478 95.9937C112.616 95.9925 112.748 95.9375 112.846 95.8407C112.943 95.7438 112.999 95.6128 113 95.4758C113.001 95.3388 112.948 95.2069 112.852 95.1083L109.875 92.153C109.777 92.055 109.643 92 109.503 92C109.364 92 109.23 92.055 109.131 92.153L106.154 95.1083C106.055 95.2063 106 95.3392 106 95.4777C106 95.6162 106.055 95.7491 106.154 95.847Z" fill="#5DB947"/>
<path d="M109 48.4999C109.005 56.0135 107.104 63.4056 103.475 69.985C103.285 70.3292 102.965 70.5836 102.587 70.6923C102.209 70.8009 101.803 70.7549 101.459 70.5643C101.115 70.3738 100.86 70.0543 100.751 69.6761C100.643 69.298 100.689 68.8921 100.879 68.5479C105.695 59.8201 107.21 49.6511 105.148 39.8986C103.086 30.1461 97.5837 21.4609 89.6472 15.4296C81.7107 9.39826 71.8693 6.42335 61.9208 7.04827C51.9722 7.6732 42.5804 11.8562 35.4611 18.8333H40.767C41.1604 18.8333 41.5377 18.9896 41.8158 19.2678C42.094 19.5459 42.2503 19.9232 42.2503 20.3166C42.2503 20.71 42.094 21.0873 41.8158 21.3655C41.5377 21.6437 41.1604 21.8 40.767 21.8H31.867C31.4736 21.8 31.0963 21.6437 30.8181 21.3655C30.5399 21.0873 30.3837 20.71 30.3837 20.3166V11.4167C30.3837 11.0233 30.5399 10.646 30.8181 10.3678C31.0963 10.0896 31.4736 9.93335 31.867 9.93335C32.2604 9.93335 32.6377 10.0896 32.9159 10.3678C33.194 10.646 33.3503 11.0233 33.3503 11.4167V16.7485C39.6033 10.6061 47.5316 6.44813 56.1398 4.79666C64.748 3.14518 73.6523 4.07386 81.7344 7.46607C89.8166 10.8583 96.7163 16.5628 101.567 23.8632C106.418 31.1637 109.004 39.7347 109 48.4999ZM98.6167 76.6831V85.583C98.6167 85.9764 98.4604 86.3537 98.1823 86.6319C97.9041 86.9101 97.5268 87.0663 97.1334 87.0663C96.74 87.0663 96.3627 86.9101 96.0845 86.6319C95.8063 86.3537 95.65 85.9764 95.65 85.583V80.2512C88.025 87.7309 77.9636 92.2179 67.3038 92.8926C56.644 93.5674 46.0971 90.3848 37.5898 83.9263C29.0824 77.4678 23.1824 68.1644 20.9673 57.7155C18.7523 47.2665 20.3701 36.3694 25.5252 27.0146C25.7157 26.6704 26.0352 26.4159 26.4134 26.3073C26.7916 26.1986 27.1974 26.2447 27.5416 26.4352C27.8858 26.6258 28.1403 26.9453 28.2489 27.3234C28.3576 27.7016 28.3116 28.1074 28.121 28.4517C23.3053 37.1795 21.7902 47.3485 23.8524 57.1011C25.9146 66.8536 31.4164 75.5389 39.353 81.5703C47.2895 87.6016 57.1309 90.5765 67.0795 89.9516C77.0282 89.3266 86.4199 85.1435 93.5393 78.1664H88.2334C87.84 78.1664 87.4627 78.0101 87.1845 77.7319C86.9064 77.4538 86.7501 77.0765 86.7501 76.6831C86.7501 76.2897 86.9064 75.9124 87.1845 75.6342C87.4627 75.356 87.84 75.1997 88.2334 75.1997H97.1334C97.5268 75.1997 97.9041 75.356 98.1823 75.6342C98.4604 75.9124 98.6167 76.2897 98.6167 76.6831Z" fill="#C8F4BD"/>
<path d="M64.5004 81.1329C70.9546 81.1329 77.2639 79.219 82.6304 75.6332C87.9969 72.0474 92.1796 66.9508 94.6495 60.9879C97.1194 55.0249 97.7657 48.4635 96.5065 42.1332C95.2474 35.803 92.1394 29.9883 87.5755 25.4245C83.0117 20.8607 77.197 17.7527 70.8668 16.4935C64.5366 15.2343 57.9751 15.8806 52.0122 18.3505C46.0493 20.8205 40.9527 25.0031 37.3669 30.3696C33.7811 35.7361 31.8672 42.0454 31.8672 48.4997C31.8774 57.1514 35.3188 65.4458 41.4365 71.5635C47.5542 77.6812 55.8487 81.1227 64.5004 81.1329ZM89.7169 47.0163H91.2003C91.5937 47.0163 91.971 47.1726 92.2491 47.4508C92.5273 47.729 92.6836 48.1063 92.6836 48.4997C92.6836 48.8931 92.5273 49.2704 92.2491 49.5485C91.971 49.8267 91.5937 49.983 91.2003 49.983H89.7169C89.3235 49.983 88.9462 49.8267 88.6681 49.5485C88.3899 49.2704 88.2336 48.8931 88.2336 48.4997C88.2336 48.1063 88.3899 47.729 88.6681 47.4508C88.9462 47.1726 89.3235 47.0163 89.7169 47.0163ZM81.2768 29.6169L82.33 28.5637C82.4681 28.4245 82.6323 28.3139 82.8132 28.2383C82.9942 28.1627 83.1883 28.1236 83.3844 28.1232C83.5805 28.1228 83.7747 28.1611 83.956 28.236C84.1372 28.3109 84.3019 28.4208 84.4406 28.5594C84.5793 28.6981 84.6892 28.8628 84.764 29.044C84.8389 29.2253 84.8772 29.4195 84.8768 29.6157C84.8764 29.8118 84.8373 30.0058 84.7617 30.1868C84.6861 30.3677 84.5755 30.532 84.4363 30.6701L83.3831 31.7232C83.245 31.8625 83.0808 31.9731 82.8999 32.0487C82.7189 32.1243 82.5248 32.1634 82.3287 32.1638C82.1326 32.1642 81.9384 32.1259 81.7571 32.051C81.5759 31.9761 81.4112 31.8662 81.2725 31.7275C81.1338 31.5889 81.0239 31.4242 80.9491 31.2429C80.8742 31.0617 80.8359 30.8674 80.8363 30.6713C80.8367 30.4752 80.8758 30.2811 80.9514 30.1002C81.027 29.9192 81.1376 29.755 81.2768 29.6169ZM81.2768 65.2761C81.5569 64.9982 81.9354 64.8422 82.33 64.8422C82.7245 64.8422 83.1031 64.9982 83.3831 65.2761L84.4363 66.3293C84.5755 66.4674 84.6861 66.6316 84.7617 66.8125C84.8373 66.9935 84.8764 67.1876 84.8768 67.3837C84.8772 67.5798 84.8389 67.774 84.764 67.9553C84.6892 68.1365 84.5793 68.3012 84.4406 68.4399C84.3019 68.5786 84.1372 68.6885 83.956 68.7633C83.7747 68.8382 83.5805 68.8765 83.3844 68.8761C83.1883 68.8757 82.9942 68.8366 82.8132 68.761C82.6323 68.6854 82.4681 68.5748 82.33 68.4356L81.2768 67.3824C80.9989 67.1024 80.843 66.7238 80.843 66.3293C80.843 65.9347 80.9989 65.5562 81.2768 65.2761ZM63.0171 21.7998C63.0171 21.4064 63.1733 21.0291 63.4515 20.7509C63.7297 20.4727 64.107 20.3165 64.5004 20.3165C64.8938 20.3165 65.2711 20.4727 65.5492 20.7509C65.8274 21.0291 65.9837 21.4064 65.9837 21.7998V23.2831C65.9837 23.6765 65.8274 24.0538 65.5492 24.332C65.2711 24.6102 64.8938 24.7664 64.5004 24.7664C64.107 24.7664 63.7297 24.6102 63.4515 24.332C63.1733 24.0538 63.0171 23.6765 63.0171 23.2831V21.7998ZM63.0171 36.633C63.0171 36.2396 63.1733 35.8624 63.4515 35.5842C63.7297 35.306 64.107 35.1497 64.5004 35.1497C64.8938 35.1497 65.2711 35.306 65.5492 35.5842C65.8274 35.8624 65.9837 36.2396 65.9837 36.633V47.8915L73.9343 55.8421C74.0719 55.9794 74.181 56.1424 74.2554 56.3218C74.3299 56.5012 74.3682 56.6936 74.3682 56.8879C74.3682 57.0822 74.3299 57.2745 74.2554 57.454C74.181 57.6334 74.0719 57.7964 73.9343 57.9336C73.8002 58.074 73.6391 58.1858 73.4607 58.2623C73.2822 58.3388 73.0902 58.3783 72.896 58.3786C72.6997 58.3784 72.5053 58.339 72.3245 58.2625C72.1436 58.1861 71.9798 58.0743 71.8428 57.9336L63.4472 49.5528C63.174 49.27 63.0199 48.8929 63.0171 48.4997V36.633ZM63.0171 73.7162C63.0171 73.3228 63.1733 72.9455 63.4515 72.6674C63.7297 72.3892 64.107 72.2329 64.5004 72.2329C64.8938 72.2329 65.2711 72.3892 65.5492 72.6674C65.8274 72.9455 65.9837 73.3228 65.9837 73.7162V75.1996C65.9837 75.593 65.8274 75.9702 65.5492 76.2484C65.2711 76.5266 64.8938 76.6829 64.5004 76.6829C64.107 76.6829 63.7297 76.5266 63.4515 76.2484C63.1733 75.9702 63.0171 75.593 63.0171 75.1996V73.7162ZM44.5645 28.5637C44.8445 28.2858 45.2231 28.1298 45.6176 28.1298C46.0122 28.1298 46.3907 28.2858 46.6708 28.5637L47.724 29.6169C48.0014 29.8966 48.1567 30.2749 48.1559 30.6688C48.1551 31.0628 47.9982 31.4404 47.7197 31.7189C47.4411 31.9975 47.0635 32.1544 46.6695 32.1552C46.2756 32.156 45.8973 32.0007 45.6176 31.7232L44.5645 30.6701C44.2865 30.39 44.1306 30.0115 44.1306 29.6169C44.1306 29.2224 44.2865 28.8438 44.5645 28.5637ZM44.5645 66.3293L45.6176 65.2761C45.7557 65.1369 45.92 65.0263 46.1009 64.9507C46.2819 64.8751 46.4759 64.836 46.672 64.8356C46.8682 64.8352 47.0624 64.8735 47.2437 64.9483C47.4249 65.0232 47.5896 65.1331 47.7283 65.2718C47.8669 65.4105 47.9768 65.5751 48.0517 65.7564C48.1266 65.9376 48.1649 66.1319 48.1645 66.328C48.1641 66.5241 48.125 66.7182 48.0494 66.8991C47.9738 67.0801 47.8632 67.2443 47.724 67.3824L46.6708 68.4356C46.5327 68.5748 46.3685 68.6854 46.1875 68.761C46.0066 68.8366 45.8125 68.8757 45.6164 68.8761C45.4203 68.8765 45.226 68.8382 45.0448 68.7633C44.8635 68.6885 44.6988 68.5786 44.5602 68.4399C44.4215 68.3012 44.3116 68.1365 44.2367 67.9553C44.1618 67.774 44.1235 67.5798 44.1239 67.3837C44.1243 67.1876 44.1634 66.9935 44.239 66.8125C44.3146 66.6316 44.4252 66.4674 44.5645 66.3293ZM39.2838 49.983H37.8005C37.4071 49.983 37.0298 49.8267 36.7516 49.5485C36.4734 49.2704 36.3172 48.8931 36.3172 48.4997C36.3172 48.1063 36.4734 47.729 36.7516 47.4508C37.0298 47.1726 37.4071 47.0163 37.8005 47.0163H39.2838C39.6772 47.0163 40.0545 47.1726 40.3327 47.4508C40.6109 47.729 40.7671 48.1063 40.7671 48.4997C40.7671 48.8931 40.6109 49.2704 40.3327 49.5485C40.0545 49.8267 39.6772 49.983 39.2838 49.983Z" fill="#C8F4BD"/>
<path d="M109.5 50.6882C109.504 41.8246 106.889 33.1575 101.984 25.775C97.0782 18.3925 90.1009 12.6238 81.9279 9.19351C73.7549 5.76317 64.7506 4.82405 56.0456 6.49409C47.7264 8.09013 40.035 12.0012 33.8503 17.7665V13.6052C33.8503 13.0791 33.6414 12.5747 33.2694 12.2027C32.8975 11.8308 32.393 11.6218 31.867 11.6218C31.341 11.6218 30.8365 11.8308 30.4646 12.2027C30.0926 12.5747 29.8837 13.0791 29.8837 13.6052V22.5051C29.8837 23.0311 30.0926 23.5356 30.4646 23.9075C30.8365 24.2795 31.341 24.4884 31.867 24.4884H40.767C41.293 24.4884 41.7974 24.2795 42.1694 23.9075C42.5413 23.5356 42.7503 23.0311 42.7503 22.5051C42.7503 21.9791 42.5413 21.4746 42.1694 21.1027C41.7974 20.7307 41.293 20.5218 40.767 20.5218H36.7126C43.6281 14.1436 52.5377 10.3271 61.9521 9.73576C71.7809 9.11836 81.5038 12.0575 89.3447 18.0161C97.1856 23.9748 102.621 32.5554 104.659 42.1905C106.696 51.8256 105.199 61.8721 100.442 70.4948C100.187 70.9549 100.126 71.4973 100.271 72.0027C100.416 72.5083 100.756 72.9355 101.217 73.1903C101.677 73.445 102.219 73.5066 102.725 73.3613C103.231 73.216 103.658 72.8758 103.913 72.4156L103.913 72.4149C107.583 65.7616 109.505 58.2864 109.5 50.6882ZM109.5 50.6882C109.5 50.6883 109.5 50.6884 109.5 50.6886L109 50.6883L109.5 50.688C109.5 50.6881 109.5 50.6882 109.5 50.6882ZM33.3503 18.937C33.5158 18.7744 33.6825 18.6132 33.8503 18.4534L33.3503 18.2398V18.937ZM67.3354 95.5801C77.7233 94.9226 87.5493 90.685 95.15 83.609V87.7715C95.15 88.2975 95.359 88.802 95.7309 89.1739C96.1029 89.5459 96.6074 89.7548 97.1334 89.7548C97.6594 89.7548 98.1639 89.5459 98.5358 89.1739C98.9077 88.802 99.1167 88.2975 99.1167 87.7715V78.8715C99.1167 78.3455 98.9077 77.8411 98.5358 77.4691C98.1639 77.0972 97.6594 76.8882 97.1334 76.8882H88.2334C87.7074 76.8882 87.2029 77.0972 86.831 77.4691C86.459 77.8411 86.2501 78.3455 86.2501 78.8715C86.2501 79.3975 86.459 79.902 86.831 80.2739C87.2029 80.6459 87.7074 80.8549 88.2334 80.8549H92.2878C85.3723 87.2331 76.4626 91.0497 67.0482 91.6411C57.2194 92.2585 47.4964 89.3194 39.6555 83.3606C31.8145 77.4019 26.3789 68.8212 24.3416 59.1861C22.3042 49.5511 23.8011 39.5046 28.5586 30.882C28.8133 30.4218 28.8747 29.8793 28.7295 29.3738C28.5842 28.8682 28.244 28.441 27.7838 28.1863L27.5416 28.6237L27.7838 28.1863C27.3235 27.9315 26.7809 27.8699 26.2753 28.0152C25.7697 28.1605 25.3425 28.5007 25.0877 28.9609L25.0873 28.9618C19.8742 38.4217 18.2383 49.4412 20.4782 60.0076C22.7182 70.574 28.6845 79.982 37.2875 86.5131C45.8904 93.0441 56.5558 96.2624 67.3354 95.5801Z" fill="white" stroke="black"/>
<mask id="path-8-outside-1_162_531" maskUnits="userSpaceOnUse" x="30.8672" y="17.0552" width="68" height="68" fill="black">
<rect fill="white" x="30.8672" y="17.0552" width="68" height="68"/>
<path d="M64.5004 83.3216C70.9546 83.3216 77.2639 81.4077 82.6304 77.8219C87.9969 74.2361 92.1796 69.1395 94.6495 63.1766C97.1194 57.2136 97.7657 50.6522 96.5065 44.322C95.2474 37.9917 92.1394 32.1771 87.5755 27.6132C83.0117 23.0494 77.197 19.9414 70.8668 18.6822C64.5366 17.4231 57.9751 18.0693 52.0122 20.5392C46.0493 23.0092 40.9527 27.1919 37.3669 32.5584C33.7811 37.9249 31.8672 44.2341 31.8672 50.6884C31.8774 59.3401 35.3188 67.6346 41.4365 73.7523C47.5542 79.87 55.8487 83.3114 64.5004 83.3216ZM89.7169 49.2051H91.2003C91.5937 49.2051 91.971 49.3613 92.2491 49.6395C92.5273 49.9177 92.6836 50.295 92.6836 50.6884C92.6836 51.0818 92.5273 51.4591 92.2491 51.7373C91.971 52.0154 91.5937 52.1717 91.2003 52.1717H89.7169C89.3235 52.1717 88.9462 52.0154 88.6681 51.7373C88.3899 51.4591 88.2336 51.0818 88.2336 50.6884C88.2336 50.295 88.3899 49.9177 88.6681 49.6395C88.9462 49.3613 89.3235 49.2051 89.7169 49.2051ZM81.2768 31.8056L82.33 30.7525C82.4681 30.6132 82.6323 30.5026 82.8132 30.427C82.9942 30.3514 83.1883 30.3123 83.3844 30.3119C83.5805 30.3115 83.7747 30.3499 83.956 30.4247C84.1372 30.4996 84.3019 30.6095 84.4406 30.7482C84.5793 30.8868 84.6892 31.0515 84.764 31.2328C84.8389 31.414 84.8772 31.6083 84.8768 31.8044C84.8764 32.0005 84.8373 32.1946 84.7617 32.3755C84.6861 32.5565 84.5755 32.7207 84.4363 32.8588L83.3831 33.912C83.245 34.0512 83.0808 34.1618 82.8999 34.2374C82.7189 34.313 82.5248 34.3521 82.3287 34.3525C82.1326 34.3529 81.9384 34.3146 81.7571 34.2397C81.5759 34.1649 81.4112 34.0549 81.2725 33.9163C81.1338 33.7776 81.0239 33.6129 80.9491 33.4317C80.8742 33.2504 80.8359 33.0562 80.8363 32.8601C80.8367 32.6639 80.8758 32.4699 80.9514 32.2889C81.027 32.108 81.1376 31.9437 81.2768 31.8056ZM81.2768 67.4648C81.5569 67.1869 81.9354 67.031 82.33 67.031C82.7245 67.031 83.1031 67.1869 83.3831 67.4648L84.4363 68.518C84.5755 68.6561 84.6861 68.8203 84.7617 69.0013C84.8373 69.1822 84.8764 69.3763 84.8768 69.5724C84.8772 69.7685 84.8389 69.9628 84.764 70.144C84.6892 70.3253 84.5793 70.4899 84.4406 70.6286C84.3019 70.7673 84.1372 70.8772 83.956 70.9521C83.7747 71.0269 83.5805 71.0652 83.3844 71.0648C83.1883 71.0644 82.9942 71.0253 82.8132 70.9497C82.6323 70.8741 82.4681 70.7635 82.33 70.6243L81.2768 69.5711C80.9989 69.2911 80.843 68.9125 80.843 68.518C80.843 68.1234 80.9989 67.7449 81.2768 67.4648ZM63.0171 23.9885C63.0171 23.5951 63.1733 23.2178 63.4515 22.9396C63.7297 22.6615 64.107 22.5052 64.5004 22.5052C64.8938 22.5052 65.2711 22.6615 65.5492 22.9396C65.8274 23.2178 65.9837 23.5951 65.9837 23.9885V25.4718C65.9837 25.8652 65.8274 26.2425 65.5492 26.5207C65.2711 26.7989 64.8938 26.9552 64.5004 26.9552C64.107 26.9552 63.7297 26.7989 63.4515 26.5207C63.1733 26.2425 63.0171 25.8652 63.0171 25.4718V23.9885ZM63.0171 38.8218C63.0171 38.4284 63.1733 38.0511 63.4515 37.7729C63.7297 37.4947 64.107 37.3384 64.5004 37.3384C64.8938 37.3384 65.2711 37.4947 65.5492 37.7729C65.8274 38.0511 65.9837 38.4284 65.9837 38.8218V50.0802L73.9343 58.0309C74.0719 58.1681 74.181 58.3311 74.2554 58.5105C74.3299 58.69 74.3682 58.8823 74.3682 59.0766C74.3682 59.2709 74.3299 59.4632 74.2554 59.6427C74.181 59.8221 74.0719 59.9851 73.9343 60.1223C73.8002 60.2627 73.6391 60.3745 73.4607 60.451C73.2822 60.5275 73.0902 60.5671 72.896 60.5673C72.6997 60.5672 72.5053 60.5277 72.3245 60.4513C72.1436 60.3748 71.9798 60.263 71.8428 60.1223L63.4472 51.7415C63.174 51.4587 63.0199 51.0816 63.0171 50.6884V38.8218ZM63.0171 75.9049C63.0171 75.5115 63.1733 75.1343 63.4515 74.8561C63.7297 74.5779 64.107 74.4216 64.5004 74.4216C64.8938 74.4216 65.2711 74.5779 65.5492 74.8561C65.8274 75.1343 65.9837 75.5115 65.9837 75.9049V77.3883C65.9837 77.7817 65.8274 78.159 65.5492 78.4371C65.2711 78.7153 64.8938 78.8716 64.5004 78.8716C64.107 78.8716 63.7297 78.7153 63.4515 78.4371C63.1733 78.159 63.0171 77.7817 63.0171 77.3883V75.9049ZM44.5645 30.7525C44.8445 30.4745 45.2231 30.3186 45.6176 30.3186C46.0122 30.3186 46.3907 30.4745 46.6708 30.7525L47.724 31.8056C48.0014 32.0853 48.1567 32.4636 48.1559 32.8575C48.1551 33.2515 47.9982 33.6291 47.7197 33.9077C47.4411 34.1862 47.0635 34.3431 46.6695 34.3439C46.2756 34.3447 45.8973 34.1894 45.6176 33.912L44.5645 32.8588C44.2865 32.5787 44.1306 32.2002 44.1306 31.8056C44.1306 31.4111 44.2865 31.0325 44.5645 30.7525ZM44.5645 68.518L45.6176 67.4648C45.7557 67.3256 45.92 67.215 46.1009 67.1394C46.2819 67.0638 46.4759 67.0247 46.672 67.0243C46.8682 67.0239 47.0624 67.0622 47.2437 67.1371C47.4249 67.2119 47.5896 67.3218 47.7283 67.4605C47.8669 67.5992 47.9768 67.7639 48.0517 67.9451C48.1266 68.1264 48.1649 68.3206 48.1645 68.5167C48.1641 68.7128 48.125 68.9069 48.0494 69.0879C47.9738 69.2688 47.8632 69.433 47.724 69.5711L46.6708 70.6243C46.5327 70.7635 46.3685 70.8741 46.1875 70.9497C46.0066 71.0253 45.8125 71.0644 45.6164 71.0648C45.4203 71.0652 45.226 71.0269 45.0448 70.9521C44.8635 70.8772 44.6988 70.7673 44.5602 70.6286C44.4215 70.4899 44.3116 70.3253 44.2367 70.144C44.1618 69.9628 44.1235 69.7685 44.1239 69.5724C44.1243 69.3763 44.1634 69.1822 44.239 69.0013C44.3146 68.8203 44.4252 68.6561 44.5645 68.518ZM39.2838 52.1717H37.8005C37.4071 52.1717 37.0298 52.0154 36.7516 51.7373C36.4734 51.4591 36.3172 51.0818 36.3172 50.6884C36.3172 50.295 36.4734 49.9177 36.7516 49.6395C37.0298 49.3613 37.4071 49.2051 37.8005 49.2051H39.2838C39.6772 49.2051 40.0545 49.3613 40.3327 49.6395C40.6109 49.9177 40.7671 50.295 40.7671 50.6884C40.7671 51.0818 40.6109 51.4591 40.3327 51.7373C40.0545 52.0154 39.6772 52.1717 39.2838 52.1717Z"/>
</mask>
<path d="M64.5004 83.3216C70.9546 83.3216 77.2639 81.4077 82.6304 77.8219C87.9969 74.2361 92.1796 69.1395 94.6495 63.1766C97.1194 57.2136 97.7657 50.6522 96.5065 44.322C95.2474 37.9917 92.1394 32.1771 87.5755 27.6132C83.0117 23.0494 77.197 19.9414 70.8668 18.6822C64.5366 17.4231 57.9751 18.0693 52.0122 20.5392C46.0493 23.0092 40.9527 27.1919 37.3669 32.5584C33.7811 37.9249 31.8672 44.2341 31.8672 50.6884C31.8774 59.3401 35.3188 67.6346 41.4365 73.7523C47.5542 79.87 55.8487 83.3114 64.5004 83.3216ZM89.7169 49.2051H91.2003C91.5937 49.2051 91.971 49.3613 92.2491 49.6395C92.5273 49.9177 92.6836 50.295 92.6836 50.6884C92.6836 51.0818 92.5273 51.4591 92.2491 51.7373C91.971 52.0154 91.5937 52.1717 91.2003 52.1717H89.7169C89.3235 52.1717 88.9462 52.0154 88.6681 51.7373C88.3899 51.4591 88.2336 51.0818 88.2336 50.6884C88.2336 50.295 88.3899 49.9177 88.6681 49.6395C88.9462 49.3613 89.3235 49.2051 89.7169 49.2051ZM81.2768 31.8056L82.33 30.7525C82.4681 30.6132 82.6323 30.5026 82.8132 30.427C82.9942 30.3514 83.1883 30.3123 83.3844 30.3119C83.5805 30.3115 83.7747 30.3499 83.956 30.4247C84.1372 30.4996 84.3019 30.6095 84.4406 30.7482C84.5793 30.8868 84.6892 31.0515 84.764 31.2328C84.8389 31.414 84.8772 31.6083 84.8768 31.8044C84.8764 32.0005 84.8373 32.1946 84.7617 32.3755C84.6861 32.5565 84.5755 32.7207 84.4363 32.8588L83.3831 33.912C83.245 34.0512 83.0808 34.1618 82.8999 34.2374C82.7189 34.313 82.5248 34.3521 82.3287 34.3525C82.1326 34.3529 81.9384 34.3146 81.7571 34.2397C81.5759 34.1649 81.4112 34.0549 81.2725 33.9163C81.1338 33.7776 81.0239 33.6129 80.9491 33.4317C80.8742 33.2504 80.8359 33.0562 80.8363 32.8601C80.8367 32.6639 80.8758 32.4699 80.9514 32.2889C81.027 32.108 81.1376 31.9437 81.2768 31.8056ZM81.2768 67.4648C81.5569 67.1869 81.9354 67.031 82.33 67.031C82.7245 67.031 83.1031 67.1869 83.3831 67.4648L84.4363 68.518C84.5755 68.6561 84.6861 68.8203 84.7617 69.0013C84.8373 69.1822 84.8764 69.3763 84.8768 69.5724C84.8772 69.7685 84.8389 69.9628 84.764 70.144C84.6892 70.3253 84.5793 70.4899 84.4406 70.6286C84.3019 70.7673 84.1372 70.8772 83.956 70.9521C83.7747 71.0269 83.5805 71.0652 83.3844 71.0648C83.1883 71.0644 82.9942 71.0253 82.8132 70.9497C82.6323 70.8741 82.4681 70.7635 82.33 70.6243L81.2768 69.5711C80.9989 69.2911 80.843 68.9125 80.843 68.518C80.843 68.1234 80.9989 67.7449 81.2768 67.4648ZM63.0171 23.9885C63.0171 23.5951 63.1733 23.2178 63.4515 22.9396C63.7297 22.6615 64.107 22.5052 64.5004 22.5052C64.8938 22.5052 65.2711 22.6615 65.5492 22.9396C65.8274 23.2178 65.9837 23.5951 65.9837 23.9885V25.4718C65.9837 25.8652 65.8274 26.2425 65.5492 26.5207C65.2711 26.7989 64.8938 26.9552 64.5004 26.9552C64.107 26.9552 63.7297 26.7989 63.4515 26.5207C63.1733 26.2425 63.0171 25.8652 63.0171 25.4718V23.9885ZM63.0171 38.8218C63.0171 38.4284 63.1733 38.0511 63.4515 37.7729C63.7297 37.4947 64.107 37.3384 64.5004 37.3384C64.8938 37.3384 65.2711 37.4947 65.5492 37.7729C65.8274 38.0511 65.9837 38.4284 65.9837 38.8218V50.0802L73.9343 58.0309C74.0719 58.1681 74.181 58.3311 74.2554 58.5105C74.3299 58.69 74.3682 58.8823 74.3682 59.0766C74.3682 59.2709 74.3299 59.4632 74.2554 59.6427C74.181 59.8221 74.0719 59.9851 73.9343 60.1223C73.8002 60.2627 73.6391 60.3745 73.4607 60.451C73.2822 60.5275 73.0902 60.5671 72.896 60.5673C72.6997 60.5672 72.5053 60.5277 72.3245 60.4513C72.1436 60.3748 71.9798 60.263 71.8428 60.1223L63.4472 51.7415C63.174 51.4587 63.0199 51.0816 63.0171 50.6884V38.8218ZM63.0171 75.9049C63.0171 75.5115 63.1733 75.1343 63.4515 74.8561C63.7297 74.5779 64.107 74.4216 64.5004 74.4216C64.8938 74.4216 65.2711 74.5779 65.5492 74.8561C65.8274 75.1343 65.9837 75.5115 65.9837 75.9049V77.3883C65.9837 77.7817 65.8274 78.159 65.5492 78.4371C65.2711 78.7153 64.8938 78.8716 64.5004 78.8716C64.107 78.8716 63.7297 78.7153 63.4515 78.4371C63.1733 78.159 63.0171 77.7817 63.0171 77.3883V75.9049ZM44.5645 30.7525C44.8445 30.4745 45.2231 30.3186 45.6176 30.3186C46.0122 30.3186 46.3907 30.4745 46.6708 30.7525L47.724 31.8056C48.0014 32.0853 48.1567 32.4636 48.1559 32.8575C48.1551 33.2515 47.9982 33.6291 47.7197 33.9077C47.4411 34.1862 47.0635 34.3431 46.6695 34.3439C46.2756 34.3447 45.8973 34.1894 45.6176 33.912L44.5645 32.8588C44.2865 32.5787 44.1306 32.2002 44.1306 31.8056C44.1306 31.4111 44.2865 31.0325 44.5645 30.7525ZM44.5645 68.518L45.6176 67.4648C45.7557 67.3256 45.92 67.215 46.1009 67.1394C46.2819 67.0638 46.4759 67.0247 46.672 67.0243C46.8682 67.0239 47.0624 67.0622 47.2437 67.1371C47.4249 67.2119 47.5896 67.3218 47.7283 67.4605C47.8669 67.5992 47.9768 67.7639 48.0517 67.9451C48.1266 68.1264 48.1649 68.3206 48.1645 68.5167C48.1641 68.7128 48.125 68.9069 48.0494 69.0879C47.9738 69.2688 47.8632 69.433 47.724 69.5711L46.6708 70.6243C46.5327 70.7635 46.3685 70.8741 46.1875 70.9497C46.0066 71.0253 45.8125 71.0644 45.6164 71.0648C45.4203 71.0652 45.226 71.0269 45.0448 70.9521C44.8635 70.8772 44.6988 70.7673 44.5602 70.6286C44.4215 70.4899 44.3116 70.3253 44.2367 70.144C44.1618 69.9628 44.1235 69.7685 44.1239 69.5724C44.1243 69.3763 44.1634 69.1822 44.239 69.0013C44.3146 68.8203 44.4252 68.6561 44.5645 68.518ZM39.2838 52.1717H37.8005C37.4071 52.1717 37.0298 52.0154 36.7516 51.7373C36.4734 51.4591 36.3172 51.0818 36.3172 50.6884C36.3172 50.295 36.4734 49.9177 36.7516 49.6395C37.0298 49.3613 37.4071 49.2051 37.8005 49.2051H39.2838C39.6772 49.2051 40.0545 49.3613 40.3327 49.6395C40.6109 49.9177 40.7671 50.295 40.7671 50.6884C40.7671 51.0818 40.6109 51.4591 40.3327 51.7373C40.0545 52.0154 39.6772 52.1717 39.2838 52.1717Z" fill="#5DB947"/>
<path d="M64.5004 83.3216C70.9546 83.3216 77.2639 81.4077 82.6304 77.8219C87.9969 74.2361 92.1796 69.1395 94.6495 63.1766C97.1194 57.2136 97.7657 50.6522 96.5065 44.322C95.2474 37.9917 92.1394 32.1771 87.5755 27.6132C83.0117 23.0494 77.197 19.9414 70.8668 18.6822C64.5366 17.4231 57.9751 18.0693 52.0122 20.5392C46.0493 23.0092 40.9527 27.1919 37.3669 32.5584C33.7811 37.9249 31.8672 44.2341 31.8672 50.6884C31.8774 59.3401 35.3188 67.6346 41.4365 73.7523C47.5542 79.87 55.8487 83.3114 64.5004 83.3216ZM89.7169 49.2051H91.2003C91.5937 49.2051 91.971 49.3613 92.2491 49.6395C92.5273 49.9177 92.6836 50.295 92.6836 50.6884C92.6836 51.0818 92.5273 51.4591 92.2491 51.7373C91.971 52.0154 91.5937 52.1717 91.2003 52.1717H89.7169C89.3235 52.1717 88.9462 52.0154 88.6681 51.7373C88.3899 51.4591 88.2336 51.0818 88.2336 50.6884C88.2336 50.295 88.3899 49.9177 88.6681 49.6395C88.9462 49.3613 89.3235 49.2051 89.7169 49.2051ZM81.2768 31.8056L82.33 30.7525C82.4681 30.6132 82.6323 30.5026 82.8132 30.427C82.9942 30.3514 83.1883 30.3123 83.3844 30.3119C83.5805 30.3115 83.7747 30.3499 83.956 30.4247C84.1372 30.4996 84.3019 30.6095 84.4406 30.7482C84.5793 30.8868 84.6892 31.0515 84.764 31.2328C84.8389 31.414 84.8772 31.6083 84.8768 31.8044C84.8764 32.0005 84.8373 32.1946 84.7617 32.3755C84.6861 32.5565 84.5755 32.7207 84.4363 32.8588L83.3831 33.912C83.245 34.0512 83.0808 34.1618 82.8999 34.2374C82.7189 34.313 82.5248 34.3521 82.3287 34.3525C82.1326 34.3529 81.9384 34.3146 81.7571 34.2397C81.5759 34.1649 81.4112 34.0549 81.2725 33.9163C81.1338 33.7776 81.0239 33.6129 80.9491 33.4317C80.8742 33.2504 80.8359 33.0562 80.8363 32.8601C80.8367 32.6639 80.8758 32.4699 80.9514 32.2889C81.027 32.108 81.1376 31.9437 81.2768 31.8056ZM81.2768 67.4648C81.5569 67.1869 81.9354 67.031 82.33 67.031C82.7245 67.031 83.1031 67.1869 83.3831 67.4648L84.4363 68.518C84.5755 68.6561 84.6861 68.8203 84.7617 69.0013C84.8373 69.1822 84.8764 69.3763 84.8768 69.5724C84.8772 69.7685 84.8389 69.9628 84.764 70.144C84.6892 70.3253 84.5793 70.4899 84.4406 70.6286C84.3019 70.7673 84.1372 70.8772 83.956 70.9521C83.7747 71.0269 83.5805 71.0652 83.3844 71.0648C83.1883 71.0644 82.9942 71.0253 82.8132 70.9497C82.6323 70.8741 82.4681 70.7635 82.33 70.6243L81.2768 69.5711C80.9989 69.2911 80.843 68.9125 80.843 68.518C80.843 68.1234 80.9989 67.7449 81.2768 67.4648ZM63.0171 23.9885C63.0171 23.5951 63.1733 23.2178 63.4515 22.9396C63.7297 22.6615 64.107 22.5052 64.5004 22.5052C64.8938 22.5052 65.2711 22.6615 65.5492 22.9396C65.8274 23.2178 65.9837 23.5951 65.9837 23.9885V25.4718C65.9837 25.8652 65.8274 26.2425 65.5492 26.5207C65.2711 26.7989 64.8938 26.9552 64.5004 26.9552C64.107 26.9552 63.7297 26.7989 63.4515 26.5207C63.1733 26.2425 63.0171 25.8652 63.0171 25.4718V23.9885ZM63.0171 38.8218C63.0171 38.4284 63.1733 38.0511 63.4515 37.7729C63.7297 37.4947 64.107 37.3384 64.5004 37.3384C64.8938 37.3384 65.2711 37.4947 65.5492 37.7729C65.8274 38.0511 65.9837 38.4284 65.9837 38.8218V50.0802L73.9343 58.0309C74.0719 58.1681 74.181 58.3311 74.2554 58.5105C74.3299 58.69 74.3682 58.8823 74.3682 59.0766C74.3682 59.2709 74.3299 59.4632 74.2554 59.6427C74.181 59.8221 74.0719 59.9851 73.9343 60.1223C73.8002 60.2627 73.6391 60.3745 73.4607 60.451C73.2822 60.5275 73.0902 60.5671 72.896 60.5673C72.6997 60.5672 72.5053 60.5277 72.3245 60.4513C72.1436 60.3748 71.9798 60.263 71.8428 60.1223L63.4472 51.7415C63.174 51.4587 63.0199 51.0816 63.0171 50.6884V38.8218ZM63.0171 75.9049C63.0171 75.5115 63.1733 75.1343 63.4515 74.8561C63.7297 74.5779 64.107 74.4216 64.5004 74.4216C64.8938 74.4216 65.2711 74.5779 65.5492 74.8561C65.8274 75.1343 65.9837 75.5115 65.9837 75.9049V77.3883C65.9837 77.7817 65.8274 78.159 65.5492 78.4371C65.2711 78.7153 64.8938 78.8716 64.5004 78.8716C64.107 78.8716 63.7297 78.7153 63.4515 78.4371C63.1733 78.159 63.0171 77.7817 63.0171 77.3883V75.9049ZM44.5645 30.7525C44.8445 30.4745 45.2231 30.3186 45.6176 30.3186C46.0122 30.3186 46.3907 30.4745 46.6708 30.7525L47.724 31.8056C48.0014 32.0853 48.1567 32.4636 48.1559 32.8575C48.1551 33.2515 47.9982 33.6291 47.7197 33.9077C47.4411 34.1862 47.0635 34.3431 46.6695 34.3439C46.2756 34.3447 45.8973 34.1894 45.6176 33.912L44.5645 32.8588C44.2865 32.5787 44.1306 32.2002 44.1306 31.8056C44.1306 31.4111 44.2865 31.0325 44.5645 30.7525ZM44.5645 68.518L45.6176 67.4648C45.7557 67.3256 45.92 67.215 46.1009 67.1394C46.2819 67.0638 46.4759 67.0247 46.672 67.0243C46.8682 67.0239 47.0624 67.0622 47.2437 67.1371C47.4249 67.2119 47.5896 67.3218 47.7283 67.4605C47.8669 67.5992 47.9768 67.7639 48.0517 67.9451C48.1266 68.1264 48.1649 68.3206 48.1645 68.5167C48.1641 68.7128 48.125 68.9069 48.0494 69.0879C47.9738 69.2688 47.8632 69.433 47.724 69.5711L46.6708 70.6243C46.5327 70.7635 46.3685 70.8741 46.1875 70.9497C46.0066 71.0253 45.8125 71.0644 45.6164 71.0648C45.4203 71.0652 45.226 71.0269 45.0448 70.9521C44.8635 70.8772 44.6988 70.7673 44.5602 70.6286C44.4215 70.4899 44.3116 70.3253 44.2367 70.144C44.1618 69.9628 44.1235 69.7685 44.1239 69.5724C44.1243 69.3763 44.1634 69.1822 44.239 69.0013C44.3146 68.8203 44.4252 68.6561 44.5645 68.518ZM39.2838 52.1717H37.8005C37.4071 52.1717 37.0298 52.0154 36.7516 51.7373C36.4734 51.4591 36.3172 51.0818 36.3172 50.6884C36.3172 50.295 36.4734 49.9177 36.7516 49.6395C37.0298 49.3613 37.4071 49.2051 37.8005 49.2051H39.2838C39.6772 49.2051 40.0545 49.3613 40.3327 49.6395C40.6109 49.9177 40.7671 50.295 40.7671 50.6884C40.7671 51.0818 40.6109 51.4591 40.3327 51.7373C40.0545 52.0154 39.6772 52.1717 39.2838 52.1717Z" stroke="black" stroke-width="2" mask="url(#path-8-outside-1_162_531)"/>
</svg>
