<svg width="466" height="108" viewBox="0 0 466 108" fill="none" xmlns="http://www.w3.org/2000/svg">
<path d="M33.9886 85H6.80859C5.81859 85 5.00859 84.19 5.00859 83.2V28.03C5.00859 24.7 7.70859 22 11.1286 22H30.2986C43.9786 22 50.7286 30.82 50.7286 39.64C50.7286 44.23 48.9286 48.82 45.2386 52.24C51.3586 55.48 54.4186 61.33 54.4186 67.27C54.4186 76.18 47.6686 85 33.9886 85ZM17.1586 58.45V73.48H33.5386C39.4786 73.48 42.3586 69.7 42.3586 65.92C42.3586 62.23 39.4786 58.45 33.5386 58.45H17.1586ZM17.1586 33.52V48.55H29.8486C35.7886 48.55 38.6686 44.77 38.6686 40.99C38.6686 37.3 35.7886 33.52 29.8486 33.52H17.1586ZM84.1102 86.35C70.1602 86.35 60.2602 76.36 60.2602 62.14C60.2602 48.1 70.1602 38.11 84.1102 38.11C98.1502 38.11 108.14 48.1 108.14 62.14C108.14 76.36 98.1502 86.35 84.1102 86.35ZM84.1102 75.91C91.5802 75.91 96.8002 70.33 96.8002 62.14C96.8002 54.13 91.5802 48.55 84.1102 48.55C76.8202 48.55 71.6002 54.13 71.6002 62.14C71.6002 70.33 76.8202 75.91 84.1102 75.91ZM139.218 86.35C125.268 86.35 115.368 76.36 115.368 62.14C115.368 48.1 125.268 38.11 139.218 38.11C153.258 38.11 163.248 48.1 163.248 62.14C163.248 76.36 153.258 86.35 139.218 86.35ZM139.218 75.91C146.688 75.91 151.908 70.33 151.908 62.14C151.908 54.13 146.688 48.55 139.218 48.55C131.928 48.55 126.708 54.13 126.708 62.14C126.708 70.33 131.928 75.91 139.218 75.91ZM185.955 38.11C190.905 38.11 201.885 39.64 201.885 46.48C201.885 49.09 199.905 51.43 197.025 51.43C195.855 51.43 194.505 50.98 193.155 50.26C190.815 49.09 188.565 48.55 185.955 48.55C183.345 48.55 181.725 49.9 181.725 51.97C181.725 58.54 203.955 55.3 203.955 71.68C203.955 80.77 197.115 86.44 186.405 86.44C181.455 86.44 169.125 85.18 169.125 78.07C169.125 75.46 171.195 73.12 174.255 73.12C175.425 73.12 176.865 73.57 178.305 74.29C180.915 75.64 183.435 76 186.405 76C190.455 76 192.525 73.93 192.525 71.95C192.525 64.75 170.295 67.99 170.295 52.24C170.295 43.6 176.235 38.11 185.955 38.11ZM231.632 48.64H228.122V83.29C228.122 84.19 227.312 85 226.412 85H218.222C217.322 85 216.512 84.19 216.512 83.29V48.64H213.002C210.212 48.64 207.962 46.39 207.962 43.6C207.962 40.81 210.212 38.56 213.002 38.56H216.512V31.54C216.512 28.39 219.122 25.78 222.362 25.78C225.512 25.78 228.122 28.39 228.122 31.54V38.56H231.632C234.422 38.56 236.672 40.81 236.672 43.6C236.672 46.39 234.422 48.64 231.632 48.64ZM280.559 66.19H252.929C254.459 71.95 259.049 75.73 264.989 75.73C268.409 75.73 271.199 75.19 273.899 73.57C275.339 72.76 276.779 72.4 277.949 72.4C281.009 72.4 283.079 74.74 283.079 77.35C283.079 84.46 270.029 86.17 264.989 86.17C251.039 86.17 241.139 76.18 241.139 62.14C241.139 48.1 250.679 38.11 264.089 38.11C276.959 38.11 286.139 47.38 286.139 60.43C286.139 65.02 282.899 66.19 280.559 66.19ZM264.089 48.55C258.599 48.55 254.369 52.24 252.929 58H274.619C273.719 52.33 269.579 48.55 264.089 48.55ZM316.937 75.91C324.227 75.91 329.447 70.33 329.447 62.14C329.447 54.13 324.227 48.55 316.937 48.55C309.467 48.55 304.247 54.13 304.247 62.14C304.247 70.33 309.467 75.91 316.937 75.91ZM340.787 25.96V62.14C340.787 76.36 330.887 86.35 316.937 86.35C302.897 86.35 292.907 76.36 292.907 62.14C292.907 48.1 301.907 38.11 314.597 38.11C320.447 38.11 325.487 40.18 329.177 43.87V25.96C329.177 22.81 331.787 20.2 334.937 20.2C338.177 20.2 340.787 22.81 340.787 25.96Z" fill="white"/>
<path d="M317 25L334.308 5L353 25H317Z" fill="white"/>
<circle cx="417.5" cy="48.5" r="48.5" fill="white"/>
<path d="M398.059 57.348C396.648 57.348 395.246 57.1643 393.854 56.797C392.462 56.4103 391.283 55.869 390.316 55.173L392.143 51.577C392.917 52.1377 393.816 52.5823 394.84 52.911C395.865 53.2397 396.899 53.404 397.943 53.404C399.123 53.404 400.051 53.172 400.727 52.708C401.404 52.244 401.742 51.606 401.742 50.794C401.742 50.0207 401.443 49.4117 400.843 48.967C400.244 48.5223 399.277 48.3 397.943 48.3H395.797V45.197L401.452 38.788L401.974 40.47H391.331V36.7H405.541V39.745L399.915 46.154L397.537 44.791H398.9C401.394 44.791 403.279 45.3517 404.555 46.473C405.831 47.5943 406.469 49.0347 406.469 50.794C406.469 51.9347 406.17 53.0077 405.57 54.013C404.971 54.999 404.053 55.8013 402.815 56.42C401.578 57.0387 399.993 57.348 398.059 57.348ZM417.715 57.348C415.859 57.348 414.245 56.9613 412.872 56.188C411.519 55.4147 410.475 54.2837 409.74 52.795C409.006 51.3063 408.638 49.4697 408.638 47.285C408.638 44.9457 409.073 42.964 409.943 41.34C410.833 39.716 412.051 38.4787 413.597 37.628C415.163 36.7773 416.961 36.352 418.991 36.352C420.074 36.352 421.108 36.468 422.094 36.7C423.08 36.932 423.931 37.28 424.646 37.744L422.906 41.195C422.346 40.8083 421.746 40.5473 421.108 40.412C420.47 40.2573 419.803 40.18 419.107 40.18C417.348 40.18 415.956 40.7117 414.931 41.775C413.907 42.8383 413.394 44.414 413.394 46.502C413.394 46.85 413.394 47.2367 413.394 47.662C413.414 48.0873 413.472 48.5127 413.568 48.938L412.263 47.72C412.631 46.966 413.104 46.3377 413.684 45.835C414.264 45.313 414.951 44.9263 415.743 44.675C416.555 44.4043 417.445 44.269 418.411 44.269C419.726 44.269 420.905 44.53 421.949 45.052C422.993 45.574 423.825 46.3087 424.443 47.256C425.081 48.2033 425.4 49.315 425.4 50.591C425.4 51.9637 425.052 53.1623 424.356 54.187C423.68 55.1923 422.761 55.9753 421.601 56.536C420.461 57.0773 419.165 57.348 417.715 57.348ZM417.454 53.839C418.112 53.839 418.692 53.723 419.194 53.491C419.716 53.2397 420.122 52.882 420.412 52.418C420.702 51.954 420.847 51.4223 420.847 50.823C420.847 49.895 420.528 49.1603 419.89 48.619C419.272 48.0583 418.44 47.778 417.396 47.778C416.7 47.778 416.091 47.9133 415.569 48.184C415.047 48.4353 414.632 48.793 414.322 49.257C414.032 49.7017 413.887 50.2237 413.887 50.823C413.887 51.403 414.032 51.925 414.322 52.389C414.612 52.8337 415.018 53.1913 415.54 53.462C416.062 53.7133 416.7 53.839 417.454 53.839ZM435.803 57.348C434.141 57.348 432.652 56.942 431.337 56.13C430.023 55.2987 428.988 54.1 428.234 52.534C427.48 50.968 427.103 49.0733 427.103 46.85C427.103 44.6267 427.48 42.732 428.234 41.166C428.988 39.6 430.023 38.411 431.337 37.599C432.652 36.7677 434.141 36.352 435.803 36.352C437.485 36.352 438.974 36.7677 440.269 37.599C441.584 38.411 442.618 39.6 443.372 41.166C444.126 42.732 444.503 44.6267 444.503 46.85C444.503 49.0733 444.126 50.968 443.372 52.534C442.618 54.1 441.584 55.2987 440.269 56.13C438.974 56.942 437.485 57.348 435.803 57.348ZM435.803 53.375C436.596 53.375 437.282 53.1527 437.862 52.708C438.462 52.2633 438.926 51.5577 439.254 50.591C439.602 49.6243 439.776 48.3773 439.776 46.85C439.776 45.3227 439.602 44.0757 439.254 43.109C438.926 42.1423 438.462 41.4367 437.862 40.992C437.282 40.5473 436.596 40.325 435.803 40.325C435.03 40.325 434.344 40.5473 433.744 40.992C433.164 41.4367 432.7 42.1423 432.352 43.109C432.024 44.0757 431.859 45.3227 431.859 46.85C431.859 48.3773 432.024 49.6243 432.352 50.591C432.7 51.5577 433.164 52.2633 433.744 52.708C434.344 53.1527 435.03 53.375 435.803 53.375Z" fill="#5DB947"/>
</svg>
