<svg width="194" height="143" viewBox="0 0 194 143" fill="none" xmlns="http://www.w3.org/2000/svg">
<g clip-path="url(#clip0_358_2)">
<path d="M27.0018 75.05C25.8968 75.045 25.0058 74.146 25.0098 73.042C25.0118 72.517 25.2208 72.013 25.5918 71.64L31.7218 65.51L37.8518 71.64C38.6328 72.421 38.6328 73.689 37.8518 74.47C37.0708 75.251 35.8028 75.251 35.0218 74.47L31.7218 71.17L28.4218 74.47C28.0448 74.844 27.5338 75.053 27.0018 75.05Z" fill="#5DB947"/>
<path d="M148.382 33.04C147.852 33.038 147.345 32.826 146.972 32.45L143.672 29.15L140.372 32.45C139.591 33.231 138.323 33.231 137.542 32.45C136.761 31.669 136.761 30.401 137.542 29.62L143.672 23.49L149.802 29.62C150.581 30.403 150.577 31.67 149.794 32.448C149.421 32.818 148.918 33.027 148.392 33.03L148.382 33.04Z" fill="#5DB947"/>
<path d="M112.092 9.54C111.562 9.538 111.055 9.326 110.682 8.95L107.382 5.65L104.082 8.95C103.243 9.668 101.98 9.571 101.262 8.732C100.621 7.983 100.621 6.879 101.262 6.13L107.392 0L113.522 6.13C114.301 6.913 114.297 8.18 113.514 8.958C113.141 9.328 112.638 9.537 112.112 9.54H112.092Z" fill="#5DB947"/>
<path d="M1.99201 109.56C0.887013 109.555 -0.00398658 108.656 1.34154e-05 107.552C0.00201342 107.027 0.211013 106.523 0.582013 106.15L6.71201 100.02L12.842 106.15C13.623 106.931 13.623 108.199 12.842 108.98C12.061 109.761 10.793 109.761 10.012 108.98L6.71201 105.68L3.41201 108.98C3.03501 109.354 2.52401 109.563 1.99201 109.56Z" fill="#5DB947"/>
<path d="M154.102 108.41L112.102 35.74C109.091 30.484 104.111 26.644 98.2616 25.07C96.2586 24.538 94.1936 24.279 92.1216 24.3H91.8116L91.2616 24.36C83.4086 24.643 76.2436 28.916 72.2616 35.69L30.1216 108.19C27.7826 112.215 26.7346 116.861 27.1216 121.5C27.2256 122.878 27.4536 124.243 27.8016 125.58C29.3406 131.463 33.1676 136.486 38.4316 139.53L38.8416 139.75C39.1616 139.93 39.4716 140.1 39.8416 140.26L40.0416 140.35C43.1326 141.854 46.5246 142.637 49.9616 142.64C51.9536 142.64 53.9366 142.381 55.8616 141.87C56.0716 141.81 56.2716 141.73 56.4816 141.67C56.6916 141.61 57.1816 141.46 57.4816 141.34L58.4016 141C58.7216 140.87 59.0316 140.74 59.3416 140.6C59.8286 140.38 60.3046 140.147 60.7716 139.9L61.4716 139.51C61.7816 139.33 62.0916 139.15 62.3916 138.95C62.6916 138.75 62.9216 138.59 63.1916 138.4C63.4616 138.21 64.0016 137.81 64.3916 137.49C64.7816 137.17 64.9116 137.06 65.1616 136.84L65.8116 136.25C66.2316 135.84 66.6516 135.43 67.0416 134.99L67.3616 134.61C67.6946 134.217 68.0286 133.81 68.3616 133.39L68.7116 132.91C69.0916 132.37 69.4616 131.81 69.8016 131.22L92.2116 92.68L114.422 131.36C117.446 136.635 122.455 140.481 128.332 142.04C130.288 142.566 132.306 142.832 134.332 142.83C146.99 142.808 157.234 132.529 157.213 119.871C157.206 115.861 156.147 111.923 154.142 108.45L154.102 108.41Z" fill="#DDFFD4"/>
<path d="M141.732 134.99C131.736 140.772 118.945 137.356 113.162 127.36L89.1621 85.7601L71.2021 54.6701C65.4301 44.6551 68.8691 31.8571 78.8841 26.0851C81.8561 24.3721 85.2041 23.4161 88.6321 23.3001H89.2621C96.7411 23.2951 103.653 27.2831 107.392 33.7601L149.392 106.43C155.163 116.432 151.733 129.218 141.732 134.99Z" fill="white"/>
<path d="M89.1423 85.7301L65.0023 127.26C59.0583 137.161 46.2143 140.37 36.3123 134.426C26.6133 128.604 23.3033 116.124 28.8423 106.26L71.0023 33.7001C74.6643 27.3971 81.3443 23.457 88.6323 23.3C77.0793 23.689 68.0293 33.3691 68.4173 44.9221C68.5323 48.3511 69.4893 51.698 71.2023 54.67L89.1423 85.7301Z" fill="#5DB947"/>
<path d="M46.911 137.666C58.4593 137.666 67.821 128.304 67.821 116.756C67.821 105.208 58.4593 95.8459 46.911 95.8459C35.3627 95.8459 26.001 105.208 26.001 116.756C26.001 128.304 35.3627 137.666 46.911 137.666Z" fill="#8EEF77"/>
<path d="M151.102 105.41L109.102 32.74C106.091 27.484 101.111 23.644 95.2616 22.07C93.2586 21.538 91.1936 21.279 89.1216 21.3H88.8116L88.2616 21.36C80.4086 21.643 73.2436 25.916 69.2616 32.69L27.1216 105.19C24.7826 109.215 23.7346 113.861 24.1216 118.5C24.2256 119.878 24.4536 121.243 24.8016 122.58C26.3406 128.463 30.1676 133.486 35.4316 136.53L35.8416 136.75C36.1616 136.93 36.4716 137.1 36.8416 137.26L37.0416 137.35C40.1326 138.854 43.5246 139.637 46.9616 139.64C48.9536 139.64 50.9366 139.381 52.8616 138.87C53.0716 138.81 53.2716 138.73 53.4816 138.67C53.6916 138.61 54.1816 138.46 54.4816 138.34L55.4016 138C55.7216 137.87 56.0316 137.74 56.3416 137.6C56.8286 137.38 57.3046 137.147 57.7716 136.9L58.4716 136.51C58.7816 136.33 59.0916 136.15 59.3916 135.95C59.6916 135.75 59.9216 135.59 60.1916 135.4C60.4616 135.21 61.0016 134.81 61.3916 134.49C61.7816 134.17 61.9116 134.06 62.1616 133.84L62.8116 133.25C63.2316 132.84 63.6516 132.43 64.0416 131.99L64.3616 131.61C64.6946 131.217 65.0286 130.81 65.3616 130.39L65.7116 129.91C66.0916 129.37 66.4616 128.81 66.8016 128.22L89.2116 89.68L111.422 128.36C114.446 133.635 119.455 137.481 125.332 139.04C127.288 139.566 129.306 139.832 131.332 139.83C143.99 139.808 154.234 129.529 154.213 116.871C154.206 112.861 153.147 108.923 151.142 105.45L151.102 105.41ZM46.9416 97.83C57.3856 97.844 65.8406 106.321 65.8266 116.765C65.8226 120.098 64.9376 123.37 63.2616 126.25L63.1816 126.37C62.8816 126.88 62.5616 127.37 62.1816 127.85L61.9816 128.11C61.6616 128.53 61.3416 128.95 60.9816 129.34L60.9316 129.39C55.8936 134.946 48.0576 137.019 40.9316 134.68H40.8816C40.3816 134.51 39.8816 134.31 39.4116 134.1L39.1016 133.98C38.5616 133.73 38.0316 133.46 37.5016 133.16L37.3916 133.11C36.3506 132.504 35.3696 131.801 34.4616 131.01L34.3616 130.93C33.9716 130.59 33.6116 130.22 33.2516 129.85L33.0316 129.64C32.7416 129.33 32.4716 128.99 32.2016 128.64C32.0816 128.5 31.9516 128.36 31.8416 128.22C31.5416 127.82 31.2616 127.4 30.9916 126.98L30.8016 126.7C29.2986 124.276 28.3746 121.539 28.1016 118.7C27.6686 114.714 28.5236 110.694 30.5416 107.23C33.9396 101.395 40.1896 97.812 46.9416 97.83ZM69.7516 115.08C68.8386 102.471 57.8776 92.99 45.2686 93.903C42.4176 94.109 39.6306 94.848 37.0516 96.08L66.4416 45.51C66.6316 49.082 67.6596 52.559 69.4416 55.66L86.8016 85.72L69.7516 115.08ZM149.532 121.76C146.849 131.853 136.492 137.86 126.399 135.177C121.541 133.886 117.397 130.713 114.882 126.36L72.8816 53.69C67.6616 44.638 70.7686 33.068 79.8206 27.849C82.6386 26.224 85.8286 25.353 89.0816 25.32H89.2616C90.9266 25.32 92.5836 25.538 94.1916 25.97C99.0406 27.256 103.175 30.428 105.672 34.78L147.672 107.45C150.172 111.782 150.841 116.933 149.532 121.76Z" fill="black"/>
<path d="M69.3416 86.2C68.2366 86.195 67.3456 85.296 67.3496 84.192C67.3516 83.667 67.5606 83.163 67.9316 82.79L89.8416 60.88L105.842 76.88L132.422 50.3L147.562 65.44L183.732 29.27C184.513 28.489 185.781 28.489 186.562 29.27C187.343 30.051 187.343 31.319 186.562 32.1L147.562 71.1L132.412 55.95L105.832 82.53L89.8316 66.53L70.7516 85.62C70.3766 85.992 69.8696 86.2 69.3416 86.2Z" fill="black"/>
<path d="M89.8319 70.3701C93.5101 70.3701 96.4919 67.3883 96.4919 63.71C96.4919 60.0318 93.5101 57.05 89.8319 57.05C86.1537 57.05 83.1719 60.0318 83.1719 63.71C83.1719 67.3883 86.1537 70.3701 89.8319 70.3701Z" fill="white"/>
<path d="M105.432 86.0099C109.111 86.0099 112.092 83.0282 112.092 79.3499C112.092 75.6717 109.111 72.6899 105.432 72.6899C101.754 72.6899 98.7725 75.6717 98.7725 79.3499C98.7725 83.0282 101.754 86.0099 105.432 86.0099Z" fill="#5DB947"/>
<path d="M132.292 59.3801C135.97 59.3801 138.952 56.3983 138.952 52.7201C138.952 49.0418 135.97 46.0601 132.292 46.0601C128.614 46.0601 125.632 49.0418 125.632 52.7201C125.632 56.3983 128.614 59.3801 132.292 59.3801Z" fill="white"/>
<path d="M147.762 75.19C151.44 75.19 154.422 72.2082 154.422 68.53C154.422 64.8518 151.44 61.87 147.762 61.87C144.083 61.87 141.102 64.8518 141.102 68.53C141.102 72.2082 144.083 75.19 147.762 75.19Z" fill="#5DB947"/>
<path d="M184.862 37.62C188.54 37.62 191.522 34.6383 191.522 30.96C191.522 27.2818 188.54 24.3 184.862 24.3C181.184 24.3 178.202 27.2818 178.202 30.96C178.202 34.6383 181.184 37.62 184.862 37.62Z" fill="white"/>
<path d="M89.8319 72.36C85.0489 72.36 81.1719 68.483 81.1719 63.7C81.1719 58.917 85.0489 55.04 89.8319 55.04C94.6149 55.04 98.4919 58.917 98.4919 63.7C98.4859 68.481 94.6129 72.354 89.8319 72.36ZM89.8319 59.04C87.2579 59.04 85.1719 61.126 85.1719 63.7C85.1719 66.274 87.2579 68.36 89.8319 68.36C92.4059 68.36 94.4919 66.274 94.4919 63.7C94.4809 61.133 92.3989 59.055 89.8319 59.05V59.04Z" fill="black"/>
<path d="M105.432 88.0099C100.649 88.0099 96.7725 84.1329 96.7725 79.3499C96.7725 74.5669 100.649 70.6899 105.432 70.6899C110.215 70.6899 114.092 74.5669 114.092 79.3499V79.3599C114.081 84.1369 110.209 88.0049 105.432 88.0099ZM105.432 74.6899C102.858 74.6899 100.772 76.7759 100.772 79.3499C100.772 81.9239 102.858 84.0099 105.432 84.0099C108.002 84.0099 110.086 81.9299 110.092 79.3599C110.092 76.7849 108.007 74.6959 105.432 74.6899Z" fill="black"/>
<path d="M132.262 61.36C127.479 61.36 123.602 57.483 123.602 52.7C123.602 47.917 127.479 44.04 132.262 44.04C137.045 44.04 140.922 47.917 140.922 52.7C140.916 57.481 137.042 61.354 132.262 61.36ZM132.262 48.04C129.688 48.04 127.602 50.126 127.602 52.7C127.602 55.274 129.688 57.36 132.262 57.36C134.836 57.36 136.922 55.274 136.922 52.7C136.906 50.136 134.826 48.065 132.262 48.06V48.04Z" fill="black"/>
<path d="M147.762 77.19C142.979 77.19 139.102 73.313 139.102 68.53C139.102 63.747 142.979 59.87 147.762 59.87C152.545 59.87 156.422 63.747 156.422 68.53C156.416 73.311 152.542 77.184 147.762 77.19ZM147.762 63.87C145.188 63.87 143.102 65.956 143.102 68.53C143.102 71.104 145.188 73.19 147.762 73.19C150.336 73.19 152.422 71.104 152.422 68.53C152.416 65.959 150.333 63.876 147.762 63.87Z" fill="black"/>
<path d="M184.862 39.62C180.079 39.62 176.202 35.743 176.202 30.96C176.202 26.177 180.079 22.3 184.862 22.3C189.645 22.3 193.522 26.177 193.522 30.96C193.516 35.741 189.642 39.614 184.862 39.62ZM184.862 26.3C182.288 26.3 180.202 28.386 180.202 30.96C180.202 33.534 182.288 35.62 184.862 35.62C187.436 35.62 189.522 33.534 189.522 30.96C189.517 28.389 187.433 26.305 184.862 26.3Z" fill="black"/>
</g>
<defs>
<clipPath id="clip0_358_2">
<rect width="193.522" height="142.83" fill="white"/>
</clipPath>
</defs>
</svg>
