<svg width="128" height="100" viewBox="0 0 128 100" fill="none" xmlns="http://www.w3.org/2000/svg">
<path d="M31.1541 21.847C31.2528 21.945 31.3866 22 31.5261 22C31.6657 22 31.7995 21.945 31.8982 21.847L34.5032 19.261L37.1081 21.847C37.2074 21.9422 37.3403 21.9949 37.4783 21.9937C37.6163 21.9925 37.7483 21.9375 37.8459 21.8407C37.9434 21.7438 37.9988 21.6128 38 21.4758C38.0012 21.3388 37.9481 21.2069 37.8523 21.1083L34.8752 18.153C34.7766 18.055 34.6427 18 34.5032 18C34.3636 18 34.2298 18.055 34.1311 18.153L31.1541 21.1083C31.0554 21.2063 31 21.3392 31 21.4777C31 21.6162 31.0554 21.7491 31.1541 21.847Z" fill="#5DB947"/>
<path d="M11.1541 36.847C11.2528 36.945 11.3866 37 11.5261 37C11.6657 37 11.7995 36.945 11.8982 36.847L14.5032 34.261L17.1081 36.847C17.2074 36.9422 17.3403 36.9949 17.4783 36.9937C17.6163 36.9925 17.7483 36.9375 17.8459 36.8407C17.9434 36.7438 17.9988 36.6128 18 36.4758C18.0012 36.3388 17.9481 36.2069 17.8523 36.1083L14.8752 33.153C14.7766 33.055 14.6427 33 14.5032 33C14.3636 33 14.2298 33.055 14.1311 33.153L11.1541 36.1083C11.0554 36.2063 11 36.3392 11 36.4777C11 36.6162 11.0554 36.7491 11.1541 36.847Z" fill="#5DB947"/>
<path d="M113.154 51.847C113.253 51.945 113.387 52 113.526 52C113.666 52 113.8 51.945 113.898 51.847L116.503 49.261L119.108 51.847C119.207 51.9422 119.34 51.9949 119.478 51.9937C119.616 51.9925 119.748 51.9375 119.846 51.8407C119.943 51.7438 119.999 51.6128 120 51.4758C120.001 51.3388 119.948 51.2069 119.852 51.1083L116.875 48.153C116.777 48.055 116.643 48 116.503 48C116.364 48 116.23 48.055 116.131 48.153L113.154 51.1083C113.055 51.2063 113 51.3392 113 51.4777C113 51.6162 113.055 51.7491 113.154 51.847Z" fill="#5DB947"/>
<path fill-rule="evenodd" clip-rule="evenodd" d="M63.5977 84.6915H63.1797C63.082 84.6915 63 84.6134 63 84.5119V38.3639C63 38.3131 63.0195 38.2701 63.0547 38.2349C68.793 32.8638 74.2657 27.1449 79.4607 21.0629C79.5115 21.0044 79.5857 20.9848 79.656 21.0122C79.7263 21.0395 79.7732 21.102 79.7732 21.1801V45.0981C79.7732 45.1958 79.6951 45.2778 79.5935 45.2778L67.2775 45.2739C67.1798 45.2739 67.0978 45.352 67.0978 45.4536V56.6566C67.0978 59.0433 68.0158 61.1722 69.754 62.8089L72.4415 65.3401C72.7345 65.6135 72.8517 65.8909 72.8517 66.2932V71.633C72.8517 72.094 72.6837 72.426 72.3087 72.6955L70.6173 73.9103C68.3595 75.5314 67.0939 77.9923 67.0939 80.7736V84.5197C67.0939 84.6174 67.0158 84.6994 66.9142 84.6994L63.5977 84.6915Z" fill="#C8F4BD"/>
<path d="M63.713 39.8699L63.707 39.8756L63.7011 39.8814C63.58 40.0026 63.5 40.1699 63.5 40.3639V86.5119C63.5 86.8967 63.813 87.1915 64.1797 87.1915H64.5965H64.5977L67.913 87.1994H67.9142C68.299 87.1994 68.5939 86.8864 68.5939 86.5197V82.7736C68.5939 80.1537 69.7817 77.8438 71.9089 76.3165L71.909 76.3164L73.6004 75.1016L73.6005 75.1015C73.8397 74.9296 74.0345 74.7215 74.1663 74.4632C74.2979 74.205 74.3517 73.9257 74.3517 73.633V68.2932C74.3517 68.0425 74.3149 67.8022 74.216 67.5714C74.117 67.3403 73.9681 67.1478 73.7834 66.9753C73.7832 66.975 73.7829 66.9748 73.7827 66.9746L71.0968 64.4449L71.0968 64.4449C69.459 62.9028 68.5978 60.9057 68.5978 58.6566V47.774L80.5933 47.7778H80.5935C80.9783 47.7778 81.2732 47.4648 81.2732 47.0981V23.1801C81.2732 22.8809 81.0855 22.6427 80.8372 22.5462C80.5608 22.4386 80.2654 22.5249 80.0828 22.7355L80.0805 22.7382C74.8976 28.806 69.4378 34.5115 63.713 39.8699Z" fill="#5DB947" stroke="black"/>
<path fill-rule="evenodd" clip-rule="evenodd" d="M23.0581 56.5775C41.8431 44.1945 58.4021 29.4215 72.6171 11.9215C72.6678 11.859 72.746 11.8395 72.8202 11.8668C72.8944 11.8942 72.9374 11.9645 72.9335 12.0426L72.7733 14.6051C72.7264 15.3395 73.285 15.9723 74.0194 16.0153C74.7538 16.0622 75.3866 15.5036 75.4296 14.7692L75.8905 7.4137C75.9452 6.55823 75.1718 5.8629 74.3163 6.0231L67.0741 7.3903C66.3515 7.52702 65.8749 8.22233 66.0116 8.9411C66.1484 9.66376 66.8437 10.1403 67.5624 10.0036L70.8397 9.38641C70.914 9.37079 70.9882 9.40595 71.0272 9.46845C71.0663 9.53485 71.0624 9.61298 71.0116 9.67158C56.9216 27.1406 40.2886 42.0506 21.5976 54.3556C20.9843 54.7579 20.8164 55.5822 21.2187 56.1954C21.625 56.8126 22.4449 56.9799 23.0581 56.5775ZM57.0421 83.967H41.9521C41.8544 83.967 41.7724 83.8889 41.7724 83.7873L41.7763 52.8033C41.7763 52.7447 41.7997 52.6939 41.8466 52.6627C47.0497 48.7721 52.0766 44.6471 56.9206 40.2837C56.9753 40.2368 57.0456 40.2251 57.112 40.2525C57.1784 40.2798 57.2175 40.3423 57.2175 40.4165V83.7915C57.2175 83.8853 57.1397 83.967 57.0421 83.967Z" fill="#C8F4BD"/>
<path fill-rule="evenodd" clip-rule="evenodd" d="M22.0042 65.9723C22.0042 65.9098 22.0354 65.8512 22.0901 65.8199C27.7659 62.4293 33.1761 58.8707 38.5001 55.0349C38.5548 54.9958 38.6251 54.988 38.6837 55.0193C38.7462 55.0505 38.7814 55.1091 38.7814 55.1794V83.9454C38.7814 84.0431 38.7033 84.1251 38.6017 84.1251L22.1797 84.1212C22.082 84.1212 22 84.0431 22 83.9415L22.0042 65.9723Z" fill="#C8F4BD"/>
<path d="M38.2095 57.628L38.2079 57.6292C32.8963 61.4561 27.4989 65.0063 21.8365 68.389C21.6174 68.5169 21.5042 68.7468 21.5042 68.9721C21.5042 68.9722 21.5042 68.9722 21.5042 68.9723L21.5 86.9414V86.9415C21.5 87.3262 21.8129 87.6212 22.1796 87.6212C22.1796 87.6212 22.1796 87.6212 22.1797 87.6212L38.6016 87.6251H38.6017C38.9865 87.6251 39.2814 87.3121 39.2814 86.9454V58.1794C39.2814 57.928 39.1469 57.6946 38.9131 57.575C38.6702 57.4485 38.3997 57.4922 38.2095 57.628Z" fill="#5DB947" stroke="black"/>
<path d="M73.9335 14.0426L73.9254 14.172M73.9335 14.0426C73.9374 13.9645 73.8944 13.8942 73.8202 13.8668C73.746 13.8395 73.6678 13.859 73.6171 13.9215C73.591 13.9537 73.5648 13.9858 73.5387 14.0179L73.7522 14.0313L73.7522 14.0313L73.7594 14.0317L73.9335 14.0426ZM73.9335 14.0426L73.7586 14.0339L73.7552 14.0337L73.7551 14.0337L73.5349 14.0227C73.5062 14.0578 73.4776 14.093 73.449 14.1282L73.9254 14.172M73.9254 14.172L73.7579 14.0359L73.9254 14.172M24.3324 58.9956L24.3333 58.995C42.8806 46.7686 59.2654 32.2154 73.3719 15.0127L73.2743 16.5733C73.2743 16.5734 73.2743 16.5736 73.2743 16.5738C73.2743 16.5738 73.2743 16.5739 73.2743 16.5739C73.2102 17.5835 73.978 18.4545 74.9889 18.5144C75.9984 18.5781 76.8692 17.8101 76.9287 16.799C76.9287 16.7988 76.9287 16.7986 76.9287 16.7984L77.3895 9.4456C77.4649 8.26651 76.4021 7.31109 75.2243 7.53165L75.2236 7.53178L67.9814 8.89898L67.9812 8.89902C66.9896 9.08662 66.3316 10.0417 66.5205 11.0345C66.7083 12.0258 67.6631 12.6835 68.6557 12.4948C68.6558 12.4948 68.6558 12.4948 68.6559 12.4948L71.0695 12.0403C57.1319 29.1733 40.7286 43.8205 22.3234 55.9375C21.4774 56.4925 21.248 57.6274 21.8007 58.4697L21.8011 58.4703C22.3591 59.3181 23.4887 59.5491 24.3324 58.9956Z" fill="white" stroke="black"/>
<path fill-rule="evenodd" clip-rule="evenodd" d="M72.1834 51.0001C72.0857 51.0001 72.0037 51.0782 72.0037 51.1798V59.715C72.0037 61.3673 72.617 62.7931 73.824 63.9259L76.5115 66.4571C77.3396 67.2344 77.7615 68.2149 77.7615 69.3516V74.6914C77.7615 76.0117 77.1795 77.1484 76.1053 77.9219L74.4139 79.1367C72.8514 80.2578 72.0037 81.9101 72.0037 83.832V87.6093C72.0037 87.707 72.0818 87.789 72.1834 87.789H93.5384C93.636 87.789 93.7181 87.7109 93.7181 87.6093V83.832C93.7181 81.9101 92.8704 80.2578 91.3079 79.1367L89.6165 77.9219C88.5423 77.1524 87.9603 76.0157 87.9603 74.6914V69.4961C87.9603 68.2734 88.3001 67.3125 89.2103 66.457L91.8978 63.9258C93.1009 62.793 93.7181 61.3711 93.7181 59.7149L93.7142 51.1797C93.7142 51.082 93.636 51 93.5345 51H89.4525C89.3548 51 89.2728 51.0781 89.2728 51.1797V56.7852C89.2728 56.8828 89.1947 56.9649 89.0931 56.9649H85.2493C85.1516 56.9649 85.0696 56.8868 85.0696 56.7852L85.0774 51.1797C85.0774 51.082 84.9993 51 84.8977 51H80.8157C80.7181 51 80.636 51.0781 80.636 51.1797V56.7852C80.636 56.8828 80.5579 56.9649 80.4563 56.9649H76.6125C76.5149 56.9649 76.4329 56.8868 76.4329 56.7852L76.4407 51.1797C76.4407 51.082 76.3625 51 76.261 51L72.1834 51.0001ZM93.7144 90.4061V93.6834C93.7144 93.781 93.6363 93.8631 93.5347 93.8631H72.1797C72.082 93.8631 72 93.785 72 93.6834V90.4061C72 90.3084 72.0781 90.2264 72.1797 90.2264H93.5347C93.6363 90.2264 93.7144 90.3084 93.7144 90.4061Z" fill="#C8F4BD"/>
<path d="M78.1687 66.8211L78.1693 66.8216C78.8961 67.5039 79.2615 68.3521 79.2615 69.3516V74.6914C79.2615 75.8507 78.7569 76.8365 77.8131 77.5161L76.1224 78.7304C74.429 79.9455 73.5037 81.749 73.5037 83.832V87.6093C73.5037 87.976 73.7986 88.289 74.1834 88.289H95.5384C95.905 88.289 96.2181 87.9941 96.2181 87.6093V83.832C96.2181 81.749 95.2928 79.9455 93.5994 78.7304L91.9082 77.5158L91.9077 77.5154C90.9651 76.8402 90.4603 75.8552 90.4603 74.6914V69.4961C90.4603 68.3889 90.7583 67.568 91.5527 66.8213L91.5531 66.821L94.2405 64.2898C95.5436 63.0629 96.2181 61.5094 96.2181 59.7149V59.7147L96.2142 51.1797C96.2142 51.1796 96.2142 51.1795 96.2142 51.1795C96.214 50.8128 95.9191 50.5 95.5345 50.5H91.4525C91.0858 50.5 90.7728 50.7949 90.7728 51.1797V56.4649H87.5701L87.5774 51.1804V51.1797C87.5774 50.813 87.2825 50.5 86.8977 50.5H82.8157C82.4491 50.5 82.136 50.7949 82.136 51.1797V56.4649H78.9333L78.9407 51.1804V51.1797C78.9407 50.813 78.6458 50.5 78.261 50.5H78.261L74.1834 50.5001C74.1834 50.5001 74.1834 50.5001 74.1834 50.5001C73.8167 50.5001 73.5037 50.795 73.5037 51.1798V59.715C73.5037 61.5045 74.1734 63.0624 75.4814 64.2901C75.4816 64.2902 75.4817 64.2904 75.4818 64.2905L78.1687 66.8211ZM96.2144 93.6834V90.4061C96.2144 90.0394 95.9194 89.7264 95.5347 89.7264H74.1797C73.7949 89.7264 73.5 90.0394 73.5 90.4061V93.6834C73.5 94.0681 73.813 94.3631 74.1797 94.3631H95.5347C95.9195 94.3631 96.2144 94.05 96.2144 93.6834Z" fill="white" stroke="black"/>
<path d="M104.154 65.847C104.253 65.945 104.387 66 104.526 66C104.666 66 104.8 65.945 104.898 65.847L107.503 63.261L110.108 65.847C110.207 65.9422 110.34 65.9949 110.478 65.9937C110.616 65.9925 110.748 65.9375 110.846 65.8407C110.943 65.7438 110.999 65.6128 111 65.4758C111.001 65.3388 110.948 65.2069 110.852 65.1083L107.875 62.153C107.777 62.055 107.643 62 107.503 62C107.364 62 107.23 62.055 107.131 62.153L104.154 65.1083C104.055 65.2063 104 65.3392 104 65.4777C104 65.6162 104.055 65.7491 104.154 65.847Z" fill="#5DB947"/>
</svg>
