<svg width="128" height="100" viewBox="0 0 128 100" fill="none" xmlns="http://www.w3.org/2000/svg">
<path d="M6.15408 36.847C6.25277 36.945 6.3866 37 6.52614 37C6.66569 37 6.79952 36.945 6.89821 36.847L9.50318 34.261L12.1081 36.847C12.2074 36.9422 12.3403 36.9949 12.4783 36.9937C12.6163 36.9925 12.7483 36.9375 12.8459 36.8407C12.9434 36.7438 12.9988 36.6128 13 36.4758C13.0012 36.3388 12.9481 36.2069 12.8523 36.1083L9.87524 33.153C9.77655 33.055 9.64272 33 9.50318 33C9.36363 33 9.2298 33.055 9.13111 33.153L6.15408 36.1083C6.05542 36.2063 6 36.3392 6 36.4777C6 36.6162 6.05542 36.7491 6.15408 36.847Z" fill="#5DB947"/>
<path d="M14.1541 55.847C14.2528 55.945 14.3866 56 14.5261 56C14.6657 56 14.7995 55.945 14.8982 55.847L17.5032 53.261L20.1081 55.847C20.2074 55.9422 20.3403 55.9949 20.4783 55.9937C20.6163 55.9925 20.7483 55.9375 20.8459 55.8407C20.9434 55.7438 20.9988 55.6128 21 55.4758C21.0012 55.3388 20.9481 55.2069 20.8523 55.1083L17.8752 52.153C17.7766 52.055 17.6427 52 17.5032 52C17.3636 52 17.2298 52.055 17.1311 52.153L14.1541 55.1083C14.0554 55.2063 14 55.3392 14 55.4777C14 55.6162 14.0554 55.7491 14.1541 55.847Z" fill="#5DB947"/>
<path d="M116.154 55.847C116.253 55.945 116.387 56 116.526 56C116.666 56 116.8 55.945 116.898 55.847L119.503 53.261L122.108 55.847C122.207 55.9422 122.34 55.9949 122.478 55.9937C122.616 55.9925 122.748 55.9375 122.846 55.8407C122.943 55.7438 122.999 55.6128 123 55.4758C123.001 55.3388 122.948 55.2069 122.852 55.1083L119.875 52.153C119.777 52.055 119.643 52 119.503 52C119.364 52 119.23 52.055 119.131 52.153L116.154 55.1083C116.055 55.2063 116 55.3392 116 55.4777C116 55.6162 116.055 55.7491 116.154 55.847Z" fill="#5DB947"/>
<path d="M99.1541 16.847C99.2528 16.945 99.3866 17 99.5261 17C99.6657 17 99.7995 16.945 99.8982 16.847L102.503 14.261L105.108 16.847C105.207 16.9422 105.34 16.9949 105.478 16.9937C105.616 16.9925 105.748 16.9375 105.846 16.8407C105.943 16.7438 105.999 16.6128 106 16.4758C106.001 16.3388 105.948 16.2069 105.852 16.1083L102.875 13.153C102.777 13.055 102.643 13 102.503 13C102.364 13 102.23 13.055 102.131 13.153L99.1541 16.1083C99.0554 16.2063 99 16.3392 99 16.4777C99 16.6162 99.0554 16.7491 99.1541 16.847Z" fill="#5DB947"/>
<path fill-rule="evenodd" clip-rule="evenodd" d="M96.3876 24.7881C92.0463 24.7881 88.1324 27.4015 86.4708 31.4127C84.8093 35.4238 85.7275 40.041 88.7976 43.1117C91.8678 46.1824 96.484 47.1006 100.495 45.4389C104.505 43.7771 107.122 39.8626 107.122 35.5204C107.122 29.591 102.316 24.7881 96.3876 24.7881ZM102.401 33.6581L94.9529 39.8998C94.6072 40.1786 94.1612 40.3087 93.7188 40.2604C93.2765 40.2083 92.8751 39.9853 92.6 39.6321L89.6525 35.7213C89.2957 35.0075 89.5039 34.1376 90.1506 33.6654C90.7973 33.197 91.6857 33.2602 92.258 33.8179L94.161 36.3198L100.29 31.1896C100.981 30.6097 102.015 30.7026 102.598 31.3941C103.178 32.0892 103.085 33.1227 102.394 33.7027L102.401 33.6581Z" fill="#C8F4BD"/>
<path d="M94.3279 36.9011L92.856 34.9664L92.8335 34.9368L92.8069 34.911C92.0941 34.2166 90.9879 34.1385 90.1836 34.7209L90.1836 34.7209L90.1821 34.722C89.3759 35.3104 89.1174 36.3937 89.5614 37.2818L89.5819 37.3227L89.6094 37.3592L92.3803 41.0351L92.3803 41.0351L92.3852 41.0414C92.7271 41.4803 93.2262 41.7569 93.773 41.8212L93.773 41.8212L93.7771 41.8217C94.3245 41.8815 94.8764 41.7208 95.3054 41.3749L95.3054 41.375L95.3126 41.369L101.275 36.3734L101.268 36.4164L102.308 35.5439C103.169 34.8216 103.285 33.5356 102.563 32.6706L102.561 32.6684C101.837 31.8101 100.551 31.6918 99.6881 32.4153L94.3279 36.9011ZM94.3279 36.9011L99.6877 32.4156L94.3279 36.9011ZM87.4795 33.1998C88.964 29.6165 92.461 27.2817 96.3402 27.2817C101.637 27.2817 105.931 31.5725 105.931 36.8694C105.931 40.7484 103.593 44.2456 100.01 45.7301C96.4264 47.2146 92.3017 46.3944 89.5585 43.6511C86.8153 40.9079 85.9949 36.7831 87.4795 33.1998Z" fill="white" stroke="black"/>
<path fill-rule="evenodd" clip-rule="evenodd" d="M101.634 49.0219C101.571 60.2696 96.3715 70.8714 87.5174 77.8075C78.6631 84.74 67.1215 87.2455 56.1887 84.6107C45.255 81.9761 36.1247 74.4848 31.4043 64.2784C26.6802 54.0719 26.8828 42.2652 31.9494 32.226C37.0196 22.1833 46.4013 15.0137 57.419 12.7524C68.4368 10.491 79.883 13.3883 88.4964 20.6213L87.9513 16.4248V16.4283C88.0176 16.0439 88.3251 15.7469 88.713 15.698C89.1008 15.6456 89.4747 15.8518 89.639 16.2047L90.4881 22.6795H90.4916C90.53 23.1407 90.212 23.5565 89.7578 23.6369L83.2725 24.486C82.8148 24.5279 82.399 24.2134 82.3151 23.7627C82.2767 23.539 82.3326 23.3119 82.4654 23.1302C82.5982 22.952 82.7973 22.8297 83.021 22.7983L87.6648 22.1903V22.1868C79.5128 15.1879 68.6035 12.305 58.058 14.3632C47.5126 16.4248 38.494 23.2036 33.5778 32.7563C28.6614 42.3097 28.3958 53.5923 32.851 63.3694C37.3061 73.1464 45.9923 80.3446 56.4296 82.9056C66.8632 85.4634 77.898 83.1048 86.3717 76.4972C94.8452 69.8932 99.828 59.7671 99.8906 49.0221C99.8067 48.7531 99.8556 48.4561 100.027 48.2289C100.195 47.9983 100.46 47.8655 100.747 47.8655C101.03 47.8655 101.299 47.9983 101.466 48.2289C101.634 48.4561 101.683 48.7531 101.599 49.0221L101.634 49.0219Z" fill="#C8F4BD"/>
<path d="M103.135 50.237L103.134 50.3887C103.07 61.7891 97.8001 72.5349 88.8258 79.5651L88.8257 79.5652C79.8511 86.5919 68.1528 89.1314 57.0716 86.4608C45.9894 83.7904 36.735 76.1974 31.9505 65.8523C27.1623 55.5072 27.3677 43.5402 32.5031 33.3647L32.5031 33.3647C37.6421 23.1855 47.1512 15.9186 58.3185 13.6266C69.0735 11.4192 80.2314 14.0614 88.8393 20.8084L88.4554 17.8532L88.7363 17.8167L88.4513 17.7923V17.7888L88.8003 17.7662L88.4586 17.7072C88.5618 17.1092 89.041 16.6438 89.6483 16.5662C90.2533 16.4855 90.8363 16.8078 91.0923 17.3577L91.1248 17.4274L91.1348 17.5037L91.9268 23.5435H91.9517L91.9899 24.0019C92.0495 24.7182 91.5559 25.3674 90.8449 25.4932L90.8338 25.4952L90.8227 25.4966L84.3375 26.3457L84.3278 26.347L84.3182 26.3479C83.6038 26.4133 82.9548 25.9233 82.8236 25.2181L82.8223 25.2114L82.8224 25.2114C82.7604 24.8508 82.8512 24.4873 83.0617 24.1992L83.0644 24.1955C83.2741 23.9141 83.5907 23.7178 83.9514 23.6671L83.9561 23.6665L87.4681 23.2067C79.5357 16.8342 69.1781 14.2616 59.154 16.218L103.135 50.237ZM103.135 50.237C103.141 50.1652 103.141 50.093 103.136 50.0214L103.137 49.8831L103.119 49.8832C103.083 49.6737 102.999 49.4722 102.869 49.2965C102.605 48.9344 102.184 48.7295 101.747 48.7295C101.305 48.7295 100.889 48.9347 100.625 49.2951C100.375 49.6291 100.293 50.0554 100.39 50.4517C100.308 61.0181 95.3991 70.971 87.0644 77.4669L87.0643 77.4669C78.7113 83.9803 67.8338 86.3054 57.5487 83.7841C47.2601 81.2595 38.6977 74.1639 34.306 64.5261C29.9142 54.8882 30.1761 43.7663 35.0224 34.3491C39.8686 24.9324 48.7587 18.2502 59.1538 16.218L103.135 50.237Z" fill="white" stroke="black"/>
<path fill-rule="evenodd" clip-rule="evenodd" d="M81.6573 53.3009C81.7734 52.8569 82.1382 52.5177 82.5915 52.435L85.1455 51.9689C85.726 51.8641 86.1461 51.3623 86.1434 50.7749V46.313C86.1461 45.7256 85.726 45.2237 85.1455 45.1189L82.5915 44.6529C82.1327 44.5757 81.7623 44.2365 81.6435 43.787C81.2648 42.4384 80.7258 41.1424 80.0376 39.9234C79.8165 39.5236 79.8441 39.0327 80.1067 38.6604L81.5854 36.5425C81.9282 36.0627 81.8701 35.4036 81.4528 34.99L78.2907 31.8352V31.8324C77.8733 31.4188 77.2182 31.3609 76.7318 31.6918L74.609 33.1754C74.2275 33.4429 73.7245 33.465 73.3209 33.2306C72.0937 32.5356 70.7891 31.9869 69.4292 31.6008C68.9814 31.4795 68.6414 31.1072 68.5667 30.6466L68.0996 28.071C67.9974 27.4946 67.4915 27.0727 66.9028 27.0755H62.4333C61.8446 27.0727 61.3388 27.4946 61.2365 28.071L60.7694 30.6191C60.703 31.0907 60.3603 31.4767 59.8987 31.6008C58.5499 31.9786 57.2507 32.5164 56.029 33.203C55.6254 33.4374 55.1224 33.4153 54.741 33.1478L52.6182 31.6642C52.1317 31.3305 51.4794 31.3912 51.062 31.8048L47.9193 34.954C47.5047 35.3704 47.4439 36.024 47.7784 36.5066L49.2654 38.6245H49.2627C49.5335 39.005 49.5557 39.5069 49.3207 39.9095C48.6325 41.1284 48.0935 42.4245 47.7148 43.7703C47.596 44.2225 47.2201 44.5645 46.7584 44.639L44.2044 45.105C43.624 45.2071 43.2011 45.7117 43.2066 46.2991V50.761C43.2011 51.3483 43.624 51.853 44.2044 51.9523L46.7584 52.4183C47.22 52.4955 47.596 52.8347 47.7148 53.287C48.0935 54.6327 48.6325 55.9316 49.3207 57.1505C49.5418 57.5559 49.5059 58.055 49.2295 58.4273L47.7424 60.5452C47.408 61.0305 47.4688 61.6814 47.8834 62.0978L51.0482 65.2553C51.4656 65.669 52.1179 65.7269 52.6044 65.3959L54.7272 63.9123C55.1086 63.6448 55.6117 63.6227 56.0152 63.8571C57.2397 64.5521 58.5443 65.1008 59.8987 65.4869C60.352 65.6055 60.692 65.9778 60.7694 66.4411L61.2365 69.0167C61.3388 69.5931 61.8446 70.015 62.4333 70.0123H66.9056H66.9028C67.4915 70.015 67.9974 69.5931 68.0996 69.0167L68.5668 66.4686C68.6331 65.9971 68.9703 65.611 69.4292 65.4869C70.7808 65.1091 72.0827 64.5714 73.3071 63.8847C73.7107 63.6503 74.2137 63.6724 74.5952 63.9399L76.718 65.4235C77.2044 65.7572 77.8568 65.6966 78.2741 65.2829L81.439 62.1254C81.8563 61.7117 81.9144 61.0554 81.5716 60.5728L80.0929 58.4549C79.8248 58.0744 79.8027 57.5725 80.0376 57.1699C80.7314 55.9509 81.2731 54.6522 81.6573 53.3009ZM64.675 59.6546C61.7202 59.6573 58.8871 58.4881 56.7973 56.406C54.7077 54.3212 53.533 51.4974 53.5302 48.5494C53.5302 45.6014 54.7022 42.7748 56.7891 40.6899C58.8787 38.6051 61.7118 37.4331 64.6667 37.4331C67.6187 37.4304 70.4546 38.6023 72.5416 40.6844C74.6312 42.7692 75.8059 45.5958 75.8059 48.5439C75.8059 51.492 74.6312 54.3184 72.5443 56.4005C70.4547 58.4853 67.6216 59.6546 64.6695 59.6546H64.675Z" fill="#C8F4BD"/>
<path d="M82.1383 56.2492L82.1382 56.2492C81.7432 57.6383 81.1862 58.9743 80.4722 60.2287L80.4695 60.2334C80.3334 60.4666 80.346 60.7575 80.5017 60.9785L80.5029 60.9802L81.9793 63.0948C81.9797 63.0953 81.98 63.0958 81.9804 63.0964C82.4634 63.778 82.3818 64.7056 81.7918 65.2912C81.7915 65.2915 81.7912 65.2917 81.7909 65.292L78.6273 68.4484L78.6261 68.4495C78.0389 69.0315 77.1203 69.1173 76.4351 68.6474L76.4315 68.6449L74.3087 67.1612L74.3081 67.1608C74.086 67.005 73.793 66.9923 73.5583 67.1286L73.5517 67.1324L73.5517 67.1324C72.2925 67.8385 70.9537 68.3915 69.5638 68.78L69.5597 68.7811C69.2966 68.8523 69.1007 69.074 69.0619 69.3498L69.0604 69.3601L69.0586 69.3703L68.5919 71.9156C68.5919 71.9161 68.5918 71.9166 68.5917 71.9171C68.4463 72.7326 67.7322 73.3268 66.9023 73.3238M82.1383 56.2492L82.5915 47.4644C82.1327 47.3872 81.7623 47.048 81.6435 46.5985C81.2648 45.25 80.7258 43.9539 80.0376 42.735C79.8165 42.3351 79.8441 41.8443 80.1067 41.4719L81.5854 39.3541C81.9282 38.8742 81.8701 38.2151 81.4528 37.8015L78.2907 34.6467V34.6439C77.8733 34.2303 77.2182 34.1724 76.7318 34.5033L74.609 35.987C74.2275 36.2544 73.7245 36.2765 73.3209 36.0421C72.0937 35.3472 70.7891 34.7984 69.4292 34.4123C68.9814 34.291 68.6414 33.9187 68.5667 33.4581L68.0996 30.8825C67.9974 30.3062 67.4915 29.8842 66.9028 29.887M82.1383 56.2492L82.141 56.2389C82.208 55.9829 82.4193 55.7862 82.6813 55.7384L85.2344 55.2725L82.1383 56.2492ZM66.9023 73.3238C66.9017 73.3238 66.9011 73.3238 66.9005 73.3238L66.9016 72.8238H62.4333M66.9023 73.3238H66.9028M66.9023 73.3238H66.9028M62.4333 72.8238C61.8446 72.8265 61.3388 72.4046 61.2365 71.8282M62.4333 72.8238L62.4357 73.3238C62.4351 73.3238 62.4345 73.3238 62.4338 73.3238C61.6038 73.3268 60.8896 72.7322 60.7444 71.9165L60.7445 71.9175L61.2365 71.8282M62.4333 72.8238L60.7445 30.7936L60.7447 30.7924L61.2365 30.8825M61.2365 71.8282L60.7694 69.2526C60.692 68.7893 60.352 68.417 59.8987 68.2984C58.5443 67.9124 57.2397 67.3636 56.0152 66.6687C55.6117 66.4343 55.1086 66.4563 54.7272 66.7238L52.6044 68.2075C52.1179 68.5384 51.4656 68.4805 51.0482 68.0668L47.8834 64.9093C47.4688 64.4929 47.408 63.8421 47.7424 63.3567L49.2295 61.2388C49.5059 60.8665 49.5418 60.3674 49.3207 59.962M61.2365 71.8282L60.7442 71.9156L60.2774 69.3418L60.2762 69.335L60.2762 69.335C60.2312 69.0657 60.0345 68.8508 59.7722 68.7822L59.7616 68.7794L59.7616 68.7793C58.3686 68.3822 57.0272 67.8179 55.7684 67.1035L55.7641 67.101C55.5294 66.9647 55.2364 66.9774 55.0143 67.1332L55.0136 67.1336L52.8908 68.6173L52.8856 68.6209L52.8856 68.6209C52.2028 69.0853 51.2849 69.0053 50.6963 68.422L50.6951 68.4208L47.5302 65.2632L47.5291 65.2621C46.9454 64.6759 46.8589 63.7576 47.3307 63.073L47.3332 63.0694L48.8203 60.9515L48.8279 60.9407L48.828 60.9408C48.9885 60.7247 49.0087 60.4367 48.8833 60.2043M49.3207 59.962C48.6325 58.7431 48.0935 57.4442 47.7148 56.0985C47.596 55.6462 47.22 55.3071 46.7584 55.2298L44.2044 54.7638M49.3207 59.962L48.8818 60.2015C48.8823 60.2024 48.8828 60.2033 48.8833 60.2043M49.3207 59.962L48.8853 60.2079C48.8846 60.2067 48.884 60.2055 48.8833 60.2043M44.2044 54.7638C43.624 54.6645 43.2011 54.1599 43.2066 53.5725M44.2044 54.7638L44.1147 55.2557L44.1172 55.2561M44.2044 54.7638L44.1202 55.2566C44.1192 55.2565 44.1182 55.2563 44.1172 55.2561M43.2066 53.5725V49.1106M43.2066 53.5725L42.7066 53.5678C42.7066 53.5686 42.7066 53.5695 42.7066 53.5703M43.2066 53.5725H42.7066V53.5703M43.2066 49.1106C43.2011 48.5232 43.624 48.0186 44.2044 47.9165M43.2066 49.1106H42.7066V49.1128M43.2066 49.1106L42.7066 49.1153C42.7066 49.1145 42.7066 49.1136 42.7066 49.1128M44.2044 47.9165L46.7584 47.4505C47.2201 47.376 47.596 47.0341 47.7148 46.5818C48.0935 45.236 48.6325 43.94 49.3207 42.7211C49.4618 42.4793 49.5102 42.2016 49.4677 41.936H49.2654H49.2627V41.4379L49.0612 41.5794L49.0612 41.5794L48.8562 41.7233L48.3034 40.936M44.2044 47.9165L44.1179 47.4241L46.6687 46.9586L46.6788 46.9568L46.6788 46.9569C46.9446 46.914 47.1625 46.7162 47.2312 46.4547L47.2334 46.4464L47.2335 46.4464C47.623 45.0621 48.1774 43.729 48.8853 42.4752L48.8888 42.469L48.8889 42.4691C49.0249 42.236 49.0121 41.9461 48.8553 41.7259L48.293 40.936H48.3034M44.2044 47.9165L44.1147 47.4247L44.1162 47.4244C43.2991 47.5689 42.7 48.2801 42.7066 49.1128M48.3034 40.936H48.9144L47.7784 39.3181C47.4439 38.8355 47.5047 38.182 47.9193 37.7656L51.062 34.6163C51.4794 34.2027 52.1317 34.142 52.6182 34.4757L54.741 35.9593C55.1224 36.2268 55.6254 36.2489 56.029 36.0145C57.2507 35.3279 58.5499 34.7901 59.8987 34.4123C60.3603 34.2882 60.7031 33.9022 60.7694 33.4306L61.2365 30.8825M48.3034 40.936L47.3691 39.6054L47.3674 39.6029L47.3674 39.6029C46.8942 38.9201 46.9817 37.9986 47.565 37.4128L47.5654 37.4124L50.7081 34.2632L50.7101 34.2612C51.2972 33.6793 52.2159 33.5934 52.901 34.0634L52.9046 34.0659L52.9046 34.0659L55.0274 35.5495L55.028 35.55C55.2502 35.7057 55.5431 35.7185 55.7779 35.5821L55.784 35.5786L55.784 35.5786C57.0405 34.8725 58.3766 34.3194 59.7638 33.9309L59.7689 33.9294L59.7689 33.9295C60.0382 33.8571 60.236 33.6326 60.2743 33.361L60.2757 33.3507L60.2776 33.3405L60.7442 30.7952L61.2365 30.8825M61.2365 30.8825C61.3388 30.3061 61.8446 29.8842 62.4333 29.887M62.4333 29.887H66.9028M62.4333 29.887V29.387H62.4344H66.9017M62.4333 29.887L85.2343 47.4384L82.6813 46.9725L82.6813 46.9725L82.6745 46.9713C82.41 46.9268 82.1957 46.7311 82.1269 46.4707L82.1269 46.4707L82.1249 46.4633C81.7356 45.077 81.1816 43.7445 80.4743 42.4914C80.347 42.2599 80.3632 41.9757 80.5153 41.7601L80.5167 41.7582L81.9923 39.6447C81.9928 39.6439 81.9934 39.6432 81.9939 39.6424C82.4779 38.9625 82.3949 38.0317 81.8051 37.4468C81.805 37.4466 81.8049 37.4465 81.8047 37.4464L78.7907 34.4393V34.4355L78.6426 34.2888C78.0539 33.7053 77.1332 33.6255 76.4505 34.0899L76.4505 34.0899L76.4453 34.0935L74.3225 35.5771L74.3219 35.5776C74.0998 35.7333 73.8068 35.7461 73.5721 35.6098L73.5721 35.6097L73.5673 35.607C72.306 34.8928 70.9646 34.3285 69.5657 33.9313L69.5657 33.9313L69.5599 33.9297C69.2994 33.8591 69.1032 33.6426 69.0603 33.3781L69.0604 33.3781L69.0587 33.3689L68.5919 30.7952C68.5919 30.7948 68.5918 30.7945 68.5918 30.7942C68.4465 29.9783 67.732 29.3837 66.9017 29.387M66.9028 29.887V29.387H66.9017M66.9028 29.887L66.9005 29.387C66.9009 29.387 66.9013 29.387 66.9017 29.387M42.7066 49.1128V53.5703M42.7066 53.5703C42.7 54.4021 43.2983 55.1146 44.1172 55.2561M44.1172 55.2561L46.6687 55.7217L46.6687 55.7218L46.6759 55.723C46.9461 55.7682 47.1631 55.9662 47.2313 56.2256L47.2312 56.2257L47.2335 56.234C47.6226 57.6166 48.1763 58.9514 48.8833 60.2043M66.9028 73.3238V72.824V72.8238V73.3238ZM64.6695 61.9661C67.4894 61.9661 70.1955 60.8491 72.1912 58.8581C74.1842 56.8696 75.3059 54.1704 75.3059 51.3554C75.3059 48.5404 74.1842 45.8411 72.1884 43.8499C70.1954 41.8614 67.4866 40.742 64.6672 40.7446H64.6667C61.8443 40.7446 59.1383 41.8641 57.1425 43.8552L64.6695 61.9661ZM64.6695 61.9661C61.849 61.9674 59.1451 60.8508 57.1505 58.8636C55.1547 56.8724 54.033 54.1758 54.0302 51.3609C54.0302 48.5458 55.1493 45.8466 57.1422 43.8554L64.6695 61.9661Z" fill="#5DB947" stroke="black"/>
</svg>
