<svg width="128" height="100" viewBox="0 0 128 100" fill="none" xmlns="http://www.w3.org/2000/svg">
<rect x="22.5239" y="74.1499" width="8.41262" height="13.4602" rx="2" fill="#C8F4BD"/>
<rect x="35.9839" y="59.0071" width="8.41262" height="28.6029" rx="2" fill="#C8F4BD"/>
<rect x="48.603" y="64.8958" width="8.41262" height="22.7141" rx="2" fill="#C8F4BD"/>
<rect x="61.2222" y="50.5947" width="8.41262" height="37.0155" rx="2" fill="#C8F4BD"/>
<rect x="23.8652" y="75.4912" width="7.41262" height="12.4602" rx="1.5" fill="white" stroke="black"/>
<rect x="37.6572" y="60.3484" width="7.41262" height="27.6029" rx="1.5" fill="#5DB947" stroke="black"/>
<rect x="50.2764" y="66.2371" width="7.41262" height="21.7141" rx="1.5" fill="white" stroke="black"/>
<rect x="62.8955" y="51.9358" width="7.41262" height="36.0155" rx="1.5" fill="#5DB947" stroke="black"/>
<path d="M48.1826 53.5389L41.032 49.7531L39.7699 51.8563L46.9208 55.642L48.1826 53.5389Z" fill="black"/>
<path d="M33.8811 52.2771L25.964 62.2777L27.5717 63.6341L35.5637 53.539L33.8811 52.2771Z" fill="black"/>
<path d="M60.8013 42.1819L52.3887 52.277L54.0712 53.9595L62.4838 43.4438L60.8013 42.1819Z" fill="black"/>
<mask id="path-12-outside-1_134_80" maskUnits="userSpaceOnUse" x="19" y="60.5308" width="12" height="12" fill="black">
<rect fill="white" x="19" y="60.5308" width="12" height="12"/>
<path d="M29.2539 66.1577C29.2539 68.7131 27.1823 70.7846 24.6269 70.7846C22.0716 70.7846 20 68.7131 20 66.1577C20 63.6023 22.0716 61.5308 24.6269 61.5308C27.1823 61.5308 29.2539 63.6023 29.2539 66.1577ZM22.4552 66.1577C22.4552 67.3571 23.4275 68.3294 24.6269 68.3294C25.8263 68.3294 26.7986 67.3571 26.7986 66.1577C26.7986 64.9583 25.8263 63.986 24.6269 63.986C23.4275 63.986 22.4552 64.9583 22.4552 66.1577Z"/>
</mask>
<path d="M29.2539 66.1577C29.2539 68.7131 27.1823 70.7846 24.6269 70.7846C22.0716 70.7846 20 68.7131 20 66.1577C20 63.6023 22.0716 61.5308 24.6269 61.5308C27.1823 61.5308 29.2539 63.6023 29.2539 66.1577ZM22.4552 66.1577C22.4552 67.3571 23.4275 68.3294 24.6269 68.3294C25.8263 68.3294 26.7986 67.3571 26.7986 66.1577C26.7986 64.9583 25.8263 63.986 24.6269 63.986C23.4275 63.986 22.4552 64.9583 22.4552 66.1577Z" fill="white"/>
<path d="M29.2539 66.1577C29.2539 68.7131 27.1823 70.7846 24.6269 70.7846C22.0716 70.7846 20 68.7131 20 66.1577C20 63.6023 22.0716 61.5308 24.6269 61.5308C27.1823 61.5308 29.2539 63.6023 29.2539 66.1577ZM22.4552 66.1577C22.4552 67.3571 23.4275 68.3294 24.6269 68.3294C25.8263 68.3294 26.7986 67.3571 26.7986 66.1577C26.7986 64.9583 25.8263 63.986 24.6269 63.986C23.4275 63.986 22.4552 64.9583 22.4552 66.1577Z" stroke="black" stroke-width="2" mask="url(#path-12-outside-1_134_80)"/>
<mask id="path-13-outside-2_134_80" maskUnits="userSpaceOnUse" x="31.6191" y="43.7056" width="12" height="12" fill="black">
<rect fill="white" x="31.6191" y="43.7056" width="12" height="12"/>
<path d="M41.873 49.3325C41.873 51.8879 39.8015 53.9594 37.2461 53.9594C34.6907 53.9594 32.6191 51.8879 32.6191 49.3325C32.6191 46.7771 34.6907 44.7056 37.2461 44.7056C39.8015 44.7056 41.873 46.7771 41.873 49.3325ZM35.0744 49.3325C35.0744 50.5319 36.0467 51.5042 37.2461 51.5042C38.4455 51.5042 39.4178 50.5319 39.4178 49.3325C39.4178 48.1331 38.4455 47.1608 37.2461 47.1608C36.0467 47.1608 35.0744 48.1331 35.0744 49.3325Z"/>
</mask>
<path d="M41.873 49.3325C41.873 51.8879 39.8015 53.9594 37.2461 53.9594C34.6907 53.9594 32.6191 51.8879 32.6191 49.3325C32.6191 46.7771 34.6907 44.7056 37.2461 44.7056C39.8015 44.7056 41.873 46.7771 41.873 49.3325ZM35.0744 49.3325C35.0744 50.5319 36.0467 51.5042 37.2461 51.5042C38.4455 51.5042 39.4178 50.5319 39.4178 49.3325C39.4178 48.1331 38.4455 47.1608 37.2461 47.1608C36.0467 47.1608 35.0744 48.1331 35.0744 49.3325Z" fill="#5DB947"/>
<path d="M41.873 49.3325C41.873 51.8879 39.8015 53.9594 37.2461 53.9594C34.6907 53.9594 32.6191 51.8879 32.6191 49.3325C32.6191 46.7771 34.6907 44.7056 37.2461 44.7056C39.8015 44.7056 41.873 46.7771 41.873 49.3325ZM35.0744 49.3325C35.0744 50.5319 36.0467 51.5042 37.2461 51.5042C38.4455 51.5042 39.4178 50.5319 39.4178 49.3325C39.4178 48.1331 38.4455 47.1608 37.2461 47.1608C36.0467 47.1608 35.0744 48.1331 35.0744 49.3325Z" stroke="black" stroke-width="2" mask="url(#path-13-outside-2_134_80)"/>
<mask id="path-14-outside-3_134_80" maskUnits="userSpaceOnUse" x="58.5396" y="34.4519" width="12" height="12" fill="black">
<rect fill="white" x="58.5396" y="34.4519" width="12" height="12"/>
<path d="M68.7934 40.0788C68.7934 42.6342 66.7219 44.7058 64.1665 44.7058C61.6111 44.7058 59.5396 42.6342 59.5396 40.0788C59.5396 37.5235 61.6111 35.4519 64.1665 35.4519C66.7219 35.4519 68.7934 37.5235 68.7934 40.0788ZM61.9948 40.0788C61.9948 41.2782 62.9671 42.2505 64.1665 42.2505C65.3659 42.2505 66.3382 41.2782 66.3382 40.0788C66.3382 38.8794 65.3659 37.9071 64.1665 37.9071C62.9671 37.9071 61.9948 38.8794 61.9948 40.0788Z"/>
</mask>
<path d="M68.7934 40.0788C68.7934 42.6342 66.7219 44.7058 64.1665 44.7058C61.6111 44.7058 59.5396 42.6342 59.5396 40.0788C59.5396 37.5235 61.6111 35.4519 64.1665 35.4519C66.7219 35.4519 68.7934 37.5235 68.7934 40.0788ZM61.9948 40.0788C61.9948 41.2782 62.9671 42.2505 64.1665 42.2505C65.3659 42.2505 66.3382 41.2782 66.3382 40.0788C66.3382 38.8794 65.3659 37.9071 64.1665 37.9071C62.9671 37.9071 61.9948 38.8794 61.9948 40.0788Z" fill="#5DB947"/>
<path d="M68.7934 40.0788C68.7934 42.6342 66.7219 44.7058 64.1665 44.7058C61.6111 44.7058 59.5396 42.6342 59.5396 40.0788C59.5396 37.5235 61.6111 35.4519 64.1665 35.4519C66.7219 35.4519 68.7934 37.5235 68.7934 40.0788ZM61.9948 40.0788C61.9948 41.2782 62.9671 42.2505 64.1665 42.2505C65.3659 42.2505 66.3382 41.2782 66.3382 40.0788C66.3382 38.8794 65.3659 37.9071 64.1665 37.9071C62.9671 37.9071 61.9948 38.8794 61.9948 40.0788Z" stroke="black" stroke-width="2" mask="url(#path-14-outside-3_134_80)"/>
<mask id="path-15-outside-4_134_80" maskUnits="userSpaceOnUse" x="45.0791" y="50.4358" width="12" height="12" fill="black">
<rect fill="white" x="45.0791" y="50.4358" width="12" height="12"/>
<path d="M55.333 56.0627C55.333 58.6181 53.2614 60.6897 50.706 60.6897C48.1507 60.6897 46.0791 58.6181 46.0791 56.0627C46.0791 53.5073 48.1507 51.4358 50.706 51.4358C53.2614 51.4358 55.333 53.5073 55.333 56.0627ZM48.5343 56.0627C48.5343 57.2621 49.5066 58.2344 50.706 58.2344C51.9054 58.2344 52.8777 57.2621 52.8777 56.0627C52.8777 54.8633 51.9054 53.891 50.706 53.891C49.5066 53.891 48.5343 54.8633 48.5343 56.0627Z"/>
</mask>
<path d="M55.333 56.0627C55.333 58.6181 53.2614 60.6897 50.706 60.6897C48.1507 60.6897 46.0791 58.6181 46.0791 56.0627C46.0791 53.5073 48.1507 51.4358 50.706 51.4358C53.2614 51.4358 55.333 53.5073 55.333 56.0627ZM48.5343 56.0627C48.5343 57.2621 49.5066 58.2344 50.706 58.2344C51.9054 58.2344 52.8777 57.2621 52.8777 56.0627C52.8777 54.8633 51.9054 53.891 50.706 53.891C49.5066 53.891 48.5343 54.8633 48.5343 56.0627Z" fill="white"/>
<path d="M55.333 56.0627C55.333 58.6181 53.2614 60.6897 50.706 60.6897C48.1507 60.6897 46.0791 58.6181 46.0791 56.0627C46.0791 53.5073 48.1507 51.4358 50.706 51.4358C53.2614 51.4358 55.333 53.5073 55.333 56.0627ZM48.5343 56.0627C48.5343 57.2621 49.5066 58.2344 50.706 58.2344C51.9054 58.2344 52.8777 57.2621 52.8777 56.0627C52.8777 54.8633 51.9054 53.891 50.706 53.891C49.5066 53.891 48.5343 54.8633 48.5343 56.0627Z" stroke="black" stroke-width="2" mask="url(#path-15-outside-4_134_80)"/>
<path d="M72.2182 58.6471V52.5068C89.6449 44.194 84.5307 29.2053 79.7952 22.75C76.4804 18.6565 66.9145 12.4533 55.1703 20.3884C43.4261 28.3235 48.6985 42.273 52.8027 48.2558L51.382 49.6727C50.2455 49.2948 48.0671 49.8301 47.1199 50.145C42.3844 43.5323 38.0672 22.75 55.1703 13.7759C66.2699 7.95193 78.4682 13.0267 83.11 18.0269C94.4524 30.245 87.3596 47.1806 85.8443 49.0699C84.9088 50.2362 87.0976 53.2479 88.212 52.5068C89.6327 51.5622 90.529 52.1919 91.1604 52.5068L106.207 68.4353C110.362 73.0279 103.473 79.2879 99.2108 75.1785C94.4753 70.6127 85.6549 60.6891 84.8972 59.9334C83.9501 58.9888 84.0571 58.6471 84.0571 56.7578C84.0571 54.8685 81.216 53.3207 79.7952 54.2655L72.2182 58.6471Z" fill="#C8F4BD"/>
<path d="M72.7265 57.4737V51.3335C90.1532 43.0207 85.039 28.032 80.3035 21.5767C76.9887 17.4832 67.4228 11.28 55.6786 19.2151C43.9344 27.1502 49.2068 41.0996 53.311 47.0825L51.8903 48.4994C50.7538 48.1215 48.5754 48.6568 47.6282 48.9717C42.8927 42.3589 38.5755 21.5767 55.6786 12.6026C66.7782 6.77859 78.9765 11.8533 83.6183 16.8535C94.9607 29.0716 87.8679 46.0072 86.3526 47.8965C85.4171 49.0629 87.6059 52.0745 88.7203 51.3335C90.141 50.3888 91.0373 51.0186 91.6687 51.3335L106.715 67.262C110.87 71.8546 103.981 78.1146 99.7191 74.0052C94.9836 69.4394 86.1632 59.5158 85.4055 58.7601C84.4584 57.8154 84.5654 57.4737 84.5654 55.5844C84.5654 53.6951 81.7243 52.1473 80.3035 53.0921L72.7265 57.4737Z" fill="white" stroke="black"/>
<path d="M8.15408 14.847C8.25277 14.945 8.3866 15 8.52614 15C8.66569 15 8.79952 14.945 8.89821 14.847L11.5032 12.261L14.1081 14.847C14.2074 14.9422 14.3403 14.9949 14.4783 14.9937C14.6163 14.9925 14.7483 14.9375 14.8459 14.8407C14.9434 14.7438 14.9988 14.6128 15 14.4758C15.0012 14.3388 14.9481 14.2069 14.8523 14.1083L11.8752 11.153C11.7766 11.055 11.6427 11 11.5032 11C11.3636 11 11.2298 11.055 11.1311 11.153L8.15408 14.1083C8.05542 14.2063 8 14.3392 8 14.4777C8 14.6162 8.05542 14.7491 8.15408 14.847Z" fill="#5DB947"/>
<path d="M23.1541 29.847C23.2528 29.945 23.3866 30 23.5261 30C23.6657 30 23.7995 29.945 23.8982 29.847L26.5032 27.261L29.1081 29.847C29.2074 29.9422 29.3403 29.9949 29.4783 29.9937C29.6163 29.9925 29.7483 29.9375 29.8459 29.8407C29.9434 29.7438 29.9988 29.6128 30 29.4758C30.0012 29.3388 29.9481 29.2069 29.8523 29.1083L26.8752 26.153C26.7766 26.055 26.6427 26 26.5032 26C26.3636 26 26.2298 26.055 26.1311 26.153L23.1541 29.1083C23.0554 29.2063 23 29.3392 23 29.4777C23 29.6162 23.0554 29.7491 23.1541 29.847Z" fill="#5DB947"/>
<path d="M112.154 45.847C112.253 45.945 112.387 46 112.526 46C112.666 46 112.8 45.945 112.898 45.847L115.503 43.261L118.108 45.847C118.207 45.9422 118.34 45.9949 118.478 45.9937C118.616 45.9925 118.748 45.9375 118.846 45.8407C118.943 45.7438 118.999 45.6128 119 45.4758C119.001 45.3388 118.948 45.2069 118.852 45.1083L115.875 42.153C115.777 42.055 115.643 42 115.503 42C115.364 42 115.23 42.055 115.131 42.153L112.154 45.1083C112.055 45.2063 112 45.3392 112 45.4777C112 45.6162 112.055 45.7491 112.154 45.847Z" fill="#5DB947"/>
<path d="M90.1541 86.847C90.2528 86.945 90.3866 87 90.5261 87C90.6657 87 90.7995 86.945 90.8982 86.847L93.5032 84.261L96.1081 86.847C96.2074 86.9422 96.3403 86.9949 96.4783 86.9937C96.6163 86.9925 96.7483 86.9375 96.8459 86.8407C96.9434 86.7438 96.9988 86.6128 97 86.4758C97.0012 86.3388 96.9481 86.2069 96.8523 86.1083L93.8752 83.153C93.7766 83.055 93.6427 83 93.5032 83C93.3636 83 93.2298 83.055 93.1311 83.153L90.1541 86.1083C90.0554 86.2063 90 86.3392 90 86.4777C90 86.6162 90.0554 86.7491 90.1541 86.847Z" fill="#5DB947"/>
</svg>
