<svg width="128" height="100" viewBox="0 0 128 100" fill="none" xmlns="http://www.w3.org/2000/svg">
<path d="M4.15408 53.847C4.25277 53.945 4.3866 54 4.52614 54C4.66569 54 4.79952 53.945 4.89821 53.847L7.50318 51.261L10.1081 53.847C10.2074 53.9422 10.3403 53.9949 10.4783 53.9937C10.6163 53.9925 10.7483 53.9375 10.8459 53.8407C10.9434 53.7438 10.9988 53.6128 11 53.4758C11.0012 53.3388 10.9481 53.2069 10.8523 53.1083L7.87524 50.153C7.77655 50.055 7.64272 50 7.50318 50C7.36363 50 7.2298 50.055 7.13111 50.153L4.15408 53.1083C4.05542 53.2063 4 53.3392 4 53.4777C4 53.6162 4.05542 53.7491 4.15408 53.847Z" fill="#5DB947"/>
<path d="M16.1541 80.847C16.2528 80.945 16.3866 81 16.5261 81C16.6657 81 16.7995 80.945 16.8982 80.847L19.5032 78.261L22.1081 80.847C22.2074 80.9422 22.3403 80.9949 22.4783 80.9937C22.6163 80.9925 22.7483 80.9375 22.8459 80.8407C22.9434 80.7438 22.9988 80.6128 23 80.4758C23.0012 80.3388 22.9481 80.2069 22.8523 80.1083L19.8752 77.153C19.7766 77.055 19.6427 77 19.5032 77C19.3636 77 19.2298 77.055 19.1311 77.153L16.1541 80.1083C16.0554 80.2063 16 80.3392 16 80.4777C16 80.6162 16.0554 80.7491 16.1541 80.847Z" fill="#5DB947"/>
<path d="M111.154 64.847C111.253 64.945 111.387 65 111.526 65C111.666 65 111.8 64.945 111.898 64.847L114.503 62.261L117.108 64.847C117.207 64.9422 117.34 64.9949 117.478 64.9937C117.616 64.9925 117.748 64.9375 117.846 64.8407C117.943 64.7438 117.999 64.6128 118 64.4758C118.001 64.3388 117.948 64.2069 117.852 64.1083L114.875 61.153C114.777 61.055 114.643 61 114.503 61C114.364 61 114.23 61.055 114.131 61.153L111.154 64.1083C111.055 64.2063 111 64.3392 111 64.4777C111 64.6162 111.055 64.7491 111.154 64.847Z" fill="#5DB947"/>
<path d="M118.154 47.847C118.253 47.945 118.387 48 118.526 48C118.666 48 118.8 47.945 118.898 47.847L121.503 45.261L124.108 47.847C124.207 47.9422 124.34 47.9949 124.478 47.9937C124.616 47.9925 124.748 47.9375 124.846 47.8407C124.943 47.7438 124.999 47.6128 125 47.4758C125.001 47.3388 124.948 47.2069 124.852 47.1083L121.875 44.153C121.777 44.055 121.643 44 121.503 44C121.364 44 121.23 44.055 121.131 44.153L118.154 47.1083C118.055 47.2063 118 47.3392 118 47.4777C118 47.6162 118.055 47.7491 118.154 47.847Z" fill="#5DB947"/>
<path fill-rule="evenodd" clip-rule="evenodd" d="M99.771 34.1868C99.771 33.0822 98.8756 32.1868 97.771 32.1868H93.915C92.8105 32.1868 91.915 33.0822 91.915 34.1868V81.6872C91.915 82.7918 92.8105 83.6872 93.915 83.6872H97.771C98.8756 83.6872 99.771 82.7918 99.771 81.6872V34.1868Z" fill="#C8F4BD"/>
<path d="M91.1694 33.5596H97.3912C97.6673 33.5596 97.8912 33.7834 97.8912 34.0596V83.8865C97.8912 84.1627 97.6673 84.3865 97.3912 84.3865H91.1694C90.8933 84.3865 90.6694 84.1627 90.6694 83.8865V34.0596C90.6694 33.7834 90.8933 33.5596 91.1694 33.5596Z" fill="#5DB947" stroke="black"/>
<path fill-rule="evenodd" clip-rule="evenodd" d="M67.1529 51.6445C67.1529 50.54 66.2574 49.6445 65.1529 49.6445H61.2969C60.1923 49.6445 59.2969 50.54 59.2969 51.6445V82.5601C59.2969 83.6647 60.1923 84.5601 61.2969 84.5601H65.1529C66.2574 84.5601 67.1529 83.6647 67.1529 82.5601V51.6445Z" fill="#C8F4BD"/>
<path d="M59.5513 51.0173H64.2802C65.1086 51.0173 65.7802 51.6889 65.7802 52.5173V82.56C65.7802 83.3885 65.1086 84.06 64.2802 84.06H59.5513C58.7228 84.06 58.0513 83.3885 58.0513 82.56V52.5173C58.0513 51.6889 58.7228 51.0173 59.5513 51.0173Z" fill="#5DB947" stroke="black"/>
<path fill-rule="evenodd" clip-rule="evenodd" d="M49.1229 8.99617C49.1267 9.11943 49.1057 9.2422 49.0612 9.3572C49.0166 9.47219 48.9494 9.57706 48.8636 9.66559C48.7777 9.75413 48.675 9.82452 48.5614 9.87258C48.4479 9.92065 48.3258 9.94542 48.2025 9.94542C48.0791 9.94542 47.9571 9.92065 47.8435 9.87258C47.73 9.82452 47.6272 9.75413 47.5413 9.66559C47.4555 9.57706 47.3883 9.47219 47.3438 9.3572C47.2992 9.2422 47.2782 9.11943 47.282 8.99617V6.94925C47.2782 6.82599 47.2992 6.70322 47.3438 6.58822C47.3883 6.47323 47.4555 6.36836 47.5413 6.27983C47.6272 6.19129 47.73 6.12091 47.8435 6.07284C47.9571 6.02477 48.0791 6 48.2025 6C48.3258 6 48.4479 6.02477 48.5614 6.07284C48.675 6.12091 48.7777 6.19129 48.8636 6.27983C48.9494 6.36836 49.0166 6.47323 49.0612 6.58822C49.1057 6.70322 49.1267 6.82599 49.1229 6.94925V8.99617ZM39.8956 10.9768C39.956 11.0811 39.9953 11.1964 40.0112 11.3159C40.027 11.4355 40.0192 11.557 39.9881 11.6735C39.957 11.79 39.9033 11.8992 39.83 11.995C39.7567 12.0908 39.6652 12.1711 39.5609 12.2315C39.3501 12.3535 39.0995 12.3868 38.8641 12.324C38.6288 12.2613 38.4281 12.1076 38.3061 11.8968L37.2813 10.1231C37.1592 9.91229 37.1258 9.66163 37.1885 9.42623C37.2512 9.19083 37.4048 8.98998 37.6156 8.86786C37.8264 8.74574 38.0771 8.71236 38.3125 8.77505C38.5479 8.83775 38.7487 8.99139 38.8708 9.20217L39.8956 10.9768ZM32.8942 17.3052C32.9985 17.3652 33.0901 17.4451 33.1636 17.5404C33.237 17.6357 33.291 17.7446 33.3224 17.8608C33.3538 17.977 33.3621 18.0982 33.3466 18.2176C33.3312 18.337 33.2924 18.4521 33.2324 18.5565C33.1725 18.6609 33.0925 18.7524 32.9972 18.8259C32.9019 18.8994 32.793 18.9534 32.6768 18.9848C32.5606 19.0162 32.4394 19.0244 32.32 19.0089C32.2007 18.9935 32.0855 18.9547 31.9811 18.8947L30.2065 17.8708C30.1022 17.8108 30.0106 17.7309 29.9372 17.6355C29.8637 17.5401 29.8098 17.4312 29.7784 17.3149C29.747 17.1987 29.7389 17.0774 29.7544 16.958C29.7699 16.8387 29.8087 16.7235 29.8687 16.6191C29.9287 16.5147 30.0087 16.4232 30.1041 16.3498C30.1995 16.2763 30.3084 16.2223 30.4246 16.191C30.5409 16.1596 30.6621 16.1514 30.7815 16.1669C30.9009 16.1824 31.0161 16.2213 31.1205 16.2813L32.8942 17.3052ZM29.9979 26.2794C30.1212 26.2756 30.244 26.2966 30.3589 26.3411C30.4739 26.3857 30.5788 26.4529 30.6673 26.5387C30.7559 26.6246 30.8263 26.7273 30.8743 26.8409C30.9224 26.9545 30.9472 27.0765 30.9472 27.1998C30.9472 27.3232 30.9224 27.4452 30.8743 27.5588C30.8263 27.6724 30.7559 27.7751 30.6673 27.861C30.5788 27.9468 30.4739 28.014 30.3589 28.0586C30.244 28.1031 30.1212 28.1241 29.9979 28.1203H27.9492C27.826 28.1241 27.7032 28.1031 27.5882 28.0586C27.4732 28.014 27.3684 27.9468 27.2798 27.861C27.1913 27.7751 27.1209 27.6724 27.0728 27.5588C27.0248 27.4452 27 27.3232 27 27.1998C27 27.0765 27.0248 26.9545 27.0728 26.8409C27.1209 26.7273 27.1913 26.6246 27.2798 26.5387C27.3684 26.4529 27.4732 26.3857 27.5882 26.3411C27.7032 26.2966 27.826 26.2756 27.9492 26.2794H29.9979ZM31.9768 35.5076C32.0815 35.4472 32.1972 35.408 32.3171 35.3923C32.437 35.3765 32.5588 35.3846 32.6756 35.416C32.7924 35.4473 32.9019 35.5014 32.9978 35.5751C33.0937 35.6488 33.1742 35.7406 33.2346 35.8454C33.295 35.9502 33.3342 36.0658 33.3499 36.1857C33.3656 36.3056 33.3576 36.4275 33.3262 36.5443C33.2948 36.6611 33.2408 36.7705 33.1671 36.8664C33.0934 36.9623 33.0016 37.0428 32.8968 37.1032L31.1231 38.1236C31.0185 38.1901 30.9015 38.2347 30.7792 38.2548C30.6569 38.2749 30.5318 38.27 30.4115 38.2405C30.2911 38.2109 30.178 38.1573 30.0789 38.0829C29.9798 38.0085 29.8968 37.9147 29.8349 37.8074C29.773 37.7 29.7335 37.5812 29.7187 37.4582C29.7039 37.3351 29.7142 37.2104 29.7489 37.0914C29.7836 36.9724 29.8421 36.8617 29.9207 36.7659C29.9994 36.6702 30.0966 36.5913 30.2065 36.5341L31.9811 35.5102L31.9768 35.5076ZM63.5116 37.1032C63.407 37.0433 63.3153 36.9634 63.2415 36.868C63.1678 36.7727 63.1136 36.6637 63.082 36.5474C63.0504 36.4311 63.042 36.3097 63.0573 36.1901C63.0726 36.0706 63.1113 35.9552 63.1712 35.8506C63.2311 35.746 63.311 35.6542 63.4064 35.5805C63.5017 35.5068 63.6107 35.4526 63.727 35.421C63.8433 35.3894 63.9647 35.381 64.0843 35.3963C64.2038 35.4116 64.3192 35.4503 64.4238 35.5102L66.1984 36.5341C66.4092 36.6552 66.5632 36.855 66.6267 37.0897C66.6901 37.3243 66.6577 37.5746 66.5366 37.7854C66.4156 37.9962 66.2157 38.1502 65.981 38.2137C65.7464 38.2771 65.4961 38.2447 65.2854 38.1236L63.5116 37.1032ZM66.407 28.1264C66.1678 28.1191 65.9408 28.0188 65.7742 27.847C65.6076 27.6752 65.5145 27.4453 65.5145 27.206C65.5145 26.9666 65.6076 26.7367 65.7742 26.5649C65.9408 26.3931 66.1678 26.2929 66.407 26.2855H68.4557C68.5789 26.2817 68.7017 26.3027 68.8167 26.3472C68.9317 26.3918 69.0366 26.459 69.1251 26.5448C69.2136 26.6307 69.284 26.7334 69.3321 26.847C69.3802 26.9606 69.4049 27.0826 69.4049 27.206C69.4049 27.3293 69.3802 27.4513 69.3321 27.5649C69.284 27.6785 69.2136 27.7812 69.1251 27.8671C69.0366 27.9529 68.9317 28.0201 68.8167 28.0647C68.7017 28.1092 68.5789 28.1302 68.4557 28.1264H66.407ZM64.4282 18.8947C64.2174 19.0167 63.9668 19.05 63.7315 18.9872C63.4961 18.9245 63.2954 18.7708 63.1734 18.56C63.0514 18.3492 63.0181 18.0986 63.0809 17.8633C63.1437 17.628 63.2974 17.4272 63.5081 17.3052L65.2827 16.2813C65.4935 16.1593 65.7441 16.126 65.9794 16.1888C66.2148 16.2516 66.4155 16.4053 66.5375 16.6161C66.6595 16.8268 66.6928 17.0775 66.63 17.3128C66.5672 17.5481 66.4135 17.7488 66.2028 17.8708L64.4282 18.8947ZM58.0997 11.8933C57.9786 12.1041 57.7788 12.2581 57.5441 12.3216C57.3095 12.385 57.0592 12.3526 56.8484 12.2315C56.6377 12.1105 56.4836 11.9106 56.4202 11.6759C56.3567 11.4413 56.3891 11.191 56.5102 10.9803L57.5341 9.20567C57.6553 8.99488 57.8552 8.84087 58.09 8.77752C58.3247 8.71417 58.575 8.74667 58.7858 8.86786C58.9966 8.98905 59.1506 9.18901 59.214 9.42376C59.2773 9.6585 59.2448 9.9088 59.1236 10.1196L58.0997 11.8933Z" fill="#C8F4BD"/>
<mask id="path-10-outside-1_139_188" maskUnits="userSpaceOnUse" x="26" y="6.74585" width="45" height="35" fill="black">
<rect fill="white" x="26" y="6.74585" width="45" height="35"/>
<path fill-rule="evenodd" clip-rule="evenodd" d="M49.1229 10.742C49.1267 10.8653 49.1057 10.9881 49.0612 11.103C49.0166 11.218 48.9494 11.3229 48.8636 11.4114C48.7777 11.5 48.675 11.5704 48.5614 11.6184C48.4479 11.6665 48.3258 11.6913 48.2025 11.6913C48.0791 11.6913 47.9571 11.6665 47.8435 11.6184C47.73 11.5704 47.6272 11.5 47.5413 11.4114C47.4555 11.3229 47.3883 11.218 47.3438 11.103C47.2992 10.9881 47.2782 10.8653 47.282 10.742V8.6951C47.2782 8.57183 47.2992 8.44907 47.3438 8.33407C47.3883 8.21908 47.4555 8.11421 47.5413 8.02568C47.6272 7.93714 47.73 7.86675 47.8435 7.81869C47.9571 7.77062 48.0791 7.74585 48.2025 7.74585C48.3258 7.74585 48.4479 7.77062 48.5614 7.81869C48.675 7.86675 48.7777 7.93714 48.8636 8.02568C48.9494 8.11421 49.0166 8.21908 49.0612 8.33407C49.1057 8.44907 49.1267 8.57183 49.1229 8.6951V10.742ZM39.8956 12.7226C39.956 12.827 39.9953 12.9422 40.0112 13.0618C40.027 13.1813 40.0192 13.3028 39.9881 13.4193C39.957 13.5358 39.9033 13.6451 39.83 13.7408C39.7567 13.8366 39.6652 13.917 39.5609 13.9774C39.3501 14.0994 39.0995 14.1327 38.8641 14.0699C38.6288 14.0071 38.4281 13.8534 38.3061 13.6426L37.2813 11.8689C37.1592 11.6581 37.1258 11.4075 37.1885 11.1721C37.2512 10.9367 37.4048 10.7358 37.6156 10.6137C37.8264 10.4916 38.0771 10.4582 38.3125 10.5209C38.5479 10.5836 38.7487 10.7372 38.8708 10.948L39.8956 12.7226ZM32.8942 19.0511C32.9985 19.111 33.0901 19.1909 33.1636 19.2863C33.237 19.3816 33.291 19.4905 33.3224 19.6066C33.3538 19.7228 33.3621 19.8441 33.3466 19.9635C33.3312 20.0828 33.2924 20.198 33.2324 20.3023C33.1725 20.4067 33.0925 20.4983 32.9972 20.5717C32.9019 20.6452 32.793 20.6992 32.6768 20.7306C32.5606 20.762 32.4394 20.7702 32.32 20.7548C32.2007 20.7393 32.0855 20.7005 31.9811 20.6406L30.2065 19.6167C30.1022 19.5567 30.0106 19.4767 29.9372 19.3813C29.8637 19.2859 29.8098 19.177 29.7784 19.0608C29.747 18.9446 29.7389 18.8233 29.7544 18.7039C29.7699 18.5845 29.8087 18.4693 29.8687 18.365C29.9287 18.2606 30.0087 18.1691 30.1041 18.0956C30.1995 18.0221 30.3084 17.9682 30.4246 17.9368C30.5409 17.9055 30.6621 17.8973 30.7815 17.9128C30.9009 17.9283 31.0161 17.9671 31.1205 18.0272L32.8942 19.0511ZM29.9979 28.0252C30.1212 28.0214 30.244 28.0424 30.3589 28.087C30.4739 28.1315 30.5788 28.1987 30.6673 28.2846C30.7559 28.3704 30.8263 28.4732 30.8743 28.5867C30.9224 28.7003 30.9472 28.8224 30.9472 28.9457C30.9472 29.069 30.9224 29.1911 30.8743 29.3046C30.8263 29.4182 30.7559 29.521 30.6673 29.6068C30.5788 29.6927 30.4739 29.7599 30.3589 29.8044C30.244 29.849 30.1212 29.87 29.9979 29.8662H27.9492C27.826 29.87 27.7032 29.849 27.5882 29.8044C27.4732 29.7599 27.3684 29.6927 27.2798 29.6068C27.1913 29.521 27.1209 29.4182 27.0728 29.3046C27.0248 29.1911 27 29.069 27 28.9457C27 28.8224 27.0248 28.7003 27.0728 28.5867C27.1209 28.4732 27.1913 28.3704 27.2798 28.2846C27.3684 28.1987 27.4732 28.1315 27.5882 28.087C27.7032 28.0424 27.826 28.0214 27.9492 28.0252H29.9979ZM31.9768 37.2534C32.0815 37.193 32.1972 37.1538 32.3171 37.1381C32.437 37.1224 32.5588 37.1305 32.6756 37.1618C32.7924 37.1932 32.9019 37.2473 32.9978 37.3209C33.0937 37.3946 33.1742 37.4865 33.2346 37.5912C33.295 37.696 33.3342 37.8116 33.3499 37.9316C33.3656 38.0515 33.3576 38.1733 33.3262 38.2901C33.2948 38.4069 33.2408 38.5164 33.1671 38.6123C33.0934 38.7082 33.0016 38.7887 32.8968 38.8491L31.1231 39.8695C31.0185 39.936 30.9015 39.9806 30.7792 40.0007C30.6569 40.0208 30.5318 40.0159 30.4115 39.9863C30.2911 39.9568 30.178 39.9032 30.0789 39.8288C29.9798 39.7543 29.8968 39.6606 29.8349 39.5532C29.773 39.4459 29.7335 39.3271 29.7187 39.204C29.7039 39.081 29.7142 38.9562 29.7489 38.8373C29.7836 38.7183 29.8421 38.6076 29.9207 38.5118C29.9994 38.416 30.0966 38.3371 30.2065 38.2799L31.9811 37.256L31.9768 37.2534ZM63.5116 38.8491C63.407 38.7892 63.3153 38.7093 63.2415 38.6139C63.1678 38.5185 63.1136 38.4096 63.082 38.2933C63.0504 38.177 63.042 38.0556 63.0573 37.936C63.0726 37.8164 63.1113 37.7011 63.1712 37.5965C63.2311 37.4919 63.311 37.4001 63.4064 37.3264C63.5017 37.2527 63.6107 37.1984 63.727 37.1668C63.8433 37.1352 63.9647 37.1268 64.0843 37.1421C64.2038 37.1574 64.3192 37.1961 64.4238 37.256L66.1984 38.2799C66.4092 38.401 66.5632 38.6009 66.6267 38.8355C66.6901 39.0702 66.6577 39.3204 66.5366 39.5312C66.4156 39.742 66.2157 39.8961 65.981 39.9595C65.7464 40.0229 65.4961 39.9905 65.2854 39.8695L63.5116 38.8491ZM66.407 29.8723C66.1678 29.8649 65.9408 29.7647 65.7742 29.5929C65.6076 29.4211 65.5145 29.1911 65.5145 28.9518C65.5145 28.7125 65.6076 28.4825 65.7742 28.3107C65.9408 28.1389 66.1678 28.0387 66.407 28.0313H68.4557C68.5789 28.0275 68.7017 28.0485 68.8167 28.0931C68.9317 28.1376 69.0366 28.2048 69.1251 28.2907C69.2136 28.3765 69.284 28.4793 69.3321 28.5929C69.3802 28.7064 69.4049 28.8285 69.4049 28.9518C69.4049 29.0751 69.3802 29.1972 69.3321 29.3108C69.284 29.4243 69.2136 29.5271 69.1251 29.6129C69.0366 29.6988 68.9317 29.766 68.8167 29.8105C68.7017 29.8551 68.5789 29.8761 68.4557 29.8723H66.407ZM64.4282 20.6406C64.2174 20.7626 63.9668 20.7959 63.7315 20.7331C63.4961 20.6703 63.2954 20.5166 63.1734 20.3058C63.0514 20.0951 63.0181 19.8444 63.0809 19.6091C63.1437 19.3738 63.2974 19.1731 63.5081 19.0511L65.2827 18.0272C65.4935 17.9052 65.7441 17.8719 65.9794 17.9347C66.2148 17.9974 66.4155 18.1511 66.5375 18.3619C66.6595 18.5727 66.6928 18.8233 66.63 19.0586C66.5672 19.2939 66.4135 19.4947 66.2028 19.6167L64.4282 20.6406ZM58.0997 13.6391C57.9786 13.8499 57.7788 14.004 57.5441 14.0674C57.3095 14.1308 57.0592 14.0985 56.8484 13.9774C56.6377 13.8563 56.4836 13.6565 56.4202 13.4218C56.3567 13.1871 56.3891 12.9369 56.5102 12.7261L57.5341 10.9515C57.6553 10.7407 57.8552 10.5867 58.09 10.5234C58.3247 10.46 58.575 10.4925 58.7858 10.6137C58.9966 10.7349 59.1506 10.9349 59.214 11.1696C59.2773 11.4044 59.2448 11.6546 59.1236 11.8654L58.0997 13.6391Z"/>
</mask>
<path fill-rule="evenodd" clip-rule="evenodd" d="M49.1229 10.742C49.1267 10.8653 49.1057 10.9881 49.0612 11.103C49.0166 11.218 48.9494 11.3229 48.8636 11.4114C48.7777 11.5 48.675 11.5704 48.5614 11.6184C48.4479 11.6665 48.3258 11.6913 48.2025 11.6913C48.0791 11.6913 47.9571 11.6665 47.8435 11.6184C47.73 11.5704 47.6272 11.5 47.5413 11.4114C47.4555 11.3229 47.3883 11.218 47.3438 11.103C47.2992 10.9881 47.2782 10.8653 47.282 10.742V8.6951C47.2782 8.57183 47.2992 8.44907 47.3438 8.33407C47.3883 8.21908 47.4555 8.11421 47.5413 8.02568C47.6272 7.93714 47.73 7.86675 47.8435 7.81869C47.9571 7.77062 48.0791 7.74585 48.2025 7.74585C48.3258 7.74585 48.4479 7.77062 48.5614 7.81869C48.675 7.86675 48.7777 7.93714 48.8636 8.02568C48.9494 8.11421 49.0166 8.21908 49.0612 8.33407C49.1057 8.44907 49.1267 8.57183 49.1229 8.6951V10.742ZM39.8956 12.7226C39.956 12.827 39.9953 12.9422 40.0112 13.0618C40.027 13.1813 40.0192 13.3028 39.9881 13.4193C39.957 13.5358 39.9033 13.6451 39.83 13.7408C39.7567 13.8366 39.6652 13.917 39.5609 13.9774C39.3501 14.0994 39.0995 14.1327 38.8641 14.0699C38.6288 14.0071 38.4281 13.8534 38.3061 13.6426L37.2813 11.8689C37.1592 11.6581 37.1258 11.4075 37.1885 11.1721C37.2512 10.9367 37.4048 10.7358 37.6156 10.6137C37.8264 10.4916 38.0771 10.4582 38.3125 10.5209C38.5479 10.5836 38.7487 10.7372 38.8708 10.948L39.8956 12.7226ZM32.8942 19.0511C32.9985 19.111 33.0901 19.1909 33.1636 19.2863C33.237 19.3816 33.291 19.4905 33.3224 19.6066C33.3538 19.7228 33.3621 19.8441 33.3466 19.9635C33.3312 20.0828 33.2924 20.198 33.2324 20.3023C33.1725 20.4067 33.0925 20.4983 32.9972 20.5717C32.9019 20.6452 32.793 20.6992 32.6768 20.7306C32.5606 20.762 32.4394 20.7702 32.32 20.7548C32.2007 20.7393 32.0855 20.7005 31.9811 20.6406L30.2065 19.6167C30.1022 19.5567 30.0106 19.4767 29.9372 19.3813C29.8637 19.2859 29.8098 19.177 29.7784 19.0608C29.747 18.9446 29.7389 18.8233 29.7544 18.7039C29.7699 18.5845 29.8087 18.4693 29.8687 18.365C29.9287 18.2606 30.0087 18.1691 30.1041 18.0956C30.1995 18.0221 30.3084 17.9682 30.4246 17.9368C30.5409 17.9055 30.6621 17.8973 30.7815 17.9128C30.9009 17.9283 31.0161 17.9671 31.1205 18.0272L32.8942 19.0511ZM29.9979 28.0252C30.1212 28.0214 30.244 28.0424 30.3589 28.087C30.4739 28.1315 30.5788 28.1987 30.6673 28.2846C30.7559 28.3704 30.8263 28.4732 30.8743 28.5867C30.9224 28.7003 30.9472 28.8224 30.9472 28.9457C30.9472 29.069 30.9224 29.1911 30.8743 29.3046C30.8263 29.4182 30.7559 29.521 30.6673 29.6068C30.5788 29.6927 30.4739 29.7599 30.3589 29.8044C30.244 29.849 30.1212 29.87 29.9979 29.8662H27.9492C27.826 29.87 27.7032 29.849 27.5882 29.8044C27.4732 29.7599 27.3684 29.6927 27.2798 29.6068C27.1913 29.521 27.1209 29.4182 27.0728 29.3046C27.0248 29.1911 27 29.069 27 28.9457C27 28.8224 27.0248 28.7003 27.0728 28.5867C27.1209 28.4732 27.1913 28.3704 27.2798 28.2846C27.3684 28.1987 27.4732 28.1315 27.5882 28.087C27.7032 28.0424 27.826 28.0214 27.9492 28.0252H29.9979ZM31.9768 37.2534C32.0815 37.193 32.1972 37.1538 32.3171 37.1381C32.437 37.1224 32.5588 37.1305 32.6756 37.1618C32.7924 37.1932 32.9019 37.2473 32.9978 37.3209C33.0937 37.3946 33.1742 37.4865 33.2346 37.5912C33.295 37.696 33.3342 37.8116 33.3499 37.9316C33.3656 38.0515 33.3576 38.1733 33.3262 38.2901C33.2948 38.4069 33.2408 38.5164 33.1671 38.6123C33.0934 38.7082 33.0016 38.7887 32.8968 38.8491L31.1231 39.8695C31.0185 39.936 30.9015 39.9806 30.7792 40.0007C30.6569 40.0208 30.5318 40.0159 30.4115 39.9863C30.2911 39.9568 30.178 39.9032 30.0789 39.8288C29.9798 39.7543 29.8968 39.6606 29.8349 39.5532C29.773 39.4459 29.7335 39.3271 29.7187 39.204C29.7039 39.081 29.7142 38.9562 29.7489 38.8373C29.7836 38.7183 29.8421 38.6076 29.9207 38.5118C29.9994 38.416 30.0966 38.3371 30.2065 38.2799L31.9811 37.256L31.9768 37.2534ZM63.5116 38.8491C63.407 38.7892 63.3153 38.7093 63.2415 38.6139C63.1678 38.5185 63.1136 38.4096 63.082 38.2933C63.0504 38.177 63.042 38.0556 63.0573 37.936C63.0726 37.8164 63.1113 37.7011 63.1712 37.5965C63.2311 37.4919 63.311 37.4001 63.4064 37.3264C63.5017 37.2527 63.6107 37.1984 63.727 37.1668C63.8433 37.1352 63.9647 37.1268 64.0843 37.1421C64.2038 37.1574 64.3192 37.1961 64.4238 37.256L66.1984 38.2799C66.4092 38.401 66.5632 38.6009 66.6267 38.8355C66.6901 39.0702 66.6577 39.3204 66.5366 39.5312C66.4156 39.742 66.2157 39.8961 65.981 39.9595C65.7464 40.0229 65.4961 39.9905 65.2854 39.8695L63.5116 38.8491ZM66.407 29.8723C66.1678 29.8649 65.9408 29.7647 65.7742 29.5929C65.6076 29.4211 65.5145 29.1911 65.5145 28.9518C65.5145 28.7125 65.6076 28.4825 65.7742 28.3107C65.9408 28.1389 66.1678 28.0387 66.407 28.0313H68.4557C68.5789 28.0275 68.7017 28.0485 68.8167 28.0931C68.9317 28.1376 69.0366 28.2048 69.1251 28.2907C69.2136 28.3765 69.284 28.4793 69.3321 28.5929C69.3802 28.7064 69.4049 28.8285 69.4049 28.9518C69.4049 29.0751 69.3802 29.1972 69.3321 29.3108C69.284 29.4243 69.2136 29.5271 69.1251 29.6129C69.0366 29.6988 68.9317 29.766 68.8167 29.8105C68.7017 29.8551 68.5789 29.8761 68.4557 29.8723H66.407ZM64.4282 20.6406C64.2174 20.7626 63.9668 20.7959 63.7315 20.7331C63.4961 20.6703 63.2954 20.5166 63.1734 20.3058C63.0514 20.0951 63.0181 19.8444 63.0809 19.6091C63.1437 19.3738 63.2974 19.1731 63.5081 19.0511L65.2827 18.0272C65.4935 17.9052 65.7441 17.8719 65.9794 17.9347C66.2148 17.9974 66.4155 18.1511 66.5375 18.3619C66.6595 18.5727 66.6928 18.8233 66.63 19.0586C66.5672 19.2939 66.4135 19.4947 66.2028 19.6167L64.4282 20.6406ZM58.0997 13.6391C57.9786 13.8499 57.7788 14.004 57.5441 14.0674C57.3095 14.1308 57.0592 14.0985 56.8484 13.9774C56.6377 13.8563 56.4836 13.6565 56.4202 13.4218C56.3567 13.1871 56.3891 12.9369 56.5102 12.7261L57.5341 10.9515C57.6553 10.7407 57.8552 10.5867 58.09 10.5234C58.3247 10.46 58.575 10.4925 58.7858 10.6137C58.9966 10.7349 59.1506 10.9349 59.214 11.1696C59.2773 11.4044 59.2448 11.6546 59.1236 11.8654L58.0997 13.6391Z" fill="#5DB947"/>
<path fill-rule="evenodd" clip-rule="evenodd" d="M49.1229 10.742C49.1267 10.8653 49.1057 10.9881 49.0612 11.103C49.0166 11.218 48.9494 11.3229 48.8636 11.4114C48.7777 11.5 48.675 11.5704 48.5614 11.6184C48.4479 11.6665 48.3258 11.6913 48.2025 11.6913C48.0791 11.6913 47.9571 11.6665 47.8435 11.6184C47.73 11.5704 47.6272 11.5 47.5413 11.4114C47.4555 11.3229 47.3883 11.218 47.3438 11.103C47.2992 10.9881 47.2782 10.8653 47.282 10.742V8.6951C47.2782 8.57183 47.2992 8.44907 47.3438 8.33407C47.3883 8.21908 47.4555 8.11421 47.5413 8.02568C47.6272 7.93714 47.73 7.86675 47.8435 7.81869C47.9571 7.77062 48.0791 7.74585 48.2025 7.74585C48.3258 7.74585 48.4479 7.77062 48.5614 7.81869C48.675 7.86675 48.7777 7.93714 48.8636 8.02568C48.9494 8.11421 49.0166 8.21908 49.0612 8.33407C49.1057 8.44907 49.1267 8.57183 49.1229 8.6951V10.742ZM39.8956 12.7226C39.956 12.827 39.9953 12.9422 40.0112 13.0618C40.027 13.1813 40.0192 13.3028 39.9881 13.4193C39.957 13.5358 39.9033 13.6451 39.83 13.7408C39.7567 13.8366 39.6652 13.917 39.5609 13.9774C39.3501 14.0994 39.0995 14.1327 38.8641 14.0699C38.6288 14.0071 38.4281 13.8534 38.3061 13.6426L37.2813 11.8689C37.1592 11.6581 37.1258 11.4075 37.1885 11.1721C37.2512 10.9367 37.4048 10.7358 37.6156 10.6137C37.8264 10.4916 38.0771 10.4582 38.3125 10.5209C38.5479 10.5836 38.7487 10.7372 38.8708 10.948L39.8956 12.7226ZM32.8942 19.0511C32.9985 19.111 33.0901 19.1909 33.1636 19.2863C33.237 19.3816 33.291 19.4905 33.3224 19.6066C33.3538 19.7228 33.3621 19.8441 33.3466 19.9635C33.3312 20.0828 33.2924 20.198 33.2324 20.3023C33.1725 20.4067 33.0925 20.4983 32.9972 20.5717C32.9019 20.6452 32.793 20.6992 32.6768 20.7306C32.5606 20.762 32.4394 20.7702 32.32 20.7548C32.2007 20.7393 32.0855 20.7005 31.9811 20.6406L30.2065 19.6167C30.1022 19.5567 30.0106 19.4767 29.9372 19.3813C29.8637 19.2859 29.8098 19.177 29.7784 19.0608C29.747 18.9446 29.7389 18.8233 29.7544 18.7039C29.7699 18.5845 29.8087 18.4693 29.8687 18.365C29.9287 18.2606 30.0087 18.1691 30.1041 18.0956C30.1995 18.0221 30.3084 17.9682 30.4246 17.9368C30.5409 17.9055 30.6621 17.8973 30.7815 17.9128C30.9009 17.9283 31.0161 17.9671 31.1205 18.0272L32.8942 19.0511ZM29.9979 28.0252C30.1212 28.0214 30.244 28.0424 30.3589 28.087C30.4739 28.1315 30.5788 28.1987 30.6673 28.2846C30.7559 28.3704 30.8263 28.4732 30.8743 28.5867C30.9224 28.7003 30.9472 28.8224 30.9472 28.9457C30.9472 29.069 30.9224 29.1911 30.8743 29.3046C30.8263 29.4182 30.7559 29.521 30.6673 29.6068C30.5788 29.6927 30.4739 29.7599 30.3589 29.8044C30.244 29.849 30.1212 29.87 29.9979 29.8662H27.9492C27.826 29.87 27.7032 29.849 27.5882 29.8044C27.4732 29.7599 27.3684 29.6927 27.2798 29.6068C27.1913 29.521 27.1209 29.4182 27.0728 29.3046C27.0248 29.1911 27 29.069 27 28.9457C27 28.8224 27.0248 28.7003 27.0728 28.5867C27.1209 28.4732 27.1913 28.3704 27.2798 28.2846C27.3684 28.1987 27.4732 28.1315 27.5882 28.087C27.7032 28.0424 27.826 28.0214 27.9492 28.0252H29.9979ZM31.9768 37.2534C32.0815 37.193 32.1972 37.1538 32.3171 37.1381C32.437 37.1224 32.5588 37.1305 32.6756 37.1618C32.7924 37.1932 32.9019 37.2473 32.9978 37.3209C33.0937 37.3946 33.1742 37.4865 33.2346 37.5912C33.295 37.696 33.3342 37.8116 33.3499 37.9316C33.3656 38.0515 33.3576 38.1733 33.3262 38.2901C33.2948 38.4069 33.2408 38.5164 33.1671 38.6123C33.0934 38.7082 33.0016 38.7887 32.8968 38.8491L31.1231 39.8695C31.0185 39.936 30.9015 39.9806 30.7792 40.0007C30.6569 40.0208 30.5318 40.0159 30.4115 39.9863C30.2911 39.9568 30.178 39.9032 30.0789 39.8288C29.9798 39.7543 29.8968 39.6606 29.8349 39.5532C29.773 39.4459 29.7335 39.3271 29.7187 39.204C29.7039 39.081 29.7142 38.9562 29.7489 38.8373C29.7836 38.7183 29.8421 38.6076 29.9207 38.5118C29.9994 38.416 30.0966 38.3371 30.2065 38.2799L31.9811 37.256L31.9768 37.2534ZM63.5116 38.8491C63.407 38.7892 63.3153 38.7093 63.2415 38.6139C63.1678 38.5185 63.1136 38.4096 63.082 38.2933C63.0504 38.177 63.042 38.0556 63.0573 37.936C63.0726 37.8164 63.1113 37.7011 63.1712 37.5965C63.2311 37.4919 63.311 37.4001 63.4064 37.3264C63.5017 37.2527 63.6107 37.1984 63.727 37.1668C63.8433 37.1352 63.9647 37.1268 64.0843 37.1421C64.2038 37.1574 64.3192 37.1961 64.4238 37.256L66.1984 38.2799C66.4092 38.401 66.5632 38.6009 66.6267 38.8355C66.6901 39.0702 66.6577 39.3204 66.5366 39.5312C66.4156 39.742 66.2157 39.8961 65.981 39.9595C65.7464 40.0229 65.4961 39.9905 65.2854 39.8695L63.5116 38.8491ZM66.407 29.8723C66.1678 29.8649 65.9408 29.7647 65.7742 29.5929C65.6076 29.4211 65.5145 29.1911 65.5145 28.9518C65.5145 28.7125 65.6076 28.4825 65.7742 28.3107C65.9408 28.1389 66.1678 28.0387 66.407 28.0313H68.4557C68.5789 28.0275 68.7017 28.0485 68.8167 28.0931C68.9317 28.1376 69.0366 28.2048 69.1251 28.2907C69.2136 28.3765 69.284 28.4793 69.3321 28.5929C69.3802 28.7064 69.4049 28.8285 69.4049 28.9518C69.4049 29.0751 69.3802 29.1972 69.3321 29.3108C69.284 29.4243 69.2136 29.5271 69.1251 29.6129C69.0366 29.6988 68.9317 29.766 68.8167 29.8105C68.7017 29.8551 68.5789 29.8761 68.4557 29.8723H66.407ZM64.4282 20.6406C64.2174 20.7626 63.9668 20.7959 63.7315 20.7331C63.4961 20.6703 63.2954 20.5166 63.1734 20.3058C63.0514 20.0951 63.0181 19.8444 63.0809 19.6091C63.1437 19.3738 63.2974 19.1731 63.5081 19.0511L65.2827 18.0272C65.4935 17.9052 65.7441 17.8719 65.9794 17.9347C66.2148 17.9974 66.4155 18.1511 66.5375 18.3619C66.6595 18.5727 66.6928 18.8233 66.63 19.0586C66.5672 19.2939 66.4135 19.4947 66.2028 19.6167L64.4282 20.6406ZM58.0997 13.6391C57.9786 13.8499 57.7788 14.004 57.5441 14.0674C57.3095 14.1308 57.0592 14.0985 56.8484 13.9774C56.6377 13.8563 56.4836 13.6565 56.4202 13.4218C56.3567 13.1871 56.3891 12.9369 56.5102 12.7261L57.5341 10.9515C57.6553 10.7407 57.8552 10.5867 58.09 10.5234C58.3247 10.46 58.575 10.4925 58.7858 10.6137C58.9966 10.7349 59.1506 10.9349 59.214 11.1696C59.2773 11.4044 59.2448 11.6546 59.1236 11.8654L58.0997 13.6391Z" stroke="black" stroke-width="2" mask="url(#path-10-outside-1_139_188)"/>
<path fill-rule="evenodd" clip-rule="evenodd" d="M51.9147 32.2782H52.8949C53.0873 32.277 53.275 32.2189 53.4344 32.1111C53.5937 32.0034 53.7177 31.8509 53.7905 31.6729C53.8633 31.4948 53.8818 31.2992 53.8436 31.1106C53.8054 30.9221 53.7122 30.7491 53.5758 30.6134C53.4394 30.4778 53.2659 30.3855 53.0772 30.3483C52.8884 30.3111 52.6929 30.3307 52.5152 30.4044C52.3376 30.4782 52.1857 30.6029 52.0789 30.7629C51.972 30.9228 51.9149 31.1108 51.9147 31.3032V32.2782ZM45.0066 32.2782H45.9869V31.3032C45.9865 31.111 45.9293 30.9232 45.8224 30.7635C45.7154 30.6038 45.5636 30.4793 45.3861 30.4058C45.2085 30.3322 45.0131 30.3129 44.8246 30.3502C44.636 30.3875 44.4628 30.4799 44.3266 30.6155C44.1905 30.7512 44.0976 30.9241 44.0596 31.1125C44.0216 31.3009 44.0402 31.4964 44.1131 31.6742C44.186 31.852 44.3099 32.0043 44.4693 32.1118C44.6286 32.2193 44.8162 32.2772 45.0084 32.2782H45.0066ZM56.2294 45.7513H41.6722V47.6978C41.6747 48.2132 41.8806 48.7068 42.2452 49.0711C42.6097 49.4355 43.1033 49.6412 43.6187 49.6435H54.2828C54.7982 49.6412 55.2919 49.4355 55.6564 49.0711C56.0209 48.7068 56.2268 48.2132 56.2294 47.6978V45.7513ZM47.8278 43.9104H50.0711V34.1191H47.8278V43.9104ZM41.6687 43.9104C41.6949 42.3918 41.5562 40.8748 41.2549 39.3862C40.8041 37.4879 39.948 35.7096 38.7454 34.1733C38.0538 33.2457 37.5132 32.2146 37.1436 31.1181C36.7829 30.0375 36.5998 28.9055 36.6016 27.7663C36.6108 26.2535 36.9347 24.7591 37.5526 23.3783C38.1706 21.9974 39.069 20.7602 40.1909 19.7453C42.6 17.587 45.7207 16.3935 48.9551 16.3935C52.1896 16.3935 55.3103 17.587 57.7194 19.7453C58.8413 20.7602 59.7397 21.9974 60.3577 23.3783C60.9756 24.7591 61.2995 26.2535 61.3087 27.7663C61.3106 28.9055 61.1275 30.0375 60.7666 31.1181C60.3971 32.2146 59.8565 33.2457 59.1649 34.1733C57.9626 35.7097 57.1068 37.488 56.6562 39.3862C56.3532 40.8746 56.2127 42.3916 56.2372 43.9104H51.9147V34.1191H52.8888C53.4452 34.1185 53.9889 33.9529 54.4512 33.6433C54.9135 33.3337 55.2736 32.8941 55.4861 32.3799C55.6987 31.8657 55.754 31.3001 55.6452 30.7544C55.5363 30.2088 55.2682 29.7077 54.8746 29.3144C54.4811 28.9211 53.9798 28.6533 53.4341 28.5448C52.8884 28.4363 52.3228 28.492 51.8088 28.7048C51.2947 28.9176 50.8553 29.2781 50.546 29.7406C50.2367 30.203 50.0715 30.7468 50.0711 31.3032V32.2773H47.8278V31.3032C47.8278 30.7464 47.6627 30.2022 47.3534 29.7392C47.0441 29.2763 46.6044 28.9155 46.09 28.7024C45.5756 28.4894 45.0096 28.4336 44.4635 28.5422C43.9175 28.6508 43.4159 28.919 43.0222 29.3126C42.6285 29.7063 42.3604 30.2079 42.2518 30.754C42.1431 31.3001 42.1989 31.8661 42.412 32.3805C42.625 32.8949 42.9858 33.3345 43.4488 33.6438C43.9117 33.9532 44.456 34.1183 45.0127 34.1183H45.9869V43.9104H41.6687ZM45.2702 51.4853V52.7807C45.2721 53.1238 45.4093 53.4523 45.652 53.6949C45.8947 53.9375 46.2233 54.0744 46.5665 54.076H51.3325C51.6754 54.0742 52.0039 53.9371 52.2464 53.6946C52.4889 53.4521 52.626 53.1236 52.6278 52.7807V51.4853H45.2702ZM98.987 14.8108L75.0742 35.2539C74.889 35.4123 74.6484 35.4905 74.4055 35.4716C74.1626 35.4526 73.9372 35.3378 73.7788 35.1526C73.6205 34.9674 73.5422 34.7269 73.5612 34.484C73.5801 34.2411 73.6949 34.0156 73.8801 33.8573L97.7972 13.4142L93.4503 13.0738C93.3289 13.0661 93.2103 13.0344 93.1012 12.9806C92.9922 12.9268 92.895 12.8518 92.8151 12.7601C92.7352 12.6684 92.6744 12.5618 92.636 12.4464C92.5977 12.331 92.5826 12.2092 92.5916 12.0879C92.6007 11.9667 92.6337 11.8484 92.6888 11.74C92.7439 11.6316 92.82 11.5352 92.9126 11.4564C93.0052 11.3776 93.1125 11.318 93.2283 11.281C93.3441 11.2439 93.4662 11.2303 93.5873 11.2407L100.149 11.754C100.392 11.7723 100.618 11.8863 100.777 12.0711C100.936 12.2559 101.015 12.4963 100.997 12.7395L100.481 19.301C100.473 19.4223 100.441 19.541 100.387 19.65C100.333 19.759 100.259 19.8563 100.167 19.9361C100.075 20.016 99.9685 20.0769 99.8531 20.1152C99.7378 20.1536 99.6159 20.1687 99.4947 20.1596C99.3734 20.1505 99.2551 20.1175 99.1467 20.0624C99.0383 20.0073 98.942 19.9313 98.8632 19.8387C98.7844 19.746 98.7247 19.6387 98.6877 19.5229C98.6507 19.4071 98.637 19.2851 98.6474 19.1639L98.987 14.8108Z" fill="#C8F4BD"/>
<mask id="path-12-outside-2_139_188" maskUnits="userSpaceOnUse" x="34.729" y="9.3645" width="67" height="45" fill="black">
<rect fill="white" x="34.729" y="9.3645" width="67" height="45"/>
<path fill-rule="evenodd" clip-rule="evenodd" d="M51.0421 31.4054H52.0224C52.2147 31.4042 52.4024 31.3461 52.5618 31.2383C52.7212 31.1306 52.8451 30.9781 52.9179 30.8C52.9907 30.622 53.0092 30.4264 52.971 30.2378C52.9328 30.0493 52.8396 29.8763 52.7032 29.7406C52.5668 29.605 52.3933 29.5127 52.2046 29.4755C52.0159 29.4383 51.8203 29.4579 51.6427 29.5316C51.465 29.6054 51.3132 29.7301 51.2063 29.8901C51.0994 30.05 51.0423 30.238 51.0421 30.4304V31.4054ZM44.1341 31.4054H45.1143V30.4304C45.114 30.2382 45.0567 30.0504 44.9498 29.8907C44.8429 29.731 44.6911 29.6065 44.5135 29.533C44.3359 29.4594 44.1406 29.4401 43.952 29.4774C43.7635 29.5147 43.5902 29.6071 43.4541 29.7427C43.3179 29.8784 43.225 30.0513 43.187 30.2397C43.149 30.4281 43.1676 30.6236 43.2405 30.8014C43.3135 30.9792 43.4374 31.1315 43.5967 31.239C43.756 31.3465 43.9436 31.4044 44.1358 31.4054H44.1341ZM55.3568 44.8785H40.7996V46.825C40.8022 47.3404 41.0081 47.834 41.3726 48.1983C41.7371 48.5627 42.2308 48.7684 42.7462 48.7707H53.4103C53.9257 48.7684 54.4193 48.5627 54.7838 48.1983C55.1484 47.834 55.3543 47.3404 55.3568 46.825V44.8785ZM46.9553 43.0375H49.1986V33.2463H46.9553V43.0375ZM40.7961 43.0375C40.8223 41.519 40.6836 40.002 40.3824 38.5134C39.9315 36.6151 39.0754 34.8368 37.8728 33.3005C37.1812 32.3729 36.6407 31.3418 36.2711 30.2453C35.9103 29.1647 35.7272 28.0327 35.729 26.8935C35.7383 25.3807 36.0621 23.8863 36.6801 22.5055C37.298 21.1246 38.1965 19.8874 39.3183 18.8725C41.7274 16.7142 44.8481 15.5207 48.0826 15.5207C51.317 15.5207 54.4378 16.7142 56.8468 18.8725C57.9687 19.8874 58.8672 21.1246 59.4851 22.5055C60.103 23.8863 60.4269 25.3807 60.4361 26.8935C60.438 28.0327 60.2549 29.1647 59.8941 30.2453C59.5245 31.3418 58.9839 32.3729 58.2923 33.3005C57.0901 34.8369 56.2343 36.6152 55.7837 38.5134C55.4807 40.0018 55.3402 41.5188 55.3647 43.0375H51.0421V33.2463H52.0163C52.5726 33.2456 53.1163 33.0801 53.5786 32.7705C54.0409 32.4609 54.4011 32.0213 54.6136 31.5071C54.8261 30.9929 54.8814 30.4273 54.7726 29.8816C54.6638 29.336 54.3956 28.8349 54.0021 28.4416C53.6086 28.0483 53.1073 27.7805 52.5616 27.672C52.0159 27.5635 51.4503 27.6192 50.9362 27.832C50.4222 28.0448 49.9827 28.4053 49.6735 28.8678C49.3642 29.3302 49.1989 29.874 49.1986 30.4304V31.4045H46.9553V30.4304C46.9553 29.8736 46.7902 29.3294 46.4808 28.8664C46.1715 28.4035 45.7318 28.0427 45.2175 27.8296C44.7031 27.6166 44.1371 27.5608 43.591 27.6694C43.0449 27.778 42.5433 28.0461 42.1496 28.4398C41.7559 28.8335 41.4878 29.3351 41.3792 29.8812C41.2706 30.4273 41.3263 30.9933 41.5394 31.5077C41.7525 32.0221 42.1133 32.4617 42.5762 32.771C43.0391 33.0804 43.5834 33.2455 44.1402 33.2455H45.1143V43.0375H40.7961ZM44.3977 50.6125V51.9079C44.3995 52.251 44.5367 52.5795 44.7794 52.8221C45.0221 53.0647 45.3508 53.2016 45.6939 53.2032H50.4599C50.8029 53.2014 51.1313 53.0643 51.3738 52.8218C51.6164 52.5793 51.7534 52.2508 51.7553 51.9079V50.6125H44.3977ZM98.1144 13.938L74.2016 34.3811C74.0164 34.5394 73.7759 34.6177 73.533 34.5988C73.29 34.5798 73.0646 34.465 72.9063 34.2798C72.7479 34.0946 72.6696 33.8541 72.6886 33.6112C72.7076 33.3683 72.8223 33.1428 73.0075 32.9845L96.9247 12.5414L92.5777 12.201C92.4563 12.1933 92.3377 12.1616 92.2287 12.1078C92.1197 12.054 92.0224 11.979 91.9425 11.8873C91.8627 11.7956 91.8018 11.689 91.7635 11.5736C91.7251 11.4582 91.71 11.3364 91.7191 11.2151C91.7281 11.0939 91.7612 10.9756 91.8163 10.8672C91.8714 10.7588 91.9474 10.6624 92.04 10.5836C92.1326 10.5048 92.2399 10.4452 92.3558 10.4082C92.4716 10.3711 92.5936 10.3574 92.7147 10.3679L99.2762 10.8812C99.5194 10.8995 99.7453 11.0135 99.9044 11.1983C100.064 11.3831 100.143 11.6235 100.125 11.8667L99.6079 18.4282C99.6003 18.5495 99.5686 18.6681 99.5148 18.7772C99.4609 18.8862 99.386 18.9835 99.2943 19.0633C99.2026 19.1432 99.096 19.2041 98.9806 19.2424C98.8652 19.2808 98.7434 19.2959 98.6221 19.2868C98.5008 19.2777 98.3826 19.2447 98.2742 19.1896C98.1658 19.1345 98.0694 19.0585 97.9906 18.9659C97.9118 18.8732 97.8522 18.7659 97.8151 18.6501C97.7781 18.5343 97.7644 18.4123 97.7749 18.2911L98.1144 13.938Z"/>
</mask>
<path fill-rule="evenodd" clip-rule="evenodd" d="M51.0421 31.4054H52.0224C52.2147 31.4042 52.4024 31.3461 52.5618 31.2383C52.7212 31.1306 52.8451 30.9781 52.9179 30.8C52.9907 30.622 53.0092 30.4264 52.971 30.2378C52.9328 30.0493 52.8396 29.8763 52.7032 29.7406C52.5668 29.605 52.3933 29.5127 52.2046 29.4755C52.0159 29.4383 51.8203 29.4579 51.6427 29.5316C51.465 29.6054 51.3132 29.7301 51.2063 29.8901C51.0994 30.05 51.0423 30.238 51.0421 30.4304V31.4054ZM44.1341 31.4054H45.1143V30.4304C45.114 30.2382 45.0567 30.0504 44.9498 29.8907C44.8429 29.731 44.6911 29.6065 44.5135 29.533C44.3359 29.4594 44.1406 29.4401 43.952 29.4774C43.7635 29.5147 43.5902 29.6071 43.4541 29.7427C43.3179 29.8784 43.225 30.0513 43.187 30.2397C43.149 30.4281 43.1676 30.6236 43.2405 30.8014C43.3135 30.9792 43.4374 31.1315 43.5967 31.239C43.756 31.3465 43.9436 31.4044 44.1358 31.4054H44.1341ZM55.3568 44.8785H40.7996V46.825C40.8022 47.3404 41.0081 47.834 41.3726 48.1983C41.7371 48.5627 42.2308 48.7684 42.7462 48.7707H53.4103C53.9257 48.7684 54.4193 48.5627 54.7838 48.1983C55.1484 47.834 55.3543 47.3404 55.3568 46.825V44.8785ZM46.9553 43.0375H49.1986V33.2463H46.9553V43.0375ZM40.7961 43.0375C40.8223 41.519 40.6836 40.002 40.3824 38.5134C39.9315 36.6151 39.0754 34.8368 37.8728 33.3005C37.1812 32.3729 36.6407 31.3418 36.2711 30.2453C35.9103 29.1647 35.7272 28.0327 35.729 26.8935C35.7383 25.3807 36.0621 23.8863 36.6801 22.5055C37.298 21.1246 38.1965 19.8874 39.3183 18.8725C41.7274 16.7142 44.8481 15.5207 48.0826 15.5207C51.317 15.5207 54.4378 16.7142 56.8468 18.8725C57.9687 19.8874 58.8672 21.1246 59.4851 22.5055C60.103 23.8863 60.4269 25.3807 60.4361 26.8935C60.438 28.0327 60.2549 29.1647 59.8941 30.2453C59.5245 31.3418 58.9839 32.3729 58.2923 33.3005C57.0901 34.8369 56.2343 36.6152 55.7837 38.5134C55.4807 40.0018 55.3402 41.5188 55.3647 43.0375H51.0421V33.2463H52.0163C52.5726 33.2456 53.1163 33.0801 53.5786 32.7705C54.0409 32.4609 54.4011 32.0213 54.6136 31.5071C54.8261 30.9929 54.8814 30.4273 54.7726 29.8816C54.6638 29.336 54.3956 28.8349 54.0021 28.4416C53.6086 28.0483 53.1073 27.7805 52.5616 27.672C52.0159 27.5635 51.4503 27.6192 50.9362 27.832C50.4222 28.0448 49.9827 28.4053 49.6735 28.8678C49.3642 29.3302 49.1989 29.874 49.1986 30.4304V31.4045H46.9553V30.4304C46.9553 29.8736 46.7902 29.3294 46.4808 28.8664C46.1715 28.4035 45.7318 28.0427 45.2175 27.8296C44.7031 27.6166 44.1371 27.5608 43.591 27.6694C43.0449 27.778 42.5433 28.0461 42.1496 28.4398C41.7559 28.8335 41.4878 29.3351 41.3792 29.8812C41.2706 30.4273 41.3263 30.9933 41.5394 31.5077C41.7525 32.0221 42.1133 32.4617 42.5762 32.771C43.0391 33.0804 43.5834 33.2455 44.1402 33.2455H45.1143V43.0375H40.7961ZM44.3977 50.6125V51.9079C44.3995 52.251 44.5367 52.5795 44.7794 52.8221C45.0221 53.0647 45.3508 53.2016 45.6939 53.2032H50.4599C50.8029 53.2014 51.1313 53.0643 51.3738 52.8218C51.6164 52.5793 51.7534 52.2508 51.7553 51.9079V50.6125H44.3977ZM98.1144 13.938L74.2016 34.3811C74.0164 34.5394 73.7759 34.6177 73.533 34.5988C73.29 34.5798 73.0646 34.465 72.9063 34.2798C72.7479 34.0946 72.6696 33.8541 72.6886 33.6112C72.7076 33.3683 72.8223 33.1428 73.0075 32.9845L96.9247 12.5414L92.5777 12.201C92.4563 12.1933 92.3377 12.1616 92.2287 12.1078C92.1197 12.054 92.0224 11.979 91.9425 11.8873C91.8627 11.7956 91.8018 11.689 91.7635 11.5736C91.7251 11.4582 91.71 11.3364 91.7191 11.2151C91.7281 11.0939 91.7612 10.9756 91.8163 10.8672C91.8714 10.7588 91.9474 10.6624 92.04 10.5836C92.1326 10.5048 92.2399 10.4452 92.3558 10.4082C92.4716 10.3711 92.5936 10.3574 92.7147 10.3679L99.2762 10.8812C99.5194 10.8995 99.7453 11.0135 99.9044 11.1983C100.064 11.3831 100.143 11.6235 100.125 11.8667L99.6079 18.4282C99.6003 18.5495 99.5686 18.6681 99.5148 18.7772C99.4609 18.8862 99.386 18.9835 99.2943 19.0633C99.2026 19.1432 99.096 19.2041 98.9806 19.2424C98.8652 19.2808 98.7434 19.2959 98.6221 19.2868C98.5008 19.2777 98.3826 19.2447 98.2742 19.1896C98.1658 19.1345 98.0694 19.0585 97.9906 18.9659C97.9118 18.8732 97.8522 18.7659 97.8151 18.6501C97.7781 18.5343 97.7644 18.4123 97.7749 18.2911L98.1144 13.938Z" fill="white"/>
<path fill-rule="evenodd" clip-rule="evenodd" d="M51.0421 31.4054H52.0224C52.2147 31.4042 52.4024 31.3461 52.5618 31.2383C52.7212 31.1306 52.8451 30.9781 52.9179 30.8C52.9907 30.622 53.0092 30.4264 52.971 30.2378C52.9328 30.0493 52.8396 29.8763 52.7032 29.7406C52.5668 29.605 52.3933 29.5127 52.2046 29.4755C52.0159 29.4383 51.8203 29.4579 51.6427 29.5316C51.465 29.6054 51.3132 29.7301 51.2063 29.8901C51.0994 30.05 51.0423 30.238 51.0421 30.4304V31.4054ZM44.1341 31.4054H45.1143V30.4304C45.114 30.2382 45.0567 30.0504 44.9498 29.8907C44.8429 29.731 44.6911 29.6065 44.5135 29.533C44.3359 29.4594 44.1406 29.4401 43.952 29.4774C43.7635 29.5147 43.5902 29.6071 43.4541 29.7427C43.3179 29.8784 43.225 30.0513 43.187 30.2397C43.149 30.4281 43.1676 30.6236 43.2405 30.8014C43.3135 30.9792 43.4374 31.1315 43.5967 31.239C43.756 31.3465 43.9436 31.4044 44.1358 31.4054H44.1341ZM55.3568 44.8785H40.7996V46.825C40.8022 47.3404 41.0081 47.834 41.3726 48.1983C41.7371 48.5627 42.2308 48.7684 42.7462 48.7707H53.4103C53.9257 48.7684 54.4193 48.5627 54.7838 48.1983C55.1484 47.834 55.3543 47.3404 55.3568 46.825V44.8785ZM46.9553 43.0375H49.1986V33.2463H46.9553V43.0375ZM40.7961 43.0375C40.8223 41.519 40.6836 40.002 40.3824 38.5134C39.9315 36.6151 39.0754 34.8368 37.8728 33.3005C37.1812 32.3729 36.6407 31.3418 36.2711 30.2453C35.9103 29.1647 35.7272 28.0327 35.729 26.8935C35.7383 25.3807 36.0621 23.8863 36.6801 22.5055C37.298 21.1246 38.1965 19.8874 39.3183 18.8725C41.7274 16.7142 44.8481 15.5207 48.0826 15.5207C51.317 15.5207 54.4378 16.7142 56.8468 18.8725C57.9687 19.8874 58.8672 21.1246 59.4851 22.5055C60.103 23.8863 60.4269 25.3807 60.4361 26.8935C60.438 28.0327 60.2549 29.1647 59.8941 30.2453C59.5245 31.3418 58.9839 32.3729 58.2923 33.3005C57.0901 34.8369 56.2343 36.6152 55.7837 38.5134C55.4807 40.0018 55.3402 41.5188 55.3647 43.0375H51.0421V33.2463H52.0163C52.5726 33.2456 53.1163 33.0801 53.5786 32.7705C54.0409 32.4609 54.4011 32.0213 54.6136 31.5071C54.8261 30.9929 54.8814 30.4273 54.7726 29.8816C54.6638 29.336 54.3956 28.8349 54.0021 28.4416C53.6086 28.0483 53.1073 27.7805 52.5616 27.672C52.0159 27.5635 51.4503 27.6192 50.9362 27.832C50.4222 28.0448 49.9827 28.4053 49.6735 28.8678C49.3642 29.3302 49.1989 29.874 49.1986 30.4304V31.4045H46.9553V30.4304C46.9553 29.8736 46.7902 29.3294 46.4808 28.8664C46.1715 28.4035 45.7318 28.0427 45.2175 27.8296C44.7031 27.6166 44.1371 27.5608 43.591 27.6694C43.0449 27.778 42.5433 28.0461 42.1496 28.4398C41.7559 28.8335 41.4878 29.3351 41.3792 29.8812C41.2706 30.4273 41.3263 30.9933 41.5394 31.5077C41.7525 32.0221 42.1133 32.4617 42.5762 32.771C43.0391 33.0804 43.5834 33.2455 44.1402 33.2455H45.1143V43.0375H40.7961ZM44.3977 50.6125V51.9079C44.3995 52.251 44.5367 52.5795 44.7794 52.8221C45.0221 53.0647 45.3508 53.2016 45.6939 53.2032H50.4599C50.8029 53.2014 51.1313 53.0643 51.3738 52.8218C51.6164 52.5793 51.7534 52.2508 51.7553 51.9079V50.6125H44.3977ZM98.1144 13.938L74.2016 34.3811C74.0164 34.5394 73.7759 34.6177 73.533 34.5988C73.29 34.5798 73.0646 34.465 72.9063 34.2798C72.7479 34.0946 72.6696 33.8541 72.6886 33.6112C72.7076 33.3683 72.8223 33.1428 73.0075 32.9845L96.9247 12.5414L92.5777 12.201C92.4563 12.1933 92.3377 12.1616 92.2287 12.1078C92.1197 12.054 92.0224 11.979 91.9425 11.8873C91.8627 11.7956 91.8018 11.689 91.7635 11.5736C91.7251 11.4582 91.71 11.3364 91.7191 11.2151C91.7281 11.0939 91.7612 10.9756 91.8163 10.8672C91.8714 10.7588 91.9474 10.6624 92.04 10.5836C92.1326 10.5048 92.2399 10.4452 92.3558 10.4082C92.4716 10.3711 92.5936 10.3574 92.7147 10.3679L99.2762 10.8812C99.5194 10.8995 99.7453 11.0135 99.9044 11.1983C100.064 11.3831 100.143 11.6235 100.125 11.8667L99.6079 18.4282C99.6003 18.5495 99.5686 18.6681 99.5148 18.7772C99.4609 18.8862 99.386 18.9835 99.2943 19.0633C99.2026 19.1432 99.096 19.2041 98.9806 19.2424C98.8652 19.2808 98.7434 19.2959 98.6221 19.2868C98.5008 19.2777 98.3826 19.2447 98.2742 19.1896C98.1658 19.1345 98.0694 19.0585 97.9906 18.9659C97.9118 18.8732 97.8522 18.7659 97.8151 18.6501C97.7781 18.5343 97.7644 18.4123 97.7749 18.2911L98.1144 13.938Z" stroke="black" stroke-width="2" mask="url(#path-12-outside-2_139_188)"/>
<path fill-rule="evenodd" clip-rule="evenodd" d="M83.7379 46.4072C83.7379 45.3027 82.8424 44.4072 81.7379 44.4072H77.2935C76.1889 44.4072 75.2935 45.3027 75.2935 46.4072V83.433C75.2935 84.5376 76.1889 85.433 77.2935 85.433H81.7379C82.8424 85.433 83.7379 84.5376 83.7379 83.433L83.7379 46.4072ZM52.0294 61.915C52.0294 60.8105 51.134 59.915 50.0294 59.915H45.585C44.4804 59.915 43.585 60.8105 43.585 61.915V83.433C43.585 84.5376 44.4804 85.433 45.585 85.433H50.0294C51.134 85.433 52.0294 84.5376 52.0294 83.433V61.915Z" fill="#C8F4BD"/>
<path d="M80.9923 45.6528H74.5478C73.7194 45.6528 73.0478 46.3244 73.0478 47.1528V83.56C73.0478 84.3884 73.7194 85.06 74.5478 85.06H80.9923C81.8207 85.06 82.4923 84.3884 82.4923 83.56V47.1528C82.4923 46.3244 81.8207 45.6528 80.9923 45.6528ZM49.2838 61.1459H42.8394C42.0109 61.1459 41.3394 61.8174 41.3394 62.6459V83.56C41.3394 84.3884 42.0109 85.06 42.8394 85.06H49.2838C50.1122 85.06 50.7838 84.3884 50.7838 83.56V62.6459C50.7838 61.8174 50.1122 61.1459 49.2838 61.1459Z" fill="white" stroke="black"/>
</svg>
