<svg width="128" height="100" viewBox="0 0 128 100" fill="none" xmlns="http://www.w3.org/2000/svg">
<path d="M16.1541 48.847C16.2528 48.945 16.3866 49 16.5261 49C16.6657 49 16.7995 48.945 16.8982 48.847L19.5032 46.261L22.1081 48.847C22.2074 48.9422 22.3403 48.9949 22.4783 48.9937C22.6163 48.9925 22.7483 48.9375 22.8459 48.8407C22.9434 48.7438 22.9988 48.6128 23 48.4758C23.0012 48.3388 22.9481 48.2069 22.8523 48.1083L19.8752 45.153C19.7766 45.055 19.6427 45 19.5032 45C19.3636 45 19.2298 45.055 19.1311 45.153L16.1541 48.1083C16.0554 48.2063 16 48.3392 16 48.4777C16 48.6162 16.0554 48.7491 16.1541 48.847Z" fill="#5DB947"/>
<path d="M3.15408 66.847C3.25277 66.945 3.3866 67 3.52614 67C3.66569 67 3.79952 66.945 3.89821 66.847L6.50318 64.261L9.10815 66.847C9.2074 66.9422 9.34033 66.9949 9.47832 66.9937C9.6163 66.9925 9.74829 66.9375 9.84586 66.8407C9.94344 66.7438 9.99878 66.6128 9.99998 66.4758C10.0012 66.3388 9.94814 66.2069 9.85227 66.1083L6.87524 63.153C6.77655 63.055 6.64272 63 6.50318 63C6.36363 63 6.2298 63.055 6.13111 63.153L3.15408 66.1083C3.05542 66.2063 3 66.3392 3 66.4777C3 66.6162 3.05542 66.7491 3.15408 66.847Z" fill="#5DB947"/>
<path d="M110.154 13.847C110.253 13.945 110.387 14 110.526 14C110.666 14 110.8 13.945 110.898 13.847L113.503 11.261L116.108 13.847C116.207 13.9422 116.34 13.9949 116.478 13.9937C116.616 13.9925 116.748 13.9375 116.846 13.8407C116.943 13.7438 116.999 13.6128 117 13.4758C117.001 13.3388 116.948 13.2069 116.852 13.1083L113.875 10.153C113.777 10.055 113.643 10 113.503 10C113.364 10 113.23 10.055 113.131 10.153L110.154 13.1083C110.055 13.2063 110 13.3392 110 13.4777C110 13.6162 110.055 13.7491 110.154 13.847Z" fill="#5DB947"/>
<path d="M99.2169 71.2843L95.9849 73.1513C95.7504 73.2873 95.4924 73.353 95.2344 73.353C94.7137 73.353 94.2118 73.0856 93.935 72.6024C93.5222 71.8847 93.7662 70.9653 94.4839 70.5525L97.7065 68.6902C96.5995 66.9546 95.3329 65.2987 93.9115 63.7554L75.2656 82.4013C76.0396 83.4849 76.5743 84.7467 76.8042 86.1117H103.172C102.956 80.8673 101.595 75.8348 99.2169 71.2843Z" fill="#C8F4BD"/>
<path d="M89.0886 59.3786C88.3616 58.8345 87.6157 58.3185 86.8558 57.8352L84.9935 61.0626C84.7167 61.5457 84.2101 61.8131 83.6941 61.8131C83.4408 61.8131 83.1828 61.7475 82.9436 61.6114C82.2259 61.1986 81.9819 60.2792 82.3947 59.5615L84.2617 56.3295C79.6928 53.9325 74.6641 52.5862 69.4334 52.3704V56.0903C69.4334 56.9206 68.7626 57.5914 67.9323 57.5914C67.102 57.5914 66.4312 56.9206 66.4312 56.0903V52.375C61.1024 52.6002 56.0831 54.0122 51.6173 56.3529L53.4702 59.5615C53.883 60.2792 53.6391 61.1987 52.9214 61.6114C52.6868 61.7474 52.4288 61.8131 52.1708 61.8131C51.6502 61.8131 51.1482 61.5457 50.8715 61.0626L49.0186 57.8587C44.6607 60.6357 40.955 64.3461 38.178 68.6993L41.3819 70.5522C42.0996 70.965 42.3435 71.8845 41.9307 72.6021C41.6539 73.0853 41.1473 73.3526 40.6314 73.3526C40.3781 73.3526 40.1201 73.287 39.8808 73.1509L36.6722 71.298C34.3315 75.7638 32.9195 80.7876 32.6943 86.1119H59.0618C59.7795 81.8572 63.4807 78.6065 67.9323 78.6065C69.8743 78.6065 71.671 79.2304 73.1438 80.2811L92.8501 60.5748C92.3013 60.0682 91.7384 59.585 91.1614 59.1112C90.6548 59.7445 89.736 59.8711 89.0886 59.3786Z" fill="#C8F4BD"/>
<path d="M67.9329 42.5796C44.3142 42.5796 24.5791 61.0189 23.0035 84.5584C22.9754 84.9524 23.1161 85.3324 23.3929 85.6279C23.679 85.9328 24.0871 86.1111 24.5046 86.1111H29.6927C29.9367 79.7737 31.7333 73.8298 34.7073 68.642C34.7308 68.5857 34.7542 68.5247 34.7824 68.4732C34.8152 68.4169 34.8527 68.3746 34.8903 68.323C38.2208 62.6423 42.968 57.8952 48.6438 54.5695C48.6907 54.532 48.7377 54.4944 48.7939 54.4616C48.8502 54.4288 48.9065 54.41 48.9628 54.3865C54.5591 51.1779 61.0328 49.3345 67.9329 49.3345C76.2874 49.3345 84.2239 51.9801 90.89 56.9807C91.5514 57.4779 91.6874 58.4207 91.1902 59.0822C91.1808 59.0916 91.1714 59.1009 91.162 59.1103C91.739 59.5794 92.3066 60.0673 92.8507 60.5739L95.7685 57.6562C96.3548 57.0698 97.307 57.0698 97.8887 57.6562C98.4751 58.2425 98.4751 59.1947 97.8887 59.7811L96.0311 61.6388C102.261 68.3655 105.821 76.9546 106.168 86.1161H111.356C111.778 86.1161 112.182 85.9378 112.468 85.6329C112.745 85.3374 112.881 84.9574 112.857 84.5634C111.286 61.0204 91.5516 42.5796 67.9329 42.5796Z" fill="#C8F4BD"/>
<path d="M67.9329 38.3765C69.7061 38.3765 71.4605 38.4844 73.1867 38.6767V20.3635C73.1867 18.7076 74.533 17.3613 76.1889 17.3613H79.3834L68.3082 6L57.2329 17.3613H59.6769C61.3328 17.3613 62.6791 18.7076 62.6791 20.3635V38.6767C64.4053 38.4844 66.1597 38.3765 67.9329 38.3765Z" fill="#C6F2BB"/>
<path d="M100.206 50.8968V30.1205C100.206 29.2902 100.877 28.6194 101.707 28.6194H104.301L95.3277 18.8296L86.354 28.6148L88.1976 28.6194C89.0279 28.6194 89.6987 29.2902 89.6987 30.1205V43.6207C93.5218 45.5721 97.0493 48.0307 100.206 50.8968Z" fill="#C6F2BB"/>
<path d="M31.5645 28.6193H33.408C34.2383 28.6193 34.9091 29.2901 34.9091 30.1204V51.586C38.0473 48.6119 41.5796 46.0647 45.4167 44.0148V30.1208C45.4167 29.2905 46.0875 28.6197 46.9178 28.6197H49.5119L40.5382 18.8298L31.5645 28.6193Z" fill="#C6F2BB"/>
<path d="M78.1978 19.4638H76.1889C74.2569 19.4638 72.6867 21.034 72.6867 22.966V40.7235C71.1231 40.5663 69.5362 40.4791 67.9329 40.4791C66.3296 40.4791 64.7427 40.5663 63.1791 40.7235V22.966C63.1791 21.034 61.6089 19.4638 59.6769 19.4638H58.4186L68.3082 9.31884L78.1978 19.4638Z" fill="white" stroke="black"/>
<path d="M99.7063 52.387V32.7231C99.7063 31.6166 100.601 30.722 101.707 30.722H103.165L95.3277 22.172L87.4883 30.7202L88.1976 30.722C88.1978 30.722 88.1979 30.722 88.1981 30.722L88.1989 30.722L88.1976 31.222C89.0279 31.222 89.6987 31.8928 89.6987 32.7231L99.7063 52.387ZM99.7063 52.387C96.8113 49.8746 93.6243 47.6946 90.1987 45.9182L99.7063 52.387Z" fill="#5DB947" stroke="black"/>
<path d="M33.408 30.7219H32.7011L40.5382 22.1723L48.3753 30.7222H46.9178C45.8114 30.7222 44.9167 31.6169 44.9167 32.7233V46.3186C41.4812 48.181 38.2909 50.4396 35.4091 53.0445V32.7229C35.4091 31.6165 34.5145 30.7219 33.408 30.7219Z" fill="#5DB947" stroke="black"/>
<path d="M23.5024 85.9934L23.5023 85.9956C23.4846 86.2434 23.5712 86.4883 23.7575 86.6874C23.95 86.8926 24.2266 87.0127 24.5046 87.0127H29.2146C29.5314 80.784 31.3292 74.9411 34.2571 69.8237C34.2759 69.7776 34.3076 69.701 34.3434 69.6353L34.3469 69.629L34.3505 69.6228C34.3888 69.5572 34.4497 69.4772 34.4747 69.445C37.8415 63.7128 42.6329 58.9208 48.3599 55.558C48.4044 55.5228 48.4671 55.475 48.542 55.4313L48.542 55.4313C48.6152 55.3886 48.7027 55.3531 48.7456 55.3363C54.4078 52.097 60.9555 50.2361 67.9329 50.2361C76.3954 50.2361 84.4373 52.9167 91.19 57.9823L91.1904 57.9826C91.9505 58.554 92.1907 59.5674 91.8158 60.4021C92.1604 60.6887 92.5014 60.9826 92.8355 61.2837L95.4149 58.7042C96.1955 57.9236 97.4649 57.9214 98.243 58.705M23.5024 85.9934L97.8887 59.0578M23.5024 85.9934C25.0604 62.717 44.5769 44.4812 67.9329 44.4812L23.5024 85.9934ZM98.243 58.705C98.2432 58.7052 98.2434 58.7054 98.2437 58.7057L97.8887 59.0578M98.243 58.705C98.2427 58.7047 98.2425 58.7045 98.2423 58.7042L97.8887 59.0578M98.243 58.705C99.0239 59.4866 99.0237 60.7549 98.2423 61.5363L97.8887 61.1827C98.4751 60.5964 98.4751 59.6442 97.8887 59.0578M96.7228 63.0557C96.6153 62.9368 96.507 62.8184 96.3979 62.7006L96.0311 63.0404L96.3846 63.3939L96.7228 63.0557ZM106.168 87.5177L106.668 87.4988C106.662 87.3382 106.655 87.1779 106.647 87.0177H106.168V87.5177ZM112.103 86.6928L112.468 87.0345L112.103 86.6924L112.103 86.6928ZM112.857 85.965L112.358 85.9947C112.358 85.9952 112.358 85.9956 112.358 85.9961C112.358 85.9968 112.358 85.9976 112.358 85.9983L112.857 85.965Z" fill="#5DB947" stroke="black"/>
<path d="M96.2353 74.9856C96.2355 74.9856 96.2356 74.9855 96.2358 74.9854L99.012 73.3817C101.132 77.5923 102.378 82.2076 102.647 87.0133H77.2174C76.9732 85.8751 76.5261 84.8116 75.9118 83.8638L93.8939 65.8817C95.0356 67.1599 96.0721 68.5129 97.0007 69.9222L94.2346 71.5207C94.2345 71.5207 94.2344 71.5208 94.2344 71.5208C93.2754 72.0725 92.9524 73.2984 93.5016 74.2533C93.8717 74.8988 94.5432 75.2546 95.2344 75.2546C95.5778 75.2546 95.9225 75.167 96.2353 74.9856Z" fill="white" stroke="black"/>
<path d="M33.2198 87.0135C33.4987 82.1407 34.7862 77.533 36.8766 73.395L39.6308 74.9855L39.6337 74.9872C39.9479 75.1658 40.291 75.2542 40.6314 75.2542C41.3169 75.2542 41.9936 74.8992 42.3641 74.253L33.2198 87.0135ZM33.2198 87.0135H58.6488C59.5705 82.7294 63.3781 79.5081 67.9323 79.5081C69.8312 79.5081 71.5984 80.0732 73.0829 81.0365L92.1255 61.9939C91.8168 61.718 91.5031 61.4479 91.1843 61.1812M33.2198 87.0135L91.1843 61.1812M91.1843 61.1812C90.4919 61.6989 89.5153 61.732 88.7875 61.1793C88.2113 60.7482 87.6232 60.335 87.0259 59.9423L85.4273 62.7127C85.4271 62.713 85.427 62.7133 85.4268 62.7136C85.0563 63.3597 84.3796 63.7147 83.6941 63.7147C83.3537 63.7147 83.0106 63.6263 82.6964 63.4477L82.6943 63.4465C81.7351 62.8948 81.412 61.6688 81.9613 60.7138L81.9618 60.713L83.5663 57.9354C79.3405 55.7994 74.7281 54.5651 69.9334 54.2968V57.4919C69.9334 58.5983 69.0387 59.493 67.9323 59.493C66.8259 59.493 65.9312 58.5983 65.9312 57.4919V54.3021C61.0546 54.581 56.4505 55.8685 52.3127 57.9589L53.9032 60.7131L53.9036 60.7139C54.4528 61.6686 54.13 62.8942 53.1715 63.446M91.1843 61.1812L52.9214 63.013M53.1715 63.446C53.1712 63.4462 53.1709 63.4463 53.1707 63.4465L52.9214 63.013M53.1715 63.446C53.1717 63.4459 53.172 63.4457 53.1722 63.4455L52.9214 63.013M53.1715 63.446C52.8587 63.6272 52.5141 63.7147 52.1708 63.7147C51.4797 63.7147 50.8082 63.359 50.4381 62.7136L50.4387 62.7145L50.8715 62.4642M52.9214 63.013C52.6868 63.1491 52.4288 63.2147 52.1708 63.2147C51.6502 63.2147 51.1482 62.9473 50.8715 62.4642M50.8715 62.4642L50.4376 62.7127L50.8715 62.4642ZM49.2691 59.6935L49.0186 59.2603C48.8778 59.35 48.7377 59.4407 48.5983 59.5323L48.849 59.9659C48.9884 59.8741 49.1284 59.7833 49.2691 59.6935ZM41.6312 71.5204L38.8837 69.9315L42.3643 74.2526C42.9133 73.2979 42.5903 72.0723 41.6315 71.5206C41.6314 71.5205 41.6313 71.5205 41.6312 71.5204Z" fill="white" stroke="black"/>
<path d="M73.4369 89.0141C73.4369 90.8803 72.7422 92.2432 71.7283 93.1446C70.7053 94.0541 69.3271 94.5196 67.9326 94.5196C66.538 94.5196 65.1599 94.0541 64.1368 93.1446C63.1229 92.2432 62.4282 90.8803 62.4282 89.0141C62.4282 87.1479 63.1229 85.785 64.1368 84.8836C65.1599 83.974 66.538 83.5085 67.9326 83.5085C69.3271 83.5085 70.7053 83.974 71.7283 84.8836C72.7422 85.785 73.4369 87.1479 73.4369 89.0141Z" fill="white" stroke="black"/>
<path d="M117.154 56.847C117.253 56.945 117.387 57 117.526 57C117.666 57 117.8 56.945 117.898 56.847L120.503 54.261L123.108 56.847C123.207 56.9422 123.34 56.9949 123.478 56.9937C123.616 56.9925 123.748 56.9375 123.846 56.8407C123.943 56.7438 123.999 56.6128 124 56.4758C124.001 56.3388 123.948 56.2069 123.852 56.1083L120.875 53.153C120.777 53.055 120.643 53 120.503 53C120.364 53 120.23 53.055 120.131 53.153L117.154 56.1083C117.055 56.2063 117 56.3392 117 56.4777C117 56.6162 117.055 56.7491 117.154 56.847Z" fill="#5DB947"/>
</svg>
