<svg width="128" height="100" viewBox="0 0 128 100" fill="none" xmlns="http://www.w3.org/2000/svg">
<path d="M15.1541 42.847C15.2528 42.945 15.3866 43 15.5261 43C15.6657 43 15.7995 42.945 15.8982 42.847L18.5032 40.261L21.1081 42.847C21.2074 42.9422 21.3403 42.9949 21.4783 42.9937C21.6163 42.9925 21.7483 42.9375 21.8459 42.8407C21.9434 42.7438 21.9988 42.6128 22 42.4758C22.0012 42.3388 21.9481 42.2069 21.8523 42.1083L18.8752 39.153C18.7766 39.055 18.6427 39 18.5032 39C18.3636 39 18.2298 39.055 18.1311 39.153L15.1541 42.1083C15.0554 42.2063 15 42.3392 15 42.4777C15 42.6162 15.0554 42.7491 15.1541 42.847Z" fill="#5DB947"/>
<path d="M96.1541 15.847C96.2528 15.945 96.3866 16 96.5261 16C96.6657 16 96.7995 15.945 96.8982 15.847L99.5032 13.261L102.108 15.847C102.207 15.9422 102.34 15.9949 102.478 15.9937C102.616 15.9925 102.748 15.9375 102.846 15.8407C102.943 15.7438 102.999 15.6128 103 15.4758C103.001 15.3388 102.948 15.2069 102.852 15.1083L99.8752 12.153C99.7766 12.055 99.6427 12 99.5032 12C99.3636 12 99.2298 12.055 99.1311 12.153L96.1541 15.1083C96.0554 15.2063 96 15.3392 96 15.4777C96 15.6162 96.0554 15.7491 96.1541 15.847Z" fill="#5DB947"/>
<path d="M111.154 74.847C111.253 74.945 111.387 75 111.526 75C111.666 75 111.8 74.945 111.898 74.847L114.503 72.261L117.108 74.847C117.207 74.9422 117.34 74.9949 117.478 74.9937C117.616 74.9925 117.748 74.9375 117.846 74.8407C117.943 74.7438 117.999 74.6128 118 74.4758C118.001 74.3388 117.948 74.2069 117.852 74.1083L114.875 71.153C114.777 71.055 114.643 71 114.503 71C114.364 71 114.23 71.055 114.131 71.153L111.154 74.1083C111.055 74.2063 111 74.3392 111 74.4777C111 74.6162 111.055 74.7491 111.154 74.847Z" fill="#5DB947"/>
<path fill-rule="evenodd" clip-rule="evenodd" d="M50.2012 91.78C46.9746 91.7839 43.877 90.5222 41.5723 88.2722C41.1582 87.8816 40.9512 87.323 41.0098 86.7605C41.2793 81.9128 45.3457 78.1511 50.2012 78.2605C51.6426 78.241 53.0684 78.5495 54.3731 79.1589C51.7911 81.6316 50.2481 84.9909 50.0528 88.5612C49.9629 89.7409 50.3887 90.901 51.2208 91.7409H50.2208L50.2012 91.78ZM50.2005 65C51.9466 65 53.5247 66.0547 54.1927 67.668C54.8606 69.2813 54.4896 71.1407 53.2552 72.375C52.0208 73.6133 50.1614 73.9805 48.5482 73.3125C46.9349 72.6445 45.8802 71.0703 45.8802 69.3203C45.888 66.9375 47.8177 65.0078 50.2005 65Z" fill="#C8F4BD"/>
<path fill-rule="evenodd" clip-rule="evenodd" d="M77.3198 91.78C80.5464 91.7839 83.644 90.5222 85.9487 88.2722C86.3628 87.8816 86.5698 87.323 86.5112 86.7605C86.2417 81.9128 82.1753 78.1511 77.3198 78.2605C75.8784 78.241 74.4526 78.5495 73.1479 79.1589C75.7299 81.6316 77.2729 84.9909 77.4682 88.5612C77.5581 89.7409 77.1323 90.901 76.3002 91.7409H77.3002L77.3198 91.78ZM77.3205 65C75.5744 65 73.9963 66.0547 73.3283 67.668C72.6604 69.2813 73.0314 71.1407 74.2658 72.375C75.5002 73.6133 77.3596 73.9805 78.9728 73.3125C80.5861 72.6445 81.6408 71.0703 81.6408 69.3203C81.633 66.9375 79.7033 65.0078 77.3205 65Z" fill="#C8F4BD"/>
<path fill-rule="evenodd" clip-rule="evenodd" d="M63.7715 63C65.9551 62.9961 67.9277 64.3086 68.7676 66.3281C69.6074 68.3437 69.1465 70.6679 67.6035 72.2148C66.0605 73.7617 63.7363 74.2265 61.7168 73.3906C59.6973 72.5547 58.3809 70.5859 58.3809 68.4023C58.3769 66.9687 58.9473 65.5976 59.9551 64.582C60.9668 63.5703 62.3418 63 63.7715 63ZM63.7715 94.57C67.8809 94.5778 71.8184 92.9372 74.7125 90.0192C75.1031 89.6403 75.2984 89.1051 75.2515 88.5622C74.771 82.4606 70.4507 77.6912 63.7715 77.6912C57.0923 77.6912 52.7715 82.4607 52.2915 88.5622C52.2446 89.1052 52.44 89.6403 52.8306 90.0192C55.7251 92.9372 59.6625 94.5778 63.7715 94.57Z" fill="#C8F4BD"/>
<path fill-rule="evenodd" clip-rule="evenodd" d="M38.0005 53.3487V48.0909H46.1997V53.3526V53.3487C46.1997 53.8644 45.7856 54.2862 45.27 54.2901H38.938C38.4224 54.2901 38.0005 53.8683 38.0005 53.3487ZM55.8485 33.8217C55.9032 33.2397 56.3915 32.7983 56.9735 32.7983C57.5594 32.7983 58.0438 33.2398 58.0985 33.8217V49.7087C58.1297 50.0291 58.0243 50.3416 57.8094 50.5759C57.5985 50.8142 57.2938 50.947 56.9735 50.947C56.6571 50.947 56.3524 50.8142 56.1375 50.5759C55.9266 50.3416 55.8211 50.0291 55.8485 49.7087V33.8217ZM70.3017 33.8217C70.3564 33.2397 70.8408 32.7983 71.4267 32.7983C72.0087 32.7983 72.497 33.2398 72.5517 33.8217V49.7087C72.579 50.0291 72.4736 50.3416 72.2626 50.5759C72.0478 50.8142 71.7431 50.947 71.4267 50.947C71.1064 50.947 70.8017 50.8142 70.5908 50.5759C70.3759 50.3416 70.2704 50.0291 70.3017 49.7087V33.8217ZM90.3988 48.1307V53.3924C90.3988 53.6385 90.3011 53.8807 90.1253 54.0565C89.9496 54.2323 89.7074 54.3299 89.4613 54.3299H83.1215C82.6059 54.326 82.1879 53.9042 82.1879 53.3924V48.0916L90.3988 48.1307Z" fill="#C8F4BD"/>
<path fill-rule="evenodd" clip-rule="evenodd" d="M38.0006 43.8808H46.1998V30.2008C46.1998 23.7711 49.6295 17.8258 55.1998 14.6108C60.7701 11.396 67.6298 11.396 73.1998 14.6108C78.7701 17.8256 82.1998 23.771 82.1998 30.2008V43.8808H90.399V30.2008C90.399 20.8414 85.4068 12.1888 77.301 7.50977C69.1916 2.83008 59.207 2.83008 51.098 7.50977C42.9925 12.1895 38 20.8418 38 30.2008L38.0006 43.8808Z" fill="#C8F4BD"/>
<path d="M64.1992 39.7515C63.3082 39.7515 62.5781 40.4731 62.5781 41.3687V57.2707C62.5781 58.164 63.3059 58.8918 64.1992 58.8918C65.0926 58.8918 65.8203 58.164 65.8203 57.2707V41.3687C65.8203 40.4731 65.0903 39.7515 64.1992 39.7515Z" fill="white" stroke="black"/>
<path d="M37.5006 45.8808L37.5006 46.3808H38.0006H46.1998H46.6998V45.8808V32.2008C46.6998 25.9496 50.0343 20.1694 55.4497 17.0438C60.8654 13.9183 67.5345 13.9183 72.9499 17.0438L73.1998 16.6108L72.9499 17.0438C78.3653 20.1692 81.6998 25.9495 81.6998 32.2008V45.8808V46.3808H82.1998H90.399H90.899V45.8808V32.2008C90.899 22.6629 85.8116 13.8451 77.551 9.07674L77.5509 9.07671C69.2869 4.30777 59.1117 4.30776 50.8481 9.07672L50.848 9.07676C42.5877 13.8458 37.5 22.6632 37.5 32.2008L37.5006 45.8808Z" fill="white" stroke="black"/>
<path d="M38.0005 49.5909H37.5005L46.6997 55.3526C46.6997 55.3513 46.6997 55.35 46.6997 55.3487V50.0909V49.5909H46.1997H38.0005ZM55.3507 35.775L55.3485 35.7983V35.8217V51.6893C55.3164 52.1386 55.4671 52.5784 55.7659 52.9104L55.7662 52.9108C56.0771 53.2556 56.5173 53.447 56.9735 53.447C57.4303 53.447 57.8718 53.2579 58.181 52.9106C58.4836 52.5786 58.6352 52.1378 58.5985 51.6866V35.8217V35.7983L58.5963 35.775C58.5174 34.936 57.8173 34.2983 56.9735 34.2983C56.1347 34.2983 55.4296 34.9348 55.3507 35.775ZM69.8039 35.775L69.8017 35.7983V35.8217V51.6866C69.765 52.1378 69.9165 52.5786 70.2192 52.9105C70.5283 53.2578 70.9698 53.447 71.4267 53.447C71.8828 53.447 72.3231 53.2556 72.634 52.9107L72.6343 52.9104C72.9331 52.5784 73.0838 52.1386 73.0517 51.6893V35.8217V35.7983L73.0495 35.775C72.9705 34.9349 72.2655 34.2983 71.4267 34.2983C70.5829 34.2983 69.8827 34.9359 69.8039 35.775ZM90.8988 50.1307V49.6331L90.4012 49.6307L82.1903 49.5916L81.6879 49.5893V50.0916V55.3924C81.6879 56.1797 82.3283 56.8239 83.1177 56.8299H83.1215H89.4613C89.8371 56.8299 90.2073 56.6817 90.4789 56.4101C90.7505 56.1385 90.8988 55.7682 90.8988 55.3924V50.1307Z" fill="#5DB947" stroke="black"/>
<path d="M49.5538 89.5287C49.482 90.487 49.7132 91.4338 50.2013 92.2409H49.9122L49.8944 92.2764C46.9095 92.2028 44.0598 91.0019 41.9216 88.9144L41.9216 88.9144L41.9154 88.9085C41.6144 88.6245 41.4647 88.2194 41.5071 87.8123L41.5083 87.8003L41.509 87.7882C41.7636 83.2098 45.6041 79.657 50.1899 79.7604L50.1989 79.7606L50.2079 79.7604C51.3325 79.7452 52.4474 79.9408 53.4966 80.3329C51.1438 82.8314 49.7434 86.0852 49.5538 89.5287ZM52.9016 73.0214L52.9011 73.022C51.8102 74.1163 50.1664 74.4414 48.7395 73.8505L48.7394 73.8505C47.313 73.2599 46.3805 71.8682 46.3802 70.3211C46.3875 68.2138 48.094 66.5073 50.2013 66.5C51.7448 66.5003 53.1402 67.4331 53.7307 68.8593C54.3212 70.2855 53.9932 71.93 52.9016 73.0214Z" fill="white" stroke="black"/>
<path d="M77.9672 89.5287C78.039 90.487 77.8078 91.4338 77.3197 92.2409H77.6088L77.6266 92.2764C80.6115 92.2028 83.4612 91.0019 85.5994 88.9144L85.5994 88.9144L85.6056 88.9085C85.9066 88.6245 86.0563 88.2194 86.0139 87.8123L86.0127 87.8003L86.012 87.7882C85.7574 83.2098 81.9169 79.657 77.3311 79.7604L77.3221 79.7606L77.313 79.7604C76.1885 79.7452 75.0736 79.9408 74.0244 80.3329C76.3772 82.8314 77.7776 86.0852 77.9672 89.5287ZM74.6194 73.0214L74.6199 73.022C75.7108 74.1163 77.3546 74.4414 78.7815 73.8505L78.7815 73.8505C80.208 73.2599 81.1405 71.8682 81.1408 70.3211C81.1334 68.2138 79.427 66.5073 77.3197 66.5C75.7762 66.5003 74.3808 67.4331 73.7903 68.8593C73.1998 70.2855 73.5278 71.93 74.6194 73.0214Z" fill="white" stroke="black"/>
<path d="M63.7715 64.5L63.7724 64.5C65.7536 64.4965 67.5437 65.6874 68.3059 67.5201L68.306 67.5204C69.0678 69.3487 68.6499 71.4577 67.2495 72.8617C65.8493 74.2654 63.7404 74.6871 61.908 73.9286C60.0752 73.17 58.8809 71.3834 58.8809 69.4023L58.8809 69.4009C58.8773 68.1018 59.394 66.8576 60.3093 65.9349C61.2273 65.0172 62.4749 64.5 63.7715 64.5ZM74.3643 90.6603L74.3643 90.6602L74.3575 90.6671C71.5572 93.4905 67.7478 95.0776 63.7724 95.07L63.7705 95.07C59.7956 95.0775 55.9862 93.4905 53.1856 90.6671L53.1856 90.667L53.1787 90.6603C52.8981 90.3881 52.7555 90.0015 52.7897 89.6052L52.79 89.6014C53.252 83.7286 57.3837 79.1912 63.7715 79.1912C70.1593 79.1912 74.2906 83.7284 74.753 89.6015L74.7534 89.6052C74.7876 90.0015 74.6449 90.3881 74.3643 90.6603Z" fill="#5DB947" stroke="black"/>
<path d="M4.15408 69.847C4.25277 69.945 4.3866 70 4.52614 70C4.66569 70 4.79952 69.945 4.89821 69.847L7.50318 67.261L10.1081 69.847C10.2074 69.9422 10.3403 69.9949 10.4783 69.9937C10.6163 69.9925 10.7483 69.9375 10.8459 69.8407C10.9434 69.7438 10.9988 69.6128 11 69.4758C11.0012 69.3388 10.9481 69.2069 10.8523 69.1083L7.87524 66.153C7.77655 66.055 7.64272 66 7.50318 66C7.36363 66 7.2298 66.055 7.13111 66.153L4.15408 69.1083C4.05542 69.2063 4 69.3392 4 69.4777C4 69.6162 4.05542 69.7491 4.15408 69.847Z" fill="#5DB947"/>
</svg>
