<svg width="128" height="100" viewBox="0 0 128 100" fill="none" xmlns="http://www.w3.org/2000/svg">
<path d="M16.1541 36.847C16.2528 36.945 16.3866 37 16.5261 37C16.6657 37 16.7995 36.945 16.8982 36.847L19.5032 34.261L22.1081 36.847C22.2074 36.9422 22.3403 36.9949 22.4783 36.9937C22.6163 36.9925 22.7483 36.9375 22.8459 36.8407C22.9434 36.7438 22.9988 36.6128 23 36.4758C23.0012 36.3388 22.9481 36.2069 22.8523 36.1083L19.8752 33.153C19.7766 33.055 19.6427 33 19.5032 33C19.3636 33 19.2298 33.055 19.1311 33.153L16.1541 36.1083C16.0554 36.2063 16 36.3392 16 36.4777C16 36.6162 16.0554 36.7491 16.1541 36.847Z" fill="#5DB947"/>
<path d="M107.154 26.847C107.253 26.945 107.387 27 107.526 27C107.666 27 107.8 26.945 107.898 26.847L110.503 24.261L113.108 26.847C113.207 26.9422 113.34 26.9949 113.478 26.9937C113.616 26.9925 113.748 26.9375 113.846 26.8407C113.943 26.7438 113.999 26.6128 114 26.4758C114.001 26.3388 113.948 26.2069 113.852 26.1083L110.875 23.153C110.777 23.055 110.643 23 110.503 23C110.364 23 110.23 23.055 110.131 23.153L107.154 26.1083C107.055 26.2063 107 26.3392 107 26.4777C107 26.6162 107.055 26.7491 107.154 26.847Z" fill="#5DB947"/>
<path d="M97.1541 87.847C97.2528 87.945 97.3866 88 97.5261 88C97.6657 88 97.7995 87.945 97.8982 87.847L100.503 85.261L103.108 87.847C103.207 87.9422 103.34 87.9949 103.478 87.9937C103.616 87.9925 103.748 87.9375 103.846 87.8407C103.943 87.7438 103.999 87.6128 104 87.4758C104.001 87.3388 103.948 87.2069 103.852 87.1083L100.875 84.153C100.777 84.055 100.643 84 100.503 84C100.364 84 100.23 84.055 100.131 84.153L97.1541 87.1083C97.0554 87.2063 97 87.3392 97 87.4777C97 87.6162 97.0554 87.7491 97.1541 87.847Z" fill="#5DB947"/>
<path d="M9.15408 54.847C9.25277 54.945 9.3866 55 9.52614 55C9.66569 55 9.79952 54.945 9.89821 54.847L12.5032 52.261L15.1081 54.847C15.2074 54.9422 15.3403 54.9949 15.4783 54.9937C15.6163 54.9925 15.7483 54.9375 15.8459 54.8407C15.9434 54.7438 15.9988 54.6128 16 54.4758C16.0012 54.3388 15.9481 54.2069 15.8523 54.1083L12.8752 51.153C12.7766 51.055 12.6427 51 12.5032 51C12.3636 51 12.2298 51.055 12.1311 51.153L9.15408 54.1083C9.05542 54.2063 9 54.3392 9 54.4777C9 54.6162 9.05542 54.7491 9.15408 54.847Z" fill="#5DB947"/>
<path d="M49.1447 74.1791L45.2385 77.5189C44.9455 77.7728 44.926 78.222 45.1604 78.515L55.3554 90.8C55.5898 91.0734 56.039 91.093 56.3124 90.8586L60.2382 87.4992C60.5312 87.2453 60.5507 86.7961 60.2968 86.4836L50.1208 74.2176C49.8864 73.9441 49.4377 73.9252 49.1447 74.1791Z" fill="#C8F4BD"/>
<path d="M84.644 61.2458L88.6479 57.3786C88.7846 57.2419 88.9409 57.1052 89.0776 56.988V24H84.644L84.644 61.2458ZM64 60.6599C65.4844 60.6989 66.9688 60.738 68.4336 60.7966V50.0736H64V60.6599Z" fill="#C8F4BD"/>
<path d="M75.0854 60.5038C77.8002 61.2264 78.9721 63.9999 77.7026 66.0897C78.3276 66.1092 78.9721 66.1873 79.519 65.992V34H75.0854V60.5038ZM54.4414 66.617L58.875 61.9881V41.8321H54.4414V66.617ZM98.7777 53.8632C102.352 57.4374 108.153 57.4374 111.708 53.8632C115.282 50.289 115.282 44.4882 111.708 40.9332C108.134 37.359 102.333 37.359 98.7777 40.9332C95.2035 44.5074 95.2035 50.2887 98.7777 53.8632ZM103.27 52.1054C101.981 52.1054 101.981 50.1523 103.27 50.1523H105.672C106.278 50.1523 106.844 49.7617 106.844 49.2148C106.844 48.5898 105.985 48.4726 105.125 48.3555C103.426 48.1211 101.707 47.8867 101.707 45.5821C101.707 44.1173 102.86 42.9649 104.285 42.7305V42.2617C104.285 40.9726 106.238 40.9726 106.238 42.2617V42.6719H107.684C108.973 42.6719 108.973 44.625 107.684 44.625H104.852C104.246 44.625 103.68 45.0156 103.68 45.582C103.68 46.1875 104.539 46.3047 105.399 46.4218C107.098 46.6562 108.817 46.8906 108.817 49.1952C108.817 50.66 107.664 51.8124 106.239 52.0468V52.5156C106.239 53.8047 104.286 53.8047 104.286 52.5156V52.1054L103.27 52.1054Z" fill="#C8F4BD"/>
<path d="M72.4347 68.1992C73.4698 68.1992 74.251 67.9257 74.6222 67.2226C75.2276 66.0703 74.2706 64.5468 72.2393 64.4882L68.7042 64.3905C66.6534 64.371 64.3877 64.2148 62.3564 64.2148C61.4775 64.2343 60.2471 64.0585 59.4268 64.9179L52.4736 72.164L59.9151 81.1288C60.9893 79.996 61.6924 79.2147 63.3721 79.078L78.938 77.8085C79.4849 77.7694 79.9927 77.6132 80.3442 77.1835L91.8672 63.1405C93.1563 61.5585 92.8243 59.8397 91.5547 59.5272C90.754 59.3319 89.8945 59.8202 89.2695 60.4256L80.3438 69.0584C79.4648 69.8983 78.4101 70.3475 77.1601 70.3279C75.7343 70.3084 73.9765 70.1912 72.6093 70.1912H63.0781C61.789 70.1912 61.789 68.2381 63.0781 68.2381H72.4337L72.4347 68.1992ZM44.8566 38.1402L46.6925 39.3707L52.962 30.1715C53.2355 29.7613 53.8019 29.6246 54.2511 29.8785L63.841 35.4058L80.9889 15.0938C81.3014 14.7227 81.8679 14.625 82.278 14.918L83.2936 15.6016L83.5476 9L77.7859 11.9297L78.7624 12.5742C79.2507 12.8867 79.3484 13.5703 78.9773 14L64.2503 31.52C63.9573 31.9106 63.4104 32.0278 62.9808 31.7935L53.3714 26.3443L44.8566 38.1402ZM29.6806 69.9762C33.2548 73.5504 39.0556 73.5504 42.6106 69.9762C46.1848 66.402 46.1848 60.6012 42.6106 57.0462C39.0364 53.472 33.2357 53.472 29.6806 57.0462C26.1065 60.6009 26.1065 66.4017 29.6806 69.9762ZM34.1728 68.2184C32.8837 68.2184 32.8837 66.2653 34.1728 66.2653H36.5751C37.1806 66.2653 37.747 65.8942 37.747 65.3278C37.747 64.7223 36.8877 64.6051 36.0282 64.4879C34.3094 64.2535 32.6102 64.0192 32.6102 61.7145C32.6102 60.2497 33.7625 59.0973 35.1883 58.8629V58.3942C35.1883 57.1051 37.1414 57.1051 37.1414 58.3942V58.8043H38.5868C39.8758 58.8043 39.8758 60.7574 38.5868 60.7574H35.7351C35.1297 60.7574 34.5632 61.1285 34.5632 61.6949C34.5632 62.3004 35.4226 62.4176 36.282 62.5348C37.9812 62.7691 39.7001 63.0035 39.7001 65.3082C39.7001 66.773 38.5478 67.9254 37.122 68.1598V68.6285C37.122 69.9176 35.1688 69.9176 35.1688 68.6285V68.2184H34.1728Z" fill="#C8F4BD"/>
<path d="M78.9737 80.3072L63.4127 81.5763L63.4126 81.5763C62.6543 81.638 62.1425 81.8405 61.6979 82.1432C61.2479 82.4495 60.8554 82.8635 60.3338 83.4138L60.2779 83.4728L59.8902 83.8817L59.5303 83.4481L52.0889 74.4833L51.8038 74.1399L52.1129 73.8178L59.0651 66.5726C59.5825 66.0306 60.2207 65.8296 60.8067 65.7554C61.1993 65.7056 61.6257 65.7104 61.9723 65.7143C62.1121 65.7158 62.239 65.7172 62.3453 65.7149L62.3564 65.7146V65.7148C63.3831 65.7148 64.4665 65.7542 65.5422 65.7957C65.615 65.7985 65.6877 65.8013 65.7604 65.8041C66.7657 65.843 67.7609 65.8815 68.7089 65.8906L68.718 65.8907L68.718 65.8907L72.2532 65.9884L72.2538 65.9884C73.3916 66.0212 74.2887 66.4684 74.8129 67.1367C75.3382 67.8063 75.4691 68.6857 75.0648 69.4552L75.0643 69.456C74.6364 70.2667 73.828 70.5973 72.9225 70.6783L72.921 70.7381H72.4337H63.0781C62.8933 70.7381 62.7905 70.803 62.7284 70.8736C62.6578 70.9538 62.6113 71.0757 62.6113 71.2147C62.6113 71.3536 62.6578 71.4755 62.7284 71.5557C62.7905 71.6263 62.8933 71.6912 63.0781 71.6912H72.6093C73.3045 71.6912 74.0956 71.721 74.8829 71.7526C74.9556 71.7556 75.0282 71.7585 75.1008 71.7614C75.8185 71.7905 76.5271 71.8192 77.167 71.828L77.168 71.828C78.2778 71.8454 79.2074 71.4523 79.9973 70.6979C79.9976 70.6976 79.998 70.6973 79.9983 70.6969L88.9216 62.0665L78.9737 80.3072ZM78.9737 80.3072C78.9746 80.3071 78.9756 80.3071 78.9765 80.307C79.5873 80.263 80.2562 80.0808 80.7313 79.5001M78.9737 80.3072L80.7313 79.5001M80.7313 79.5001L92.2538 65.4576L92.2549 65.4563C92.9651 64.5847 93.2672 63.6278 93.1669 62.7978C93.0649 61.9539 92.5379 61.2543 91.6743 61.0417L91.6732 61.0414C90.6101 60.7821 89.5774 61.4314 88.9219 62.0662L80.7313 79.5001ZM44.4512 39.8475L44.1482 40.2673L44.5783 40.5555L46.4142 41.786L46.8263 42.0622L47.1057 41.6522L53.3752 32.453L53.3752 32.4531L53.3781 32.4488C53.5026 32.262 53.7774 32.1861 54.0037 32.313C54.0042 32.3132 54.0046 32.3135 54.0051 32.3138L63.5913 37.839L63.9534 38.0477L64.223 37.7283L81.371 17.4163L81.3714 17.4159C81.5284 17.2295 81.8047 17.1944 81.9874 17.3249L81.9873 17.325L81.9989 17.3328L83.0145 18.0164L83.7588 18.5174L83.7933 17.6208L84.0472 11.0192L84.0799 10.1684L83.3209 10.5543L77.5592 13.484L76.7931 13.8736L77.5104 14.347L78.487 14.9915L78.487 14.9916L78.4929 14.9954C78.7269 15.1451 78.7693 15.4759 78.5988 15.6732L78.5988 15.6732L78.5945 15.6783L63.8675 33.1983L63.8586 33.2089L63.8503 33.22C63.7081 33.4095 63.436 33.4703 63.2232 33.3562L53.618 27.9093L53.2282 27.6883L52.9659 28.0516L44.4512 39.8475ZM29.3271 72.3297L29.6806 71.9762C33.2548 75.5504 39.0556 75.5504 42.6106 71.9762L42.9642 72.3297C42.9643 72.3296 42.9645 72.3294 42.9646 72.3293C46.7328 68.5606 46.7344 62.4436 42.9642 58.6926C39.1956 54.924 33.0781 54.9223 29.327 58.6927C25.5568 62.4435 25.5585 68.5608 29.3271 72.3297ZM35.2695 61.3563L35.6883 61.2874V60.8629V60.3942C35.6883 60.2093 35.7532 60.1066 35.8238 60.0444C35.904 59.9738 36.026 59.9273 36.1649 59.9273C36.3038 59.9273 36.4257 59.9738 36.506 60.0444C36.5766 60.1066 36.6414 60.2093 36.6414 60.3942V60.8043V61.3043H37.1414H38.5868C38.7716 61.3043 38.8744 61.3692 38.9365 61.4398C39.0071 61.52 39.0536 61.6419 39.0536 61.7809C39.0536 61.9198 39.0071 62.0417 38.9365 62.1219C38.8744 62.1926 38.7716 62.2574 38.5868 62.2574H35.7351C35.3361 62.2574 34.9346 62.3785 34.6214 62.6143C34.3018 62.8549 34.0632 63.2277 34.0632 63.6949C34.0632 63.9802 34.1703 64.2238 34.3502 64.4113C34.5172 64.5853 34.7294 64.6936 34.9264 64.7667C35.3011 64.9058 35.7766 64.9706 36.1806 65.0256L36.2137 65.0301C37.0926 65.1513 37.8367 65.261 38.3756 65.5766C38.6292 65.7251 38.8263 65.9147 38.9644 66.1719C39.1043 66.4327 39.2001 66.7938 39.2001 67.3082C39.2001 68.4889 38.2659 69.465 37.0408 69.6664L36.622 69.7353V70.1598V70.6285C36.622 70.8134 36.5571 70.9161 36.4865 70.9783C36.4062 71.0489 36.2843 71.0953 36.1454 71.0953C36.0065 71.0953 35.8846 71.0489 35.8043 70.9783C35.7337 70.9161 35.6688 70.8134 35.6688 70.6285V70.2184V69.7184H35.1688H34.1728C33.988 69.7184 33.8852 69.6535 33.8231 69.5829C33.7525 69.5027 33.706 69.3808 33.706 69.2418C33.706 69.1029 33.7525 68.981 33.8231 68.9008C33.8852 68.8301 33.988 68.7653 34.1728 68.7653H36.5751C36.9742 68.7653 37.3757 68.6442 37.6889 68.4084C38.0085 68.1678 38.247 67.7949 38.247 67.3278C38.247 67.0424 38.14 66.7989 37.9601 66.6114C37.7931 66.4374 37.5809 66.3291 37.3839 66.256C37.0092 66.1169 36.5337 66.0521 36.1297 65.9971L36.0958 65.9925C35.2073 65.8713 34.4638 65.7614 33.9281 65.4465C33.6762 65.2985 33.4809 65.1094 33.344 64.8522C33.2051 64.5914 33.1102 64.2298 33.1102 63.7145C33.1102 62.5338 34.0444 61.5577 35.2695 61.3563Z" fill="white" stroke="black"/>
<path d="M84.144 63.2458V64.4239L84.9914 63.6055L88.9953 59.7383L88.9953 59.7383L89.0015 59.7322C89.1237 59.61 89.2675 59.4838 89.403 59.3676L89.5776 59.218V58.988V26V25.5H89.0776H84.644H84.144V26L84.144 63.2458ZM63.5 62.6599V63.1469L63.9868 63.1597C65.4718 63.1988 66.9528 63.2378 68.4136 63.2962L68.9336 63.317V62.7966V52.0736V51.5736H68.4336H64H63.5V52.0736V62.6599Z" fill="white" stroke="black"/>
<path d="M104.785 45.155L104.367 45.2238C103.141 45.4252 102.207 46.4013 102.207 47.5821C102.207 48.0964 102.303 48.4576 102.443 48.7183C102.581 48.9756 102.778 49.1651 103.032 49.3136C103.57 49.6291 104.314 49.7389 105.193 49.86L104.785 45.155ZM104.785 45.155V44.7305V44.2617C104.785 44.0769 104.85 43.9741 104.921 43.9119C105.001 43.8414 105.123 43.7949 105.262 43.7949C105.401 43.7949 105.523 43.8414 105.603 43.9119C105.674 43.9741 105.738 44.0769 105.738 44.2617V44.6719V45.1719H106.238H107.684C107.869 45.1719 107.971 45.2367 108.034 45.3074C108.104 45.3876 108.151 45.5095 108.151 45.6484C108.151 45.7874 108.104 45.9093 108.034 45.9895C107.971 46.0601 107.869 46.125 107.684 46.125H104.852C104.447 46.125 104.044 46.2544 103.732 46.4959C103.416 46.7411 103.18 47.1171 103.18 47.582C103.18 47.8673 103.287 48.1109 103.467 48.2983C103.634 48.4724 103.846 48.5807 104.043 48.6538C104.418 48.7929 104.893 48.8576 105.297 48.9126L105.33 48.9171C105.331 48.9172 105.331 48.9172 105.331 48.9172C106.209 49.0384 106.953 49.1482 107.492 49.4637C107.746 49.6122 107.943 49.8017 108.081 50.059C108.221 50.3197 108.317 50.6809 108.317 51.1952C108.317 52.376 107.383 53.3521 106.157 53.5535L105.739 53.6223V54.0468V54.5156C105.739 54.7004 105.674 54.8032 105.603 54.8654C105.523 54.9359 105.401 54.9824 105.262 54.9824C105.123 54.9824 105.001 54.9359 104.921 54.8654C104.85 54.8032 104.786 54.7004 104.786 54.5156V54.1054V53.6054L104.285 53.6054L103.27 53.6054C103.085 53.6054 102.982 53.5406 102.92 53.4699C102.85 53.3897 102.803 53.2678 102.803 53.1289C102.803 52.9899 102.85 52.868 102.92 52.7878C102.982 52.7172 103.085 52.6523 103.27 52.6523H105.672C106.077 52.6523 106.479 52.523 106.789 52.286C107.102 52.0464 107.344 51.6757 107.344 51.2148C107.344 50.9295 107.241 50.6837 107.062 50.4922C106.895 50.3137 106.682 50.2023 106.484 50.1271C106.108 49.9846 105.631 49.9197 105.228 49.8648L105.194 49.8601L104.785 45.155ZM74.5854 62.5038V62.8881L74.9568 62.9869C77.3963 63.6363 78.347 66.0659 77.2753 67.8301L76.8303 68.5626L77.687 68.5894C77.7801 68.5923 77.8824 68.5971 77.9893 68.6022C78.202 68.6122 78.4327 68.6231 78.6441 68.6214C78.9762 68.6187 79.3379 68.5876 79.6872 68.4629L80.019 68.3444V67.992V36V35.5H79.519H75.0854H74.5854V36V62.5038ZM53.9414 68.617V69.8619L54.8025 68.9629L59.2361 64.334L59.375 64.189V63.9881V43.8321V43.3321H58.875H54.4414H53.9414V43.8321V68.617ZM98.4241 56.2168L98.7777 55.8632L98.4241 56.2168C102.193 59.9854 108.31 59.9871 112.061 56.2168C115.83 52.448 115.832 46.3303 112.061 42.5793C108.292 38.811 102.175 38.8095 98.4238 42.58C94.6547 46.3495 94.6548 52.4471 98.4241 56.2168Z" fill="#5DB947" stroke="black"/>
<path d="M42.9136 77.1389L42.9136 77.1389L42.911 77.1411C42.399 77.5849 42.3816 78.3419 42.77 78.8273L42.7699 78.8274L42.7756 78.8343L52.9706 91.1193L52.9706 91.1193L52.9758 91.1254C53.4028 91.6235 54.1701 91.6391 54.6378 91.2382L58.5633 87.8791L58.5633 87.8791L58.5657 87.877C59.086 87.4261 59.0888 86.6654 58.6849 86.1683L58.6849 86.1682L58.6816 86.1643L48.5056 73.8983L48.5057 73.8983L48.5004 73.8922C48.0657 73.385 47.2968 73.387 46.8187 73.8L42.9136 77.1389Z" fill="#5DB947" stroke="black"/>
</svg>
