<svg width="128" height="100" viewBox="0 0 128 100" fill="none" xmlns="http://www.w3.org/2000/svg">
<path d="M8.15408 53.847C8.25277 53.945 8.3866 54 8.52614 54C8.66569 54 8.79952 53.945 8.89821 53.847L11.5032 51.261L14.1081 53.847C14.2074 53.9422 14.3403 53.9949 14.4783 53.9937C14.6163 53.9925 14.7483 53.9375 14.8459 53.8407C14.9434 53.7438 14.9988 53.6128 15 53.4758C15.0012 53.3388 14.9481 53.2069 14.8523 53.1083L11.8752 50.153C11.7766 50.055 11.6427 50 11.5032 50C11.3636 50 11.2298 50.055 11.1311 50.153L8.15408 53.1083C8.05542 53.2063 8 53.3392 8 53.4777C8 53.6162 8.05542 53.7491 8.15408 53.847Z" fill="#5DB947"/>
<path d="M17.1541 21.847C17.2528 21.945 17.3866 22 17.5261 22C17.6657 22 17.7995 21.945 17.8982 21.847L20.5032 19.261L23.1081 21.847C23.2074 21.9422 23.3403 21.9949 23.4783 21.9937C23.6163 21.9925 23.7483 21.9375 23.8459 21.8407C23.9434 21.7438 23.9988 21.6128 24 21.4758C24.0012 21.3388 23.9481 21.2069 23.8523 21.1083L20.8752 18.153C20.7766 18.055 20.6427 18 20.5032 18C20.3636 18 20.2298 18.055 20.1311 18.153L17.1541 21.1083C17.0554 21.2063 17 21.3392 17 21.4777C17 21.6162 17.0554 21.7491 17.1541 21.847Z" fill="#5DB947"/>
<path d="M101.154 36.847C101.253 36.945 101.387 37 101.526 37C101.666 37 101.8 36.945 101.898 36.847L104.503 34.261L107.108 36.847C107.207 36.9422 107.34 36.9949 107.478 36.9937C107.616 36.9925 107.748 36.9375 107.846 36.8407C107.943 36.7438 107.999 36.6128 108 36.4758C108.001 36.3388 107.948 36.2069 107.852 36.1083L104.875 33.153C104.777 33.055 104.643 33 104.503 33C104.364 33 104.23 33.055 104.131 33.153L101.154 36.1083C101.055 36.2063 101 36.3392 101 36.4777C101 36.6162 101.055 36.7491 101.154 36.847Z" fill="#5DB947"/>
<path d="M116.154 62.847C116.253 62.945 116.387 63 116.526 63C116.666 63 116.8 62.945 116.898 62.847L119.503 60.261L122.108 62.847C122.207 62.9422 122.34 62.9949 122.478 62.9937C122.616 62.9925 122.748 62.9375 122.846 62.8407C122.943 62.7438 122.999 62.6128 123 62.4758C123.001 62.3388 122.948 62.2069 122.852 62.1083L119.875 59.153C119.777 59.055 119.643 59 119.503 59C119.364 59 119.23 59.055 119.131 59.153L116.154 62.1083C116.055 62.2063 116 62.3392 116 62.4777C116 62.6162 116.055 62.7491 116.154 62.847Z" fill="#5DB947"/>
<path d="M92.6769 38.2372C91.7941 38.2372 91.0753 37.5224 91.0753 36.6395C91.0753 21.5105 78.7663 9.20153 63.6373 9.20153C48.5083 9.20153 36.1993 21.5105 36.1993 36.6395C36.1993 37.5223 35.4806 38.2372 34.5977 38.2372C33.7149 38.2372 33 37.5224 33 36.6395C33 25.6945 38.8398 15.5775 48.316 10.1045C57.7965 4.63182 69.476 4.63182 78.957 10.1045C88.4336 15.5772 94.273 25.6945 94.273 36.6395C94.273 37.0614 94.105 37.4716 93.8043 37.7684C93.5074 38.0692 93.0972 38.2372 92.6754 38.2372L92.6769 38.2372Z" fill="#C8F4BD"/>
<path d="M83.0329 38.2374C82.1462 38.2374 81.4313 37.5226 81.4313 36.6397C81.4313 26.8272 73.4508 18.8467 63.6383 18.8467C53.8258 18.8467 45.8453 26.8272 45.8453 36.6397C45.8453 37.5225 45.1305 38.2374 44.2437 38.2374C43.3609 38.2374 42.646 37.5226 42.646 36.6397C42.646 25.0657 52.064 15.6477 63.638 15.6477C75.212 15.6477 84.63 25.0657 84.63 36.6397C84.63 37.0616 84.462 37.4717 84.1612 37.7686C83.8605 38.0694 83.4548 38.2374 83.0329 38.2374Z" fill="#C8F4BD"/>
<path d="M74.2858 38.2373C73.403 38.2373 72.6881 37.5225 72.6881 36.6396C72.6881 31.6396 68.6373 27.5888 63.6373 27.5888C58.6373 27.5888 54.5865 31.6396 54.5865 36.6396C54.5865 37.5225 53.8717 38.2373 52.9888 38.2373C52.1021 38.2373 51.3872 37.5225 51.3872 36.6396C51.3872 29.874 56.8716 24.3896 63.6372 24.3896C70.4028 24.3896 75.8872 29.874 75.8872 36.6396C75.8872 37.0615 75.7192 37.4717 75.4185 37.7685C75.1177 38.0693 74.7116 38.2373 74.2858 38.2373Z" fill="#C8F4BD"/>
<path d="M69.8447 41.9672C69.8447 45.393 67.0674 48.1742 63.6377 48.1742C60.208 48.1742 57.4307 45.393 57.4307 41.9672C57.4307 38.5375 60.208 35.7563 63.6377 35.7563C67.0674 35.7563 69.8447 38.5375 69.8447 41.9672Z" fill="#C8F4BD"/>
<path d="M74.0516 65.7563H53.2236V62.9399V62.9438C53.2236 57.1899 57.8838 52.5298 63.6376 52.5298C69.3914 52.5298 74.0516 57.19 74.0516 62.9438V65.7563Z" fill="#C8F4BD"/>
<path d="M88.6537 55.8463V68.5843C88.6537 82.4003 77.4547 93.6003 63.6377 93.6003C57.0049 93.6003 50.6417 90.9636 45.9497 86.2722C41.2577 81.5808 38.6216 75.2172 38.6216 68.5842V55.8462H47.2232V67.0452C47.2232 72.9124 50.3521 78.3342 55.4302 81.2682C60.5122 84.2018 66.7742 84.2018 71.8522 81.2682C76.9342 78.3346 80.0631 72.9127 80.0631 67.0452V55.8462L88.6537 55.8463Z" fill="#C8F4BD"/>
<path d="M63.6377 50.6742C67.3437 50.6742 70.3447 47.669 70.3447 43.9672C70.3447 40.2618 67.3439 37.2563 63.6377 37.2563C59.9314 37.2563 56.9307 40.2618 56.9307 43.9672C56.9307 47.669 59.9316 50.6742 63.6377 50.6742Z" fill="#5DB947" stroke="black"/>
<path d="M74.0516 68.2563H74.5516V67.7563V64.9438C74.5516 58.9138 69.6676 54.0298 63.6376 54.0298C57.609 54.0298 52.7257 58.9116 52.7236 64.9399C52.7236 64.9412 52.7236 64.9425 52.7236 64.9438V67.7563V68.2563H53.2236H74.0516Z" fill="#5DB947" stroke="black"/>
<path d="M80.0596 41.8274H88.6534V46.8469H80.0596V41.8274Z" fill="#C8F4BD"/>
<path d="M39 42H47.5938V47.0195H39V42Z" fill="#C8F4BD"/>
<path d="M80.0596 43.3274H79.5596V43.8274V48.8469V49.3469H80.0596H88.6534H89.1534V48.8469V43.8274V43.3274H88.6534H80.0596Z" fill="#5DB947" stroke="black"/>
<path d="M39 43.5H38.5V44V49.0195V49.5195H39H47.5938H48.0938V49.0195V44V43.5H47.5938H39Z" fill="#5DB947" stroke="black"/>
<path d="M89.1537 52.8463V52.3463L88.6537 52.3463L80.0631 52.3462L79.5631 52.3462V52.8462V64.0452C79.5631 69.7341 76.5294 74.9909 71.6022 77.8352L71.6021 77.8352C66.6789 80.6794 60.6077 80.6795 55.6803 77.8353C50.7569 74.9906 47.7232 69.7339 47.7232 64.0452V52.8462V52.3462H47.2232H38.6216H38.1216V52.8462V65.5842C38.1216 72.3498 40.8104 78.8406 45.5962 83.6258C50.3819 88.4109 56.8722 91.1003 63.6377 91.1003C77.7308 91.1003 89.1537 79.6764 89.1537 65.5843V52.8463Z" fill="white" stroke="black"/>
<path d="M92.6769 40.7372V40.7372C93.2283 40.7368 93.7658 40.5179 94.158 40.1218C94.5543 39.7293 94.773 39.1913 94.773 38.6395C94.773 27.516 88.8384 17.2336 79.207 11.6715L79.207 11.6715C69.5713 6.10951 57.7012 6.1095 48.066 11.6715L48.0659 11.6716C38.435 17.2339 32.5 27.5159 32.5 38.6395C32.5 39.7985 33.4388 40.7372 34.5977 40.7372C35.7551 40.7372 36.6993 39.8001 36.6993 38.6395C36.6993 23.7867 48.7844 11.7015 63.6373 11.7015C78.4902 11.7015 90.5753 23.7867 90.5753 38.6395C90.5753 39.8001 91.5196 40.7372 92.6769 40.7372Z" fill="white" stroke="black"/>
<path d="M80.9313 38.6397C80.9313 39.7995 81.8708 40.7374 83.0329 40.7374C83.5875 40.7374 84.1198 40.5167 84.5138 40.1231C84.9108 39.7305 85.13 39.192 85.13 38.6397C85.13 26.7896 75.4881 17.1477 63.638 17.1477C51.7879 17.1477 42.146 26.7896 42.146 38.6397C42.146 39.7987 43.0848 40.7374 44.2437 40.7374C45.4058 40.7374 46.3453 39.7994 46.3453 38.6397C46.3453 29.1033 54.1019 21.3467 63.6383 21.3467C73.1747 21.3467 80.9313 29.1033 80.9313 38.6397Z" fill="#5DB947" stroke="black"/>
<path d="M72.1881 38.6396C72.1881 39.7987 73.1269 40.7373 74.2858 40.7373C74.8435 40.7373 75.3764 40.5172 75.771 40.1231C76.168 39.7306 76.3872 39.192 76.3872 38.6396C76.3872 31.5979 70.6789 25.8896 63.6372 25.8896C56.5955 25.8896 50.8872 31.5979 50.8872 38.6396C50.8872 39.7995 51.8267 40.7373 52.9888 40.7373C54.1478 40.7373 55.0865 39.7986 55.0865 38.6396C55.0865 33.9158 58.9134 30.0888 63.6373 30.0888C68.3612 30.0888 72.1881 33.9158 72.1881 38.6396Z" fill="white" stroke="black"/>
</svg>
