<svg width="128" height="100" viewBox="0 0 128 100" fill="none" xmlns="http://www.w3.org/2000/svg">
<path d="M8.15408 59.847C8.25277 59.945 8.3866 60 8.52614 60C8.66569 60 8.79952 59.945 8.89821 59.847L11.5032 57.261L14.1081 59.847C14.2074 59.9422 14.3403 59.9949 14.4783 59.9937C14.6163 59.9925 14.7483 59.9375 14.8459 59.8407C14.9434 59.7438 14.9988 59.6128 15 59.4758C15.0012 59.3388 14.9481 59.2069 14.8523 59.1083L11.8752 56.153C11.7766 56.055 11.6427 56 11.5032 56C11.3636 56 11.2298 56.055 11.1311 56.153L8.15408 59.1083C8.05542 59.2063 8 59.3392 8 59.4777C8 59.6162 8.05542 59.7491 8.15408 59.847Z" fill="#5DB947"/>
<path d="M15.1541 40.847C15.2528 40.945 15.3866 41 15.5261 41C15.6657 41 15.7995 40.945 15.8982 40.847L18.5032 38.261L21.1081 40.847C21.2074 40.9422 21.3403 40.9949 21.4783 40.9937C21.6163 40.9925 21.7483 40.9375 21.8459 40.8407C21.9434 40.7438 21.9988 40.6128 22 40.4758C22.0012 40.3388 21.9481 40.2069 21.8523 40.1083L18.8752 37.153C18.7766 37.055 18.6427 37 18.5032 37C18.3636 37 18.2298 37.055 18.1311 37.153L15.1541 40.1083C15.0554 40.2063 15 40.3392 15 40.4777C15 40.6162 15.0554 40.7491 15.1541 40.847Z" fill="#5DB947"/>
<path d="M106.154 42.847C106.253 42.945 106.387 43 106.526 43C106.666 43 106.8 42.945 106.898 42.847L109.503 40.261L112.108 42.847C112.207 42.9422 112.34 42.9949 112.478 42.9937C112.616 42.9925 112.748 42.9375 112.846 42.8407C112.943 42.7438 112.999 42.6128 113 42.4758C113.001 42.3388 112.948 42.2069 112.852 42.1083L109.875 39.153C109.777 39.055 109.643 39 109.503 39C109.364 39 109.23 39.055 109.131 39.153L106.154 42.1083C106.055 42.2063 106 42.3392 106 42.4777C106 42.6162 106.055 42.7491 106.154 42.847Z" fill="#5DB947"/>
<path d="M117.154 66.847C117.253 66.945 117.387 67 117.526 67C117.666 67 117.8 66.945 117.898 66.847L120.503 64.261L123.108 66.847C123.207 66.9422 123.34 66.9949 123.478 66.9937C123.616 66.9925 123.748 66.9375 123.846 66.8407C123.943 66.7438 123.999 66.6128 124 66.4758C124.001 66.3388 123.948 66.2069 123.852 66.1083L120.875 63.153C120.777 63.055 120.643 63 120.503 63C120.364 63 120.23 63.055 120.131 63.153L117.154 66.1083C117.055 66.2063 117 66.3392 117 66.4777C117 66.6162 117.055 66.7491 117.154 66.847Z" fill="#5DB947"/>
<path d="M93.0477 46.5254H78.6423C77.0713 46.5254 75.7915 47.8052 75.7915 49.3762V76.9135C75.7915 77.1136 75.8157 77.3016 75.8522 77.4897C76.1191 78.7877 77.2654 79.7643 78.6423 79.7643H93.0477C93.8362 79.7643 94.5459 79.4428 95.0614 78.9273C95.577 78.4117 95.8984 77.7021 95.8984 76.9136V49.3762C95.8986 47.8052 94.6187 46.5254 93.0477 46.5254ZM94.6854 71.582C94.6854 72.4857 93.9515 73.2196 93.0477 73.2196H78.6423C77.7385 73.2196 77.0107 72.4857 77.0047 71.5881V49.3762C77.0047 48.4725 77.7386 47.7385 78.6423 47.7385H93.0477C93.9515 47.7385 94.6854 48.4725 94.6854 49.3762V71.582Z" fill="#C8F4BD"/>
<path d="M39.3074 51.0595V34.7905C39.3074 34.4574 39.5907 34.185 39.9369 34.185H79.2163C79.5626 34.185 79.8459 34.4574 79.8459 34.7905V42.1772H86.1469V28.7842H33V60.1174C33 63.2901 35.6816 65.8634 38.9738 65.8634H70.5295V57.52H40.2893C39.943 57.52 39.6598 57.2475 39.6598 56.9145C39.6598 56.5754 39.943 56.309 40.2893 56.309H70.5295V51.665H39.9369C39.5907 51.665 39.3074 51.3925 39.3074 51.0595Z" fill="#C8F4BD"/>
<path d="M85.683 17.2366C85.683 14.0644 83.1051 11.4805 79.9329 11.4805H40.2283C37.0561 11.4805 34.4722 14.0644 34.4722 17.2366V24.2665H85.6828L85.683 17.2366ZM43.2551 20.8456C41.951 20.8456 40.8896 19.7842 40.8896 18.4863C40.8896 17.1761 41.951 16.1147 43.2551 16.1147C44.5591 16.1147 45.6267 17.1761 45.6267 18.4863C45.6266 19.7842 44.5591 20.8456 43.2551 20.8456ZM49.9695 20.8456C48.6655 20.8456 47.604 19.7842 47.604 18.4863C47.604 17.1761 48.6655 16.1147 49.9695 16.1147C51.2735 16.1147 52.3411 17.1761 52.3411 18.4863C52.3411 19.7842 51.2735 20.8456 49.9695 20.8456ZM56.6839 20.8456C55.3799 20.8456 54.3184 19.7842 54.3184 18.4863C54.3184 17.1761 55.3799 16.1147 56.6839 16.1147C57.988 16.1147 59.0556 17.1761 59.0556 18.4863C59.0556 19.7842 57.988 20.8456 56.6839 20.8456ZM78.6653 19.0867H67.984C67.6504 19.0867 67.3774 18.8138 67.3774 18.4801C67.3774 18.1465 67.6504 17.8736 67.984 17.8736H78.6653C78.9989 17.8736 79.2718 18.1465 79.2718 18.4801C79.2718 18.8138 78.9987 19.0867 78.6653 19.0867Z" fill="#C8F4BD"/>
<path d="M43.253 18.7986C42.619 18.7986 42.103 19.3181 42.103 19.956C42.103 20.5905 42.619 21.1063 43.253 21.1063C43.8912 21.1063 44.4104 20.5903 44.4104 19.956C44.4104 19.3181 43.8912 18.7986 43.253 18.7986Z" fill="white"/>
<path d="M41.3896 19.9582C41.3896 20.9791 42.2263 21.8175 43.2551 21.8175C44.2854 21.8175 45.1266 20.9775 45.1267 19.9582H41.3896ZM41.3896 19.9582C41.3896 18.9233 42.228 18.0866 43.2551 18.0866M41.3896 19.9582L43.2551 18.0866M43.2551 18.0866C44.2838 18.0866 45.1267 18.925 45.1267 19.9582L43.2551 18.0866ZM33.9722 25.7385V26.2385H34.4722H85.6828H86.1828L86.1828 25.7385L86.183 18.7086C86.183 15.2608 83.3819 12.4524 79.9329 12.4524H40.2283C36.7799 12.4524 33.9722 15.2601 33.9722 18.7086V25.7385ZM49.9695 21.8175C48.9408 21.8175 48.104 20.9791 48.104 19.9582C48.104 18.9233 48.9424 18.0866 49.9695 18.0866C50.9982 18.0866 51.8411 18.925 51.8411 19.9582C51.8411 20.9774 50.9999 21.8175 49.9695 21.8175ZM56.6839 21.8175C55.6552 21.8175 54.8184 20.9791 54.8184 19.9582C54.8184 18.9233 55.6569 18.0866 56.6839 18.0866C57.7127 18.0866 58.5556 18.925 58.5556 19.9582C58.5556 20.9774 57.7144 21.8175 56.6839 21.8175ZM78.6653 20.0586H67.984C67.9265 20.0586 67.8774 20.0095 67.8774 19.9521C67.8774 19.8946 67.9265 19.8455 67.984 19.8455H78.6653C78.7227 19.8455 78.7718 19.8946 78.7718 19.9521C78.7718 20.0095 78.7227 20.0586 78.6653 20.0586Z" fill="white" stroke="black"/>
<path d="M49.9683 18.7986C49.3343 18.7986 48.8184 19.3181 48.8184 19.956C48.8184 20.5905 49.3343 21.1063 49.9683 21.1063C50.6066 21.1063 51.1258 20.5903 51.1258 19.956C51.1258 19.3181 50.6066 18.7986 49.9683 18.7986Z" fill="white"/>
<path d="M79.1115 44.0765V44.5765H79.6115H85.683H86.183V44.0765V30.6597V30.1597H85.683H34.4722H33.9722V30.6597V62.0485C33.9722 65.5033 36.7803 68.3047 40.2283 68.3047H70.6345H71.1345V67.8047V59.4464V58.9464H70.6345H41.4959C41.4384 58.9464 41.3893 58.8974 41.3893 58.8399C41.3893 58.7796 41.4352 58.7333 41.4959 58.7333H70.6345H71.1345V58.2333V53.5811V53.0811H70.6345H41.1564C41.0989 53.0811 41.0498 53.032 41.0498 52.9745V36.6766C41.0498 36.6191 41.0989 36.5701 41.1564 36.5701H79.0049C79.0624 36.5701 79.1115 36.6191 79.1115 36.6766V44.0765Z" fill="white" stroke="black"/>
<path d="M78.3985 44.0765V37.2832H41.7632V52.368H70.6348V48.1405C70.6348 45.9022 72.4606 44.0765 74.6987 44.0765H78.3985Z" fill="#5DB947"/>
<path d="M56.6837 18.7986C56.0496 18.7986 55.5337 19.3181 55.5337 19.956C55.5337 20.5905 56.0496 21.1063 56.6837 21.1063C57.3219 21.1063 57.8411 20.5903 57.8411 19.956C57.8411 19.3181 57.322 18.7986 56.6837 18.7986Z" fill="white"/>
<path d="M73.8892 78.8208L73.8891 78.8208L73.8903 78.8263C74.2039 80.3514 75.5505 81.5001 77.1702 81.5001H91.5756C92.5035 81.5001 93.3384 81.1211 93.9428 80.5167C94.5472 79.9123 94.9263 79.0773 94.9263 78.1494V50.6121C94.9263 50.6121 94.9263 50.6121 94.9263 50.6121C94.9264 48.7649 93.4227 47.2612 91.5756 47.2612H77.1702C75.323 47.2612 73.8193 48.7649 73.8193 50.6121V78.1493C73.8193 78.3905 73.8486 78.6118 73.8892 78.8208ZM92.7132 72.8178C92.7132 73.4454 92.2031 73.9555 91.5756 73.9555H77.1702C76.5448 73.9555 76.0375 73.4473 76.0325 72.8221V50.6121C76.0325 49.9845 76.5426 49.4744 77.1702 49.4744H91.5756C92.2031 49.4744 92.7132 49.9845 92.7132 50.6121V72.8178Z" fill="white" stroke="black"/>
<path d="M78.7174 54.0115H90.0295C90.0868 54.0115 90.1361 54.0605 90.1361 54.1182V61.8637C90.1361 61.9212 90.087 61.9703 90.0295 61.9703H78.7174C78.6599 61.9703 78.6108 61.9212 78.6108 61.8637V54.118C78.6108 54.0606 78.6599 54.0115 78.7174 54.0115Z" fill="#5DB947" stroke="black"/>
<path d="M91.1339 67.8834V67.8832C91.1337 67.2719 90.6384 66.7769 90.0273 66.7769H78.7189C78.108 66.7769 77.6123 67.2717 77.6123 67.8834C77.6123 68.4949 78.1079 68.99 78.7189 68.99H90.0273C90.6382 68.99 91.1339 68.4951 91.1339 67.8834Z" fill="white" stroke="black"/>
</svg>
