<svg width="128" height="100" viewBox="0 0 128 100" fill="none" xmlns="http://www.w3.org/2000/svg">
<path d="M3.15408 70.847C3.25277 70.945 3.3866 71 3.52614 71C3.66569 71 3.79952 70.945 3.89821 70.847L6.50318 68.261L9.10815 70.847C9.2074 70.9422 9.34033 70.9949 9.47832 70.9937C9.6163 70.9925 9.74829 70.9375 9.84586 70.8407C9.94344 70.7438 9.99878 70.6128 9.99998 70.4758C10.0012 70.3388 9.94814 70.2069 9.85227 70.1083L6.87524 67.153C6.77655 67.055 6.64272 67 6.50318 67C6.36363 67 6.2298 67.055 6.13111 67.153L3.15408 70.1083C3.05542 70.2063 3 70.3392 3 70.4777C3 70.6162 3.05542 70.7491 3.15408 70.847Z" fill="#5DB947"/>
<path d="M106.154 18.847C106.253 18.945 106.387 19 106.526 19C106.666 19 106.8 18.945 106.898 18.847L109.503 16.261L112.108 18.847C112.207 18.9422 112.34 18.9949 112.478 18.9937C112.616 18.9925 112.748 18.9375 112.846 18.8407C112.943 18.7438 112.999 18.6128 113 18.4758C113.001 18.3388 112.948 18.2069 112.852 18.1083L109.875 15.153C109.777 15.055 109.643 15 109.503 15C109.364 15 109.23 15.055 109.131 15.153L106.154 18.1083C106.055 18.2063 106 18.3392 106 18.4777C106 18.6162 106.055 18.7491 106.154 18.847Z" fill="#5DB947"/>
<path d="M121.154 43.847C121.253 43.945 121.387 44 121.526 44C121.666 44 121.8 43.945 121.898 43.847L124.503 41.261L127.108 43.847C127.207 43.9422 127.34 43.9949 127.478 43.9937C127.616 43.9925 127.748 43.9375 127.846 43.8407C127.943 43.7438 127.999 43.6128 128 43.4758C128.001 43.3388 127.948 43.2069 127.852 43.1083L124.875 40.153C124.777 40.055 124.643 40 124.503 40C124.364 40 124.23 40.055 124.131 40.153L121.154 43.1083C121.055 43.2063 121 43.3392 121 43.4777C121 43.6162 121.055 43.7491 121.154 43.847Z" fill="#5DB947"/>
<path d="M10.1541 27.847C10.2528 27.945 10.3866 28 10.5261 28C10.6657 28 10.7995 27.945 10.8982 27.847L13.5032 25.261L16.1081 27.847C16.2074 27.9422 16.3403 27.9949 16.4783 27.9937C16.6163 27.9925 16.7483 27.9375 16.8459 27.8407C16.9434 27.7438 16.9988 27.6128 17 27.4758C17.0012 27.3388 16.9481 27.2069 16.8523 27.1083L13.8752 24.153C13.7766 24.055 13.6427 24 13.5032 24C13.3636 24 13.2298 24.055 13.1311 24.153L10.1541 27.1083C10.0554 27.2063 10 27.3392 10 27.4777C10 27.6162 10.0554 27.7491 10.1541 27.847Z" fill="#5DB947"/>
<path d="M51.562 31.874C44.6714 31.874 39.062 37.4834 39.062 44.374C39.062 51.2646 44.6714 56.874 51.562 56.874C58.4526 56.874 64.062 51.2646 64.062 44.374C64.062 37.4834 58.4526 31.874 51.562 31.874ZM50.2026 41.948L54.3159 44.0027C55.5112 44.6004 56.2495 45.7996 56.2495 47.1316C56.2495 48.9324 54.8745 50.4011 53.1245 50.5886V52.1863C53.1245 53.0496 52.4253 53.7488 51.562 53.7488C50.6987 53.7488 49.9995 53.0496 49.9995 52.1863V50.6238H48.437C47.5737 50.6238 46.8745 49.9246 46.8745 49.0613C46.8745 48.198 47.5737 47.4988 48.437 47.4988H52.7573C52.9604 47.4988 53.1245 47.3348 53.1245 47.1316C53.1245 46.991 53.0425 46.8621 52.9214 46.7996L48.8081 44.7449C47.6128 44.1472 46.8745 42.948 46.8745 41.616C46.8745 39.8152 48.2495 38.3465 49.9995 38.159V36.5613C49.9995 35.698 50.6987 34.9988 51.562 34.9988C52.4253 34.9988 53.1245 35.698 53.1245 36.5613V38.1238H54.687C55.5503 38.1238 56.2495 38.823 56.2495 39.6863C56.2495 40.5496 55.5503 41.2488 54.687 41.2488H50.3667C50.1636 41.2488 49.9995 41.4129 49.9995 41.616C49.9995 41.7566 50.0815 41.8855 50.2026 41.948Z" fill="#C8F4BD"/>
<path d="M72.703 58.5891C70.8007 56.6868 70.8436 54.2688 71.5194 52.6399C72.1952 51.011 73.8749 49.2688 76.5624 49.2688C77.4257 49.2688 78.1249 48.5695 78.1249 47.7063V41.0383C78.1249 40.175 77.4257 39.4758 76.5624 39.4758C73.8749 39.4758 72.1913 37.7336 71.5194 36.1047C70.8436 34.4758 70.8006 32.0578 72.703 30.1555C73.3124 29.5461 73.3124 28.5578 72.703 27.9446L67.9882 23.2298C67.3788 22.6204 66.3905 22.6204 65.7773 23.2298C63.875 25.1321 61.457 25.0853 59.8281 24.4134C58.1992 23.7454 56.457 22.0618 56.457 19.3743C56.457 18.511 55.7578 17.8118 54.8945 17.8118H48.2265C47.3632 17.8118 46.664 18.511 46.664 19.3743C46.664 22.0618 44.9218 23.7454 43.2929 24.4173C41.664 25.093 39.246 25.136 37.3437 23.2337C36.7343 22.6243 35.746 22.6243 35.1328 23.2337L30.418 27.9485C29.8086 28.5578 29.8086 29.5462 30.418 30.1594C32.3203 32.0617 32.2774 34.4797 31.6016 36.1086C30.9336 37.7375 29.25 39.4797 26.5625 39.4797C25.6992 39.4797 25 40.1789 25 41.0422V47.7102C25 48.5734 25.6992 49.2727 26.5625 49.2727C29.25 49.2727 30.9297 51.0149 31.6055 52.6438C32.2813 54.2727 32.3242 56.6907 30.4219 58.593C29.8125 59.2023 29.8125 60.1907 30.4219 60.8039L35.1367 65.5187C35.7461 66.128 36.7344 66.128 37.3476 65.5187C39.2499 63.6164 41.6679 63.6593 43.2968 64.3351C44.9257 65.0069 46.6679 66.6828 46.6679 69.3742C46.6679 70.2374 47.3671 70.9367 48.2304 70.9367H54.8984C55.7617 70.9367 56.4609 70.2374 56.4609 69.3742C56.4609 66.6828 58.2031 65.007 59.832 64.3312C61.4609 63.6593 63.8789 63.6124 65.7812 65.5148C66.3906 66.1241 67.3789 66.1241 67.9921 65.5148L72.7069 60.8C73.3124 60.1906 73.3124 59.2023 72.703 58.5891ZM51.562 59.9993C42.9448 59.9993 35.937 52.9876 35.937 44.3743C35.937 35.7571 42.9448 28.7493 51.562 28.7493C60.1792 28.7493 67.187 35.7571 67.187 44.3743C67.187 52.9876 60.1792 59.9993 51.562 59.9993Z" fill="#C8F4BD"/>
<path d="M38.8429 15.8321C42.8468 14.0352 47.1281 13.1251 51.5619 13.1251C55.8627 13.1251 60.015 14.0001 63.9209 15.6915L62.0068 16.3282C61.1865 16.6016 60.7451 17.4844 61.0185 18.3048C61.2841 19.0978 62.2021 19.5587 62.9951 19.2931L67.6826 17.7306C68.3193 17.5196 68.749 16.922 68.749 16.2501V11.5626C68.749 10.6993 68.0498 10.0001 67.1865 10.0001C66.3232 10.0001 65.624 10.6993 65.624 11.5626V13.0274C65.6006 13.0157 65.5849 12.9922 65.5615 12.9805C61.1474 11.0039 56.4404 10 51.5615 10C46.6826 10 41.9756 11.0039 37.5615 12.9805C36.7724 13.3321 36.4209 14.2578 36.7763 15.0469C37.1279 15.8321 38.0538 16.1836 38.8429 15.8321Z" fill="#C8F4BD"/>
<path d="M64.9842 72.9171C57.0858 76.4562 47.8432 76.4913 39.9062 73.0577L41.8203 72.421C42.6407 72.1475 43.082 71.2648 42.8086 70.4444C42.5352 69.6279 41.6524 69.1827 40.832 69.4561L36.1445 71.0186C35.5078 71.2295 35.0781 71.8272 35.0781 72.4991V77.1866C35.0781 78.0499 35.7773 78.7491 36.6406 78.7491C37.5039 78.7491 38.2031 78.0499 38.2031 77.1866V75.7218C38.2266 75.7335 38.2422 75.7569 38.2656 75.7687C42.6797 77.7453 47.3906 78.7492 52.2656 78.7492C57.1406 78.7492 61.8515 77.7453 66.2656 75.7687C67.0547 75.4171 67.4062 74.4914 67.0508 73.7023C66.6992 72.9171 65.7694 72.5616 64.9842 72.9171Z" fill="#C8F4BD"/>
<path d="M76.562 75.624H70.312C69.4487 75.624 68.7495 76.3232 68.7495 77.1865V86.5615C68.7495 87.4248 69.4487 88.124 70.312 88.124H76.562C77.4253 88.124 78.1245 87.4248 78.1245 86.5615V77.1865C78.1245 76.3232 77.4253 75.624 76.562 75.624Z" fill="#C8F4BD"/>
<path d="M89.062 69.374H82.812C81.9487 69.374 81.2495 70.0732 81.2495 70.9365V86.5615C81.2495 87.4248 81.9487 88.124 82.812 88.124H89.062C89.9253 88.124 90.6245 87.4248 90.6245 86.5615V70.9365C90.6245 70.0732 89.9253 69.374 89.062 69.374Z" fill="#C8F4BD"/>
<path d="M101.562 63.124H95.312C94.4487 63.124 93.7495 63.8232 93.7495 64.6865V86.5615C93.7495 87.4248 94.4487 88.124 95.312 88.124H101.562C102.425 88.124 103.125 87.4248 103.125 86.5615V64.6865C103.125 63.8232 102.425 63.124 101.562 63.124Z" fill="#C8F4BD"/>
<path d="M101.562 49.062H95.3118C94.4486 49.062 93.7493 49.7612 93.7493 50.6245C93.7493 51.4878 94.4486 52.187 95.3118 52.187H97.7884L87.4994 62.476L83.9174 58.894C83.3081 58.2846 82.3197 58.2846 81.7065 58.894L75.4565 65.144C74.8472 65.7534 74.8472 66.7417 75.4565 67.3549C76.0347 67.933 77.0542 67.9682 77.6674 67.3549L82.8119 62.2104L86.3939 65.7924C87.0033 66.4018 87.9916 66.4018 88.6048 65.7924L99.9999 54.3974V56.874C99.9999 57.7373 100.699 58.4365 101.562 58.4365C102.426 58.4365 103.125 57.7373 103.125 56.874V50.624C103.125 49.7607 102.425 49.062 101.562 49.062Z" fill="#C8F4BD"/>
<path d="M49.9733 44.3923L49.9733 44.3924L49.9792 44.3953L54.0923 46.4499C55.1179 46.9627 55.7495 47.9886 55.7495 49.1316C55.7495 50.6696 54.5745 51.9304 53.0712 52.0915L52.6245 52.1393V52.5886V54.1863C52.6245 54.7735 52.1491 55.2488 51.562 55.2488C50.9749 55.2488 50.4995 54.7735 50.4995 54.1863V52.6238V52.1238H49.9995H48.437C47.8499 52.1238 47.3745 51.6485 47.3745 51.0613C47.3745 50.4742 47.8499 49.9988 48.437 49.9988H52.7573C53.2366 49.9988 53.6245 49.6109 53.6245 49.1316C53.6245 48.7986 53.4333 48.5011 53.1507 48.3553L53.1507 48.3553L53.1448 48.3523L49.0317 46.2977C48.0061 45.7849 47.3745 44.759 47.3745 43.616C47.3745 42.0781 48.5494 40.8172 50.0527 40.6562L50.4995 40.6083V40.159V38.5613C50.4995 37.9742 50.9748 37.4988 51.562 37.4988C52.1491 37.4988 52.6245 37.9742 52.6245 38.5613V40.1238V40.6238H53.1245H54.687C55.2741 40.6238 55.7495 41.0992 55.7495 41.6863C55.7495 42.2734 55.2741 42.7488 54.687 42.7488H50.3667C49.8874 42.7488 49.4995 43.1367 49.4995 43.616C49.4995 43.949 49.6907 44.2465 49.9733 44.3923ZM51.562 33.374C44.3953 33.374 38.562 39.2073 38.562 46.374C38.562 53.5408 44.3953 59.374 51.562 59.374C58.7288 59.374 64.562 53.5408 64.562 46.374C64.562 39.2073 58.7288 33.374 51.562 33.374Z" fill="white" stroke="black"/>
<path d="M73.0577 60.2366L73.0566 60.2355C71.3301 58.5091 71.3635 56.3204 71.9812 54.8315C72.5993 53.3417 74.124 51.7688 76.5624 51.7688C77.7018 51.7688 78.6249 50.8457 78.6249 49.7063V43.0383C78.6249 41.8988 77.7018 40.9758 76.5624 40.9758C74.1235 40.9758 72.5955 39.4023 71.9816 37.914L71.9812 37.9131C71.3635 36.4242 71.3301 34.2355 73.0565 32.509C73.8618 31.7038 73.8602 30.3997 73.0577 29.5921L73.0566 29.591L68.3418 24.8762C67.5365 24.071 66.2325 24.0725 65.4249 24.8751L65.4237 24.8762C63.6978 26.6022 61.509 26.5659 60.0188 25.9511L60.0178 25.9508C58.5305 25.3409 56.957 23.8133 56.957 21.3743C56.957 20.2348 56.0339 19.3118 54.8945 19.3118H48.2265C47.0871 19.3118 46.164 20.2348 46.164 21.3743C46.164 23.8132 44.5906 25.3411 43.1022 25.955L43.1013 25.9554C41.6124 26.5731 39.4237 26.6066 37.6973 24.8801L37.3437 25.2337L37.6973 24.8801C36.892 24.0749 35.5879 24.0764 34.7804 24.879L34.7792 24.8801L30.0644 29.5949C29.2592 30.4002 29.2608 31.7042 30.0633 32.5118L30.0644 32.5129C31.7909 34.2394 31.7575 36.4281 31.1398 37.917L31.139 37.9189C30.5291 39.4061 29.0016 40.9797 26.5625 40.9797C25.4231 40.9797 24.5 41.9027 24.5 43.0422V49.7102C24.5 50.8496 25.4231 51.7727 26.5625 51.7727C29.0009 51.7727 30.5256 53.3456 31.1437 54.8354C31.7614 56.3243 31.7948 58.513 30.0684 60.2394C29.2631 61.0447 29.2647 62.3487 30.0672 63.1563L30.0683 63.1574L34.7831 67.8722C35.5884 68.6775 36.8925 68.6759 37.7 67.8733L37.7012 67.8722C39.4276 66.1458 41.6163 66.1792 43.1052 66.7969L43.1061 66.7973C44.5951 67.4114 46.1679 68.932 46.1679 71.3742C46.1679 72.5136 47.091 73.4367 48.2304 73.4367H54.8984C56.0378 73.4367 56.9609 72.5136 56.9609 71.3742C56.9609 68.9323 58.5333 67.4115 60.0231 66.7932C61.5134 66.1787 63.7018 66.1425 65.4276 67.8683C66.2329 68.6736 67.5369 68.672 68.3445 67.8694L68.3457 67.8683L73.0605 63.1535L73.0616 63.1524C73.8616 62.3472 73.86 61.044 73.0577 60.2366ZM51.562 61.4993C43.221 61.4993 36.437 54.7115 36.437 46.3743C36.437 38.0332 43.2209 31.2493 51.562 31.2493C59.9031 31.2493 66.687 38.0332 66.687 46.3743C66.687 54.7115 59.903 61.4993 51.562 61.4993Z" fill="white" stroke="black"/>
<path d="M39.0464 18.2888L39.0476 18.2882C42.9863 16.5206 47.1978 15.6251 51.5619 15.6251C55.3408 15.6251 59.0026 16.3114 62.4803 17.6437L61.849 17.8538L61.8487 17.8539C60.7664 18.2146 60.1834 19.3805 60.5442 20.4629L60.5444 20.4636C60.8971 21.5166 62.0973 22.1211 63.1539 21.7672L67.8398 20.2052C67.84 20.2052 67.8401 20.2051 67.8402 20.2051C68.6825 19.9259 69.249 19.1362 69.249 18.2501V13.5626C69.249 12.4232 68.3259 11.5001 67.1865 11.5001C66.0471 11.5001 65.124 12.4232 65.124 13.5626V14.2444C60.8317 12.4239 56.2747 11.5 51.5615 11.5C46.6128 11.5 41.8362 12.5185 37.3576 14.524C36.315 14.9888 35.8519 16.2114 36.3202 17.2517C36.7855 18.2902 38.0075 18.7516 39.0464 18.2888Z" fill="#5DB947" stroke="black"/>
<path d="M64.7791 74.4611C57.4192 77.7587 48.8688 77.9637 41.3497 75.1044L41.9782 74.8954L41.9785 74.8953C43.0608 74.5345 43.6437 73.3686 43.283 72.2863L43.2827 72.2856C42.9222 71.2092 41.7576 70.6206 40.6739 70.9817L40.6739 70.9817L35.9873 72.5439C35.9871 72.544 35.987 72.544 35.9868 72.5441C35.1446 72.8233 34.5781 73.613 34.5781 74.4991V79.1866C34.5781 80.326 35.5012 81.2491 36.6406 81.2491C37.78 81.2491 38.7031 80.326 38.7031 79.1866V78.5048C42.9957 80.3253 47.5561 81.2492 52.2656 81.2492C57.2104 81.2492 61.9909 80.2306 66.4695 78.2252C67.5119 77.7605 67.975 76.5382 67.5071 75.4979C67.0431 74.4615 65.8175 73.9917 64.7791 74.4611Z" fill="#5DB947" stroke="black"/>
<path d="M76.562 77.124H70.312C69.1726 77.124 68.2495 78.0471 68.2495 79.1865V88.5615C68.2495 89.7009 69.1726 90.624 70.312 90.624H76.562C77.7014 90.624 78.6245 89.7009 78.6245 88.5615V79.1865C78.6245 78.0471 77.7014 77.124 76.562 77.124Z" fill="white" stroke="black"/>
<path d="M89.062 70.874H82.812C81.6726 70.874 80.7495 71.7971 80.7495 72.9365V88.5615C80.7495 89.7009 81.6726 90.624 82.812 90.624H89.062C90.2014 90.624 91.1245 89.7009 91.1245 88.5615V72.9365C91.1245 71.7971 90.2014 70.874 89.062 70.874Z" fill="#5DB947" stroke="black"/>
<path d="M101.562 64.624H95.312C94.1726 64.624 93.2495 65.5471 93.2495 66.6865V88.5615C93.2495 89.7009 94.1726 90.624 95.312 90.624H101.562C102.701 90.624 103.625 89.7009 103.625 88.5615V66.6865C103.625 65.5471 102.701 64.624 101.562 64.624Z" fill="white" stroke="black"/>
<path d="M99.4999 57.6045V58.874C99.4999 60.0134 100.423 60.9365 101.562 60.9365C102.702 60.9365 103.625 60.0134 103.625 58.874V52.624C103.625 51.4842 102.701 50.562 101.562 50.562H95.3118C94.1724 50.562 93.2493 51.4851 93.2493 52.6245C93.2493 53.7639 94.1724 54.687 95.3118 54.687H96.5813L87.4994 63.7689L84.271 60.5405C83.4657 59.7352 82.1617 59.7368 81.3541 60.5394L81.353 60.5405L75.103 66.7905L75.4565 67.144L75.103 66.7905C74.2977 67.5957 74.2993 68.8998 75.1019 69.7074L75.103 69.7085C75.8691 70.4745 77.2053 70.5243 78.021 69.7085C78.021 69.7085 78.021 69.7085 78.021 69.7085L82.8119 64.9175L86.0404 68.146C86.8456 68.9512 88.1497 68.9496 88.9573 68.1471L88.9584 68.146L99.4999 57.6045Z" fill="white" stroke="black"/>
</svg>
