<svg width="128" height="100" viewBox="0 0 128 100" fill="none" xmlns="http://www.w3.org/2000/svg">
<path d="M2.15408 85.847C2.25277 85.945 2.3866 86 2.52614 86C2.66569 86 2.79952 85.945 2.89821 85.847L5.50318 83.261L8.10815 85.847C8.2074 85.9422 8.34033 85.9949 8.47832 85.9937C8.6163 85.9925 8.74829 85.9375 8.84586 85.8407C8.94344 85.7438 8.99878 85.6128 8.99998 85.4758C9.00118 85.3388 8.94814 85.2069 8.85227 85.1083L5.87524 82.153C5.77655 82.055 5.64272 82 5.50318 82C5.36363 82 5.2298 82.055 5.13111 82.153L2.15408 85.1083C2.05542 85.2063 2 85.3392 2 85.4777C2 85.6162 2.05542 85.7491 2.15408 85.847Z" fill="#5DB947"/>
<path d="M115.154 17.847C115.253 17.945 115.387 18 115.526 18C115.666 18 115.8 17.945 115.898 17.847L118.503 15.261L121.108 17.847C121.207 17.9422 121.34 17.9949 121.478 17.9937C121.616 17.9925 121.748 17.9375 121.846 17.8407C121.943 17.7438 121.999 17.6128 122 17.4758C122.001 17.3388 121.948 17.2069 121.852 17.1083L118.875 14.153C118.777 14.055 118.643 14 118.503 14C118.364 14 118.23 14.055 118.131 14.153L115.154 17.1083C115.055 17.2063 115 17.3392 115 17.4777C115 17.6162 115.055 17.7491 115.154 17.847Z" fill="#5DB947"/>
<path d="M89.1541 87.847C89.2528 87.945 89.3866 88 89.5261 88C89.6657 88 89.7995 87.945 89.8982 87.847L92.5032 85.261L95.1081 87.847C95.2074 87.9422 95.3403 87.9949 95.4783 87.9937C95.6163 87.9925 95.7483 87.9375 95.8459 87.8407C95.9434 87.7438 95.9988 87.6128 96 87.4758C96.0012 87.3388 95.9481 87.2069 95.8523 87.1083L92.8752 84.153C92.7766 84.055 92.6427 84 92.5032 84C92.3636 84 92.2298 84.055 92.1311 84.153L89.1541 87.1083C89.0554 87.2063 89 87.3392 89 87.4777C89 87.6162 89.0554 87.7491 89.1541 87.847Z" fill="#5DB947"/>
<path d="M17.1541 17.847C17.2528 17.945 17.3866 18 17.5261 18C17.6657 18 17.7995 17.945 17.8982 17.847L20.5032 15.261L23.1081 17.847C23.2074 17.9422 23.3403 17.9949 23.4783 17.9937C23.6163 17.9925 23.7483 17.9375 23.8459 17.8407C23.9434 17.7438 23.9988 17.6128 24 17.4758C24.0012 17.3388 23.9481 17.2069 23.8523 17.1083L20.8752 14.153C20.7766 14.055 20.6427 14 20.5032 14C20.3636 14 20.2298 14.055 20.1311 14.153L17.1541 17.1083C17.0554 17.2063 17 17.3392 17 17.4777C17 17.6162 17.0554 17.7491 17.1541 17.847Z" fill="#5DB947"/>
<path d="M25.93 50.5238V44.8597C25.93 42.8909 27.5238 41.2972 29.4925 41.2972C31.4612 41.2972 33.055 42.891 33.055 44.8597V50.5238C35.8206 49.3363 37.8167 46.8597 38.3831 43.9066C38.9534 40.9574 38.0237 37.9144 35.8987 35.7855C35.0901 34.973 34.137 34.3246 33.0862 33.8714L32.1057 35.6605H32.1018C31.8635 36.0941 31.3205 36.2504 30.887 36.0121C30.4534 35.7738 30.2932 35.2308 30.5315 34.7973L31.344 33.3168C30.7346 33.1918 30.1174 33.1293 29.4924 33.1293C25.1838 33.1176 21.4651 36.1449 20.5979 40.3637C19.7346 44.5864 21.9651 48.8325 25.9299 50.5157L25.93 50.5238ZM34.3323 27.8828L37.3128 22.4609V22.4648C37.4729 22.1797 37.7737 22 38.0979 22H53.8359C54.3281 22 54.7305 22.4023 54.7305 22.8945C54.7305 23.3906 54.3281 23.7891 53.8359 23.7891H38.6289L35.9453 28.6719V28.6758C35.9102 28.6601 35.875 28.6406 35.8399 28.6172C35.5586 28.4609 35.2696 28.3086 34.9766 28.1719C34.7656 28.0664 34.5547 27.9687 34.3399 27.8828L34.3323 27.8828ZM12.9804 87.3977H31.4494V81.7883L29.1096 82.1282L14.1606 84.5266H14.1645C14.0981 84.5422 14.0278 84.55 13.9535 84.55C13.7738 84.55 13.5942 84.4953 13.4457 84.3899L12.9887 84.4563L12.9804 87.3977ZM20.3827 55.1637C20.4725 55.1481 20.5585 55.1286 20.6483 55.1169C20.8553 53.9802 21.6014 53.0114 22.6522 52.5231C23.703 52.0348 24.9256 52.0856 25.9295 52.6637V52.4371C20.4451 50.5113 17.4568 44.6012 19.1483 39.0421C20.8436 33.4835 26.6171 30.2452 32.2463 31.6983L34.2151 28.1124V28.1163C33.0393 27.7101 32.1213 26.7765 31.7463 25.589L31.633 25.2336H31.6369C31.5822 25.0812 31.4885 24.9445 31.3596 24.8468C31.2268 24.7531 31.0666 24.7062 30.9065 24.7062H28.0745C27.7424 24.7023 27.4455 24.9172 27.3518 25.2336L27.2346 25.589C26.8596 26.796 25.9221 27.7452 24.719 28.1359C24.4104 28.2414 24.1096 28.3547 23.8088 28.4797C23.5081 28.6047 23.2034 28.7414 22.9143 28.882H22.9182C22.3635 29.1555 21.7502 29.3 21.1291 29.3039C20.5041 29.2961 19.8947 29.1437 19.34 28.8586L19.0119 28.6906V28.6867C18.8674 28.6125 18.7033 28.5851 18.5432 28.6086C18.383 28.632 18.2346 28.7101 18.1213 28.8273L16.1213 30.8273C16.008 30.9445 15.9299 31.0891 15.9025 31.2492C15.8791 31.4094 15.9103 31.5695 15.9885 31.714L16.1564 32.0461C16.4377 32.6008 16.59 33.2141 16.5978 33.8352C16.6017 34.4563 16.4572 35.0696 16.176 35.6243C16.0353 35.9133 15.8986 36.2063 15.7736 36.511C15.6486 36.8157 15.5353 37.1165 15.4299 37.4251C15.2307 38.0149 14.8986 38.554 14.4572 38.9915C14.0158 39.429 13.4728 39.7532 12.8791 39.9368L12.5276 40.05C12.3752 40.1008 12.2385 40.1985 12.1408 40.3274C12.0471 40.4602 11.9963 40.6164 12.0002 40.7805V43.6086C11.9963 43.7727 12.0471 43.9289 12.1408 44.0617C12.2385 44.1906 12.3752 44.2883 12.5276 44.3391L12.8791 44.4523C13.4729 44.6359 14.0158 44.9602 14.4572 45.3977C14.8986 45.8352 15.2307 46.3742 15.4299 46.9641C15.5353 47.2805 15.6486 47.5812 15.7736 47.8781C15.8986 48.1789 16.0353 48.4758 16.176 48.7648C16.4572 49.3195 16.6017 49.9328 16.5978 50.5539C16.59 51.175 16.4377 51.7883 16.1564 52.343L15.9885 52.6751C15.9103 52.8196 15.8791 52.9798 15.9025 53.1399C15.9299 53.3001 16.008 53.4446 16.1213 53.5618L17.5901 55.0266V55.0227C17.9846 54.8781 18.4065 54.8039 18.8284 54.8039C19.3674 54.8 19.9026 54.925 20.387 55.1633L20.3827 55.1637ZM33.9527 32.3007C37.9957 34.1288 40.5191 38.2382 40.3238 42.6717C40.1245 47.1053 37.2457 50.9725 33.0543 52.4373V56.9021C33.4175 56.617 33.8238 56.3982 34.2613 56.2537C34.566 56.1482 34.8706 56.0349 35.1714 55.9099C35.4722 55.7849 35.7769 55.6482 36.0582 55.5076C36.6128 55.2342 37.2261 55.0896 37.8472 55.0857C38.4722 55.0935 39.0855 55.2459 39.6363 55.531L39.9684 55.699L39.9723 55.7029C40.1129 55.7771 40.277 55.8045 40.4371 55.781C40.6012 55.7537 40.7457 55.6795 40.859 55.5623L42.859 53.5623C42.9762 53.449 43.0543 53.3006 43.0817 53.1404C43.1051 52.9803 43.0777 52.8162 42.9996 52.6756L42.8317 52.3435C42.5426 51.7928 42.3942 51.1794 42.3902 50.5544C42.3902 49.9334 42.5348 49.32 42.8121 48.7653C42.9527 48.4763 43.0895 48.1833 43.2184 47.8786C43.3473 47.5739 43.4567 47.2732 43.5582 46.9646C43.9527 45.7654 44.902 44.8318 46.1051 44.449L46.4606 44.3357V44.3396C46.6129 44.2888 46.7496 44.1912 46.8434 44.0623C46.9371 43.9294 46.984 43.7693 46.9801 43.6091V40.7771C46.9801 40.6131 46.9332 40.4568 46.8395 40.324C46.7418 40.1951 46.609 40.0975 46.4528 40.0467L46.0973 39.9334C44.8942 39.5545 43.9489 38.6209 43.5504 37.4217C43.4449 37.1053 43.3395 36.8045 43.2106 36.5076C43.0817 36.2069 42.9449 35.91 42.8043 35.6209C42.527 35.0662 42.3824 34.4529 42.3863 33.8318C42.3863 33.2068 42.5387 32.5935 42.8238 32.0427L42.9918 31.7107L42.9957 31.7068C43.0738 31.5662 43.1012 31.4021 43.0738 31.2458C43.0465 31.0857 42.9723 30.9372 42.8551 30.824L40.8551 28.824C40.7418 28.7068 40.5934 28.6286 40.4332 28.6052C40.2731 28.5818 40.109 28.6091 39.9645 28.6833L39.6324 28.8513H39.6285C39.0777 29.1404 38.4644 29.2927 37.8394 29.2966C37.2183 29.2966 36.6089 29.1521 36.0503 28.8747C35.9956 28.8474 35.9331 28.82 35.8745 28.7888L33.9527 32.3007Z" fill="#C8F4BD"/>
<path d="M97.6755 11.293H74.5075C74.4919 11.2969 74.4723 11.3047 74.4567 11.3164C74.445 11.3321 74.4411 11.3477 74.4411 11.3672V18.375C74.4411 18.3906 74.445 18.4063 74.4567 18.4219C74.4723 18.4336 74.4879 18.4414 74.5075 18.4414H97.6755C97.7106 18.4375 97.7419 18.4102 97.7458 18.375V11.3672C97.7458 11.3477 97.738 11.3282 97.7224 11.3164C97.7106 11.3047 97.695 11.2969 97.6755 11.293ZM99.5388 18.3242V18.375C99.5388 18.8672 99.3396 19.3398 98.9919 19.6914C98.6442 20.0429 98.1716 20.2383 97.6755 20.2383H74.5075C73.4802 20.2343 72.6481 19.4023 72.6442 18.375V18.3242H66.4528V67.3552H105.73V18.3242L99.5388 18.3242ZM72.6438 13.043H65.0813C62.9251 13.0469 61.1751 14.7969 61.1751 16.9571V68.7271C61.1829 70.8833 62.929 72.6255 65.0813 72.6294H107.097C109.253 72.6294 111.003 70.8833 111.007 68.7232V16.9572C111.007 14.797 109.257 13.047 107.097 13.0431H99.5387V16.5236H106.628C106.863 16.5236 107.093 16.6173 107.261 16.7853C107.429 16.9533 107.523 17.1838 107.523 17.422V68.254C107.523 68.4923 107.429 68.7189 107.261 68.8868C107.093 69.0548 106.867 69.1486 106.628 69.1486H65.5545C65.3162 69.1486 65.0896 69.0548 64.9217 68.8868C64.7537 68.7189 64.66 68.4923 64.66 68.254V17.426C64.656 17.1878 64.7498 16.9573 64.9178 16.7893C65.0896 16.6174 65.3162 16.5237 65.5545 16.5237H72.6404L72.6438 13.043ZM80.4485 9.49999L91.7375 9.5039V7.7539C91.7336 6.78906 90.9523 6.0039 89.9836 6H82.1945C81.2296 6.00391 80.4484 6.78906 80.4445 7.7539L80.4485 9.49999ZM86.4797 27.605V27.6089C86.2375 27.6167 85.9992 27.5269 85.8234 27.355C85.6477 27.187 85.55 26.9527 85.55 26.7105C85.55 26.4683 85.6477 26.2339 85.8234 26.0659C85.9992 25.898 86.2375 25.8042 86.4797 25.812H101.531C101.777 25.8042 102.011 25.898 102.187 26.0659C102.363 26.2339 102.46 26.4683 102.46 26.7105C102.46 26.9527 102.363 27.187 102.187 27.355C102.011 27.5269 101.777 27.6167 101.531 27.6089L86.4797 27.605ZM86.4797 34.0542V34.0581C86.2336 34.0698 85.9953 33.98 85.8195 33.812C85.6398 33.644 85.5383 33.4097 85.5383 33.1636C85.5383 32.9175 85.6398 32.6831 85.8195 32.5151C85.9953 32.3472 86.2336 32.2573 86.4797 32.269H101.531C101.777 32.2573 102.015 32.3472 102.195 32.5151C102.371 32.6831 102.472 32.9175 102.472 33.1636C102.472 33.4097 102.371 33.644 102.195 33.812C102.015 33.98 101.777 34.0698 101.531 34.0581L86.4797 34.0542ZM79.1828 26.0659C77.593 24.48 75.0969 24.2339 73.2297 25.4839C71.3586 26.7378 70.632 29.1323 71.4953 31.2105C72.3586 33.2886 74.5656 34.4683 76.7726 34.0308C78.9796 33.5894 80.5695 31.6519 80.5656 29.4058C80.5695 28.1519 80.0695 26.9526 79.1828 26.0659ZM75.8469 22.8901V22.894C78.9563 22.894 81.6321 25.0893 82.2375 28.1401C82.8429 31.187 81.2102 34.2417 78.3352 35.4292C75.4641 36.6206 72.1516 35.6128 70.425 33.0269C68.6984 30.441 69.0422 26.9957 71.2414 24.8003C72.4602 23.5776 74.1164 22.8901 75.843 22.8901L75.8469 22.8901ZM72.6438 29.6049V29.6088C72.3039 29.2455 72.3235 28.6791 72.6828 28.3432C73.0461 28.0034 73.6125 28.0229 73.9484 28.3823L75.2023 29.7143L77.7726 27.1791C77.9406 27.0111 78.1672 26.9213 78.4055 26.9213C78.6437 26.9213 78.8703 27.0189 79.0383 27.1869C79.3859 27.5384 79.382 28.1048 79.0304 28.4525L75.8 31.6439C75.6281 31.8079 75.3976 31.8939 75.1593 31.8861C74.925 31.8783 74.6984 31.7767 74.5382 31.6048L72.6438 29.6049ZM86.4798 42.2259V42.2298C86.2337 42.2415 85.9954 42.1517 85.8196 41.9837C85.6399 41.8118 85.5384 41.5775 85.5384 41.3353C85.5384 41.0892 85.6399 40.8548 85.8196 40.6868C85.9954 40.515 86.2337 40.4251 86.4798 40.4368H101.531C101.777 40.4251 102.015 40.515 102.195 40.6868C102.371 40.8548 102.472 41.0892 102.472 41.3353C102.472 41.5775 102.371 41.8118 102.195 41.9837C102.015 42.1517 101.777 42.2415 101.531 42.2298L86.4798 42.2259ZM86.4798 48.679V48.6829C85.9837 48.6829 85.5813 48.2806 85.5813 47.7845C85.5813 47.2884 85.9837 46.886 86.4798 46.886H101.531C102.027 46.886 102.429 47.2884 102.429 47.7845C102.429 48.2806 102.027 48.6829 101.531 48.6829L86.4798 48.679ZM79.1829 41.222C77.5931 39.6322 75.097 39.39 73.2298 40.64C71.3587 41.8939 70.6321 44.2884 71.4954 46.3666C72.3587 48.4447 74.5657 49.6244 76.7727 49.1869C78.9797 48.7455 80.5696 46.808 80.5657 44.558C80.5696 43.308 80.0696 42.1087 79.1829 41.222ZM75.847 38.0423C78.9564 38.0462 81.6322 40.2415 82.2376 43.2884C82.843 46.3392 81.2103 49.39 78.3353 50.5814C75.4642 51.7689 72.1517 50.765 70.4251 48.1791C68.6985 45.5932 69.0423 42.1479 71.2415 39.9486C72.4603 38.7298 74.1165 38.0424 75.8431 38.0424L75.847 38.0423ZM72.6439 44.7571C72.304 44.3938 72.3236 43.8274 72.6829 43.4915C73.0462 43.1517 73.6126 43.1712 73.9485 43.5306L75.2024 44.8626L77.7727 42.3274C77.9407 42.1594 78.1712 42.0656 78.4056 42.0695C78.6438 42.0695 78.8704 42.1672 79.0384 42.3352C79.386 42.6906 79.3821 43.257 79.0305 43.6047L75.8001 46.7961C75.4407 47.132 74.8782 47.1164 74.5384 46.7609L72.6439 44.7571ZM86.4799 56.8511C85.9838 56.8511 85.5814 56.4488 85.5814 55.9527C85.5814 55.4566 85.9838 55.0542 86.4799 55.0542H101.531C102.027 55.0542 102.429 55.4566 102.429 55.9527C102.429 56.4488 102.027 56.8511 101.531 56.8511H86.4799ZM86.4799 63.3003C86.2338 63.312 85.9955 63.2222 85.8197 63.0542C85.64 62.8862 85.5385 62.6519 85.5385 62.4058C85.5385 62.1597 85.64 61.9253 85.8197 61.7573C85.9955 61.5894 86.2338 61.4995 86.4799 61.5112H101.531C101.777 61.4995 102.015 61.5894 102.195 61.7573C102.371 61.9253 102.472 62.1597 102.472 62.4058C102.472 62.6519 102.371 62.8862 102.195 63.0542C102.015 63.2222 101.777 63.312 101.531 63.3003H86.4799ZM79.183 56.3706C77.5932 54.7847 75.101 54.5386 73.2338 55.7925C71.3627 57.0425 70.64 59.437 71.4994 61.5152C72.3627 63.5894 74.5697 64.7691 76.7728 64.3316C78.9798 63.8902 80.5658 61.9566 80.5658 59.7066C80.5697 58.4566 80.0697 57.2573 79.183 56.3706ZM75.8471 53.1987C78.9565 53.1987 81.6323 55.394 82.2377 58.4409C82.8431 61.4917 81.2143 64.5425 78.3432 65.7339C75.4682 66.9214 72.1557 65.9175 70.4291 63.3355C68.7025 60.7496 69.0424 57.3043 71.2416 55.105C72.4604 53.8823 74.1166 53.1948 75.8432 53.1988L75.8471 53.1987ZM72.644 59.9135V59.9096C72.3041 59.5502 72.3198 58.9838 72.683 58.644C73.0424 58.3041 73.6088 58.3198 73.9486 58.6791L75.2025 60.0189L77.7728 57.4837C78.1244 57.1361 78.6869 57.14 79.0345 57.4877C79.3822 57.8392 79.3822 58.4056 79.0306 58.7533L75.8001 61.9486C75.4408 62.2884 74.8744 62.2689 74.5384 61.9095L72.644 59.9135ZM37.781 68.2533L35.3318 65.1361V68.5228C35.3318 69.0189 34.9294 69.4212 34.4333 69.4212C33.9372 69.4212 33.5349 69.0189 33.5349 68.5228V45.7728C33.5349 44.7962 32.7458 43.9994 31.7654 43.9994C30.7888 43.9994 29.9959 44.7924 29.992 45.7728V65.3508C29.992 65.843 29.5936 66.2453 29.0975 66.2453C28.6053 66.2453 28.2029 65.843 28.2029 65.3508V56.6672C28.199 55.6906 27.4061 54.8977 26.4295 54.8977C25.4569 54.9016 24.6678 55.6907 24.6639 56.6672V65.3508C24.6639 65.8469 24.2616 66.2492 23.7655 66.2492C23.2694 66.2492 22.8671 65.8469 22.8671 65.3508V59.2805C22.8436 58.3196 22.0585 57.55 21.0976 57.55C20.1367 57.55 19.3515 58.3195 19.3281 59.2805V65.3508C19.3398 65.593 19.2499 65.8313 19.082 66.011C18.9101 66.1867 18.6757 66.2883 18.4335 66.2883C18.1874 66.2883 17.9531 66.1867 17.7851 66.011C17.6132 65.8313 17.5273 65.593 17.539 65.3508V61.8938C17.539 60.9133 16.746 60.1204 15.7656 60.1204C14.789 60.1243 14 60.9173 14 61.8938V65.7571L16.4375 76.2611V76.2572C16.5352 76.6908 16.9219 76.9994 17.3633 76.9955H31.7933C31.9378 76.9955 32.0823 76.9642 32.2113 76.8978L32.2503 76.8822H32.2542C32.3714 76.8119 32.473 76.7181 32.5511 76.6048L37.8011 69.4056H37.805C37.93 69.2377 37.9964 69.0346 37.9886 68.8236C37.9847 68.6166 37.9105 68.4174 37.7777 68.2572L37.781 68.2533ZM17.117 83.2963L31.301 81.2455L31.8713 81.1557V78.7767H17.1173L17.117 83.2963Z" fill="#C8F4BD"/>
<mask id="path-7-outside-1_175_38" maskUnits="userSpaceOnUse" x="11" y="5" width="100" height="80" fill="black">
<rect fill="white" x="11" y="5" width="100" height="80"/>
<path d="M95.6755 11.293H72.5075C72.4919 11.2969 72.4723 11.3047 72.4567 11.3164C72.445 11.3321 72.4411 11.3477 72.4411 11.3672V18.375C72.4411 18.3906 72.445 18.4063 72.4567 18.4219C72.4723 18.4336 72.4879 18.4414 72.5075 18.4414H95.6755C95.7106 18.4375 95.7419 18.4102 95.7458 18.375V11.3672C95.7458 11.3477 95.738 11.3282 95.7224 11.3164C95.7106 11.3047 95.695 11.2969 95.6755 11.293ZM97.5388 18.3242V18.375C97.5388 18.8672 97.3396 19.3398 96.9919 19.6914C96.6442 20.0429 96.1716 20.2383 95.6755 20.2383H72.5075C71.4802 20.2343 70.6481 19.4023 70.6442 18.375V18.3242H64.4528V67.3552H103.73V18.3242L97.5388 18.3242ZM70.6438 13.043H63.0813C60.9251 13.0469 59.1751 14.7969 59.1751 16.9571V68.7271C59.1829 70.8833 60.929 72.6255 63.0813 72.6294H105.097C107.253 72.6294 109.003 70.8833 109.007 68.7232V16.9572C109.007 14.797 107.257 13.047 105.097 13.0431H97.5387V16.5236H104.628C104.863 16.5236 105.093 16.6173 105.261 16.7853C105.429 16.9533 105.523 17.1838 105.523 17.422V68.254C105.523 68.4923 105.429 68.7189 105.261 68.8868C105.093 69.0548 104.867 69.1486 104.628 69.1486H63.5545C63.3162 69.1486 63.0896 69.0548 62.9217 68.8868C62.7537 68.7189 62.66 68.4923 62.66 68.254V17.426C62.656 17.1878 62.7498 16.9573 62.9178 16.7893C63.0896 16.6174 63.3162 16.5237 63.5545 16.5237H70.6404L70.6438 13.043ZM78.4485 9.49999L89.7375 9.5039V7.7539C89.7336 6.78906 88.9523 6.0039 87.9836 6H80.1945C79.2296 6.00391 78.4484 6.78906 78.4445 7.7539L78.4485 9.49999ZM84.4797 27.605V27.6089C84.2375 27.6167 83.9992 27.5269 83.8234 27.355C83.6477 27.187 83.55 26.9527 83.55 26.7105C83.55 26.4683 83.6477 26.2339 83.8234 26.0659C83.9992 25.898 84.2375 25.8042 84.4797 25.812H99.5307C99.7768 25.8042 100.011 25.898 100.187 26.0659C100.363 26.2339 100.46 26.4683 100.46 26.7105C100.46 26.9527 100.363 27.187 100.187 27.355C100.011 27.5269 99.7768 27.6167 99.5307 27.6089L84.4797 27.605ZM84.4797 34.0542V34.0581C84.2336 34.0698 83.9953 33.98 83.8195 33.812C83.6398 33.644 83.5383 33.4097 83.5383 33.1636C83.5383 32.9175 83.6398 32.6831 83.8195 32.5151C83.9953 32.3472 84.2336 32.2573 84.4797 32.269H99.5307C99.7768 32.2573 100.015 32.3472 100.195 32.5151C100.371 32.6831 100.472 32.9175 100.472 33.1636C100.472 33.4097 100.371 33.644 100.195 33.812C100.015 33.98 99.7768 34.0698 99.5307 34.0581L84.4797 34.0542ZM77.1828 26.0659C75.593 24.48 73.0969 24.2339 71.2297 25.4839C69.3586 26.7378 68.632 29.1323 69.4953 31.2105C70.3586 33.2886 72.5656 34.4683 74.7726 34.0308C76.9796 33.5894 78.5695 31.6519 78.5656 29.4058C78.5695 28.1519 78.0695 26.9526 77.1828 26.0659ZM73.8469 22.8901V22.894C76.9563 22.894 79.6321 25.0893 80.2375 28.1401C80.8429 31.187 79.2102 34.2417 76.3352 35.4292C73.4641 36.6206 70.1516 35.6128 68.425 33.0269C66.6984 30.441 67.0422 26.9957 69.2414 24.8003C70.4602 23.5776 72.1164 22.8901 73.843 22.8901L73.8469 22.8901ZM70.6438 29.6049V29.6088C70.3039 29.2455 70.3235 28.6791 70.6828 28.3432C71.0461 28.0034 71.6125 28.0229 71.9484 28.3823L73.2023 29.7143L75.7726 27.1791C75.9406 27.0111 76.1672 26.9213 76.4055 26.9213C76.6437 26.9213 76.8703 27.0189 77.0383 27.1869C77.3859 27.5384 77.382 28.1048 77.0304 28.4525L73.8 31.6439C73.6281 31.8079 73.3976 31.8939 73.1593 31.8861C72.925 31.8783 72.6984 31.7767 72.5382 31.6048L70.6438 29.6049ZM84.4798 42.2259V42.2298C84.2337 42.2415 83.9954 42.1517 83.8196 41.9837C83.6399 41.8118 83.5384 41.5775 83.5384 41.3353C83.5384 41.0892 83.6399 40.8548 83.8196 40.6868C83.9954 40.515 84.2337 40.4251 84.4798 40.4368H99.5308C99.7769 40.4251 100.015 40.515 100.195 40.6868C100.371 40.8548 100.472 41.0892 100.472 41.3353C100.472 41.5775 100.371 41.8118 100.195 41.9837C100.015 42.1517 99.7769 42.2415 99.5308 42.2298L84.4798 42.2259ZM84.4798 48.679V48.6829C83.9837 48.6829 83.5813 48.2806 83.5813 47.7845C83.5813 47.2884 83.9837 46.886 84.4798 46.886H99.5308C100.027 46.886 100.429 47.2884 100.429 47.7845C100.429 48.2806 100.027 48.6829 99.5308 48.6829L84.4798 48.679ZM77.1829 41.222C75.5931 39.6322 73.097 39.39 71.2298 40.64C69.3587 41.8939 68.6321 44.2884 69.4954 46.3666C70.3587 48.4447 72.5657 49.6244 74.7727 49.1869C76.9797 48.7455 78.5696 46.808 78.5657 44.558C78.5696 43.308 78.0696 42.1087 77.1829 41.222ZM73.847 38.0423C76.9564 38.0462 79.6322 40.2415 80.2376 43.2884C80.843 46.3392 79.2103 49.39 76.3353 50.5814C73.4642 51.7689 70.1517 50.765 68.4251 48.1791C66.6985 45.5932 67.0423 42.1479 69.2415 39.9486C70.4603 38.7298 72.1165 38.0424 73.8431 38.0424L73.847 38.0423ZM70.6439 44.7571C70.304 44.3938 70.3236 43.8274 70.6829 43.4915C71.0462 43.1517 71.6126 43.1712 71.9485 43.5306L73.2024 44.8626L75.7727 42.3274C75.9407 42.1594 76.1712 42.0656 76.4056 42.0695C76.6438 42.0695 76.8704 42.1672 77.0384 42.3352C77.386 42.6906 77.3821 43.257 77.0305 43.6047L73.8001 46.7961C73.4407 47.132 72.8782 47.1164 72.5384 46.7609L70.6439 44.7571ZM84.4799 56.8511C83.9838 56.8511 83.5814 56.4488 83.5814 55.9527C83.5814 55.4566 83.9838 55.0542 84.4799 55.0542H99.5309C100.027 55.0542 100.429 55.4566 100.429 55.9527C100.429 56.4488 100.027 56.8511 99.5309 56.8511H84.4799ZM84.4799 63.3003C84.2338 63.312 83.9955 63.2222 83.8197 63.0542C83.64 62.8862 83.5385 62.6519 83.5385 62.4058C83.5385 62.1597 83.64 61.9253 83.8197 61.7573C83.9955 61.5894 84.2338 61.4995 84.4799 61.5112H99.5309C99.777 61.4995 100.015 61.5894 100.195 61.7573C100.371 61.9253 100.472 62.1597 100.472 62.4058C100.472 62.6519 100.371 62.8862 100.195 63.0542C100.015 63.2222 99.777 63.312 99.5309 63.3003H84.4799ZM77.183 56.3706C75.5932 54.7847 73.101 54.5386 71.2338 55.7925C69.3627 57.0425 68.64 59.437 69.4994 61.5152C70.3627 63.5894 72.5697 64.7691 74.7728 64.3316C76.9798 63.8902 78.5658 61.9566 78.5658 59.7066C78.5697 58.4566 78.0697 57.2573 77.183 56.3706ZM73.8471 53.1987C76.9565 53.1987 79.6323 55.394 80.2377 58.4409C80.8431 61.4917 79.2143 64.5425 76.3432 65.7339C73.4682 66.9214 70.1557 65.9175 68.4291 63.3355C66.7025 60.7496 67.0424 57.3043 69.2416 55.105C70.4604 53.8823 72.1166 53.1948 73.8432 53.1988L73.8471 53.1987ZM70.644 59.9135V59.9096C70.3041 59.5502 70.3198 58.9838 70.683 58.644C71.0424 58.3041 71.6088 58.3198 71.9486 58.6791L73.2025 60.0189L75.7728 57.4837C76.1244 57.1361 76.6869 57.14 77.0345 57.4877C77.3822 57.8392 77.3822 58.4056 77.0306 58.7533L73.8001 61.9486C73.4408 62.2884 72.8744 62.2689 72.5384 61.9095L70.644 59.9135ZM35.781 68.2533L33.3318 65.1361V68.5228C33.3318 69.0189 32.9294 69.4212 32.4333 69.4212C31.9372 69.4212 31.5349 69.0189 31.5349 68.5228V45.7728C31.5349 44.7962 30.7458 43.9994 29.7654 43.9994C28.7888 43.9994 27.9959 44.7924 27.992 45.7728V65.3508C27.992 65.843 27.5936 66.2453 27.0975 66.2453C26.6053 66.2453 26.2029 65.843 26.2029 65.3508V56.6672C26.199 55.6906 25.4061 54.8977 24.4295 54.8977C23.4569 54.9016 22.6678 55.6907 22.6639 56.6672V65.3508C22.6639 65.8469 22.2616 66.2492 21.7655 66.2492C21.2694 66.2492 20.8671 65.8469 20.8671 65.3508V59.2805C20.8436 58.3196 20.0585 57.55 19.0976 57.55C18.1367 57.55 17.3515 58.3195 17.3281 59.2805V65.3508C17.3398 65.593 17.2499 65.8313 17.082 66.011C16.9101 66.1867 16.6757 66.2883 16.4335 66.2883C16.1874 66.2883 15.9531 66.1867 15.7851 66.011C15.6132 65.8313 15.5273 65.593 15.539 65.3508V61.8938C15.539 60.9133 14.746 60.1204 13.7656 60.1204C12.789 60.1243 12 60.9173 12 61.8938V65.7571L14.4375 76.2611V76.2572C14.5352 76.6908 14.9219 76.9994 15.3633 76.9955H29.7933C29.9378 76.9955 30.0823 76.9642 30.2113 76.8978L30.2503 76.8822H30.2542C30.3714 76.8119 30.473 76.7181 30.5511 76.6048L35.8011 69.4056H35.805C35.93 69.2377 35.9964 69.0346 35.9886 68.8236C35.9847 68.6166 35.9105 68.4174 35.7777 68.2572L35.781 68.2533ZM15.117 83.2963L29.301 81.2455L29.8713 81.1557V78.7767H15.1173L15.117 83.2963Z"/>
</mask>
<path d="M95.6755 11.293H72.5075C72.4919 11.2969 72.4723 11.3047 72.4567 11.3164C72.445 11.3321 72.4411 11.3477 72.4411 11.3672V18.375C72.4411 18.3906 72.445 18.4063 72.4567 18.4219C72.4723 18.4336 72.4879 18.4414 72.5075 18.4414H95.6755C95.7106 18.4375 95.7419 18.4102 95.7458 18.375V11.3672C95.7458 11.3477 95.738 11.3282 95.7224 11.3164C95.7106 11.3047 95.695 11.2969 95.6755 11.293ZM97.5388 18.3242V18.375C97.5388 18.8672 97.3396 19.3398 96.9919 19.6914C96.6442 20.0429 96.1716 20.2383 95.6755 20.2383H72.5075C71.4802 20.2343 70.6481 19.4023 70.6442 18.375V18.3242H64.4528V67.3552H103.73V18.3242L97.5388 18.3242ZM70.6438 13.043H63.0813C60.9251 13.0469 59.1751 14.7969 59.1751 16.9571V68.7271C59.1829 70.8833 60.929 72.6255 63.0813 72.6294H105.097C107.253 72.6294 109.003 70.8833 109.007 68.7232V16.9572C109.007 14.797 107.257 13.047 105.097 13.0431H97.5387V16.5236H104.628C104.863 16.5236 105.093 16.6173 105.261 16.7853C105.429 16.9533 105.523 17.1838 105.523 17.422V68.254C105.523 68.4923 105.429 68.7189 105.261 68.8868C105.093 69.0548 104.867 69.1486 104.628 69.1486H63.5545C63.3162 69.1486 63.0896 69.0548 62.9217 68.8868C62.7537 68.7189 62.66 68.4923 62.66 68.254V17.426C62.656 17.1878 62.7498 16.9573 62.9178 16.7893C63.0896 16.6174 63.3162 16.5237 63.5545 16.5237H70.6404L70.6438 13.043ZM78.4485 9.49999L89.7375 9.5039V7.7539C89.7336 6.78906 88.9523 6.0039 87.9836 6H80.1945C79.2296 6.00391 78.4484 6.78906 78.4445 7.7539L78.4485 9.49999ZM84.4797 27.605V27.6089C84.2375 27.6167 83.9992 27.5269 83.8234 27.355C83.6477 27.187 83.55 26.9527 83.55 26.7105C83.55 26.4683 83.6477 26.2339 83.8234 26.0659C83.9992 25.898 84.2375 25.8042 84.4797 25.812H99.5307C99.7768 25.8042 100.011 25.898 100.187 26.0659C100.363 26.2339 100.46 26.4683 100.46 26.7105C100.46 26.9527 100.363 27.187 100.187 27.355C100.011 27.5269 99.7768 27.6167 99.5307 27.6089L84.4797 27.605ZM84.4797 34.0542V34.0581C84.2336 34.0698 83.9953 33.98 83.8195 33.812C83.6398 33.644 83.5383 33.4097 83.5383 33.1636C83.5383 32.9175 83.6398 32.6831 83.8195 32.5151C83.9953 32.3472 84.2336 32.2573 84.4797 32.269H99.5307C99.7768 32.2573 100.015 32.3472 100.195 32.5151C100.371 32.6831 100.472 32.9175 100.472 33.1636C100.472 33.4097 100.371 33.644 100.195 33.812C100.015 33.98 99.7768 34.0698 99.5307 34.0581L84.4797 34.0542ZM77.1828 26.0659C75.593 24.48 73.0969 24.2339 71.2297 25.4839C69.3586 26.7378 68.632 29.1323 69.4953 31.2105C70.3586 33.2886 72.5656 34.4683 74.7726 34.0308C76.9796 33.5894 78.5695 31.6519 78.5656 29.4058C78.5695 28.1519 78.0695 26.9526 77.1828 26.0659ZM73.8469 22.8901V22.894C76.9563 22.894 79.6321 25.0893 80.2375 28.1401C80.8429 31.187 79.2102 34.2417 76.3352 35.4292C73.4641 36.6206 70.1516 35.6128 68.425 33.0269C66.6984 30.441 67.0422 26.9957 69.2414 24.8003C70.4602 23.5776 72.1164 22.8901 73.843 22.8901L73.8469 22.8901ZM70.6438 29.6049V29.6088C70.3039 29.2455 70.3235 28.6791 70.6828 28.3432C71.0461 28.0034 71.6125 28.0229 71.9484 28.3823L73.2023 29.7143L75.7726 27.1791C75.9406 27.0111 76.1672 26.9213 76.4055 26.9213C76.6437 26.9213 76.8703 27.0189 77.0383 27.1869C77.3859 27.5384 77.382 28.1048 77.0304 28.4525L73.8 31.6439C73.6281 31.8079 73.3976 31.8939 73.1593 31.8861C72.925 31.8783 72.6984 31.7767 72.5382 31.6048L70.6438 29.6049ZM84.4798 42.2259V42.2298C84.2337 42.2415 83.9954 42.1517 83.8196 41.9837C83.6399 41.8118 83.5384 41.5775 83.5384 41.3353C83.5384 41.0892 83.6399 40.8548 83.8196 40.6868C83.9954 40.515 84.2337 40.4251 84.4798 40.4368H99.5308C99.7769 40.4251 100.015 40.515 100.195 40.6868C100.371 40.8548 100.472 41.0892 100.472 41.3353C100.472 41.5775 100.371 41.8118 100.195 41.9837C100.015 42.1517 99.7769 42.2415 99.5308 42.2298L84.4798 42.2259ZM84.4798 48.679V48.6829C83.9837 48.6829 83.5813 48.2806 83.5813 47.7845C83.5813 47.2884 83.9837 46.886 84.4798 46.886H99.5308C100.027 46.886 100.429 47.2884 100.429 47.7845C100.429 48.2806 100.027 48.6829 99.5308 48.6829L84.4798 48.679ZM77.1829 41.222C75.5931 39.6322 73.097 39.39 71.2298 40.64C69.3587 41.8939 68.6321 44.2884 69.4954 46.3666C70.3587 48.4447 72.5657 49.6244 74.7727 49.1869C76.9797 48.7455 78.5696 46.808 78.5657 44.558C78.5696 43.308 78.0696 42.1087 77.1829 41.222ZM73.847 38.0423C76.9564 38.0462 79.6322 40.2415 80.2376 43.2884C80.843 46.3392 79.2103 49.39 76.3353 50.5814C73.4642 51.7689 70.1517 50.765 68.4251 48.1791C66.6985 45.5932 67.0423 42.1479 69.2415 39.9486C70.4603 38.7298 72.1165 38.0424 73.8431 38.0424L73.847 38.0423ZM70.6439 44.7571C70.304 44.3938 70.3236 43.8274 70.6829 43.4915C71.0462 43.1517 71.6126 43.1712 71.9485 43.5306L73.2024 44.8626L75.7727 42.3274C75.9407 42.1594 76.1712 42.0656 76.4056 42.0695C76.6438 42.0695 76.8704 42.1672 77.0384 42.3352C77.386 42.6906 77.3821 43.257 77.0305 43.6047L73.8001 46.7961C73.4407 47.132 72.8782 47.1164 72.5384 46.7609L70.6439 44.7571ZM84.4799 56.8511C83.9838 56.8511 83.5814 56.4488 83.5814 55.9527C83.5814 55.4566 83.9838 55.0542 84.4799 55.0542H99.5309C100.027 55.0542 100.429 55.4566 100.429 55.9527C100.429 56.4488 100.027 56.8511 99.5309 56.8511H84.4799ZM84.4799 63.3003C84.2338 63.312 83.9955 63.2222 83.8197 63.0542C83.64 62.8862 83.5385 62.6519 83.5385 62.4058C83.5385 62.1597 83.64 61.9253 83.8197 61.7573C83.9955 61.5894 84.2338 61.4995 84.4799 61.5112H99.5309C99.777 61.4995 100.015 61.5894 100.195 61.7573C100.371 61.9253 100.472 62.1597 100.472 62.4058C100.472 62.6519 100.371 62.8862 100.195 63.0542C100.015 63.2222 99.777 63.312 99.5309 63.3003H84.4799ZM77.183 56.3706C75.5932 54.7847 73.101 54.5386 71.2338 55.7925C69.3627 57.0425 68.64 59.437 69.4994 61.5152C70.3627 63.5894 72.5697 64.7691 74.7728 64.3316C76.9798 63.8902 78.5658 61.9566 78.5658 59.7066C78.5697 58.4566 78.0697 57.2573 77.183 56.3706ZM73.8471 53.1987C76.9565 53.1987 79.6323 55.394 80.2377 58.4409C80.8431 61.4917 79.2143 64.5425 76.3432 65.7339C73.4682 66.9214 70.1557 65.9175 68.4291 63.3355C66.7025 60.7496 67.0424 57.3043 69.2416 55.105C70.4604 53.8823 72.1166 53.1948 73.8432 53.1988L73.8471 53.1987ZM70.644 59.9135V59.9096C70.3041 59.5502 70.3198 58.9838 70.683 58.644C71.0424 58.3041 71.6088 58.3198 71.9486 58.6791L73.2025 60.0189L75.7728 57.4837C76.1244 57.1361 76.6869 57.14 77.0345 57.4877C77.3822 57.8392 77.3822 58.4056 77.0306 58.7533L73.8001 61.9486C73.4408 62.2884 72.8744 62.2689 72.5384 61.9095L70.644 59.9135ZM35.781 68.2533L33.3318 65.1361V68.5228C33.3318 69.0189 32.9294 69.4212 32.4333 69.4212C31.9372 69.4212 31.5349 69.0189 31.5349 68.5228V45.7728C31.5349 44.7962 30.7458 43.9994 29.7654 43.9994C28.7888 43.9994 27.9959 44.7924 27.992 45.7728V65.3508C27.992 65.843 27.5936 66.2453 27.0975 66.2453C26.6053 66.2453 26.2029 65.843 26.2029 65.3508V56.6672C26.199 55.6906 25.4061 54.8977 24.4295 54.8977C23.4569 54.9016 22.6678 55.6907 22.6639 56.6672V65.3508C22.6639 65.8469 22.2616 66.2492 21.7655 66.2492C21.2694 66.2492 20.8671 65.8469 20.8671 65.3508V59.2805C20.8436 58.3196 20.0585 57.55 19.0976 57.55C18.1367 57.55 17.3515 58.3195 17.3281 59.2805V65.3508C17.3398 65.593 17.2499 65.8313 17.082 66.011C16.9101 66.1867 16.6757 66.2883 16.4335 66.2883C16.1874 66.2883 15.9531 66.1867 15.7851 66.011C15.6132 65.8313 15.5273 65.593 15.539 65.3508V61.8938C15.539 60.9133 14.746 60.1204 13.7656 60.1204C12.789 60.1243 12 60.9173 12 61.8938V65.7571L14.4375 76.2611V76.2572C14.5352 76.6908 14.9219 76.9994 15.3633 76.9955H29.7933C29.9378 76.9955 30.0823 76.9642 30.2113 76.8978L30.2503 76.8822H30.2542C30.3714 76.8119 30.473 76.7181 30.5511 76.6048L35.8011 69.4056H35.805C35.93 69.2377 35.9964 69.0346 35.9886 68.8236C35.9847 68.6166 35.9105 68.4174 35.7777 68.2572L35.781 68.2533ZM15.117 83.2963L29.301 81.2455L29.8713 81.1557V78.7767H15.1173L15.117 83.2963Z" fill="white"/>
<path d="M76.6828 26.062V26.0659H77.6828V26.062H76.6828ZM20.6139 55.58L20.6096 55.5804L20.7102 56.5754L20.7145 56.5749L20.6139 55.58ZM95.6755 11.293L95.8716 10.3124L95.7745 10.293H95.6755V11.293ZM72.5075 11.293V10.293H72.3844L72.265 10.3228L72.5075 11.293ZM72.4567 11.3164L71.8567 10.5164L71.7424 10.6021L71.6567 10.7164L72.4567 11.3164ZM72.4567 18.4219L71.6567 19.0219L71.7424 19.1362L71.8567 19.2219L72.4567 18.4219ZM95.6755 18.4414V19.4414H95.7309L95.7859 19.4353L95.6755 18.4414ZM95.7458 18.375L96.7397 18.4855L96.7458 18.4304V18.375H95.7458ZM95.7224 11.3164L95.0153 12.0236L95.0655 12.0738L95.1224 12.1164L95.7224 11.3164ZM97.5388 18.3242V17.3242L96.5388 17.3242V18.3242H97.5388ZM72.5075 20.2383L72.5037 21.2383H72.5075V20.2383ZM70.6442 18.375H69.6442L69.6442 18.3788L70.6442 18.375ZM70.6442 18.3242H71.6442V17.3242H70.6442V18.3242ZM64.4528 18.3242V17.3242H63.4528V18.3242H64.4528ZM64.4528 67.3552H63.4528V68.3552H64.4528V67.3552ZM103.73 67.3552V68.3552H104.73V67.3552H103.73ZM103.73 18.3242H104.73V17.3242L103.73 17.3242V18.3242ZM70.6438 13.043L71.6438 13.044L71.6448 12.043H70.6438V13.043ZM63.0813 13.043V12.043L63.0795 12.043L63.0813 13.043ZM59.1751 68.7271H58.1751L58.1751 68.7307L59.1751 68.7271ZM63.0813 72.6294L63.0795 73.6294H63.0813V72.6294ZM109.007 68.7232L110.007 68.725V68.7232H109.007ZM105.097 13.0431L105.099 12.0431H105.097V13.0431ZM97.5387 13.0431V12.0431H96.5387V13.0431H97.5387ZM97.5387 16.5236H96.5387V17.5236H97.5387V16.5236ZM62.66 17.426H63.66V17.4178L63.6598 17.4096L62.66 17.426ZM62.9178 16.7893L62.2107 16.0822L62.2106 16.0822L62.9178 16.7893ZM70.6404 16.5237V17.5237H71.6394L71.6404 16.5247L70.6404 16.5237ZM78.4485 9.49999L77.4485 9.50228L77.4508 10.4996L78.4481 10.5L78.4485 9.49999ZM89.7375 9.5039L89.7371 10.5039L90.7375 10.5042V9.5039H89.7375ZM89.7375 7.7539H90.7375L90.7375 7.74985L89.7375 7.7539ZM87.9836 6L87.9876 5H87.9836V6ZM80.1945 6V4.99999L80.1904 5.00001L80.1945 6ZM78.4445 7.7539L77.4445 7.74986L77.4445 7.75619L78.4445 7.7539ZM84.4797 27.605L84.4799 26.605L83.4797 26.6047V27.605H84.4797ZM84.4797 27.6089L84.5119 28.6084L85.4797 28.5772V27.6089H84.4797ZM83.8234 27.355L84.5226 26.6399L84.5143 26.632L83.8234 27.355ZM83.8234 26.0659L84.5143 26.7889L84.5143 26.7889L83.8234 26.0659ZM84.4797 25.812L84.4474 26.8115L84.4636 26.812H84.4797V25.812ZM99.5307 25.812V26.812H99.5465L99.5624 26.8115L99.5307 25.812ZM100.187 26.0659L99.4961 26.7889V26.7889L100.187 26.0659ZM100.187 27.355L99.496 26.6319L99.4878 26.64L100.187 27.355ZM99.5307 27.6089L99.5624 26.6094L99.5467 26.6089L99.5309 26.6089L99.5307 27.6089ZM84.4797 34.0542L84.4799 33.0542L83.4797 33.0539V34.0542H84.4797ZM84.4797 34.0581L84.5272 35.057L85.4797 35.0116V34.0581H84.4797ZM83.8195 33.812L84.5104 33.089L84.5024 33.0815L83.8195 33.812ZM83.8195 32.5151L84.5024 33.2457L84.5104 33.2381L83.8195 32.5151ZM84.4797 32.269L84.4321 33.2679L84.4559 33.269H84.4797V32.269ZM99.5307 32.269V33.269H99.5545L99.5782 33.2679L99.5307 32.269ZM100.195 32.5151L100.886 31.7921L100.878 31.7846L100.195 32.5151ZM100.195 33.812L100.878 34.5426L100.886 34.535L100.195 33.812ZM99.5307 34.0581L99.5782 33.0592L99.5546 33.0581L99.5309 33.0581L99.5307 34.0581ZM77.1828 26.0659L77.8899 25.3588L77.889 25.3579L77.1828 26.0659ZM71.2297 25.4839L70.6734 24.6529L70.673 24.6532L71.2297 25.4839ZM69.4953 31.2105L68.5718 31.5941L68.5718 31.5941L69.4953 31.2105ZM74.7726 34.0308L74.967 35.0117L74.9687 35.0113L74.7726 34.0308ZM78.5656 29.4058L77.5656 29.4027L77.5656 29.4075L78.5656 29.4058ZM73.8469 22.8901H74.8469V21.8886L73.8454 21.8901L73.8469 22.8901ZM73.8469 22.894H72.8469V23.894H73.8469V22.894ZM80.2375 28.1401L79.2566 28.3347L79.2567 28.335L80.2375 28.1401ZM76.3352 35.4292L75.9534 34.5049L75.9519 34.5056L76.3352 35.4292ZM68.425 33.0269L67.5933 33.5822V33.5822L68.425 33.0269ZM69.2414 24.8003L69.9479 25.508L69.9496 25.5063L69.2414 24.8003ZM73.843 22.8901V23.8901L73.8445 23.8901L73.843 22.8901ZM70.6438 29.6049L71.3698 28.9172L69.6438 27.0951V29.6049H70.6438ZM70.6438 29.6088L69.9135 30.292L71.6438 32.1416V29.6088H70.6438ZM70.6828 28.3432L71.3657 29.0738L71.366 29.0735L70.6828 28.3432ZM71.9484 28.3823L71.2179 29.0651L71.2203 29.0677L71.9484 28.3823ZM73.2023 29.7143L72.4742 30.3997L73.1758 31.145L73.9046 30.4262L73.2023 29.7143ZM75.7726 27.1791L76.4749 27.891L76.4798 27.8862L75.7726 27.1791ZM77.0383 27.1869L77.7493 26.4837L77.7454 26.4798L77.0383 27.1869ZM77.0304 28.4525L77.7332 29.1639L77.7336 29.1635L77.0304 28.4525ZM73.8 31.6439L74.4904 32.3672L74.4966 32.3613L74.5027 32.3553L73.8 31.6439ZM73.1593 31.8861L73.126 32.8855L73.1266 32.8855L73.1593 31.8861ZM72.5382 31.6048L73.2699 30.9231L73.2642 30.9171L72.5382 31.6048ZM84.4798 42.2259L84.48 41.2259L83.4798 41.2256V42.2259H84.4798ZM84.4798 42.2298L84.5274 43.2287L85.4798 43.1833V42.2298H84.4798ZM83.8196 41.9837L83.1284 42.7063L83.1288 42.7067L83.8196 41.9837ZM83.8196 40.6868L84.5025 41.4174L84.5107 41.4097L84.5187 41.4018L83.8196 40.6868ZM84.4798 40.4368L84.4322 41.4357L84.456 41.4368H84.4798V40.4368ZM99.5308 40.4368V41.4368H99.5546L99.5784 41.4357L99.5308 40.4368ZM100.195 40.6868L99.5036 41.4095L99.504 41.4098L100.195 40.6868ZM100.195 41.9837L100.878 42.7142L100.886 42.7066L100.894 42.6987L100.195 41.9837ZM99.5308 42.2298L99.5784 41.2309L99.5547 41.2298L99.531 41.2298L99.5308 42.2298ZM84.4798 48.679L84.48 47.679L83.4798 47.6787V48.679H84.4798ZM84.4798 48.6829V49.6829H85.4798V48.6829H84.4798ZM99.5308 48.6829L99.5305 49.6829H99.5308V48.6829ZM77.1829 41.222L76.4758 41.9291L76.4758 41.9291L77.1829 41.222ZM71.2298 40.64L70.6735 39.809L70.6731 39.8092L71.2298 40.64ZM69.4954 46.3666L68.5719 46.7502L68.5719 46.7502L69.4954 46.3666ZM74.7727 49.1869L74.9671 50.1678L74.9688 50.1674L74.7727 49.1869ZM78.5657 44.558L77.5657 44.5548L77.5657 44.5597L78.5657 44.558ZM73.847 38.0423L73.8482 37.0423L73.8349 37.0423L73.8215 37.0426L73.847 38.0423ZM80.2376 43.2884L81.2185 43.0937L81.2184 43.0935L80.2376 43.2884ZM76.3353 50.5814L76.7175 51.5055L76.7181 51.5052L76.3353 50.5814ZM68.4251 48.1791L67.5934 48.7344L68.4251 48.1791ZM69.2415 39.9486L68.5344 39.2415L68.5344 39.2415L69.2415 39.9486ZM73.8431 38.0424V39.0424H73.8558L73.8686 39.0421L73.8431 38.0424ZM70.6439 44.7571L69.9136 45.4403L69.9172 45.4441L70.6439 44.7571ZM70.6829 43.4915L71.3658 44.222L71.3661 44.2218L70.6829 43.4915ZM71.9485 43.5306L71.218 44.2134L71.2204 44.216L71.9485 43.5306ZM73.2024 44.8626L72.4743 45.548L73.1759 46.2933L73.9047 45.5745L73.2024 44.8626ZM75.7727 42.3274L76.475 43.0393L76.4799 43.0345L75.7727 42.3274ZM76.4056 42.0695L76.3889 43.0694L76.3972 43.0695H76.4056V42.0695ZM77.0384 42.3352L77.7533 41.6359L77.7455 41.6281L77.0384 42.3352ZM77.0305 43.6047L77.7333 44.3161L77.7337 44.3157L77.0305 43.6047ZM73.8001 46.7961L74.4829 47.5266L74.493 47.5172L74.5028 47.5075L73.8001 46.7961ZM72.5384 46.7609L71.8117 47.4479L71.8155 47.4519L72.5384 46.7609ZM84.4799 63.3003V62.3003H84.4561L84.4323 62.3014L84.4799 63.3003ZM83.8197 63.0542L84.5106 62.3311L84.5026 62.3237L83.8197 63.0542ZM83.8197 61.7573L84.5026 62.4879L84.5106 62.4803L83.8197 61.7573ZM84.4799 61.5112L84.4323 62.5101L84.4561 62.5112H84.4799V61.5112ZM99.5309 61.5112V62.5112H99.5547L99.5785 62.5101L99.5309 61.5112ZM100.195 61.7573L100.886 61.0343L100.878 61.0268L100.195 61.7573ZM100.195 63.0542L100.878 63.7848L100.886 63.7772L100.195 63.0542ZM99.5309 63.3003L99.5785 62.3014L99.5547 62.3003H99.5309V63.3003ZM77.183 56.3706L77.8901 55.6635L77.8892 55.6626L77.183 56.3706ZM71.2338 55.7925L71.7893 56.624L71.7913 56.6227L71.2338 55.7925ZM69.4994 61.5152L68.5753 61.8973L68.5762 61.8994L69.4994 61.5152ZM74.7728 64.3316L74.9676 65.3124L74.9689 65.3122L74.7728 64.3316ZM78.5658 59.7066L77.5658 59.7034V59.7066H78.5658ZM73.8471 53.1987V52.1987H73.8339L73.8207 52.199L73.8471 53.1987ZM80.2377 58.4409L81.2186 58.2462L81.2185 58.246L80.2377 58.4409ZM76.3432 65.7339L76.7249 66.6582L76.7265 66.6575L76.3432 65.7339ZM68.4291 63.3355L67.5974 63.8908L67.5978 63.8914L68.4291 63.3355ZM69.2416 55.105L69.9487 55.8121L69.9498 55.811L69.2416 55.105ZM73.8432 53.1988L73.8409 54.1988L73.8552 54.1988L73.8696 54.1984L73.8432 53.1988ZM70.644 59.9135H69.644V60.3125L69.9187 60.6019L70.644 59.9135ZM70.644 59.9096H71.644V59.5116L71.3706 59.2225L70.644 59.9096ZM70.683 58.644L71.3662 59.3743L71.3701 59.3706L70.683 58.644ZM71.9486 58.6791L72.6788 57.9958L72.6752 57.9921L71.9486 58.6791ZM73.2025 60.0189L72.4724 60.7023L73.1739 61.4518L73.9048 60.7309L73.2025 60.0189ZM75.7728 57.4837L76.4751 58.1957L76.476 58.1948L75.7728 57.4837ZM77.0345 57.4877L77.7456 56.7845L77.7417 56.7806L77.0345 57.4877ZM77.0306 58.7533L76.3275 58.0422L76.3274 58.0423L77.0306 58.7533ZM73.8001 61.9486L74.4872 62.6751L74.4954 62.6674L74.5034 62.6595L73.8001 61.9486ZM72.5384 61.9095L73.269 61.2266L73.2638 61.2211L72.5384 61.9095ZM35.781 68.2533L36.5433 68.9005L37.072 68.2778L36.5673 67.6355L35.781 68.2533ZM33.3318 65.1361L34.1181 64.5183L32.3318 62.2448V65.1361H33.3318ZM27.992 45.7728L26.992 45.7688V45.7728H27.992ZM26.2029 56.6672H27.2029L27.2029 56.6632L26.2029 56.6672ZM24.4295 54.8977V53.8977L24.4255 53.8977L24.4295 54.8977ZM22.6639 56.6672L21.6639 56.6632V56.6672H22.6639ZM20.8671 59.2805H21.8671V59.2683L21.8668 59.2561L20.8671 59.2805ZM17.3281 59.2805L16.3284 59.2562L16.3281 59.2683V59.2805H17.3281ZM17.3281 65.3508H16.3281V65.375L16.3292 65.3991L17.3281 65.3508ZM17.082 66.011L17.797 66.7101L17.8048 66.702L17.8125 66.6938L17.082 66.011ZM15.7851 66.011L16.5081 65.3201L16.5077 65.3197L15.7851 66.011ZM15.539 65.3508L16.5378 65.3991L16.539 65.375V65.3508H15.539ZM13.7656 60.1204V59.1204L13.7616 59.1204L13.7656 60.1204ZM12 65.7571H11V65.8716L11.0259 65.9831L12 65.7571ZM14.4375 76.2611L13.4634 76.4871L15.4375 76.2611H14.4375ZM14.4375 76.2572L15.4131 76.0375L13.4375 76.2572H14.4375ZM15.3633 76.9955V75.9954L15.3544 75.9955L15.3633 76.9955ZM30.2113 76.8978L29.8399 75.9693L29.7956 75.987L29.7533 76.0088L30.2113 76.8978ZM30.2503 76.8822V75.8822H30.0577L29.8789 75.9537L30.2503 76.8822ZM30.2542 76.8822V77.8822H30.5312L30.7687 77.7397L30.2542 76.8822ZM30.5511 76.6048L29.7431 76.0156L29.7354 76.0263L29.7279 76.0371L30.5511 76.6048ZM35.8011 69.4056V68.4056H35.2927L34.9931 68.8164L35.8011 69.4056ZM35.805 69.4056V70.4056H36.3073L36.6072 70.0027L35.805 69.4056ZM35.9886 68.8236L34.9888 68.8425L34.9889 68.8516L34.9893 68.8607L35.9886 68.8236ZM35.7777 68.2572L35.0153 67.61L34.4723 68.2497L35.0079 68.8955L35.7777 68.2572ZM15.117 83.2963L14.117 83.2962L14.1169 84.4513L15.2601 84.286L15.117 83.2963ZM29.301 81.2455L29.4441 82.2353L29.4566 82.2333L29.301 81.2455ZM29.8713 81.1557L30.0269 82.1435L30.8713 82.0105V81.1557H29.8713ZM29.8713 78.7767H30.8713V77.7767H29.8713V78.7767ZM15.1173 78.7767V77.7767H14.1174L14.1173 78.7767L15.1173 78.7767ZM95.6755 10.293H72.5075V12.293H95.6755V10.293ZM72.265 10.3228C72.1565 10.35 72.0054 10.4049 71.8567 10.5164L73.0567 12.1164C72.9924 12.1646 72.933 12.1957 72.8882 12.2156C72.8426 12.2359 72.7966 12.2515 72.75 12.2631L72.265 10.3228ZM71.6567 10.7164C71.4867 10.9431 71.4411 11.1842 71.4411 11.3672H73.4411C73.4411 11.4236 73.4356 11.5147 73.4039 11.6225C73.3707 11.7352 73.3184 11.8342 73.2567 11.9164L71.6567 10.7164ZM71.4411 11.3672V18.375H73.4411V11.3672H71.4411ZM71.4411 18.375C71.4411 18.5797 71.4997 18.8126 71.6567 19.0219L73.2567 17.8219C73.3168 17.902 73.3663 17.9957 73.399 18.1002C73.4312 18.2034 73.4411 18.2981 73.4411 18.375H71.4411ZM71.8567 19.2219C71.9601 19.2994 72.1849 19.4414 72.5075 19.4414V17.4414C72.791 17.4414 72.9846 17.5678 73.0567 17.6219L71.8567 19.2219ZM72.5075 19.4414H95.6755V17.4414H72.5075V19.4414ZM95.7859 19.4353C96.2164 19.3875 96.6768 19.0516 96.7397 18.4855L94.7519 18.2646C94.807 17.7688 95.2049 17.4876 95.5651 17.4475L95.7859 19.4353ZM96.7458 18.375V11.3672H94.7458V18.375H96.7458ZM96.7458 11.3672C96.7458 11.1037 96.6415 10.7558 96.3224 10.5164L95.1224 12.1164C94.8345 11.9005 94.7458 11.5917 94.7458 11.3672H96.7458ZM96.4294 10.6093C96.2521 10.4319 96.0451 10.3471 95.8716 10.3124L95.4794 12.2736C95.3449 12.2467 95.1692 12.1775 95.0153 12.0236L96.4294 10.6093ZM96.5388 18.3242V18.375H98.5388V18.3242H96.5388ZM96.5388 18.375C96.5388 18.5964 96.4487 18.8185 96.2809 18.9882L97.7029 20.3945C98.2304 19.8611 98.5388 19.1379 98.5388 18.375H96.5388ZM96.2809 18.9882C96.1233 19.1475 95.9077 19.2383 95.6755 19.2383V21.2383C96.4355 21.2383 97.1652 20.9383 97.7029 20.3945L96.2809 18.9882ZM95.6755 19.2383H72.5075V21.2383H95.6755V19.2383ZM72.5113 19.2383C72.0333 19.2364 71.646 18.8492 71.6442 18.3712L69.6442 18.3788C69.6502 19.9555 70.9271 21.2323 72.5037 21.2382L72.5113 19.2383ZM71.6442 18.375V18.3242H69.6442V18.375H71.6442ZM70.6442 17.3242H64.4528V19.3242H70.6442V17.3242ZM63.4528 18.3242V67.3552H65.4528V18.3242H63.4528ZM64.4528 68.3552H103.73V66.3552H64.4528V68.3552ZM104.73 67.3552V18.3242H102.73V67.3552H104.73ZM103.73 17.3242L97.5388 17.3242V19.3242L103.73 19.3242V17.3242ZM70.6438 12.043H63.0813V14.043H70.6438V12.043ZM63.0795 12.043C60.3721 12.0479 58.1751 14.2449 58.1751 16.9571H60.1751C60.1751 15.3489 61.4781 14.0459 63.0831 14.043L63.0795 12.043ZM58.1751 16.9571V68.7271H60.1751V16.9571H58.1751ZM58.1751 68.7307C58.1849 71.4367 60.3766 73.6245 63.0795 73.6294L63.0831 71.6294C61.4814 71.6265 60.1809 70.3299 60.1751 68.7235L58.1751 68.7307ZM63.0813 73.6294H105.097V71.6294H63.0813V73.6294ZM105.097 73.6294C107.805 73.6294 110.002 71.4363 110.007 68.725L108.007 68.7213C108.005 70.3303 106.701 71.6294 105.097 71.6294V73.6294ZM110.007 68.7232V16.9572H108.007V68.7232H110.007ZM110.007 16.9572C110.007 14.2444 107.81 12.048 105.099 12.0431L105.095 14.0431C106.705 14.046 108.007 15.3496 108.007 16.9572H110.007ZM105.097 12.0431H97.5387V14.0431H105.097V12.0431ZM96.5387 13.0431V16.5236H98.5387V13.0431H96.5387ZM97.5387 17.5236H104.628V15.5236H97.5387V17.5236ZM104.628 17.5236C104.613 17.5236 104.6 17.5206 104.589 17.5161C104.578 17.5117 104.566 17.5043 104.554 17.4924L105.968 16.0782C105.611 15.7206 105.125 15.5236 104.628 15.5236V17.5236ZM104.554 17.4924C104.531 17.4691 104.523 17.4436 104.523 17.422H106.523C106.523 16.9239 106.328 16.4375 105.968 16.0782L104.554 17.4924ZM104.523 17.422V68.254H106.523V17.422H104.523ZM104.523 68.254C104.523 68.2278 104.534 68.1998 104.554 68.1797L105.968 69.594C106.324 69.2379 106.523 68.7568 106.523 68.254H104.523ZM104.554 68.1797C104.574 68.1597 104.602 68.1486 104.628 68.1486V70.1486C105.131 70.1486 105.612 69.95 105.968 69.594L104.554 68.1797ZM104.628 68.1486H63.5545V70.1486H104.628V68.1486ZM63.5545 68.1486C63.5807 68.1486 63.6087 68.1597 63.6288 68.1797L62.2146 69.594C62.5706 69.95 63.0517 70.1486 63.5545 70.1486V68.1486ZM63.6288 68.1797C63.6488 68.1998 63.66 68.2278 63.66 68.254H61.66C61.66 68.7568 61.8586 69.2379 62.2146 69.594L63.6288 68.1797ZM63.66 68.254V17.426H61.66V68.254H63.66ZM63.6598 17.4096C63.6604 17.4432 63.6478 17.4735 63.6249 17.4964L62.2106 16.0822C61.8518 16.4411 61.6517 16.9323 61.6601 17.4424L63.6598 17.4096ZM63.6248 17.4964C63.6193 17.502 63.6095 17.5095 63.5955 17.5153C63.5816 17.5211 63.5672 17.5237 63.5545 17.5237V15.5237C63.0484 15.5237 62.5683 15.7246 62.2107 16.0822L63.6248 17.4964ZM63.5545 17.5237H70.6404V15.5237H63.5545V17.5237ZM71.6404 16.5247L71.6438 13.044L69.6438 13.042L69.6404 16.5227L71.6404 16.5247ZM78.4481 10.5L89.7371 10.5039L89.7378 8.5039L78.4488 8.49999L78.4481 10.5ZM90.7375 9.5039V7.7539H88.7375V9.5039H90.7375ZM90.7375 7.74985C90.7313 6.23735 89.5069 5.00612 87.9876 5.00001L87.9796 6.99999C88.3977 7.00168 88.7358 7.34077 88.7375 7.75795L90.7375 7.74985ZM87.9836 5H80.1945V7H87.9836V5ZM80.1904 5.00001C78.6736 5.00615 77.4506 6.23878 77.4445 7.74986L79.4445 7.75794C79.4462 7.33934 79.7857 7.00166 80.1985 6.99999L80.1904 5.00001ZM77.4445 7.75619L77.4485 9.50228L79.4485 9.4977L79.4445 7.75161L77.4445 7.75619ZM83.4797 27.605V27.6089H85.4797V27.605H83.4797ZM84.4474 26.6094C84.4717 26.6086 84.4993 26.6172 84.5226 26.64L83.1243 28.07C83.4991 28.4365 84.0033 28.6248 84.5119 28.6084L84.4474 26.6094ZM84.5143 26.632C84.5407 26.6572 84.55 26.6861 84.55 26.7105H82.55C82.55 27.2192 82.7546 27.7168 83.1326 28.078L84.5143 26.632ZM84.55 26.7105C84.55 26.7348 84.5407 26.7637 84.5143 26.7889L83.1326 25.3429C82.7546 25.7041 82.55 26.2018 82.55 26.7105H84.55ZM84.5143 26.7889C84.5065 26.7963 84.4982 26.8015 84.4889 26.8051C84.4795 26.8088 84.4657 26.8121 84.4474 26.8115L84.5119 24.8125C83.9935 24.7958 83.4967 24.995 83.1326 25.3429L84.5143 26.7889ZM84.4797 26.812H99.5307V24.812H84.4797V26.812ZM99.5624 26.8115C99.5307 26.8125 99.5072 26.7996 99.4961 26.7889L100.878 25.3429C100.515 24.9963 100.023 24.7959 99.4989 24.8125L99.5624 26.8115ZM99.4961 26.7889C99.4697 26.7637 99.4604 26.7348 99.4604 26.7105H101.46C101.46 26.2018 101.256 25.7041 100.878 25.3429L99.4961 26.7889ZM99.4604 26.7105C99.4604 26.6862 99.4697 26.6572 99.4961 26.632L100.878 28.078C101.256 27.7168 101.46 27.2191 101.46 26.7105H99.4604ZM99.4878 26.64C99.4971 26.6309 99.51 26.6222 99.5251 26.6164C99.5401 26.6106 99.5533 26.6091 99.5624 26.6094L99.499 28.6084C100.013 28.6247 100.513 28.4352 100.886 28.07L99.4878 26.64ZM99.5309 26.6089L84.4799 26.605L84.4794 28.605L99.5304 28.6089L99.5309 26.6089ZM83.4797 34.0542V34.0581H85.4797V34.0542H83.4797ZM84.4321 33.0592C84.46 33.0579 84.4884 33.0681 84.5104 33.089L83.1287 34.535C83.5022 34.8919 84.0072 35.0817 84.5272 35.057L84.4321 33.0592ZM84.5024 33.0815C84.5254 33.103 84.5383 33.1333 84.5383 33.1636H82.5383C82.5383 33.686 82.7542 34.1851 83.1366 34.5425L84.5024 33.0815ZM84.5383 33.1636C84.5383 33.1938 84.5254 33.2241 84.5024 33.2457L83.1366 31.7846C82.7542 32.1421 82.5383 32.6411 82.5383 33.1636H84.5383ZM84.5104 33.2381C84.4884 33.2591 84.4599 33.2692 84.4321 33.2679L84.5273 31.2702C84.0072 31.2454 83.5022 31.4352 83.1287 31.7921L84.5104 33.2381ZM84.4797 33.269H99.5307V31.269H84.4797V33.269ZM99.5782 33.2679C99.5484 33.2693 99.5248 33.2578 99.5118 33.2456L100.878 31.7846C100.505 31.4365 100.005 31.2453 99.4831 31.2702L99.5782 33.2679ZM99.5039 33.2381C99.4837 33.2188 99.4721 33.1926 99.4721 33.1636H101.472C101.472 32.6424 101.257 32.1474 100.886 31.7921L99.5039 33.2381ZM99.4721 33.1636C99.4721 33.1346 99.4836 33.1084 99.5039 33.089L100.886 34.535C101.257 34.1797 101.472 33.6847 101.472 33.1636H99.4721ZM99.5119 33.0815C99.5248 33.0694 99.5484 33.0578 99.5782 33.0592L99.4831 35.057C100.005 35.0818 100.505 34.8906 100.878 34.5425L99.5119 33.0815ZM99.5309 33.0581L84.4799 33.0542L84.4794 35.0542L99.5304 35.0581L99.5309 33.0581ZM77.889 25.3579C75.9623 23.4359 72.9377 23.137 70.6734 24.6529L71.786 26.3149C73.256 25.3308 75.2237 25.5241 76.4765 26.7739L77.889 25.3579ZM70.673 24.6532C68.407 26.1717 67.5249 29.074 68.5718 31.5941L70.4188 30.8268C69.739 29.1905 70.3102 27.3038 71.7864 26.3146L70.673 24.6532ZM68.5718 31.5941C69.6178 34.112 72.2924 35.5419 74.967 35.0117L74.5781 33.0499C72.8387 33.3947 71.0994 32.4652 70.4188 30.8268L68.5718 31.5941ZM74.9687 35.0113C77.6418 34.4767 79.5703 32.1294 79.5656 29.404L77.5656 29.4075C77.5686 31.1743 76.3173 32.702 74.5765 33.0502L74.9687 35.0113ZM79.5656 29.4089C79.5703 27.8857 78.9628 26.4317 77.8899 25.3588L76.4757 26.773C77.1762 27.4735 77.5687 28.418 77.5656 29.4027L79.5656 29.4089ZM72.8469 22.8901V22.894H74.8469V22.8901H72.8469ZM73.8469 23.894C76.4793 23.894 78.7442 25.7524 79.2566 28.3347L81.2184 27.9455C80.52 24.4262 77.4332 21.894 73.8469 21.894V23.894ZM79.2567 28.335C79.7691 30.9139 78.387 33.4998 75.9534 34.5049L76.7169 36.3535C80.0334 34.9836 81.9168 31.4601 81.2183 27.9452L79.2567 28.335ZM75.9519 34.5056C73.5228 35.5136 70.7187 34.6613 69.2566 32.4716L67.5933 33.5822C69.5844 36.5643 73.4054 37.7276 76.7185 36.3528L75.9519 34.5056ZM69.2566 32.4716C67.7954 30.2831 68.0861 27.3666 69.9479 25.508L68.5349 24.0926C65.9983 26.6248 65.6014 30.5989 67.5933 33.5822L69.2566 32.4716ZM69.9496 25.5063C70.9808 24.4718 72.3821 23.8901 73.843 23.8901V21.8901C71.8507 21.8901 69.9396 22.6834 68.5332 24.0943L69.9496 25.5063ZM73.8445 23.8901L73.8484 23.8901L73.8454 21.8901L73.8415 21.8901L73.8445 23.8901ZM69.6438 29.6049V29.6088H71.6438V29.6049H69.6438ZM71.3741 28.9256C71.4096 28.9637 71.4121 29.0304 71.3657 29.0738L70 27.6126C69.2349 28.3278 69.1983 29.5274 69.9135 30.292L71.3741 28.9256ZM71.366 29.0735C71.328 29.109 71.2612 29.1115 71.2179 29.0651L72.679 27.6994C71.9638 26.9343 70.7643 26.8977 69.9997 27.6129L71.366 29.0735ZM71.2203 29.0677L72.4742 30.3997L73.9305 29.0288L72.6766 27.6968L71.2203 29.0677ZM73.9046 30.4262L76.4749 27.891L75.0704 26.4671L72.5001 29.0023L73.9046 30.4262ZM76.4798 27.8862C76.4671 27.8988 76.4523 27.9083 76.4377 27.9142C76.4235 27.9199 76.4121 27.9213 76.4055 27.9213V25.9213C75.914 25.9213 75.4294 26.1081 75.0655 26.472L76.4798 27.8862ZM76.4055 27.9213C76.3681 27.9213 76.3433 27.9061 76.3312 27.894L77.7454 26.4798C77.3973 26.1317 76.9193 25.9213 76.4055 25.9213V27.9213ZM76.3272 27.89C76.2855 27.8478 76.2872 27.781 76.3273 27.7414L77.7336 29.1635C78.4768 28.4286 78.4864 27.2291 77.7493 26.4837L76.3272 27.89ZM76.3277 27.7411L73.0972 30.9325L74.5027 32.3553L77.7332 29.1639L76.3277 27.7411ZM73.1095 30.9205C73.1364 30.8948 73.1684 30.8858 73.1921 30.8866L73.1266 32.8855C73.6268 32.9019 74.1197 32.7211 74.4904 32.3672L73.1095 30.9205ZM73.1926 30.8866C73.2084 30.8871 73.2215 30.8906 73.2325 30.8956C73.2436 30.9006 73.2567 30.909 73.2699 30.9231L71.8066 32.2865C72.1508 32.6559 72.6299 32.869 73.126 32.8855L73.1926 30.8866ZM73.2642 30.9171L71.3698 28.9172L69.9178 30.2926L71.8123 32.2925L73.2642 30.9171ZM83.4798 42.2259V42.2298H85.4798V42.2259H83.4798ZM84.4322 41.2309C84.4601 41.2296 84.4886 41.2398 84.5105 41.2607L83.1288 42.7067C83.5023 43.0636 84.0073 43.2534 84.5274 43.2287L84.4322 41.2309ZM84.5108 41.2611C84.5227 41.2724 84.5384 41.2968 84.5384 41.3353H82.5384C82.5384 41.8581 82.7571 42.3512 83.1284 42.7063L84.5108 41.2611ZM84.5384 41.3353C84.5384 41.3655 84.5255 41.3958 84.5025 41.4174L83.1367 39.9563C82.7543 40.3138 82.5384 40.8128 82.5384 41.3353H84.5384ZM84.5187 41.4018C84.4941 41.4259 84.4612 41.4371 84.4322 41.4357L84.5274 39.438C84.0062 39.4131 83.4967 39.604 83.1205 39.9718L84.5187 41.4018ZM84.4798 41.4368H99.5308V39.4368H84.4798V41.4368ZM99.5784 41.4357C99.5473 41.4372 99.5194 41.4246 99.5036 41.4095L100.886 39.9642C100.511 39.6053 100.006 39.413 99.4832 39.438L99.5784 41.4357ZM99.504 41.4098C99.4837 41.3905 99.4722 41.3643 99.4722 41.3353H101.472C101.472 40.8141 101.257 40.3191 100.886 39.9638L99.504 41.4098ZM99.4722 41.3353C99.4722 41.2981 99.4865 41.2777 99.4957 41.2687L100.894 42.6987C101.255 42.3459 101.472 41.8568 101.472 41.3353H99.4722ZM99.512 41.2532C99.5249 41.2411 99.5485 41.2295 99.5784 41.2309L99.4832 43.2287C100.005 43.2535 100.505 43.0623 100.878 42.7142L99.512 41.2532ZM99.531 41.2298L84.48 41.2259L84.4795 43.2259L99.5305 43.2298L99.531 41.2298ZM83.4798 48.679V48.6829H85.4798V48.679H83.4798ZM84.4798 47.6829C84.536 47.6829 84.5813 47.7283 84.5813 47.7845H82.5813C82.5813 48.8328 83.4314 49.6829 84.4798 49.6829V47.6829ZM84.5813 47.7845C84.5813 47.8406 84.536 47.886 84.4798 47.886V45.886C83.4314 45.886 82.5813 46.7361 82.5813 47.7845H84.5813ZM84.4798 47.886H99.5308V45.886H84.4798V47.886ZM99.5308 47.886C99.4746 47.886 99.4292 47.8406 99.4292 47.7845H101.429C101.429 46.7361 100.579 45.886 99.5308 45.886V47.886ZM99.4292 47.7845C99.4292 47.7283 99.4746 47.6829 99.5308 47.6829V49.6829C100.579 49.6829 101.429 48.8328 101.429 47.7845H99.4292ZM99.531 47.6829L84.48 47.679L84.4795 49.679L99.5305 49.6829L99.531 47.6829ZM77.89 40.5149C75.962 38.5869 72.9367 38.2939 70.6735 39.809L71.7861 41.471C73.2573 40.4861 75.2242 40.6775 76.4758 41.9291L77.89 40.5149ZM70.6731 39.8092C68.4071 41.3278 67.525 44.2301 68.5719 46.7502L70.4189 45.9829C69.7391 44.3466 70.3103 42.4599 71.7865 41.4707L70.6731 39.8092ZM68.5719 46.7502C69.6179 49.2681 72.2925 50.698 74.9671 50.1678L74.5782 48.206C72.8388 48.5508 71.0995 47.6213 70.4189 45.9829L68.5719 46.7502ZM74.9688 50.1674C77.6424 49.6327 79.5704 47.285 79.5657 44.5562L77.5657 44.5597C77.5688 46.3309 76.3169 47.8582 74.5766 48.2063L74.9688 50.1674ZM79.5657 44.5611C79.5704 43.0414 78.9626 41.5875 77.89 40.5149L76.4758 41.9291C77.1766 42.6299 77.5687 43.5745 77.5657 44.5548L79.5657 44.5611ZM73.8457 39.0423C76.4796 39.0456 78.7445 40.9051 79.2568 43.4833L81.2184 43.0935C80.5199 39.5779 77.4331 37.0468 73.8482 37.0423L73.8457 39.0423ZM79.2567 43.4831C79.7692 46.0656 78.3875 48.6485 75.9524 49.6576L76.7181 51.5052C80.0331 50.1315 81.9169 46.6128 81.2185 43.0937L79.2567 43.4831ZM75.9531 49.6573C73.5223 50.6627 70.7182 49.8126 69.2567 47.6238L67.5934 48.7344C69.5852 51.7174 73.406 52.8751 76.7175 51.5055L75.9531 49.6573ZM69.2567 47.6238C67.7957 45.4356 68.0858 42.5186 69.9486 40.6557L68.5344 39.2415C65.9988 41.7772 65.6013 45.7508 67.5934 48.7344L69.2567 47.6238ZM69.9486 40.6557C70.9801 39.6242 72.382 39.0424 73.8431 39.0424V37.0424C71.851 37.0424 69.9405 37.8354 68.5344 39.2415L69.9486 40.6557ZM73.8686 39.0421L73.8725 39.042L73.8215 37.0426L73.8176 37.0427L73.8686 39.0421ZM71.3742 44.0739C71.4097 44.1119 71.4122 44.1787 71.3658 44.222L70.0001 42.7609C69.235 43.4761 69.1984 44.6757 69.9136 45.4403L71.3742 44.0739ZM71.3661 44.2218C71.3281 44.2573 71.2613 44.2598 71.218 44.2134L72.6791 42.8477C71.9639 42.0826 70.7644 42.046 69.9998 42.7612L71.3661 44.2218ZM71.2204 44.216L72.4743 45.548L73.9306 44.1771L72.6767 42.8451L71.2204 44.216ZM73.9047 45.5745L76.475 43.0393L75.0705 41.6154L72.5002 44.1506L73.9047 45.5745ZM76.4799 43.0345C76.4681 43.0462 76.455 43.0546 76.4414 43.0601C76.4278 43.0657 76.4102 43.0698 76.3889 43.0694L76.4222 41.0697C75.9135 41.0612 75.4228 41.2631 75.0656 41.6202L76.4799 43.0345ZM76.4056 43.0695C76.3682 43.0695 76.3434 43.0544 76.3312 43.0423L77.7455 41.6281C77.3974 41.28 76.9194 41.0695 76.4056 41.0695V43.0695ZM76.3234 43.0344C76.289 42.9992 76.2852 42.9354 76.3274 42.8936L77.7337 44.3157C78.4791 43.5787 78.483 42.3821 77.7533 41.636L76.3234 43.0344ZM76.3278 42.8933L73.0973 46.0847L74.5028 47.5075L77.7333 44.3161L76.3278 42.8933ZM73.1172 46.0655C73.1577 46.0277 73.222 46.029 73.2612 46.0699L71.8155 47.4519C72.5343 48.2038 73.7236 48.2364 74.4829 47.5266L73.1172 46.0655ZM73.265 46.0739L71.3705 44.0701L69.9172 45.4441L71.8117 47.4479L73.265 46.0739ZM84.4799 55.8511C84.5361 55.8511 84.5814 55.8965 84.5814 55.9527H82.5814C82.5814 57.001 83.4315 57.8511 84.4799 57.8511V55.8511ZM84.5814 55.9527C84.5814 56.0088 84.5361 56.0542 84.4799 56.0542V54.0542C83.4315 54.0542 82.5814 54.9043 82.5814 55.9527H84.5814ZM84.4799 56.0542H99.5309V54.0542H84.4799V56.0542ZM99.5309 56.0542C99.4747 56.0542 99.4293 56.0088 99.4293 55.9527H101.429C101.429 54.9043 100.579 54.0542 99.5309 54.0542V56.0542ZM99.4293 55.9527C99.4293 55.8965 99.4747 55.8511 99.5309 55.8511V57.8511C100.579 57.8511 101.429 57.001 101.429 55.9527H99.4293ZM99.5309 55.8511H84.4799V57.8511H99.5309V55.8511ZM84.4323 62.3014C84.4602 62.3001 84.4887 62.3103 84.5106 62.3312L83.1289 63.7772C83.5024 64.1341 84.0074 64.3239 84.5275 64.2992L84.4323 62.3014ZM84.5026 62.3237C84.5256 62.3452 84.5385 62.3755 84.5385 62.4058H82.5385C82.5385 62.9282 82.7544 63.4273 83.1368 63.7847L84.5026 62.3237ZM84.5385 62.4058C84.5385 62.436 84.5256 62.4663 84.5026 62.4879L83.1368 61.0268C82.7544 61.3843 82.5385 61.8833 82.5385 62.4058H84.5385ZM84.5106 62.4803C84.4886 62.5013 84.4601 62.5114 84.4323 62.5101L84.5275 60.5124C84.0075 60.4876 83.5024 60.6774 83.1289 61.0343L84.5106 62.4803ZM84.4799 62.5112H99.5309V60.5112H84.4799V62.5112ZM99.5785 62.5101C99.5486 62.5115 99.525 62.5 99.512 62.4878L100.878 61.0268C100.505 60.6787 100.005 60.4875 99.4833 60.5124L99.5785 62.5101ZM99.5041 62.4803C99.4838 62.461 99.4723 62.4347 99.4723 62.4058H101.472C101.472 61.8846 101.258 61.3896 100.886 61.0343L99.5041 62.4803ZM99.4723 62.4058C99.4723 62.3768 99.4838 62.3505 99.5041 62.3312L100.886 63.7772C101.258 63.4219 101.472 62.9269 101.472 62.4058H99.4723ZM99.5121 62.3237C99.525 62.3116 99.5486 62.3 99.5785 62.3014L99.4833 64.2992C100.005 64.324 100.505 64.1328 100.878 63.7847L99.5121 62.3237ZM99.5309 62.3003H84.4799V64.3003H99.5309V62.3003ZM77.8892 55.6626C75.9625 53.7406 72.9412 53.4413 70.6763 54.9623L71.7913 56.6227C73.2607 55.6359 75.2239 55.8288 76.4767 57.0786L77.8892 55.6626ZM70.6783 54.961C68.4093 56.4767 67.5342 59.3799 68.5753 61.8973L70.4235 61.133C69.7457 59.494 70.316 57.6082 71.7893 56.624L70.6783 54.961ZM68.5762 61.8994C69.6222 64.4126 72.2965 65.8429 74.9676 65.3124L74.578 63.3507C72.8429 63.6953 71.1032 62.7661 70.4226 61.1309L68.5762 61.8994ZM74.9689 65.3122C77.643 64.7773 79.5658 62.4336 79.5658 59.7066H77.5658C77.5658 61.4795 76.3166 63.003 74.5767 63.351L74.9689 65.3122ZM79.5658 59.7097C79.5705 58.19 78.9627 56.7361 77.8901 55.6635L76.4759 57.0777C77.1767 57.7785 77.5688 58.7231 77.5658 59.7034L79.5658 59.7097ZM73.8471 54.1987C76.4799 54.1987 78.7445 56.0574 79.2569 58.6358L81.2185 58.246C80.52 54.7306 77.4331 52.1987 73.8471 52.1987V54.1987ZM79.2568 58.6356C79.7696 61.2193 78.3902 63.8018 75.9599 64.8103L76.7265 66.6575C80.0383 65.2832 81.9167 61.7641 81.2186 58.2462L79.2568 58.6356ZM75.9614 64.8096C73.526 65.8156 70.7215 64.9646 69.2603 62.7796L67.5978 63.8914C69.5899 66.8703 73.4104 68.0272 76.7249 66.6582L75.9614 64.8096ZM69.2607 62.7802C67.799 60.591 68.0867 57.6742 69.9487 55.8121L68.5345 54.3979C65.9981 56.9344 65.6059 60.9082 67.5974 63.8908L69.2607 62.7802ZM69.9498 55.811C70.981 54.7765 72.3817 54.1954 73.8409 54.1988L73.8455 52.1988C71.8515 52.1942 69.9397 52.9881 68.5333 54.399L69.9498 55.811ZM73.8696 54.1984L73.8735 54.1983L73.8207 52.199L73.8168 52.1991L73.8696 54.1984ZM71.644 59.9135V59.9096H69.644V59.9135H71.644ZM71.3706 59.2225C71.4106 59.2648 71.4089 59.3343 71.3662 59.3743L69.9999 57.9137C69.2306 58.6333 69.1977 59.8356 69.9174 60.5967L71.3706 59.2225ZM71.3701 59.3706C71.3285 59.4099 71.262 59.4085 71.222 59.3662L72.6752 57.9921C71.9557 57.2311 70.7563 57.1984 69.996 57.9174L71.3701 59.3706ZM71.2185 59.3625L72.4724 60.7023L73.9327 59.3356L72.6788 57.9958L71.2185 59.3625ZM73.9048 60.7309L76.4751 58.1957L75.0706 56.7718L72.5003 59.307L73.9048 60.7309ZM76.476 58.1948C76.4344 58.2359 76.3668 58.2341 76.3274 58.1947L77.7417 56.7806C77.007 56.0459 75.8144 56.0363 75.0697 56.7727L76.476 58.1948ZM76.3235 58.1908C76.2874 58.1543 76.2817 58.0875 76.3275 58.0422L77.7338 59.4643C78.4827 58.7238 78.477 57.5241 77.7456 56.7845L76.3235 58.1908ZM76.3274 58.0423L73.0969 61.2376L74.5034 62.6595L77.7339 59.4642L76.3274 58.0423ZM73.1131 61.222C73.1583 61.1792 73.2278 61.1826 73.269 61.2266L71.8079 62.5924C72.5209 63.3552 73.7232 63.3976 74.4872 62.6751L73.1131 61.222ZM73.2638 61.2211L71.3693 59.2251L69.9187 60.6019L71.8131 62.5979L73.2638 61.2211ZM36.5673 67.6355L34.1181 64.5183L32.5455 65.7539L34.9947 68.8711L36.5673 67.6355ZM32.3318 65.1361V68.5228H34.3318V65.1361H32.3318ZM32.3318 68.5228C32.3318 68.4666 32.3772 68.4212 32.4333 68.4212V70.4212C33.4817 70.4212 34.3318 69.5712 34.3318 68.5228H32.3318ZM32.4333 68.4212C32.4895 68.4212 32.5349 68.4666 32.5349 68.5228H30.5349C30.5349 69.5712 31.385 70.4212 32.4333 70.4212V68.4212ZM32.5349 68.5228V45.7728H30.5349V68.5228H32.5349ZM32.5349 45.7728C32.5349 44.2482 31.3024 42.9994 29.7654 42.9994V44.9994C30.1893 44.9994 30.5349 45.3442 30.5349 45.7728H32.5349ZM29.7654 42.9994C28.2344 42.9994 26.9981 44.2414 26.992 45.7688L28.992 45.7768C28.9937 45.3433 29.3433 44.9994 29.7654 44.9994V42.9994ZM26.992 45.7728V65.3508H28.992V45.7728H26.992ZM26.992 65.3508C26.992 65.2935 27.0384 65.2453 27.0975 65.2453V67.2453C28.1487 67.2453 28.992 66.3924 28.992 65.3508H26.992ZM27.0975 65.2453C27.1293 65.2453 27.1565 65.2593 27.1727 65.2755C27.189 65.2918 27.2029 65.319 27.2029 65.3508H25.2029C25.2029 66.3953 26.053 67.2453 27.0975 67.2453V65.2453ZM27.2029 65.3508V56.6672H25.2029V65.3508H27.2029ZM27.2029 56.6632C27.1968 55.1382 25.9591 53.8977 24.4295 53.8977V55.8977C24.853 55.8977 25.2012 56.243 25.2029 56.6712L27.2029 56.6632ZM24.4255 53.8977C22.9023 53.9038 21.67 55.1389 21.6639 56.6632L23.6639 56.6712C23.6656 56.2424 24.0115 55.8994 24.4336 55.8977L24.4255 53.8977ZM21.6639 56.6672V65.3508H23.6639V56.6672H21.6639ZM21.6639 65.3508C21.6639 65.2946 21.7093 65.2492 21.7655 65.2492V67.2492C22.8139 67.2492 23.6639 66.3992 23.6639 65.3508H21.6639ZM21.7655 65.2492C21.8217 65.2492 21.8671 65.2946 21.8671 65.3508H19.8671C19.8671 66.3992 20.7171 67.2492 21.7655 67.2492V65.2492ZM21.8671 65.3508V59.2805H19.8671V65.3508H21.8671ZM21.8668 59.2561C21.8302 57.7551 20.6038 56.55 19.0976 56.55V58.55C19.5131 58.55 19.8571 58.884 19.8674 59.3049L21.8668 59.2561ZM19.0976 56.55C17.5913 56.55 16.3649 57.7551 16.3284 59.2562L18.3278 59.3048C18.338 58.884 18.682 58.55 19.0976 58.55V56.55ZM16.3281 59.2805V65.3508H18.3281V59.2805H16.3281ZM16.3292 65.3991C16.3275 65.3625 16.3409 65.3393 16.3514 65.3281L17.8125 66.6938C18.1589 66.3232 18.3521 65.8235 18.3269 65.3025L16.3292 65.3991ZM16.367 65.3118C16.376 65.3026 16.3964 65.2883 16.4335 65.2883V67.2883C16.955 67.2883 17.4442 67.0708 17.797 66.7101L16.367 65.3118ZM16.4335 65.2883C16.4625 65.2883 16.4887 65.2999 16.5081 65.3201L15.0621 66.7018C15.4174 67.0736 15.9124 67.2883 16.4335 67.2883V65.2883ZM16.5077 65.3197C16.5289 65.3418 16.5391 65.3723 16.5378 65.3991L14.5402 65.3025C14.5154 65.8136 14.6976 66.3207 15.0625 66.7022L16.5077 65.3197ZM16.539 65.3508V61.8938H14.539V65.3508H16.539ZM16.539 61.8938C16.539 60.361 15.2983 59.1204 13.7656 59.1204V61.1204C14.1938 61.1204 14.539 61.4656 14.539 61.8938H16.539ZM13.7616 59.1204C12.2338 59.1265 11 60.3671 11 61.8938H13C13 61.4674 13.3443 61.1221 13.7696 61.1204L13.7616 59.1204ZM11 61.8938V65.7571H13V61.8938H11ZM11.0259 65.9831L13.4634 76.4871L15.4116 76.035L12.9741 65.531L11.0259 65.9831ZM15.4375 76.2611V76.2572H13.4375V76.2611H15.4375ZM13.4619 76.4769C13.6619 77.3648 14.4545 78.0036 15.3721 77.9954L15.3544 75.9955C15.3722 75.9954 15.3866 76.0019 15.395 76.0086C15.4034 76.0152 15.4104 76.0256 15.4131 76.0375L13.4619 76.4769ZM15.3633 77.9955H29.7933V75.9955H15.3633V77.9955ZM29.7933 77.9955C30.0794 77.9955 30.3837 77.9338 30.6692 77.7868L29.7533 76.0088C29.7674 76.0016 29.7784 75.9983 29.7847 75.9968C29.791 75.9954 29.7938 75.9955 29.7933 75.9955V77.9955ZM30.5826 77.8263L30.6217 77.8107L29.8789 75.9537L29.8399 75.9693L30.5826 77.8263ZM30.2503 77.8822H30.2542V75.8822H30.2503V77.8822ZM30.7687 77.7397C31.0038 77.5986 31.2122 77.4077 31.3743 77.1726L29.7279 76.0371C29.7338 76.0286 29.739 76.0251 29.7397 76.0247L30.7687 77.7397ZM31.3591 77.1941L36.6091 69.9949L34.9931 68.8164L29.7431 76.0156L31.3591 77.1941ZM35.8011 70.4056H35.805V68.4056H35.8011V70.4056ZM36.6072 70.0027C36.8623 69.6599 37.0045 69.2348 36.9879 68.7866L34.9893 68.8607C34.9888 68.8489 34.9906 68.8373 34.9937 68.8273C34.9968 68.8177 35.0006 68.8116 35.0028 68.8086L36.6072 70.0027ZM36.9884 68.8047C36.9802 68.3698 36.8241 67.9525 36.5474 67.6189L35.0079 68.8955C34.9969 68.8823 34.9892 68.8634 34.9888 68.8425L36.9884 68.8047ZM36.54 68.9044L36.5433 68.9005L35.0186 67.6061L35.0153 67.61L36.54 68.9044ZM15.2601 84.286L29.4441 82.2352L29.1579 80.2558L14.9739 82.3066L15.2601 84.286ZM29.4566 82.2333L30.0269 82.1435L29.7157 80.1678L29.1454 80.2577L29.4566 82.2333ZM30.8713 81.1557V78.7767H28.8713V81.1557H30.8713ZM29.8713 77.7767H15.1173V79.7767H29.8713V77.7767ZM14.1173 78.7767L14.117 83.2962L16.117 83.2964L16.1173 78.7768L14.1173 78.7767Z" fill="black" mask="url(#path-7-outside-1_175_38)"/>
<mask id="path-9-inside-2_175_38" fill="white">
<path d="M25.93 51.5238V45.8597C25.93 43.8909 27.5238 42.2972 29.4925 42.2972C31.4612 42.2972 33.055 43.891 33.055 45.8597V51.5238C35.8206 50.3363 37.8167 47.8597 38.3831 44.9066C38.9534 41.9574 38.0237 38.9144 35.8987 36.7855C35.0901 35.973 34.137 35.3246 33.0862 34.8714L32.1057 36.6605H32.1018C31.8635 37.0941 31.3205 37.2504 30.887 37.0121C30.4534 36.7738 30.2932 36.2308 30.5315 35.7973L31.344 34.3168C30.7346 34.1918 30.1174 34.1293 29.4924 34.1293C25.1838 34.1176 21.4651 37.1449 20.5979 41.3637C19.7346 45.5864 21.9651 49.8325 25.9299 51.5157L25.93 51.5238ZM34.3323 28.8828L37.3128 23.4609V23.4648C37.4729 23.1797 37.7737 23 38.0979 23H53.8359C54.3281 23 54.7305 23.4023 54.7305 23.8945C54.7305 24.3906 54.3281 24.7891 53.8359 24.7891H38.6289L35.9453 29.6719V29.6758C35.9102 29.6601 35.875 29.6406 35.8399 29.6172C35.5586 29.4609 35.2696 29.3086 34.9766 29.1719C34.7656 29.0664 34.5547 28.9687 34.3399 28.8828L34.3323 28.8828ZM12.9804 88.3977H31.4494V82.7883L29.1096 83.1282L14.1606 85.5266H14.1645C14.0981 85.5422 14.0278 85.55 13.9535 85.55C13.7738 85.55 13.5942 85.4953 13.4457 85.3899L12.9887 85.4563L12.9804 88.3977ZM20.3827 56.1637C20.4725 56.1481 20.5585 56.1286 20.6483 56.1169C20.8553 54.9802 21.6014 54.0114 22.6522 53.5231C23.703 53.0348 24.9256 53.0856 25.9295 53.6637V53.4371C20.4451 51.5113 17.4568 45.6012 19.1483 40.0421C20.8436 34.4835 26.6171 31.2452 32.2463 32.6983L34.2151 29.1124V29.1163C33.0393 28.7101 32.1213 27.7765 31.7463 26.589L31.633 26.2336H31.6369C31.5822 26.0812 31.4885 25.9445 31.3596 25.8468C31.2268 25.7531 31.0666 25.7062 30.9065 25.7062H28.0745C27.7424 25.7023 27.4455 25.9172 27.3518 26.2336L27.2346 26.589C26.8596 27.796 25.9221 28.7452 24.719 29.1359C24.4104 29.2414 24.1096 29.3547 23.8088 29.4797C23.5081 29.6047 23.2034 29.7414 22.9143 29.882H22.9182C22.3635 30.1555 21.7502 30.3 21.1291 30.3039C20.5041 30.2961 19.8947 30.1437 19.34 29.8586L19.0119 29.6906V29.6867C18.8674 29.6125 18.7033 29.5851 18.5432 29.6086C18.383 29.632 18.2346 29.7101 18.1213 29.8273L16.1213 31.8273C16.008 31.9445 15.9299 32.0891 15.9025 32.2492C15.8791 32.4094 15.9103 32.5695 15.9885 32.714L16.1564 33.0461C16.4377 33.6008 16.59 34.2141 16.5978 34.8352C16.6017 35.4563 16.4572 36.0696 16.176 36.6243C16.0353 36.9133 15.8986 37.2063 15.7736 37.511C15.6486 37.8157 15.5353 38.1165 15.4299 38.4251C15.2307 39.0149 14.8986 39.554 14.4572 39.9915C14.0158 40.429 13.4728 40.7532 12.8791 40.9368L12.5276 41.05C12.3752 41.1008 12.2385 41.1985 12.1408 41.3274C12.0471 41.4602 11.9963 41.6164 12.0002 41.7805V44.6086C11.9963 44.7727 12.0471 44.9289 12.1408 45.0617C12.2385 45.1906 12.3752 45.2883 12.5276 45.3391L12.8791 45.4523C13.4729 45.6359 14.0158 45.9602 14.4572 46.3977C14.8986 46.8352 15.2307 47.3742 15.4299 47.9641C15.5353 48.2805 15.6486 48.5812 15.7736 48.8781C15.8986 49.1789 16.0353 49.4758 16.176 49.7648C16.4572 50.3195 16.6017 50.9328 16.5978 51.5539C16.59 52.175 16.4377 52.7883 16.1564 53.343L15.9885 53.6751C15.9103 53.8196 15.8791 53.9798 15.9025 54.1399C15.9299 54.3001 16.008 54.4446 16.1213 54.5618L17.5901 56.0266V56.0227C17.9846 55.8781 18.4065 55.8039 18.8284 55.8039C19.3674 55.8 19.9026 55.925 20.387 56.1633L20.3827 56.1637ZM33.9527 33.3007C37.9957 35.1288 40.5191 39.2382 40.3238 43.6717C40.1245 48.1053 37.2457 51.9725 33.0543 53.4373V57.9021C33.4175 57.617 33.8238 57.3982 34.2613 57.2537C34.566 57.1482 34.8706 57.0349 35.1714 56.9099C35.4722 56.7849 35.7769 56.6482 36.0582 56.5076C36.6128 56.2342 37.2261 56.0896 37.8472 56.0857C38.4722 56.0935 39.0855 56.2459 39.6363 56.531L39.9684 56.699L39.9723 56.7029C40.1129 56.7771 40.277 56.8045 40.4371 56.781C40.6012 56.7537 40.7457 56.6795 40.859 56.5623L42.859 54.5623C42.9762 54.449 43.0543 54.3006 43.0817 54.1404C43.1051 53.9803 43.0777 53.8162 42.9996 53.6756L42.8317 53.3435C42.5426 52.7928 42.3942 52.1794 42.3902 51.5544C42.3902 50.9334 42.5348 50.32 42.8121 49.7653C42.9527 49.4763 43.0895 49.1833 43.2184 48.8786C43.3473 48.5739 43.4567 48.2732 43.5582 47.9646C43.9527 46.7654 44.902 45.8318 46.1051 45.449L46.4606 45.3357V45.3396C46.6129 45.2888 46.7496 45.1912 46.8434 45.0623C46.9371 44.9294 46.984 44.7693 46.9801 44.6091V41.7771C46.9801 41.6131 46.9332 41.4568 46.8395 41.324C46.7418 41.1951 46.609 41.0975 46.4528 41.0467L46.0973 40.9334C44.8942 40.5545 43.9489 39.6209 43.5504 38.4217C43.4449 38.1053 43.3395 37.8045 43.2106 37.5076C43.0817 37.2069 42.9449 36.91 42.8043 36.6209C42.527 36.0662 42.3824 35.4529 42.3863 34.8318C42.3863 34.2068 42.5387 33.5935 42.8238 33.0427L42.9918 32.7107L42.9957 32.7068C43.0738 32.5662 43.1012 32.4021 43.0738 32.2458C43.0465 32.0857 42.9723 31.9372 42.8551 31.824L40.8551 29.824C40.7418 29.7068 40.5934 29.6286 40.4332 29.6052C40.2731 29.5818 40.109 29.6091 39.9645 29.6833L39.6324 29.8513H39.6285C39.0777 30.1404 38.4644 30.2927 37.8394 30.2966C37.2183 30.2966 36.6089 30.1521 36.0503 29.8747C35.9956 29.8474 35.9331 29.82 35.8745 29.7888L33.9527 33.3007Z"/>
</mask>
<path d="M25.93 51.5238V45.8597C25.93 43.8909 27.5238 42.2972 29.4925 42.2972C31.4612 42.2972 33.055 43.891 33.055 45.8597V51.5238C35.8206 50.3363 37.8167 47.8597 38.3831 44.9066C38.9534 41.9574 38.0237 38.9144 35.8987 36.7855C35.0901 35.973 34.137 35.3246 33.0862 34.8714L32.1057 36.6605H32.1018C31.8635 37.0941 31.3205 37.2504 30.887 37.0121C30.4534 36.7738 30.2932 36.2308 30.5315 35.7973L31.344 34.3168C30.7346 34.1918 30.1174 34.1293 29.4924 34.1293C25.1838 34.1176 21.4651 37.1449 20.5979 41.3637C19.7346 45.5864 21.9651 49.8325 25.9299 51.5157L25.93 51.5238ZM34.3323 28.8828L37.3128 23.4609V23.4648C37.4729 23.1797 37.7737 23 38.0979 23H53.8359C54.3281 23 54.7305 23.4023 54.7305 23.8945C54.7305 24.3906 54.3281 24.7891 53.8359 24.7891H38.6289L35.9453 29.6719V29.6758C35.9102 29.6601 35.875 29.6406 35.8399 29.6172C35.5586 29.4609 35.2696 29.3086 34.9766 29.1719C34.7656 29.0664 34.5547 28.9687 34.3399 28.8828L34.3323 28.8828ZM12.9804 88.3977H31.4494V82.7883L29.1096 83.1282L14.1606 85.5266H14.1645C14.0981 85.5422 14.0278 85.55 13.9535 85.55C13.7738 85.55 13.5942 85.4953 13.4457 85.3899L12.9887 85.4563L12.9804 88.3977ZM20.3827 56.1637C20.4725 56.1481 20.5585 56.1286 20.6483 56.1169C20.8553 54.9802 21.6014 54.0114 22.6522 53.5231C23.703 53.0348 24.9256 53.0856 25.9295 53.6637V53.4371C20.4451 51.5113 17.4568 45.6012 19.1483 40.0421C20.8436 34.4835 26.6171 31.2452 32.2463 32.6983L34.2151 29.1124V29.1163C33.0393 28.7101 32.1213 27.7765 31.7463 26.589L31.633 26.2336H31.6369C31.5822 26.0812 31.4885 25.9445 31.3596 25.8468C31.2268 25.7531 31.0666 25.7062 30.9065 25.7062H28.0745C27.7424 25.7023 27.4455 25.9172 27.3518 26.2336L27.2346 26.589C26.8596 27.796 25.9221 28.7452 24.719 29.1359C24.4104 29.2414 24.1096 29.3547 23.8088 29.4797C23.5081 29.6047 23.2034 29.7414 22.9143 29.882H22.9182C22.3635 30.1555 21.7502 30.3 21.1291 30.3039C20.5041 30.2961 19.8947 30.1437 19.34 29.8586L19.0119 29.6906V29.6867C18.8674 29.6125 18.7033 29.5851 18.5432 29.6086C18.383 29.632 18.2346 29.7101 18.1213 29.8273L16.1213 31.8273C16.008 31.9445 15.9299 32.0891 15.9025 32.2492C15.8791 32.4094 15.9103 32.5695 15.9885 32.714L16.1564 33.0461C16.4377 33.6008 16.59 34.2141 16.5978 34.8352C16.6017 35.4563 16.4572 36.0696 16.176 36.6243C16.0353 36.9133 15.8986 37.2063 15.7736 37.511C15.6486 37.8157 15.5353 38.1165 15.4299 38.4251C15.2307 39.0149 14.8986 39.554 14.4572 39.9915C14.0158 40.429 13.4728 40.7532 12.8791 40.9368L12.5276 41.05C12.3752 41.1008 12.2385 41.1985 12.1408 41.3274C12.0471 41.4602 11.9963 41.6164 12.0002 41.7805V44.6086C11.9963 44.7727 12.0471 44.9289 12.1408 45.0617C12.2385 45.1906 12.3752 45.2883 12.5276 45.3391L12.8791 45.4523C13.4729 45.6359 14.0158 45.9602 14.4572 46.3977C14.8986 46.8352 15.2307 47.3742 15.4299 47.9641C15.5353 48.2805 15.6486 48.5812 15.7736 48.8781C15.8986 49.1789 16.0353 49.4758 16.176 49.7648C16.4572 50.3195 16.6017 50.9328 16.5978 51.5539C16.59 52.175 16.4377 52.7883 16.1564 53.343L15.9885 53.6751C15.9103 53.8196 15.8791 53.9798 15.9025 54.1399C15.9299 54.3001 16.008 54.4446 16.1213 54.5618L17.5901 56.0266V56.0227C17.9846 55.8781 18.4065 55.8039 18.8284 55.8039C19.3674 55.8 19.9026 55.925 20.387 56.1633L20.3827 56.1637ZM33.9527 33.3007C37.9957 35.1288 40.5191 39.2382 40.3238 43.6717C40.1245 48.1053 37.2457 51.9725 33.0543 53.4373V57.9021C33.4175 57.617 33.8238 57.3982 34.2613 57.2537C34.566 57.1482 34.8706 57.0349 35.1714 56.9099C35.4722 56.7849 35.7769 56.6482 36.0582 56.5076C36.6128 56.2342 37.2261 56.0896 37.8472 56.0857C38.4722 56.0935 39.0855 56.2459 39.6363 56.531L39.9684 56.699L39.9723 56.7029C40.1129 56.7771 40.277 56.8045 40.4371 56.781C40.6012 56.7537 40.7457 56.6795 40.859 56.5623L42.859 54.5623C42.9762 54.449 43.0543 54.3006 43.0817 54.1404C43.1051 53.9803 43.0777 53.8162 42.9996 53.6756L42.8317 53.3435C42.5426 52.7928 42.3942 52.1794 42.3902 51.5544C42.3902 50.9334 42.5348 50.32 42.8121 49.7653C42.9527 49.4763 43.0895 49.1833 43.2184 48.8786C43.3473 48.5739 43.4567 48.2732 43.5582 47.9646C43.9527 46.7654 44.902 45.8318 46.1051 45.449L46.4606 45.3357V45.3396C46.6129 45.2888 46.7496 45.1912 46.8434 45.0623C46.9371 44.9294 46.984 44.7693 46.9801 44.6091V41.7771C46.9801 41.6131 46.9332 41.4568 46.8395 41.324C46.7418 41.1951 46.609 41.0975 46.4528 41.0467L46.0973 40.9334C44.8942 40.5545 43.9489 39.6209 43.5504 38.4217C43.4449 38.1053 43.3395 37.8045 43.2106 37.5076C43.0817 37.2069 42.9449 36.91 42.8043 36.6209C42.527 36.0662 42.3824 35.4529 42.3863 34.8318C42.3863 34.2068 42.5387 33.5935 42.8238 33.0427L42.9918 32.7107L42.9957 32.7068C43.0738 32.5662 43.1012 32.4021 43.0738 32.2458C43.0465 32.0857 42.9723 31.9372 42.8551 31.824L40.8551 29.824C40.7418 29.7068 40.5934 29.6286 40.4332 29.6052C40.2731 29.5818 40.109 29.6091 39.9645 29.6833L39.6324 29.8513H39.6285C39.0777 30.1404 38.4644 30.2927 37.8394 30.2966C37.2183 30.2966 36.6089 30.1521 36.0503 29.8747C35.9956 29.8474 35.9331 29.82 35.8745 29.7888L33.9527 33.3007Z" fill="#5DB947" stroke="black" stroke-width="2" mask="url(#path-9-inside-2_175_38)"/>
</svg>
