<svg width="128" height="100" viewBox="0 0 128 100" fill="none" xmlns="http://www.w3.org/2000/svg">
<path d="M5.15408 49.847C5.25277 49.945 5.3866 50 5.52614 50C5.66569 50 5.79952 49.945 5.89821 49.847L8.50318 47.261L11.1081 49.847C11.2074 49.9422 11.3403 49.9949 11.4783 49.9937C11.6163 49.9925 11.7483 49.9375 11.8459 49.8407C11.9434 49.7438 11.9988 49.6128 12 49.4758C12.0012 49.3388 11.9481 49.2069 11.8523 49.1083L8.87524 46.153C8.77655 46.055 8.64272 46 8.50318 46C8.36363 46 8.2298 46.055 8.13111 46.153L5.15408 49.1083C5.05542 49.2063 5 49.3392 5 49.4777C5 49.6162 5.05542 49.7491 5.15408 49.847Z" fill="#5DB947"/>
<path d="M108.154 18.847C108.253 18.945 108.387 19 108.526 19C108.666 19 108.8 18.945 108.898 18.847L111.503 16.261L114.108 18.847C114.207 18.9422 114.34 18.9949 114.478 18.9937C114.616 18.9925 114.748 18.9375 114.846 18.8407C114.943 18.7438 114.999 18.6128 115 18.4758C115.001 18.3388 114.948 18.2069 114.852 18.1083L111.875 15.153C111.777 15.055 111.643 15 111.503 15C111.364 15 111.23 15.055 111.131 15.153L108.154 18.1083C108.055 18.2063 108 18.3392 108 18.4777C108 18.6162 108.055 18.7491 108.154 18.847Z" fill="#5DB947"/>
<path d="M117.154 45.847C117.253 45.945 117.387 46 117.526 46C117.666 46 117.8 45.945 117.898 45.847L120.503 43.261L123.108 45.847C123.207 45.9422 123.34 45.9949 123.478 45.9937C123.616 45.9925 123.748 45.9375 123.846 45.8407C123.943 45.7438 123.999 45.6128 124 45.4758C124.001 45.3388 123.948 45.2069 123.852 45.1083L120.875 42.153C120.777 42.055 120.643 42 120.503 42C120.364 42 120.23 42.055 120.131 42.153L117.154 45.1083C117.055 45.2063 117 45.3392 117 45.4777C117 45.6162 117.055 45.7491 117.154 45.847Z" fill="#5DB947"/>
<path d="M12.1541 8.84704C12.2528 8.94498 12.3866 9 12.5261 9C12.6657 9 12.7995 8.94498 12.8982 8.84704L15.5032 6.26103L18.1081 8.84704C18.2074 8.9422 18.3403 8.99486 18.4783 8.99367C18.6163 8.99248 18.7483 8.93754 18.8459 8.84068C18.9434 8.74381 18.9988 8.61278 19 8.4758C19.0012 8.33883 18.9481 8.20686 18.8523 8.10833L15.8752 5.15296C15.7766 5.05502 15.6427 5 15.5032 5C15.3636 5 15.2298 5.05502 15.1311 5.15296L12.1541 8.10833C12.0554 8.2063 12 8.33916 12 8.47768C12 8.61621 12.0554 8.74907 12.1541 8.84704Z" fill="#5DB947"/>
<path fill-rule="evenodd" clip-rule="evenodd" d="M66.2251 62.5619C70.2608 62.5619 73.5377 65.8425 73.5377 69.8708C73.5377 71.8831 72.713 73.7122 71.3934 75.0391C68.538 77.8945 63.9085 77.8981 61.0527 75.0427C58.2046 72.191 58.2046 67.5542 61.0527 64.7021C62.3833 63.3788 64.205 62.5615 66.2283 62.5615L66.2251 62.5619ZM34.4131 62.5619C38.4561 62.5619 41.7257 65.8425 41.7257 69.8708C41.7257 71.8831 40.9083 73.7159 39.5851 75.0391C36.7041 77.9238 31.9646 77.8578 29.2444 75.0391C26.389 72.1837 26.389 67.5542 29.2444 64.6984C30.5677 63.3752 32.3967 62.5579 34.4127 62.5579L34.4131 62.5619ZM98.0306 62.5619C102.074 62.5619 105.343 65.8425 105.343 69.8708C105.343 71.8831 104.526 73.7159 103.203 75.0391C100.322 77.9238 95.5822 77.8578 92.862 75.0391C90.0066 72.1837 90.0066 67.5542 92.862 64.6984C94.1852 63.3752 96.0143 62.5579 98.0302 62.5579L98.0306 62.5619ZM107.132 90.0782C107.861 90.0782 108.448 89.488 108.448 88.7586C108.448 85.8813 107.282 83.2789 105.402 81.3947C101.821 77.8136 96.1722 77.3225 92.0265 80.2474C94.0608 82.6116 95.1861 85.6173 95.1861 88.7622C95.1861 89.2241 95.1054 89.6676 94.9625 90.0817H107.132L107.132 90.0782ZM69.2975 90.0782C69.1545 89.664 69.0666 89.2204 69.0666 88.7586C69.0666 85.6137 70.1918 82.608 72.2262 80.2438C68.6341 77.7037 63.814 77.7037 60.2181 80.2438C62.2524 82.608 63.3704 85.6138 63.3704 88.7586C63.3704 89.2205 63.2897 89.664 63.1468 90.0782H69.2975ZM37.4854 90.0782C37.3425 89.664 37.2618 89.2204 37.2618 88.7586C37.2618 85.6137 38.3871 82.608 40.4215 80.2438C38.7244 79.0453 36.6497 78.3415 34.4138 78.3415C28.6591 78.3415 24 83.004 24 88.7591C24 89.4885 24.5865 90.0786 25.3159 90.0786H37.4891L37.4854 90.0782Z" fill="#C8F4BD"/>
<path fill-rule="evenodd" clip-rule="evenodd" d="M59.4674 90.3899H41.268C40.5422 90.3899 39.9521 89.7998 39.9521 89.0704C39.9521 83.3157 44.6183 78.6528 50.3726 78.6528C56.1273 78.6528 60.793 83.3153 60.793 89.0704C60.793 89.7998 60.1992 90.3899 59.4697 90.3899H59.4674ZM91.2794 90.3899H73.08C72.3506 90.3899 71.7568 89.7998 71.7568 89.0704C71.7568 83.3157 76.4229 78.6528 82.1772 78.6528C87.9319 78.6528 92.5976 83.3153 92.5976 89.0704C92.5976 89.7998 92.0038 90.3899 91.2817 90.3899H91.2794ZM82.1745 62.8737C86.2101 62.8737 89.487 66.1542 89.487 70.1826C89.487 72.1949 88.6697 74.0277 87.3465 75.3509C84.4581 78.2355 79.726 78.1696 77.0058 75.3509C74.1504 72.4954 74.1504 67.866 77.0058 65.0102C78.3291 63.6869 80.1508 62.8696 82.1741 62.8696L82.1745 62.8737ZM50.3662 62.8737C54.4018 62.8737 57.6788 66.1542 57.6788 70.1826C57.6788 72.1949 56.854 74.024 55.5344 75.3509C52.679 78.2063 48.0496 78.2099 45.1938 75.3545C42.3457 72.5028 42.3457 67.866 45.1938 65.0139C46.5171 63.6906 48.3461 62.8733 50.3694 62.8733L50.3662 62.8737Z" fill="#C8F4BD"/>
<path d="M34.4131 64.0001H34.176C32.3917 64.0611 30.7792 64.809 29.598 65.9902C29.598 65.9902 29.598 65.9902 29.598 65.9902M34.4131 64.0001L29.2444 75.9773C26.389 73.1219 26.389 68.4925 29.2444 65.6367L29.598 65.9902M34.4131 64.0001C38.1796 64.0001 41.2257 67.0565 41.2257 70.8091C41.2257 72.6837 40.4646 74.3907 39.2315 75.6238L39.2313 75.624C36.5451 78.3136 32.1274 78.2447 29.6042 75.6301L29.6043 75.63L29.598 75.6238C26.9379 72.9636 26.9378 68.6508 29.598 65.9902M34.4131 64.0001L29.598 65.9902M61.4056 65.9945C62.6463 64.7609 64.3416 64.0006 66.2251 63.9998V64.0001C69.9846 64.0001 73.0377 67.0568 73.0377 70.8091C73.0377 72.6819 72.2706 74.386 71.0394 75.6242C68.3789 78.2842 64.0663 78.2871 61.4063 75.6274C58.7537 72.9712 58.7534 68.6514 61.4056 65.9945ZM97.7936 64.0001H98.0306C101.797 64.0001 104.843 67.0565 104.843 70.8091C104.843 72.6837 104.082 74.3907 102.849 75.6238L102.849 75.624C100.163 78.3136 95.7449 78.2447 93.2217 75.6301L93.2218 75.63L93.2155 75.6238C90.5554 72.9636 90.5554 68.6507 93.2155 65.9902C94.3967 64.809 96.0092 64.0611 97.7936 64.0001ZM107.132 90.5164H106.616L106.616 90.52H95.6104C95.6597 90.2545 95.6861 89.9807 95.6861 89.7004C95.6861 86.6253 94.6495 83.6777 92.7645 81.2947C96.6618 78.8489 101.767 79.405 105.048 82.6865C106.839 84.4808 107.948 86.9576 107.948 89.6969C107.948 90.1519 107.583 90.5164 107.132 90.5164ZM34.4138 79.7798C36.3496 79.7798 38.1572 80.3334 39.6835 81.291C37.7984 83.6741 36.7618 86.6216 36.7618 89.6969C36.7618 89.9772 36.7882 90.2512 36.8376 90.5169H25.3159C24.8644 90.5169 24.5 90.1524 24.5 89.6973C24.5 84.2182 28.9355 79.7798 34.4138 79.7798ZM68.5666 89.6969C68.5666 89.9785 68.5953 90.2523 68.6463 90.5164H63.7947C63.844 90.2509 63.8704 89.9771 63.8704 89.6969C63.8704 86.6224 62.8407 83.6746 60.956 81.291C64.1716 79.2723 68.2762 79.2724 71.4884 81.2907C69.6032 83.6739 68.5666 86.6215 68.5666 89.6969Z" fill="white" stroke="black"/>
<path d="M81.9366 64.3121H82.1745C85.934 64.3121 88.987 67.3689 88.987 71.1211C88.987 72.9957 88.226 74.7027 86.9929 75.9358C84.2991 78.626 79.8885 78.5563 77.3656 75.9421L77.3657 75.9421L77.3594 75.9358C74.6993 73.2756 74.6992 68.9628 77.3594 66.3022C78.5408 65.1208 80.1466 64.3731 81.9366 64.3121ZM57.1788 71.1211C57.1788 72.9939 56.4117 74.698 55.1804 75.9362C52.52 78.5962 48.2077 78.5991 45.5476 75.9397C42.8945 73.2831 42.8944 68.9626 45.5476 66.3056C46.7799 65.0735 48.4818 64.3126 50.3662 64.3118L50.3662 64.3121C54.1257 64.3121 57.1788 67.3689 57.1788 71.1211ZM59.4674 90.8284H41.268C40.8193 90.8284 40.4521 90.463 40.4521 90.0089C40.4521 84.5305 44.8942 80.0913 50.3726 80.0913C55.8513 80.0913 60.293 84.5301 60.293 90.0089C60.293 90.4603 59.9249 90.8284 59.4697 90.8284H59.4674ZM91.2794 90.8284H73.08C72.6249 90.8284 72.2568 90.4603 72.2568 90.0089C72.2568 84.5305 76.6989 80.0913 82.1772 80.0913C87.656 80.0913 92.0976 84.5301 92.0976 90.0089C92.0976 90.4622 91.7277 90.8284 91.2817 90.8284H91.2794Z" fill="#5DB947" stroke="black"/>
<path fill-rule="evenodd" clip-rule="evenodd" d="M79.2746 36.7283C79.2746 38.6709 77.6875 40.2544 75.7448 40.2544H56.487C54.5444 40.2544 52.9572 38.6746 52.9572 36.7283V17.4667C52.9572 15.524 54.5444 13.9442 56.487 13.9442H60.5483V20.531C60.5483 22.6973 63.1361 23.8592 64.7526 22.4004L66.1161 21.1724L67.4796 22.4004C69.0998 23.8592 71.6839 22.6973 71.6839 20.531V13.9442H75.7452C77.6879 13.9442 79.275 15.524 79.275 17.4667L79.2746 36.7283ZM63.18 13.9441V20.2853L65.2327 18.4379C65.7202 17.987 66.4825 17.976 66.9884 18.4306L69.0484 20.2853V13.9441H63.1764L63.18 13.9441ZM62.0071 36.2882C62.7328 36.2882 63.3229 35.698 63.3229 34.9723C63.3229 34.2466 62.7291 33.6565 62.0071 33.6565H58.096C57.3703 33.6565 56.7875 34.2466 56.7875 34.9723C56.7875 35.6981 57.374 36.2882 58.096 36.2882H62.0071ZM64.4702 48.9888C64.4702 48.0798 65.207 47.3467 66.116 47.3467C67.025 47.3467 67.7618 48.0834 67.7618 48.9888V52.5516C67.7618 53.4606 67.025 54.1937 66.116 54.1937C65.207 54.1937 64.4702 53.457 64.4702 52.5516V48.9888ZM51.7987 10.4581C52.4365 11.0996 52.4365 12.1406 51.7987 12.7821C51.1536 13.4235 50.1126 13.4235 49.4748 12.7821L46.953 10.2639C46.3152 9.62244 46.3152 8.58143 46.953 7.93997C47.5908 7.29852 48.6391 7.29852 49.2769 7.93997L51.7987 10.4581ZM44.2223 25.453C45.1313 25.453 45.8681 26.1898 45.8681 27.0951C45.8681 28.0042 45.1313 28.7409 44.2223 28.7409H40.6594C39.7504 28.7409 39.0137 28.0042 39.0137 27.0951C39.0137 26.1861 39.7504 25.453 40.6594 25.453H44.2223ZM49.4749 41.4125C50.1127 40.7711 51.1537 40.7711 51.7988 41.4125C52.4366 42.054 52.4366 43.095 51.7988 43.7364L49.277 46.2546C48.6392 46.8961 47.5909 46.8961 46.9531 46.2546C46.3153 45.6132 46.3153 44.5721 46.9531 43.9307L49.4749 41.4125ZM82.7573 12.7777C82.1195 13.4192 81.0785 13.4192 80.4334 12.7777C79.7956 12.1363 79.7956 11.0953 80.4334 10.4538L82.9552 7.93565C83.593 7.2942 84.634 7.2942 85.2792 7.93565C85.917 8.5771 85.917 9.61812 85.2792 10.2596L82.7573 12.7777ZM67.7625 5.20495C67.7625 6.11398 67.0257 6.84707 66.1167 6.84707C65.2077 6.84707 64.4709 6.11031 64.4709 5.20495V1.64212C64.4709 0.733088 65.2077 0 66.1167 0C67.0257 0 67.7625 0.736757 67.7625 1.64212V5.20495ZM88.0102 28.737C87.1012 28.737 86.3645 28.0002 86.3645 27.0912C86.3645 26.1822 87.1012 25.4491 88.0102 25.4491H91.5731C92.4821 25.4491 93.2189 26.1858 93.2189 27.0912C93.2189 28.0002 92.4821 28.737 91.5731 28.737H88.0102ZM80.4338 43.7318C79.796 43.0904 79.796 42.0494 80.4338 41.4079C81.0789 40.7665 82.1199 40.7665 82.7577 41.4079L85.2795 43.9261C85.9173 44.5675 85.9173 45.6086 85.2795 46.25C84.6344 46.8915 83.5934 46.8915 82.9556 46.25L80.4338 43.7318Z" fill="#C8F4BD"/>
<path d="M61.0483 15.8209V15.3209H60.5483H56.487C54.2696 15.3209 52.4572 17.1232 52.4572 19.3434V38.605C52.4572 40.8285 54.2692 42.6311 56.487 42.6311H75.7448C77.963 42.6311 79.7746 40.8245 79.7746 38.605L79.775 19.3434C79.775 17.1232 77.9627 15.3209 75.7452 15.3209H71.6839H71.1839V15.8209V22.4077C71.1839 24.1429 69.1113 25.0734 67.8142 23.9055L66.4507 22.6776L66.1161 22.3763L65.7815 22.6776L64.418 23.9055L64.4176 23.9059C63.1245 25.0729 61.0483 24.1432 61.0483 22.4077V15.8209ZM62.68 22.162V23.2847L63.5145 22.5337L65.5671 20.6862L65.5672 20.6863L65.5721 20.6817C65.8701 20.4061 66.3405 20.3973 66.6542 20.6792L68.7138 22.5336L69.5484 23.285V22.162V15.8208V15.3208H69.0484H63.1764L63.1755 15.8208H62.68V22.162ZM52.1533 11.9823L52.152 11.981L49.6315 9.46413C49.6313 9.46395 49.6311 9.46376 49.6309 9.46358C48.7976 8.62608 47.4315 8.62626 46.5984 9.46414L46.5984 9.46414C45.7667 10.3006 45.7667 11.6567 46.5984 12.4931L46.5997 12.4944L49.1202 15.0113C49.1205 15.0115 49.1207 15.0118 49.1209 15.012C49.9554 15.8505 51.3125 15.8473 52.1513 15.0133L52.1533 15.0113C52.985 14.1748 52.985 12.8188 52.1533 11.9823ZM52.1534 42.9367L52.1514 42.9347C51.3126 42.1006 49.9555 42.0975 49.121 42.936C49.1208 42.9362 49.1206 42.9365 49.1203 42.9367L46.5998 45.4536L46.5985 45.4549C45.7668 46.2913 45.7668 47.6474 46.5985 48.4839L46.94 48.1443L46.5985 48.4839C47.4316 49.3217 48.7975 49.3219 49.6309 48.4846C49.6311 48.4843 49.6313 48.4841 49.6316 48.4839L52.1521 45.967L52.1534 45.9657C52.9851 45.1292 52.9851 43.7732 52.1534 42.9367ZM80.0788 15.007L80.0809 15.009C80.9198 15.8432 82.2772 15.8462 83.1116 15.0073C83.1117 15.0072 83.1118 15.0071 83.1119 15.007L85.6325 12.4901L85.6337 12.4888C86.4654 11.6523 86.4654 10.2963 85.6337 9.45981L85.6317 9.4578C84.793 8.62383 83.436 8.62065 82.6015 9.45896C82.6012 9.45925 82.601 9.45954 82.6007 9.45982L80.0801 11.9767L80.0788 11.978C79.2471 12.8145 79.2471 14.1705 80.0788 15.007ZM80.0792 45.9611L80.0805 45.9624L82.6011 48.4793C82.6013 48.4795 82.6016 48.4798 82.6019 48.4801C83.4364 49.3184 84.7934 49.3153 85.6321 48.4813L85.6341 48.4793C86.4658 47.6428 86.4658 46.2867 85.6341 45.4502L85.6328 45.449L83.1123 42.9321C83.1122 42.932 83.1121 42.9319 83.112 42.9318C82.2776 42.0929 80.9202 42.0959 80.0812 42.9301L80.0792 42.9321C79.2475 43.7686 79.2475 45.1246 80.0792 45.9611ZM62.8229 36.849C62.8229 37.2986 62.4567 37.6649 62.0071 37.6649H58.096C57.6528 37.6649 57.2875 37.3014 57.2875 36.849C57.2875 36.3958 57.65 36.0332 58.096 36.0332H62.0071C62.4539 36.0332 62.8229 36.4003 62.8229 36.849ZM66.116 48.7234C64.9323 48.7234 63.9702 49.6789 63.9702 50.8655V54.4283C63.9702 55.6105 64.9316 56.5704 66.116 56.5704C67.2997 56.5704 68.2618 55.6149 68.2618 54.4283V50.8655C68.2618 49.6833 67.3005 48.7234 66.116 48.7234ZM46.3681 28.9718C46.3681 27.7896 45.4067 26.8297 44.2223 26.8297H40.6594C39.4757 26.8297 38.5137 27.7852 38.5137 28.9718C38.5137 30.157 39.4743 31.1176 40.6594 31.1176H44.2223C45.4074 31.1176 46.3681 30.157 46.3681 28.9718ZM66.1167 9.22378C67.3004 9.22378 68.2625 8.26828 68.2625 7.08166V3.51883C68.2625 2.3366 67.3011 1.37671 66.1167 1.37671C64.933 1.37671 63.9709 2.3322 63.9709 3.51883V7.08166C63.9709 8.26389 64.9322 9.22378 66.1167 9.22378ZM85.8645 28.9679C85.8645 30.1531 86.8251 31.1137 88.0102 31.1137H91.5731C92.7582 31.1137 93.7189 30.1531 93.7189 28.9679C93.7189 27.7857 92.7575 26.8258 91.5731 26.8258H88.0102C86.8265 26.8258 85.8645 27.7813 85.8645 28.9679Z" fill="#5DB947" stroke="black"/>
</svg>
