<svg width="128" height="100" viewBox="0 0 128 100" fill="none" xmlns="http://www.w3.org/2000/svg">
<path d="M14.1541 71.847C14.2528 71.945 14.3866 72 14.5261 72C14.6657 72 14.7995 71.945 14.8982 71.847L17.5032 69.261L20.1081 71.847C20.2074 71.9422 20.3403 71.9949 20.4783 71.9937C20.6163 71.9925 20.7483 71.9375 20.8459 71.8407C20.9434 71.7438 20.9988 71.6128 21 71.4758C21.0012 71.3388 20.9481 71.2069 20.8523 71.1083L17.8752 68.153C17.7766 68.055 17.6427 68 17.5032 68C17.3636 68 17.2298 68.055 17.1311 68.153L14.1541 71.1083C14.0554 71.2063 14 71.3392 14 71.4777C14 71.6162 14.0554 71.7491 14.1541 71.847Z" fill="#5DB947"/>
<path d="M121.154 48.847C121.253 48.945 121.387 49 121.526 49C121.666 49 121.8 48.945 121.898 48.847L124.503 46.261L127.108 48.847C127.207 48.9422 127.34 48.9949 127.478 48.9937C127.616 48.9925 127.748 48.9375 127.846 48.8407C127.943 48.7438 127.999 48.6128 128 48.4758C128.001 48.3388 127.948 48.2069 127.852 48.1083L124.875 45.153C124.777 45.055 124.643 45 124.503 45C124.364 45 124.23 45.055 124.131 45.153L121.154 48.1083C121.055 48.2063 121 48.3392 121 48.4777C121 48.6162 121.055 48.7491 121.154 48.847Z" fill="#5DB947"/>
<path d="M111.154 81.847C111.253 81.945 111.387 82 111.526 82C111.666 82 111.8 81.945 111.898 81.847L114.503 79.261L117.108 81.847C117.207 81.9422 117.34 81.9949 117.478 81.9937C117.616 81.9925 117.748 81.9375 117.846 81.8407C117.943 81.7438 117.999 81.6128 118 81.4758C118.001 81.3388 117.948 81.2069 117.852 81.1083L114.875 78.153C114.777 78.055 114.643 78 114.503 78C114.364 78 114.23 78.055 114.131 78.153L111.154 81.1083C111.055 81.2063 111 81.3392 111 81.4777C111 81.6162 111.055 81.7491 111.154 81.847Z" fill="#5DB947"/>
<path d="M7.15408 23.847C7.25277 23.945 7.3866 24 7.52614 24C7.66569 24 7.79952 23.945 7.89821 23.847L10.5032 21.261L13.1081 23.847C13.2074 23.9422 13.3403 23.9949 13.4783 23.9937C13.6163 23.9925 13.7483 23.9375 13.8459 23.8407C13.9434 23.7438 13.9988 23.6128 14 23.4758C14.0012 23.3388 13.9481 23.2069 13.8523 23.1083L10.8752 20.153C10.7766 20.055 10.6427 20 10.5032 20C10.3636 20 10.2298 20.055 10.1311 20.153L7.15408 23.1083C7.05542 23.2063 7 23.3392 7 23.4777C7 23.6162 7.05542 23.7491 7.15408 23.847Z" fill="#5DB947"/>
<path fill-rule="evenodd" clip-rule="evenodd" d="M82.092 65.7074L86.37 70.0353L85.2459 71.645L80.7348 67.0813C80.9687 66.8621 81.1999 66.6392 81.4275 66.409C81.6551 66.1788 81.8753 65.9477 82.092 65.7074ZM80.7348 30.4823L85.2686 25.8956L86.3736 27.5245L82.0956 31.8525C81.879 31.6159 81.6587 31.382 81.4311 31.1518C81.2036 30.9215 80.976 30.6987 80.7385 30.4795L80.7348 30.4823ZM45.9162 31.8553L41.6382 27.5273L42.7514 25.9075L47.2725 30.4814C47.0385 30.7005 46.8073 30.9234 46.5798 31.1536C46.3522 31.3838 46.132 31.614 45.9153 31.8544L45.9162 31.8553ZM41.6382 70.0335L45.9162 65.7055C46.1329 65.9422 46.3531 66.1761 46.5807 66.4063C46.8083 66.6365 47.0358 66.8593 47.2734 67.0785L42.7769 71.6275L41.64 70.0335H41.6382ZM33.3643 77.2962V85.9972L40.8063 81.6527V72.9526L33.3643 77.2989V77.2962ZM37.2783 82.4695C37.0585 82.5983 36.7971 82.6335 36.5516 82.5674C36.3062 82.5013 36.0967 82.3392 35.9694 82.1168C35.842 81.8944 35.8072 81.63 35.8726 81.3817C35.938 81.1333 36.0982 80.9215 36.318 80.7926L38.5562 79.485C38.7764 79.3558 39.0382 79.3204 39.2842 79.3866C39.5302 79.4527 39.7401 79.615 39.8678 79.8377C39.9955 80.0604 40.0306 80.3254 39.9652 80.5742C39.8998 80.8231 39.7394 81.0355 39.5192 81.1646L37.281 82.4722L37.2783 82.4695ZM31.4419 85.9972V77.2989L24 72.9526V81.6555L31.4419 86V85.9972ZM24.9557 71.2748L32.4077 66.9247L39.856 71.2748L32.4059 75.6267L24.9557 71.2748ZM96.5581 77.2989V86L104 81.6555V72.9526L96.5581 77.2989ZM100.472 82.4722C100.252 82.6011 99.9908 82.6363 99.7453 82.5702C99.4999 82.504 99.2904 82.3419 99.1631 82.1196C99.0358 81.8972 99.0009 81.6328 99.0663 81.3844C99.1317 81.1361 99.2919 80.9242 99.5117 80.7954L101.75 79.4878C101.859 79.424 101.979 79.3825 102.104 79.3657C102.228 79.3489 102.355 79.3571 102.477 79.3899C102.598 79.4226 102.712 79.4793 102.812 79.5566C102.912 79.6339 102.996 79.7304 103.059 79.8405C103.122 79.9506 103.163 80.0722 103.179 80.1983C103.196 80.3244 103.188 80.4526 103.156 80.5756C103.123 80.6986 103.067 80.8139 102.991 80.9149C102.914 81.016 102.819 81.1009 102.71 81.1646L100.472 82.4722ZM94.6357 86V77.2989L87.1937 72.9526V81.6555L94.6357 86ZM88.1458 71.2748C90.6295 69.8235 93.1135 68.3735 95.5978 66.9247L103.052 71.2748L95.6023 75.6267L88.1522 71.2748H88.1458ZM96.5553 21.3752V30.0762L103.997 25.7317V17.0288L96.5553 21.3752ZM100.469 26.5485C100.249 26.6773 99.9881 26.7125 99.7426 26.6464C99.4972 26.5802 99.2877 26.4181 99.1604 26.1958C99.033 25.9734 98.9982 25.709 99.0636 25.4606C99.129 25.2123 99.2892 25.0004 99.509 24.8716L101.747 23.564C101.856 23.5002 101.976 23.4587 102.101 23.4419C102.226 23.4251 102.352 23.4333 102.474 23.4661C102.595 23.4988 102.709 23.5555 102.809 23.6328C102.909 23.7101 102.993 23.8066 103.056 23.9167C103.119 24.0268 103.16 24.1484 103.177 24.2745C103.193 24.4006 103.185 24.5289 103.153 24.6518C103.121 24.7748 103.065 24.8901 102.988 24.9911C102.912 25.0922 102.816 25.1771 102.707 25.2409L100.469 26.5485ZM94.6329 30.0762V21.3752L87.191 17.0288V25.7317L94.6329 30.0762ZM88.1504 15.3501C90.634 13.8988 93.118 12.4488 95.6023 11L103.052 15.3501L95.6023 19.702L88.1504 15.3501ZM33.368 21.3752V30.0762L40.8099 25.7317V17.0288L33.368 21.3752ZM37.2819 26.5485C37.0627 26.6678 36.8062 26.696 36.5667 26.6272C36.3272 26.5584 36.1237 26.398 35.9991 26.1799C35.8746 25.9619 35.8389 25.7033 35.8996 25.4591C35.9604 25.2148 36.1127 25.0041 36.3244 24.8716L38.5626 23.564C38.7816 23.4469 39.0371 23.4203 39.2751 23.4897C39.5132 23.5591 39.7154 23.7192 39.8393 23.9363C39.9631 24.1534 39.999 24.4106 39.9393 24.6539C39.8796 24.8971 39.729 25.1075 39.5192 25.2409L37.2819 26.5485ZM31.4456 30.0762V21.3752L24.0036 17.0288V25.7317L31.4456 30.0762ZM24.9557 15.3501L32.4077 11L39.8578 15.3501L32.4077 19.702L24.9557 15.3501Z" fill="#C8F4BD"/>
<path fill-rule="evenodd" clip-rule="evenodd" d="M64.9258 31.3185L78.3024 39.0431C78.4305 39.1152 78.537 39.22 78.6111 39.347C78.6852 39.4739 78.7241 39.6182 78.7239 39.7652V55.2332C78.7238 55.3928 78.6779 55.549 78.5916 55.6832C78.5053 55.8174 78.3821 55.9239 78.2369 55.9901C73.8149 58.546 69.3915 61.1016 64.9669 63.657C64.8295 63.7507 64.6671 63.8008 64.5009 63.8008C64.3346 63.8008 64.1722 63.7507 64.0349 63.657L50.6977 55.9522C50.5713 55.8797 50.4662 55.7752 50.3932 55.649C50.3201 55.5229 50.2817 55.3798 50.2818 55.234L50.2779 39.766C50.2779 39.6064 50.3238 39.4502 50.4102 39.316C50.4965 39.1818 50.6196 39.0753 50.7648 39.0091C55.2074 36.4438 59.6486 33.8789 64.0885 31.3146C64.2163 31.2404 64.3616 31.2018 64.5094 31.2026C64.6572 31.2034 64.802 31.2437 64.929 31.3193L64.9258 31.3185ZM78.2882 33.7113C75.5611 30.9842 72.0866 29.1271 68.304 28.3747C64.5214 27.6223 60.6006 28.0085 57.0375 29.4844C53.4744 30.9603 50.429 33.4597 48.2863 36.6664C46.1436 39.8732 45 43.6433 45 47.5C45 51.3567 46.1436 55.1268 48.2863 58.3336C50.429 61.5403 53.4744 64.0397 57.0375 65.5156C60.6006 66.9915 64.5214 67.3777 68.304 66.6253C72.0866 65.8729 75.5611 64.0158 78.2882 61.2887C80.0991 59.478 81.5355 57.3283 82.5155 54.9624C83.4956 52.5966 84 50.0608 84 47.5C84 44.9392 83.4956 42.4034 82.5155 40.0376C81.5355 37.6717 80.0991 35.522 78.2882 33.7113ZM70.675 50.7104L72.2131 49.8226V44.0055L70.675 44.8925V50.7096V50.7104ZM73.4087 51.0505L70.3088 52.8396C70.1837 52.9244 70.0378 52.9734 69.8869 52.9815C69.7359 52.9896 69.5856 52.9564 69.4522 52.8855C69.3187 52.8145 69.207 52.7086 69.1292 52.579C69.0515 52.4494 69.0105 52.301 69.0106 52.1499V45.8545L65.3338 47.9775V61.5278L77.0634 54.7574V41.2055L73.8775 43.0443V50.3048C73.8775 50.4611 73.8335 50.6143 73.7506 50.7468C73.6677 50.8794 73.5493 50.986 73.4087 51.0545V51.0505ZM61.3114 34.8351L73.0465 41.6103L76.2379 39.7676L64.5013 32.9932L61.3114 34.8351ZM71.3861 42.5692L59.651 35.7932C59.1372 36.0907 58.6203 36.3867 58.1081 36.6826L69.8432 43.4602L71.3861 42.5692ZM68.1852 44.419L56.4469 37.6415L52.7646 39.7676L64.5013 46.5435L68.1852 44.419ZM63.6687 61.5278V47.9775L51.9391 41.2055V54.7574L63.6687 61.5278Z" fill="#C8F4BD"/>
<mask id="path-7-outside-1_163_854" maskUnits="userSpaceOnUse" x="22" y="11.447" width="84" height="79" fill="black">
<rect fill="white" x="22" y="11.447" width="84" height="79"/>
<path fill-rule="evenodd" clip-rule="evenodd" d="M82.092 68.1544L86.37 72.4823L85.2459 74.092L80.7348 69.5283C80.9687 69.3091 81.1999 69.0863 81.4275 68.8561C81.6551 68.6258 81.8753 68.3947 82.092 68.1544ZM80.7348 32.9293L85.2686 28.3426L86.3736 29.9716L82.0956 34.2995C81.879 34.0629 81.6587 33.829 81.4311 33.5988C81.2036 33.3686 80.976 33.1457 80.7385 32.9266L80.7348 32.9293ZM45.9162 34.3023L41.6382 29.9743L42.7514 28.3546L47.2725 32.9284C47.0385 33.1476 46.8073 33.3704 46.5798 33.6006C46.3522 33.8308 46.132 34.061 45.9153 34.3014L45.9162 34.3023ZM41.6382 72.4805L45.9162 68.1525C46.1329 68.3892 46.3531 68.6231 46.5807 68.8533C46.8083 69.0835 47.0358 69.3064 47.2734 69.5255L42.7769 74.0745L41.64 72.4805H41.6382ZM33.3643 79.7432V88.4443L40.8063 84.0997V75.3996L33.3643 79.746V79.7432ZM37.2783 84.9165C37.0585 85.0453 36.7971 85.0806 36.5516 85.0144C36.3062 84.9483 36.0967 84.7862 35.9694 84.5638C35.842 84.3415 35.8072 84.077 35.8726 83.8287C35.938 83.5804 36.0982 83.3685 36.318 83.2396L38.5562 81.9321C38.7764 81.8029 39.0382 81.7674 39.2842 81.8336C39.5302 81.8997 39.7401 82.062 39.8678 82.2847C39.9955 82.5075 40.0306 82.7724 39.9652 83.0212C39.8998 83.2701 39.7394 83.4825 39.5192 83.6117L37.281 84.9193L37.2783 84.9165ZM31.4419 88.4443V79.746L24 75.3996V84.1025L31.4419 88.447V88.4443ZM24.9557 73.7218L32.4077 69.3717L39.856 73.7218L32.4059 78.0737L24.9557 73.7218ZM96.5581 79.746V88.447L104 84.1025V75.3996L96.5581 79.746ZM100.472 84.9193C100.252 85.0481 99.9908 85.0833 99.7453 85.0172C99.4999 84.951 99.2904 84.789 99.1631 84.5666C99.0358 84.3442 99.0009 84.0798 99.0663 83.8315C99.1317 83.5831 99.2919 83.3712 99.5117 83.2424L101.75 81.9348C101.859 81.871 101.979 81.8295 102.104 81.8127C102.228 81.7959 102.355 81.8042 102.477 81.8369C102.598 81.8697 102.712 81.9263 102.812 82.0036C102.912 82.0809 102.996 82.1774 103.059 82.2875C103.122 82.3976 103.163 82.5192 103.179 82.6453C103.196 82.7715 103.188 82.8997 103.156 83.0226C103.123 83.1456 103.067 83.2609 102.991 83.362C102.914 83.463 102.819 83.5479 102.71 83.6117L100.472 84.9193ZM94.6357 88.447V79.746L87.1937 75.3996V84.1025L94.6357 88.447ZM88.1458 73.7218C90.6295 72.2706 93.1135 70.8205 95.5978 69.3717L103.052 73.7218L95.6023 78.0737L88.1522 73.7218H88.1458ZM96.5553 23.8222V32.5232L103.997 28.1787V19.4758L96.5553 23.8222ZM100.469 28.9955C100.249 29.1243 99.9881 29.1595 99.7426 29.0934C99.4972 29.0272 99.2877 28.8652 99.1604 28.6428C99.033 28.4204 98.9982 28.156 99.0636 27.9077C99.129 27.6593 99.2892 27.4474 99.509 27.3186L101.747 26.011C101.856 25.9472 101.976 25.9058 102.101 25.889C102.226 25.8722 102.352 25.8804 102.474 25.9131C102.595 25.9459 102.709 26.0025 102.809 26.0798C102.909 26.1571 102.993 26.2536 103.056 26.3637C103.119 26.4738 103.16 26.5954 103.177 26.7215C103.193 26.8477 103.185 26.9759 103.153 27.0988C103.121 27.2218 103.065 27.3371 102.988 27.4382C102.912 27.5392 102.816 27.6241 102.707 27.6879L100.469 28.9955ZM94.6329 32.5232V23.8222L87.191 19.4758V28.1787L94.6329 32.5232ZM88.1504 17.7971C90.634 16.3458 93.118 14.8958 95.6023 13.447L103.052 17.7971L95.6023 22.149L88.1504 17.7971ZM33.368 23.8222V32.5232L40.8099 28.1787V19.4758L33.368 23.8222ZM37.2819 28.9955C37.0627 29.1148 36.8062 29.143 36.5667 29.0742C36.3272 29.0054 36.1237 28.845 35.9991 28.6269C35.8746 28.4089 35.8389 28.1503 35.8996 27.9061C35.9604 27.6619 36.1127 27.4511 36.3244 27.3186L38.5626 26.011C38.7816 25.8939 39.0371 25.8673 39.2751 25.9367C39.5132 26.0061 39.7154 26.1662 39.8393 26.3833C39.9631 26.6004 39.999 26.8576 39.9393 27.1009C39.8796 27.3442 39.729 27.5546 39.5192 27.6879L37.2819 28.9955ZM31.4456 32.5232V23.8222L24.0036 19.4758V28.1787L31.4456 32.5232ZM24.9557 17.7971L32.4077 13.447L39.8578 17.7971L32.4077 22.149L24.9557 17.7971Z"/>
</mask>
<path fill-rule="evenodd" clip-rule="evenodd" d="M82.092 68.1544L86.37 72.4823L85.2459 74.092L80.7348 69.5283C80.9687 69.3091 81.1999 69.0863 81.4275 68.8561C81.6551 68.6258 81.8753 68.3947 82.092 68.1544ZM80.7348 32.9293L85.2686 28.3426L86.3736 29.9716L82.0956 34.2995C81.879 34.0629 81.6587 33.829 81.4311 33.5988C81.2036 33.3686 80.976 33.1457 80.7385 32.9266L80.7348 32.9293ZM45.9162 34.3023L41.6382 29.9743L42.7514 28.3546L47.2725 32.9284C47.0385 33.1476 46.8073 33.3704 46.5798 33.6006C46.3522 33.8308 46.132 34.061 45.9153 34.3014L45.9162 34.3023ZM41.6382 72.4805L45.9162 68.1525C46.1329 68.3892 46.3531 68.6231 46.5807 68.8533C46.8083 69.0835 47.0358 69.3064 47.2734 69.5255L42.7769 74.0745L41.64 72.4805H41.6382ZM33.3643 79.7432V88.4443L40.8063 84.0997V75.3996L33.3643 79.746V79.7432ZM37.2783 84.9165C37.0585 85.0453 36.7971 85.0806 36.5516 85.0144C36.3062 84.9483 36.0967 84.7862 35.9694 84.5638C35.842 84.3415 35.8072 84.077 35.8726 83.8287C35.938 83.5804 36.0982 83.3685 36.318 83.2396L38.5562 81.9321C38.7764 81.8029 39.0382 81.7674 39.2842 81.8336C39.5302 81.8997 39.7401 82.062 39.8678 82.2847C39.9955 82.5075 40.0306 82.7724 39.9652 83.0212C39.8998 83.2701 39.7394 83.4825 39.5192 83.6117L37.281 84.9193L37.2783 84.9165ZM31.4419 88.4443V79.746L24 75.3996V84.1025L31.4419 88.447V88.4443ZM24.9557 73.7218L32.4077 69.3717L39.856 73.7218L32.4059 78.0737L24.9557 73.7218ZM96.5581 79.746V88.447L104 84.1025V75.3996L96.5581 79.746ZM100.472 84.9193C100.252 85.0481 99.9908 85.0833 99.7453 85.0172C99.4999 84.951 99.2904 84.789 99.1631 84.5666C99.0358 84.3442 99.0009 84.0798 99.0663 83.8315C99.1317 83.5831 99.2919 83.3712 99.5117 83.2424L101.75 81.9348C101.859 81.871 101.979 81.8295 102.104 81.8127C102.228 81.7959 102.355 81.8042 102.477 81.8369C102.598 81.8697 102.712 81.9263 102.812 82.0036C102.912 82.0809 102.996 82.1774 103.059 82.2875C103.122 82.3976 103.163 82.5192 103.179 82.6453C103.196 82.7715 103.188 82.8997 103.156 83.0226C103.123 83.1456 103.067 83.2609 102.991 83.362C102.914 83.463 102.819 83.5479 102.71 83.6117L100.472 84.9193ZM94.6357 88.447V79.746L87.1937 75.3996V84.1025L94.6357 88.447ZM88.1458 73.7218C90.6295 72.2706 93.1135 70.8205 95.5978 69.3717L103.052 73.7218L95.6023 78.0737L88.1522 73.7218H88.1458ZM96.5553 23.8222V32.5232L103.997 28.1787V19.4758L96.5553 23.8222ZM100.469 28.9955C100.249 29.1243 99.9881 29.1595 99.7426 29.0934C99.4972 29.0272 99.2877 28.8652 99.1604 28.6428C99.033 28.4204 98.9982 28.156 99.0636 27.9077C99.129 27.6593 99.2892 27.4474 99.509 27.3186L101.747 26.011C101.856 25.9472 101.976 25.9058 102.101 25.889C102.226 25.8722 102.352 25.8804 102.474 25.9131C102.595 25.9459 102.709 26.0025 102.809 26.0798C102.909 26.1571 102.993 26.2536 103.056 26.3637C103.119 26.4738 103.16 26.5954 103.177 26.7215C103.193 26.8477 103.185 26.9759 103.153 27.0988C103.121 27.2218 103.065 27.3371 102.988 27.4382C102.912 27.5392 102.816 27.6241 102.707 27.6879L100.469 28.9955ZM94.6329 32.5232V23.8222L87.191 19.4758V28.1787L94.6329 32.5232ZM88.1504 17.7971C90.634 16.3458 93.118 14.8958 95.6023 13.447L103.052 17.7971L95.6023 22.149L88.1504 17.7971ZM33.368 23.8222V32.5232L40.8099 28.1787V19.4758L33.368 23.8222ZM37.2819 28.9955C37.0627 29.1148 36.8062 29.143 36.5667 29.0742C36.3272 29.0054 36.1237 28.845 35.9991 28.6269C35.8746 28.4089 35.8389 28.1503 35.8996 27.9061C35.9604 27.6619 36.1127 27.4511 36.3244 27.3186L38.5626 26.011C38.7816 25.8939 39.0371 25.8673 39.2751 25.9367C39.5132 26.0061 39.7154 26.1662 39.8393 26.3833C39.9631 26.6004 39.999 26.8576 39.9393 27.1009C39.8796 27.3442 39.729 27.5546 39.5192 27.6879L37.2819 28.9955ZM31.4456 32.5232V23.8222L24.0036 19.4758V28.1787L31.4456 32.5232ZM24.9557 17.7971L32.4077 13.447L39.8578 17.7971L32.4077 22.149L24.9557 17.7971Z" fill="#5DB947"/>
<path fill-rule="evenodd" clip-rule="evenodd" d="M82.092 68.1544L86.37 72.4823L85.2459 74.092L80.7348 69.5283C80.9687 69.3091 81.1999 69.0863 81.4275 68.8561C81.6551 68.6258 81.8753 68.3947 82.092 68.1544ZM80.7348 32.9293L85.2686 28.3426L86.3736 29.9716L82.0956 34.2995C81.879 34.0629 81.6587 33.829 81.4311 33.5988C81.2036 33.3686 80.976 33.1457 80.7385 32.9266L80.7348 32.9293ZM45.9162 34.3023L41.6382 29.9743L42.7514 28.3546L47.2725 32.9284C47.0385 33.1476 46.8073 33.3704 46.5798 33.6006C46.3522 33.8308 46.132 34.061 45.9153 34.3014L45.9162 34.3023ZM41.6382 72.4805L45.9162 68.1525C46.1329 68.3892 46.3531 68.6231 46.5807 68.8533C46.8083 69.0835 47.0358 69.3064 47.2734 69.5255L42.7769 74.0745L41.64 72.4805H41.6382ZM33.3643 79.7432V88.4443L40.8063 84.0997V75.3996L33.3643 79.746V79.7432ZM37.2783 84.9165C37.0585 85.0453 36.7971 85.0806 36.5516 85.0144C36.3062 84.9483 36.0967 84.7862 35.9694 84.5638C35.842 84.3415 35.8072 84.077 35.8726 83.8287C35.938 83.5804 36.0982 83.3685 36.318 83.2396L38.5562 81.9321C38.7764 81.8029 39.0382 81.7674 39.2842 81.8336C39.5302 81.8997 39.7401 82.062 39.8678 82.2847C39.9955 82.5075 40.0306 82.7724 39.9652 83.0212C39.8998 83.2701 39.7394 83.4825 39.5192 83.6117L37.281 84.9193L37.2783 84.9165ZM31.4419 88.4443V79.746L24 75.3996V84.1025L31.4419 88.447V88.4443ZM24.9557 73.7218L32.4077 69.3717L39.856 73.7218L32.4059 78.0737L24.9557 73.7218ZM96.5581 79.746V88.447L104 84.1025V75.3996L96.5581 79.746ZM100.472 84.9193C100.252 85.0481 99.9908 85.0833 99.7453 85.0172C99.4999 84.951 99.2904 84.789 99.1631 84.5666C99.0358 84.3442 99.0009 84.0798 99.0663 83.8315C99.1317 83.5831 99.2919 83.3712 99.5117 83.2424L101.75 81.9348C101.859 81.871 101.979 81.8295 102.104 81.8127C102.228 81.7959 102.355 81.8042 102.477 81.8369C102.598 81.8697 102.712 81.9263 102.812 82.0036C102.912 82.0809 102.996 82.1774 103.059 82.2875C103.122 82.3976 103.163 82.5192 103.179 82.6453C103.196 82.7715 103.188 82.8997 103.156 83.0226C103.123 83.1456 103.067 83.2609 102.991 83.362C102.914 83.463 102.819 83.5479 102.71 83.6117L100.472 84.9193ZM94.6357 88.447V79.746L87.1937 75.3996V84.1025L94.6357 88.447ZM88.1458 73.7218C90.6295 72.2706 93.1135 70.8205 95.5978 69.3717L103.052 73.7218L95.6023 78.0737L88.1522 73.7218H88.1458ZM96.5553 23.8222V32.5232L103.997 28.1787V19.4758L96.5553 23.8222ZM100.469 28.9955C100.249 29.1243 99.9881 29.1595 99.7426 29.0934C99.4972 29.0272 99.2877 28.8652 99.1604 28.6428C99.033 28.4204 98.9982 28.156 99.0636 27.9077C99.129 27.6593 99.2892 27.4474 99.509 27.3186L101.747 26.011C101.856 25.9472 101.976 25.9058 102.101 25.889C102.226 25.8722 102.352 25.8804 102.474 25.9131C102.595 25.9459 102.709 26.0025 102.809 26.0798C102.909 26.1571 102.993 26.2536 103.056 26.3637C103.119 26.4738 103.16 26.5954 103.177 26.7215C103.193 26.8477 103.185 26.9759 103.153 27.0988C103.121 27.2218 103.065 27.3371 102.988 27.4382C102.912 27.5392 102.816 27.6241 102.707 27.6879L100.469 28.9955ZM94.6329 32.5232V23.8222L87.191 19.4758V28.1787L94.6329 32.5232ZM88.1504 17.7971C90.634 16.3458 93.118 14.8958 95.6023 13.447L103.052 17.7971L95.6023 22.149L88.1504 17.7971ZM33.368 23.8222V32.5232L40.8099 28.1787V19.4758L33.368 23.8222ZM37.2819 28.9955C37.0627 29.1148 36.8062 29.143 36.5667 29.0742C36.3272 29.0054 36.1237 28.845 35.9991 28.6269C35.8746 28.4089 35.8389 28.1503 35.8996 27.9061C35.9604 27.6619 36.1127 27.4511 36.3244 27.3186L38.5626 26.011C38.7816 25.8939 39.0371 25.8673 39.2751 25.9367C39.5132 26.0061 39.7154 26.1662 39.8393 26.3833C39.9631 26.6004 39.999 26.8576 39.9393 27.1009C39.8796 27.3442 39.729 27.5546 39.5192 27.6879L37.2819 28.9955ZM31.4456 32.5232V23.8222L24.0036 19.4758V28.1787L31.4456 32.5232ZM24.9557 17.7971L32.4077 13.447L39.8578 17.7971L32.4077 22.149L24.9557 17.7971Z" stroke="black" stroke-width="2" mask="url(#path-7-outside-1_163_854)"/>
<path d="M64.6732 33.749L64.6845 33.7301L64.6758 33.7515L78.0524 41.4761L78.0524 41.4761L78.0572 41.4788C78.1079 41.5073 78.15 41.5488 78.1793 41.599L78.6111 41.347L78.1793 41.599C78.2086 41.6492 78.224 41.7063 78.2239 41.7644V41.7652V57.2332C78.2239 57.2332 78.2239 57.2332 78.2239 57.2332C78.2238 57.2969 78.2055 57.3591 78.1711 57.4126L78.5916 57.6832L78.1711 57.4127C78.1367 57.4662 78.0876 57.5087 78.0296 57.5351L78.0076 57.5451L77.9867 57.5572C73.5647 60.113 69.1414 62.6687 64.7168 65.224L64.7006 65.2334L64.6852 65.2439C64.6308 65.281 64.5666 65.3008 64.5009 65.3008C64.4351 65.3008 64.3709 65.281 64.3166 65.2439L64.3011 65.2334L64.285 65.2241L50.9478 57.5192L50.9463 57.5183C50.8963 57.4897 50.8547 57.4483 50.8259 57.3985C50.797 57.3486 50.7818 57.292 50.7818 57.2343V57.2339L50.7779 41.766C50.7779 41.766 50.7779 41.766 50.7779 41.766C50.7779 41.7023 50.7962 41.6401 50.8306 41.5866L50.4102 41.316L50.8306 41.5866C50.8651 41.533 50.9142 41.4905 50.9721 41.4641L50.994 41.4542L51.0148 41.4421C55.4574 38.8768 59.8987 36.3119 64.3386 33.7476L64.3394 33.7471C64.3902 33.7176 64.4479 33.7023 64.5066 33.7026C64.5653 33.7029 64.6228 33.7189 64.6732 33.749ZM70.175 52.7104V53.5763L70.925 53.1434L72.4631 52.2556L72.7131 52.1113V51.8226V46.0055V45.1399L71.9633 45.5724L70.4252 46.4594L70.175 46.6037V46.8925V52.7096V52.7104ZM73.2598 52.5592L73.1588 52.6175L70.0589 54.4066L70.0433 54.4156L70.0285 54.4256C69.9786 54.4594 69.9204 54.479 69.8602 54.4822C69.7999 54.4854 69.74 54.4722 69.6868 54.4439L69.4522 54.8855L69.6868 54.4439C69.6335 54.4156 69.589 54.3734 69.5579 54.3217C69.5269 54.27 69.5106 54.2108 69.5106 54.1505V54.1499V47.8545V46.9885L68.7606 47.4215L65.0838 49.5444L64.8338 49.6888V49.9775V63.5278V64.3937L65.5838 63.9608L77.3134 57.1904L77.5634 57.0461V56.7574V43.2055V42.3396L76.8135 42.7724L73.6276 44.6112L73.3775 44.7555V45.0443V52.3047C73.3775 52.3047 73.3775 52.3047 73.3775 52.3048C73.3775 52.3674 73.3599 52.4287 73.3267 52.4818C73.3084 52.511 73.2858 52.5371 73.2598 52.5592ZM61.0614 36.4022L60.3115 36.8352L61.0614 37.2682L72.7965 44.0433L73.0465 44.1877L73.2965 44.0433L76.488 42.2006L77.238 41.7675L76.4879 41.3345L64.7512 34.5601L64.5012 34.4158L64.2512 34.5602L61.0614 36.4022ZM71.6361 45.0022L72.3859 44.5691L71.6361 44.1362L59.901 37.3602L59.6506 37.2156L59.4004 37.3605C59.115 37.5258 58.8309 37.6893 58.5465 37.853C58.3175 37.9847 58.0883 38.1166 57.858 38.2497L57.1085 38.6827L57.8581 39.1156L69.5932 45.8931L69.8432 46.0376L70.0933 45.8931L71.6361 45.0022ZM68.4349 46.8522L69.1856 46.4193L68.4352 45.986L56.6969 39.2085L56.4469 39.0641L56.1969 39.2085L52.5146 41.3345L51.7646 41.7676L52.5146 42.2006L64.2513 48.9765L64.5011 49.1208L64.751 48.9766L68.4349 46.8522ZM63.4187 63.9608L64.1687 64.3937V63.5278V49.9775V49.6888L63.9187 49.5444L52.1891 42.7724L51.4391 42.3394V43.2055V56.7574V57.0461L51.6891 57.1904L63.4187 63.9608ZM78.6418 35.3578C75.8447 32.5608 72.2811 30.656 68.4015 29.8843C64.5219 29.1126 60.5007 29.5087 56.8462 31.0224C53.1917 32.5362 50.0682 35.0996 47.8706 38.3886C45.673 41.6776 44.5 45.5444 44.5 49.5C44.5 53.4556 45.673 57.3224 47.8706 60.6114C50.0682 63.9004 53.1917 66.4638 56.8462 67.9776C60.5007 69.4913 64.5219 69.8874 68.4015 69.1157C72.2811 68.344 75.8447 66.4392 78.6418 63.6422C80.4991 61.7851 81.9723 59.5803 82.9775 57.1538C83.9826 54.7273 84.5 52.1265 84.5 49.5C84.5 46.8735 83.9826 44.2727 82.9775 41.8462C81.9723 39.4197 80.4991 37.2149 78.6418 35.3578Z" fill="white" stroke="black"/>
</svg>
