<svg width="128" height="100" viewBox="0 0 128 100" fill="none" xmlns="http://www.w3.org/2000/svg">
<path d="M9.15408 31.847C9.25277 31.945 9.3866 32 9.52614 32C9.66569 32 9.79952 31.945 9.89821 31.847L12.5032 29.261L15.1081 31.847C15.2074 31.9422 15.3403 31.9949 15.4783 31.9937C15.6163 31.9925 15.7483 31.9375 15.8459 31.8407C15.9434 31.7438 15.9988 31.6128 16 31.4758C16.0012 31.3388 15.9481 31.2069 15.8523 31.1083L12.8752 28.153C12.7766 28.055 12.6427 28 12.5032 28C12.3636 28 12.2298 28.055 12.1311 28.153L9.15408 31.1083C9.05542 31.2063 9 31.3392 9 31.4777C9 31.6162 9.05542 31.7491 9.15408 31.847Z" fill="#5DB947"/>
<path d="M13.1541 68.847C13.2528 68.945 13.3866 69 13.5261 69C13.6657 69 13.7995 68.945 13.8982 68.847L16.5032 66.261L19.1081 68.847C19.2074 68.9422 19.3403 68.9949 19.4783 68.9937C19.6163 68.9925 19.7483 68.9375 19.8459 68.8407C19.9434 68.7438 19.9988 68.6128 20 68.4758C20.0012 68.3388 19.9481 68.2069 19.8523 68.1083L16.8752 65.153C16.7766 65.055 16.6427 65 16.5032 65C16.3636 65 16.2298 65.055 16.1311 65.153L13.1541 68.1083C13.0554 68.2063 13 68.3392 13 68.4777C13 68.6162 13.0554 68.7491 13.1541 68.847Z" fill="#5DB947"/>
<path d="M109.154 49.847C109.253 49.945 109.387 50 109.526 50C109.666 50 109.8 49.945 109.898 49.847L112.503 47.261L115.108 49.847C115.207 49.9422 115.34 49.9949 115.478 49.9937C115.616 49.9925 115.748 49.9375 115.846 49.8407C115.943 49.7438 115.999 49.6128 116 49.4758C116.001 49.3388 115.948 49.2069 115.852 49.1083L112.875 46.153C112.777 46.055 112.643 46 112.503 46C112.364 46 112.23 46.055 112.131 46.153L109.154 49.1083C109.055 49.2063 109 49.3392 109 49.4777C109 49.6162 109.055 49.7491 109.154 49.847Z" fill="#5DB947"/>
<path fill-rule="evenodd" clip-rule="evenodd" d="M94.1498 86.2065C95.7976 85.0932 97.1705 83.6185 98.1643 81.8942C99.158 80.1699 99.7464 78.2415 99.8848 76.2554H88.4148L94.1498 86.2065ZM85.9564 62.3009V75.3794V75.4228V75.4441V75.4613V75.4826C85.958 75.4966 85.9605 75.5106 85.9637 75.5243L85.9686 75.5456L85.9735 75.5644V75.5694L85.9776 75.5857V75.5915L85.9825 75.607L85.9882 75.6267V75.6348V75.6422L85.9956 75.6602L86.0013 75.675V75.6799L86.0079 75.6946L86.0144 75.7077V75.7143L86.0209 75.7274V75.7315L86.0299 75.7486L86.0397 75.7667L86.0446 75.774L86.0487 75.7814L86.07 75.8141L92.5536 87.0629C90.7676 87.9388 88.8048 88.3928 86.8162 88.3899H86.6691C86.5943 88.3706 86.5174 88.3607 86.4402 88.3605H85.9237C82.6227 88.1346 79.5304 86.662 77.2716 84.2403C75.0128 81.8186 73.7559 78.6283 73.7549 75.3141C73.7538 71.9998 75.0088 68.8088 77.266 66.3856C79.5233 63.9625 82.6147 62.488 85.9155 62.26L85.9564 62.3009ZM96.0909 66.1013C93.8638 63.8642 90.9013 62.5137 87.7544 62.3009V74.451H99.8848C99.6724 71.2989 98.3242 68.3322 96.0909 66.1013Z" fill="#C8F4BD"/>
<path fill-rule="evenodd" clip-rule="evenodd" d="M33.1362 76.8792C32.8733 76.8792 32.6212 76.7747 32.4353 76.5889C32.2495 76.403 32.145 76.1509 32.145 75.888C32.145 75.6252 32.2495 75.3731 32.4353 75.1872C32.6212 75.0013 32.8733 74.8969 33.1362 74.8969H64.1047C64.3675 74.8969 64.6196 75.0013 64.8055 75.1872C64.9914 75.3731 65.0958 75.6252 65.0958 75.888C65.0958 76.1509 64.9914 76.403 64.8055 76.5889C64.6196 76.7747 64.3675 76.8792 64.1047 76.8792H33.1362ZM33.1362 69.6222C32.8733 69.6222 32.6212 69.5178 32.4353 69.3319C32.2495 69.1461 32.145 68.894 32.145 68.6311C32.145 68.3682 32.2495 68.1161 32.4353 67.9303C32.6212 67.7444 32.8733 67.64 33.1362 67.64H66.2554C66.5183 67.64 66.7704 67.7444 66.9563 67.9303C67.1422 68.1161 67.2466 68.3682 67.2466 68.6311C67.2466 68.894 67.1422 69.1461 66.9563 69.3319C66.7704 69.5178 66.5183 69.6222 66.2554 69.6222H33.1362ZM33.1362 62.3653C32.8733 62.3653 32.6212 62.2609 32.4353 62.075C32.2495 61.8892 32.145 61.6371 32.145 61.3742C32.145 61.1113 32.2495 60.8592 32.4353 60.6734C32.6212 60.4875 32.8733 60.3831 33.1362 60.3831H71.3814C71.6443 60.3831 71.8964 60.4875 72.0823 60.6734C72.2681 60.8592 72.3726 61.1113 72.3726 61.3742C72.3726 61.6371 72.2681 61.8892 72.0823 62.075C71.8964 62.2609 71.6443 62.3653 71.3814 62.3653H33.1362ZM35.5573 11.4038L27.4038 19.5591H35.5573V11.4038ZM79.7394 89.0945C76.6263 87.3848 74.1529 84.71 72.6918 81.4727C71.2308 78.2355 70.8612 74.6111 71.6386 71.1456C72.4161 67.68 74.2986 64.561 77.0025 62.2581C79.7064 59.9552 83.0854 58.5933 86.6305 58.3774V10H37.5431V20.5502C37.5431 20.8131 37.4387 21.0652 37.2528 21.251C37.067 21.4369 36.8149 21.5413 36.552 21.5413H26V89.099C64.7814 89.099 51.6921 89.099 56.108 89.099C75.9974 89.099 72.942 89.0936 79.7394 89.0927V89.0945ZM79.4907 52.6549H72.4816C72.2187 52.6549 71.9666 52.5505 71.7807 52.3646C71.5949 52.1787 71.4904 51.9266 71.4904 51.6638V15.4332C71.4904 15.1704 71.5949 14.9183 71.7807 14.7324C71.9666 14.5465 72.2187 14.4421 72.4816 14.4421H79.4907C79.7536 14.4421 80.0057 14.5465 80.1916 14.7324C80.3774 14.9183 80.4819 15.1704 80.4819 15.4332V51.662C80.4819 51.9248 80.3774 52.1769 80.1916 52.3628C80.0057 52.5487 79.7536 52.6531 79.4907 52.6531V52.6549ZM73.4718 50.6726V16.4334H78.4996V50.6726H73.4718ZM66.3762 52.6549H59.3671C59.2369 52.6549 59.108 52.6293 58.9878 52.5794C58.8675 52.5296 58.7582 52.4566 58.6662 52.3646C58.5742 52.2726 58.5012 52.1633 58.4514 52.0431C58.4016 51.9228 58.3759 51.7939 58.3759 51.6638V23.3542C58.3759 23.2241 58.4016 23.0952 58.4514 22.9749C58.5012 22.8547 58.5742 22.7454 58.6662 22.6534C58.7582 22.5613 58.8675 22.4883 58.9878 22.4385C59.108 22.3887 59.2369 22.3631 59.3671 22.3631H66.3789C66.6418 22.3631 66.8939 22.4675 67.0797 22.6534C67.2656 22.8392 67.37 23.0913 67.37 23.3542V51.662C67.37 51.9248 67.2656 52.1769 67.0797 52.3628C66.8939 52.5487 66.6418 52.6531 66.3789 52.6531L66.3762 52.6549ZM60.3573 50.6726V24.3471H65.3832V50.669L60.3573 50.6726ZM53.2607 52.6549H46.2516C45.9887 52.6549 45.7367 52.5505 45.5508 52.3646C45.3649 52.1787 45.2605 51.9266 45.2605 51.6638V31.6644C45.2605 31.4016 45.3649 31.1495 45.5508 30.9636C45.7367 30.7777 45.9887 30.6733 46.2516 30.6733H53.2635C53.5263 30.6733 53.7784 30.7777 53.9643 30.9636C54.1502 31.1495 54.2546 31.4016 54.2546 31.6644V51.662C54.2546 51.9248 54.1502 52.1769 53.9643 52.3628C53.7784 52.5487 53.5263 52.6531 53.2635 52.6531L53.2607 52.6549ZM47.2418 50.6726V32.6574H52.2705V50.669L47.2418 50.6726ZM40.1453 52.6549H33.1362C32.8733 52.6549 32.6212 52.5505 32.4353 52.3646C32.2495 52.1787 32.145 51.9266 32.145 51.6638V38.4186C32.145 38.1557 32.2495 37.9036 32.4353 37.7177C32.6212 37.5319 32.8733 37.4274 33.1362 37.4274H40.148C40.4109 37.4274 40.663 37.5319 40.8489 37.7177C41.0347 37.9036 41.1392 38.1557 41.1392 38.4186V51.6638C41.1392 51.9266 41.0347 52.1787 40.8489 52.3646C40.663 52.5505 40.4109 52.6549 40.148 52.6549H40.1453ZM34.1264 50.6726V39.4097H39.1533V50.6726H34.1264ZM33.1353 84.1388C32.8724 84.1388 32.6203 84.0344 32.4344 83.8485C32.2486 83.6626 32.1441 83.4105 32.1441 83.1477C32.1441 82.8848 32.2486 82.6327 32.4344 82.4468C32.6203 82.2609 32.8724 82.1565 33.1353 82.1565H62.4495C62.7123 82.1565 62.9645 82.2609 63.1503 82.4468C63.3362 82.6327 63.4406 82.8848 63.4406 83.1477C63.4406 83.4105 63.3362 83.6626 63.1503 83.8485C62.9645 84.0344 62.7123 84.1388 62.4495 84.1388H33.1353Z" fill="#C8F4BD"/>
<mask id="path-6-inside-1_163_689" fill="white">
<path fill-rule="evenodd" clip-rule="evenodd" d="M33.1362 77.7803C32.8733 77.7803 32.6212 77.6759 32.4353 77.49C32.2495 77.3041 32.145 77.052 32.145 76.7892C32.145 76.5263 32.2495 76.2742 32.4353 76.0883C32.6212 75.9024 32.8733 75.798 33.1362 75.798H64.1047C64.3675 75.798 64.6196 75.9024 64.8055 76.0883C64.9914 76.2742 65.0958 76.5263 65.0958 76.7892C65.0958 77.052 64.9914 77.3041 64.8055 77.49C64.6196 77.6759 64.3675 77.7803 64.1047 77.7803H33.1362ZM33.1362 70.5234C32.8733 70.5234 32.6212 70.4189 32.4353 70.2331C32.2495 70.0472 32.145 69.7951 32.145 69.5322C32.145 69.2694 32.2495 69.0173 32.4353 68.8314C32.6212 68.6455 32.8733 68.5411 33.1362 68.5411H66.2554C66.5183 68.5411 66.7704 68.6455 66.9563 68.8314C67.1422 69.0173 67.2466 69.2694 67.2466 69.5322C67.2466 69.7951 67.1422 70.0472 66.9563 70.2331C66.7704 70.4189 66.5183 70.5234 66.2554 70.5234H33.1362ZM33.1362 63.2664C32.8733 63.2664 32.6212 63.162 32.4353 62.9762C32.2495 62.7903 32.145 62.5382 32.145 62.2753C32.145 62.0125 32.2495 61.7603 32.4353 61.5745C32.6212 61.3886 32.8733 61.2842 33.1362 61.2842H71.3814C71.6443 61.2842 71.8964 61.3886 72.0823 61.5745C72.2681 61.7603 72.3726 62.0125 72.3726 62.2753C72.3726 62.5382 72.2681 62.7903 72.0823 62.9762C71.8964 63.162 71.6443 63.2664 71.3814 63.2664H33.1362ZM35.5573 12.3049L27.4038 20.4602H35.5573V12.3049ZM79.7394 89.9956C76.6263 88.286 74.1529 85.6111 72.6918 82.3738C71.2308 79.1366 70.8612 75.5123 71.6386 72.0467C72.4161 68.5812 74.2986 65.4621 77.0025 63.1592C79.7064 60.8563 83.0854 59.4944 86.6305 59.2785V10.9011H37.5431V21.4513C37.5431 21.7142 37.4387 21.9663 37.2528 22.1522C37.067 22.338 36.8149 22.4425 36.552 22.4425H26V90.0001C64.7814 90.0001 51.6921 90.0001 56.108 90.0001C75.9974 90.0001 72.942 89.9947 79.7394 89.9938V89.9956ZM79.4907 53.556H72.4816C72.2187 53.556 71.9666 53.4516 71.7807 53.2657C71.5949 53.0798 71.4904 52.8278 71.4904 52.5649V16.3344C71.4904 16.0715 71.5949 15.8194 71.7807 15.6335C71.9666 15.4476 72.2187 15.3432 72.4816 15.3432H79.4907C79.7536 15.3432 80.0057 15.4476 80.1916 15.6335C80.3774 15.8194 80.4819 16.0715 80.4819 16.3344V52.5631C80.4819 52.8259 80.3774 53.078 80.1916 53.2639C80.0057 53.4498 79.7536 53.5542 79.4907 53.5542V53.556ZM73.4718 51.5737V17.3345H78.4996V51.5737H73.4718ZM66.3762 53.556H59.3671C59.2369 53.556 59.108 53.5304 58.9878 53.4806C58.8675 53.4308 58.7582 53.3578 58.6662 53.2657C58.5742 53.1737 58.5012 53.0644 58.4514 52.9442C58.4016 52.8239 58.3759 52.695 58.3759 52.5649V24.2553C58.3759 24.1252 58.4016 23.9963 58.4514 23.876C58.5012 23.7558 58.5742 23.6465 58.6662 23.5545C58.7582 23.4625 58.8675 23.3895 58.9878 23.3396C59.108 23.2898 59.2369 23.2642 59.3671 23.2642H66.3789C66.6418 23.2642 66.8939 23.3686 67.0797 23.5545C67.2656 23.7404 67.37 23.9925 67.37 24.2553V52.5631C67.37 52.8259 67.2656 53.078 67.0797 53.2639C66.8939 53.4498 66.6418 53.5542 66.3789 53.5542L66.3762 53.556ZM60.3573 51.5737V25.2483H65.3832V51.5701L60.3573 51.5737ZM53.2607 53.556H46.2516C45.9887 53.556 45.7367 53.4516 45.5508 53.2657C45.3649 53.0798 45.2605 52.8278 45.2605 52.5649V32.5656C45.2605 32.3027 45.3649 32.0506 45.5508 31.8647C45.7367 31.6788 45.9887 31.5744 46.2516 31.5744H53.2635C53.5263 31.5744 53.7784 31.6788 53.9643 31.8647C54.1502 32.0506 54.2546 32.3027 54.2546 32.5656V52.5631C54.2546 52.8259 54.1502 53.078 53.9643 53.2639C53.7784 53.4498 53.5263 53.5542 53.2635 53.5542L53.2607 53.556ZM47.2418 51.5737V33.5585H52.2705V51.5701L47.2418 51.5737ZM40.1453 53.556H33.1362C32.8733 53.556 32.6212 53.4516 32.4353 53.2657C32.2495 53.0798 32.145 52.8278 32.145 52.5649V39.3197C32.145 39.0568 32.2495 38.8047 32.4353 38.6189C32.6212 38.433 32.8733 38.3286 33.1362 38.3286H40.148C40.4109 38.3286 40.663 38.433 40.8489 38.6189C41.0347 38.8047 41.1392 39.0568 41.1392 39.3197V52.5649C41.1392 52.8278 41.0347 53.0798 40.8489 53.2657C40.663 53.4516 40.4109 53.556 40.148 53.556H40.1453ZM34.1264 51.5737V40.3108H39.1533V51.5737H34.1264ZM33.1353 85.0399C32.8724 85.0399 32.6203 84.9355 32.4344 84.7496C32.2486 84.5637 32.1441 84.3116 32.1441 84.0488C32.1441 83.7859 32.2486 83.5338 32.4344 83.3479C32.6203 83.1621 32.8724 83.0576 33.1353 83.0576H62.4495C62.7123 83.0576 62.9645 83.1621 63.1503 83.3479C63.3362 83.5338 63.4406 83.7859 63.4406 84.0488C63.4406 84.3116 63.3362 84.5637 63.1503 84.7496C62.9645 84.9355 62.7123 85.0399 62.4495 85.0399H33.1353Z"/>
</mask>
<path fill-rule="evenodd" clip-rule="evenodd" d="M33.1362 77.7803C32.8733 77.7803 32.6212 77.6759 32.4353 77.49C32.2495 77.3041 32.145 77.052 32.145 76.7892C32.145 76.5263 32.2495 76.2742 32.4353 76.0883C32.6212 75.9024 32.8733 75.798 33.1362 75.798H64.1047C64.3675 75.798 64.6196 75.9024 64.8055 76.0883C64.9914 76.2742 65.0958 76.5263 65.0958 76.7892C65.0958 77.052 64.9914 77.3041 64.8055 77.49C64.6196 77.6759 64.3675 77.7803 64.1047 77.7803H33.1362ZM33.1362 70.5234C32.8733 70.5234 32.6212 70.4189 32.4353 70.2331C32.2495 70.0472 32.145 69.7951 32.145 69.5322C32.145 69.2694 32.2495 69.0173 32.4353 68.8314C32.6212 68.6455 32.8733 68.5411 33.1362 68.5411H66.2554C66.5183 68.5411 66.7704 68.6455 66.9563 68.8314C67.1422 69.0173 67.2466 69.2694 67.2466 69.5322C67.2466 69.7951 67.1422 70.0472 66.9563 70.2331C66.7704 70.4189 66.5183 70.5234 66.2554 70.5234H33.1362ZM33.1362 63.2664C32.8733 63.2664 32.6212 63.162 32.4353 62.9762C32.2495 62.7903 32.145 62.5382 32.145 62.2753C32.145 62.0125 32.2495 61.7603 32.4353 61.5745C32.6212 61.3886 32.8733 61.2842 33.1362 61.2842H71.3814C71.6443 61.2842 71.8964 61.3886 72.0823 61.5745C72.2681 61.7603 72.3726 62.0125 72.3726 62.2753C72.3726 62.5382 72.2681 62.7903 72.0823 62.9762C71.8964 63.162 71.6443 63.2664 71.3814 63.2664H33.1362ZM35.5573 12.3049L27.4038 20.4602H35.5573V12.3049ZM79.7394 89.9956C76.6263 88.286 74.1529 85.6111 72.6918 82.3738C71.2308 79.1366 70.8612 75.5123 71.6386 72.0467C72.4161 68.5812 74.2986 65.4621 77.0025 63.1592C79.7064 60.8563 83.0854 59.4944 86.6305 59.2785V10.9011H37.5431V21.4513C37.5431 21.7142 37.4387 21.9663 37.2528 22.1522C37.067 22.338 36.8149 22.4425 36.552 22.4425H26V90.0001C64.7814 90.0001 51.6921 90.0001 56.108 90.0001C75.9974 90.0001 72.942 89.9947 79.7394 89.9938V89.9956ZM79.4907 53.556H72.4816C72.2187 53.556 71.9666 53.4516 71.7807 53.2657C71.5949 53.0798 71.4904 52.8278 71.4904 52.5649V16.3344C71.4904 16.0715 71.5949 15.8194 71.7807 15.6335C71.9666 15.4476 72.2187 15.3432 72.4816 15.3432H79.4907C79.7536 15.3432 80.0057 15.4476 80.1916 15.6335C80.3774 15.8194 80.4819 16.0715 80.4819 16.3344V52.5631C80.4819 52.8259 80.3774 53.078 80.1916 53.2639C80.0057 53.4498 79.7536 53.5542 79.4907 53.5542V53.556ZM73.4718 51.5737V17.3345H78.4996V51.5737H73.4718ZM66.3762 53.556H59.3671C59.2369 53.556 59.108 53.5304 58.9878 53.4806C58.8675 53.4308 58.7582 53.3578 58.6662 53.2657C58.5742 53.1737 58.5012 53.0644 58.4514 52.9442C58.4016 52.8239 58.3759 52.695 58.3759 52.5649V24.2553C58.3759 24.1252 58.4016 23.9963 58.4514 23.876C58.5012 23.7558 58.5742 23.6465 58.6662 23.5545C58.7582 23.4625 58.8675 23.3895 58.9878 23.3396C59.108 23.2898 59.2369 23.2642 59.3671 23.2642H66.3789C66.6418 23.2642 66.8939 23.3686 67.0797 23.5545C67.2656 23.7404 67.37 23.9925 67.37 24.2553V52.5631C67.37 52.8259 67.2656 53.078 67.0797 53.2639C66.8939 53.4498 66.6418 53.5542 66.3789 53.5542L66.3762 53.556ZM60.3573 51.5737V25.2483H65.3832V51.5701L60.3573 51.5737ZM53.2607 53.556H46.2516C45.9887 53.556 45.7367 53.4516 45.5508 53.2657C45.3649 53.0798 45.2605 52.8278 45.2605 52.5649V32.5656C45.2605 32.3027 45.3649 32.0506 45.5508 31.8647C45.7367 31.6788 45.9887 31.5744 46.2516 31.5744H53.2635C53.5263 31.5744 53.7784 31.6788 53.9643 31.8647C54.1502 32.0506 54.2546 32.3027 54.2546 32.5656V52.5631C54.2546 52.8259 54.1502 53.078 53.9643 53.2639C53.7784 53.4498 53.5263 53.5542 53.2635 53.5542L53.2607 53.556ZM47.2418 51.5737V33.5585H52.2705V51.5701L47.2418 51.5737ZM40.1453 53.556H33.1362C32.8733 53.556 32.6212 53.4516 32.4353 53.2657C32.2495 53.0798 32.145 52.8278 32.145 52.5649V39.3197C32.145 39.0568 32.2495 38.8047 32.4353 38.6189C32.6212 38.433 32.8733 38.3286 33.1362 38.3286H40.148C40.4109 38.3286 40.663 38.433 40.8489 38.6189C41.0347 38.8047 41.1392 39.0568 41.1392 39.3197V52.5649C41.1392 52.8278 41.0347 53.0798 40.8489 53.2657C40.663 53.4516 40.4109 53.556 40.148 53.556H40.1453ZM34.1264 51.5737V40.3108H39.1533V51.5737H34.1264ZM33.1353 85.0399C32.8724 85.0399 32.6203 84.9355 32.4344 84.7496C32.2486 84.5637 32.1441 84.3116 32.1441 84.0488C32.1441 83.7859 32.2486 83.5338 32.4344 83.3479C32.6203 83.1621 32.8724 83.0576 33.1353 83.0576H62.4495C62.7123 83.0576 62.9645 83.1621 63.1503 83.3479C63.3362 83.5338 63.4406 83.7859 63.4406 84.0488C63.4406 84.3116 63.3362 84.5637 63.1503 84.7496C62.9645 84.9355 62.7123 85.0399 62.4495 85.0399H33.1353Z" fill="white"/>
<path d="M86.6494 75.8692H86.1494V75.9308L86.1644 75.9906L86.6494 75.8692ZM86.6539 75.8872H87.1539V75.8256L87.139 75.7658L86.6539 75.8872ZM86.1494 75.8638V75.8692H87.1494V75.8638H86.1494ZM86.1644 75.9906L86.1689 76.0086L87.139 75.7658L87.1345 75.7478L86.1644 75.9906ZM86.1539 75.8872V75.8935H87.1539V75.8872H86.1539ZM86.1656 75.9323V75.9413H87.1656V75.9323H86.1656ZM86.1656 75.9413V75.9494H87.1656V75.9413H86.1656ZM33.1362 77.7803V76.7803V77.7803ZM33.1362 75.798V76.798V75.798ZM64.1047 77.7803V76.7803V77.7803ZM33.1362 70.5234V69.5234V70.5234ZM33.1362 68.5411V69.5411V68.5411ZM66.2554 70.5234V69.5234V70.5234ZM35.5573 12.3049H36.5573V9.89034L34.8501 11.5979L35.5573 12.3049ZM27.4038 20.4602L26.6966 19.7532L24.99 21.4602H27.4038V20.4602ZM35.5573 20.4602V21.4602H36.5573V20.4602H35.5573ZM79.7394 89.9956L79.258 90.8721L80.7394 91.6856V89.9956H79.7394ZM86.6305 59.2785L86.6913 60.2766L87.6305 60.2194V59.2785H86.6305ZM86.6305 10.9011H87.6305V9.90112H86.6305V10.9011ZM37.5431 10.9011V9.90112H36.5431V10.9011H37.5431ZM37.5431 21.4513H38.5431H37.5431ZM36.552 22.4425V23.4425V22.4425ZM26 22.4425V21.4425H25V22.4425H26ZM26 90.0001H25V91.0001H26V90.0001ZM79.7394 89.9938H80.7394V88.9937L79.7393 88.9938L79.7394 89.9938ZM79.4907 53.556V54.556H80.4907V53.556H79.4907ZM72.4816 53.556V52.556V53.556ZM79.4907 15.3432V14.3432V15.3432ZM80.4819 16.3344H79.4819H80.4819ZM80.4819 52.5631H79.4819H80.4819ZM79.4907 53.5542V52.5542H78.4907V53.5542H79.4907ZM73.4718 51.5737H72.4718V52.5737H73.4718V51.5737ZM73.4718 17.3345V16.3345H72.4718V17.3345H73.4718ZM78.4996 17.3345H79.4996V16.3345H78.4996V17.3345ZM78.4996 51.5737V52.5737H79.4996V51.5737H78.4996ZM66.3762 53.556V54.556H66.679L66.9309 54.3881L66.3762 53.556ZM59.3671 53.556V52.556V53.556ZM66.3789 23.2642V22.2642V23.2642ZM67.37 52.5631H66.37H67.37ZM66.3789 53.5542V52.5542H66.0761L65.8242 52.7222L66.3789 53.5542ZM60.3573 51.5737H59.3573V52.5745L60.358 52.5737L60.3573 51.5737ZM60.3573 25.2483V24.2483H59.3573V25.2483H60.3573ZM65.3832 25.2483H66.3832V24.2483H65.3832V25.2483ZM65.3832 51.5701L65.384 52.5701L66.3832 52.5694V51.5701H65.3832ZM53.2607 53.556V54.556H53.5635L53.8155 54.3881L53.2607 53.556ZM46.2516 53.556V52.556V53.556ZM45.2605 32.5656H44.2605H45.2605ZM53.2635 31.5744V30.5744V31.5744ZM53.2635 53.5542V52.5542H52.9607L52.7088 52.7222L53.2635 53.5542ZM47.2418 51.5737H46.2418V52.5745L47.2426 52.5737L47.2418 51.5737ZM47.2418 33.5585V32.5585H46.2418V33.5585H47.2418ZM52.2705 33.5585H53.2705V32.5585H52.2705V33.5585ZM52.2705 51.5701L52.2712 52.5701L53.2705 52.5694V51.5701H52.2705ZM33.1362 53.556V52.556V53.556ZM32.145 39.3197H33.145H32.145ZM40.148 38.3286V37.3286V38.3286ZM34.1264 51.5737H33.1264V52.5737H34.1264V51.5737ZM34.1264 40.3108V39.3108H33.1264V40.3108H34.1264ZM39.1533 40.3108H40.1533V39.3108H39.1533V40.3108ZM39.1533 51.5737V52.5737H40.1533V51.5737H39.1533ZM33.1353 85.0399V84.0399V85.0399ZM33.1353 83.0576V84.0576V83.0576ZM62.4495 85.0399V84.0399V85.0399ZM33.1362 76.7803C33.1385 76.7803 33.1408 76.7812 33.1424 76.7829L31.7282 78.1971C32.1016 78.5705 32.6081 78.7803 33.1362 78.7803V76.7803ZM33.1424 76.7829C33.1441 76.7845 33.145 76.7868 33.145 76.7892H31.145C31.145 77.3172 31.3548 77.8237 31.7282 78.1971L33.1424 76.7829ZM33.145 76.7892C33.145 76.7915 33.1441 76.7937 33.1424 76.7954L31.7282 75.3812C31.3548 75.7546 31.145 76.2611 31.145 76.7892H33.145ZM33.1424 76.7954C33.1408 76.7971 33.1385 76.798 33.1362 76.798V74.798C32.6081 74.798 32.1016 75.0078 31.7282 75.3812L33.1424 76.7954ZM33.1362 76.798H64.1047V74.798H33.1362V76.798ZM64.1047 76.798C64.1023 76.798 64.1001 76.7971 64.0984 76.7954L65.5126 75.3812C65.1392 75.0078 64.6328 74.798 64.1047 74.798V76.798ZM64.0984 76.7954C64.0967 76.7937 64.0958 76.7915 64.0958 76.7892H66.0958C66.0958 76.2611 65.886 75.7546 65.5126 75.3812L64.0984 76.7954ZM64.0958 76.7892C64.0958 76.7868 64.0967 76.7845 64.0984 76.7829L65.5126 78.1971C65.886 77.8237 66.0958 77.3172 66.0958 76.7892H64.0958ZM64.0984 76.7829C64.1001 76.7812 64.1023 76.7803 64.1047 76.7803V78.7803C64.6328 78.7803 65.1392 78.5705 65.5126 78.1971L64.0984 76.7829ZM64.1047 76.7803H33.1362V78.7803H64.1047V76.7803ZM33.1362 69.5234C33.1385 69.5234 33.1408 69.5243 33.1424 69.526L31.7282 70.9402C32.1016 71.3136 32.6081 71.5234 33.1362 71.5234V69.5234ZM33.1424 69.526C33.1441 69.5276 33.145 69.5299 33.145 69.5322H31.145C31.145 70.0603 31.3548 70.5668 31.7282 70.9402L33.1424 69.526ZM33.145 69.5322C33.145 69.5346 33.1441 69.5368 33.1424 69.5385L31.7282 68.1243C31.3548 68.4977 31.145 69.0042 31.145 69.5322H33.145ZM33.1424 69.5385C33.1408 69.5402 33.1385 69.5411 33.1362 69.5411V67.5411C32.6081 67.5411 32.1016 67.7509 31.7282 68.1243L33.1424 69.5385ZM33.1362 69.5411H66.2554V67.5411H33.1362V69.5411ZM66.2554 69.5411C66.2531 69.5411 66.2508 69.5402 66.2492 69.5385L67.6634 68.1243C67.29 67.7509 66.7835 67.5411 66.2554 67.5411V69.5411ZM66.2492 69.5385C66.2475 69.5368 66.2466 69.5346 66.2466 69.5322H68.2466C68.2466 69.0042 68.0368 68.4977 67.6634 68.1243L66.2492 69.5385ZM66.2466 69.5322C66.2466 69.5299 66.2475 69.5276 66.2492 69.526L67.6634 70.9402C68.0368 70.5668 68.2466 70.0603 68.2466 69.5322H66.2466ZM66.2492 69.526C66.2508 69.5243 66.2531 69.5234 66.2554 69.5234V71.5234C66.7835 71.5234 67.29 71.3136 67.6634 70.9402L66.2492 69.526ZM66.2554 69.5234H33.1362V71.5234H66.2554V69.5234ZM33.1362 62.2664C33.1385 62.2664 33.1408 62.2674 33.1424 62.269L31.7282 63.6833C32.1016 64.0567 32.6081 64.2664 33.1362 64.2664V62.2664ZM33.1424 62.269C33.1441 62.2707 33.145 62.273 33.145 62.2753H31.145C31.145 62.8034 31.3548 63.3099 31.7282 63.6833L33.1424 62.269ZM33.145 62.2753C33.145 62.2777 33.1441 62.2799 33.1424 62.2816L31.7282 60.8674C31.3548 61.2408 31.145 61.7472 31.145 62.2753H33.145ZM33.1424 62.2816C33.1408 62.2832 33.1385 62.2842 33.1362 62.2842V60.2842C32.6081 60.2842 32.1016 60.494 31.7282 60.8674L33.1424 62.2816ZM33.1362 62.2842H71.3814V60.2842H33.1362V62.2842ZM71.3814 62.2842C71.3791 62.2842 71.3768 62.2832 71.3752 62.2816L72.7894 60.8674C72.416 60.494 71.9095 60.2842 71.3814 60.2842V62.2842ZM71.3752 62.2816C71.3735 62.2799 71.3726 62.2777 71.3726 62.2753H73.3726C73.3726 61.7472 73.1628 61.2408 72.7894 60.8674L71.3752 62.2816ZM71.3726 62.2753C71.3726 62.273 71.3735 62.2707 71.3752 62.269L72.7894 63.6833C73.1628 63.3098 73.3726 62.8034 73.3726 62.2753H71.3726ZM71.3752 62.269C71.3768 62.2674 71.3791 62.2664 71.3814 62.2664V64.2664C71.9095 64.2664 72.416 64.0567 72.7894 63.6833L71.3752 62.269ZM71.3814 62.2664H33.1362V64.2664H71.3814V62.2664ZM34.8501 11.5979L26.6966 19.7532L28.111 21.1672L36.2644 13.012L34.8501 11.5979ZM27.4038 21.4602H35.5573V19.4602H27.4038V21.4602ZM36.5573 20.4602V12.3049H34.5573V20.4602H36.5573ZM80.2208 89.1191C77.2976 87.5138 74.9752 85.0022 73.6033 81.9625L71.7804 82.7852C73.3306 86.22 75.9549 89.0582 79.258 90.8721L80.2208 89.1191ZM73.6033 81.9625C72.2314 78.9228 71.8844 75.5197 72.6144 72.2656L70.6629 71.8278C69.838 75.5049 70.2302 79.3504 71.7804 82.7852L73.6033 81.9625ZM72.6144 72.2656C73.3444 69.0116 75.112 66.0828 77.6509 63.9205L76.3541 62.3979C73.4851 64.8413 71.4878 68.1508 70.6629 71.8278L72.6144 72.2656ZM77.6509 63.9205C80.1898 61.7582 83.3625 60.4794 86.6913 60.2766L86.5697 58.2803C82.8082 58.5094 79.223 59.9545 76.3541 62.3979L77.6509 63.9205ZM87.6305 59.2785V10.9011H85.6305V59.2785H87.6305ZM86.6305 9.90112H37.5431V11.9011H86.6305V9.90112ZM36.5431 10.9011V21.4513H38.5431V10.9011H36.5431ZM36.5431 21.4513C36.5431 21.449 36.5441 21.4467 36.5457 21.4451L37.9599 22.8593C38.3334 22.4859 38.5431 21.9794 38.5431 21.4513H36.5431ZM36.5457 21.4451C36.5474 21.4434 36.5496 21.4425 36.552 21.4425V23.4425C37.0801 23.4425 37.5865 23.2327 37.9599 22.8593L36.5457 21.4451ZM36.552 21.4425H26V23.4425H36.552V21.4425ZM25 22.4425V90.0001H27V22.4425H25ZM26 91.0001C26.0757 91.0001 26.1513 91.0001 26.2266 91.0001C26.302 91.0001 26.3771 91.0001 26.4521 91.0001C26.5271 91.0001 26.6018 91.0001 26.6764 91.0001C26.7509 91.0001 26.8253 91.0001 26.8995 91.0001C26.9736 91.0001 27.0476 91.0001 27.1214 91.0001C27.1952 91.0001 27.2688 91.0001 27.3421 91.0001C27.4155 91.0001 27.4887 91.0001 27.5617 91.0001C27.6347 91.0001 27.7075 91.0001 27.7801 91.0001C27.8528 91.0001 27.9252 91.0001 27.9974 91.0001C28.0696 91.0001 28.1417 91.0001 28.2135 91.0001C28.2853 91.0001 28.357 91.0001 28.4284 91.0001C28.4999 91.0001 28.5712 91.0001 28.6422 91.0001C28.7133 91.0001 28.7842 91.0001 28.8549 91.0001C28.9256 91.0001 28.996 91.0001 29.0664 91.0001C29.1367 91.0001 29.2068 91.0001 29.2767 91.0001C29.3466 91.0001 29.4164 91.0001 29.4859 91.0001C29.5554 91.0001 29.6248 91.0001 29.694 91.0001C29.7631 91.0001 29.8321 91.0001 29.9009 91.0001C29.9697 91.0001 30.0383 91.0001 30.1067 91.0001C30.1751 91.0001 30.2433 91.0001 30.3114 91.0001C30.3794 91.0001 30.4473 91.0001 30.5149 91.0001C30.5826 91.0001 30.6501 91.0001 30.7174 91.0001C30.7846 91.0001 30.8517 91.0001 30.9187 91.0001C30.9856 91.0001 31.0523 91.0001 31.1189 91.0001C31.1854 91.0001 31.2518 91.0001 31.3179 91.0001C31.3841 91.0001 31.4501 91.0001 31.5159 91.0001C31.5817 91.0001 31.6473 91.0001 31.7128 91.0001C31.7782 91.0001 31.8435 91.0001 31.9085 91.0001C31.9736 91.0001 32.0385 91.0001 32.1032 91.0001C32.1679 91.0001 32.2324 91.0001 32.2967 91.0001C32.3611 91.0001 32.4252 91.0001 32.4892 91.0001C32.5532 91.0001 32.617 91.0001 32.6806 91.0001C32.7442 91.0001 32.8076 91.0001 32.8709 91.0001C32.9341 91.0001 32.9972 91.0001 33.0601 91.0001C33.123 91.0001 33.1857 91.0001 33.2482 91.0001C33.3107 91.0001 33.3731 91.0001 33.4352 91.0001C33.4974 91.0001 33.5594 91.0001 33.6212 91.0001C33.683 91.0001 33.7446 91.0001 33.8061 91.0001C33.8676 91.0001 33.9288 91.0001 33.9899 91.0001C34.051 91.0001 34.1119 91.0001 34.1727 91.0001C34.2334 91.0001 34.294 91.0001 34.3544 91.0001C34.4148 91.0001 34.475 91.0001 34.535 91.0001C34.595 91.0001 34.6549 91.0001 34.7146 91.0001C34.7743 91.0001 34.8338 91.0001 34.8931 91.0001C34.9524 91.0001 35.0116 91.0001 35.0706 91.0001C35.1296 91.0001 35.1884 91.0001 35.247 91.0001C35.3056 91.0001 35.3641 91.0001 35.4224 91.0001C35.4807 91.0001 35.5388 91.0001 35.5967 91.0001C35.6547 91.0001 35.7124 91.0001 35.77 91.0001C35.8276 91.0001 35.8851 91.0001 35.9423 91.0001C35.9996 91.0001 36.0566 91.0001 36.1135 91.0001C36.1704 91.0001 36.2272 91.0001 36.2837 91.0001C36.3403 91.0001 36.3967 91.0001 36.4529 91.0001C36.5091 91.0001 36.5652 91.0001 36.6211 91.0001C36.677 91.0001 36.7327 91.0001 36.7882 91.0001C36.8438 91.0001 36.8991 91.0001 36.9543 91.0001C37.0095 91.0001 37.0646 91.0001 37.1194 91.0001C37.1743 91.0001 37.229 91.0001 37.2835 91.0001C37.3381 91.0001 37.3924 91.0001 37.4466 91.0001C37.5008 91.0001 37.5549 91.0001 37.6087 91.0001C37.6626 91.0001 37.7163 91.0001 37.7698 91.0001C37.8233 91.0001 37.8767 91.0001 37.9299 91.0001C37.9831 91.0001 38.0361 91.0001 38.089 91.0001C38.1418 91.0001 38.1945 91.0001 38.2471 91.0001C38.2996 91.0001 38.352 91.0001 38.4042 91.0001C38.4564 91.0001 38.5084 91.0001 38.5603 91.0001C38.6122 91.0001 38.6639 91.0001 38.7154 91.0001C38.767 91.0001 38.8184 91.0001 38.8696 91.0001C38.9208 91.0001 38.9719 91.0001 39.0228 91.0001C39.0737 91.0001 39.1244 91.0001 39.175 91.0001C39.2256 91.0001 39.276 91.0001 39.3263 91.0001C39.3765 91.0001 39.4266 91.0001 39.4765 91.0001C39.5265 91.0001 39.5762 91.0001 39.6258 91.0001C39.6754 91.0001 39.7249 91.0001 39.7742 91.0001C39.8235 91.0001 39.8726 91.0001 39.9216 91.0001C39.9706 91.0001 40.0194 91.0001 40.068 91.0001C40.1167 91.0001 40.1652 91.0001 40.2135 91.0001C40.2618 91.0001 40.31 91.0001 40.358 91.0001C40.4061 91.0001 40.4539 91.0001 40.5016 91.0001C40.5493 91.0001 40.5969 91.0001 40.6443 91.0001C40.6917 91.0001 40.7389 91.0001 40.786 91.0001C40.8331 91.0001 40.88 91.0001 40.9268 91.0001C40.9735 91.0001 41.0202 91.0001 41.0666 91.0001C41.1131 91.0001 41.1594 91.0001 41.2055 91.0001C41.2517 91.0001 41.2977 91.0001 41.3435 91.0001C41.3894 91.0001 41.435 91.0001 41.4806 91.0001C41.5261 91.0001 41.5715 91.0001 41.6167 91.0001C41.662 91.0001 41.707 91.0001 41.7519 91.0001C41.7969 91.0001 41.8416 91.0001 41.8863 91.0001C41.9309 91.0001 41.9753 91.0001 42.0197 91.0001C42.064 91.0001 42.1081 91.0001 42.1521 91.0001C42.1962 91.0001 42.24 91.0001 42.2837 91.0001C42.3274 91.0001 42.371 91.0001 42.4144 91.0001C42.4578 91.0001 42.5011 91.0001 42.5442 91.0001C42.5873 91.0001 42.6303 91.0001 42.6731 91.0001C42.7159 91.0001 42.7586 91.0001 42.8011 91.0001C42.8436 91.0001 42.886 91.0001 42.9282 91.0001C42.9704 91.0001 43.0125 91.0001 43.0544 91.0001C43.0963 91.0001 43.1381 91.0001 43.1798 91.0001C43.2214 91.0001 43.2629 91.0001 43.3042 91.0001C43.3456 91.0001 43.3867 91.0001 43.4278 91.0001C43.4688 91.0001 43.5097 91.0001 43.5505 91.0001C43.5913 91.0001 43.6319 91.0001 43.6723 91.0001C43.7128 91.0001 43.7531 91.0001 43.7933 91.0001C43.8335 91.0001 43.8735 91.0001 43.9134 91.0001C43.9533 91.0001 43.993 91.0001 44.0327 91.0001C44.0723 91.0001 44.1117 91.0001 44.151 91.0001C44.1904 91.0001 44.2295 91.0001 44.2686 91.0001C44.3076 91.0001 44.3465 91.0001 44.3852 91.0001C44.424 91.0001 44.4626 91.0001 44.5011 91.0001C44.5395 91.0001 44.5779 91.0001 44.616 91.0001C44.6542 91.0001 44.6923 91.0001 44.7302 91.0001C44.7681 91.0001 44.8059 91.0001 44.8435 91.0001C44.8811 91.0001 44.9186 91.0001 44.9559 91.0001C44.9933 91.0001 45.0305 91.0001 45.0676 91.0001C45.1046 91.0001 45.1416 91.0001 45.1784 91.0001C45.2152 91.0001 45.2518 91.0001 45.2883 91.0001C45.3249 91.0001 45.3612 91.0001 45.3975 91.0001C45.4337 91.0001 45.4698 91.0001 45.5058 91.0001C45.5418 91.0001 45.5776 91.0001 45.6133 91.0001C45.649 91.0001 45.6846 91.0001 45.72 91.0001C45.7554 91.0001 45.7907 91.0001 45.8259 91.0001C45.861 91.0001 45.8961 91.0001 45.9309 91.0001C45.9658 91.0001 46.0006 91.0001 46.0352 91.0001C46.0698 91.0001 46.1043 91.0001 46.1387 91.0001C46.173 91.0001 46.2072 91.0001 46.2413 91.0001C46.2754 91.0001 46.3094 91.0001 46.3432 91.0001C46.377 91.0001 46.4107 91.0001 46.4443 91.0001C46.4778 91.0001 46.5113 91.0001 46.5445 91.0001C46.5778 91.0001 46.611 91.0001 46.644 91.0001C46.6771 91.0001 46.71 91.0001 46.7428 91.0001C46.7755 91.0001 46.8082 91.0001 46.8407 91.0001C46.8732 91.0001 46.9056 91.0001 46.9378 91.0001C46.9701 91.0001 47.0022 91.0001 47.0342 91.0001C47.0662 91.0001 47.0981 91.0001 47.1298 91.0001C47.1616 91.0001 47.1932 91.0001 47.2247 91.0001C47.2561 91.0001 47.2875 91.0001 47.3187 91.0001C47.35 91.0001 47.3811 91.0001 47.412 91.0001C47.443 91.0001 47.4739 91.0001 47.5046 91.0001C47.5353 91.0001 47.5659 91.0001 47.5964 91.0001C47.6268 91.0001 47.6572 91.0001 47.6874 91.0001C47.7176 91.0001 47.7477 91.0001 47.7777 91.0001C47.8077 91.0001 47.8375 91.0001 47.8672 91.0001C47.897 91.0001 47.9266 91.0001 47.956 91.0001C47.9855 91.0001 48.0149 91.0001 48.0441 91.0001C48.0733 91.0001 48.1024 91.0001 48.1314 91.0001C48.1604 91.0001 48.1893 91.0001 48.218 91.0001C48.2468 91.0001 48.2754 91.0001 48.3039 91.0001C48.3324 91.0001 48.3607 91.0001 48.389 91.0001C48.4173 91.0001 48.4454 91.0001 48.4734 91.0001C48.5014 91.0001 48.5293 91.0001 48.5571 91.0001C48.5849 91.0001 48.6125 91.0001 48.64 91.0001C48.6676 91.0001 48.695 91.0001 48.7223 91.0001C48.7496 91.0001 48.7768 91.0001 48.8038 91.0001C48.8309 91.0001 48.8578 91.0001 48.8846 91.0001C48.9115 91.0001 48.9382 91.0001 48.9648 91.0001C48.9913 91.0001 49.0178 91.0001 49.0442 91.0001C49.0705 91.0001 49.0968 91.0001 49.1229 91.0001C49.149 91.0001 49.175 91.0001 49.2009 91.0001C49.2268 91.0001 49.2526 91.0001 49.2782 91.0001C49.3039 91.0001 49.3294 91.0001 49.3549 91.0001C49.3803 91.0001 49.4056 91.0001 49.4308 91.0001C49.456 91.0001 49.4811 91.0001 49.5061 91.0001C49.531 91.0001 49.5559 91.0001 49.5806 91.0001C49.6054 91.0001 49.63 91.0001 49.6545 91.0001C49.679 91.0001 49.7035 91.0001 49.7278 91.0001C49.752 91.0001 49.7762 91.0001 49.8003 91.0001C49.8244 91.0001 49.8483 91.0001 49.8722 91.0001C49.896 91.0001 49.9198 91.0001 49.9434 91.0001C49.967 91.0001 49.9905 91.0001 50.0139 91.0001C50.0374 91.0001 50.0607 91.0001 50.0838 91.0001C50.107 91.0001 50.1301 91.0001 50.1531 91.0001C50.176 91.0001 50.1989 91.0001 50.2217 91.0001C50.2444 91.0001 50.267 91.0001 50.2896 91.0001C50.3121 91.0001 50.3345 91.0001 50.3569 91.0001C50.3792 91.0001 50.4014 91.0001 50.4235 91.0001C50.4456 91.0001 50.4676 91.0001 50.4895 91.0001C50.5114 91.0001 50.5332 91.0001 50.5549 91.0001C50.5765 91.0001 50.5981 91.0001 50.6196 91.0001C50.641 91.0001 50.6624 91.0001 50.6837 91.0001C50.7049 91.0001 50.7261 91.0001 50.7471 91.0001C50.7682 91.0001 50.7891 91.0001 50.81 91.0001C50.8308 91.0001 50.8515 91.0001 50.8722 91.0001C50.8928 91.0001 50.9133 91.0001 50.9338 91.0001C50.9542 91.0001 50.9745 91.0001 50.9948 91.0001C51.015 91.0001 51.0351 91.0001 51.0551 91.0001C51.0751 91.0001 51.0951 91.0001 51.1149 91.0001C51.1347 91.0001 51.1544 91.0001 51.174 91.0001C51.1936 91.0001 51.2131 91.0001 51.2326 91.0001C51.252 91.0001 51.2713 91.0001 51.2905 91.0001C51.3097 91.0001 51.3288 91.0001 51.3478 91.0001C51.3669 91.0001 51.3858 91.0001 51.4046 91.0001C51.4234 91.0001 51.4421 91.0001 51.4607 91.0001C51.4794 91.0001 51.4979 91.0001 51.5163 91.0001C51.5347 91.0001 51.5531 91.0001 51.5713 91.0001C51.5895 91.0001 51.6077 91.0001 51.6257 91.0001C51.6437 91.0001 51.6617 91.0001 51.6795 91.0001C51.6974 91.0001 51.7151 91.0001 51.7328 91.0001C51.7504 91.0001 51.768 91.0001 51.7854 91.0001C51.8029 91.0001 51.8203 91.0001 51.8375 91.0001C51.8548 91.0001 51.872 91.0001 51.8891 91.0001C51.9061 91.0001 51.9231 91.0001 51.94 91.0001C51.9569 91.0001 51.9737 91.0001 51.9904 91.0001C52.0071 91.0001 52.0238 91.0001 52.0403 91.0001C52.0568 91.0001 52.0732 91.0001 52.0896 91.0001C52.1059 91.0001 52.1222 91.0001 52.1383 91.0001C52.1545 91.0001 52.1706 91.0001 52.1865 91.0001C52.2025 91.0001 52.2184 91.0001 52.2342 91.0001C52.25 91.0001 52.2657 91.0001 52.2813 91.0001C52.2969 91.0001 52.3124 91.0001 52.3279 91.0001C52.3433 91.0001 52.3586 91.0001 52.3739 91.0001C52.3891 91.0001 52.4043 91.0001 52.4194 91.0001C52.4345 91.0001 52.4495 91.0001 52.4644 91.0001C52.4793 91.0001 52.4941 91.0001 52.5088 91.0001C52.5235 91.0001 52.5382 91.0001 52.5527 91.0001C52.5673 91.0001 52.5818 91.0001 52.5961 91.0001C52.6105 91.0001 52.6248 91.0001 52.639 91.0001C52.6532 91.0001 52.6673 91.0001 52.6814 91.0001C52.6954 91.0001 52.7094 91.0001 52.7232 91.0001C52.7371 91.0001 52.7509 91.0001 52.7646 91.0001C52.7783 91.0001 52.7919 91.0001 52.8054 91.0001C52.819 91.0001 52.8324 91.0001 52.8458 91.0001C52.8591 91.0001 52.8724 91.0001 52.8856 91.0001C52.8988 91.0001 52.9119 91.0001 52.925 91.0001C52.938 91.0001 52.951 91.0001 52.9638 91.0001C52.9767 91.0001 52.9895 91.0001 53.0022 91.0001C53.0149 91.0001 53.0275 91.0001 53.0401 91.0001C53.0526 91.0001 53.0651 91.0001 53.0775 91.0001C53.0899 91.0001 53.1022 91.0001 53.1144 91.0001C53.1266 91.0001 53.1388 91.0001 53.1508 91.0001C53.1629 91.0001 53.1749 91.0001 53.1868 91.0001C53.1987 91.0001 53.2106 91.0001 53.2223 91.0001C53.2341 91.0001 53.2457 91.0001 53.2573 91.0001C53.2689 91.0001 53.2805 91.0001 53.2919 91.0001C53.3033 91.0001 53.3147 91.0001 53.326 91.0001C53.3373 91.0001 53.3485 91.0001 53.3596 91.0001C53.3708 91.0001 53.3818 91.0001 53.3928 91.0001C53.4038 91.0001 53.4147 91.0001 53.4256 91.0001C53.4364 91.0001 53.4472 91.0001 53.4579 91.0001C53.4685 91.0001 53.4792 91.0001 53.4897 91.0001C53.5002 91.0001 53.5107 91.0001 53.5211 91.0001C53.5315 91.0001 53.5418 91.0001 53.5521 91.0001C53.5623 91.0001 53.5725 91.0001 53.5826 91.0001C53.5927 91.0001 53.6027 91.0001 53.6127 91.0001C53.6226 91.0001 53.6325 91.0001 53.6423 91.0001C53.6521 91.0001 53.6619 91.0001 53.6716 91.0001C53.6812 91.0001 53.6908 91.0001 53.7004 91.0001C53.7099 91.0001 53.7194 91.0001 53.7287 91.0001C53.7381 91.0001 53.7475 91.0001 53.7567 91.0001C53.766 91.0001 53.7751 91.0001 53.7843 91.0001C53.7934 91.0001 53.8024 91.0001 53.8114 91.0001C53.8204 91.0001 53.8293 91.0001 53.8381 91.0001C53.847 91.0001 53.8557 91.0001 53.8645 91.0001C53.8732 91.0001 53.8818 91.0001 53.8904 91.0001C53.899 91.0001 53.9075 91.0001 53.9159 91.0001C53.9243 91.0001 53.9327 91.0001 53.941 91.0001C53.9493 91.0001 53.9576 91.0001 53.9658 91.0001C53.9739 91.0001 53.9821 91.0001 53.9901 91.0001C53.9982 91.0001 54.0061 91.0001 54.0141 91.0001C54.022 91.0001 54.0298 91.0001 54.0376 91.0001C54.0454 91.0001 54.0532 91.0001 54.0608 91.0001C54.0685 91.0001 54.0761 91.0001 54.0836 91.0001C54.0912 91.0001 54.0987 91.0001 54.1061 91.0001C54.1135 91.0001 54.1209 91.0001 54.1281 91.0001C54.1354 91.0001 54.1427 91.0001 54.1498 91.0001C54.157 91.0001 54.1641 91.0001 54.1712 91.0001C54.1782 91.0001 54.1852 91.0001 54.1922 91.0001C54.1991 91.0001 54.206 91.0001 54.2128 91.0001C54.2196 91.0001 54.2263 91.0001 54.233 91.0001C54.2397 91.0001 54.2463 91.0001 54.2529 91.0001C54.2595 91.0001 54.266 91.0001 54.2725 91.0001C54.2789 91.0001 54.2853 91.0001 54.2917 91.0001C54.298 91.0001 54.3043 91.0001 54.3105 91.0001C54.3168 91.0001 54.323 91.0001 54.3291 91.0001C54.3352 91.0001 54.3412 91.0001 54.3473 91.0001C54.3533 91.0001 54.3592 91.0001 54.3651 91.0001C54.371 91.0001 54.3768 91.0001 54.3826 91.0001C54.3884 91.0001 54.3941 91.0001 54.3998 91.0001C54.4055 91.0001 54.4111 91.0001 54.4167 91.0001C54.4222 91.0001 54.4278 91.0001 54.4332 91.0001C54.4387 91.0001 54.4441 91.0001 54.4494 91.0001C54.4548 91.0001 54.4601 91.0001 54.4654 91.0001C54.4706 91.0001 54.4758 91.0001 54.481 91.0001C54.4861 91.0001 54.4912 91.0001 54.4962 91.0001C54.5013 91.0001 54.5063 91.0001 54.5112 91.0001C54.5162 91.0001 54.5211 91.0001 54.5259 91.0001C54.5307 91.0001 54.5355 91.0001 54.5403 91.0001C54.545 91.0001 54.5497 91.0001 54.5544 91.0001C54.559 91.0001 54.5636 91.0001 54.5681 91.0001C54.5727 91.0001 54.5772 91.0001 54.5816 91.0001C54.5861 91.0001 54.5905 91.0001 54.5948 91.0001C54.5992 91.0001 54.6035 91.0001 54.6078 91.0001C54.612 91.0001 54.6162 91.0001 54.6204 91.0001C54.6246 91.0001 54.6287 91.0001 54.6328 91.0001C54.6368 91.0001 54.6409 91.0001 54.6449 91.0001C54.6488 91.0001 54.6528 91.0001 54.6567 91.0001C54.6606 91.0001 54.6644 91.0001 54.6682 91.0001C54.672 91.0001 54.6758 91.0001 54.6795 91.0001C54.6832 91.0001 54.6869 91.0001 54.6905 91.0001C54.6941 91.0001 54.6977 91.0001 54.7013 91.0001C54.7048 91.0001 54.7083 91.0001 54.7118 91.0001C54.7152 91.0001 54.7186 91.0001 54.722 91.0001C54.7254 91.0001 54.7287 91.0001 54.732 91.0001C54.7353 91.0001 54.7386 91.0001 54.7418 91.0001C54.745 91.0001 54.7481 91.0001 54.7513 91.0001C54.7544 91.0001 54.7575 91.0001 54.7605 91.0001C54.7636 91.0001 54.7666 91.0001 54.7696 91.0001C54.7725 91.0001 54.7754 91.0001 54.7783 91.0001C54.7812 91.0001 54.7841 91.0001 54.7869 91.0001C54.7897 91.0001 54.7925 91.0001 54.7952 91.0001C54.798 91.0001 54.8007 91.0001 54.8033 91.0001C54.806 91.0001 54.8086 91.0001 54.8112 91.0001C54.8138 91.0001 54.8163 91.0001 54.8189 91.0001C54.8214 91.0001 54.8239 91.0001 54.8263 91.0001C54.8288 91.0001 54.8312 91.0001 54.8335 91.0001C54.8359 91.0001 54.8383 91.0001 54.8406 91.0001C54.8429 91.0001 54.8451 91.0001 54.8474 91.0001C54.8496 91.0001 54.8518 91.0001 54.854 91.0001C54.8561 91.0001 54.8583 91.0001 54.8604 91.0001C54.8625 91.0001 54.8646 91.0001 54.8666 91.0001C54.8686 91.0001 54.8706 91.0001 54.8726 91.0001C54.8746 91.0001 54.8765 91.0001 54.8784 91.0001C54.8803 91.0001 54.8822 91.0001 54.8841 91.0001C54.8859 91.0001 54.8877 91.0001 54.8895 91.0001C54.8913 91.0001 54.8931 91.0001 54.8948 91.0001C54.8965 91.0001 54.8982 91.0001 54.8999 91.0001C54.9015 91.0001 54.9032 91.0001 54.9048 91.0001C54.9064 91.0001 54.908 91.0001 54.9095 91.0001C54.9111 91.0001 54.9126 91.0001 54.9141 91.0001C54.9156 91.0001 54.917 91.0001 54.9185 91.0001C54.9199 91.0001 54.9213 91.0001 54.9227 91.0001C54.9241 91.0001 54.9255 91.0001 54.9268 91.0001C54.9281 91.0001 54.9294 91.0001 54.9307 91.0001C54.932 91.0001 54.9333 91.0001 54.9345 91.0001C54.9357 91.0001 54.9369 91.0001 54.9381 91.0001C54.9393 91.0001 54.9404 91.0001 54.9416 91.0001C54.9427 91.0001 54.9438 91.0001 54.9449 91.0001C54.946 91.0001 54.947 91.0001 54.9481 91.0001C54.9491 91.0001 54.9501 91.0001 54.9511 91.0001C54.9521 91.0001 54.9531 91.0001 54.954 91.0001C54.9549 91.0001 54.9559 91.0001 54.9568 91.0001C54.9577 91.0001 54.9585 91.0001 54.9594 91.0001C54.9603 91.0001 54.9611 91.0001 54.9619 91.0001C54.9627 91.0001 54.9635 91.0001 54.9643 91.0001C54.9651 91.0001 54.9658 91.0001 54.9666 91.0001C54.9673 91.0001 54.968 91.0001 54.9687 91.0001C54.9694 91.0001 54.9701 91.0001 54.9708 91.0001C54.9714 91.0001 54.9721 91.0001 54.9727 91.0001C54.9733 91.0001 54.9739 91.0001 54.9745 91.0001C54.9751 91.0001 54.9757 91.0001 54.9762 91.0001C54.9768 91.0001 54.9773 91.0001 54.9778 91.0001C54.9784 91.0001 54.9789 91.0001 54.9794 91.0001C54.9798 91.0001 54.9803 91.0001 54.9808 91.0001C54.9812 91.0001 54.9817 91.0001 54.9821 91.0001C54.9825 91.0001 54.9829 91.0001 54.9833 91.0001C54.9837 91.0001 54.9841 91.0001 54.9845 91.0001C54.9849 91.0001 54.9852 91.0001 54.9856 91.0001C54.9859 91.0001 54.9862 91.0001 54.9865 91.0001C54.9869 91.0001 54.9872 91.0001 54.9875 91.0001C54.9877 91.0001 54.988 91.0001 54.9883 91.0001C54.9886 91.0001 54.9888 91.0001 54.9891 91.0001C54.9893 91.0001 54.9895 91.0001 54.9898 91.0001C54.99 91.0001 54.9902 91.0001 54.9904 91.0001C54.9906 91.0001 54.9908 91.0001 54.991 91.0001C54.9911 91.0001 54.9913 91.0001 54.9915 91.0001C54.9916 91.0001 54.9918 91.0001 54.9919 91.0001C54.9921 91.0001 54.9922 91.0001 54.9923 91.0001C54.9925 91.0001 54.9926 91.0001 54.9927 91.0001C54.9928 91.0001 54.9929 91.0001 54.993 91.0001C54.9931 91.0001 54.9932 91.0001 54.9933 91.0001C54.9934 91.0001 54.9934 91.0001 54.9935 91.0001C54.9936 91.0001 54.9936 91.0001 54.9937 91.0001C54.9938 91.0001 54.9938 91.0001 54.9939 91.0001C54.9939 91.0001 54.9939 91.0001 54.994 91.0001C54.994 91.0001 54.9941 91.0001 54.9941 91.0001C54.9941 91.0001 54.9941 91.0001 54.9942 91.0001C54.9942 91.0001 54.9942 91.0001 54.9942 91.0001C54.9942 91.0001 54.9942 91.0001 54.9943 91.0001C54.9943 91.0001 54.9943 91.0001 54.9943 91.0001C54.9943 91.0001 54.9943 91.0001 54.9943 91.0001C54.9943 91.0001 54.9943 90.0001 54.9943 89.0001C54.9943 89.0001 54.9943 89.0001 54.9943 89.0001C54.9943 89.0001 54.9943 89.0001 54.9943 89.0001C54.9943 89.0001 54.9943 89.0001 54.9943 89.0001C54.9943 89.0001 54.9943 90.0001 54.9943 91.0001C54.9943 91.0001 54.9943 91.0001 54.9943 91.0001C54.9943 91.0001 54.9943 91.0001 54.9943 91.0001C54.9943 91.0001 54.9943 91.0001 54.9943 91.0001C54.9943 91.0001 54.9944 91.0001 54.9944 91.0001C54.9944 91.0001 54.9944 91.0001 54.9944 91.0001C54.9945 91.0001 54.9945 91.0001 54.9945 91.0001C54.9946 91.0001 54.9946 91.0001 54.9946 91.0001C54.9947 91.0001 54.9947 91.0001 54.9948 91.0001C54.9948 91.0001 54.9949 91.0001 54.9949 91.0001C54.995 91.0001 54.9951 91.0001 54.9951 91.0001C54.9952 91.0001 54.9953 91.0001 54.9954 91.0001C54.9955 91.0001 54.9956 91.0001 54.9957 91.0001C54.9958 91.0001 54.9959 91.0001 54.996 91.0001C54.9961 91.0001 54.9962 91.0001 54.9964 91.0001C54.9965 91.0001 54.9967 91.0001 54.9968 91.0001C54.997 91.0001 54.9971 91.0001 54.9973 91.0001C54.9975 91.0001 54.9976 91.0001 54.9978 91.0001C54.998 91.0001 54.9982 91.0001 54.9984 91.0001C54.9986 91.0001 54.9988 91.0001 54.9991 91.0001C54.9993 91.0001 54.9995 91.0001 54.9998 91.0001C55.0001 91.0001 55.0003 91.0001 55.0006 91.0001C55.0009 91.0001 55.0012 91.0001 55.0015 91.0001C55.0018 91.0001 55.0021 91.0001 55.0024 91.0001C55.0027 91.0001 55.0031 91.0001 55.0034 91.0001C55.0038 91.0001 55.0041 91.0001 55.0045 91.0001C55.0049 91.0001 55.0053 91.0001 55.0057 91.0001C55.0061 91.0001 55.0065 91.0001 55.007 91.0001C55.0074 91.0001 55.0079 91.0001 55.0083 91.0001C55.0088 91.0001 55.0093 91.0001 55.0098 91.0001C55.0103 91.0001 55.0108 91.0001 55.0113 91.0001C55.0119 91.0001 55.0124 91.0001 55.013 91.0001C55.0135 91.0001 55.0141 91.0001 55.0147 91.0001C55.0153 91.0001 55.016 91.0001 55.0166 91.0001C55.0172 91.0001 55.0179 91.0001 55.0186 91.0001C55.0192 91.0001 55.0199 91.0001 55.0206 91.0001C55.0214 91.0001 55.0221 91.0001 55.0228 91.0001C55.0236 91.0001 55.0244 91.0001 55.0252 91.0001C55.026 91.0001 55.0268 91.0001 55.0276 91.0001C55.0284 91.0001 55.0293 91.0001 55.0302 91.0001C55.031 91.0001 55.0319 91.0001 55.0328 91.0001C55.0338 91.0001 55.0347 91.0001 55.0357 91.0001C55.0366 91.0001 55.0376 91.0001 55.0386 91.0001C55.0396 91.0001 55.0407 91.0001 55.0417 91.0001C55.0428 91.0001 55.0438 91.0001 55.0449 91.0001C55.046 91.0001 55.0472 91.0001 55.0483 91.0001C55.0495 91.0001 55.0506 91.0001 55.0518 91.0001C55.053 91.0001 55.0543 91.0001 55.0555 91.0001C55.0568 91.0001 55.058 91.0001 55.0593 91.0001C55.0606 91.0001 55.062 91.0001 55.0633 91.0001C55.0647 91.0001 55.066 91.0001 55.0674 91.0001C55.0689 91.0001 55.0703 91.0001 55.0717 91.0001C55.0732 91.0001 55.0747 91.0001 55.0762 91.0001C55.0777 91.0001 55.0793 91.0001 55.0808 91.0001C55.0824 91.0001 55.084 91.0001 55.0856 91.0001C55.0873 91.0001 55.0889 91.0001 55.0906 91.0001C55.0923 91.0001 55.094 91.0001 55.0958 91.0001C55.0975 91.0001 55.0993 91.0001 55.1011 91.0001C55.1029 91.0001 55.1048 91.0001 55.1066 91.0001C55.1085 91.0001 55.1104 91.0001 55.1123 91.0001C55.1143 91.0001 55.1162 91.0001 55.1182 91.0001C55.1202 91.0001 55.1223 91.0001 55.1243 91.0001C55.1264 91.0001 55.1285 91.0001 55.1306 91.0001C55.1327 91.0001 55.1349 91.0001 55.1371 91.0001C55.1393 91.0001 55.1415 91.0001 55.1438 91.0001C55.146 91.0001 55.1483 91.0001 55.1507 91.0001C55.153 91.0001 55.1554 91.0001 55.1578 91.0001C55.1602 91.0001 55.1626 91.0001 55.1651 91.0001C55.1675 91.0001 55.1701 91.0001 55.1726 91.0001C55.1751 91.0001 55.1777 91.0001 55.1803 91.0001C55.183 91.0001 55.1856 91.0001 55.1883 91.0001C55.191 91.0001 55.1937 91.0001 55.1965 91.0001C55.1993 91.0001 55.2021 91.0001 55.2049 91.0001C55.2078 91.0001 55.2106 91.0001 55.2136 91.0001C55.2165 91.0001 55.2194 91.0001 55.2224 91.0001C55.2254 91.0001 55.2285 91.0001 55.2315 91.0001C55.2346 91.0001 55.2377 91.0001 55.2409 91.0001C55.2441 91.0001 55.2473 91.0001 55.2505 91.0001C55.2537 91.0001 55.257 91.0001 55.2603 91.0001C55.2637 91.0001 55.267 91.0001 55.2704 91.0001C55.2738 91.0001 55.2773 91.0001 55.2808 91.0001C55.2843 91.0001 55.2878 91.0001 55.2914 91.0001C55.2949 91.0001 55.2986 91.0001 55.3022 91.0001C55.3059 91.0001 55.3096 91.0001 55.3133 91.0001C55.3171 91.0001 55.3209 91.0001 55.3247 91.0001C55.3286 91.0001 55.3324 91.0001 55.3364 91.0001C55.3403 91.0001 55.3443 91.0001 55.3483 91.0001C55.3523 91.0001 55.3564 91.0001 55.3605 91.0001C55.3646 91.0001 55.3687 91.0001 55.3729 91.0001C55.3771 91.0001 55.3814 91.0001 55.3857 91.0001C55.39 91.0001 55.3943 91.0001 55.3987 91.0001C55.4031 91.0001 55.4075 91.0001 55.412 91.0001C55.4165 91.0001 55.4211 91.0001 55.4256 91.0001C55.4302 91.0001 55.4349 91.0001 55.4395 91.0001C55.4442 91.0001 55.449 91.0001 55.4537 91.0001C55.4585 91.0001 55.4633 91.0001 55.4682 91.0001C55.4731 91.0001 55.478 91.0001 55.483 91.0001C55.488 91.0001 55.493 91.0001 55.4981 91.0001C55.5032 91.0001 55.5083 91.0001 55.5135 91.0001C55.5187 91.0001 55.5239 91.0001 55.5292 91.0001C55.5345 91.0001 55.5399 91.0001 55.5453 91.0001C55.5507 91.0001 55.5561 91.0001 55.5616 91.0001C55.5671 91.0001 55.5727 91.0001 55.5783 91.0001C55.5839 91.0001 55.5895 91.0001 55.5953 91.0001C55.601 91.0001 55.6068 91.0001 55.6126 91.0001C55.6184 91.0001 55.6243 91.0001 55.6302 91.0001C55.6362 91.0001 55.6422 91.0001 55.6482 91.0001C55.6543 91.0001 55.6604 91.0001 55.6665 91.0001C55.6727 91.0001 55.6789 91.0001 55.6852 91.0001C55.6914 91.0001 55.6978 91.0001 55.7042 91.0001C55.7106 91.0001 55.717 91.0001 55.7235 91.0001C55.73 91.0001 55.7366 91.0001 55.7432 91.0001C55.7498 91.0001 55.7565 91.0001 55.7632 91.0001C55.77 91.0001 55.7768 91.0001 55.7836 91.0001C55.7905 91.0001 55.7974 91.0001 55.8044 91.0001C55.8113 91.0001 55.8184 91.0001 55.8255 91.0001C55.8326 91.0001 55.8397 91.0001 55.8469 91.0001C55.8542 91.0001 55.8614 91.0001 55.8688 91.0001C55.8761 91.0001 55.8835 91.0001 55.891 91.0001C55.8985 91.0001 55.906 91.0001 55.9136 91.0001C55.9212 91.0001 55.9288 91.0001 55.9365 91.0001C55.9442 91.0001 55.952 91.0001 55.9599 91.0001C55.9677 91.0001 55.9756 91.0001 55.9836 91.0001C55.9916 91.0001 55.9996 91.0001 56.0077 91.0001C56.0158 91.0001 56.024 91.0001 56.0322 91.0001C56.0404 91.0001 56.0487 91.0001 56.0571 91.0001C56.0654 91.0001 56.0738 91.0001 56.0823 91.0001C56.0908 91.0001 56.0994 91.0001 56.108 91.0001V89.0001C56.0994 89.0001 56.0908 89.0001 56.0823 89.0001C56.0738 89.0001 56.0654 89.0001 56.0571 89.0001C56.0487 89.0001 56.0404 89.0001 56.0322 89.0001C56.024 89.0001 56.0158 89.0001 56.0077 89.0001C55.9996 89.0001 55.9916 89.0001 55.9836 89.0001C55.9756 89.0001 55.9677 89.0001 55.9599 89.0001C55.952 89.0001 55.9442 89.0001 55.9365 89.0001C55.9288 89.0001 55.9212 89.0001 55.9136 89.0001C55.906 89.0001 55.8985 89.0001 55.891 89.0001C55.8835 89.0001 55.8761 89.0001 55.8688 89.0001C55.8614 89.0001 55.8542 89.0001 55.8469 89.0001C55.8397 89.0001 55.8326 89.0001 55.8255 89.0001C55.8184 89.0001 55.8113 89.0001 55.8044 89.0001C55.7974 89.0001 55.7905 89.0001 55.7836 89.0001C55.7768 89.0001 55.77 89.0001 55.7632 89.0001C55.7565 89.0001 55.7498 89.0001 55.7432 89.0001C55.7366 89.0001 55.73 89.0001 55.7235 89.0001C55.717 89.0001 55.7106 89.0001 55.7042 89.0001C55.6978 89.0001 55.6914 89.0001 55.6852 89.0001C55.6789 89.0001 55.6727 89.0001 55.6665 89.0001C55.6604 89.0001 55.6543 89.0001 55.6482 89.0001C55.6422 89.0001 55.6362 89.0001 55.6302 89.0001C55.6243 89.0001 55.6184 89.0001 55.6126 89.0001C55.6068 89.0001 55.601 89.0001 55.5953 89.0001C55.5895 89.0001 55.5839 89.0001 55.5783 89.0001C55.5727 89.0001 55.5671 89.0001 55.5616 89.0001C55.5561 89.0001 55.5507 89.0001 55.5453 89.0001C55.5399 89.0001 55.5345 89.0001 55.5292 89.0001C55.5239 89.0001 55.5187 89.0001 55.5135 89.0001C55.5083 89.0001 55.5032 89.0001 55.4981 89.0001C55.493 89.0001 55.488 89.0001 55.483 89.0001C55.478 89.0001 55.4731 89.0001 55.4682 89.0001C55.4633 89.0001 55.4585 89.0001 55.4537 89.0001C55.449 89.0001 55.4442 89.0001 55.4395 89.0001C55.4349 89.0001 55.4302 89.0001 55.4256 89.0001C55.4211 89.0001 55.4165 89.0001 55.412 89.0001C55.4075 89.0001 55.4031 89.0001 55.3987 89.0001C55.3943 89.0001 55.39 89.0001 55.3857 89.0001C55.3814 89.0001 55.3771 89.0001 55.3729 89.0001C55.3687 89.0001 55.3646 89.0001 55.3605 89.0001C55.3564 89.0001 55.3523 89.0001 55.3483 89.0001C55.3443 89.0001 55.3403 89.0001 55.3364 89.0001C55.3324 89.0001 55.3286 89.0001 55.3247 89.0001C55.3209 89.0001 55.3171 89.0001 55.3133 89.0001C55.3096 89.0001 55.3059 89.0001 55.3022 89.0001C55.2986 89.0001 55.2949 89.0001 55.2914 89.0001C55.2878 89.0001 55.2843 89.0001 55.2808 89.0001C55.2773 89.0001 55.2738 89.0001 55.2704 89.0001C55.267 89.0001 55.2637 89.0001 55.2603 89.0001C55.257 89.0001 55.2537 89.0001 55.2505 89.0001C55.2473 89.0001 55.2441 89.0001 55.2409 89.0001C55.2377 89.0001 55.2346 89.0001 55.2315 89.0001C55.2285 89.0001 55.2254 89.0001 55.2224 89.0001C55.2194 89.0001 55.2165 89.0001 55.2136 89.0001C55.2106 89.0001 55.2078 89.0001 55.2049 89.0001C55.2021 89.0001 55.1993 89.0001 55.1965 89.0001C55.1937 89.0001 55.191 89.0001 55.1883 89.0001C55.1856 89.0001 55.183 89.0001 55.1803 89.0001C55.1777 89.0001 55.1751 89.0001 55.1726 89.0001C55.1701 89.0001 55.1675 89.0001 55.1651 89.0001C55.1626 89.0001 55.1602 89.0001 55.1578 89.0001C55.1554 89.0001 55.153 89.0001 55.1507 89.0001C55.1483 89.0001 55.146 89.0001 55.1438 89.0001C55.1415 89.0001 55.1393 89.0001 55.1371 89.0001C55.1349 89.0001 55.1327 89.0001 55.1306 89.0001C55.1285 89.0001 55.1264 89.0001 55.1243 89.0001C55.1223 89.0001 55.1202 89.0001 55.1182 89.0001C55.1162 89.0001 55.1143 89.0001 55.1123 89.0001C55.1104 89.0001 55.1085 89.0001 55.1066 89.0001C55.1048 89.0001 55.1029 89.0001 55.1011 89.0001C55.0993 89.0001 55.0975 89.0001 55.0958 89.0001C55.094 89.0001 55.0923 89.0001 55.0906 89.0001C55.0889 89.0001 55.0873 89.0001 55.0856 89.0001C55.084 89.0001 55.0824 89.0001 55.0808 89.0001C55.0793 89.0001 55.0777 89.0001 55.0762 89.0001C55.0747 89.0001 55.0732 89.0001 55.0717 89.0001C55.0703 89.0001 55.0689 89.0001 55.0674 89.0001C55.066 89.0001 55.0647 89.0001 55.0633 89.0001C55.062 89.0001 55.0606 89.0001 55.0593 89.0001C55.058 89.0001 55.0568 89.0001 55.0555 89.0001C55.0543 89.0001 55.053 89.0001 55.0518 89.0001C55.0506 89.0001 55.0495 89.0001 55.0483 89.0001C55.0472 89.0001 55.046 89.0001 55.0449 89.0001C55.0438 89.0001 55.0428 89.0001 55.0417 89.0001C55.0407 89.0001 55.0396 89.0001 55.0386 89.0001C55.0376 89.0001 55.0366 89.0001 55.0357 89.0001C55.0347 89.0001 55.0338 89.0001 55.0328 89.0001C55.0319 89.0001 55.031 89.0001 55.0302 89.0001C55.0293 89.0001 55.0284 89.0001 55.0276 89.0001C55.0268 89.0001 55.026 89.0001 55.0252 89.0001C55.0244 89.0001 55.0236 89.0001 55.0228 89.0001C55.0221 89.0001 55.0214 89.0001 55.0206 89.0001C55.0199 89.0001 55.0192 89.0001 55.0186 89.0001C55.0179 89.0001 55.0172 89.0001 55.0166 89.0001C55.016 89.0001 55.0153 89.0001 55.0147 89.0001C55.0141 89.0001 55.0135 89.0001 55.013 89.0001C55.0124 89.0001 55.0119 89.0001 55.0113 89.0001C55.0108 89.0001 55.0103 89.0001 55.0098 89.0001C55.0093 89.0001 55.0088 89.0001 55.0083 89.0001C55.0079 89.0001 55.0074 89.0001 55.007 89.0001C55.0065 89.0001 55.0061 89.0001 55.0057 89.0001C55.0053 89.0001 55.0049 89.0001 55.0045 89.0001C55.0041 89.0001 55.0038 89.0001 55.0034 89.0001C55.0031 89.0001 55.0027 89.0001 55.0024 89.0001C55.0021 89.0001 55.0018 89.0001 55.0015 89.0001C55.0012 89.0001 55.0009 89.0001 55.0006 89.0001C55.0003 89.0001 55.0001 89.0001 54.9998 89.0001C54.9995 89.0001 54.9993 89.0001 54.9991 89.0001C54.9988 89.0001 54.9986 89.0001 54.9984 89.0001C54.9982 89.0001 54.998 89.0001 54.9978 89.0001C54.9976 89.0001 54.9975 89.0001 54.9973 89.0001C54.9971 89.0001 54.997 89.0001 54.9968 89.0001C54.9967 89.0001 54.9965 89.0001 54.9964 89.0001C54.9962 89.0001 54.9961 89.0001 54.996 89.0001C54.9959 89.0001 54.9958 89.0001 54.9957 89.0001C54.9956 89.0001 54.9955 89.0001 54.9954 89.0001C54.9953 89.0001 54.9952 89.0001 54.9951 89.0001C54.9951 89.0001 54.995 89.0001 54.9949 89.0001C54.9949 89.0001 54.9948 89.0001 54.9948 89.0001C54.9947 89.0001 54.9947 89.0001 54.9946 89.0001C54.9946 89.0001 54.9946 89.0001 54.9945 89.0001C54.9945 89.0001 54.9945 89.0001 54.9944 89.0001C54.9944 89.0001 54.9944 89.0001 54.9944 89.0001C54.9944 89.0001 54.9943 89.0001 54.9943 89.0001C54.9943 89.0001 54.9943 89.0001 54.9943 89.0001C54.9943 89.0001 54.9943 89.0001 54.9943 89.0001C54.9943 89.0001 54.9943 89.0001 54.9943 89.0001C54.9943 90.0001 54.9943 91.0001 54.9943 91.0001C54.9943 91.0001 54.9943 91.0001 54.9943 91.0001C54.9943 91.0001 54.9943 91.0001 54.9943 91.0001C54.9943 91.0001 54.9943 91.0001 54.9943 91.0001C54.9943 90.0001 54.9943 89.0001 54.9943 89.0001C54.9943 89.0001 54.9943 89.0001 54.9943 89.0001C54.9943 89.0001 54.9943 89.0001 54.9943 89.0001C54.9942 89.0001 54.9942 89.0001 54.9942 89.0001C54.9942 89.0001 54.9942 89.0001 54.9942 89.0001C54.9941 89.0001 54.9941 89.0001 54.9941 89.0001C54.9941 89.0001 54.994 89.0001 54.994 89.0001C54.9939 89.0001 54.9939 89.0001 54.9939 89.0001C54.9938 89.0001 54.9938 89.0001 54.9937 89.0001C54.9936 89.0001 54.9936 89.0001 54.9935 89.0001C54.9934 89.0001 54.9934 89.0001 54.9933 89.0001C54.9932 89.0001 54.9931 89.0001 54.993 89.0001C54.9929 89.0001 54.9928 89.0001 54.9927 89.0001C54.9926 89.0001 54.9925 89.0001 54.9923 89.0001C54.9922 89.0001 54.9921 89.0001 54.9919 89.0001C54.9918 89.0001 54.9916 89.0001 54.9915 89.0001C54.9913 89.0001 54.9911 89.0001 54.991 89.0001C54.9908 89.0001 54.9906 89.0001 54.9904 89.0001C54.9902 89.0001 54.99 89.0001 54.9898 89.0001C54.9895 89.0001 54.9893 89.0001 54.9891 89.0001C54.9888 89.0001 54.9886 89.0001 54.9883 89.0001C54.988 89.0001 54.9877 89.0001 54.9875 89.0001C54.9872 89.0001 54.9869 89.0001 54.9865 89.0001C54.9862 89.0001 54.9859 89.0001 54.9856 89.0001C54.9852 89.0001 54.9849 89.0001 54.9845 89.0001C54.9841 89.0001 54.9837 89.0001 54.9833 89.0001C54.9829 89.0001 54.9825 89.0001 54.9821 89.0001C54.9817 89.0001 54.9812 89.0001 54.9808 89.0001C54.9803 89.0001 54.9798 89.0001 54.9794 89.0001C54.9789 89.0001 54.9784 89.0001 54.9778 89.0001C54.9773 89.0001 54.9768 89.0001 54.9762 89.0001C54.9757 89.0001 54.9751 89.0001 54.9745 89.0001C54.9739 89.0001 54.9733 89.0001 54.9727 89.0001C54.9721 89.0001 54.9714 89.0001 54.9708 89.0001C54.9701 89.0001 54.9694 89.0001 54.9687 89.0001C54.968 89.0001 54.9673 89.0001 54.9666 89.0001C54.9658 89.0001 54.9651 89.0001 54.9643 89.0001C54.9635 89.0001 54.9627 89.0001 54.9619 89.0001C54.9611 89.0001 54.9603 89.0001 54.9594 89.0001C54.9585 89.0001 54.9577 89.0001 54.9568 89.0001C54.9559 89.0001 54.9549 89.0001 54.954 89.0001C54.9531 89.0001 54.9521 89.0001 54.9511 89.0001C54.9501 89.0001 54.9491 89.0001 54.9481 89.0001C54.947 89.0001 54.946 89.0001 54.9449 89.0001C54.9438 89.0001 54.9427 89.0001 54.9416 89.0001C54.9404 89.0001 54.9393 89.0001 54.9381 89.0001C54.9369 89.0001 54.9357 89.0001 54.9345 89.0001C54.9333 89.0001 54.932 89.0001 54.9307 89.0001C54.9294 89.0001 54.9281 89.0001 54.9268 89.0001C54.9255 89.0001 54.9241 89.0001 54.9227 89.0001C54.9213 89.0001 54.9199 89.0001 54.9185 89.0001C54.917 89.0001 54.9156 89.0001 54.9141 89.0001C54.9126 89.0001 54.9111 89.0001 54.9095 89.0001C54.908 89.0001 54.9064 89.0001 54.9048 89.0001C54.9032 89.0001 54.9015 89.0001 54.8999 89.0001C54.8982 89.0001 54.8965 89.0001 54.8948 89.0001C54.8931 89.0001 54.8913 89.0001 54.8895 89.0001C54.8877 89.0001 54.8859 89.0001 54.8841 89.0001C54.8822 89.0001 54.8803 89.0001 54.8784 89.0001C54.8765 89.0001 54.8746 89.0001 54.8726 89.0001C54.8706 89.0001 54.8686 89.0001 54.8666 89.0001C54.8646 89.0001 54.8625 89.0001 54.8604 89.0001C54.8583 89.0001 54.8561 89.0001 54.854 89.0001C54.8518 89.0001 54.8496 89.0001 54.8474 89.0001C54.8451 89.0001 54.8429 89.0001 54.8406 89.0001C54.8383 89.0001 54.8359 89.0001 54.8335 89.0001C54.8312 89.0001 54.8288 89.0001 54.8263 89.0001C54.8239 89.0001 54.8214 89.0001 54.8189 89.0001C54.8163 89.0001 54.8138 89.0001 54.8112 89.0001C54.8086 89.0001 54.806 89.0001 54.8033 89.0001C54.8007 89.0001 54.798 89.0001 54.7952 89.0001C54.7925 89.0001 54.7897 89.0001 54.7869 89.0001C54.7841 89.0001 54.7812 89.0001 54.7783 89.0001C54.7754 89.0001 54.7725 89.0001 54.7696 89.0001C54.7666 89.0001 54.7636 89.0001 54.7605 89.0001C54.7575 89.0001 54.7544 89.0001 54.7513 89.0001C54.7481 89.0001 54.745 89.0001 54.7418 89.0001C54.7386 89.0001 54.7353 89.0001 54.732 89.0001C54.7287 89.0001 54.7254 89.0001 54.722 89.0001C54.7186 89.0001 54.7152 89.0001 54.7118 89.0001C54.7083 89.0001 54.7048 89.0001 54.7013 89.0001C54.6977 89.0001 54.6941 89.0001 54.6905 89.0001C54.6869 89.0001 54.6832 89.0001 54.6795 89.0001C54.6758 89.0001 54.672 89.0001 54.6682 89.0001C54.6644 89.0001 54.6606 89.0001 54.6567 89.0001C54.6528 89.0001 54.6488 89.0001 54.6449 89.0001C54.6409 89.0001 54.6368 89.0001 54.6328 89.0001C54.6287 89.0001 54.6246 89.0001 54.6204 89.0001C54.6162 89.0001 54.612 89.0001 54.6078 89.0001C54.6035 89.0001 54.5992 89.0001 54.5948 89.0001C54.5905 89.0001 54.5861 89.0001 54.5816 89.0001C54.5772 89.0001 54.5727 89.0001 54.5681 89.0001C54.5636 89.0001 54.559 89.0001 54.5544 89.0001C54.5497 89.0001 54.545 89.0001 54.5403 89.0001C54.5355 89.0001 54.5307 89.0001 54.5259 89.0001C54.5211 89.0001 54.5162 89.0001 54.5112 89.0001C54.5063 89.0001 54.5013 89.0001 54.4962 89.0001C54.4912 89.0001 54.4861 89.0001 54.481 89.0001C54.4758 89.0001 54.4706 89.0001 54.4654 89.0001C54.4601 89.0001 54.4548 89.0001 54.4494 89.0001C54.4441 89.0001 54.4387 89.0001 54.4332 89.0001C54.4278 89.0001 54.4222 89.0001 54.4167 89.0001C54.4111 89.0001 54.4055 89.0001 54.3998 89.0001C54.3941 89.0001 54.3884 89.0001 54.3826 89.0001C54.3768 89.0001 54.371 89.0001 54.3651 89.0001C54.3592 89.0001 54.3533 89.0001 54.3473 89.0001C54.3412 89.0001 54.3352 89.0001 54.3291 89.0001C54.323 89.0001 54.3168 89.0001 54.3105 89.0001C54.3043 89.0001 54.298 89.0001 54.2917 89.0001C54.2853 89.0001 54.2789 89.0001 54.2725 89.0001C54.266 89.0001 54.2595 89.0001 54.2529 89.0001C54.2463 89.0001 54.2397 89.0001 54.233 89.0001C54.2263 89.0001 54.2196 89.0001 54.2128 89.0001C54.206 89.0001 54.1991 89.0001 54.1922 89.0001C54.1852 89.0001 54.1782 89.0001 54.1712 89.0001C54.1641 89.0001 54.157 89.0001 54.1498 89.0001C54.1427 89.0001 54.1354 89.0001 54.1281 89.0001C54.1209 89.0001 54.1135 89.0001 54.1061 89.0001C54.0987 89.0001 54.0912 89.0001 54.0836 89.0001C54.0761 89.0001 54.0685 89.0001 54.0608 89.0001C54.0532 89.0001 54.0454 89.0001 54.0376 89.0001C54.0298 89.0001 54.022 89.0001 54.0141 89.0001C54.0061 89.0001 53.9982 89.0001 53.9901 89.0001C53.9821 89.0001 53.9739 89.0001 53.9658 89.0001C53.9576 89.0001 53.9493 89.0001 53.941 89.0001C53.9327 89.0001 53.9243 89.0001 53.9159 89.0001C53.9075 89.0001 53.899 89.0001 53.8904 89.0001C53.8818 89.0001 53.8732 89.0001 53.8645 89.0001C53.8557 89.0001 53.847 89.0001 53.8381 89.0001C53.8293 89.0001 53.8204 89.0001 53.8114 89.0001C53.8024 89.0001 53.7934 89.0001 53.7843 89.0001C53.7751 89.0001 53.766 89.0001 53.7567 89.0001C53.7475 89.0001 53.7381 89.0001 53.7287 89.0001C53.7194 89.0001 53.7099 89.0001 53.7004 89.0001C53.6908 89.0001 53.6812 89.0001 53.6716 89.0001C53.6619 89.0001 53.6521 89.0001 53.6423 89.0001C53.6325 89.0001 53.6226 89.0001 53.6127 89.0001C53.6027 89.0001 53.5927 89.0001 53.5826 89.0001C53.5725 89.0001 53.5623 89.0001 53.5521 89.0001C53.5418 89.0001 53.5315 89.0001 53.5211 89.0001C53.5107 89.0001 53.5002 89.0001 53.4897 89.0001C53.4792 89.0001 53.4685 89.0001 53.4579 89.0001C53.4472 89.0001 53.4364 89.0001 53.4256 89.0001C53.4147 89.0001 53.4038 89.0001 53.3928 89.0001C53.3818 89.0001 53.3708 89.0001 53.3596 89.0001C53.3485 89.0001 53.3373 89.0001 53.326 89.0001C53.3147 89.0001 53.3033 89.0001 53.2919 89.0001C53.2805 89.0001 53.2689 89.0001 53.2573 89.0001C53.2457 89.0001 53.2341 89.0001 53.2223 89.0001C53.2106 89.0001 53.1987 89.0001 53.1868 89.0001C53.1749 89.0001 53.1629 89.0001 53.1508 89.0001C53.1388 89.0001 53.1266 89.0001 53.1144 89.0001C53.1022 89.0001 53.0899 89.0001 53.0775 89.0001C53.0651 89.0001 53.0526 89.0001 53.0401 89.0001C53.0275 89.0001 53.0149 89.0001 53.0022 89.0001C52.9895 89.0001 52.9767 89.0001 52.9638 89.0001C52.951 89.0001 52.938 89.0001 52.925 89.0001C52.9119 89.0001 52.8988 89.0001 52.8856 89.0001C52.8724 89.0001 52.8591 89.0001 52.8458 89.0001C52.8324 89.0001 52.819 89.0001 52.8054 89.0001C52.7919 89.0001 52.7783 89.0001 52.7646 89.0001C52.7509 89.0001 52.7371 89.0001 52.7232 89.0001C52.7094 89.0001 52.6954 89.0001 52.6814 89.0001C52.6673 89.0001 52.6532 89.0001 52.639 89.0001C52.6248 89.0001 52.6105 89.0001 52.5961 89.0001C52.5818 89.0001 52.5673 89.0001 52.5527 89.0001C52.5382 89.0001 52.5235 89.0001 52.5088 89.0001C52.4941 89.0001 52.4793 89.0001 52.4644 89.0001C52.4495 89.0001 52.4345 89.0001 52.4194 89.0001C52.4043 89.0001 52.3891 89.0001 52.3739 89.0001C52.3586 89.0001 52.3433 89.0001 52.3279 89.0001C52.3124 89.0001 52.2969 89.0001 52.2813 89.0001C52.2657 89.0001 52.25 89.0001 52.2342 89.0001C52.2184 89.0001 52.2025 89.0001 52.1865 89.0001C52.1706 89.0001 52.1545 89.0001 52.1383 89.0001C52.1222 89.0001 52.1059 89.0001 52.0896 89.0001C52.0732 89.0001 52.0568 89.0001 52.0403 89.0001C52.0238 89.0001 52.0071 89.0001 51.9904 89.0001C51.9737 89.0001 51.9569 89.0001 51.94 89.0001C51.9231 89.0001 51.9061 89.0001 51.8891 89.0001C51.872 89.0001 51.8548 89.0001 51.8375 89.0001C51.8203 89.0001 51.8029 89.0001 51.7854 89.0001C51.768 89.0001 51.7504 89.0001 51.7328 89.0001C51.7151 89.0001 51.6974 89.0001 51.6795 89.0001C51.6617 89.0001 51.6437 89.0001 51.6257 89.0001C51.6077 89.0001 51.5895 89.0001 51.5713 89.0001C51.5531 89.0001 51.5347 89.0001 51.5163 89.0001C51.4979 89.0001 51.4794 89.0001 51.4607 89.0001C51.4421 89.0001 51.4234 89.0001 51.4046 89.0001C51.3858 89.0001 51.3669 89.0001 51.3478 89.0001C51.3288 89.0001 51.3097 89.0001 51.2905 89.0001C51.2713 89.0001 51.252 89.0001 51.2326 89.0001C51.2131 89.0001 51.1936 89.0001 51.174 89.0001C51.1544 89.0001 51.1347 89.0001 51.1149 89.0001C51.0951 89.0001 51.0751 89.0001 51.0551 89.0001C51.0351 89.0001 51.015 89.0001 50.9948 89.0001C50.9745 89.0001 50.9542 89.0001 50.9338 89.0001C50.9133 89.0001 50.8928 89.0001 50.8722 89.0001C50.8515 89.0001 50.8308 89.0001 50.81 89.0001C50.7891 89.0001 50.7682 89.0001 50.7471 89.0001C50.7261 89.0001 50.7049 89.0001 50.6837 89.0001C50.6624 89.0001 50.641 89.0001 50.6196 89.0001C50.5981 89.0001 50.5765 89.0001 50.5549 89.0001C50.5332 89.0001 50.5114 89.0001 50.4895 89.0001C50.4676 89.0001 50.4456 89.0001 50.4235 89.0001C50.4014 89.0001 50.3792 89.0001 50.3569 89.0001C50.3345 89.0001 50.3121 89.0001 50.2896 89.0001C50.267 89.0001 50.2444 89.0001 50.2217 89.0001C50.1989 89.0001 50.176 89.0001 50.1531 89.0001C50.1301 89.0001 50.107 89.0001 50.0838 89.0001C50.0607 89.0001 50.0374 89.0001 50.0139 89.0001C49.9905 89.0001 49.967 89.0001 49.9434 89.0001C49.9198 89.0001 49.896 89.0001 49.8722 89.0001C49.8483 89.0001 49.8244 89.0001 49.8003 89.0001C49.7762 89.0001 49.752 89.0001 49.7278 89.0001C49.7035 89.0001 49.679 89.0001 49.6545 89.0001C49.63 89.0001 49.6054 89.0001 49.5806 89.0001C49.5559 89.0001 49.531 89.0001 49.5061 89.0001C49.4811 89.0001 49.456 89.0001 49.4308 89.0001C49.4056 89.0001 49.3803 89.0001 49.3549 89.0001C49.3294 89.0001 49.3039 89.0001 49.2782 89.0001C49.2526 89.0001 49.2268 89.0001 49.2009 89.0001C49.175 89.0001 49.149 89.0001 49.1229 89.0001C49.0968 89.0001 49.0705 89.0001 49.0442 89.0001C49.0178 89.0001 48.9913 89.0001 48.9648 89.0001C48.9382 89.0001 48.9115 89.0001 48.8846 89.0001C48.8578 89.0001 48.8309 89.0001 48.8038 89.0001C48.7768 89.0001 48.7496 89.0001 48.7223 89.0001C48.695 89.0001 48.6676 89.0001 48.64 89.0001C48.6125 89.0001 48.5849 89.0001 48.5571 89.0001C48.5293 89.0001 48.5014 89.0001 48.4734 89.0001C48.4454 89.0001 48.4173 89.0001 48.389 89.0001C48.3607 89.0001 48.3324 89.0001 48.3039 89.0001C48.2754 89.0001 48.2468 89.0001 48.218 89.0001C48.1893 89.0001 48.1604 89.0001 48.1314 89.0001C48.1024 89.0001 48.0733 89.0001 48.0441 89.0001C48.0149 89.0001 47.9855 89.0001 47.956 89.0001C47.9266 89.0001 47.897 89.0001 47.8672 89.0001C47.8375 89.0001 47.8077 89.0001 47.7777 89.0001C47.7477 89.0001 47.7176 89.0001 47.6874 89.0001C47.6572 89.0001 47.6268 89.0001 47.5964 89.0001C47.5659 89.0001 47.5353 89.0001 47.5046 89.0001C47.4739 89.0001 47.443 89.0001 47.412 89.0001C47.3811 89.0001 47.35 89.0001 47.3187 89.0001C47.2875 89.0001 47.2561 89.0001 47.2247 89.0001C47.1932 89.0001 47.1616 89.0001 47.1298 89.0001C47.0981 89.0001 47.0662 89.0001 47.0342 89.0001C47.0022 89.0001 46.9701 89.0001 46.9378 89.0001C46.9056 89.0001 46.8732 89.0001 46.8407 89.0001C46.8082 89.0001 46.7755 89.0001 46.7428 89.0001C46.71 89.0001 46.6771 89.0001 46.644 89.0001C46.611 89.0001 46.5778 89.0001 46.5445 89.0001C46.5113 89.0001 46.4778 89.0001 46.4443 89.0001C46.4107 89.0001 46.377 89.0001 46.3432 89.0001C46.3094 89.0001 46.2754 89.0001 46.2413 89.0001C46.2072 89.0001 46.173 89.0001 46.1387 89.0001C46.1043 89.0001 46.0698 89.0001 46.0352 89.0001C46.0006 89.0001 45.9658 89.0001 45.9309 89.0001C45.8961 89.0001 45.861 89.0001 45.8259 89.0001C45.7907 89.0001 45.7554 89.0001 45.72 89.0001C45.6846 89.0001 45.649 89.0001 45.6133 89.0001C45.5776 89.0001 45.5418 89.0001 45.5058 89.0001C45.4698 89.0001 45.4337 89.0001 45.3975 89.0001C45.3612 89.0001 45.3249 89.0001 45.2883 89.0001C45.2518 89.0001 45.2152 89.0001 45.1784 89.0001C45.1416 89.0001 45.1046 89.0001 45.0676 89.0001C45.0305 89.0001 44.9933 89.0001 44.9559 89.0001C44.9186 89.0001 44.8811 89.0001 44.8435 89.0001C44.8059 89.0001 44.7681 89.0001 44.7302 89.0001C44.6923 89.0001 44.6542 89.0001 44.616 89.0001C44.5779 89.0001 44.5395 89.0001 44.5011 89.0001C44.4626 89.0001 44.424 89.0001 44.3852 89.0001C44.3465 89.0001 44.3076 89.0001 44.2686 89.0001C44.2295 89.0001 44.1904 89.0001 44.151 89.0001C44.1117 89.0001 44.0723 89.0001 44.0327 89.0001C43.993 89.0001 43.9533 89.0001 43.9134 89.0001C43.8735 89.0001 43.8335 89.0001 43.7933 89.0001C43.7531 89.0001 43.7128 89.0001 43.6723 89.0001C43.6319 89.0001 43.5913 89.0001 43.5505 89.0001C43.5097 89.0001 43.4688 89.0001 43.4278 89.0001C43.3867 89.0001 43.3456 89.0001 43.3042 89.0001C43.2629 89.0001 43.2214 89.0001 43.1798 89.0001C43.1381 89.0001 43.0963 89.0001 43.0544 89.0001C43.0125 89.0001 42.9704 89.0001 42.9282 89.0001C42.886 89.0001 42.8436 89.0001 42.8011 89.0001C42.7586 89.0001 42.7159 89.0001 42.6731 89.0001C42.6303 89.0001 42.5873 89.0001 42.5442 89.0001C42.5011 89.0001 42.4578 89.0001 42.4144 89.0001C42.371 89.0001 42.3274 89.0001 42.2837 89.0001C42.24 89.0001 42.1962 89.0001 42.1521 89.0001C42.1081 89.0001 42.064 89.0001 42.0197 89.0001C41.9753 89.0001 41.9309 89.0001 41.8863 89.0001C41.8416 89.0001 41.7969 89.0001 41.7519 89.0001C41.707 89.0001 41.662 89.0001 41.6167 89.0001C41.5715 89.0001 41.5261 89.0001 41.4806 89.0001C41.435 89.0001 41.3894 89.0001 41.3435 89.0001C41.2977 89.0001 41.2517 89.0001 41.2055 89.0001C41.1594 89.0001 41.1131 89.0001 41.0666 89.0001C41.0202 89.0001 40.9735 89.0001 40.9268 89.0001C40.88 89.0001 40.8331 89.0001 40.786 89.0001C40.7389 89.0001 40.6917 89.0001 40.6443 89.0001C40.5969 89.0001 40.5493 89.0001 40.5016 89.0001C40.4539 89.0001 40.4061 89.0001 40.358 89.0001C40.31 89.0001 40.2618 89.0001 40.2135 89.0001C40.1652 89.0001 40.1167 89.0001 40.068 89.0001C40.0194 89.0001 39.9706 89.0001 39.9216 89.0001C39.8726 89.0001 39.8235 89.0001 39.7742 89.0001C39.7249 89.0001 39.6754 89.0001 39.6258 89.0001C39.5762 89.0001 39.5265 89.0001 39.4765 89.0001C39.4266 89.0001 39.3765 89.0001 39.3263 89.0001C39.276 89.0001 39.2256 89.0001 39.175 89.0001C39.1244 89.0001 39.0737 89.0001 39.0228 89.0001C38.9719 89.0001 38.9208 89.0001 38.8696 89.0001C38.8184 89.0001 38.767 89.0001 38.7154 89.0001C38.6639 89.0001 38.6122 89.0001 38.5603 89.0001C38.5084 89.0001 38.4564 89.0001 38.4042 89.0001C38.352 89.0001 38.2996 89.0001 38.2471 89.0001C38.1945 89.0001 38.1418 89.0001 38.089 89.0001C38.0361 89.0001 37.9831 89.0001 37.9299 89.0001C37.8767 89.0001 37.8233 89.0001 37.7698 89.0001C37.7163 89.0001 37.6626 89.0001 37.6087 89.0001C37.5549 89.0001 37.5008 89.0001 37.4466 89.0001C37.3924 89.0001 37.3381 89.0001 37.2835 89.0001C37.229 89.0001 37.1743 89.0001 37.1194 89.0001C37.0646 89.0001 37.0095 89.0001 36.9543 89.0001C36.8991 89.0001 36.8438 89.0001 36.7882 89.0001C36.7327 89.0001 36.677 89.0001 36.6211 89.0001C36.5652 89.0001 36.5091 89.0001 36.4529 89.0001C36.3967 89.0001 36.3403 89.0001 36.2837 89.0001C36.2272 89.0001 36.1704 89.0001 36.1135 89.0001C36.0566 89.0001 35.9996 89.0001 35.9423 89.0001C35.8851 89.0001 35.8276 89.0001 35.77 89.0001C35.7124 89.0001 35.6547 89.0001 35.5967 89.0001C35.5388 89.0001 35.4807 89.0001 35.4224 89.0001C35.3641 89.0001 35.3056 89.0001 35.247 89.0001C35.1884 89.0001 35.1296 89.0001 35.0706 89.0001C35.0116 89.0001 34.9524 89.0001 34.8931 89.0001C34.8338 89.0001 34.7743 89.0001 34.7146 89.0001C34.6549 89.0001 34.595 89.0001 34.535 89.0001C34.475 89.0001 34.4148 89.0001 34.3544 89.0001C34.294 89.0001 34.2334 89.0001 34.1727 89.0001C34.1119 89.0001 34.051 89.0001 33.9899 89.0001C33.9288 89.0001 33.8676 89.0001 33.8061 89.0001C33.7446 89.0001 33.683 89.0001 33.6212 89.0001C33.5594 89.0001 33.4974 89.0001 33.4352 89.0001C33.3731 89.0001 33.3107 89.0001 33.2482 89.0001C33.1857 89.0001 33.123 89.0001 33.0601 89.0001C32.9972 89.0001 32.9341 89.0001 32.8709 89.0001C32.8076 89.0001 32.7442 89.0001 32.6806 89.0001C32.617 89.0001 32.5532 89.0001 32.4892 89.0001C32.4252 89.0001 32.3611 89.0001 32.2967 89.0001C32.2324 89.0001 32.1679 89.0001 32.1032 89.0001C32.0385 89.0001 31.9736 89.0001 31.9085 89.0001C31.8435 89.0001 31.7782 89.0001 31.7128 89.0001C31.6473 89.0001 31.5817 89.0001 31.5159 89.0001C31.4501 89.0001 31.3841 89.0001 31.3179 89.0001C31.2518 89.0001 31.1854 89.0001 31.1189 89.0001C31.0523 89.0001 30.9856 89.0001 30.9187 89.0001C30.8517 89.0001 30.7846 89.0001 30.7174 89.0001C30.6501 89.0001 30.5826 89.0001 30.5149 89.0001C30.4473 89.0001 30.3794 89.0001 30.3114 89.0001C30.2433 89.0001 30.1751 89.0001 30.1067 89.0001C30.0383 89.0001 29.9697 89.0001 29.9009 89.0001C29.8321 89.0001 29.7631 89.0001 29.694 89.0001C29.6248 89.0001 29.5554 89.0001 29.4859 89.0001C29.4164 89.0001 29.3466 89.0001 29.2767 89.0001C29.2068 89.0001 29.1367 89.0001 29.0664 89.0001C28.996 89.0001 28.9256 89.0001 28.8549 89.0001C28.7842 89.0001 28.7133 89.0001 28.6422 89.0001C28.5712 89.0001 28.4999 89.0001 28.4284 89.0001C28.357 89.0001 28.2853 89.0001 28.2135 89.0001C28.1417 89.0001 28.0696 89.0001 27.9974 89.0001C27.9252 89.0001 27.8528 89.0001 27.7801 89.0001C27.7075 89.0001 27.6347 89.0001 27.5617 89.0001C27.4887 89.0001 27.4155 89.0001 27.3421 89.0001C27.2688 89.0001 27.1952 89.0001 27.1214 89.0001C27.0476 89.0001 26.9736 89.0001 26.8995 89.0001C26.8253 89.0001 26.7509 89.0001 26.6764 89.0001C26.6018 89.0001 26.5271 89.0001 26.4521 89.0001C26.3771 89.0001 26.302 89.0001 26.2266 89.0001C26.1513 89.0001 26.0757 89.0001 26 89.0001V91.0001ZM56.108 91.0001C75.9956 91.0001 72.9453 90.9947 79.7395 90.9938L79.7393 88.9938C72.9387 88.9947 75.9992 89.0001 56.108 89.0001V91.0001ZM78.7394 89.9938V89.9956H80.7394V89.9938H78.7394ZM79.4907 52.556H72.4816V54.556H79.4907V52.556ZM72.4816 52.556C72.4839 52.556 72.4862 52.5569 72.4879 52.5586L71.0736 53.9728C71.447 54.3462 71.9535 54.556 72.4816 54.556V52.556ZM72.4879 52.5586C72.4895 52.5603 72.4904 52.5625 72.4904 52.5649H70.4904C70.4904 53.093 70.7002 53.5994 71.0736 53.9728L72.4879 52.5586ZM72.4904 52.5649V16.3344H70.4904V52.5649H72.4904ZM72.4904 16.3344C72.4904 16.3367 72.4895 16.339 72.4879 16.3406L71.0736 14.9264C70.7002 15.2998 70.4904 15.8063 70.4904 16.3344H72.4904ZM72.4879 16.3406C72.4862 16.3423 72.4839 16.3432 72.4816 16.3432V14.3432C71.9535 14.3432 71.447 14.553 71.0736 14.9264L72.4879 16.3406ZM72.4816 16.3432H79.4907V14.3432H72.4816V16.3432ZM79.4907 16.3432C79.4884 16.3432 79.4861 16.3423 79.4844 16.3406L80.8987 14.9264C80.5252 14.553 80.0188 14.3432 79.4907 14.3432V16.3432ZM79.4844 16.3406C79.4828 16.339 79.4819 16.3367 79.4819 16.3344H81.4819C81.4819 15.8063 81.2721 15.2998 80.8987 14.9264L79.4844 16.3406ZM79.4819 16.3344V52.5631H81.4819V16.3344H79.4819ZM79.4819 52.5631C79.4819 52.5607 79.4828 52.5585 79.4844 52.5568L80.8987 53.971C81.2721 53.5976 81.4819 53.0912 81.4819 52.5631H79.4819ZM79.4844 52.5568C79.4861 52.5552 79.4884 52.5542 79.4907 52.5542V54.5542C80.0188 54.5542 80.5252 54.3444 80.8987 53.971L79.4844 52.5568ZM78.4907 53.5542V53.556H80.4907V53.5542H78.4907ZM74.4718 51.5737V17.3345H72.4718V51.5737H74.4718ZM73.4718 18.3345H78.4996V16.3345H73.4718V18.3345ZM77.4996 17.3345V51.5737H79.4996V17.3345H77.4996ZM78.4996 50.5737H73.4718V52.5737H78.4996V50.5737ZM66.3762 52.556H59.3671V54.556H66.3762V52.556ZM59.3671 52.556C59.3682 52.556 59.3694 52.5562 59.3704 52.5567L58.6051 54.4045C58.8466 54.5045 59.1056 54.556 59.3671 54.556V52.556ZM59.3704 52.5567C59.3715 52.5571 59.3725 52.5578 59.3733 52.5586L57.9591 53.9728C58.144 54.1577 58.3635 54.3044 58.6051 54.4045L59.3704 52.5567ZM59.3733 52.5586C59.3741 52.5594 59.3748 52.5604 59.3752 52.5615L57.5275 53.3269C57.6275 53.5684 57.7742 53.7879 57.9591 53.9728L59.3733 52.5586ZM59.3752 52.5615C59.3757 52.5626 59.3759 52.5637 59.3759 52.5649H57.3759C57.3759 52.8264 57.4274 53.0853 57.5275 53.3269L59.3752 52.5615ZM59.3759 52.5649V24.2553H57.3759V52.5649H59.3759ZM59.3759 24.2553C59.3759 24.2565 59.3757 24.2576 59.3752 24.2587L57.5275 23.4934C57.4274 23.7349 57.3759 23.9939 57.3759 24.2553H59.3759ZM59.3752 24.2587C59.3748 24.2598 59.3741 24.2608 59.3733 24.2616L57.9591 22.8474C57.7742 23.0323 57.6275 23.2518 57.5275 23.4934L59.3752 24.2587ZM59.3733 24.2616C59.3725 24.2624 59.3715 24.2631 59.3704 24.2635L58.6051 22.4158C58.3635 22.5158 58.144 22.6625 57.9591 22.8474L59.3733 24.2616ZM59.3704 24.2635C59.3694 24.264 59.3682 24.2642 59.3671 24.2642V22.2642C59.1056 22.2642 58.8466 22.3157 58.6051 22.4158L59.3704 24.2635ZM59.3671 24.2642H66.3789V22.2642H59.3671V24.2642ZM66.3789 24.2642C66.3765 24.2642 66.3743 24.2633 66.3726 24.2616L67.7868 22.8474C67.4134 22.474 66.907 22.2642 66.3789 22.2642V24.2642ZM66.3726 24.2616C66.371 24.2599 66.37 24.2577 66.37 24.2553H68.37C68.37 23.7272 68.1602 23.2208 67.7868 22.8474L66.3726 24.2616ZM66.37 24.2553V52.5631H68.37V24.2553H66.37ZM66.37 52.5631C66.37 52.5607 66.371 52.5585 66.3726 52.5568L67.7868 53.971C68.1602 53.5976 68.37 53.0912 68.37 52.5631H66.37ZM66.3726 52.5568C66.3743 52.5552 66.3765 52.5542 66.3789 52.5542V54.5542C66.907 54.5542 67.4134 54.3444 67.7868 53.971L66.3726 52.5568ZM65.8242 52.7222L65.8215 52.724L66.9309 54.3881L66.9336 54.3863L65.8242 52.7222ZM61.3573 51.5737V25.2483H59.3573V51.5737H61.3573ZM60.3573 26.2483H65.3832V24.2483H60.3573V26.2483ZM64.3832 25.2483V51.5701H66.3832V25.2483H64.3832ZM65.3825 50.5701L60.3566 50.5737L60.358 52.5737L65.384 52.5701L65.3825 50.5701ZM53.2607 52.556H46.2516V54.556H53.2607V52.556ZM46.2516 52.556C46.254 52.556 46.2562 52.557 46.2579 52.5586L44.8437 53.9728C45.2171 54.3462 45.7235 54.556 46.2516 54.556V52.556ZM46.2579 52.5586C46.2595 52.5603 46.2605 52.5625 46.2605 52.5649H44.2605C44.2605 53.093 44.4703 53.5994 44.8437 53.9728L46.2579 52.5586ZM46.2605 52.5649V32.5656H44.2605V52.5649H46.2605ZM46.2605 32.5656C46.2605 32.5679 46.2595 32.5702 46.2579 32.5718L44.8437 31.1576C44.4703 31.531 44.2605 32.0375 44.2605 32.5656H46.2605ZM46.2579 32.5718C46.2562 32.5735 46.254 32.5744 46.2516 32.5744V30.5744C45.7235 30.5744 45.2171 30.7842 44.8437 31.1576L46.2579 32.5718ZM46.2516 32.5744H53.2635V30.5744H46.2516V32.5744ZM53.2635 32.5744C53.2611 32.5744 53.2588 32.5735 53.2572 32.5718L54.6714 31.1576C54.298 30.7842 53.7915 30.5744 53.2635 30.5744V32.5744ZM53.2572 32.5718C53.2555 32.5702 53.2546 32.5679 53.2546 32.5656H55.2546C55.2546 32.0375 55.0448 31.531 54.6714 31.1576L53.2572 32.5718ZM53.2546 32.5656V52.5631H55.2546V32.5656H53.2546ZM53.2546 52.5631C53.2546 52.5607 53.2555 52.5585 53.2572 52.5568L54.6714 53.971C55.0448 53.5976 55.2546 53.0912 55.2546 52.5631H53.2546ZM53.2572 52.5568C53.2588 52.5552 53.2611 52.5542 53.2635 52.5542V54.5542C53.7915 54.5542 54.298 54.3444 54.6714 53.971L53.2572 52.5568ZM52.7088 52.7222L52.7061 52.724L53.8155 54.3881L53.8182 54.3863L52.7088 52.7222ZM48.2418 51.5737V33.5585H46.2418V51.5737H48.2418ZM47.2418 34.5585H52.2705V32.5585H47.2418V34.5585ZM51.2705 33.5585V51.5701H53.2705V33.5585H51.2705ZM52.2698 50.5701L47.2411 50.5737L47.2426 52.5737L52.2712 52.5701L52.2698 50.5701ZM40.1453 52.556H33.1362V54.556H40.1453V52.556ZM33.1362 52.556C33.1385 52.556 33.1408 52.557 33.1424 52.5586L31.7282 53.9728C32.1016 54.3462 32.6081 54.556 33.1362 54.556V52.556ZM33.1424 52.5586C33.1441 52.5603 33.145 52.5625 33.145 52.5649H31.145C31.145 53.093 31.3548 53.5994 31.7282 53.9728L33.1424 52.5586ZM33.145 52.5649V39.3197H31.145V52.5649H33.145ZM33.145 39.3197C33.145 39.3221 33.1441 39.3243 33.1424 39.326L31.7282 37.9118C31.3548 38.2852 31.145 38.7916 31.145 39.3197H33.145ZM33.1424 39.326C33.1408 39.3276 33.1385 39.3286 33.1362 39.3286V37.3286C32.6081 37.3286 32.1016 37.5383 31.7282 37.9118L33.1424 39.326ZM33.1362 39.3286H40.148V37.3286H33.1362V39.3286ZM40.148 39.3286C40.1457 39.3286 40.1434 39.3276 40.1418 39.326L41.556 37.9118C41.1826 37.5383 40.6761 37.3286 40.148 37.3286V39.3286ZM40.1418 39.326C40.1401 39.3243 40.1392 39.3221 40.1392 39.3197H42.1392C42.1392 38.7916 41.9294 38.2852 41.556 37.9118L40.1418 39.326ZM40.1392 39.3197V52.5649H42.1392V39.3197H40.1392ZM40.1392 52.5649C40.1392 52.5625 40.1401 52.5603 40.1418 52.5586L41.556 53.9728C41.9294 53.5994 42.1392 53.093 42.1392 52.5649H40.1392ZM40.1418 52.5586C40.1434 52.5569 40.1457 52.556 40.148 52.556V54.556C40.6761 54.556 41.1826 54.3462 41.556 53.9728L40.1418 52.5586ZM40.148 52.556H40.1453V54.556H40.148V52.556ZM35.1264 51.5737V40.3108H33.1264V51.5737H35.1264ZM34.1264 41.3108H39.1533V39.3108H34.1264V41.3108ZM38.1533 40.3108V51.5737H40.1533V40.3108H38.1533ZM39.1533 50.5737H34.1264V52.5737H39.1533V50.5737ZM33.1353 84.0399C33.1376 84.0399 33.1399 84.0408 33.1415 84.0425L31.7273 85.4567C32.1007 85.8301 32.6072 86.0399 33.1353 86.0399V84.0399ZM33.1415 84.0425C33.1432 84.0442 33.1441 84.0464 33.1441 84.0488H31.1441C31.1441 84.5769 31.3539 85.0833 31.7273 85.4567L33.1415 84.0425ZM33.1441 84.0488C33.1441 84.0511 33.1432 84.0534 33.1415 84.055L31.7273 82.6408C31.3539 83.0142 31.1441 83.5207 31.1441 84.0488H33.1441ZM33.1415 84.055C33.1399 84.0567 33.1376 84.0576 33.1353 84.0576V82.0576C32.6072 82.0576 32.1007 82.2674 31.7273 82.6408L33.1415 84.055ZM33.1353 84.0576H62.4495V82.0576H33.1353V84.0576ZM62.4495 84.0576C62.4471 84.0576 62.4449 84.0567 62.4432 84.055L63.8574 82.6408C63.484 82.2674 62.9776 82.0576 62.4495 82.0576V84.0576ZM62.4432 84.055C62.4416 84.0534 62.4406 84.0511 62.4406 84.0488H64.4406C64.4406 83.5207 64.2308 83.0142 63.8574 82.6408L62.4432 84.055ZM62.4406 84.0488C62.4406 84.0464 62.4416 84.0442 62.4432 84.0425L63.8574 85.4567C64.2308 85.0833 64.4406 84.5769 64.4406 84.0488H62.4406ZM62.4432 84.0425C62.4449 84.0408 62.4471 84.0399 62.4495 84.0399V86.0399C62.9776 86.0399 63.484 85.8301 63.8574 85.4567L62.4432 84.0425ZM62.4495 84.0399H33.1353V86.0399H62.4495V84.0399Z" fill="black" mask="url(#path-6-inside-1_163_689)"/>
<path d="M88.1586 62.1354V62.3009V75.3794V75.4228V75.4441V75.4469L88.1594 75.4503L88.1629 75.4637L88.1758 75.5132V75.5191L88.1845 75.549L88.2095 75.5991L88.2135 75.6053L88.2188 75.6144L94.7024 86.8631L94.916 87.2337L94.532 87.422C92.691 88.3249 90.6677 88.7929 88.6178 88.7899M88.1586 62.1354L88.6184 88.3899M88.1586 62.1354L88.0417 62.0183L88.0008 61.9774L87.872 61.8484L87.6902 61.861C84.2881 62.0959 81.102 63.6157 78.7756 66.113C76.4493 68.6102 75.1561 71.8988 75.1571 75.3142C75.1582 78.7296 76.4535 82.0173 78.7814 84.5131C81.1093 87.009 84.2964 88.5267 87.6986 88.7595L87.7122 88.7605H87.7259L88.2414 88.7605M88.1586 62.1354L88.2414 88.7605M88.6178 88.7899L88.6184 88.3899M88.6178 88.7899H88.6184V88.3899M88.6178 88.7899H88.4713H88.4203L88.371 88.7772C88.3288 88.7662 88.2855 88.7606 88.2419 88.7605H88.2425V88.3605M88.6184 88.3899H88.4713C88.3965 88.3706 88.3197 88.3607 88.2425 88.3605M88.2425 88.3605L88.2414 88.7605M88.2425 88.3605H87.7259C84.425 88.1346 81.3327 86.662 79.0739 84.2403C76.8151 81.8186 75.5582 78.6283 75.5571 75.3141C75.5561 71.9998 76.811 68.8088 79.0683 66.3856C81.3256 63.9625 84.4169 62.488 87.7177 62.26L88.2414 88.7605M95.6055 86.4062L95.82 86.7785L96.176 86.538C97.8742 85.3906 99.289 83.8708 100.313 82.0939C101.337 80.3171 101.943 78.3299 102.086 76.2832L102.116 75.8554H101.687H90.2171H89.5249L89.8705 76.4551L95.6055 86.4062ZM89.5837 61.9019L89.1567 61.873V62.3009V74.451V74.851H89.5567H101.687H102.115L102.086 74.4241C101.867 71.1756 100.478 68.118 98.1762 65.8187C95.8807 63.5131 92.8272 62.1211 89.5837 61.9019Z" fill="#5DB947" stroke="black" stroke-width="0.8"/>
<path d="M97.1541 17.847C97.2528 17.945 97.3866 18 97.5261 18C97.6657 18 97.7995 17.945 97.8982 17.847L100.503 15.261L103.108 17.847C103.207 17.9422 103.34 17.9949 103.478 17.9937C103.616 17.9925 103.748 17.9375 103.846 17.8407C103.943 17.7438 103.999 17.6128 104 17.4758C104.001 17.3388 103.948 17.2069 103.852 17.1083L100.875 14.153C100.777 14.055 100.643 14 100.503 14C100.364 14 100.23 14.055 100.131 14.153L97.1541 17.1083C97.0554 17.2063 97 17.3392 97 17.4777C97 17.6162 97.0554 17.7491 97.1541 17.847Z" fill="#5DB947"/>
</svg>
