<svg width="128" height="100" viewBox="0 0 128 100" fill="none" xmlns="http://www.w3.org/2000/svg">
<path d="M4.15408 61.847C4.25277 61.945 4.3866 62 4.52614 62C4.66569 62 4.79952 61.945 4.89821 61.847L7.50318 59.261L10.1081 61.847C10.2074 61.9422 10.3403 61.9949 10.4783 61.9937C10.6163 61.9925 10.7483 61.9375 10.8459 61.8407C10.9434 61.7438 10.9988 61.6128 11 61.4758C11.0012 61.3388 10.9481 61.2069 10.8523 61.1083L7.87524 58.153C7.77655 58.055 7.64272 58 7.50318 58C7.36363 58 7.2298 58.055 7.13111 58.153L4.15408 61.1083C4.05542 61.2063 4 61.3392 4 61.4777C4 61.6162 4.05542 61.7491 4.15408 61.847Z" fill="#5DB947"/>
<path d="M89.1541 12.847C89.2528 12.945 89.3866 13 89.5261 13C89.6657 13 89.7995 12.945 89.8982 12.847L92.5032 10.261L95.1081 12.847C95.2074 12.9422 95.3403 12.9949 95.4783 12.9937C95.6163 12.9925 95.7483 12.9375 95.8459 12.8407C95.9434 12.7438 95.9988 12.6128 96 12.4758C96.0012 12.3388 95.9481 12.2069 95.8523 12.1083L92.8752 9.15296C92.7766 9.05502 92.6427 9 92.5032 9C92.3636 9 92.2298 9.05502 92.1311 9.15296L89.1541 12.1083C89.0554 12.2063 89 12.3392 89 12.4777C89 12.6162 89.0554 12.7491 89.1541 12.847Z" fill="#5DB947"/>
<path d="M115.154 71.847C115.253 71.945 115.387 72 115.526 72C115.666 72 115.8 71.945 115.898 71.847L118.503 69.261L121.108 71.847C121.207 71.9422 121.34 71.9949 121.478 71.9937C121.616 71.9925 121.748 71.9375 121.846 71.8407C121.943 71.7438 121.999 71.6128 122 71.4758C122.001 71.3388 121.948 71.2069 121.852 71.1083L118.875 68.153C118.777 68.055 118.643 68 118.503 68C118.364 68 118.23 68.055 118.131 68.153L115.154 71.1083C115.055 71.2063 115 71.3392 115 71.4777C115 71.6162 115.055 71.7491 115.154 71.847Z" fill="#5DB947"/>
<path d="M25.1541 22.847C25.2528 22.945 25.3866 23 25.5261 23C25.6657 23 25.7995 22.945 25.8982 22.847L28.5032 20.261L31.1081 22.847C31.2074 22.9422 31.3403 22.9949 31.4783 22.9937C31.6163 22.9925 31.7483 22.9375 31.8459 22.8407C31.9434 22.7438 31.9988 22.6128 32 22.4758C32.0012 22.3388 31.9481 22.2069 31.8523 22.1083L28.8752 19.153C28.7766 19.055 28.6427 19 28.5032 19C28.3636 19 28.2298 19.055 28.1311 19.153L25.1541 22.1083C25.0554 22.2063 25 22.3392 25 22.4777C25 22.6162 25.0554 22.7491 25.1541 22.847Z" fill="#5DB947"/>
<path d="M84.7727 41.477L92.8416 27.5077C85.2415 23.3366 76.5804 20.8932 67.3518 20.6958V36.837C73.644 37.0098 79.5415 38.6881 84.7727 41.477ZM95.1858 28.8651L87.1169 42.8345C92.7429 46.3392 97.4066 51.226 100.713 56.9766L115 49.4736C110.263 41.0081 103.427 33.9 95.1858 28.8651ZM69.3258 78.128C71.0037 75.2404 68.5115 71.4642 64.8349 72.3774C63.8232 72.6736 63.0089 73.3399 62.4907 74.2038C60.7634 77.2148 63.5271 80.8923 66.9076 79.9791C67.9687 79.6829 68.8817 78.9672 69.3258 78.128ZM72.3362 74.4259C73.8661 80.1025 67.7219 84.8659 62.5894 81.9042C59.4062 80.0531 58.3205 75.9314 60.1712 72.8217C63.1322 67.7127 70.831 68.7493 72.3362 74.4259ZM75.544 81.6327C78.2337 76.9433 77.0986 70.9459 72.8544 67.614C71.0531 66.1825 68.8076 65.3434 66.4634 65.2446C65.8466 65.2693 65.279 64.8498 65.1063 64.2574L58.3452 38.9349L55.6309 37.0345L54.1997 39.9962C55.2854 40.6132 56.4205 41.2302 57.5062 41.8472C58.1478 42.2421 58.3699 43.0566 57.9751 43.6983L56.766 45.7468L58.8881 46.9315C59.5296 47.3017 59.727 48.1409 59.3569 48.7826L57.4075 52.0651L57.8517 53.7681C58.9868 54.3851 60.1218 55.0268 61.2322 55.6438C61.8738 56.0387 62.0712 56.8532 61.7011 57.4949L59.727 60.8021L60.9608 65.368C61.1089 65.9357 60.8868 66.5527 60.3686 66.8736C56.2971 69.391 54.2984 74.3025 55.5569 79.0165C57.1114 84.8412 63.1076 88.2965 68.931 86.7416C71.818 85.9272 74.1375 84.0514 75.544 81.6327Z" fill="#C8F4BD"/>
<path d="M42.8587 42.1634L34.7898 28.194C26.5482 33.2289 19.6884 40.3617 15 48.8272L29.2871 56.3301C32.5443 50.5302 37.2327 45.668 42.8587 42.1634ZM49.4224 38.8561L51.8899 33.7472C52.2601 33.0068 53.2224 32.7353 53.9627 33.2783L58.503 36.4868L62.6485 36.1412V20C53.4198 20.2221 44.7587 22.6655 37.1586 26.8119L45.2275 40.7812C46.56 40.0902 47.9665 39.4238 49.4224 38.8561Z" fill="#C8F4BD"/>
<path d="M67.5512 78.548L67.5462 78.5565L67.5416 78.5653C67.1691 79.2691 66.3765 79.904 65.4331 80.168C62.497 80.9595 60.073 77.7624 61.5797 75.128C62.0355 74.3703 62.7455 73.791 63.6232 73.5313C66.8468 72.7387 69.0155 76.028 67.5512 78.548ZM60.9958 83.0076L60.9972 83.0084C66.5171 86.1936 73.1214 81.0727 71.477 74.9679C69.8568 68.8609 61.5825 67.7495 58.3978 73.2395C56.4041 76.5927 57.5777 81.0199 60.9958 83.0076ZM71.201 68.6766L71.2034 68.6784C75.2495 71.8549 76.3355 77.5774 73.7688 82.0538C72.4265 84.3613 70.2136 86.1517 67.4565 86.9306C61.8999 88.4123 56.1805 85.1145 54.6977 79.5587L54.6977 79.5587C53.4965 75.0592 55.4041 70.3723 59.2893 67.97L59.2895 67.9698C60.0042 67.5273 60.3027 66.6813 60.1024 65.913L60.1012 65.9088L58.9227 61.5475L60.7881 58.4223L60.7882 58.4223L60.7919 58.4158C61.2958 57.5422 61.0264 56.4273 60.152 55.8892L60.1425 55.8833L60.1328 55.8779C59.7949 55.6901 59.4536 55.4995 59.1102 55.3076C58.3925 54.9067 57.6653 54.5004 56.9386 54.1037L56.6017 52.8121L58.4445 49.709L58.4446 49.709L58.4477 49.7035C58.9466 48.8386 58.692 47.6868 57.7957 47.1696L57.7957 47.1695L57.7895 47.1661L56.1146 46.231L57.0612 44.6273C57.6068 43.7353 57.2853 42.6215 56.426 42.0926L56.4186 42.088L56.411 42.0837C55.8662 41.7741 55.3094 41.4647 54.7552 41.1567L54.7535 41.1558C54.3367 40.9242 53.9213 40.6933 53.5116 40.4628L54.4832 38.4522L56.5668 39.9111L63.2809 65.0575L63.2808 65.0576L63.284 65.0685C63.5171 65.868 64.2749 66.4394 65.1187 66.4161C67.3512 66.5141 69.4879 67.3152 71.201 68.6766ZM66.5095 21.8801C75.2835 22.1478 83.528 24.4645 90.8095 28.3733L83.2378 41.4821C78.1847 38.8638 72.5302 37.2639 66.5095 37.0247V21.8801ZM99.5619 56.9826C96.3134 51.4813 91.8276 46.7824 86.448 43.3395L94.0189 30.2322C101.848 35.1147 108.369 41.8967 112.969 49.9419L99.5619 56.9826Z" fill="white" stroke="black"/>
<path d="M37.849 28.3498C45.1304 24.4639 53.3747 22.1474 62.1485 21.8568V37.0235L58.6429 37.3157L54.2546 34.2146C53.2632 33.4908 51.9497 33.8516 51.4427 34.8659L51.4427 34.8659L51.4397 34.872L49.0573 39.8047C47.8001 40.3033 46.5831 40.8714 45.4225 41.4613L37.849 28.3498ZM15.6872 49.9656C20.2414 41.9207 26.7845 35.1158 34.6143 30.2322L42.1853 43.3395C36.8067 46.7798 32.2984 51.4569 29.0919 57.0051L15.6872 49.9656Z" fill="#5DB947" stroke="black"/>
</svg>
