<svg width="128" height="100" viewBox="0 0 128 100" fill="none" xmlns="http://www.w3.org/2000/svg">
<path d="M12.1541 93.847C12.2528 93.945 12.3866 94 12.5261 94C12.6657 94 12.7995 93.945 12.8982 93.847L15.5032 91.261L18.1081 93.847C18.2074 93.9422 18.3403 93.9949 18.4783 93.9937C18.6163 93.9925 18.7483 93.9375 18.8459 93.8407C18.9434 93.7438 18.9988 93.6128 19 93.4758C19.0012 93.3388 18.9481 93.2069 18.8523 93.1083L15.8752 90.153C15.7766 90.055 15.6427 90 15.5032 90C15.3636 90 15.2298 90.055 15.1311 90.153L12.1541 93.1083C12.0554 93.2063 12 93.3392 12 93.4777C12 93.6162 12.0554 93.7491 12.1541 93.847Z" fill="#5DB947"/>
<path d="M109.154 7.84704C109.253 7.94498 109.387 8 109.526 8C109.666 8 109.8 7.94498 109.898 7.84704L112.503 5.26103L115.108 7.84704C115.207 7.9422 115.34 7.99486 115.478 7.99367C115.616 7.99248 115.748 7.93754 115.846 7.84068C115.943 7.74381 115.999 7.61278 116 7.4758C116.001 7.33883 115.948 7.20686 115.852 7.10833L112.875 4.15296C112.777 4.05502 112.643 4 112.503 4C112.364 4 112.23 4.05502 112.131 4.15296L109.154 7.10833C109.055 7.2063 109 7.33916 109 7.47768C109 7.61621 109.055 7.74907 109.154 7.84704Z" fill="#5DB947"/>
<path d="M115.154 82.847C115.253 82.945 115.387 83 115.526 83C115.666 83 115.8 82.945 115.898 82.847L118.503 80.261L121.108 82.847C121.207 82.9422 121.34 82.9949 121.478 82.9937C121.616 82.9925 121.748 82.9375 121.846 82.8407C121.943 82.7438 121.999 82.6128 122 82.4758C122.001 82.3388 121.948 82.2069 121.852 82.1083L118.875 79.153C118.777 79.055 118.643 79 118.503 79C118.364 79 118.23 79.055 118.131 79.153L115.154 82.1083C115.055 82.2063 115 82.3392 115 82.4777C115 82.6162 115.055 82.7491 115.154 82.847Z" fill="#5DB947"/>
<path d="M5.15408 20.847C5.25277 20.945 5.3866 21 5.52614 21C5.66569 21 5.79952 20.945 5.89821 20.847L8.50318 18.261L11.1081 20.847C11.2074 20.9422 11.3403 20.9949 11.4783 20.9937C11.6163 20.9925 11.7483 20.9375 11.8459 20.8407C11.9434 20.7438 11.9988 20.6128 12 20.4758C12.0012 20.3388 11.9481 20.2069 11.8523 20.1083L8.87524 17.153C8.77655 17.055 8.64272 17 8.50318 17C8.36363 17 8.2298 17.055 8.13111 17.153L5.15408 20.1083C5.05542 20.2063 5 20.3392 5 20.4777C5 20.6162 5.05542 20.7491 5.15408 20.847Z" fill="#5DB947"/>
<path d="M63.9452 29.2861C54.3645 29.2861 46.5665 37.0211 46.5665 46.5469C46.5665 56.1277 54.3683 63.9171 63.9452 63.9171C73.459 63.9171 81.2061 56.1278 81.2061 46.5469C81.2061 37.0206 73.4586 29.2861 63.9452 29.2861ZM76.5065 46.2587C75.9163 46.2587 75.435 45.7774 75.435 45.1872V42.228L67.0764 50.5866C66.6578 51.0052 65.984 51.0052 65.5653 50.5866L61.2919 46.3131L52.0879 54.3703C51.8828 54.5419 51.6358 54.6382 51.3805 54.6382C51.0917 54.6382 50.7903 54.5084 50.5769 54.2615C50.1918 53.822 50.2337 53.1481 50.6857 52.7505L60.639 44.0403C61.0575 43.6636 61.6979 43.6887 62.1081 44.0947L66.3314 48.3179L73.9281 40.7086H70.9647C70.3662 40.7086 69.8932 40.2356 69.8932 39.6371C69.8932 39.0469 70.3662 38.5656 70.9647 38.5656H76.5065C76.6446 38.5656 76.7869 38.599 76.9125 38.6493C77.1803 38.7581 77.3854 38.9716 77.4901 39.2269C77.5445 39.365 77.5738 39.4947 77.5738 39.6329V45.1829C77.578 45.7773 77.0924 46.2587 76.5065 46.2587ZM63.9452 29.2861C54.3645 29.2861 46.5665 37.0211 46.5665 46.5469C46.5665 56.1277 54.3683 63.9171 63.9452 63.9171C73.459 63.9171 81.2061 56.1278 81.2061 46.5469C81.2061 37.0206 73.4586 29.2861 63.9452 29.2861ZM76.5065 46.2587C75.9163 46.2587 75.435 45.7774 75.435 45.1872V42.228L67.0764 50.5866C66.6578 51.0052 65.984 51.0052 65.5653 50.5866L61.2919 46.3131L52.0879 54.3703C51.8828 54.5419 51.6358 54.6382 51.3805 54.6382C51.0917 54.6382 50.7903 54.5084 50.5769 54.2615C50.1918 53.822 50.2337 53.1481 50.6857 52.7505L60.639 44.0403C61.0575 43.6636 61.6979 43.6887 62.1081 44.0947L66.3314 48.3179L73.9281 40.7086H70.9647C70.3662 40.7086 69.8932 40.2356 69.8932 39.6371C69.8932 39.0469 70.3662 38.5656 70.9647 38.5656H76.5065C76.6446 38.5656 76.7869 38.599 76.9125 38.6493C77.1803 38.7581 77.3854 38.9716 77.4901 39.2269C77.5445 39.365 77.5738 39.4947 77.5738 39.6329V45.1829C77.578 45.7773 77.0924 46.2587 76.5065 46.2587ZM93.0901 43.2032H89.6286C89.4905 43.2032 89.3607 43.1697 89.231 43.1195C89.1891 43.1069 89.1557 43.0776 89.1138 43.0567C89.0385 43.0149 88.9757 42.973 88.9087 42.9186C88.8668 42.8851 88.8459 42.8433 88.8124 42.8014C88.758 42.7386 88.7162 42.6842 88.6743 42.6089C88.6534 42.5544 88.6408 42.5 88.6199 42.4498C88.6073 42.4079 88.578 42.3745 88.578 42.32C87.9125 38.5572 86.4559 35.0749 84.3548 32.2496C84.3213 32.2161 84.3213 32.1743 84.292 32.1324C84.2585 32.0696 84.2292 32.0027 84.2083 31.9399C84.1874 31.8771 84.1748 31.8101 84.1665 31.7348C84.1665 31.672 84.1539 31.605 84.1665 31.5297C84.1665 31.4669 84.1874 31.4 84.1999 31.3372C84.2209 31.2744 84.2418 31.2074 84.2627 31.1446C84.2962 31.0818 84.3381 31.0274 84.3925 30.9605C84.4134 30.927 84.426 30.8851 84.4553 30.8516L86.9415 28.3654C85.5184 26.5992 83.8986 24.9793 82.1197 23.5437L79.6335 26.0299C79.5791 26.0843 79.5163 26.1136 79.441 26.1596C79.3991 26.1805 79.3656 26.2224 79.3238 26.2433C79.1856 26.3061 79.035 26.3396 78.8843 26.3396C78.7545 26.3396 78.6373 26.3187 78.5076 26.2768C78.4741 26.2559 78.4448 26.235 78.3988 26.214C78.3443 26.1931 78.2899 26.1722 78.2397 26.1387C75.4103 24.0376 71.9279 22.581 68.1693 21.9155C68.1274 21.9029 68.0939 21.882 68.0605 21.8736C67.9851 21.8527 67.9223 21.8318 67.8554 21.7899C67.801 21.7564 67.7465 21.7271 67.6963 21.6811C67.6419 21.6392 67.5875 21.5974 67.5456 21.5429C67.5038 21.4885 67.4703 21.4341 67.4284 21.3713C67.395 21.3169 67.374 21.2541 67.3531 21.1872C67.3322 21.1244 67.3196 21.049 67.3112 20.9737C67.2987 20.9402 67.2903 20.8984 67.2903 20.8565V17.4075C64.9883 17.1271 62.6945 17.1397 60.4846 17.4075V20.8565C60.4846 20.8984 60.4636 20.9402 60.4636 20.9737C60.4511 21.049 60.4427 21.1244 60.4218 21.1872C60.4008 21.25 60.3799 21.3169 60.3381 21.3713C60.3046 21.4341 60.2753 21.4885 60.2292 21.5429C60.1874 21.5974 60.133 21.6392 60.0786 21.6811C60.0241 21.7229 59.9697 21.7564 59.9195 21.7899C59.8567 21.8318 59.7898 21.8527 59.7144 21.8736C59.6726 21.8862 59.6391 21.9071 59.6056 21.9155C55.8428 22.581 52.3604 24.0376 49.5352 26.1387C49.4808 26.1722 49.4264 26.1931 49.3761 26.214C49.3343 26.235 49.3008 26.2559 49.2673 26.2768C49.1376 26.3187 49.0203 26.3396 48.8906 26.3396C48.7399 26.3396 48.5892 26.3061 48.4511 26.2433C48.4093 26.2224 48.3758 26.1805 48.3339 26.1596C48.2586 26.1178 48.1958 26.0843 48.1288 26.0299L45.6551 23.5437C43.8762 24.9793 42.2564 26.5992 40.8334 28.3654L43.307 30.8516C43.3405 30.8851 43.3489 30.9144 43.3824 30.9479C43.4242 31.0107 43.4661 31.0651 43.4996 31.1321C43.5331 31.1949 43.554 31.2618 43.5624 31.3246C43.5833 31.3874 43.6042 31.4544 43.6042 31.5171C43.6168 31.5925 43.6042 31.6553 43.6042 31.7222C43.5917 31.785 43.5833 31.852 43.5624 31.9273C43.5414 31.9901 43.508 32.0571 43.4787 32.1199C43.4577 32.1534 43.4577 32.1952 43.4242 32.2287C41.2938 35.2716 39.8246 38.7666 39.1927 42.3243C39.1927 42.3787 39.1592 42.408 39.1508 42.454C39.1299 42.5085 39.1173 42.5629 39.088 42.6131C39.0545 42.6884 39.0127 42.7428 38.9583 42.8056C38.9248 42.8475 38.9039 42.8893 38.862 42.9228C38.7992 42.9772 38.7239 43.0191 38.6569 43.061C38.6151 43.0819 38.5816 43.1154 38.5272 43.1237C38.41 43.1782 38.2802 43.2075 38.1421 43.2075H34.6806C34.5425 44.3209 34.4546 45.4342 34.4546 46.5517C34.4546 47.7405 34.5383 48.8789 34.6806 50.0007H38.1421C38.184 50.0007 38.2174 50.0216 38.2593 50.0216C38.3346 50.0342 38.3974 50.0425 38.4644 50.0635C38.5272 50.0844 38.5941 50.1179 38.6569 50.1472C38.7113 50.1807 38.7658 50.21 38.816 50.256C38.8704 50.3104 38.9123 50.3523 38.9667 50.4151C39.0085 50.4569 39.042 50.5113 39.0755 50.5657C39.109 50.6411 39.1299 50.7039 39.1508 50.7792C39.1634 50.8127 39.1927 50.842 39.1927 50.888C39.8247 54.4457 41.2938 57.9365 43.4243 60.9836C43.4577 61.0171 43.4577 61.0589 43.4787 61.0924C43.5122 61.1552 43.5415 61.2222 43.5624 61.285C43.5833 61.3603 43.5959 61.4231 43.6042 61.4901C43.6042 61.5528 43.6168 61.6198 43.6042 61.6952C43.6042 61.7579 43.5833 61.8249 43.5624 61.8877C43.5498 61.9505 43.5289 62.0174 43.4996 62.0802C43.4661 62.143 43.4243 62.1974 43.3824 62.2644C43.3489 62.2979 43.3405 62.3272 43.3071 62.3607L40.8334 64.8469C42.2564 66.6132 43.8762 68.2331 45.6551 69.6686L48.1288 67.1824C48.1623 67.149 48.2042 67.1406 48.2376 67.1197C48.2921 67.0778 48.3548 67.0359 48.4218 67.0025C48.4762 66.969 48.539 66.948 48.606 66.9271C48.6688 66.9062 48.7357 66.8936 48.8111 66.8853C48.8739 66.8853 48.9408 66.8853 49.0162 66.8978C49.0789 66.8978 49.1459 66.9187 49.2087 66.9313C49.2715 66.9522 49.3385 66.9857 49.4012 67.015C49.4431 67.0359 49.4766 67.0485 49.5184 67.0694C52.5613 69.2124 56.0563 70.6816 59.614 71.301C59.6475 71.3136 59.6768 71.3345 59.7229 71.3429C59.7982 71.3638 59.861 71.3847 59.928 71.4266C59.9824 71.4601 60.0368 71.4894 60.087 71.5354C60.1414 71.5772 60.1958 71.6191 60.2377 71.6735C60.2795 71.7279 60.313 71.7823 60.3465 71.8451C60.3884 71.8995 60.4093 71.9623 60.4302 72.0293C60.4511 72.0921 60.4637 72.1674 60.4721 72.2428C60.4721 72.2763 60.493 72.3181 60.493 72.36V75.8089C62.6988 76.0768 64.9925 76.0893 67.2988 75.8089V72.36C67.2988 72.3181 67.3113 72.2762 67.3197 72.2428C67.3322 72.1674 67.3406 72.0921 67.3615 72.0293C67.3825 71.9665 67.4034 71.8996 67.4369 71.8451C67.4787 71.7823 67.5122 71.7279 67.5541 71.6735C67.5959 71.6191 67.6503 71.5773 67.7048 71.5354C67.7592 71.4935 67.8136 71.4601 67.8638 71.4266C67.9266 71.3847 67.9936 71.3638 68.0689 71.3429C68.1024 71.3303 68.1317 71.3094 68.1777 71.301C71.7354 70.6816 75.2262 69.2124 78.2733 67.0694C78.3068 67.0485 78.3487 67.0359 78.3905 67.015C78.4533 66.9815 78.5077 66.9522 78.5831 66.9313C78.6458 66.9104 78.7128 66.8978 78.7756 66.8978C78.8509 66.8853 78.9137 66.8853 78.9807 66.8853C79.056 66.8978 79.1188 66.9062 79.1858 66.9271C79.2486 66.948 79.3155 66.969 79.37 67.0025C79.4327 67.0359 79.4997 67.0778 79.5541 67.1197C79.5876 67.1406 79.6295 67.1531 79.6504 67.1824L82.1366 69.6686C83.9155 68.2331 85.5353 66.6132 86.9584 64.8469L84.4722 62.3607C84.4387 62.3272 84.4303 62.2853 84.4094 62.2519C84.355 62.1891 84.3131 62.1347 84.2796 62.0677C84.2587 62.0049 84.2378 61.9379 84.2169 61.8751C84.2043 61.8124 84.1834 61.7454 84.1834 61.6826C84.1708 61.6073 84.1834 61.5445 84.1834 61.4775C84.1959 61.4022 84.2043 61.3394 84.2252 61.2724C84.2462 61.2096 84.2796 61.1427 84.3089 61.0799C84.3424 61.038 84.3424 60.9962 84.3717 60.9627C86.4728 58.1333 87.9294 54.6509 88.5949 50.8923C88.5949 50.8504 88.6284 50.8169 88.6368 50.7834C88.6577 50.7081 88.6786 50.6453 88.7121 50.5783C88.7456 50.5156 88.7749 50.4611 88.821 50.4067C88.8628 50.3523 88.9172 50.3105 88.9716 50.2561C89.0261 50.2142 89.0805 50.1807 89.1307 50.1472C89.1935 50.1138 89.2479 50.0844 89.3232 50.0635C89.386 50.0426 89.453 50.03 89.5283 50.0217C89.5702 50.0217 89.6037 50.0007 89.6455 50.0007H93.107C93.2452 48.8748 93.333 47.7405 93.333 46.5518C93.3163 45.4342 93.2199 44.3208 93.0901 43.2032ZM63.9463 66.0605C53.1766 66.0605 44.4246 57.3043 44.4246 46.5474C44.4246 35.8449 53.1808 27.1435 63.9463 27.1435C74.6404 27.1435 83.3501 35.8453 83.3501 46.5474C83.3501 57.3042 74.64 66.0605 63.9463 66.0605ZM63.9463 29.2865C54.3656 29.2865 46.5676 37.0215 46.5676 46.5474C46.5676 56.1281 54.3694 63.9175 63.9463 63.9175C73.4601 63.9175 81.2071 56.1282 81.2071 46.5474C81.2071 37.0211 73.4596 29.2865 63.9463 29.2865ZM76.9136 38.6496C77.1815 38.7585 77.3866 38.9719 77.4912 39.2272C77.5457 39.3654 77.5749 39.4951 77.5749 39.6333V45.1833C77.5749 45.7735 77.0936 46.2548 76.5034 46.2548C75.9133 46.2548 75.4319 45.7735 75.4319 45.1833V42.2241L67.0734 50.5827C66.6548 51.0013 65.981 51.0013 65.5623 50.5827L61.2888 46.3093L52.0849 54.3664C51.8798 54.538 51.6328 54.6343 51.3775 54.6343C51.0887 54.6343 50.7873 54.5046 50.5739 54.2576C50.1888 53.8181 50.2306 53.1442 50.6827 52.7466L60.636 44.0364C61.0545 43.6597 61.6949 43.6848 62.1051 44.0908L66.3283 48.3141L73.9251 40.7047L70.9659 40.7089C70.3674 40.7089 69.8944 40.2359 69.8944 39.6374C69.8944 39.0472 70.3674 38.5658 70.9659 38.5658H76.5076C76.6458 38.5658 76.7839 38.5994 76.9136 38.6496Z" fill="#C8F4BD"/>
<path d="M40.4819 70.0031C40.0634 69.5846 39.3895 69.5846 38.9709 70.0031L34.0738 74.9002H27.9671C27.4941 73.1423 25.8994 71.8364 24.0034 71.8364C21.6678 71.8364 19.7593 73.6906 19.7593 75.9717C19.7593 78.3073 21.6678 80.2033 24.0034 80.2033C25.9539 80.2033 27.5277 78.8765 27.9796 77.0432H34.5259C34.664 77.0432 34.8063 77.0097 34.9319 76.9595C35.0616 76.9051 35.1788 76.8214 35.2835 76.7251L40.482 71.5183C40.9005 71.0955 40.9005 70.4218 40.4819 70.0031Z" fill="#C8F4BD"/>
<path d="M104.117 13.0003C102.209 13.0003 100.623 14.2978 100.154 16.0558H93.595H93.5824C93.4443 16.0558 93.3145 16.0893 93.1848 16.1395C93.0467 16.1939 92.9295 16.2693 92.8332 16.3739H92.8207L87.6138 21.6895C87.2078 22.1165 87.2162 22.7945 87.6347 23.2131C87.8398 23.4182 88.1161 23.5145 88.3839 23.5145C88.6644 23.5145 88.9406 23.4056 89.1457 23.1922L94.0428 18.1987H100.141C100.602 20.0194 102.2 21.3714 104.117 21.3714C106.39 21.3714 108.244 19.4628 108.244 17.1272C108.24 14.8545 106.386 13.0003 104.117 13.0003Z" fill="#C8F4BD"/>
<path d="M40.4901 21.6892L35.2832 16.3736C35.187 16.2648 35.0572 16.1894 34.9317 16.1392C34.8019 16.0848 34.6638 16.0555 34.534 16.0555H34.5215H27.9627C27.4897 14.2976 25.895 13 23.999 13C21.6634 13 19.7549 14.8542 19.7549 17.127C19.7549 19.4207 21.6928 21.3711 23.999 21.3711C25.9076 21.3711 27.5023 20.0192 27.9752 18.1985H34.0736L38.9581 23.1919C39.1716 23.4054 39.452 23.5142 39.7283 23.5142C39.9962 23.5142 40.264 23.4179 40.4775 23.2128C40.9002 22.7943 40.9087 22.1162 40.4901 21.6892Z" fill="#C8F4BD"/>
<path d="M29.7666 45.4754H23.2078C22.7348 43.7175 21.1485 42.4199 19.2441 42.4199C16.9086 42.4199 15 44.2616 15 46.5469C15 48.8406 16.9505 50.7785 19.2441 50.7785C21.1611 50.7785 22.7599 49.4266 23.2204 47.6184H29.7666C30.3651 47.6184 30.8381 47.1371 30.8381 46.5469C30.8381 45.9568 30.3651 45.4754 29.7666 45.4754Z" fill="#C8F4BD"/>
<path d="M104.566 71.8364C102.67 71.8364 101.071 73.1423 100.602 74.9002H94.0351L89.1505 70.0031C88.732 69.5846 88.0456 69.5846 87.6269 70.0031C87.2083 70.4217 87.2084 71.0955 87.6269 71.5141L92.8338 76.721C92.9301 76.8173 93.0473 76.9052 93.1854 76.9554C93.3151 77.0098 93.4533 77.0391 93.5914 77.0391H100.577C101.037 78.8724 102.611 80.1992 104.562 80.1992C106.876 80.1992 108.689 78.3366 108.689 75.9676C108.693 73.6907 106.847 71.8364 104.566 71.8364Z" fill="#C8F4BD"/>
<path d="M108.864 42.425C106.968 42.425 105.37 43.7225 104.901 45.4805H98.342C97.7518 45.4805 97.2705 45.9619 97.2705 46.5521C97.2705 47.1422 97.7518 47.6236 98.342 47.6236H104.888C105.361 49.4359 106.956 50.7836 108.864 50.7836C111.146 50.7836 113 48.8876 113 46.5521C113 44.2667 111.146 42.425 108.864 42.425Z" fill="#C8F4BD"/>
<mask id="path-12-inside-1_175_21" fill="white">
<path d="M63.9452 31.4294C54.3645 31.4294 46.5665 39.1644 46.5665 48.6903C46.5665 58.271 54.3683 66.0604 63.9452 66.0604C73.459 66.0604 81.2061 58.2711 81.2061 48.6903C81.2061 39.1639 73.4586 31.4294 63.9452 31.4294ZM76.5065 48.402C75.9163 48.402 75.435 47.9207 75.435 47.3305V44.3713L67.0764 52.7299C66.6578 53.1485 65.984 53.1485 65.5653 52.7299L61.2919 48.4565L52.0879 56.5136C51.8828 56.6852 51.6358 56.7815 51.3805 56.7815C51.0917 56.7815 50.7903 56.6517 50.5769 56.4048C50.1918 55.9653 50.2337 55.2914 50.6857 54.8938L60.639 46.1836C61.0575 45.8069 61.6979 45.832 62.1081 46.238L66.3314 50.4613L73.9281 42.8519H70.9647C70.3662 42.8519 69.8932 42.3789 69.8932 41.7804C69.8932 41.1902 70.3662 40.7089 70.9647 40.7089H76.5065C76.6446 40.7089 76.7869 40.7423 76.9125 40.7926C77.1803 40.9014 77.3854 41.1149 77.4901 41.3702C77.5445 41.5083 77.5738 41.6381 77.5738 41.7762V47.3263C77.578 47.9206 77.0924 48.402 76.5065 48.402ZM63.9452 31.4294C54.3645 31.4294 46.5665 39.1644 46.5665 48.6903C46.5665 58.271 54.3683 66.0604 63.9452 66.0604C73.459 66.0604 81.2061 58.2711 81.2061 48.6903C81.2061 39.1639 73.4586 31.4294 63.9452 31.4294ZM76.5065 48.402C75.9163 48.402 75.435 47.9207 75.435 47.3305V44.3713L67.0764 52.7299C66.6578 53.1485 65.984 53.1485 65.5653 52.7299L61.2919 48.4565L52.0879 56.5136C51.8828 56.6852 51.6358 56.7815 51.3805 56.7815C51.0917 56.7815 50.7903 56.6517 50.5769 56.4048C50.1918 55.9653 50.2337 55.2914 50.6857 54.8938L60.639 46.1836C61.0575 45.8069 61.6979 45.832 62.1081 46.238L66.3314 50.4613L73.9281 42.8519H70.9647C70.3662 42.8519 69.8932 42.3789 69.8932 41.7804C69.8932 41.1902 70.3662 40.7089 70.9647 40.7089H76.5065C76.6446 40.7089 76.7869 40.7423 76.9125 40.7926C77.1803 40.9014 77.3854 41.1149 77.4901 41.3702C77.5445 41.5083 77.5738 41.6381 77.5738 41.7762V47.3263C77.578 47.9206 77.0924 48.402 76.5065 48.402ZM93.0901 45.3465H89.6286C89.4905 45.3465 89.3607 45.313 89.231 45.2628C89.1891 45.2503 89.1557 45.221 89.1138 45.2C89.0385 45.1582 88.9757 45.1163 88.9087 45.0619C88.8668 45.0284 88.8459 44.9866 88.8124 44.9447C88.758 44.8819 88.7162 44.8275 88.6743 44.7522C88.6534 44.6977 88.6408 44.6433 88.6199 44.5931C88.6073 44.5513 88.578 44.5178 88.578 44.4634C87.9125 40.7006 86.4559 37.2182 84.3548 34.3929C84.3213 34.3595 84.3213 34.3176 84.292 34.2757C84.2585 34.213 84.2292 34.146 84.2083 34.0832C84.1874 34.0204 84.1748 33.9535 84.1665 33.8781C84.1665 33.8153 84.1539 33.7484 84.1665 33.673C84.1665 33.6102 84.1874 33.5433 84.1999 33.4805C84.2209 33.4177 84.2418 33.3507 84.2627 33.2879C84.2962 33.2252 84.3381 33.1707 84.3925 33.1038C84.4134 33.0703 84.426 33.0284 84.4553 32.9949L86.9415 30.5087C85.5184 28.7425 83.8986 27.1226 82.1197 25.687L79.6335 28.1732C79.5791 28.2276 79.5163 28.2569 79.441 28.3029C79.3991 28.3239 79.3656 28.3657 79.3238 28.3866C79.1856 28.4494 79.035 28.4829 78.8843 28.4829C78.7545 28.4829 78.6373 28.462 78.5076 28.4201C78.4741 28.3992 78.4448 28.3783 78.3988 28.3573C78.3443 28.3364 78.2899 28.3155 78.2397 28.282C75.4103 26.1809 71.9279 24.7243 68.1693 24.0588C68.1274 24.0462 68.0939 24.0253 68.0605 24.0169C67.9851 23.996 67.9223 23.9751 67.8554 23.9332C67.801 23.8997 67.7465 23.8704 67.6963 23.8244C67.6419 23.7825 67.5875 23.7407 67.5456 23.6863C67.5038 23.6318 67.4703 23.5774 67.4284 23.5146C67.395 23.4602 67.374 23.3974 67.3531 23.3305C67.3322 23.2677 67.3196 23.1924 67.3112 23.117C67.2987 23.0835 67.2903 23.0417 67.2903 22.9998V19.5509C64.9883 19.2704 62.6945 19.283 60.4846 19.5509V22.9998C60.4846 23.0417 60.4636 23.0835 60.4636 23.117C60.4511 23.1924 60.4427 23.2677 60.4218 23.3305C60.4008 23.3933 60.3799 23.4602 60.3381 23.5146C60.3046 23.5774 60.2753 23.6318 60.2292 23.6863C60.1874 23.7407 60.133 23.7825 60.0786 23.8244C60.0241 23.8662 59.9697 23.8997 59.9195 23.9332C59.8567 23.9751 59.7898 23.996 59.7144 24.0169C59.6726 24.0295 59.6391 24.0504 59.6056 24.0588C55.8428 24.7243 52.3604 26.1809 49.5352 28.282C49.4808 28.3155 49.4264 28.3364 49.3761 28.3573C49.3343 28.3783 49.3008 28.3992 49.2673 28.4201C49.1376 28.462 49.0203 28.4829 48.8906 28.4829C48.7399 28.4829 48.5892 28.4494 48.4511 28.3866C48.4093 28.3657 48.3758 28.3239 48.3339 28.3029C48.2586 28.2611 48.1958 28.2276 48.1288 28.1732L45.6551 25.687C43.8762 27.1226 42.2564 28.7425 40.8334 30.5087L43.307 32.9949C43.3405 33.0284 43.3489 33.0577 43.3824 33.0912C43.4242 33.154 43.4661 33.2084 43.4996 33.2754C43.5331 33.3382 43.554 33.4051 43.5624 33.4679C43.5833 33.5307 43.6042 33.5977 43.6042 33.6605C43.6168 33.7358 43.6042 33.7986 43.6042 33.8656C43.5917 33.9283 43.5833 33.9953 43.5624 34.0707C43.5414 34.1334 43.508 34.2004 43.4787 34.2632C43.4577 34.2967 43.4577 34.3385 43.4242 34.372C41.2938 37.4149 39.8246 40.9099 39.1927 44.4676C39.1927 44.522 39.1592 44.5513 39.1508 44.5974C39.1299 44.6518 39.1173 44.7062 39.088 44.7564C39.0545 44.8317 39.0127 44.8862 38.9583 44.9489C38.9248 44.9908 38.9039 45.0327 38.862 45.0661C38.7992 45.1206 38.7239 45.1624 38.6569 45.2043C38.6151 45.2252 38.5816 45.2587 38.5272 45.2671C38.41 45.3215 38.2802 45.3508 38.1421 45.3508H34.6806C34.5425 46.4642 34.4546 47.5775 34.4546 48.695C34.4546 49.8838 34.5383 51.0222 34.6806 52.144H38.1421C38.184 52.144 38.2174 52.1649 38.2593 52.1649C38.3346 52.1775 38.3974 52.1858 38.4644 52.2068C38.5272 52.2277 38.5941 52.2612 38.6569 52.2905C38.7113 52.324 38.7658 52.3533 38.816 52.3993C38.8704 52.4537 38.9123 52.4956 38.9667 52.5584C39.0085 52.6002 39.042 52.6546 39.0755 52.709C39.109 52.7844 39.1299 52.8472 39.1508 52.9225C39.1634 52.956 39.1927 52.9853 39.1927 53.0313C39.8247 56.589 41.2938 60.0798 43.4243 63.1269C43.4577 63.1604 43.4577 63.2023 43.4787 63.2357C43.5122 63.2985 43.5415 63.3655 43.5624 63.4283C43.5833 63.5036 43.5959 63.5664 43.6042 63.6334C43.6042 63.6962 43.6168 63.7631 43.6042 63.8385C43.6042 63.9013 43.5833 63.9682 43.5624 64.031C43.5498 64.0938 43.5289 64.1608 43.4996 64.2235C43.4661 64.2863 43.4243 64.3408 43.3824 64.4077C43.3489 64.4412 43.3405 64.4705 43.3071 64.504L40.8334 66.9902C42.2564 68.7565 43.8762 70.3764 45.6551 71.812L48.1288 69.3258C48.1623 69.2923 48.2042 69.2839 48.2376 69.263C48.2921 69.2211 48.3548 69.1793 48.4218 69.1458C48.4762 69.1123 48.539 69.0914 48.606 69.0704C48.6688 69.0495 48.7357 69.0369 48.8111 69.0286C48.8739 69.0286 48.9408 69.0286 49.0162 69.0411C49.0789 69.0411 49.1459 69.0621 49.2087 69.0746C49.2715 69.0955 49.3385 69.129 49.4012 69.1583C49.4431 69.1793 49.4766 69.1918 49.5184 69.2127C52.5613 71.3557 56.0563 72.8249 59.614 73.4443C59.6475 73.4569 59.6768 73.4778 59.7229 73.4862C59.7982 73.5071 59.861 73.528 59.928 73.5699C59.9824 73.6034 60.0368 73.6327 60.087 73.6787C60.1414 73.7206 60.1958 73.7624 60.2377 73.8168C60.2795 73.8712 60.313 73.9257 60.3465 73.9884C60.3884 74.0429 60.4093 74.1056 60.4302 74.1726C60.4511 74.2354 60.4637 74.3107 60.4721 74.3861C60.4721 74.4196 60.493 74.4614 60.493 74.5033V77.9522C62.6988 78.2201 64.9925 78.2327 67.2988 77.9522V74.5033C67.2988 74.4614 67.3113 74.4196 67.3197 74.3861C67.3322 74.3107 67.3406 74.2354 67.3615 74.1726C67.3825 74.1098 67.4034 74.0429 67.4369 73.9884C67.4787 73.9257 67.5122 73.8712 67.5541 73.8168C67.5959 73.7624 67.6503 73.7206 67.7048 73.6787C67.7592 73.6368 67.8136 73.6034 67.8638 73.5699C67.9266 73.528 67.9936 73.5071 68.0689 73.4862C68.1024 73.4736 68.1317 73.4527 68.1777 73.4443C71.7354 72.8249 75.2262 71.3557 78.2733 69.2127C78.3068 69.1918 78.3487 69.1793 78.3905 69.1583C78.4533 69.1248 78.5077 69.0955 78.5831 69.0746C78.6458 69.0537 78.7128 69.0411 78.7756 69.0411C78.8509 69.0286 78.9137 69.0286 78.9807 69.0286C79.056 69.0411 79.1188 69.0495 79.1858 69.0704C79.2486 69.0914 79.3155 69.1123 79.37 69.1458C79.4327 69.1793 79.4997 69.2211 79.5541 69.263C79.5876 69.2839 79.6295 69.2965 79.6504 69.3258L82.1366 71.812C83.9155 70.3764 85.5353 68.7565 86.9584 66.9902L84.4722 64.504C84.4387 64.4705 84.4303 64.4286 84.4094 64.3952C84.355 64.3324 84.3131 64.278 84.2796 64.211C84.2587 64.1482 84.2378 64.0812 84.2169 64.0185C84.2043 63.9557 84.1834 63.8887 84.1834 63.8259C84.1708 63.7506 84.1834 63.6878 84.1834 63.6208C84.1959 63.5455 84.2043 63.4827 84.2252 63.4157C84.2462 63.3529 84.2796 63.286 84.3089 63.2232C84.3424 63.1813 84.3424 63.1395 84.3717 63.106C86.4728 60.2766 87.9294 56.7942 88.5949 53.0356C88.5949 52.9937 88.6284 52.9602 88.6368 52.9268C88.6577 52.8514 88.6786 52.7886 88.7121 52.7217C88.7456 52.6589 88.7749 52.6045 88.821 52.55C88.8628 52.4956 88.9172 52.4538 88.9716 52.3994C89.0261 52.3575 89.0805 52.324 89.1307 52.2905C89.1935 52.2571 89.2479 52.2278 89.3232 52.2068C89.386 52.1859 89.453 52.1733 89.5283 52.165C89.5702 52.165 89.6037 52.1441 89.6455 52.1441H93.107C93.2452 51.0181 93.333 49.8838 93.333 48.6951C93.3163 47.5775 93.2199 46.4641 93.0901 45.3465ZM63.9463 68.2038C53.1766 68.2038 44.4246 59.4476 44.4246 48.6907C44.4246 37.9882 53.1808 29.2868 63.9463 29.2868C74.6404 29.2868 83.3501 37.9886 83.3501 48.6907C83.3501 59.4475 74.64 68.2038 63.9463 68.2038ZM63.9463 31.4298C54.3656 31.4298 46.5676 39.1648 46.5676 48.6907C46.5676 58.2714 54.3694 66.0608 63.9463 66.0608C73.4601 66.0608 81.2071 58.2715 81.2071 48.6907C81.2071 39.1644 73.4596 31.4298 63.9463 31.4298ZM76.9136 40.793C77.1815 40.9018 77.3866 41.1152 77.4912 41.3706C77.5457 41.5087 77.5749 41.6384 77.5749 41.7766V47.3266C77.5749 47.9168 77.0936 48.3981 76.5034 48.3981C75.9133 48.3981 75.4319 47.9168 75.4319 47.3266V44.3675L67.0734 52.726C66.6548 53.1446 65.981 53.1446 65.5623 52.726L61.2888 48.4526L52.0849 56.5097C51.8798 56.6813 51.6328 56.7776 51.3775 56.7776C51.0887 56.7776 50.7873 56.6479 50.5739 56.4009C50.1888 55.9614 50.2306 55.2875 50.6827 54.8899L60.636 46.1797C61.0545 45.803 61.6949 45.8282 62.1051 46.2341L66.3283 50.4574L73.9251 42.848L70.9659 42.8522C70.3674 42.8522 69.8944 42.3792 69.8944 41.7807C69.8944 41.1905 70.3674 40.7092 70.9659 40.7092H76.5076C76.6458 40.7092 76.7839 40.7427 76.9136 40.793Z"/>
</mask>
<path d="M63.9452 31.4294C54.3645 31.4294 46.5665 39.1644 46.5665 48.6903C46.5665 58.271 54.3683 66.0604 63.9452 66.0604C73.459 66.0604 81.2061 58.2711 81.2061 48.6903C81.2061 39.1639 73.4586 31.4294 63.9452 31.4294ZM76.5065 48.402C75.9163 48.402 75.435 47.9207 75.435 47.3305V44.3713L67.0764 52.7299C66.6578 53.1485 65.984 53.1485 65.5653 52.7299L61.2919 48.4565L52.0879 56.5136C51.8828 56.6852 51.6358 56.7815 51.3805 56.7815C51.0917 56.7815 50.7903 56.6517 50.5769 56.4048C50.1918 55.9653 50.2337 55.2914 50.6857 54.8938L60.639 46.1836C61.0575 45.8069 61.6979 45.832 62.1081 46.238L66.3314 50.4613L73.9281 42.8519H70.9647C70.3662 42.8519 69.8932 42.3789 69.8932 41.7804C69.8932 41.1902 70.3662 40.7089 70.9647 40.7089H76.5065C76.6446 40.7089 76.7869 40.7423 76.9125 40.7926C77.1803 40.9014 77.3854 41.1149 77.4901 41.3702C77.5445 41.5083 77.5738 41.6381 77.5738 41.7762V47.3263C77.578 47.9206 77.0924 48.402 76.5065 48.402ZM63.9452 31.4294C54.3645 31.4294 46.5665 39.1644 46.5665 48.6903C46.5665 58.271 54.3683 66.0604 63.9452 66.0604C73.459 66.0604 81.2061 58.2711 81.2061 48.6903C81.2061 39.1639 73.4586 31.4294 63.9452 31.4294ZM76.5065 48.402C75.9163 48.402 75.435 47.9207 75.435 47.3305V44.3713L67.0764 52.7299C66.6578 53.1485 65.984 53.1485 65.5653 52.7299L61.2919 48.4565L52.0879 56.5136C51.8828 56.6852 51.6358 56.7815 51.3805 56.7815C51.0917 56.7815 50.7903 56.6517 50.5769 56.4048C50.1918 55.9653 50.2337 55.2914 50.6857 54.8938L60.639 46.1836C61.0575 45.8069 61.6979 45.832 62.1081 46.238L66.3314 50.4613L73.9281 42.8519H70.9647C70.3662 42.8519 69.8932 42.3789 69.8932 41.7804C69.8932 41.1902 70.3662 40.7089 70.9647 40.7089H76.5065C76.6446 40.7089 76.7869 40.7423 76.9125 40.7926C77.1803 40.9014 77.3854 41.1149 77.4901 41.3702C77.5445 41.5083 77.5738 41.6381 77.5738 41.7762V47.3263C77.578 47.9206 77.0924 48.402 76.5065 48.402ZM93.0901 45.3465H89.6286C89.4905 45.3465 89.3607 45.313 89.231 45.2628C89.1891 45.2503 89.1557 45.221 89.1138 45.2C89.0385 45.1582 88.9757 45.1163 88.9087 45.0619C88.8668 45.0284 88.8459 44.9866 88.8124 44.9447C88.758 44.8819 88.7162 44.8275 88.6743 44.7522C88.6534 44.6977 88.6408 44.6433 88.6199 44.5931C88.6073 44.5513 88.578 44.5178 88.578 44.4634C87.9125 40.7006 86.4559 37.2182 84.3548 34.3929C84.3213 34.3595 84.3213 34.3176 84.292 34.2757C84.2585 34.213 84.2292 34.146 84.2083 34.0832C84.1874 34.0204 84.1748 33.9535 84.1665 33.8781C84.1665 33.8153 84.1539 33.7484 84.1665 33.673C84.1665 33.6102 84.1874 33.5433 84.1999 33.4805C84.2209 33.4177 84.2418 33.3507 84.2627 33.2879C84.2962 33.2252 84.3381 33.1707 84.3925 33.1038C84.4134 33.0703 84.426 33.0284 84.4553 32.9949L86.9415 30.5087C85.5184 28.7425 83.8986 27.1226 82.1197 25.687L79.6335 28.1732C79.5791 28.2276 79.5163 28.2569 79.441 28.3029C79.3991 28.3239 79.3656 28.3657 79.3238 28.3866C79.1856 28.4494 79.035 28.4829 78.8843 28.4829C78.7545 28.4829 78.6373 28.462 78.5076 28.4201C78.4741 28.3992 78.4448 28.3783 78.3988 28.3573C78.3443 28.3364 78.2899 28.3155 78.2397 28.282C75.4103 26.1809 71.9279 24.7243 68.1693 24.0588C68.1274 24.0462 68.0939 24.0253 68.0605 24.0169C67.9851 23.996 67.9223 23.9751 67.8554 23.9332C67.801 23.8997 67.7465 23.8704 67.6963 23.8244C67.6419 23.7825 67.5875 23.7407 67.5456 23.6863C67.5038 23.6318 67.4703 23.5774 67.4284 23.5146C67.395 23.4602 67.374 23.3974 67.3531 23.3305C67.3322 23.2677 67.3196 23.1924 67.3112 23.117C67.2987 23.0835 67.2903 23.0417 67.2903 22.9998V19.5509C64.9883 19.2704 62.6945 19.283 60.4846 19.5509V22.9998C60.4846 23.0417 60.4636 23.0835 60.4636 23.117C60.4511 23.1924 60.4427 23.2677 60.4218 23.3305C60.4008 23.3933 60.3799 23.4602 60.3381 23.5146C60.3046 23.5774 60.2753 23.6318 60.2292 23.6863C60.1874 23.7407 60.133 23.7825 60.0786 23.8244C60.0241 23.8662 59.9697 23.8997 59.9195 23.9332C59.8567 23.9751 59.7898 23.996 59.7144 24.0169C59.6726 24.0295 59.6391 24.0504 59.6056 24.0588C55.8428 24.7243 52.3604 26.1809 49.5352 28.282C49.4808 28.3155 49.4264 28.3364 49.3761 28.3573C49.3343 28.3783 49.3008 28.3992 49.2673 28.4201C49.1376 28.462 49.0203 28.4829 48.8906 28.4829C48.7399 28.4829 48.5892 28.4494 48.4511 28.3866C48.4093 28.3657 48.3758 28.3239 48.3339 28.3029C48.2586 28.2611 48.1958 28.2276 48.1288 28.1732L45.6551 25.687C43.8762 27.1226 42.2564 28.7425 40.8334 30.5087L43.307 32.9949C43.3405 33.0284 43.3489 33.0577 43.3824 33.0912C43.4242 33.154 43.4661 33.2084 43.4996 33.2754C43.5331 33.3382 43.554 33.4051 43.5624 33.4679C43.5833 33.5307 43.6042 33.5977 43.6042 33.6605C43.6168 33.7358 43.6042 33.7986 43.6042 33.8656C43.5917 33.9283 43.5833 33.9953 43.5624 34.0707C43.5414 34.1334 43.508 34.2004 43.4787 34.2632C43.4577 34.2967 43.4577 34.3385 43.4242 34.372C41.2938 37.4149 39.8246 40.9099 39.1927 44.4676C39.1927 44.522 39.1592 44.5513 39.1508 44.5974C39.1299 44.6518 39.1173 44.7062 39.088 44.7564C39.0545 44.8317 39.0127 44.8862 38.9583 44.9489C38.9248 44.9908 38.9039 45.0327 38.862 45.0661C38.7992 45.1206 38.7239 45.1624 38.6569 45.2043C38.6151 45.2252 38.5816 45.2587 38.5272 45.2671C38.41 45.3215 38.2802 45.3508 38.1421 45.3508H34.6806C34.5425 46.4642 34.4546 47.5775 34.4546 48.695C34.4546 49.8838 34.5383 51.0222 34.6806 52.144H38.1421C38.184 52.144 38.2174 52.1649 38.2593 52.1649C38.3346 52.1775 38.3974 52.1858 38.4644 52.2068C38.5272 52.2277 38.5941 52.2612 38.6569 52.2905C38.7113 52.324 38.7658 52.3533 38.816 52.3993C38.8704 52.4537 38.9123 52.4956 38.9667 52.5584C39.0085 52.6002 39.042 52.6546 39.0755 52.709C39.109 52.7844 39.1299 52.8472 39.1508 52.9225C39.1634 52.956 39.1927 52.9853 39.1927 53.0313C39.8247 56.589 41.2938 60.0798 43.4243 63.1269C43.4577 63.1604 43.4577 63.2023 43.4787 63.2357C43.5122 63.2985 43.5415 63.3655 43.5624 63.4283C43.5833 63.5036 43.5959 63.5664 43.6042 63.6334C43.6042 63.6962 43.6168 63.7631 43.6042 63.8385C43.6042 63.9013 43.5833 63.9682 43.5624 64.031C43.5498 64.0938 43.5289 64.1608 43.4996 64.2235C43.4661 64.2863 43.4243 64.3408 43.3824 64.4077C43.3489 64.4412 43.3405 64.4705 43.3071 64.504L40.8334 66.9902C42.2564 68.7565 43.8762 70.3764 45.6551 71.812L48.1288 69.3258C48.1623 69.2923 48.2042 69.2839 48.2376 69.263C48.2921 69.2211 48.3548 69.1793 48.4218 69.1458C48.4762 69.1123 48.539 69.0914 48.606 69.0704C48.6688 69.0495 48.7357 69.0369 48.8111 69.0286C48.8739 69.0286 48.9408 69.0286 49.0162 69.0411C49.0789 69.0411 49.1459 69.0621 49.2087 69.0746C49.2715 69.0955 49.3385 69.129 49.4012 69.1583C49.4431 69.1793 49.4766 69.1918 49.5184 69.2127C52.5613 71.3557 56.0563 72.8249 59.614 73.4443C59.6475 73.4569 59.6768 73.4778 59.7229 73.4862C59.7982 73.5071 59.861 73.528 59.928 73.5699C59.9824 73.6034 60.0368 73.6327 60.087 73.6787C60.1414 73.7206 60.1958 73.7624 60.2377 73.8168C60.2795 73.8712 60.313 73.9257 60.3465 73.9884C60.3884 74.0429 60.4093 74.1056 60.4302 74.1726C60.4511 74.2354 60.4637 74.3107 60.4721 74.3861C60.4721 74.4196 60.493 74.4614 60.493 74.5033V77.9522C62.6988 78.2201 64.9925 78.2327 67.2988 77.9522V74.5033C67.2988 74.4614 67.3113 74.4196 67.3197 74.3861C67.3322 74.3107 67.3406 74.2354 67.3615 74.1726C67.3825 74.1098 67.4034 74.0429 67.4369 73.9884C67.4787 73.9257 67.5122 73.8712 67.5541 73.8168C67.5959 73.7624 67.6503 73.7206 67.7048 73.6787C67.7592 73.6368 67.8136 73.6034 67.8638 73.5699C67.9266 73.528 67.9936 73.5071 68.0689 73.4862C68.1024 73.4736 68.1317 73.4527 68.1777 73.4443C71.7354 72.8249 75.2262 71.3557 78.2733 69.2127C78.3068 69.1918 78.3487 69.1793 78.3905 69.1583C78.4533 69.1248 78.5077 69.0955 78.5831 69.0746C78.6458 69.0537 78.7128 69.0411 78.7756 69.0411C78.8509 69.0286 78.9137 69.0286 78.9807 69.0286C79.056 69.0411 79.1188 69.0495 79.1858 69.0704C79.2486 69.0914 79.3155 69.1123 79.37 69.1458C79.4327 69.1793 79.4997 69.2211 79.5541 69.263C79.5876 69.2839 79.6295 69.2965 79.6504 69.3258L82.1366 71.812C83.9155 70.3764 85.5353 68.7565 86.9584 66.9902L84.4722 64.504C84.4387 64.4705 84.4303 64.4286 84.4094 64.3952C84.355 64.3324 84.3131 64.278 84.2796 64.211C84.2587 64.1482 84.2378 64.0812 84.2169 64.0185C84.2043 63.9557 84.1834 63.8887 84.1834 63.8259C84.1708 63.7506 84.1834 63.6878 84.1834 63.6208C84.1959 63.5455 84.2043 63.4827 84.2252 63.4157C84.2462 63.3529 84.2796 63.286 84.3089 63.2232C84.3424 63.1813 84.3424 63.1395 84.3717 63.106C86.4728 60.2766 87.9294 56.7942 88.5949 53.0356C88.5949 52.9937 88.6284 52.9602 88.6368 52.9268C88.6577 52.8514 88.6786 52.7886 88.7121 52.7217C88.7456 52.6589 88.7749 52.6045 88.821 52.55C88.8628 52.4956 88.9172 52.4538 88.9716 52.3994C89.0261 52.3575 89.0805 52.324 89.1307 52.2905C89.1935 52.2571 89.2479 52.2278 89.3232 52.2068C89.386 52.1859 89.453 52.1733 89.5283 52.165C89.5702 52.165 89.6037 52.1441 89.6455 52.1441H93.107C93.2452 51.0181 93.333 49.8838 93.333 48.6951C93.3163 47.5775 93.2199 46.4641 93.0901 45.3465ZM63.9463 68.2038C53.1766 68.2038 44.4246 59.4476 44.4246 48.6907C44.4246 37.9882 53.1808 29.2868 63.9463 29.2868C74.6404 29.2868 83.3501 37.9886 83.3501 48.6907C83.3501 59.4475 74.64 68.2038 63.9463 68.2038ZM63.9463 31.4298C54.3656 31.4298 46.5676 39.1648 46.5676 48.6907C46.5676 58.2714 54.3694 66.0608 63.9463 66.0608C73.4601 66.0608 81.2071 58.2715 81.2071 48.6907C81.2071 39.1644 73.4596 31.4298 63.9463 31.4298ZM76.9136 40.793C77.1815 40.9018 77.3866 41.1152 77.4912 41.3706C77.5457 41.5087 77.5749 41.6384 77.5749 41.7766V47.3266C77.5749 47.9168 77.0936 48.3981 76.5034 48.3981C75.9133 48.3981 75.4319 47.9168 75.4319 47.3266V44.3675L67.0734 52.726C66.6548 53.1446 65.981 53.1446 65.5623 52.726L61.2888 48.4526L52.0849 56.5097C51.8798 56.6813 51.6328 56.7776 51.3775 56.7776C51.0887 56.7776 50.7873 56.6479 50.5739 56.4009C50.1888 55.9614 50.2306 55.2875 50.6827 54.8899L60.636 46.1797C61.0545 45.803 61.6949 45.8282 62.1051 46.2341L66.3283 50.4574L73.9251 42.848L70.9659 42.8522C70.3674 42.8522 69.8944 42.3792 69.8944 41.7807C69.8944 41.1905 70.3674 40.7092 70.9659 40.7092H76.5076C76.6458 40.7092 76.7839 40.7427 76.9136 40.793Z" fill="white" stroke="black" stroke-width="2" mask="url(#path-12-inside-1_175_21)"/>
<path d="M40.8355 71.7929L40.8355 71.7929C40.2217 71.179 39.2313 71.1791 38.6174 71.7928L38.6173 71.7929L33.8667 76.5435H28.3335C27.6916 74.766 25.9997 73.4797 24.0034 73.4797C21.4044 73.4797 19.2593 75.5452 19.2593 78.115C19.2593 80.7287 21.3936 82.8466 24.0034 82.8466C26.0583 82.8466 27.7367 81.5331 28.3548 79.6865H34.5259C34.7407 79.6865 34.9464 79.6355 35.1176 79.5671L35.1176 79.5671L35.1252 79.5639C35.3233 79.4809 35.4885 79.3592 35.622 79.2364L35.6298 79.2292L35.6373 79.2217L40.8358 74.0148L40.8373 74.0134C41.4478 73.3967 41.4502 72.4077 40.8355 71.7929Z" fill="#5DB947" stroke="black"/>
<path d="M93.0043 17.8163L93.0043 17.8163L93.0015 17.8174C92.8752 17.8672 92.7541 17.9322 92.6426 18.017H92.6105L92.4635 18.1671L87.2566 23.4827L87.2566 23.4827L87.2515 23.488C86.658 24.112 86.6713 25.0998 87.2811 25.7097L87.2812 25.7097C87.5913 26.0199 88.0004 26.1575 88.3839 26.1575C88.7929 26.1575 89.2007 25.9986 89.5043 25.6837L94.2528 20.8418H99.7684C100.396 22.6766 102.091 24.0144 104.117 24.0144C106.68 24.0144 108.744 21.8686 108.744 19.2703V19.2694C108.74 16.7217 106.663 14.6434 104.117 14.6434C102.111 14.6434 100.425 15.9208 99.7865 17.6989H93.595H93.5824C93.3616 17.6989 93.1681 17.7529 93.0043 17.8163Z" fill="#5DB947" stroke="black"/>
<path d="M38.6007 25.6846L38.6007 25.6846L38.6046 25.6885C38.9135 25.9975 39.3218 26.1573 39.7283 26.1573C40.118 26.1573 40.5122 26.016 40.8239 25.7165L40.824 25.7165L40.8293 25.7112C41.4462 25.1005 41.4597 24.1073 40.8473 23.4824C40.8473 23.4824 40.8472 23.4823 40.8472 23.4823L35.6481 18.1746C35.4858 17.9956 35.2863 17.8861 35.1212 17.8196C34.9372 17.743 34.735 17.6986 34.534 17.6986H34.5215H28.3291C27.6868 15.9208 25.9939 14.6431 23.999 14.6431C21.4007 14.6431 19.2549 16.7079 19.2549 19.2701C19.2549 21.8389 21.4157 24.0142 23.999 24.0142C26.0198 24.0142 27.7094 22.6741 28.3458 20.8416H33.8633L38.6007 25.6846Z" fill="#5DB947" stroke="black"/>
<path d="M29.7666 47.1185H23.5743C22.9331 45.3412 21.2474 44.063 19.2441 44.063C16.6468 44.063 14.5 46.1143 14.5 48.69C14.5 51.2617 16.6762 53.4216 19.2441 53.4216C21.2691 53.4216 22.9643 52.0852 23.5923 50.2615H29.7666C30.6438 50.2615 31.3381 49.5537 31.3381 48.69C31.3381 47.8262 30.6438 47.1185 29.7666 47.1185Z" fill="#5DB947" stroke="black"/>
<path d="M89.5041 71.7929L89.5045 71.7933L94.2425 76.5435H100.235C100.874 74.7651 102.571 73.4797 104.566 73.4797C107.124 73.4797 109.193 75.5589 109.189 78.1118M89.5041 71.7929L108.689 78.1109M89.5041 71.7929C88.8902 71.179 87.8873 71.1791 87.2734 71.7928C86.6594 72.4067 86.6596 73.3972 87.2733 74.011L87.2734 74.011L92.4802 79.2179C92.6076 79.3452 92.7808 79.4811 93.0028 79.5643M89.5041 71.7929L93.0028 79.5643M109.189 78.1118L108.689 78.1109M109.189 78.1118C109.189 78.1115 109.189 78.1112 109.189 78.1109H108.689M109.189 78.1118C109.188 80.7443 107.164 82.8425 104.562 82.8425C102.506 82.8425 100.828 81.5281 100.203 79.6824M108.689 78.1109C108.689 80.4799 106.876 82.3425 104.562 82.3425C102.611 82.3425 101.037 81.0157 100.577 79.1824M100.203 79.6824H100.577V79.1824M100.203 79.6824H93.5914C93.3867 79.6824 93.1868 79.6399 93.0028 79.5643M100.203 79.6824C100.161 79.5587 100.124 79.4325 100.092 79.3042L100.577 79.1824M100.577 79.1824L93.0028 79.5643" fill="#5DB947" stroke="black"/>
<path d="M108.864 44.0681C106.871 44.0681 105.173 45.3448 104.534 47.1236H98.342C97.4757 47.1236 96.7705 47.8288 96.7705 48.6951C96.7705 49.5614 97.4757 50.2666 98.342 50.2666H104.518C105.155 52.0918 106.845 53.4267 108.864 53.4267C111.432 53.4267 113.5 51.296 113.5 48.6951C113.5 46.132 111.42 44.0681 108.864 44.0681Z" fill="#5DB947" stroke="black"/>
</svg>
