<svg width="128" height="100" viewBox="0 0 128 100" fill="none" xmlns="http://www.w3.org/2000/svg">
<path d="M20.1541 81.847C20.2528 81.945 20.3866 82 20.5261 82C20.6657 82 20.7995 81.945 20.8982 81.847L23.5032 79.261L26.1081 81.847C26.2074 81.9422 26.3403 81.9949 26.4783 81.9937C26.6163 81.9925 26.7483 81.9375 26.8459 81.8407C26.9434 81.7438 26.9988 81.6128 27 81.4758C27.0012 81.3388 26.9481 81.2069 26.8523 81.1083L23.8752 78.153C23.7766 78.055 23.6427 78 23.5032 78C23.3636 78 23.2298 78.055 23.1311 78.153L20.1541 81.1083C20.0554 81.2063 20 81.3392 20 81.4777C20 81.6162 20.0554 81.7491 20.1541 81.847Z" fill="#5DB947"/>
<path d="M13.1541 32.847C13.2528 32.945 13.3866 33 13.5261 33C13.6657 33 13.7995 32.945 13.8982 32.847L16.5032 30.261L19.1081 32.847C19.2074 32.9422 19.3403 32.9949 19.4783 32.9937C19.6163 32.9925 19.7483 32.9375 19.8459 32.8407C19.9434 32.7438 19.9988 32.6128 20 32.4758C20.0012 32.3388 19.9481 32.2069 19.8523 32.1083L16.8752 29.153C16.7766 29.055 16.6427 29 16.5032 29C16.3636 29 16.2298 29.055 16.1311 29.153L13.1541 32.1083C13.0554 32.2063 13 32.3392 13 32.4777C13 32.6162 13.0554 32.7491 13.1541 32.847Z" fill="#5DB947"/>
<path d="M104.154 21.847C104.253 21.945 104.387 22 104.526 22C104.666 22 104.8 21.945 104.898 21.847L107.503 19.261L110.108 21.847C110.207 21.9422 110.34 21.9949 110.478 21.9937C110.616 21.9925 110.748 21.9375 110.846 21.8407C110.943 21.7438 110.999 21.6128 111 21.4758C111.001 21.3388 110.948 21.2069 110.852 21.1083L107.875 18.153C107.777 18.055 107.643 18 107.503 18C107.364 18 107.23 18.055 107.131 18.153L104.154 21.1083C104.055 21.2063 104 21.3392 104 21.4777C104 21.6162 104.055 21.7491 104.154 21.847Z" fill="#5DB947"/>
<path d="M46.6809 71.6037C46.9217 70.7474 48.2239 71.1137 47.9832 71.9683L46.118 78.5574C45.8721 79.4171 44.5699 79.0474 44.8107 78.1929L46.6809 71.6037ZM28.0563 52.177C28.9126 51.9278 29.2873 53.2249 28.4361 53.4742L21.8605 55.3784C21.0043 55.6276 20.6295 54.3305 21.4807 54.0812L28.0563 52.177ZM35.2864 63.8666C35.9155 63.2375 36.8718 64.1888 36.2478 64.8179L32.0274 69.062C31.4018 69.6961 30.442 68.7398 31.0711 68.1107L35.2864 63.8666ZM71.1995 10.4378C70.9587 11.2975 69.6514 10.9329 69.8973 10.0733L71.7625 3.4892C72.0032 2.62952 73.3055 2.99916 73.0647 3.85375L71.1995 10.4378ZM89.819 29.8696C88.9628 30.1188 88.588 28.8166 89.4443 28.5724L96.0199 26.6648C96.8711 26.419 97.2509 27.7178 96.3946 27.962L89.819 29.8696ZM82.5906 18.18C81.965 18.8091 81.0052 17.8578 81.6343 17.2237L85.8496 12.9795C86.4787 12.3505 87.435 13.3017 86.811 13.9359L82.5906 18.18Z" fill="#C8F4BD"/>
<path d="M57.9249 64.882V52.2751C51.7478 51.8851 46.861 46.7525 46.861 40.4753C46.861 33.9489 52.153 28.6518 58.6845 28.6518C64.9803 28.6518 70.1231 33.5741 70.4894 39.7733H83.0878V36.7551C83.0878 36.2413 82.6656 35.8124 82.1501 35.8124H77.6941C77.3956 35.8124 77.1277 35.6208 77.0412 35.3172C76.6377 33.876 76.0612 32.4856 75.3304 31.1749C75.1625 30.9154 75.1913 30.5644 75.4219 30.3338L78.5758 27.18C78.9403 26.8154 78.9403 26.2186 78.5758 25.854L73.3126 20.5857C72.948 20.2212 72.3461 20.2212 71.9815 20.5857L68.8277 23.7396C68.6208 23.9515 68.2902 24.0041 68.0206 23.8549C66.7133 23.119 65.3246 22.5425 63.8867 22.1338C63.5798 22.066 63.3492 21.7981 63.3492 21.4709V17.0097C63.3492 16.4959 62.927 16.072 62.4064 16.072H54.966C54.4472 16.072 54.0233 16.4942 54.0233 17.0097V21.4709C54.0233 21.7981 53.7927 22.0677 53.4858 22.1338C52.0479 22.5425 50.6592 23.119 49.3519 23.8549C49.0823 24.0041 48.7516 23.9515 48.5448 23.7396L45.3909 20.5857C45.0264 20.2212 44.4244 20.2212 44.0599 20.5857L38.795 25.854C38.4304 26.2186 38.4304 26.8154 38.795 27.18L41.9488 30.3338C42.1794 30.5644 42.2082 30.9154 42.0455 31.1749C41.3079 32.4873 40.7314 33.876 40.3278 35.3189C40.2413 35.6224 39.9717 35.8141 39.6733 35.8141H35.2189C34.7052 35.8141 34.2812 36.2413 34.2812 36.7568V44.2023C34.2812 44.716 34.7035 45.1399 35.2189 45.1399L39.675 45.145C39.9734 45.145 40.243 45.3366 40.3295 45.635C40.7331 47.0814 41.3096 48.4701 42.0455 49.7774C42.2082 50.042 42.1794 50.3929 41.9488 50.6236L38.795 53.7774C38.4304 54.1419 38.4304 54.7388 38.795 55.1034L44.0582 60.3665C44.4227 60.7311 45.0247 60.7311 45.3892 60.3665L48.5431 57.2127C48.7499 57.0058 49.0806 56.9533 49.3502 57.1025C50.6575 57.8384 52.0462 58.4149 53.4841 58.8235C53.791 58.8863 54.0216 59.1593 54.0216 59.4865V63.9426C54.0216 64.4614 54.4438 64.8853 54.9643 64.8853H57.9249V64.882Z" fill="#C8F4BD"/>
<path d="M87.8432 79.2758H96.0856C98.1288 79.2758 99.7956 77.6039 99.7956 75.5658V66.8232C99.7956 64.1119 103.117 63.2861 104.655 65.3819C105.491 66.5214 106.319 67.1742 107.092 67.4489C110.822 68.7562 113.898 60.8648 110.595 56.0052C109.796 54.8318 108.576 53.9145 107.105 54.4283C106.327 54.6979 105.495 55.3507 104.648 56.485C102.956 58.7639 99.7939 58.0382 99.7939 55.1252V46.6556C99.7939 44.6174 98.1254 42.9456 96.0839 42.9456H67.1211C65.083 42.9456 63.4111 44.6174 63.4111 46.6556V75.5658C63.4111 77.6039 65.083 79.2758 67.1211 79.2758H75.7196C78.6852 79.2758 79.5415 82.5195 77.3389 84.1591C76.1995 85.0053 75.5517 85.831 75.277 86.611C73.9697 90.36 81.8713 93.3884 86.7072 90.1057C87.8805 89.307 88.8029 88.0828 88.2892 86.611C88.0196 85.8327 87.3668 85.0053 86.2324 84.1591C83.9789 82.4805 84.8963 79.2758 87.8432 79.2758Z" fill="#C8F4BD"/>
<path d="M60.1578 53.1721V53.6415V66.2484V66.2518V66.7518H59.6578H56.6973C55.9 66.7518 55.2545 66.1035 55.2545 65.309V60.853C55.2545 60.7655 55.1932 60.6955 55.1169 60.6799L55.0984 60.6761L55.0803 60.6709C53.6057 60.2519 52.1812 59.6607 50.8399 58.9058M60.1578 53.1721L36.9518 47.0064L41.4073 47.0115H41.4079C41.4906 47.0115 41.5587 47.0623 41.5817 47.139M60.1578 53.1721L59.6893 53.1425M60.1578 53.1721L59.6893 53.1425M50.8399 58.9058C50.8392 58.9055 50.8385 58.9051 50.8378 58.9047L51.0831 58.4689M50.8399 58.9058C50.8403 58.906 50.8406 58.9062 50.841 58.9064L51.0831 58.4689M50.8399 58.9058C50.7672 58.8662 50.6798 58.8825 50.6295 58.9327L47.4757 62.0866C46.9159 62.6464 45.9973 62.6464 45.4375 62.0866L40.1743 56.8234C39.6145 56.2635 39.6145 55.3501 40.1743 54.7903L43.3282 51.6365C43.3876 51.577 43.3996 51.4823 43.3525 51.4059L43.3474 51.3976L43.3427 51.3892C42.5878 50.0481 41.9961 48.6233 41.5817 47.139M51.0831 58.4689C52.3904 59.2048 53.7791 59.7813 55.217 60.19C55.5239 60.2527 55.7545 60.5257 55.7545 60.853V65.309C55.7545 65.8279 56.1767 66.2518 56.6973 66.2518H59.1578H59.6578V66.2484V65.7518V53.6415C53.4807 53.2515 48.5939 48.1189 48.5939 41.8418C48.5939 35.3153 53.8859 30.0182 60.4174 30.0182C66.7133 30.0182 71.8561 34.9406 72.2223 41.1398L51.0831 58.4689ZM41.5817 47.139C41.5814 47.138 41.5811 47.1369 41.5808 47.1359L42.0624 47.0015L41.5822 47.1407C41.582 47.1401 41.5819 47.1396 41.5817 47.139ZM59.6893 53.1425C53.774 52.7691 49.0939 47.8535 49.0939 41.8418C49.0939 35.5913 54.1622 30.5182 60.4174 30.5182C66.4466 30.5182 71.3724 35.2324 71.7232 41.1693L71.751 41.6398M59.6893 53.1425L71.751 41.6398M71.751 41.6398H72.2223M71.751 41.6398H72.2223M72.2223 41.6398H84.8207H85.3207M72.2223 41.6398H85.3207M85.3207 41.6398V41.1398M85.3207 41.6398V41.1398M85.3207 41.1398V38.1216C85.3207 37.3358 84.6787 36.6788 83.883 36.6788H79.427C79.3471 36.6788 79.279 36.6308 79.255 36.5467L78.7742 36.6837L79.2556 36.5489C78.8413 35.069 78.2495 33.6422 77.5 32.2978L77.492 32.2835M85.3207 41.1398L77.492 32.2835M77.492 32.2835L77.4831 32.2697M77.492 32.2835L77.4831 32.2697M77.4831 32.2697C77.441 32.2047 77.4475 32.1148 77.5084 32.0538L80.6622 28.9C81.222 28.3402 81.2221 27.4269 80.6624 26.8671C80.6624 26.867 80.6623 26.867 80.6622 26.8669L75.3992 21.5988L75.3991 21.5986M77.4831 32.2697L75.3991 21.5986M75.3991 21.5986C74.8392 21.0388 73.9207 21.0388 73.3609 21.5986L70.2071 24.7525L70.207 24.7525M75.3991 21.5986L70.207 24.7525M70.207 24.7525L70.2028 24.7568M70.207 24.7525L70.2028 24.7568M70.2028 24.7568C70.1532 24.8076 70.0687 24.8237 69.9967 24.7845M70.2028 24.7568L65.742 23.0153M65.742 23.0153L65.7563 23.0193C67.2309 23.4384 68.6554 24.0297 69.9967 24.7845M65.742 23.0153L65.7275 23.0121M65.742 23.0153L65.7275 23.0121M69.9967 24.7845C69.9974 24.7849 69.9981 24.7853 69.9988 24.7856L69.7535 25.2213L69.9956 24.7839C69.996 24.7841 69.9964 24.7843 69.9967 24.7845ZM65.7275 23.0121C65.6385 22.9924 65.5821 22.9188 65.5821 22.8373V18.3762C65.5821 17.5851 64.9348 16.9385 64.1393 16.9385H56.699C55.9063 16.9385 55.2562 17.5822 55.2562 18.3762V22.8373C55.2562 22.9207 55.1982 22.9932 55.1134 23.0115L55.0976 23.0149M65.7275 23.0121L55.0976 23.0149M55.0976 23.0149L55.082 23.0193L55.0976 23.0149ZM50.6355 24.7568L50.6355 24.7568C50.6851 24.8076 50.7696 24.8237 50.8416 24.7845C50.8419 24.7843 50.8423 24.7841 50.8427 24.7839L51.0848 25.2213L50.6355 24.7568ZM50.6355 24.7568L50.6312 24.7525M50.6355 24.7568L50.6312 24.7525M50.6312 24.7525L47.4774 21.5986C46.9176 21.0388 45.999 21.0388 45.4392 21.5986L45.4391 21.5988M50.6312 24.7525L45.4391 21.5988M45.4391 21.5988L40.1743 26.8669C39.6145 27.4267 39.6145 28.3402 40.1743 28.9L43.3282 32.0538C43.3893 32.115 43.3972 32.2081 43.3548 32.2756L43.3484 32.2858M45.4391 21.5988L43.3484 32.2858M43.3484 32.2858L43.3425 32.2963M43.3484 32.2858L43.3425 32.2963M43.3425 32.2963C42.5858 33.6428 41.9939 35.0681 41.5795 36.5496M43.3425 32.2963L41.5795 36.5496M41.5795 36.5496C41.5557 36.6315 41.4872 36.6805 41.4062 36.6805H36.9518C36.159 36.6805 35.5142 37.3346 35.5142 38.1233V45.5687C35.5142 46.3579 36.1593 47.0061 36.9513 47.0064L41.5795 36.5496Z" fill="white" stroke="black"/>
<path d="M49.831 72.8373L49.8311 72.8368L48.0476 72.3366L47.5666 72.2001L47.5665 72.2005C47.5665 72.2007 47.5664 72.201 47.5663 72.2013L45.6964 78.7892L45.6961 78.7902C45.5984 79.1371 45.6527 79.4701 45.8265 79.737C45.9932 79.993 46.2493 80.158 46.5131 80.2322C46.777 80.3065 47.0818 80.2992 47.358 80.1676C47.6457 80.0304 47.8662 79.7748 47.9654 79.4278L47.9658 79.4265L49.831 72.8373ZM29.9419 54.6874L29.9433 54.687C30.2888 54.5858 30.5419 54.3635 30.6762 54.0754C30.8051 53.7989 30.8098 53.4948 30.7333 53.2319C30.6569 52.9691 30.4896 52.7146 30.2316 52.5505C29.9627 52.3795 29.6292 52.3292 29.2833 52.4299L22.7083 54.3339L22.7069 54.3343C22.3615 54.4354 22.1083 54.6577 21.974 54.9458C21.8452 55.2223 21.8405 55.5265 21.9169 55.7893C21.9934 56.0521 22.1606 56.3066 22.4187 56.4707C22.6875 56.6417 23.021 56.6921 23.367 56.5914L29.9419 54.6874ZM36.2996 64.246L36.2983 64.2472L32.0843 68.4901C32.084 68.4904 32.0837 68.4907 32.0833 68.491C31.8289 68.7459 31.7137 69.0628 31.735 69.3803C31.7554 69.6853 31.8986 69.9541 32.0927 70.1473C32.2867 70.3405 32.5563 70.4826 32.8617 70.5013C33.1798 70.5208 33.496 70.4032 33.7493 70.1468C33.7495 70.1466 33.7498 70.1463 33.7501 70.146L37.9691 65.9033L37.9695 65.9029C38.2229 65.6475 38.337 65.3306 38.3148 65.0134C38.2935 64.7091 38.15 64.441 37.9558 64.2484C37.7616 64.0557 37.4924 63.9144 37.1877 63.8953C36.8704 63.8754 36.5541 63.9914 36.2996 64.246ZM74.9125 4.72294L74.9126 4.72226C75.0104 4.37531 74.956 4.0424 74.7825 3.77562C74.6159 3.51967 74.3601 3.3546 74.0965 3.28029C73.8329 3.20597 73.5281 3.21305 73.2521 3.34527C72.9644 3.48303 72.7451 3.73965 72.6478 4.08697C72.6477 4.08706 72.6477 4.08716 72.6477 4.08726L70.7833 10.6687C70.7832 10.6689 70.7831 10.6691 70.7831 10.6693C70.684 11.0165 70.7365 11.3504 70.9102 11.6185C71.0769 11.8759 71.3338 12.0409 71.5981 12.1148C71.8623 12.1886 72.1672 12.1805 72.4431 12.048C72.7304 11.9101 72.9501 11.6536 73.0476 11.3059C73.0476 11.3058 73.0476 11.3057 73.0477 11.3056L74.9125 4.72294ZM97.2479 26.9174L97.2473 26.9176L90.6739 28.8245C90.6734 28.8246 90.673 28.8248 90.6725 28.8249C90.3262 28.924 90.0714 29.1448 89.9356 29.4329C89.8052 29.7095 89.7998 30.0142 89.8757 30.2774C89.9516 30.5407 90.1185 30.7958 90.3763 30.9606C90.6451 31.1324 90.9789 31.1834 91.3255 31.0825L97.8984 29.1757C97.8989 29.1756 97.8994 29.1755 97.8998 29.1753C98.246 29.0762 98.5008 28.8556 98.6363 28.5672C98.7664 28.2903 98.7708 27.9857 98.6944 27.723C98.6181 27.4604 98.4513 27.2061 98.1946 27.0415C97.927 26.8699 97.594 26.8174 97.2479 26.9174ZM84.3119 19.2655L84.3119 19.2655L88.5323 15.0213L88.5341 15.0195C88.7866 14.7629 88.9001 14.4457 88.878 14.1286C88.8568 13.8241 88.7137 13.5556 88.5195 13.3624C88.3253 13.1693 88.056 13.0275 87.7512 13.0083C87.4336 12.9883 87.1173 13.1044 86.8628 13.3589L86.8616 13.3601L82.6463 17.6042L82.646 17.6045C82.3921 17.8604 82.2769 18.1775 82.2982 18.4954C82.3186 18.8006 82.4618 19.0695 82.6559 19.2628C82.85 19.456 83.1193 19.5978 83.424 19.6171C83.7415 19.6371 84.0579 19.5208 84.3119 19.2655Z" fill="white" stroke="black"/>
<path d="M106.924 69.6529L106.926 69.6536C108.058 70.0503 109.13 69.7326 109.997 69.0134C110.85 68.3054 111.523 67.2 111.954 65.9336C112.814 63.4057 112.768 60.0463 111.009 57.457L111.008 57.4568C110.171 56.2259 108.743 55.0599 106.942 55.6887C106.035 56.003 105.128 56.7394 104.248 57.919L104.247 57.9199C103.507 58.9159 102.494 59.2044 101.712 59.0011C100.953 58.8034 100.294 58.1103 100.294 56.8581V48.3885C100.294 46.0745 98.4019 44.1785 96.0839 44.1785H67.1211C64.8069 44.1785 62.9111 46.0742 62.9111 48.3885V77.2987C62.9111 79.613 64.8069 81.5087 67.1211 81.5087H75.7196C76.998 81.5087 77.7481 82.1904 77.989 82.9812C78.2341 83.7856 77.9805 84.7911 77.0403 85.491C75.855 86.3713 75.1249 87.2708 74.8054 88.1778L74.8049 88.1793C74.4089 89.3151 74.7265 90.3874 75.4471 91.2531C76.1561 92.1047 77.2624 92.7747 78.5285 93.2019C81.0557 94.0546 84.4111 94.0015 86.988 92.2523L86.9885 92.2519C88.2187 91.4146 89.3906 89.9841 88.7616 88.1803C88.4471 87.2723 87.71 86.3704 86.5313 85.4913L86.5311 85.4911C85.5627 84.7697 85.3165 83.7645 85.5649 82.97C85.8104 82.1847 86.5702 81.5087 87.8432 81.5087H96.0856C98.4054 81.5087 100.296 79.6125 100.296 77.2987V68.5561C100.296 67.4391 100.962 66.7418 101.782 66.5147C102.615 66.2838 103.612 66.539 104.252 67.4106C105.123 68.5971 106.024 69.333 106.924 69.6529Z" fill="#5DB947" stroke="black"/>
<path d="M115.154 51.847C115.253 51.945 115.387 52 115.526 52C115.666 52 115.8 51.945 115.898 51.847L118.503 49.261L121.108 51.847C121.207 51.9422 121.34 51.9949 121.478 51.9937C121.616 51.9925 121.748 51.9375 121.846 51.8407C121.943 51.7438 121.999 51.6128 122 51.4758C122.001 51.3388 121.948 51.2069 121.852 51.1083L118.875 48.153C118.777 48.055 118.643 48 118.503 48C118.364 48 118.23 48.055 118.131 48.153L115.154 51.1083C115.055 51.2063 115 51.3392 115 51.4777C115 51.6162 115.055 51.7491 115.154 51.847Z" fill="#5DB947"/>
</svg>
