<svg width="128" height="100" viewBox="0 0 128 100" fill="none" xmlns="http://www.w3.org/2000/svg">
<path d="M3.15408 45.847C3.25277 45.945 3.3866 46 3.52614 46C3.66569 46 3.79952 45.945 3.89821 45.847L6.50318 43.261L9.10815 45.847C9.2074 45.9422 9.34033 45.9949 9.47832 45.9937C9.6163 45.9925 9.74829 45.9375 9.84586 45.8407C9.94344 45.7438 9.99878 45.6128 9.99998 45.4758C10.0012 45.3388 9.94814 45.2069 9.85227 45.1083L6.87524 42.153C6.77655 42.055 6.64272 42 6.50318 42C6.36363 42 6.2298 42.055 6.13111 42.153L3.15408 45.1083C3.05542 45.2063 3 45.3392 3 45.4777C3 45.6162 3.05542 45.7491 3.15408 45.847Z" fill="#5DB947"/>
<path d="M13.1541 74.847C13.2528 74.945 13.3866 75 13.5261 75C13.6657 75 13.7995 74.945 13.8982 74.847L16.5032 72.261L19.1081 74.847C19.2074 74.9422 19.3403 74.9949 19.4783 74.9937C19.6163 74.9925 19.7483 74.9375 19.8459 74.8407C19.9434 74.7438 19.9988 74.6128 20 74.4758C20.0012 74.3388 19.9481 74.2069 19.8523 74.1083L16.8752 71.153C16.7766 71.055 16.6427 71 16.5032 71C16.3636 71 16.2298 71.055 16.1311 71.153L13.1541 74.1083C13.0554 74.2063 13 74.3392 13 74.4777C13 74.6162 13.0554 74.7491 13.1541 74.847Z" fill="#5DB947"/>
<path d="M119.154 39.847C119.253 39.945 119.387 40 119.526 40C119.666 40 119.8 39.945 119.898 39.847L122.503 37.261L125.108 39.847C125.207 39.9422 125.34 39.9949 125.478 39.9937C125.616 39.9925 125.748 39.9375 125.846 39.8407C125.943 39.7438 125.999 39.6128 126 39.4758C126.001 39.3388 125.948 39.2069 125.852 39.1083L122.875 36.153C122.777 36.055 122.643 36 122.503 36C122.364 36 122.23 36.055 122.131 36.153L119.154 39.1083C119.055 39.2063 119 39.3392 119 39.4777C119 39.6162 119.055 39.7491 119.154 39.847Z" fill="#5DB947"/>
<path d="M113.154 90.847C113.253 90.945 113.387 91 113.526 91C113.666 91 113.8 90.945 113.898 90.847L116.503 88.261L119.108 90.847C119.207 90.9422 119.34 90.9949 119.478 90.9937C119.616 90.9925 119.748 90.9375 119.846 90.8407C119.943 90.7438 119.999 90.6128 120 90.4758C120.001 90.3388 119.948 90.2069 119.852 90.1083L116.875 87.153C116.777 87.055 116.643 87 116.503 87C116.364 87 116.23 87.055 116.131 87.153L113.154 90.1083C113.055 90.2063 113 90.3392 113 90.4777C113 90.6162 113.055 90.7491 113.154 90.847Z" fill="#5DB947"/>
<path d="M70.4944 83.2413C65.8709 82.3997 62.7966 77.9635 63.6311 73.3507C64.2028 70.2196 66.4267 67.7551 69.3031 66.791L72.0072 61.7591L68.0531 57.6284C67.6989 57.6097 67.3367 57.568 66.9789 57.5005C64.7586 57.101 62.8162 55.852 61.5209 53.977C60.2221 52.1109 59.7303 49.8524 60.1342 47.6162C60.8737 43.56 64.3928 40.6188 68.5023 40.6188C69.0048 40.6188 69.5081 40.6623 70.0221 40.7555C72.167 41.1426 74.0597 42.3553 75.3363 44.0624L80.9772 45.0825L83.7319 39.9556C83.4159 38.7634 83.3546 37.501 83.5757 36.2723C84.3143 32.2161 87.8298 29.2749 91.9402 29.2749C92.4391 29.2749 92.946 29.3211 93.46 29.4099C93.6083 29.4383 93.7495 29.4995 93.8977 29.5342C93.8977 24.6923 93.8977 21.5576 93.8977 21.5576C93.8977 13.5171 78.4754 7 59.4489 7C40.4232 7.00089 25 13.5189 25 21.5594C25 21.5594 25 34.1257 25 47.8496C25 61.5736 39.428 81.0334 59.4489 89.3367C63.3914 87.7032 67.1085 85.6187 70.5566 83.2466C70.537 83.2431 70.5175 83.2449 70.4944 83.2413Z" fill="#C8F4BD"/>
<path d="M115.747 54.2469C115.127 53.3493 114.189 52.7483 113.119 52.5539C111.481 52.253 109.931 52.9729 109.062 54.1838L98.3204 52.2379L96.8236 41.2029C97.7567 40.6126 98.4314 39.6565 98.6364 38.5183C98.8309 37.4424 98.5947 36.354 97.9697 35.4573C97.3492 34.5607 96.4153 33.9588 95.3411 33.7661C93.0746 33.3604 90.9883 34.8723 90.588 37.0589C90.39 38.1694 90.6688 39.2836 91.3088 40.1572L86.0142 50.0096L75.1089 48.0325C74.7014 46.573 73.4905 45.395 71.8978 45.1073C69.6545 44.7034 67.5487 46.2162 67.1518 48.4018C66.7479 50.623 68.2296 52.7537 70.4428 53.1523C71.1246 53.2783 71.7878 53.2188 72.4154 53.0076L80.0866 61.025L74.8417 70.7797C72.7963 70.6918 71.0101 72.1318 70.6443 74.1373C70.2448 76.3522 71.7221 78.4846 73.9388 78.8895C76.2017 79.2934 78.2924 77.7771 78.6892 75.595C78.7354 75.3544 78.754 75.1165 78.7496 74.8759L88.737 70.0633L96.496 78.1748C96.3087 78.5326 96.1764 78.9232 96.1001 79.3334C95.9057 80.4093 96.1383 81.4951 96.7668 82.3935C97.3829 83.2884 98.3204 83.8911 99.3946 84.0847C99.6423 84.13 99.8864 84.153 100.126 84.153C102.106 84.153 103.798 82.7397 104.148 80.7937C104.342 79.7195 104.106 78.6338 103.481 77.7354C103.005 77.05 102.346 76.5351 101.58 76.2457L100.004 64.632L109.956 59.8407C110.453 60.2215 111.035 60.4843 111.659 60.5988C111.907 60.645 112.147 60.6654 112.387 60.6654C114.364 60.6654 116.055 59.2503 116.405 57.3061C116.604 56.2293 116.371 55.1435 115.747 54.2469Z" fill="#C8F4BD"/>
<path d="M71.996 86.1334C68.8981 88.1875 65.5933 90.0005 62.1125 91.4584C52.2686 87.3331 43.7934 80.487 37.7702 72.9764C31.6993 65.4063 28.1636 57.2183 28.1636 50.513V50.4326V50.3522V50.2719V50.1915V50.1112V50.031V49.9508V49.8706V49.7904V49.7102V49.6301V49.5501V49.47V49.39V49.31V49.2301V49.1502V49.0703V48.9905V48.9107V48.8309V48.7512V48.6715V48.5918V48.5122V48.4327V48.3531V48.2736V48.1942V48.1148V48.0354V47.9561V47.8768V47.7976V47.7184V47.6392V47.5601V47.481V47.402V47.3231V47.2441V47.1653V47.0864V47.0076V46.9289V46.8502V46.7716V46.693V46.6145V46.536V46.4576V46.3792V46.3009V46.2226V46.1444V46.0663V45.9882V45.9101V45.8321V45.7542V45.6763V45.5985V45.5207V45.443V45.3654V45.2878V45.2103V45.1328V45.0554V44.9781V44.9008V44.8236V44.7464V44.6693V44.5923V44.5154V44.4385V44.3616V44.2849V44.2082V44.1315V44.055V43.9785V43.9021V43.8257V43.7494V43.6732V43.5971V43.521V43.445V43.3691V43.2932V43.2174V43.1417V43.0661V42.9905V42.9151V42.8396V42.7643V42.6891V42.6139V42.5388V42.4638V42.3888V42.314V42.2392V42.1645V42.0899V42.0153V41.9409V41.8665V41.7922V41.718V41.6439V41.5699V41.4959V41.422V41.3483V41.2746V41.201V41.1274V41.054V40.9807V40.9074V40.8343V40.7612V40.6882V40.6153V40.5425V40.4698V40.3972V40.3247V40.2523V40.1799V40.1077V40.0355V39.9635V39.8915V39.8197V39.7479V39.6763V39.6047V39.5333V39.4619V39.3906V39.3195V39.2484V39.1775V39.1066V39.0359V38.9652V38.8947V38.8242V38.7539V38.6836V38.6135V38.5435V38.4736V38.4038V38.3341V38.2645V38.195V38.1256V38.0564V37.9872V37.9182V37.8492V37.7804V37.7117V37.6431V37.5746V37.5062V37.438V37.3698V37.3018V37.2339V37.1661V37.0984V37.0309V36.9634V36.8961V36.8289V36.7618V36.6949V36.628V36.5613V36.4947V36.4282V36.3619V36.2956V36.2295V36.1635V36.0977V36.0319V35.9663V35.9008V35.8355V35.7702V35.7051V35.6401V35.5753V35.5106V35.446V35.3815V35.3172V35.253V35.1889V35.125V35.0612V34.9975V34.934V34.8706V34.8073V34.7442V34.6812V34.6183V34.5556V34.493V34.4305V34.3682V34.3061V34.244V34.1821V34.1204V34.0588V33.9973V33.936V33.8748V33.8137V33.7528V33.6921V33.6314V33.571V33.5107V33.4505V33.3904V33.3306V33.2708V33.2112V33.1518V33.0925V33.0334V32.9744V32.9155V32.8568V32.7983V32.7399V32.6817V32.6236V32.5657V32.5079V32.4503V32.3928V32.3355V32.2783V32.2213V32.1645V32.1078V32.0513V31.9949V31.9387V31.8827V31.8268V31.7711V31.7155V31.6601V31.6048V31.5498V31.4949V31.4401V31.3855V31.3311V31.2768V31.2227V31.1688V31.1151V31.0615V31.008V30.9548V30.9017V30.8488V30.796V30.7435V30.691V30.6388V30.5867V30.5349V30.4831V30.4316V30.3802V30.329V30.278V30.2272V30.1765V30.126V30.0757V30.0255V29.9756V29.9258V29.8762V29.8268V29.7775V29.7284V29.6796V29.6309V29.5823V29.534V29.4859V29.4379V29.3901V29.3425V29.2951V29.2478V29.2008V29.1539V29.1073V29.0608V29.0145V28.9684V28.9225V28.8767V28.8312V28.7859V28.7407V28.6957V28.651V28.6064V28.562V28.5178V28.4738V28.43V28.3864V28.343V28.2998V28.2568V28.2139V28.1713V28.1289V28.0867V28.0446V28.0028V27.9612V27.9198V27.8785V27.8375V27.7967V27.7561V27.7157V27.6755V27.6355V27.5957V27.5561V27.5167V27.4775V27.4385V27.3997V27.3612V27.3228V27.2847V27.2468V27.209V27.1715V27.1342V27.0971V27.0603V27.0236V26.9872V26.9509V26.9149V26.8791V26.8435V26.8081V26.773V26.738V26.7033V26.6688V26.6345V26.6004V26.5666V26.5329V26.4995V26.4663V26.4334V26.4006V26.3681V26.3358V26.3037V26.2718V26.2402V26.2088V26.1776V26.1467V26.1159V26.0854V26.0552V26.0251V25.9953V25.9657V25.9363V25.9072V25.8783V25.8496V25.8212V25.793V25.765V25.7373V25.7098V25.6825V25.6555V25.6287V25.6021V25.5758V25.5497V25.5238V25.4982V25.4728V25.4477V25.4228V25.3981V25.3737V25.3495V25.3256V25.3019V25.2784V25.2552V25.2322V25.2095V25.187V25.1648V25.1428V25.121V25.0995V25.0783V25.0573V25.0365V25.016V24.9958V24.9757V24.956V24.9365V24.9172V24.8982V24.8794V24.8609V24.8427V24.8247V24.8069V24.7894V24.7722V24.7552V24.7385V24.722V24.7058V24.6899V24.6742V24.6587V24.6436V24.6286V24.614V24.5996V24.5855V24.5716V24.558V24.5446V24.5315V24.5187V24.5062V24.4939V24.4818V24.4701V24.4586V24.4473V24.4364V24.4257V24.4153V24.4051V24.3952V24.3856V24.3762V24.3672V24.3584V24.3498V24.3416V24.3336V24.3258V24.3184V24.3112V24.3043V24.2977V24.2914V24.2853V24.2795V24.274V24.2688V24.2638V24.2592V24.2548V24.2506V24.2468V24.2432V24.24V24.237V24.2343V24.2318V24.2297V24.2278V24.2263V24.225V24.224V24.2233V24.2228C28.1636 24.2227 28.1636 24.2227 27.6636 24.2227H28.1636C28.1636 22.3842 29.0431 20.5892 30.7241 18.9095C32.4071 17.2279 34.8676 15.6906 37.948 14.3887C44.1068 11.7858 52.6499 10.1638 62.1124 10.1633C71.5754 10.1633 80.1185 11.7849 86.2772 14.3875C89.3575 15.6892 91.818 17.2264 93.5009 18.9079C95.1818 20.5874 96.0613 22.3824 96.0613 24.2209V24.2211V24.2212V24.2215V24.2218V24.2222V24.2227V24.2232V24.2238V24.2245V24.2252V24.2261V24.2269V24.2279V24.2289V24.23V24.2312V24.2325V24.2338V24.2352V24.2366V24.2382V24.2398V24.2414V24.2432V24.245V24.2469V24.2488V24.2508V24.2529V24.2551V24.2573V24.2596V24.262V24.2644V24.2669V24.2695V24.2721V24.2748V24.2776V24.2805V24.2834V24.2864V24.2895V24.2926V24.2958V24.299V24.3024V24.3058V24.3093V24.3128V24.3164V24.3201V24.3238V24.3277V24.3315V24.3355V24.3395V24.3436V24.3478V24.352V24.3563V24.3606V24.3651V24.3696V24.3741V24.3787V24.3834V24.3882V24.393V24.3979V24.4029V24.4079V24.413V24.4182V24.4234V24.4287V24.4341V24.4396V24.4451V24.4506V24.4563V24.462V24.4677V24.4736V24.4795V24.4854V24.4915V24.4976V24.5037V24.51V24.5163V24.5226V24.5291V24.5355V24.5421V24.5487V24.5554V24.5622V24.569V24.5759V24.5829V24.5899V24.597V24.6041V24.6113V24.6186V24.6259V24.6334V24.6408V24.6484V24.656V24.6636V24.6714V24.6792V24.687V24.6949V24.7029V24.711V24.7191V24.7273V24.7355V24.7438V24.7522V24.7607V24.7692V24.7777V24.7864V24.7951V24.8038V24.8126V24.8215V24.8305V24.8395V24.8485V24.8577V24.8669V24.8761V24.8855V24.8948V24.9043V24.9138V24.9234V24.933V24.9427V24.9525V24.9623V24.9722V24.9822V24.9922V25.0022V25.0124V25.0226V25.0328V25.0432V25.0536V25.064V25.0745V25.0851V25.0957V25.1064V25.1172V25.128V25.1389V25.1498V25.1608V25.1719V25.183V25.1942V25.2054V25.2167V25.2281V25.2395V25.251V25.2625V25.2741V25.2858V25.2975V25.3093V25.3212V25.3331V25.3451V25.3571V25.3692V25.3813V25.3936V25.4058V25.4182V25.4305V25.443V25.4555V25.4681V25.4807V25.4934V25.5061V25.519V25.5318V25.5447V25.5577V25.5708V25.5839V25.597V25.6103V25.6235V25.6369V25.6503V25.6637V25.6772V25.6908V25.7044V25.7181V25.7319V25.7457V25.7595V25.7735V25.7875V25.8015V25.8156V25.8297V25.8439V25.8582V25.8725V25.8869V25.9014V25.9159V25.9304V25.945V25.9597V25.9744V25.9892V26.0041V26.019V26.0339V26.0489V26.064V26.0791V26.0943V26.1096V26.1249V26.1402V26.1556V26.1711V26.1866V26.2022V26.2178V26.2335V26.2493V26.2651V26.2809V26.2968V26.3128V26.3288V26.3449V26.361V26.3772V26.3935V26.4098V26.4262V26.4426V26.459V26.4756V26.4921V26.5088V26.5255V26.5422V26.559V26.5759V26.5928V26.6097V26.6268V26.6438V26.661V26.6781V26.6954V26.7127V26.73V26.7474V26.7649V26.7824V26.7999V26.8175V26.8352V26.8529V26.8707V26.8885V26.9064V26.9244V26.9424V26.9604V26.9785V26.9966V27.0148V27.0331V27.0514V27.0698V27.0882V27.1067V27.1252V27.1438V27.1624V27.1811V27.1998V27.2186V27.2374V27.2563V27.2752V27.2942V27.3133V27.3324V27.3515V27.3707V27.39V27.4093V27.4286V27.4481V27.4675V27.487V27.5066V27.5262V27.5459V27.5656V27.5854V27.6052V27.625V27.645V27.6649V27.685V27.705V27.7252V27.7453V27.7656V27.7858V27.8062V27.8266V27.847V27.8675V27.888V27.9086V27.9292V27.9499V27.9706V27.9914V28.0122V28.0331V28.054V28.075V28.096V28.1171V28.1383V28.1594V28.1807V28.2019V28.2233V28.2446V28.2661V28.2875V28.3091V28.3306V28.3523V28.3739V28.3956V28.4174V28.4392V28.4611V28.483V28.505V28.527V28.549V28.5711V28.5933V28.6155V28.6377V28.66V28.6824V28.7048V28.7272V28.7497V28.7723V28.7948V28.8175V28.8402V28.8629V28.8857V28.9085V28.9313V28.9543V28.9772V29.0002V29.0233V29.0464V29.0696V29.0928V29.116V29.1393V29.1626V29.186V29.2094V29.2329V29.2564V29.28V29.3036V29.3273V29.351V29.3748V29.3986V29.4224V29.4463V29.4702V29.4942V29.5183V29.5423V29.5665V29.5906V29.6148V29.6391V29.6634V29.6877V29.7121V29.7366V29.7611V29.7856V29.8102V29.8348V29.8594V29.8841V29.9089V29.9337V29.9585V29.9834V30.0083V30.0333V30.0583V30.0834V30.1085V30.1337V30.1588V30.1841V30.2094V30.2347V30.2601V30.2855V30.3109V30.3364V30.362V30.3876V30.4132V30.4389V30.4646V30.4904V30.5162V30.542V30.5679V30.5938V30.6198V30.6458V30.6719V30.698V30.7241V30.7503V30.7765V30.8028V30.8291V30.8555V30.8819V30.9083V30.9348V30.9613V30.9879V31.0145V31.0412V31.0679V31.0946V31.1214V31.1482V31.1751V31.202V31.2289V31.2559V31.2829V31.31V31.3371V31.3642V31.3914V31.4187V31.4459V31.4732V31.5006V31.528V31.5554V31.5561C95.5715 31.4788 95.0853 31.4383 94.6038 31.4383C90.2507 31.4383 86.529 34.5533 85.7473 38.846L85.7471 38.8471C85.5247 40.0835 85.5721 41.35 85.8631 42.5534L83.3722 47.1891L78.2793 46.2682C76.9325 44.5467 74.9814 43.3251 72.7745 42.9268C72.2306 42.8282 71.6975 42.7821 71.1659 42.7821C66.8139 42.7821 63.0886 45.8969 62.3059 50.1898L62.3057 50.1906C61.8783 52.557 62.3991 54.9496 63.7731 56.9245C65.1433 58.9079 67.2007 60.2319 69.5515 60.6555C69.8644 60.7145 70.1797 60.7548 70.4902 60.7782L74.0584 64.5058L71.6184 69.0461C68.6649 70.11 66.3953 72.6792 65.8028 75.9242L65.8027 75.925C64.9852 80.4436 67.7091 84.8003 71.996 86.1334Z" fill="#5DB947" stroke="black"/>
<path d="M99.1285 41.2703C99.3464 40.0644 99.0813 38.8414 98.3804 37.8354C97.6843 36.83 96.6345 36.1535 95.4293 35.9373L95.4292 35.9373C92.886 35.482 90.5451 37.1804 90.0961 39.6321L90.0957 39.6344C89.8927 40.7731 90.1357 41.9145 90.725 42.8506L85.7458 52.1161L75.494 50.2575C74.9615 48.7626 73.6631 47.5814 71.9867 47.2786L71.9864 47.2786C69.4667 46.8249 67.1052 48.5236 66.6599 50.9757C66.2066 53.4686 67.8684 55.8593 70.353 56.3075C71.0105 56.4289 71.6531 56.3969 72.2653 56.2372L79.4742 63.7715L74.544 72.9408C72.3831 72.9969 70.5435 74.5665 70.1524 76.7109L70.1523 76.7118C69.7038 79.1984 71.3612 81.5904 73.849 82.0447L73.8509 82.045C76.3896 82.4982 78.7345 80.7967 79.1807 78.3501C79.2124 78.1845 79.2327 78.0203 79.2427 77.8566L88.6268 73.3348L95.8976 80.9359C95.7671 81.2452 95.6709 81.5704 95.6085 81.9052L95.6081 81.9078C95.3904 83.1126 95.651 84.3331 96.3559 85.3417C97.0482 86.3464 98.102 87.0232 99.3059 87.2401C99.5808 87.2903 99.8547 87.3164 100.126 87.3164C102.347 87.3164 104.247 85.7305 104.64 83.5461C104.858 82.3411 104.592 81.1206 103.891 80.1132C103.417 79.4305 102.779 78.8967 102.037 78.558L100.548 67.5882L109.907 63.0827C110.405 63.4129 110.969 63.6437 111.567 63.7537C111.847 63.8058 112.118 63.8288 112.387 63.8288C114.606 63.8288 116.504 62.2409 116.897 60.0593C117.12 58.8525 116.858 57.6317 116.158 56.6252C115.462 55.6183 114.408 54.9434 113.208 54.7254C111.488 54.4095 109.854 55.0973 108.853 56.3011L98.767 54.474L97.3605 44.1045C98.2677 43.4355 98.918 42.4385 99.1285 41.2703Z" fill="white" stroke="black"/>
</svg>
