<svg width="128" height="100" viewBox="0 0 128 100" fill="none" xmlns="http://www.w3.org/2000/svg">
<path d="M8.15408 69.847C8.25277 69.945 8.3866 70 8.52614 70C8.66569 70 8.79952 69.945 8.89821 69.847L11.5032 67.261L14.1081 69.847C14.2074 69.9422 14.3403 69.9949 14.4783 69.9937C14.6163 69.9925 14.7483 69.9375 14.8459 69.8407C14.9434 69.7438 14.9988 69.6128 15 69.4758C15.0012 69.3388 14.9481 69.2069 14.8523 69.1083L11.8752 66.153C11.7766 66.055 11.6427 66 11.5032 66C11.3636 66 11.2298 66.055 11.1311 66.153L8.15408 69.1083C8.05542 69.2063 8 69.3392 8 69.4777C8 69.6162 8.05542 69.7491 8.15408 69.847Z" fill="#5DB947"/>
<path d="M15.1541 40.847C15.2528 40.945 15.3866 41 15.5261 41C15.6657 41 15.7995 40.945 15.8982 40.847L18.5032 38.261L21.1081 40.847C21.2074 40.9422 21.3403 40.9949 21.4783 40.9937C21.6163 40.9925 21.7483 40.9375 21.8459 40.8407C21.9434 40.7438 21.9988 40.6128 22 40.4758C22.0012 40.3388 21.9481 40.2069 21.8523 40.1083L18.8752 37.153C18.7766 37.055 18.6427 37 18.5032 37C18.3636 37 18.2298 37.055 18.1311 37.153L15.1541 40.1083C15.0554 40.2063 15 40.3392 15 40.4777C15 40.6162 15.0554 40.7491 15.1541 40.847Z" fill="#5DB947"/>
<path d="M118.154 36.847C118.253 36.945 118.387 37 118.526 37C118.666 37 118.8 36.945 118.898 36.847L121.503 34.261L124.108 36.847C124.207 36.9422 124.34 36.9949 124.478 36.9937C124.616 36.9925 124.748 36.9375 124.846 36.8407C124.943 36.7438 124.999 36.6128 125 36.4758C125.001 36.3388 124.948 36.2069 124.852 36.1083L121.875 33.153C121.777 33.055 121.643 33 121.503 33C121.364 33 121.23 33.055 121.131 33.153L118.154 36.1083C118.055 36.2063 118 36.3392 118 36.4777C118 36.6162 118.055 36.7491 118.154 36.847Z" fill="#5DB947"/>
<path d="M106.154 92.847C106.253 92.945 106.387 93 106.526 93C106.666 93 106.8 92.945 106.898 92.847L109.503 90.261L112.108 92.847C112.207 92.9422 112.34 92.9949 112.478 92.9937C112.616 92.9925 112.748 92.9375 112.846 92.8407C112.943 92.7438 112.999 92.6128 113 92.4758C113.001 92.3388 112.948 92.2069 112.852 92.1083L109.875 89.153C109.777 89.055 109.643 89 109.503 89C109.364 89 109.23 89.055 109.131 89.153L106.154 92.1083C106.055 92.2063 106 92.3392 106 92.4777C106 92.6162 106.055 92.7491 106.154 92.847Z" fill="#5DB947"/>
<path d="M42.3893 42.0222C42.0773 42.3342 42.0773 42.8394 42.3893 43.1514C42.7013 43.4634 43.2064 43.4634 43.5184 43.1514C49.2852 37.3846 58.667 37.3855 64.4329 43.1514C64.5889 43.3074 64.7931 43.3854 64.9975 43.3854C65.2018 43.3854 65.406 43.3074 65.562 43.1514C65.874 42.8394 65.874 42.3342 65.562 42.0222C59.1739 35.6332 48.7783 35.6332 42.3893 42.0222Z" fill="#C8F4BD"/>
<path d="M68.3882 36.0956C59.5865 27.2932 45.2642 27.2935 36.4631 36.0953C27.6614 44.8974 27.6614 59.2187 36.4631 68.0204C40.8643 72.4216 46.644 74.6216 52.4254 74.6216C58.2058 74.6216 63.9877 72.4209 68.3881 68.0204C77.19 59.2187 77.19 44.8974 68.3882 36.0956ZM37.5923 66.8911C29.4133 58.7121 29.4133 45.4038 37.5923 37.2244C41.682 33.135 47.0533 31.0904 52.4254 31.0904C57.7972 31.0904 63.1693 33.135 67.2589 37.2248C75.4379 45.4038 75.4379 58.7121 67.2589 66.8911C59.0799 75.0701 45.7714 75.0703 37.5923 66.8911Z" fill="#C8F4BD"/>
<path d="M94.3903 13H81.542V36.2052H94.3903C100.794 36.2052 106.001 30.9988 106.001 24.6026C106.001 18.2063 100.794 13 94.3903 13ZM95.7398 26.9981C94.9252 27.8127 93.8632 28.2119 92.8012 28.2119C91.9948 28.2119 91.1883 27.9723 90.4935 27.5093L88.5851 29.4177C88.4334 29.5694 88.2258 29.6493 88.0181 29.6493C87.8186 29.6493 87.6109 29.5694 87.4591 29.4177C87.1478 29.1062 87.1478 28.6033 87.4591 28.2837L89.3677 26.3753C88.2816 24.7703 88.4493 22.5585 89.8706 21.137C91.4917 19.5159 94.1268 19.5159 95.7398 21.1291C97.3609 22.7499 97.3528 25.3851 95.7398 26.9981Z" fill="#C8F4BD"/>
<path d="M80.6783 69.1779C80.0235 68.5232 79.1531 68.1638 78.2189 68.1638C77.2924 68.1638 76.4143 68.5232 75.7593 69.1779L75.6873 69.2578L74.777 68.3475C74.4576 68.7707 74.1222 69.186 73.7629 69.5932L74.5534 70.3839L71.7505 73.1866L70.96 72.3961C70.5528 72.7555 70.1375 73.0909 69.7143 73.4103L70.6248 74.3206L70.5449 74.3924C69.8901 75.0472 69.5308 75.9256 69.5308 76.8518C69.5308 77.786 69.8901 78.6564 70.5449 79.3111L85.1339 93.9002C86.4834 95.2576 88.288 96.0002 90.1966 96.0002C92.113 96.0002 93.9096 95.2576 95.2671 93.9002C98.0619 91.1054 98.0619 86.5618 95.2671 83.7668L80.6783 69.1779Z" fill="#C8F4BD"/>
<path d="M76.8966 68.7473C77.4557 68.193 78.2025 67.8884 78.9938 67.8884C79.7965 67.8884 80.5393 68.1958 81.0996 68.7561L95.6884 83.3449C98.288 85.9446 98.288 90.1717 95.6884 92.7712C94.4249 94.0348 92.7554 94.7248 90.9715 94.7248C89.1948 94.7248 87.5182 94.0344 86.2634 92.7722L86.2624 92.7712L71.6733 78.1822C71.1131 77.6219 70.8057 76.8791 70.8057 76.0764C70.8057 75.2854 71.1102 74.5385 71.6643 73.9796L71.7339 73.9171L72.1262 73.5645L71.7532 73.1916L71.2443 72.6827C71.4003 72.5588 71.5554 72.4322 71.7096 72.3025L72.1718 72.7648L72.5254 73.1183L72.8789 72.7648L75.6818 69.9621L76.0354 69.6085L75.6819 69.255L75.2195 68.7925C75.3493 68.6384 75.4759 68.4832 75.5998 68.3271L76.1087 68.836L76.4812 69.2085L76.8337 68.8171L76.8966 68.7473Z" fill="#5DB947" stroke="black"/>
<path d="M35.2016 33.0589C40.0648 28.2039 46.5328 25.5208 53.4241 25.5208C60.3153 25.5208 66.7834 28.2039 71.6466 33.0589C72.6287 34.0412 73.531 35.0953 74.3215 36.2052H78.394V13H34.6026C28.1984 13 23 18.2063 23 24.6026C23 30.3359 27.1683 35.1111 32.6461 36.0374C33.4128 34.9915 34.2593 34.0013 35.2016 33.0589Z" fill="#C8F4BD"/>
<path d="M35.6237 33.4805L35.6234 33.4808C34.739 34.3652 33.9372 35.2913 33.2055 36.265C28.1129 35.2584 24.2754 30.7588 24.2754 25.378C24.2754 19.2576 29.2502 14.2754 35.378 14.2754H78.6694V36.4805H75.3529C74.582 35.4234 73.7137 34.4192 72.7755 33.4808L72.7752 33.4805C67.8184 28.5319 61.2233 25.7962 54.1995 25.7962C47.1756 25.7962 40.5805 28.5319 35.6237 33.4805Z" fill="white" stroke="black"/>
<path d="M91.3548 23.3936C91.3548 23.3935 91.3548 23.3935 91.3549 23.3935C91.7556 22.9928 92.2817 22.7922 92.8096 22.7922C93.3361 22.7922 93.8594 22.9919 94.2578 23.3901C94.2579 23.3901 94.2579 23.3901 94.258 23.3902L91.3548 23.3936Z" fill="#5DB947" stroke="black"/>
<path d="M87.1054 30.5466L87.1057 30.5469C87.3546 30.7955 87.6908 30.9247 88.0181 30.9247C88.3508 30.9247 88.688 30.7973 88.9387 30.5467L88.5851 30.1931L88.9387 30.5467L90.5704 28.9149C91.2615 29.2924 92.0306 29.4873 92.8012 29.4873C93.989 29.4873 95.1803 29.0401 96.0934 28.127C97.9009 26.3195 97.9103 23.3677 96.0933 21.5509C94.2845 19.7419 91.3327 19.7431 89.517 21.5588L89.517 21.5588C88.0256 23.0505 87.7657 25.3159 88.7359 27.0754L87.1055 28.7056L87.1055 28.7055L87.1009 28.7102C86.603 29.2214 86.5965 30.0374 87.1054 30.5466ZM82.042 14.2754H94.3903C100.519 14.2754 105.501 19.2581 105.501 25.378C105.501 31.4978 100.519 36.4805 94.3903 36.4805H82.042V14.2754Z" fill="#5DB947" stroke="black"/>
<path d="M71.2926 35.7421C62.2956 26.7444 47.6567 26.7447 38.6604 35.7417C29.6634 44.7391 29.6633 59.3769 38.6604 68.374C43.1594 72.873 49.0681 75.1216 54.9762 75.1216C60.8833 75.1216 66.7942 72.8723 71.2924 68.374C80.2896 59.377 80.2896 44.7391 71.2926 35.7421ZM40.4966 66.5375C32.5129 58.5538 32.5129 45.5621 40.4966 37.578C44.4885 33.5864 49.7308 31.5904 54.9762 31.5904C60.2213 31.5904 65.4644 33.5864 69.4562 37.5783L69.8097 37.2248L69.4562 37.5783C77.4399 45.5621 77.4399 58.5538 69.4562 66.5375C61.4724 74.5213 48.4805 74.5214 40.4966 66.5375Z" fill="white" stroke="black"/>
<path d="M43.0357 40.1181C42.5285 40.6254 42.5285 41.4471 43.0357 41.9544C43.543 42.4616 44.3647 42.4616 44.872 41.9544C50.4434 36.3829 59.5087 36.3837 65.0793 41.9544C65.3327 42.2078 65.6657 42.3348 65.9975 42.3348C66.3292 42.3348 66.6622 42.2078 66.9156 41.9544C67.4228 41.4471 67.4228 40.6254 66.9156 40.1181C60.3322 33.5338 49.62 33.5339 43.0357 40.1181Z" fill="white" stroke="black"/>
</svg>
