<svg width="128" height="100" viewBox="0 0 128 100" fill="none" xmlns="http://www.w3.org/2000/svg">
<path d="M12.1541 86.847C12.2528 86.945 12.3866 87 12.5261 87C12.6657 87 12.7995 86.945 12.8982 86.847L15.5032 84.261L18.1081 86.847C18.2074 86.9422 18.3403 86.9949 18.4783 86.9937C18.6163 86.9925 18.7483 86.9375 18.8459 86.8407C18.9434 86.7438 18.9988 86.6128 19 86.4758C19.0012 86.3388 18.9481 86.2069 18.8523 86.1083L15.8752 83.153C15.7766 83.055 15.6427 83 15.5032 83C15.3636 83 15.2298 83.055 15.1311 83.153L12.1541 86.1083C12.0554 86.2063 12 86.3392 12 86.4777C12 86.6162 12.0554 86.7491 12.1541 86.847Z" fill="#5DB947"/>
<path d="M102.154 23.847C102.253 23.945 102.387 24 102.526 24C102.666 24 102.8 23.945 102.898 23.847L105.503 21.261L108.108 23.847C108.207 23.9422 108.34 23.9949 108.478 23.9937C108.616 23.9925 108.748 23.9375 108.846 23.8407C108.943 23.7438 108.999 23.6128 109 23.4758C109.001 23.3388 108.948 23.2069 108.852 23.1083L105.875 20.153C105.777 20.055 105.643 20 105.503 20C105.364 20 105.23 20.055 105.131 20.153L102.154 23.1083C102.055 23.2063 102 23.3392 102 23.4777C102 23.6162 102.055 23.7491 102.154 23.847Z" fill="#5DB947"/>
<path d="M118.154 72.847C118.253 72.945 118.387 73 118.526 73C118.666 73 118.8 72.945 118.898 72.847L121.503 70.261L124.108 72.847C124.207 72.9422 124.34 72.9949 124.478 72.9937C124.616 72.9925 124.748 72.9375 124.846 72.8407C124.943 72.7438 124.999 72.6128 125 72.4758C125.001 72.3388 124.948 72.2069 124.852 72.1083L121.875 69.153C121.777 69.055 121.643 69 121.503 69C121.364 69 121.23 69.055 121.131 69.153L118.154 72.1083C118.055 72.2063 118 72.3392 118 72.4777C118 72.6162 118.055 72.7491 118.154 72.847Z" fill="#5DB947"/>
<path d="M19.1541 34.847C19.2528 34.945 19.3866 35 19.5261 35C19.6657 35 19.7995 34.945 19.8982 34.847L22.5032 32.261L25.1081 34.847C25.2074 34.9422 25.3403 34.9949 25.4783 34.9937C25.6163 34.9925 25.7483 34.9375 25.8459 34.8407C25.9434 34.7438 25.9988 34.6128 26 34.4758C26.0012 34.3388 25.9481 34.2069 25.8523 34.1083L22.8752 31.153C22.7766 31.055 22.6427 31 22.5032 31C22.3636 31 22.2298 31.055 22.1311 31.153L19.1541 34.1083C19.0554 34.2063 19 34.3392 19 34.4777C19 34.6162 19.0554 34.7491 19.1541 34.847Z" fill="#5DB947"/>
<path d="M45.6874 38.375H58.4064L62.8752 97.75L67.344 38.375H80.063C81.7818 38.375 83.188 36.9688 83.188 35.25V7.125C83.188 5.4062 81.7818 4 80.063 4H45.688C43.9692 4 42.563 5.4062 42.563 7.125V35.25C42.563 36.9688 43.9686 38.375 45.6874 38.375ZM59.7494 18.047H61.9213C63.4369 18.047 64.8119 17.1095 65.3432 15.672L66.8901 11.5314C67.2495 10.5783 68.2963 10.0158 69.3432 10.3439C70.3588 10.6564 70.8744 11.7814 70.6244 12.797L69.3119 18.047H72.9213C74.3744 18.047 75.4994 19.3126 75.3432 20.7501L74.6713 26.8439C74.5307 28.0783 73.4994 29.0158 72.2494 29.0158H63.64L61.2962 27.4533H59.7337V18.0627L59.7494 18.047ZM50.3744 16.5001H55.0619C55.9213 16.5001 56.6244 17.2032 56.6244 18.0626V27.4376C56.6244 28.297 55.9213 29.0001 55.0619 29.0001H50.3744V16.5001Z" fill="#C8F4BD"/>
<path d="M106.626 46.187H78.5006C76.7818 46.187 75.3756 47.5932 75.3756 49.312V71.187C75.3756 72.9058 76.7818 74.312 78.5006 74.312H85.7975L72.2505 94.624L96.6255 74.312H106.625C108.344 74.312 109.75 72.9058 109.75 71.187V49.312C109.75 47.5932 108.344 46.187 106.626 46.187ZM101.688 60.14C100.344 62.3744 98.6256 64.2962 96.6256 65.8119L93.11 68.4838L89.5944 65.8119C87.5944 64.2963 85.8756 62.3744 84.5319 60.14C83.2819 58.0775 83.5319 55.3119 85.11 53.5619C86.9538 51.5307 89.9225 51.5307 91.7662 53.5619L93.11 55.0619L94.4538 53.5619C96.2976 51.5307 99.2663 51.5307 101.11 53.5619C102.704 55.3275 102.938 58.0775 101.688 60.14Z" fill="#C8F4BD"/>
<path d="M19.1256 74.313H30.6876L55.0626 94.625L41.5156 74.313H47.25C48.9688 74.313 50.375 72.9068 50.375 71.188V49.313C50.375 47.5942 48.9688 46.188 47.25 46.188H19.125C17.4062 46.188 16 47.5942 16 49.313V71.188C16 72.9068 17.4068 74.313 19.1256 74.313ZM33.1876 50.875C38.3595 50.875 42.5626 55.0781 42.5626 60.25C42.5626 65.4219 38.3595 69.625 33.1876 69.625C28.0157 69.625 23.8126 65.4219 23.8126 60.25C23.8126 55.0781 28.0157 50.875 33.1876 50.875Z" fill="#C8F4BD"/>
<path d="M78.5006 76.812H84.863L71.8345 96.3466L72.5706 97.0081L96.8065 76.812H106.625C108.62 76.812 110.25 75.1819 110.25 73.187V51.312C110.25 49.3171 108.621 47.687 106.626 47.687H78.5006C76.5056 47.687 74.8756 49.3171 74.8756 51.312V73.187C74.8756 75.1819 76.5056 76.812 78.5006 76.812ZM101.26 61.8809L101.26 61.8823C99.9476 64.0639 98.2713 65.9374 96.3236 67.4134L96.323 67.4138L93.11 69.8558L89.8969 67.4138L89.8964 67.4134C87.9487 65.9375 86.2723 64.0639 84.9604 61.8823L84.9595 61.8809C83.8214 60.003 84.0543 57.4798 85.4808 55.8974C87.1258 54.0858 89.7497 54.0856 91.3948 55.8967C91.3952 55.8971 91.3956 55.8976 91.396 55.898L92.7376 57.3955L93.11 57.8112L93.4824 57.3955L94.824 55.898C94.8244 55.8976 94.8248 55.8972 94.8251 55.8968C96.4704 54.0855 99.0944 54.0858 100.739 55.8974C102.18 57.4944 102.399 60.0017 101.26 61.8809Z" fill="white" stroke="black"/>
<path d="M35.2505 58.063H37.3755V60.188H35.2505V58.063Z" fill="white" stroke="black"/>
<path d="M33.1876 65.875C34.59 65.875 35.7521 64.865 35.9877 63.5312H38.1314C37.8798 66.037 35.7583 68 33.1876 68C30.6167 68 28.4953 66.0369 28.2437 63.5312H30.3874C30.623 64.865 31.7851 65.875 33.1876 65.875Z" fill="white" stroke="black"/>
<path d="M29.0005 58.063H31.1255V60.188H29.0005V58.063Z" fill="white" stroke="black"/>
<path d="M42.4501 76.813H47.25C49.2449 76.813 50.875 75.1829 50.875 73.188V51.313C50.875 49.318 49.2449 47.688 47.25 47.688H19.125C17.1301 47.688 15.5 49.318 15.5 51.313V73.188C15.5 75.1831 17.1308 76.813 19.1256 76.813H30.5066L54.7425 97.0091L55.4786 96.3476L42.4501 76.813ZM33.1876 53.375C38.0834 53.375 42.0626 57.3542 42.0626 62.25C42.0626 67.1457 38.0834 71.125 33.1876 71.125C28.2918 71.125 24.3126 67.1457 24.3126 62.25C24.3126 57.3542 28.2918 53.375 33.1876 53.375Z" fill="white" stroke="black"/>
<path d="M72.9213 20.547C74.0747 20.547 74.97 21.552 74.8462 22.6953L74.8461 22.6961L74.1745 28.7873C74.1745 28.7877 74.1744 28.788 74.1744 28.7883C74.0617 29.7735 73.2409 30.5158 72.2494 30.5158H63.7914L61.5736 29.0373L61.4476 28.9533H61.2962H60.2337V20.547H61.9213C63.6427 20.547 65.2068 19.4825 65.812 17.8459C65.812 17.8457 65.8121 17.8455 65.8122 17.8453L67.3579 13.7078C67.358 13.7077 67.358 13.7076 67.3581 13.7074C67.6274 12.9936 68.4089 12.5751 69.1937 12.821L69.1961 12.8218C69.9154 13.0431 70.3365 13.8729 70.1391 14.6766C70.139 14.6769 70.139 14.6772 70.1389 14.6775L68.8268 19.9257L68.6715 20.547H69.3119H72.9213ZM62.3766 99.7875H63.3738L67.8078 40.875H80.063C82.0579 40.875 83.688 39.2449 83.688 37.25V9.125C83.688 7.13006 82.0579 5.5 80.063 5.5H45.688C43.693 5.5 42.063 7.13006 42.063 9.125V37.25C42.063 39.2448 43.6923 40.875 45.6874 40.875H57.9426L62.3766 99.7875ZM50.8744 19.0001H55.0619C55.6451 19.0001 56.1244 19.4794 56.1244 20.0626V29.4376C56.1244 30.0208 55.6451 30.5001 55.0619 30.5001H50.8744V19.0001Z" fill="#5DB947" stroke="black"/>
</svg>
