<svg width="128" height="100" viewBox="0 0 128 100" fill="none" xmlns="http://www.w3.org/2000/svg">
<path d="M8.15408 59.847C8.25277 59.945 8.3866 60 8.52614 60C8.66569 60 8.79952 59.945 8.89821 59.847L11.5032 57.261L14.1081 59.847C14.2074 59.9422 14.3403 59.9949 14.4783 59.9937C14.6163 59.9925 14.7483 59.9375 14.8459 59.8407C14.9434 59.7438 14.9988 59.6128 15 59.4758C15.0012 59.3388 14.9481 59.2069 14.8523 59.1083L11.8752 56.153C11.7766 56.055 11.6427 56 11.5032 56C11.3636 56 11.2298 56.055 11.1311 56.153L8.15408 59.1083C8.05542 59.2063 8 59.3392 8 59.4777C8 59.6162 8.05542 59.7491 8.15408 59.847Z" fill="#5DB947"/>
<path d="M110.154 23.847C110.253 23.945 110.387 24 110.526 24C110.666 24 110.8 23.945 110.898 23.847L113.503 21.261L116.108 23.847C116.207 23.9422 116.34 23.9949 116.478 23.9937C116.616 23.9925 116.748 23.9375 116.846 23.8407C116.943 23.7438 116.999 23.6128 117 23.4758C117.001 23.3388 116.948 23.2069 116.852 23.1083L113.875 20.153C113.777 20.055 113.643 20 113.503 20C113.364 20 113.23 20.055 113.131 20.153L110.154 23.1083C110.055 23.2063 110 23.3392 110 23.4777C110 23.6162 110.055 23.7491 110.154 23.847Z" fill="#5DB947"/>
<path d="M101.154 86.847C101.253 86.945 101.387 87 101.526 87C101.666 87 101.8 86.945 101.898 86.847L104.503 84.261L107.108 86.847C107.207 86.9422 107.34 86.9949 107.478 86.9937C107.616 86.9925 107.748 86.9375 107.846 86.8407C107.943 86.7438 107.999 86.6128 108 86.4758C108.001 86.3388 107.948 86.2069 107.852 86.1083L104.875 83.153C104.777 83.055 104.643 83 104.503 83C104.364 83 104.23 83.055 104.131 83.153L101.154 86.1083C101.055 86.2063 101 86.3392 101 86.4777C101 86.6162 101.055 86.7491 101.154 86.847Z" fill="#5DB947"/>
<path d="M15.1541 13.847C15.2528 13.945 15.3866 14 15.5261 14C15.6657 14 15.7995 13.945 15.8982 13.847L18.5032 11.261L21.1081 13.847C21.2074 13.9422 21.3403 13.9949 21.4783 13.9937C21.6163 13.9925 21.7483 13.9375 21.8459 13.8407C21.9434 13.7438 21.9988 13.6128 22 13.4758C22.0012 13.3388 21.9481 13.2069 21.8523 13.1083L18.8752 10.153C18.7766 10.055 18.6427 10 18.5032 10C18.3636 10 18.2298 10.055 18.1311 10.153L15.1541 13.1083C15.0554 13.2063 15 13.3392 15 13.4777C15 13.6162 15.0554 13.7491 15.1541 13.847Z" fill="#5DB947"/>
<path d="M73.5487 60.953C73.1198 60.7526 72.6531 60.6462 72.1797 60.641L74.3227 66.527C74.7463 66.1614 75.0716 65.6955 75.2689 65.1719C75.4662 64.6483 75.5292 64.0836 75.4522 63.5294C75.3753 62.9752 75.1608 62.4491 74.8283 61.999C74.4958 61.549 74.0559 61.1894 73.5487 60.953ZM50.3107 78.893L48.8017 79.443L52.8797 89.649L52.8877 89.67C52.9238 89.8125 52.9992 89.9419 53.1052 90.0435C53.2113 90.1452 53.3439 90.215 53.4877 90.245C53.6422 90.2667 53.7997 90.2491 53.9457 90.1939C54.0916 90.1387 54.2213 90.0476 54.3227 89.929C54.4098 89.8127 54.4627 89.6745 54.4754 89.5298C54.4881 89.3851 54.4602 89.2397 54.3947 89.11L50.3107 78.893ZM43.6797 69.922C42.6588 70.3104 41.8316 71.0848 41.3771 72.0781C40.9226 73.0713 40.8771 74.2035 41.2506 75.23C41.6241 76.2565 42.3864 77.0948 43.373 77.5637C44.3595 78.0326 45.4909 78.0945 46.5227 77.736L49.4717 76.663L46.6297 68.849L43.6797 69.922ZM66.6297 52.356C66.5609 52.1687 66.4365 52.0069 66.2732 51.8923C66.1098 51.7777 65.9153 51.7158 65.7157 51.715C65.6018 51.7154 65.4888 51.7353 65.3817 51.774C65.2616 51.8176 65.1513 51.8845 65.0571 51.9709C64.9629 52.0572 64.8866 52.1612 64.8327 52.277C64.7787 52.3929 64.7481 52.5182 64.7426 52.6458C64.7371 52.7735 64.7569 52.901 64.8007 53.021L73.5667 77.108C73.655 77.3506 73.8361 77.5481 74.07 77.6571C74.304 77.7662 74.5717 77.7778 74.8142 77.6895C75.0567 77.6012 75.2543 77.4202 75.3633 77.1862C75.4724 76.9523 75.484 76.6846 75.3957 76.442L66.6297 52.356ZM48.7427 67.693L51.8347 76.193L70.7397 76.317L63.1477 55.446L48.7427 67.693ZM81.5887 50.67C79.5447 50.6698 77.5466 50.0635 75.8472 48.9278C74.1477 47.792 72.8232 46.1778 72.0411 44.2893C71.259 42.4009 71.0545 40.3229 71.4534 38.3181C71.8523 36.3134 72.8367 34.472 74.2821 33.0267C75.7275 31.5814 77.569 30.5972 79.5738 30.1985C81.5786 29.7998 83.6565 30.0045 85.545 30.7868C87.4334 31.5691 89.0474 32.8937 90.183 34.5933C91.3186 36.2929 91.9247 38.291 91.9247 40.335C91.9218 43.075 90.8321 45.7019 88.8948 47.6394C86.9574 49.5769 84.3306 50.6668 81.5907 50.67H81.5887ZM85.0997 41.77C84.8207 40.222 83.4497 39.132 81.4317 38.856C80.9907 38.796 80.6977 38.618 80.6067 38.356C80.5739 38.2573 80.5688 38.1516 80.5919 38.0502C80.615 37.9488 80.6654 37.8557 80.7377 37.781C80.8674 37.6641 81.0194 37.5746 81.1845 37.5177C81.3496 37.4608 81.5245 37.4378 81.6987 37.45C81.8982 37.4574 82.0937 37.5082 82.2716 37.5989C82.4495 37.6896 82.6055 37.8179 82.7287 37.975C82.9294 38.2147 83.2163 38.3658 83.5274 38.3958C83.8386 38.4259 84.1491 38.3323 84.3919 38.1355C84.6347 37.9386 84.7904 37.6541 84.8254 37.3435C84.8603 37.0328 84.7717 36.7209 84.5787 36.475C84.1135 35.8956 83.4872 35.467 82.7787 35.243V34.63C82.7787 34.3141 82.6532 34.0112 82.4299 33.7878C82.2065 33.5645 81.9036 33.439 81.5877 33.439C81.2718 33.439 80.9689 33.5645 80.7455 33.7878C80.5222 34.0112 80.3967 34.3141 80.3967 34.63V35.274C79.8799 35.4453 79.4108 35.7361 79.0277 36.123C78.6501 36.5151 78.3876 37.0034 78.2687 37.5346C78.1499 38.0658 78.1793 38.6194 78.3537 39.135C78.5706 39.706 78.944 40.2044 79.4311 40.5729C79.9182 40.9415 80.4992 41.1654 81.1077 41.219C82.0517 41.348 82.6677 41.713 82.7547 42.195C82.777 42.3625 82.7465 42.5327 82.6674 42.682C82.5884 42.8314 82.4647 42.9523 82.3137 43.028C82.089 43.1449 81.8417 43.2119 81.5887 43.2245C81.3357 43.2371 81.0829 43.195 80.8477 43.101C80.7399 43.0666 80.6409 43.0091 80.5575 42.9326C80.4741 42.8561 80.4083 42.7624 80.3647 42.658C80.2778 42.3542 80.0739 42.0973 79.7976 41.9439C79.5214 41.7905 79.1955 41.7531 78.8917 41.84C78.5879 41.9269 78.331 42.1308 78.1776 42.4071C78.0242 42.6833 77.9868 43.0092 78.0737 43.313C78.2134 43.7606 78.4518 44.1712 78.7713 44.5144C79.0908 44.8576 79.4832 45.1247 79.9197 45.296C80.075 45.3612 80.2343 45.4164 80.3967 45.461V46.05C80.3967 46.3659 80.5222 46.6688 80.7455 46.8922C80.9689 47.1155 81.2718 47.241 81.5877 47.241C81.9036 47.241 82.2065 47.1155 82.4299 46.8922C82.6532 46.6688 82.7787 46.3659 82.7787 46.05V45.403C83.0073 45.3292 83.2288 45.2351 83.4407 45.122C84.0372 44.8108 84.5195 44.3182 84.8181 43.7152C85.1166 43.1123 85.2159 42.4301 85.1017 41.767L85.0997 41.77ZM104.424 64.583C104.423 66.6269 103.816 68.6248 102.68 70.3238C101.544 72.0229 99.9293 73.347 98.0407 74.1285C96.1521 74.9101 94.0742 75.1142 92.0696 74.7149C90.0651 74.3156 88.2239 73.3308 86.779 71.8852C85.3341 70.4396 84.3502 68.5979 83.9519 66.5932C83.5535 64.5884 83.7586 62.5106 84.5411 60.6224C85.3236 58.7341 86.6484 57.1203 88.348 55.985C90.0477 54.8497 92.0458 54.2438 94.0897 54.244C96.8303 54.2472 99.4577 55.3376 101.395 57.276C103.333 59.2144 104.422 61.8424 104.424 64.583ZM97.6007 66.014C97.3217 64.466 95.9497 63.377 93.9327 63.101C93.4907 63.04 93.1977 62.862 93.1077 62.601C93.0747 62.5024 93.0695 62.3965 93.0926 62.2951C93.1157 62.1937 93.1662 62.1006 93.2387 62.026C93.3687 61.9096 93.5208 61.8205 93.6858 61.7638C93.8509 61.7071 94.0256 61.6841 94.1997 61.696C94.3992 61.7032 94.5947 61.7538 94.7726 61.8443C94.9505 61.9348 95.1065 62.063 95.2297 62.22C95.3264 62.3468 95.4475 62.4528 95.5859 62.5319C95.7243 62.611 95.8772 62.6615 96.0355 62.6804C96.1938 62.6993 96.3543 62.6862 96.5074 62.642C96.6606 62.5977 96.8033 62.5231 96.9271 62.4227C97.0509 62.3223 97.1533 62.198 97.2282 62.0573C97.303 61.9165 97.3489 61.7622 97.3631 61.6034C97.3772 61.4446 97.3593 61.2846 97.3105 61.1329C97.2616 60.9811 97.1828 60.8407 97.0787 60.72C96.6145 60.1389 95.9885 59.7084 95.2797 59.483V58.87C95.2707 58.56 95.1413 58.2657 94.9188 58.0495C94.6963 57.8334 94.3984 57.7125 94.0882 57.7125C93.778 57.7125 93.4801 57.8334 93.2576 58.0495C93.0352 58.2657 92.9057 58.56 92.8967 58.87V59.513C92.3801 59.6852 91.9112 59.9764 91.5277 60.363C91.1466 60.7528 90.8817 61.2412 90.7628 61.7733C90.6439 62.3053 90.6758 62.86 90.8547 63.375C91.0712 63.9461 91.4444 64.4445 91.9313 64.8131C92.4183 65.1817 92.9993 65.4056 93.6077 65.459C94.5527 65.588 95.1677 65.953 95.2547 66.435C95.2771 66.6026 95.2466 66.773 95.1675 66.9225C95.0885 67.072 94.9648 67.1931 94.8137 67.269C94.5889 67.3856 94.3416 67.4525 94.0886 67.4651C93.8357 67.4777 93.583 67.4357 93.3477 67.342C93.2402 67.3069 93.1415 67.2492 93.0582 67.1728C92.9749 67.0964 92.9089 67.003 92.8647 66.899C92.7733 66.6008 92.5685 66.3504 92.2945 66.2015C92.0204 66.0526 91.6989 66.0172 91.3989 66.1029C91.099 66.1885 90.8447 66.3884 90.6906 66.6595C90.5365 66.9307 90.4949 67.2515 90.5747 67.553C90.7141 68.0008 90.9523 68.4115 91.2719 68.7547C91.5914 69.098 91.984 69.365 92.4207 69.536C92.5756 69.6012 92.7346 69.6564 92.8967 69.701V70.29C92.9057 70.6 93.0352 70.8943 93.2576 71.1105C93.4801 71.3266 93.778 71.4475 94.0882 71.4475C94.3984 71.4475 94.6963 71.3266 94.9188 71.1105C95.1413 70.8943 95.2707 70.6 95.2797 70.29V69.649C95.5079 69.5752 95.7292 69.4811 95.9407 69.368C96.5374 69.0563 97.0197 68.5631 97.318 67.9596C97.6164 67.3561 97.7154 66.6734 97.6007 66.01V66.014Z" fill="#C8F4BD"/>
<path d="M63.3279 81.549H53.3279L52.2559 78.866L63.3269 78.939L63.3279 81.549ZM65.3399 83.931H54.2859L55.6859 87.446H65.3399C65.5743 87.4516 65.8073 87.4103 66.0255 87.3245C66.2436 87.2386 66.4423 87.1101 66.61 86.9463C66.7777 86.7826 66.911 86.5869 67.002 86.3709C67.093 86.1549 67.1399 85.9229 67.1399 85.6885C67.1399 85.4541 67.093 85.2221 67.002 85.0061C66.911 84.7901 66.7777 84.5944 66.61 84.4307C66.4423 84.2669 66.2436 84.1384 66.0255 84.0526C65.8073 83.9667 65.5743 83.9254 65.3399 83.931ZM38.6859 71.354C39.0466 70.5747 39.5582 69.8745 40.191 69.2941C40.8238 68.7136 41.5654 68.2642 42.3729 67.972L46.2389 66.564L57.3859 57.086C56.4776 53.2339 55.8866 49.3137 55.6189 45.365H40.4939C39.8049 53.365 37.2539 63.303 33.3869 73.057H38.1549C38.2538 72.4679 38.4325 71.8949 38.6859 71.354ZM30.7999 83.931C30.5656 83.9254 30.3325 83.9667 30.1144 84.0526C29.8963 84.1384 29.6975 84.2669 29.5298 84.4307C29.3621 84.5944 29.2288 84.7901 29.1379 85.0061C29.0469 85.2221 29 85.4541 29 85.6885C29 85.9229 29.0469 86.1549 29.1379 86.3709C29.2288 86.5869 29.3621 86.7826 29.5298 86.9463C29.6975 87.1101 29.8963 87.2386 30.1144 87.3245C30.3325 87.4103 30.5656 87.4516 30.7999 87.446H48.8259L47.4209 83.931H30.7999ZM54.9289 38.607C57.6301 35.4821 59.1927 31.5341 59.3619 27.407C59.3619 22.022 55.7199 21.074 48.0699 21.074C40.4199 21.074 36.7779 22.022 36.7779 27.407C36.9472 31.5339 38.5094 35.4817 41.2099 38.607H54.9289ZM46.0489 80.497C44.4971 80.8479 42.8706 80.6207 41.4743 79.8582C40.078 79.0957 39.0076 77.8502 38.4639 76.355C38.3553 76.0563 38.2684 75.7502 38.2039 75.439H32.8119V81.549H46.4689L46.0489 80.497ZM39.3889 40.99C39.2506 40.9776 39.1113 40.9941 38.9797 41.0385C38.8481 41.083 38.7273 41.1543 38.6248 41.248C38.5223 41.3417 38.4405 41.4557 38.3845 41.5828C38.3285 41.7098 38.2996 41.8471 38.2996 41.986C38.2996 42.1249 38.3285 42.2622 38.3845 42.3893C38.4405 42.5163 38.5223 42.6303 38.6248 42.724C38.7273 42.8177 38.8481 42.889 38.9797 42.9335C39.1113 42.9779 39.2506 42.9944 39.3889 42.982H56.7489C56.9977 42.9597 57.2291 42.8451 57.3976 42.6608C57.5661 42.4765 57.6596 42.2358 57.6596 41.986C57.6596 41.7363 57.5661 41.4955 57.3976 41.3112C57.2291 41.1269 56.9977 41.0123 56.7489 40.99H39.3889ZM43.4069 14.835H45.8969C45.986 14.8353 46.0713 14.8707 46.1342 14.9337C46.1972 14.9967 46.2327 15.082 46.2329 15.171V18.721C46.8239 18.707 47.4329 18.7 48.0679 18.7C48.7029 18.7 49.3109 18.707 49.9029 18.721V15.172C49.9029 15.0829 49.9383 14.9974 50.0013 14.9344C50.0644 14.8714 50.1498 14.836 50.2389 14.836H52.7289C52.818 14.836 52.9035 14.8006 52.9665 14.7376C53.0295 14.6746 53.0649 14.5891 53.0649 14.5V11.5C53.0649 11.4109 53.0295 11.3254 52.9665 11.2624C52.9035 11.1994 52.818 11.164 52.7289 11.164H50.2389C50.1498 11.164 50.0644 11.1286 50.0013 11.0656C49.9383 11.0026 49.9029 10.9171 49.9029 10.828V8.336C49.9029 8.24689 49.8675 8.16143 49.8045 8.09841C49.7415 8.0354 49.656 8 49.5669 8H46.5669C46.5228 7.99987 46.479 8.00847 46.4382 8.02531C46.3974 8.04215 46.3603 8.06689 46.329 8.09812C46.2978 8.12935 46.2731 8.16644 46.2562 8.20726C46.2394 8.24809 46.2308 8.29184 46.2309 8.336V10.826C46.2307 10.915 46.1952 11.0003 46.1322 11.0633C46.0693 11.1263 45.984 11.1617 45.8949 11.162H43.4049C43.3608 11.1619 43.317 11.1705 43.2762 11.1873C43.2354 11.2041 43.1983 11.2289 43.167 11.2601C43.1358 11.2913 43.1111 11.3284 43.0942 11.3693C43.0774 11.4101 43.0688 11.4538 43.0689 11.498V14.498C43.0692 14.5422 43.0782 14.586 43.0955 14.6267C43.1127 14.6675 43.1379 14.7044 43.1695 14.7354C43.2011 14.7663 43.2386 14.7907 43.2797 14.8071C43.3207 14.8236 43.3647 14.8317 43.4089 14.831L43.4069 14.835Z" fill="#C8F4BD"/>
<mask id="path-7-outside-1_163_914" maskUnits="userSpaceOnUse" x="28" y="9" width="40" height="82" fill="black">
<rect fill="white" x="28" y="9" width="40" height="82"/>
<path d="M63.3279 83.549H53.3279L52.2559 80.866L63.3269 80.939L63.3279 83.549ZM65.3399 85.931H54.2859L55.6859 89.446H65.3399C65.5743 89.4516 65.8073 89.4103 66.0255 89.3245C66.2436 89.2386 66.4423 89.1101 66.61 88.9463C66.7777 88.7826 66.911 88.5869 67.002 88.3709C67.093 88.1549 67.1399 87.9229 67.1399 87.6885C67.1399 87.4541 67.093 87.2221 67.002 87.0061C66.911 86.7901 66.7777 86.5944 66.61 86.4307C66.4423 86.2669 66.2436 86.1384 66.0255 86.0526C65.8073 85.9667 65.5743 85.9254 65.3399 85.931ZM38.6859 73.354C39.0466 72.5747 39.5582 71.8745 40.191 71.2941C40.8238 70.7136 41.5654 70.2642 42.3729 69.972L46.2389 68.564L57.3859 59.086C56.4776 55.2339 55.8866 51.3137 55.6189 47.365H40.4939C39.8049 55.365 37.2539 65.303 33.3869 75.057H38.1549C38.2538 74.4679 38.4325 73.8949 38.6859 73.354ZM30.7999 85.931C30.5656 85.9254 30.3325 85.9667 30.1144 86.0526C29.8963 86.1384 29.6975 86.2669 29.5298 86.4307C29.3621 86.5944 29.2288 86.7901 29.1379 87.0061C29.0469 87.2221 29 87.4541 29 87.6885C29 87.9229 29.0469 88.1549 29.1379 88.3709C29.2288 88.5869 29.3621 88.7826 29.5298 88.9463C29.6975 89.1101 29.8963 89.2386 30.1144 89.3245C30.3325 89.4103 30.5656 89.4516 30.7999 89.446H48.8259L47.4209 85.931H30.7999ZM54.9289 40.607C57.6301 37.4821 59.1927 33.5341 59.3619 29.407C59.3619 24.022 55.7199 23.074 48.0699 23.074C40.4199 23.074 36.7779 24.022 36.7779 29.407C36.9472 33.5339 38.5094 37.4817 41.2099 40.607H54.9289ZM46.0489 82.497C44.4971 82.8479 42.8706 82.6207 41.4743 81.8582C40.078 81.0957 39.0076 79.8502 38.4639 78.355C38.3553 78.0563 38.2684 77.7502 38.2039 77.439H32.8119V83.549H46.4689L46.0489 82.497ZM39.3889 42.99C39.2506 42.9776 39.1113 42.9941 38.9797 43.0385C38.8481 43.083 38.7273 43.1543 38.6248 43.248C38.5223 43.3417 38.4405 43.4557 38.3845 43.5828C38.3285 43.7098 38.2996 43.8471 38.2996 43.986C38.2996 44.1249 38.3285 44.2622 38.3845 44.3893C38.4405 44.5163 38.5223 44.6303 38.6248 44.724C38.7273 44.8177 38.8481 44.889 38.9797 44.9335C39.1113 44.9779 39.2506 44.9944 39.3889 44.982H56.7489C56.9977 44.9597 57.2291 44.8451 57.3976 44.6608C57.5661 44.4765 57.6596 44.2358 57.6596 43.986C57.6596 43.7363 57.5661 43.4955 57.3976 43.3112C57.2291 43.1269 56.9977 43.0123 56.7489 42.99H39.3889ZM43.4069 16.835H45.8969C45.986 16.8353 46.0713 16.8707 46.1342 16.9337C46.1972 16.9967 46.2327 17.082 46.2329 17.171V20.721C46.8239 20.707 47.4329 20.7 48.0679 20.7C48.7029 20.7 49.3109 20.707 49.9029 20.721V17.172C49.9029 17.0829 49.9383 16.9974 50.0013 16.9344C50.0644 16.8714 50.1498 16.836 50.2389 16.836H52.7289C52.818 16.836 52.9035 16.8006 52.9665 16.7376C53.0295 16.6746 53.0649 16.5891 53.0649 16.5V13.5C53.0649 13.4109 53.0295 13.3254 52.9665 13.2624C52.9035 13.1994 52.818 13.164 52.7289 13.164H50.2389C50.1498 13.164 50.0644 13.1286 50.0013 13.0656C49.9383 13.0026 49.9029 12.9171 49.9029 12.828V10.336C49.9029 10.2469 49.8675 10.1614 49.8045 10.0984C49.7415 10.0354 49.656 10 49.5669 10H46.5669C46.5228 9.99987 46.479 10.0085 46.4382 10.0253C46.3974 10.0421 46.3603 10.0669 46.329 10.0981C46.2978 10.1293 46.2731 10.1664 46.2562 10.2073C46.2394 10.2481 46.2308 10.2918 46.2309 10.336V12.826C46.2307 12.915 46.1952 13.0003 46.1322 13.0633C46.0693 13.1263 45.984 13.1617 45.8949 13.162H43.4049C43.3608 13.1619 43.317 13.1705 43.2762 13.1873C43.2354 13.2041 43.1983 13.2289 43.167 13.2601C43.1358 13.2913 43.1111 13.3284 43.0942 13.3693C43.0774 13.4101 43.0688 13.4538 43.0689 13.498V16.498C43.0692 16.5422 43.0782 16.586 43.0955 16.6267C43.1127 16.6675 43.1379 16.7044 43.1695 16.7354C43.2011 16.7663 43.2386 16.7907 43.2797 16.8071C43.3207 16.8236 43.3647 16.8317 43.4089 16.831L43.4069 16.835Z"/>
</mask>
<path d="M63.3279 83.549H53.3279L52.2559 80.866L63.3269 80.939L63.3279 83.549ZM65.3399 85.931H54.2859L55.6859 89.446H65.3399C65.5743 89.4516 65.8073 89.4103 66.0255 89.3245C66.2436 89.2386 66.4423 89.1101 66.61 88.9463C66.7777 88.7826 66.911 88.5869 67.002 88.3709C67.093 88.1549 67.1399 87.9229 67.1399 87.6885C67.1399 87.4541 67.093 87.2221 67.002 87.0061C66.911 86.7901 66.7777 86.5944 66.61 86.4307C66.4423 86.2669 66.2436 86.1384 66.0255 86.0526C65.8073 85.9667 65.5743 85.9254 65.3399 85.931ZM38.6859 73.354C39.0466 72.5747 39.5582 71.8745 40.191 71.2941C40.8238 70.7136 41.5654 70.2642 42.3729 69.972L46.2389 68.564L57.3859 59.086C56.4776 55.2339 55.8866 51.3137 55.6189 47.365H40.4939C39.8049 55.365 37.2539 65.303 33.3869 75.057H38.1549C38.2538 74.4679 38.4325 73.8949 38.6859 73.354ZM30.7999 85.931C30.5656 85.9254 30.3325 85.9667 30.1144 86.0526C29.8963 86.1384 29.6975 86.2669 29.5298 86.4307C29.3621 86.5944 29.2288 86.7901 29.1379 87.0061C29.0469 87.2221 29 87.4541 29 87.6885C29 87.9229 29.0469 88.1549 29.1379 88.3709C29.2288 88.5869 29.3621 88.7826 29.5298 88.9463C29.6975 89.1101 29.8963 89.2386 30.1144 89.3245C30.3325 89.4103 30.5656 89.4516 30.7999 89.446H48.8259L47.4209 85.931H30.7999ZM54.9289 40.607C57.6301 37.4821 59.1927 33.5341 59.3619 29.407C59.3619 24.022 55.7199 23.074 48.0699 23.074C40.4199 23.074 36.7779 24.022 36.7779 29.407C36.9472 33.5339 38.5094 37.4817 41.2099 40.607H54.9289ZM46.0489 82.497C44.4971 82.8479 42.8706 82.6207 41.4743 81.8582C40.078 81.0957 39.0076 79.8502 38.4639 78.355C38.3553 78.0563 38.2684 77.7502 38.2039 77.439H32.8119V83.549H46.4689L46.0489 82.497ZM39.3889 42.99C39.2506 42.9776 39.1113 42.9941 38.9797 43.0385C38.8481 43.083 38.7273 43.1543 38.6248 43.248C38.5223 43.3417 38.4405 43.4557 38.3845 43.5828C38.3285 43.7098 38.2996 43.8471 38.2996 43.986C38.2996 44.1249 38.3285 44.2622 38.3845 44.3893C38.4405 44.5163 38.5223 44.6303 38.6248 44.724C38.7273 44.8177 38.8481 44.889 38.9797 44.9335C39.1113 44.9779 39.2506 44.9944 39.3889 44.982H56.7489C56.9977 44.9597 57.2291 44.8451 57.3976 44.6608C57.5661 44.4765 57.6596 44.2358 57.6596 43.986C57.6596 43.7363 57.5661 43.4955 57.3976 43.3112C57.2291 43.1269 56.9977 43.0123 56.7489 42.99H39.3889ZM43.4069 16.835H45.8969C45.986 16.8353 46.0713 16.8707 46.1342 16.9337C46.1972 16.9967 46.2327 17.082 46.2329 17.171V20.721C46.8239 20.707 47.4329 20.7 48.0679 20.7C48.7029 20.7 49.3109 20.707 49.9029 20.721V17.172C49.9029 17.0829 49.9383 16.9974 50.0013 16.9344C50.0644 16.8714 50.1498 16.836 50.2389 16.836H52.7289C52.818 16.836 52.9035 16.8006 52.9665 16.7376C53.0295 16.6746 53.0649 16.5891 53.0649 16.5V13.5C53.0649 13.4109 53.0295 13.3254 52.9665 13.2624C52.9035 13.1994 52.818 13.164 52.7289 13.164H50.2389C50.1498 13.164 50.0644 13.1286 50.0013 13.0656C49.9383 13.0026 49.9029 12.9171 49.9029 12.828V10.336C49.9029 10.2469 49.8675 10.1614 49.8045 10.0984C49.7415 10.0354 49.656 10 49.5669 10H46.5669C46.5228 9.99987 46.479 10.0085 46.4382 10.0253C46.3974 10.0421 46.3603 10.0669 46.329 10.0981C46.2978 10.1293 46.2731 10.1664 46.2562 10.2073C46.2394 10.2481 46.2308 10.2918 46.2309 10.336V12.826C46.2307 12.915 46.1952 13.0003 46.1322 13.0633C46.0693 13.1263 45.984 13.1617 45.8949 13.162H43.4049C43.3608 13.1619 43.317 13.1705 43.2762 13.1873C43.2354 13.2041 43.1983 13.2289 43.167 13.2601C43.1358 13.2913 43.1111 13.3284 43.0942 13.3693C43.0774 13.4101 43.0688 13.4538 43.0689 13.498V16.498C43.0692 16.5422 43.0782 16.586 43.0955 16.6267C43.1127 16.6675 43.1379 16.7044 43.1695 16.7354C43.2011 16.7663 43.2386 16.7907 43.2797 16.8071C43.3207 16.8236 43.3647 16.8317 43.4089 16.831L43.4069 16.835Z" fill="#5DB947"/>
<path d="M63.3279 83.549H53.3279L52.2559 80.866L63.3269 80.939L63.3279 83.549ZM65.3399 85.931H54.2859L55.6859 89.446H65.3399C65.5743 89.4516 65.8073 89.4103 66.0255 89.3245C66.2436 89.2386 66.4423 89.1101 66.61 88.9463C66.7777 88.7826 66.911 88.5869 67.002 88.3709C67.093 88.1549 67.1399 87.9229 67.1399 87.6885C67.1399 87.4541 67.093 87.2221 67.002 87.0061C66.911 86.7901 66.7777 86.5944 66.61 86.4307C66.4423 86.2669 66.2436 86.1384 66.0255 86.0526C65.8073 85.9667 65.5743 85.9254 65.3399 85.931ZM38.6859 73.354C39.0466 72.5747 39.5582 71.8745 40.191 71.2941C40.8238 70.7136 41.5654 70.2642 42.3729 69.972L46.2389 68.564L57.3859 59.086C56.4776 55.2339 55.8866 51.3137 55.6189 47.365H40.4939C39.8049 55.365 37.2539 65.303 33.3869 75.057H38.1549C38.2538 74.4679 38.4325 73.8949 38.6859 73.354ZM30.7999 85.931C30.5656 85.9254 30.3325 85.9667 30.1144 86.0526C29.8963 86.1384 29.6975 86.2669 29.5298 86.4307C29.3621 86.5944 29.2288 86.7901 29.1379 87.0061C29.0469 87.2221 29 87.4541 29 87.6885C29 87.9229 29.0469 88.1549 29.1379 88.3709C29.2288 88.5869 29.3621 88.7826 29.5298 88.9463C29.6975 89.1101 29.8963 89.2386 30.1144 89.3245C30.3325 89.4103 30.5656 89.4516 30.7999 89.446H48.8259L47.4209 85.931H30.7999ZM54.9289 40.607C57.6301 37.4821 59.1927 33.5341 59.3619 29.407C59.3619 24.022 55.7199 23.074 48.0699 23.074C40.4199 23.074 36.7779 24.022 36.7779 29.407C36.9472 33.5339 38.5094 37.4817 41.2099 40.607H54.9289ZM46.0489 82.497C44.4971 82.8479 42.8706 82.6207 41.4743 81.8582C40.078 81.0957 39.0076 79.8502 38.4639 78.355C38.3553 78.0563 38.2684 77.7502 38.2039 77.439H32.8119V83.549H46.4689L46.0489 82.497ZM39.3889 42.99C39.2506 42.9776 39.1113 42.9941 38.9797 43.0385C38.8481 43.083 38.7273 43.1543 38.6248 43.248C38.5223 43.3417 38.4405 43.4557 38.3845 43.5828C38.3285 43.7098 38.2996 43.8471 38.2996 43.986C38.2996 44.1249 38.3285 44.2622 38.3845 44.3893C38.4405 44.5163 38.5223 44.6303 38.6248 44.724C38.7273 44.8177 38.8481 44.889 38.9797 44.9335C39.1113 44.9779 39.2506 44.9944 39.3889 44.982H56.7489C56.9977 44.9597 57.2291 44.8451 57.3976 44.6608C57.5661 44.4765 57.6596 44.2358 57.6596 43.986C57.6596 43.7363 57.5661 43.4955 57.3976 43.3112C57.2291 43.1269 56.9977 43.0123 56.7489 42.99H39.3889ZM43.4069 16.835H45.8969C45.986 16.8353 46.0713 16.8707 46.1342 16.9337C46.1972 16.9967 46.2327 17.082 46.2329 17.171V20.721C46.8239 20.707 47.4329 20.7 48.0679 20.7C48.7029 20.7 49.3109 20.707 49.9029 20.721V17.172C49.9029 17.0829 49.9383 16.9974 50.0013 16.9344C50.0644 16.8714 50.1498 16.836 50.2389 16.836H52.7289C52.818 16.836 52.9035 16.8006 52.9665 16.7376C53.0295 16.6746 53.0649 16.5891 53.0649 16.5V13.5C53.0649 13.4109 53.0295 13.3254 52.9665 13.2624C52.9035 13.1994 52.818 13.164 52.7289 13.164H50.2389C50.1498 13.164 50.0644 13.1286 50.0013 13.0656C49.9383 13.0026 49.9029 12.9171 49.9029 12.828V10.336C49.9029 10.2469 49.8675 10.1614 49.8045 10.0984C49.7415 10.0354 49.656 10 49.5669 10H46.5669C46.5228 9.99987 46.479 10.0085 46.4382 10.0253C46.3974 10.0421 46.3603 10.0669 46.329 10.0981C46.2978 10.1293 46.2731 10.1664 46.2562 10.2073C46.2394 10.2481 46.2308 10.2918 46.2309 10.336V12.826C46.2307 12.915 46.1952 13.0003 46.1322 13.0633C46.0693 13.1263 45.984 13.1617 45.8949 13.162H43.4049C43.3608 13.1619 43.317 13.1705 43.2762 13.1873C43.2354 13.2041 43.1983 13.2289 43.167 13.2601C43.1358 13.2913 43.1111 13.3284 43.0942 13.3693C43.0774 13.4101 43.0688 13.4538 43.0689 13.498V16.498C43.0692 16.5422 43.0782 16.586 43.0955 16.6267C43.1127 16.6675 43.1379 16.7044 43.1695 16.7354C43.2011 16.7663 43.2386 16.7907 43.2797 16.8071C43.3207 16.8236 43.3647 16.8317 43.4089 16.831L43.4069 16.835Z" stroke="black" stroke-width="1.6" mask="url(#path-7-outside-1_163_914)"/>
<mask id="path-8-outside-2_163_914" maskUnits="userSpaceOnUse" x="40" y="31" width="66" height="63" fill="black">
<rect fill="white" x="40" y="31" width="66" height="63"/>
<path d="M73.5487 62.953C73.1198 62.7526 72.6531 62.6462 72.1797 62.641L74.3227 68.527C74.7463 68.1614 75.0716 67.6955 75.2689 67.1719C75.4662 66.6483 75.5292 66.0836 75.4522 65.5294C75.3753 64.9752 75.1608 64.4491 74.8283 63.999C74.4958 63.549 74.0559 63.1894 73.5487 62.953ZM50.3107 80.893L48.8017 81.443L52.8797 91.649L52.8877 91.67C52.9238 91.8125 52.9992 91.9419 53.1052 92.0435C53.2113 92.1452 53.3439 92.215 53.4877 92.245C53.6422 92.2667 53.7997 92.2491 53.9457 92.1939C54.0916 92.1387 54.2213 92.0476 54.3227 91.929C54.4098 91.8127 54.4627 91.6745 54.4754 91.5298C54.4881 91.3851 54.4602 91.2397 54.3947 91.11L50.3107 80.893ZM43.6797 71.922C42.6588 72.3104 41.8316 73.0848 41.3771 74.0781C40.9226 75.0713 40.8771 76.2035 41.2506 77.23C41.6241 78.2565 42.3864 79.0948 43.373 79.5637C44.3595 80.0326 45.4909 80.0945 46.5227 79.736L49.4717 78.663L46.6297 70.849L43.6797 71.922ZM66.6297 54.356C66.5609 54.1687 66.4365 54.0069 66.2732 53.8923C66.1098 53.7777 65.9153 53.7158 65.7157 53.715C65.6018 53.7154 65.4888 53.7353 65.3817 53.774C65.2616 53.8176 65.1513 53.8845 65.0571 53.9709C64.9629 54.0572 64.8866 54.1612 64.8327 54.277C64.7787 54.3929 64.7481 54.5182 64.7426 54.6458C64.7371 54.7735 64.7569 54.901 64.8007 55.021L73.5667 79.108C73.655 79.3506 73.8361 79.5481 74.07 79.6571C74.304 79.7662 74.5717 79.7778 74.8142 79.6895C75.0567 79.6012 75.2543 79.4202 75.3633 79.1862C75.4724 78.9523 75.484 78.6846 75.3957 78.442L66.6297 54.356ZM48.7427 69.693L51.8347 78.193L70.7397 78.317L63.1477 57.446L48.7427 69.693ZM81.5887 52.67C79.5447 52.6698 77.5466 52.0635 75.8472 50.9278C74.1477 49.792 72.8232 48.1778 72.0411 46.2893C71.259 44.4009 71.0545 42.3229 71.4534 40.3181C71.8523 38.3134 72.8367 36.472 74.2821 35.0267C75.7275 33.5814 77.569 32.5972 79.5738 32.1985C81.5786 31.7998 83.6565 32.0045 85.545 32.7868C87.4334 33.5691 89.0474 34.8937 90.183 36.5933C91.3186 38.2929 91.9247 40.291 91.9247 42.335C91.9218 45.075 90.8321 47.7019 88.8948 49.6394C86.9574 51.5769 84.3306 52.6668 81.5907 52.67H81.5887ZM85.0997 43.77C84.8207 42.222 83.4497 41.132 81.4317 40.856C80.9907 40.796 80.6977 40.618 80.6067 40.356C80.5739 40.2573 80.5688 40.1516 80.5919 40.0502C80.615 39.9488 80.6654 39.8557 80.7377 39.781C80.8674 39.6641 81.0194 39.5746 81.1845 39.5177C81.3496 39.4608 81.5245 39.4378 81.6987 39.45C81.8982 39.4574 82.0937 39.5082 82.2716 39.5989C82.4495 39.6896 82.6055 39.8179 82.7287 39.975C82.9294 40.2147 83.2163 40.3658 83.5274 40.3958C83.8386 40.4259 84.1491 40.3323 84.3919 40.1355C84.6347 39.9386 84.7904 39.6541 84.8254 39.3435C84.8603 39.0328 84.7717 38.7209 84.5787 38.475C84.1135 37.8956 83.4872 37.467 82.7787 37.243V36.63C82.7787 36.3141 82.6532 36.0112 82.4299 35.7878C82.2065 35.5645 81.9036 35.439 81.5877 35.439C81.2718 35.439 80.9689 35.5645 80.7455 35.7878C80.5222 36.0112 80.3967 36.3141 80.3967 36.63V37.274C79.8799 37.4453 79.4108 37.7361 79.0277 38.123C78.6501 38.5151 78.3876 39.0034 78.2687 39.5346C78.1499 40.0658 78.1793 40.6194 78.3537 41.135C78.5706 41.706 78.944 42.2044 79.4311 42.5729C79.9182 42.9415 80.4992 43.1654 81.1077 43.219C82.0517 43.348 82.6677 43.713 82.7547 44.195C82.777 44.3625 82.7465 44.5327 82.6674 44.682C82.5884 44.8314 82.4647 44.9523 82.3137 45.028C82.089 45.1449 81.8417 45.2119 81.5887 45.2245C81.3357 45.2371 81.0829 45.195 80.8477 45.101C80.7399 45.0666 80.6409 45.0091 80.5575 44.9326C80.4741 44.8561 80.4083 44.7624 80.3647 44.658C80.2778 44.3542 80.0739 44.0973 79.7976 43.9439C79.5214 43.7905 79.1955 43.7531 78.8917 43.84C78.5879 43.9269 78.331 44.1308 78.1776 44.4071C78.0242 44.6833 77.9868 45.0092 78.0737 45.313C78.2134 45.7606 78.4518 46.1712 78.7713 46.5144C79.0908 46.8576 79.4832 47.1247 79.9197 47.296C80.075 47.3612 80.2343 47.4164 80.3967 47.461V48.05C80.3967 48.3659 80.5222 48.6688 80.7455 48.8922C80.9689 49.1155 81.2718 49.241 81.5877 49.241C81.9036 49.241 82.2065 49.1155 82.4299 48.8922C82.6532 48.6688 82.7787 48.3659 82.7787 48.05V47.403C83.0073 47.3292 83.2288 47.2351 83.4407 47.122C84.0372 46.8108 84.5195 46.3182 84.8181 45.7152C85.1166 45.1123 85.2159 44.4301 85.1017 43.767L85.0997 43.77ZM104.424 66.583C104.423 68.6269 103.816 70.6248 102.68 72.3238C101.544 74.0229 99.9293 75.347 98.0407 76.1285C96.1521 76.9101 94.0742 77.1142 92.0696 76.7149C90.0651 76.3156 88.2239 75.3308 86.779 73.8852C85.3341 72.4396 84.3502 70.5979 83.9519 68.5932C83.5535 66.5884 83.7586 64.5106 84.5411 62.6224C85.3236 60.7341 86.6484 59.1203 88.348 57.985C90.0477 56.8497 92.0458 56.2438 94.0897 56.244C96.8303 56.2472 99.4577 57.3376 101.395 59.276C103.333 61.2144 104.422 63.8424 104.424 66.583ZM97.6007 68.014C97.3217 66.466 95.9497 65.377 93.9327 65.101C93.4907 65.04 93.1977 64.862 93.1077 64.601C93.0747 64.5024 93.0695 64.3965 93.0926 64.2951C93.1157 64.1937 93.1662 64.1006 93.2387 64.026C93.3687 63.9096 93.5208 63.8205 93.6858 63.7638C93.8509 63.7071 94.0256 63.6841 94.1997 63.696C94.3992 63.7032 94.5947 63.7538 94.7726 63.8443C94.9505 63.9348 95.1065 64.063 95.2297 64.22C95.3264 64.3468 95.4475 64.4528 95.5859 64.5319C95.7243 64.611 95.8772 64.6615 96.0355 64.6804C96.1938 64.6993 96.3543 64.6862 96.5074 64.642C96.6606 64.5977 96.8033 64.5231 96.9271 64.4227C97.0509 64.3223 97.1533 64.198 97.2282 64.0573C97.303 63.9165 97.3489 63.7622 97.3631 63.6034C97.3772 63.4446 97.3593 63.2846 97.3105 63.1329C97.2616 62.9811 97.1828 62.8407 97.0787 62.72C96.6145 62.1389 95.9885 61.7084 95.2797 61.483V60.87C95.2707 60.56 95.1413 60.2657 94.9188 60.0495C94.6963 59.8334 94.3984 59.7125 94.0882 59.7125C93.778 59.7125 93.4801 59.8334 93.2576 60.0495C93.0352 60.2657 92.9057 60.56 92.8967 60.87V61.513C92.3801 61.6852 91.9112 61.9764 91.5277 62.363C91.1466 62.7528 90.8817 63.2412 90.7628 63.7733C90.6439 64.3053 90.6758 64.86 90.8547 65.375C91.0712 65.9461 91.4444 66.4445 91.9313 66.8131C92.4183 67.1817 92.9993 67.4056 93.6077 67.459C94.5527 67.588 95.1677 67.953 95.2547 68.435C95.2771 68.6026 95.2466 68.773 95.1675 68.9225C95.0885 69.072 94.9648 69.1931 94.8137 69.269C94.5889 69.3856 94.3416 69.4525 94.0886 69.4651C93.8357 69.4777 93.583 69.4357 93.3477 69.342C93.2402 69.3069 93.1415 69.2492 93.0582 69.1728C92.9749 69.0964 92.9089 69.003 92.8647 68.899C92.7733 68.6008 92.5685 68.3504 92.2945 68.2015C92.0204 68.0526 91.6989 68.0172 91.3989 68.1029C91.099 68.1885 90.8447 68.3884 90.6906 68.6595C90.5365 68.9307 90.4949 69.2515 90.5747 69.553C90.7141 70.0008 90.9523 70.4115 91.2719 70.7547C91.5914 71.098 91.984 71.365 92.4207 71.536C92.5756 71.6012 92.7346 71.6564 92.8967 71.701V72.29C92.9057 72.6 93.0352 72.8943 93.2576 73.1105C93.4801 73.3266 93.778 73.4475 94.0882 73.4475C94.3984 73.4475 94.6963 73.3266 94.9188 73.1105C95.1413 72.8943 95.2707 72.6 95.2797 72.29V71.649C95.5079 71.5752 95.7292 71.4811 95.9407 71.368C96.5374 71.0563 97.0197 70.5631 97.318 69.9596C97.6164 69.3561 97.7154 68.6734 97.6007 68.01V68.014Z"/>
</mask>
<path d="M73.5487 62.953C73.1198 62.7526 72.6531 62.6462 72.1797 62.641L74.3227 68.527C74.7463 68.1614 75.0716 67.6955 75.2689 67.1719C75.4662 66.6483 75.5292 66.0836 75.4522 65.5294C75.3753 64.9752 75.1608 64.4491 74.8283 63.999C74.4958 63.549 74.0559 63.1894 73.5487 62.953ZM50.3107 80.893L48.8017 81.443L52.8797 91.649L52.8877 91.67C52.9238 91.8125 52.9992 91.9419 53.1052 92.0435C53.2113 92.1452 53.3439 92.215 53.4877 92.245C53.6422 92.2667 53.7997 92.2491 53.9457 92.1939C54.0916 92.1387 54.2213 92.0476 54.3227 91.929C54.4098 91.8127 54.4627 91.6745 54.4754 91.5298C54.4881 91.3851 54.4602 91.2397 54.3947 91.11L50.3107 80.893ZM43.6797 71.922C42.6588 72.3104 41.8316 73.0848 41.3771 74.0781C40.9226 75.0713 40.8771 76.2035 41.2506 77.23C41.6241 78.2565 42.3864 79.0948 43.373 79.5637C44.3595 80.0326 45.4909 80.0945 46.5227 79.736L49.4717 78.663L46.6297 70.849L43.6797 71.922ZM66.6297 54.356C66.5609 54.1687 66.4365 54.0069 66.2732 53.8923C66.1098 53.7777 65.9153 53.7158 65.7157 53.715C65.6018 53.7154 65.4888 53.7353 65.3817 53.774C65.2616 53.8176 65.1513 53.8845 65.0571 53.9709C64.9629 54.0572 64.8866 54.1612 64.8327 54.277C64.7787 54.3929 64.7481 54.5182 64.7426 54.6458C64.7371 54.7735 64.7569 54.901 64.8007 55.021L73.5667 79.108C73.655 79.3506 73.8361 79.5481 74.07 79.6571C74.304 79.7662 74.5717 79.7778 74.8142 79.6895C75.0567 79.6012 75.2543 79.4202 75.3633 79.1862C75.4724 78.9523 75.484 78.6846 75.3957 78.442L66.6297 54.356ZM48.7427 69.693L51.8347 78.193L70.7397 78.317L63.1477 57.446L48.7427 69.693ZM81.5887 52.67C79.5447 52.6698 77.5466 52.0635 75.8472 50.9278C74.1477 49.792 72.8232 48.1778 72.0411 46.2893C71.259 44.4009 71.0545 42.3229 71.4534 40.3181C71.8523 38.3134 72.8367 36.472 74.2821 35.0267C75.7275 33.5814 77.569 32.5972 79.5738 32.1985C81.5786 31.7998 83.6565 32.0045 85.545 32.7868C87.4334 33.5691 89.0474 34.8937 90.183 36.5933C91.3186 38.2929 91.9247 40.291 91.9247 42.335C91.9218 45.075 90.8321 47.7019 88.8948 49.6394C86.9574 51.5769 84.3306 52.6668 81.5907 52.67H81.5887ZM85.0997 43.77C84.8207 42.222 83.4497 41.132 81.4317 40.856C80.9907 40.796 80.6977 40.618 80.6067 40.356C80.5739 40.2573 80.5688 40.1516 80.5919 40.0502C80.615 39.9488 80.6654 39.8557 80.7377 39.781C80.8674 39.6641 81.0194 39.5746 81.1845 39.5177C81.3496 39.4608 81.5245 39.4378 81.6987 39.45C81.8982 39.4574 82.0937 39.5082 82.2716 39.5989C82.4495 39.6896 82.6055 39.8179 82.7287 39.975C82.9294 40.2147 83.2163 40.3658 83.5274 40.3958C83.8386 40.4259 84.1491 40.3323 84.3919 40.1355C84.6347 39.9386 84.7904 39.6541 84.8254 39.3435C84.8603 39.0328 84.7717 38.7209 84.5787 38.475C84.1135 37.8956 83.4872 37.467 82.7787 37.243V36.63C82.7787 36.3141 82.6532 36.0112 82.4299 35.7878C82.2065 35.5645 81.9036 35.439 81.5877 35.439C81.2718 35.439 80.9689 35.5645 80.7455 35.7878C80.5222 36.0112 80.3967 36.3141 80.3967 36.63V37.274C79.8799 37.4453 79.4108 37.7361 79.0277 38.123C78.6501 38.5151 78.3876 39.0034 78.2687 39.5346C78.1499 40.0658 78.1793 40.6194 78.3537 41.135C78.5706 41.706 78.944 42.2044 79.4311 42.5729C79.9182 42.9415 80.4992 43.1654 81.1077 43.219C82.0517 43.348 82.6677 43.713 82.7547 44.195C82.777 44.3625 82.7465 44.5327 82.6674 44.682C82.5884 44.8314 82.4647 44.9523 82.3137 45.028C82.089 45.1449 81.8417 45.2119 81.5887 45.2245C81.3357 45.2371 81.0829 45.195 80.8477 45.101C80.7399 45.0666 80.6409 45.0091 80.5575 44.9326C80.4741 44.8561 80.4083 44.7624 80.3647 44.658C80.2778 44.3542 80.0739 44.0973 79.7976 43.9439C79.5214 43.7905 79.1955 43.7531 78.8917 43.84C78.5879 43.9269 78.331 44.1308 78.1776 44.4071C78.0242 44.6833 77.9868 45.0092 78.0737 45.313C78.2134 45.7606 78.4518 46.1712 78.7713 46.5144C79.0908 46.8576 79.4832 47.1247 79.9197 47.296C80.075 47.3612 80.2343 47.4164 80.3967 47.461V48.05C80.3967 48.3659 80.5222 48.6688 80.7455 48.8922C80.9689 49.1155 81.2718 49.241 81.5877 49.241C81.9036 49.241 82.2065 49.1155 82.4299 48.8922C82.6532 48.6688 82.7787 48.3659 82.7787 48.05V47.403C83.0073 47.3292 83.2288 47.2351 83.4407 47.122C84.0372 46.8108 84.5195 46.3182 84.8181 45.7152C85.1166 45.1123 85.2159 44.4301 85.1017 43.767L85.0997 43.77ZM104.424 66.583C104.423 68.6269 103.816 70.6248 102.68 72.3238C101.544 74.0229 99.9293 75.347 98.0407 76.1285C96.1521 76.9101 94.0742 77.1142 92.0696 76.7149C90.0651 76.3156 88.2239 75.3308 86.779 73.8852C85.3341 72.4396 84.3502 70.5979 83.9519 68.5932C83.5535 66.5884 83.7586 64.5106 84.5411 62.6224C85.3236 60.7341 86.6484 59.1203 88.348 57.985C90.0477 56.8497 92.0458 56.2438 94.0897 56.244C96.8303 56.2472 99.4577 57.3376 101.395 59.276C103.333 61.2144 104.422 63.8424 104.424 66.583ZM97.6007 68.014C97.3217 66.466 95.9497 65.377 93.9327 65.101C93.4907 65.04 93.1977 64.862 93.1077 64.601C93.0747 64.5024 93.0695 64.3965 93.0926 64.2951C93.1157 64.1937 93.1662 64.1006 93.2387 64.026C93.3687 63.9096 93.5208 63.8205 93.6858 63.7638C93.8509 63.7071 94.0256 63.6841 94.1997 63.696C94.3992 63.7032 94.5947 63.7538 94.7726 63.8443C94.9505 63.9348 95.1065 64.063 95.2297 64.22C95.3264 64.3468 95.4475 64.4528 95.5859 64.5319C95.7243 64.611 95.8772 64.6615 96.0355 64.6804C96.1938 64.6993 96.3543 64.6862 96.5074 64.642C96.6606 64.5977 96.8033 64.5231 96.9271 64.4227C97.0509 64.3223 97.1533 64.198 97.2282 64.0573C97.303 63.9165 97.3489 63.7622 97.3631 63.6034C97.3772 63.4446 97.3593 63.2846 97.3105 63.1329C97.2616 62.9811 97.1828 62.8407 97.0787 62.72C96.6145 62.1389 95.9885 61.7084 95.2797 61.483V60.87C95.2707 60.56 95.1413 60.2657 94.9188 60.0495C94.6963 59.8334 94.3984 59.7125 94.0882 59.7125C93.778 59.7125 93.4801 59.8334 93.2576 60.0495C93.0352 60.2657 92.9057 60.56 92.8967 60.87V61.513C92.3801 61.6852 91.9112 61.9764 91.5277 62.363C91.1466 62.7528 90.8817 63.2412 90.7628 63.7733C90.6439 64.3053 90.6758 64.86 90.8547 65.375C91.0712 65.9461 91.4444 66.4445 91.9313 66.8131C92.4183 67.1817 92.9993 67.4056 93.6077 67.459C94.5527 67.588 95.1677 67.953 95.2547 68.435C95.2771 68.6026 95.2466 68.773 95.1675 68.9225C95.0885 69.072 94.9648 69.1931 94.8137 69.269C94.5889 69.3856 94.3416 69.4525 94.0886 69.4651C93.8357 69.4777 93.583 69.4357 93.3477 69.342C93.2402 69.3069 93.1415 69.2492 93.0582 69.1728C92.9749 69.0964 92.9089 69.003 92.8647 68.899C92.7733 68.6008 92.5685 68.3504 92.2945 68.2015C92.0204 68.0526 91.6989 68.0172 91.3989 68.1029C91.099 68.1885 90.8447 68.3884 90.6906 68.6595C90.5365 68.9307 90.4949 69.2515 90.5747 69.553C90.7141 70.0008 90.9523 70.4115 91.2719 70.7547C91.5914 71.098 91.984 71.365 92.4207 71.536C92.5756 71.6012 92.7346 71.6564 92.8967 71.701V72.29C92.9057 72.6 93.0352 72.8943 93.2576 73.1105C93.4801 73.3266 93.778 73.4475 94.0882 73.4475C94.3984 73.4475 94.6963 73.3266 94.9188 73.1105C95.1413 72.8943 95.2707 72.6 95.2797 72.29V71.649C95.5079 71.5752 95.7292 71.4811 95.9407 71.368C96.5374 71.0563 97.0197 70.5631 97.318 69.9596C97.6164 69.3561 97.7154 68.6734 97.6007 68.01V68.014Z" fill="white"/>
<path d="M73.5487 62.953C73.1198 62.7526 72.6531 62.6462 72.1797 62.641L74.3227 68.527C74.7463 68.1614 75.0716 67.6955 75.2689 67.1719C75.4662 66.6483 75.5292 66.0836 75.4522 65.5294C75.3753 64.9752 75.1608 64.4491 74.8283 63.999C74.4958 63.549 74.0559 63.1894 73.5487 62.953ZM50.3107 80.893L48.8017 81.443L52.8797 91.649L52.8877 91.67C52.9238 91.8125 52.9992 91.9419 53.1052 92.0435C53.2113 92.1452 53.3439 92.215 53.4877 92.245C53.6422 92.2667 53.7997 92.2491 53.9457 92.1939C54.0916 92.1387 54.2213 92.0476 54.3227 91.929C54.4098 91.8127 54.4627 91.6745 54.4754 91.5298C54.4881 91.3851 54.4602 91.2397 54.3947 91.11L50.3107 80.893ZM43.6797 71.922C42.6588 72.3104 41.8316 73.0848 41.3771 74.0781C40.9226 75.0713 40.8771 76.2035 41.2506 77.23C41.6241 78.2565 42.3864 79.0948 43.373 79.5637C44.3595 80.0326 45.4909 80.0945 46.5227 79.736L49.4717 78.663L46.6297 70.849L43.6797 71.922ZM66.6297 54.356C66.5609 54.1687 66.4365 54.0069 66.2732 53.8923C66.1098 53.7777 65.9153 53.7158 65.7157 53.715C65.6018 53.7154 65.4888 53.7353 65.3817 53.774C65.2616 53.8176 65.1513 53.8845 65.0571 53.9709C64.9629 54.0572 64.8866 54.1612 64.8327 54.277C64.7787 54.3929 64.7481 54.5182 64.7426 54.6458C64.7371 54.7735 64.7569 54.901 64.8007 55.021L73.5667 79.108C73.655 79.3506 73.8361 79.5481 74.07 79.6571C74.304 79.7662 74.5717 79.7778 74.8142 79.6895C75.0567 79.6012 75.2543 79.4202 75.3633 79.1862C75.4724 78.9523 75.484 78.6846 75.3957 78.442L66.6297 54.356ZM48.7427 69.693L51.8347 78.193L70.7397 78.317L63.1477 57.446L48.7427 69.693ZM81.5887 52.67C79.5447 52.6698 77.5466 52.0635 75.8472 50.9278C74.1477 49.792 72.8232 48.1778 72.0411 46.2893C71.259 44.4009 71.0545 42.3229 71.4534 40.3181C71.8523 38.3134 72.8367 36.472 74.2821 35.0267C75.7275 33.5814 77.569 32.5972 79.5738 32.1985C81.5786 31.7998 83.6565 32.0045 85.545 32.7868C87.4334 33.5691 89.0474 34.8937 90.183 36.5933C91.3186 38.2929 91.9247 40.291 91.9247 42.335C91.9218 45.075 90.8321 47.7019 88.8948 49.6394C86.9574 51.5769 84.3306 52.6668 81.5907 52.67H81.5887ZM85.0997 43.77C84.8207 42.222 83.4497 41.132 81.4317 40.856C80.9907 40.796 80.6977 40.618 80.6067 40.356C80.5739 40.2573 80.5688 40.1516 80.5919 40.0502C80.615 39.9488 80.6654 39.8557 80.7377 39.781C80.8674 39.6641 81.0194 39.5746 81.1845 39.5177C81.3496 39.4608 81.5245 39.4378 81.6987 39.45C81.8982 39.4574 82.0937 39.5082 82.2716 39.5989C82.4495 39.6896 82.6055 39.8179 82.7287 39.975C82.9294 40.2147 83.2163 40.3658 83.5274 40.3958C83.8386 40.4259 84.1491 40.3323 84.3919 40.1355C84.6347 39.9386 84.7904 39.6541 84.8254 39.3435C84.8603 39.0328 84.7717 38.7209 84.5787 38.475C84.1135 37.8956 83.4872 37.467 82.7787 37.243V36.63C82.7787 36.3141 82.6532 36.0112 82.4299 35.7878C82.2065 35.5645 81.9036 35.439 81.5877 35.439C81.2718 35.439 80.9689 35.5645 80.7455 35.7878C80.5222 36.0112 80.3967 36.3141 80.3967 36.63V37.274C79.8799 37.4453 79.4108 37.7361 79.0277 38.123C78.6501 38.5151 78.3876 39.0034 78.2687 39.5346C78.1499 40.0658 78.1793 40.6194 78.3537 41.135C78.5706 41.706 78.944 42.2044 79.4311 42.5729C79.9182 42.9415 80.4992 43.1654 81.1077 43.219C82.0517 43.348 82.6677 43.713 82.7547 44.195C82.777 44.3625 82.7465 44.5327 82.6674 44.682C82.5884 44.8314 82.4647 44.9523 82.3137 45.028C82.089 45.1449 81.8417 45.2119 81.5887 45.2245C81.3357 45.2371 81.0829 45.195 80.8477 45.101C80.7399 45.0666 80.6409 45.0091 80.5575 44.9326C80.4741 44.8561 80.4083 44.7624 80.3647 44.658C80.2778 44.3542 80.0739 44.0973 79.7976 43.9439C79.5214 43.7905 79.1955 43.7531 78.8917 43.84C78.5879 43.9269 78.331 44.1308 78.1776 44.4071C78.0242 44.6833 77.9868 45.0092 78.0737 45.313C78.2134 45.7606 78.4518 46.1712 78.7713 46.5144C79.0908 46.8576 79.4832 47.1247 79.9197 47.296C80.075 47.3612 80.2343 47.4164 80.3967 47.461V48.05C80.3967 48.3659 80.5222 48.6688 80.7455 48.8922C80.9689 49.1155 81.2718 49.241 81.5877 49.241C81.9036 49.241 82.2065 49.1155 82.4299 48.8922C82.6532 48.6688 82.7787 48.3659 82.7787 48.05V47.403C83.0073 47.3292 83.2288 47.2351 83.4407 47.122C84.0372 46.8108 84.5195 46.3182 84.8181 45.7152C85.1166 45.1123 85.2159 44.4301 85.1017 43.767L85.0997 43.77ZM104.424 66.583C104.423 68.6269 103.816 70.6248 102.68 72.3238C101.544 74.0229 99.9293 75.347 98.0407 76.1285C96.1521 76.9101 94.0742 77.1142 92.0696 76.7149C90.0651 76.3156 88.2239 75.3308 86.779 73.8852C85.3341 72.4396 84.3502 70.5979 83.9519 68.5932C83.5535 66.5884 83.7586 64.5106 84.5411 62.6224C85.3236 60.7341 86.6484 59.1203 88.348 57.985C90.0477 56.8497 92.0458 56.2438 94.0897 56.244C96.8303 56.2472 99.4577 57.3376 101.395 59.276C103.333 61.2144 104.422 63.8424 104.424 66.583ZM97.6007 68.014C97.3217 66.466 95.9497 65.377 93.9327 65.101C93.4907 65.04 93.1977 64.862 93.1077 64.601C93.0747 64.5024 93.0695 64.3965 93.0926 64.2951C93.1157 64.1937 93.1662 64.1006 93.2387 64.026C93.3687 63.9096 93.5208 63.8205 93.6858 63.7638C93.8509 63.7071 94.0256 63.6841 94.1997 63.696C94.3992 63.7032 94.5947 63.7538 94.7726 63.8443C94.9505 63.9348 95.1065 64.063 95.2297 64.22C95.3264 64.3468 95.4475 64.4528 95.5859 64.5319C95.7243 64.611 95.8772 64.6615 96.0355 64.6804C96.1938 64.6993 96.3543 64.6862 96.5074 64.642C96.6606 64.5977 96.8033 64.5231 96.9271 64.4227C97.0509 64.3223 97.1533 64.198 97.2282 64.0573C97.303 63.9165 97.3489 63.7622 97.3631 63.6034C97.3772 63.4446 97.3593 63.2846 97.3105 63.1329C97.2616 62.9811 97.1828 62.8407 97.0787 62.72C96.6145 62.1389 95.9885 61.7084 95.2797 61.483V60.87C95.2707 60.56 95.1413 60.2657 94.9188 60.0495C94.6963 59.8334 94.3984 59.7125 94.0882 59.7125C93.778 59.7125 93.4801 59.8334 93.2576 60.0495C93.0352 60.2657 92.9057 60.56 92.8967 60.87V61.513C92.3801 61.6852 91.9112 61.9764 91.5277 62.363C91.1466 62.7528 90.8817 63.2412 90.7628 63.7733C90.6439 64.3053 90.6758 64.86 90.8547 65.375C91.0712 65.9461 91.4444 66.4445 91.9313 66.8131C92.4183 67.1817 92.9993 67.4056 93.6077 67.459C94.5527 67.588 95.1677 67.953 95.2547 68.435C95.2771 68.6026 95.2466 68.773 95.1675 68.9225C95.0885 69.072 94.9648 69.1931 94.8137 69.269C94.5889 69.3856 94.3416 69.4525 94.0886 69.4651C93.8357 69.4777 93.583 69.4357 93.3477 69.342C93.2402 69.3069 93.1415 69.2492 93.0582 69.1728C92.9749 69.0964 92.9089 69.003 92.8647 68.899C92.7733 68.6008 92.5685 68.3504 92.2945 68.2015C92.0204 68.0526 91.6989 68.0172 91.3989 68.1029C91.099 68.1885 90.8447 68.3884 90.6906 68.6595C90.5365 68.9307 90.4949 69.2515 90.5747 69.553C90.7141 70.0008 90.9523 70.4115 91.2719 70.7547C91.5914 71.098 91.984 71.365 92.4207 71.536C92.5756 71.6012 92.7346 71.6564 92.8967 71.701V72.29C92.9057 72.6 93.0352 72.8943 93.2576 73.1105C93.4801 73.3266 93.778 73.4475 94.0882 73.4475C94.3984 73.4475 94.6963 73.3266 94.9188 73.1105C95.1413 72.8943 95.2707 72.6 95.2797 72.29V71.649C95.5079 71.5752 95.7292 71.4811 95.9407 71.368C96.5374 71.0563 97.0197 70.5631 97.318 69.9596C97.6164 69.3561 97.7154 68.6734 97.6007 68.01V68.014Z" stroke="black" stroke-width="1.6" mask="url(#path-8-outside-2_163_914)"/>
</svg>
