<svg width="128" height="100" viewBox="0 0 128 100" fill="none" xmlns="http://www.w3.org/2000/svg">
<path d="M0.154081 60.847C0.252768 60.945 0.3866 61 0.526144 61C0.665688 61 0.79952 60.945 0.898207 60.847L3.50318 58.261L6.10815 60.847C6.2074 60.9422 6.34033 60.9949 6.47832 60.9937C6.6163 60.9925 6.74829 60.9375 6.84586 60.8407C6.94344 60.7438 6.99878 60.6128 6.99998 60.4758C7.00118 60.3388 6.94814 60.2069 6.85227 60.1083L3.87524 57.153C3.77655 57.055 3.64272 57 3.50318 57C3.36363 57 3.2298 57.055 3.13111 57.153L0.154081 60.1083C0.0554229 60.2063 0 60.3392 0 60.4777C0 60.6162 0.0554229 60.7491 0.154081 60.847Z" fill="#5DB947"/>
<path d="M13.1541 37.847C13.2528 37.945 13.3866 38 13.5261 38C13.6657 38 13.7995 37.945 13.8982 37.847L16.5032 35.261L19.1081 37.847C19.2074 37.9422 19.3403 37.9949 19.4783 37.9937C19.6163 37.9925 19.7483 37.9375 19.8459 37.8407C19.9434 37.7438 19.9988 37.6128 20 37.4758C20.0012 37.3388 19.9481 37.2069 19.8523 37.1083L16.8752 34.153C16.7766 34.055 16.6427 34 16.5032 34C16.3636 34 16.2298 34.055 16.1311 34.153L13.1541 37.1083C13.0554 37.2063 13 37.3392 13 37.4777C13 37.6162 13.0554 37.7491 13.1541 37.847Z" fill="#5DB947"/>
<path d="M121.154 43.847C121.253 43.945 121.387 44 121.526 44C121.666 44 121.8 43.945 121.898 43.847L124.503 41.261L127.108 43.847C127.207 43.9422 127.34 43.9949 127.478 43.9937C127.616 43.9925 127.748 43.9375 127.846 43.8407C127.943 43.7438 127.999 43.6128 128 43.4758C128.001 43.3388 127.948 43.2069 127.852 43.1083L124.875 40.153C124.777 40.055 124.643 40 124.503 40C124.364 40 124.23 40.055 124.131 40.153L121.154 43.1083C121.055 43.2063 121 43.3392 121 43.4777C121 43.6162 121.055 43.7491 121.154 43.847Z" fill="#5DB947"/>
<path d="M114.154 74.847C114.253 74.945 114.387 75 114.526 75C114.666 75 114.8 74.945 114.898 74.847L117.503 72.261L120.108 74.847C120.207 74.9422 120.34 74.9949 120.478 74.9937C120.616 74.9925 120.748 74.9375 120.846 74.8407C120.943 74.7438 120.999 74.6128 121 74.4758C121.001 74.3388 120.948 74.2069 120.852 74.1083L117.875 71.153C117.777 71.055 117.643 71 117.503 71C117.364 71 117.23 71.055 117.131 71.153L114.154 74.1083C114.055 74.2063 114 74.3392 114 74.4777C114 74.6162 114.055 74.7491 114.154 74.847Z" fill="#5DB947"/>
<path d="M89.8118 29.04C89.3972 29.04 88.9825 28.8811 88.6647 28.5633L69.0116 8.75121C68.3858 8.11803 68.3883 7.09503 69.0215 6.46931C69.6547 5.83862 70.6727 5.84607 71.3059 6.47676L90.959 26.2888C91.5847 26.922 91.5822 27.945 90.9491 28.5707C90.6337 28.886 90.2215 29.04 89.8118 29.04Z" fill="#C8F4BD"/>
<path d="M93.2572 90.3901C92.8351 90.3901 92.4155 90.2262 92.1001 89.901C91.4769 89.2628 91.4943 88.2398 92.1324 87.6191L103.122 76.947C103.768 76.3263 104.788 76.3412 105.404 76.9818C106.027 77.6199 106.01 78.6429 105.372 79.2637L94.382 89.9357C94.0667 90.2387 93.6619 90.3901 93.2572 90.3901Z" fill="#C8F4BD"/>
<path d="M52.1737 53.1861L59.6549 60.4894L37.6633 81.7906L30.2073 74.536C29.8307 74.1952 29.3537 74.0735 28.8768 74.0978C28.3998 74.1952 27.973 74.4873 27.7722 74.9255C26.5671 77.3112 25.1362 79.5266 24.2073 80.4273C22.2994 82.3018 18.9856 82.3018 17.1027 80.4273C16.1237 79.4779 15.6216 78.2607 15.6216 76.9704C15.6216 75.6558 16.1237 74.463 17.1027 73.5379C18.0316 72.6371 20.3161 71.2495 22.7764 70.081C23.2282 69.8619 23.5044 69.4724 23.6048 68.9855C23.6801 68.5473 23.5044 68.0848 23.178 67.7196L15.6969 60.4894L21.722 54.6224C22.8517 56.57 23.9814 58.2254 24.9102 59.1018C28.0483 62.1691 33.1445 62.1448 36.2826 59.1018C39.4206 56.0587 39.4206 51.1169 36.2826 48.0738C35.3537 47.2218 33.6968 46.0776 31.6634 45.0065L37.6633 39.1395L45.1696 46.3941C45.4959 46.7349 45.998 46.9053 46.475 46.8323C46.952 46.7349 47.3788 46.4428 47.5796 46.0046C48.7595 43.6188 50.2156 41.4035 51.1444 40.4784C53.1277 38.6283 56.2909 38.6283 58.2741 40.4784C60.2323 42.4016 60.2323 45.5177 58.2741 47.3922C57.3201 48.2929 55.0356 49.7292 52.5754 50.8491C52.1486 51.0682 51.8474 51.4577 51.772 51.9446C51.6716 52.4314 51.8223 52.8453 52.1737 53.1861Z" fill="#C8F4BD"/>
<path d="M100.677 51.783L107.897 59.0925L86.6503 80.4119L79.3817 73.1511C79.0657 72.81 78.5795 72.6882 78.1419 72.7125C77.6557 72.81 77.2668 73.1024 77.048 73.5409C75.8811 75.9287 74.4955 78.1459 73.596 79.0474C71.7485 80.9235 68.5396 80.9235 66.6921 79.0474C65.7926 78.0972 65.2578 76.879 65.2578 75.5876C65.2578 74.2719 65.7926 73.078 66.6921 72.1521C67.6158 71.2506 69.828 69.8618 72.2104 68.6923C72.6236 68.473 72.9153 68.0832 72.9883 67.5959C73.0855 67.1573 72.9396 66.6944 72.5993 66.3289L65.3551 59.0925L71.1894 53.2205C72.259 55.1697 73.3772 56.8265 74.2767 57.7037C75.7596 59.2143 77.7043 59.994 79.7706 59.994C81.8613 59.994 83.806 59.2143 85.2889 57.7037C88.3033 54.658 88.3033 49.7119 85.2889 46.6663C84.4138 45.8135 82.7607 44.6684 80.7917 43.5963L86.6503 37.7243L93.8702 44.9851C94.2106 45.3262 94.6724 45.4968 95.1586 45.4237C95.6205 45.3262 96.0338 45.0339 96.2282 44.5953C97.3951 42.2075 98.7808 39.9903 99.6802 39.0644C101.528 37.2614 104.737 37.2614 106.56 39.0644C108.48 40.9893 108.48 44.108 106.56 45.9841C105.66 46.8856 103.448 48.3231 101.066 49.4439C100.653 49.6632 100.361 50.053 100.264 50.5403C100.166 51.0276 100.361 51.4419 100.677 51.783Z" fill="#C8F4BD"/>
<path d="M80.3342 55.6262C78.4262 57.5023 75.1124 57.4536 73.2296 55.6262C72.2756 54.7247 70.8447 52.5075 69.6397 50.1197C69.4388 49.6811 69.012 49.3644 68.5602 49.2913H68.3091C67.9074 49.2913 67.5309 49.4131 67.2296 49.7299L59.7485 56.9663L53.7234 51.1674C55.7569 50.0222 57.4389 48.9015 58.3426 48.0243C61.4807 45.0031 61.4807 40.057 58.3426 37.0113C55.2297 33.9657 50.1084 33.9657 46.9954 37.0113C46.0665 37.8641 44.9117 39.5209 43.782 41.4701L37.7821 35.6225L45.2381 28.3618C45.6147 28.0694 45.7402 27.5821 45.6649 27.1192C45.5896 26.6806 45.2883 26.242 44.8364 26.0227C42.3762 24.8532 40.0917 23.4644 39.1628 22.5385C38.2339 21.637 37.6816 20.4188 37.6816 19.1274C37.6816 17.8117 38.2339 16.5935 39.1628 15.6432C41.0707 13.8159 44.3845 13.8159 46.2674 15.6432C47.2213 16.5691 48.6523 18.7863 49.8573 21.1985C50.0833 21.5883 50.4849 21.905 50.9619 21.9781C51.4389 22.0756 51.941 21.905 52.2674 21.5639L59.7485 14.3032L81.7149 35.6225L74.2589 42.9077C73.9074 43.2488 73.7317 43.6874 73.8321 44.1747C73.9074 44.6376 74.2338 45.0274 74.6606 45.2467C77.1208 46.4162 79.4053 47.805 80.3342 48.7309C82.2923 50.6314 82.2923 53.7257 80.3342 55.6262Z" fill="#C8F4BD"/>
<path d="M98.9317 52.1228L98.9371 52.1286L98.9428 52.1343L105.814 59.0909L85.2711 79.7044L78.3629 72.8036C77.9135 72.3244 77.2639 72.1839 76.7357 72.2133L76.7001 72.2153L76.6652 72.2223C76.0318 72.3492 75.5117 72.7372 75.2221 73.3177L75.2203 73.3214C74.0567 75.7026 72.7008 77.8552 71.8636 78.6943L71.8613 78.6966C70.2108 80.3727 67.3255 80.3738 65.6733 78.7001C64.8541 77.8329 64.3794 76.7359 64.3794 75.5876C64.3794 74.416 64.8531 73.346 65.6676 72.5053C66.5348 71.6618 68.6831 70.3042 71.0523 69.1411L71.0593 69.1377L71.0663 69.134C71.6096 68.8457 72.0002 68.3291 72.1017 67.6868C72.2322 67.0691 72.0172 66.4504 71.5868 65.9881L71.5807 65.9815L71.5743 65.9751L64.6828 59.0911L69.6984 54.0432C70.6744 55.7528 71.6873 57.2196 72.5452 58.0578C74.1247 59.6647 76.1978 60.494 78.3922 60.494C80.6116 60.494 82.6862 59.6642 84.2666 58.0547C87.4731 54.8141 87.4729 49.5548 84.2659 46.3146L84.2659 46.3145L84.2595 46.3082C83.4285 45.4984 81.9678 44.4681 80.2344 43.4812L85.2713 38.4329L92.1373 45.3377L92.1378 45.3383C92.5817 45.7831 93.1994 46.0166 93.8545 45.9181L93.8691 45.916L93.8834 45.9129C94.4741 45.7883 95.0319 45.4093 95.3028 44.8071C96.4624 42.4355 97.815 40.2859 98.6558 39.4176C100.311 37.8079 103.203 37.8124 104.829 39.4188C106.556 41.1512 106.549 43.9494 104.832 45.6264L104.832 45.6264L104.827 45.6309C103.988 46.4719 101.837 47.88 99.4746 48.9915L99.4637 48.9966L99.4531 49.0022C98.9037 49.2938 98.5207 49.8119 98.3949 50.4425C98.2559 51.1389 98.5485 51.7091 98.9317 52.1228Z" fill="white" stroke="black"/>
<path d="M81.3648 55.2674L81.3625 55.2697C79.6535 56.9502 76.65 56.9108 74.9567 55.2674L74.9568 55.2674L74.9519 55.2628C74.5192 54.8538 73.9489 54.1146 73.3269 53.1578C72.7116 52.2113 72.0631 51.0789 71.4689 49.9022C71.1966 49.3162 70.6317 48.8968 70.0189 48.7977L69.9792 48.7913H69.9391H69.688C69.1812 48.7913 68.6664 48.9483 68.2539 49.3772L61.1265 56.2715L55.9301 51.2702C57.7132 50.2355 59.208 49.2192 60.0691 48.3838C63.4113 45.1653 63.4091 39.8943 60.0705 36.6532C56.765 33.42 51.3379 33.4184 48.0303 36.6485C47.1369 37.4709 46.083 38.9495 45.0536 40.6674L39.8775 35.6227L46.9476 28.7378C47.487 28.3026 47.632 27.621 47.5373 27.0389L47.5373 27.0389L47.5366 27.0345C47.4353 26.4446 47.0372 25.8658 46.4336 25.5729L46.4336 25.5729L46.43 25.5712C45.2139 24.9931 44.0434 24.3617 43.0654 23.7629C42.0788 23.1587 41.3163 22.6047 40.8947 22.1844L40.8947 22.1844L40.8899 22.1797C40.0509 21.3654 39.5605 20.2738 39.5605 19.1274C39.5605 17.9598 40.0486 16.8657 40.8935 15.9987C42.6103 14.3609 45.6124 14.366 47.2981 16.002C48.1882 16.866 49.5885 19.0189 50.7889 21.4219L50.7959 21.4358L50.8036 21.4492C51.0921 21.9468 51.6103 22.3677 52.2529 22.4705C52.8984 22.5978 53.5634 22.3689 54.0006 21.9168L61.1274 14.9999L82.3771 35.6237L75.2896 42.5489C75.2894 42.549 75.2892 42.5492 75.2891 42.5493C74.8407 42.9847 74.583 43.5858 74.7192 44.2654C74.8277 44.9083 75.2734 45.4153 75.811 45.6914L75.8178 45.695L75.8248 45.6983C77.0409 46.2764 78.2114 46.9077 79.1894 47.5066C80.176 48.1107 80.9385 48.6648 81.3601 49.085L81.3601 49.0851L81.3649 49.0897C83.1206 50.7938 83.1206 53.5633 81.3648 55.2674Z" fill="#5DB947" stroke="black"/>
<path d="M30.556 72.799L30.5495 72.7927L30.5428 72.7866C30.0465 72.3374 29.4292 72.1903 28.8513 72.2198L28.8136 72.2217L28.7767 72.2293C28.1768 72.3517 27.6027 72.7254 27.3219 73.3292C26.1214 75.7046 24.7234 77.8517 23.8592 78.6897L23.8569 78.692C22.1422 80.3766 19.142 80.3733 17.4555 78.6943L17.4555 78.6943L17.4508 78.6897C16.5684 77.834 16.1216 76.7461 16.1216 75.5918C16.1216 74.4134 16.568 73.3524 17.4461 72.5227L17.4462 72.5227L17.4508 72.5182C18.3168 71.6784 20.5367 70.3196 22.9909 69.154L22.9909 69.154L22.9945 69.1523C23.6005 68.8584 23.966 68.3307 24.0945 67.7079L24.0962 67.6997L24.0976 67.6915C24.2053 67.0647 23.9497 66.454 23.5508 66.0078L23.5387 65.9941L23.5255 65.9814L16.415 59.1094L21.6143 54.0465C22.6394 55.7623 23.6725 57.2415 24.5639 58.0837C27.8982 61.3396 33.3015 61.3104 36.6307 58.0821C39.9713 54.8426 39.9713 49.5757 36.6307 46.3362L36.6308 46.3361L36.6206 46.3267C35.7463 45.5247 34.2833 44.4982 32.4985 43.5105L37.6654 38.4582L44.8157 45.3687C45.2562 45.8237 45.9181 46.0447 46.5507 45.9479L46.5629 45.946L46.575 45.9435C47.1756 45.8209 47.7503 45.4465 48.0308 44.8415C49.1997 42.4792 50.6214 40.3296 51.4915 39.4598C53.2815 37.7959 56.1389 37.7963 57.9284 39.461C59.6845 41.1907 59.6767 43.9773 57.9296 45.6512C57.0329 46.4972 54.8064 47.9056 52.3683 49.0153L52.3575 49.0202L52.347 49.0256C51.7911 49.311 51.3845 49.8271 51.2799 50.4771C51.1466 51.143 51.367 51.7213 51.825 52.1658C51.8252 52.166 51.8254 52.1662 51.8256 52.1664L58.9377 59.1093L37.6641 79.7151L30.556 72.799Z" fill="white" stroke="black"/>
<path d="M88.3097 31.673L88.3111 31.6744C88.7259 32.0891 89.2691 32.2976 89.8118 32.2976C90.3462 32.2976 90.8874 32.0964 91.3016 31.6829C92.1316 30.8615 92.1327 29.5227 91.3147 28.6949L91.314 28.6942L71.6609 8.8822L71.6609 8.88219L71.6587 8.88008C70.8337 8.05829 69.5007 8.04462 68.6693 8.87193C67.839 9.69325 67.8378 11.0323 68.6559 11.8602L68.6566 11.8609L88.3097 31.673Z" fill="white" stroke="black"/>
<path d="M89.0263 87.2604L89.026 87.2607C88.1914 88.0725 88.1667 89.412 88.9839 90.2496C89.3972 90.6756 89.9479 90.8901 90.4994 90.8901C91.0293 90.8901 91.5593 90.6914 91.9706 90.2963L91.9725 90.2944L102.962 79.6224L102.963 79.6221C103.797 78.8104 103.822 77.4715 103.005 76.6339C102.195 75.7924 100.859 75.7779 100.018 76.5866L100.018 76.5866L100.016 76.5883L89.0263 87.2604Z" fill="white" stroke="black"/>
</svg>
