<svg width="128" height="100" viewBox="0 0 128 100" fill="none" xmlns="http://www.w3.org/2000/svg">
<path d="M8.15408 59.847C8.25277 59.945 8.3866 60 8.52614 60C8.66569 60 8.79952 59.945 8.89821 59.847L11.5032 57.261L14.1081 59.847C14.2074 59.9422 14.3403 59.9949 14.4783 59.9937C14.6163 59.9925 14.7483 59.9375 14.8459 59.8407C14.9434 59.7438 14.9988 59.6128 15 59.4758C15.0012 59.3388 14.9481 59.2069 14.8523 59.1083L11.8752 56.153C11.7766 56.055 11.6427 56 11.5032 56C11.3636 56 11.2298 56.055 11.1311 56.153L8.15408 59.1083C8.05542 59.2063 8 59.3392 8 59.4777C8 59.6162 8.05542 59.7491 8.15408 59.847Z" fill="#5DB947"/>
<path d="M110.154 23.847C110.253 23.945 110.387 24 110.526 24C110.666 24 110.8 23.945 110.898 23.847L113.503 21.261L116.108 23.847C116.207 23.9422 116.34 23.9949 116.478 23.9937C116.616 23.9925 116.748 23.9375 116.846 23.8407C116.943 23.7438 116.999 23.6128 117 23.4758C117.001 23.3388 116.948 23.2069 116.852 23.1083L113.875 20.153C113.777 20.055 113.643 20 113.503 20C113.364 20 113.23 20.055 113.131 20.153L110.154 23.1083C110.055 23.2063 110 23.3392 110 23.4777C110 23.6162 110.055 23.7491 110.154 23.847Z" fill="#5DB947"/>
<path d="M106.154 77.847C106.253 77.945 106.387 78 106.526 78C106.666 78 106.8 77.945 106.898 77.847L109.503 75.261L112.108 77.847C112.207 77.9422 112.34 77.9949 112.478 77.9937C112.616 77.9925 112.748 77.9375 112.846 77.8407C112.943 77.7438 112.999 77.6128 113 77.4758C113.001 77.3388 112.948 77.2069 112.852 77.1083L109.875 74.153C109.777 74.055 109.643 74 109.503 74C109.364 74 109.23 74.055 109.131 74.153L106.154 77.1083C106.055 77.2063 106 77.3392 106 77.4777C106 77.6162 106.055 77.7491 106.154 77.847Z" fill="#5DB947"/>
<path d="M15.1541 13.847C15.2528 13.945 15.3866 14 15.5261 14C15.6657 14 15.7995 13.945 15.8982 13.847L18.5032 11.261L21.1081 13.847C21.2074 13.9422 21.3403 13.9949 21.4783 13.9937C21.6163 13.9925 21.7483 13.9375 21.8459 13.8407C21.9434 13.7438 21.9988 13.6128 22 13.4758C22.0012 13.3388 21.9481 13.2069 21.8523 13.1083L18.8752 10.153C18.7766 10.055 18.6427 10 18.5032 10C18.3636 10 18.2298 10.055 18.1311 10.153L15.1541 13.1083C15.0554 13.2063 15 13.3392 15 13.4777C15 13.6162 15.0554 13.7491 15.1541 13.847Z" fill="#5DB947"/>
<path fill-rule="evenodd" clip-rule="evenodd" d="M33.4492 12.739C32.6523 12.739 32 12.0944 32 11.2898C32 10.4929 32.6445 9.84056 33.4492 9.84056H38.3672C39.1641 9.84056 39.8164 10.4851 39.8164 11.2898C39.8164 12.0866 39.1719 12.739 38.3672 12.739H33.4492ZM33.4492 7.89126H40.918L45.6016 13.2077C38.2227 22.1374 39.3477 35.3287 48.1211 42.9027L54.6328 34.2386C52.7148 32.3324 51.5195 29.6878 51.5195 26.7698C51.5195 21.4534 55.4687 17.055 60.5898 16.3518L60.5937 5.50376C56.6132 5.76939 52.9296 7.12486 49.8477 9.28896L51.8789 11.5859C52.4102 12.1874 52.3477 13.0976 51.7461 13.625C51.1445 14.1562 50.2344 14.0937 49.707 13.4921L42.6953 5.53125C42.4297 5.20313 42.0234 5 41.5742 5H33.4531C32.6562 5 32.0039 5.64453 32.0039 6.4492C32 7.23826 32.6523 7.89126 33.4492 7.89126ZM88.8282 41.3403C89.6251 41.3403 90.2774 41.9848 90.2774 42.7895C90.2774 43.5863 89.6329 44.2387 88.8282 44.2387H83.9102C83.1133 44.2387 82.461 43.5941 82.461 42.7895C82.461 41.9926 83.1055 41.3403 83.9102 41.3403H88.8282ZM88.8282 46.188C89.6251 46.188 90.2774 46.8325 90.2774 47.6372C90.2774 48.434 89.6329 49.0864 88.8282 49.0864H80.7032C80.254 49.0864 79.8477 48.8832 79.5821 48.5551L72.5704 40.5942C72.0391 39.9927 71.1329 39.9419 70.5313 40.4614C69.9297 40.9927 69.879 41.8989 70.3985 42.5005L72.754 45.1724C65.8048 49.2349 57.133 49.0083 50.406 44.6333L56.9294 35.9536C61.8669 38.6997 68.1014 37.0356 71.0314 32.2075L80.9923 36.5044C80.0235 38.3833 78.7892 40.0982 77.3282 41.5982L81.3673 46.192L88.8282 46.188ZM88.8282 9.85196C89.6251 9.85196 90.2774 10.4965 90.2774 11.3012C90.2774 12.098 89.6329 12.7504 88.8282 12.7504H83.9102C83.1133 12.7504 82.461 12.1058 82.461 11.3012C82.461 10.5043 83.1055 9.85196 83.9102 9.85196H88.8282ZM88.8282 5.00426H80.7032C80.254 5.00426 79.8477 5.20739 79.5821 5.53551L72.5704 13.4964C72.0391 14.098 71.1329 14.1488 70.5313 13.6292C69.9297 13.098 69.879 12.1917 70.3985 11.5901L73.0821 8.55102C70.2462 6.82832 66.9805 5.74632 63.4688 5.51192V16.3479C69.7461 17.2151 73.8558 23.4299 72.1641 29.5629L82.125 33.8598C84.7969 26.2895 82.9726 17.9418 77.5742 12.1958L81.3594 7.89892H88.8282C89.6251 7.89892 90.2774 7.25439 90.2774 6.44972C90.2774 5.64505 89.6251 5.00426 88.8282 5.00426ZM43.9802 93.3203C44.6755 83.9922 52.531 76.5743 62.0312 76.5743C71.5314 76.5743 79.3862 83.9923 80.0822 93.3203C80.133 94.0546 79.5627 94.6758 78.8283 94.6758H45.2343C44.4999 94.6758 43.9177 94.0625 43.9802 93.3203ZM62.0312 56.0623C56.625 56.0623 52.246 60.4412 52.246 65.8475C52.246 71.2538 56.6249 75.6327 62.0312 75.6327C67.4375 75.6327 71.8164 71.2538 71.8164 65.8475C71.8164 60.4412 67.4375 56.0623 62.0312 56.0623Z" fill="#C8F4BD"/>
<path fill-rule="evenodd" clip-rule="evenodd" d="M39.1674 52.1179C34.0346 52.1179 29.8705 56.282 29.8705 61.4148C29.8705 66.5476 34.0346 70.7117 39.1674 70.7117C44.3002 70.7117 48.4643 66.5476 48.4643 61.4148C48.4604 56.2781 44.3002 52.1179 39.1674 52.1179ZM71.7693 76.4332C76.4529 79.0973 80.0349 83.5152 81.574 88.8122H99.636C100.339 88.8122 100.882 88.2184 100.831 87.527C100.167 78.6598 92.6985 71.609 83.6793 71.609C79.066 71.6051 74.859 73.4528 71.7693 76.4332ZM22.0033 87.5232C21.9525 88.2263 22.4916 88.8084 23.1986 88.8084H41.2606C42.8114 83.5115 46.3934 79.0936 51.0653 76.4294C47.9637 73.4489 43.7606 71.6013 39.1473 71.6013C30.1356 71.6052 22.6673 78.656 22.0023 87.5233L22.0033 87.5232ZM83.6753 52.1172C78.5425 52.1172 74.3784 56.2813 74.3784 61.4141C74.3784 66.5469 78.5425 70.711 83.6753 70.711C88.8081 70.711 92.9722 66.5469 92.9722 61.4141C92.9839 56.2774 88.8199 52.1172 83.6753 52.1172Z" fill="#C8F4BD"/>
<path d="M41.2932 8.56074L41.1439 8.39126H40.918H33.4492C32.9265 8.39126 32.5014 7.96071 32.5039 7.45168L32.5039 7.45168V7.4492C32.5039 6.92242 32.9306 6.5 33.4531 6.5H41.5742C41.8703 6.5 42.1346 6.63324 42.3067 6.84585L42.3132 6.85393L42.3201 6.86173L49.331 14.8218C49.3311 14.8218 49.3312 14.8219 49.3312 14.822C50.0395 15.6296 51.2657 15.7156 52.0764 15.0003C52.8838 14.2918 52.9694 13.0654 52.2537 12.2549L52.2535 12.2546L50.5979 10.3825C53.3688 8.54712 56.6068 7.36713 60.0935 7.04508L60.09 16.9245C54.9361 17.8426 51.0195 22.3505 51.0195 27.7698C51.0195 30.6698 52.1468 33.3119 53.9767 35.2793L48.0469 43.1692C39.8471 35.721 38.8958 23.1078 45.987 14.5262L46.2588 14.1973L45.9768 13.8771L41.2932 8.56074ZM71.2251 33.8356L80.2961 37.7487C79.3911 39.3991 78.2727 40.9119 76.97 42.2494L76.6471 42.5809L76.9527 42.9284L80.9918 47.5222L81.1412 47.6922L81.3676 47.692L88.8282 47.688C88.8283 47.688 88.8284 47.688 88.8284 47.688C89.3508 47.6881 89.7774 48.1105 89.7774 48.6372C89.7774 49.1596 89.355 49.5864 88.8282 49.5864H80.7032C80.4071 49.5864 80.1428 49.4531 79.9707 49.2405L79.9642 49.2324L79.9573 49.2246L72.9456 41.2637L72.9452 41.2632C72.2293 40.4526 71.0097 40.3876 70.2045 41.083L70.2045 41.083L70.2003 41.0866C69.3897 41.8025 69.3247 43.0221 70.0201 43.8273L70.0234 43.8311L71.9712 46.0405C65.4358 49.6077 57.4611 49.3885 51.1314 45.5004L57.0724 37.5955C62.051 40.1141 68.1481 38.4863 71.2251 33.8356ZM79.9573 6.86599L79.9642 6.85819L79.9707 6.85011C80.1428 6.6375 80.4071 6.50426 80.7032 6.50426H88.8282C89.3524 6.50426 89.7774 6.92463 89.7774 7.44972C89.7774 7.9765 89.3507 8.39892 88.8282 8.39892H81.3594H81.1335L80.9842 8.56841L77.199 12.8653L76.8983 13.2067L77.2098 13.5382C82.3609 19.0209 84.1796 26.9299 81.8253 34.186L72.754 30.2729C74.195 24.1297 70.1582 18.0228 63.9688 16.9208V7.05323C66.9857 7.33196 69.8061 8.25255 72.3059 9.6746L70.0237 12.2592L70.0237 12.2591L70.0201 12.2633C69.3247 13.0685 69.3897 14.2881 70.2003 15.004L70.2003 15.004L70.2045 15.0076C71.0097 15.703 72.2293 15.638 72.9452 14.8274L72.9456 14.8269L79.9573 6.86599ZM44.4785 94.3622L44.4788 94.3574C45.1548 85.2881 52.7949 78.0743 62.0312 78.0743C71.2669 78.0743 78.9061 85.2874 79.5835 94.356C79.6139 94.8062 79.2671 95.1758 78.8283 95.1758H45.2343C44.7855 95.1758 44.4411 94.8057 44.4785 94.3622ZM33.4492 13.239C32.9267 13.239 32.5 12.8165 32.5 12.2898C32.5 11.7673 32.9224 11.3406 33.4492 11.3406H38.3672C38.8897 11.3406 39.3164 11.763 39.3164 12.2898C39.3164 12.8122 38.894 13.239 38.3672 13.239H33.4492ZM88.8282 42.8403C89.3507 42.8403 89.7774 43.2627 89.7774 43.7895C89.7774 44.312 89.355 44.7387 88.8282 44.7387H83.9102C83.3877 44.7387 82.961 44.3162 82.961 43.7895C82.961 43.267 83.3834 42.8403 83.9102 42.8403H88.8282ZM88.8282 11.352C89.3507 11.352 89.7774 11.7744 89.7774 12.3012C89.7774 12.8236 89.355 13.2504 88.8282 13.2504H83.9102C83.3877 13.2504 82.961 12.8279 82.961 12.3012C82.961 11.7787 83.3834 11.352 83.9102 11.352H88.8282ZM52.746 66.8475C52.746 61.7173 56.9011 57.5623 62.0312 57.5623C67.1614 57.5623 71.3164 61.7173 71.3164 66.8475C71.3164 71.9776 67.1614 76.1327 62.0312 76.1327C56.901 76.1327 52.746 71.9776 52.746 66.8475Z" fill="white" stroke="black"/>
<path d="M22.5121 88.4197L22.502 88.5592C22.4721 88.9736 22.7827 89.3084 23.1986 89.3084H40.8895C42.4629 84.2657 45.8415 80.0319 50.233 77.3408C47.2735 74.7098 43.3883 73.1013 39.1475 73.1013L22.5121 88.4197ZM22.5121 88.4197C23.2258 79.8772 30.4476 73.1052 39.1473 73.1013L22.5121 88.4197ZM81.9459 89.3122C80.3827 84.2684 77.0034 80.0343 72.6012 77.3434C75.5504 74.7135 79.4384 73.1054 83.6789 73.109H83.6793C92.4342 73.109 99.6876 79.9552 100.333 88.5636C100.362 88.9674 100.046 89.3122 99.636 89.3122H81.9459ZM92.4722 62.4129V62.4141C92.4722 67.2707 88.532 71.211 83.6753 71.211C78.8187 71.211 74.8784 67.2707 74.8784 62.4141C74.8784 57.5574 78.8187 53.6172 83.6753 53.6172C88.5445 53.6172 92.4833 57.554 92.4722 62.4129ZM30.3705 62.4148C30.3705 57.5581 34.3108 53.6179 39.1674 53.6179C44.0239 53.6179 47.9606 57.5541 47.9643 62.4152C47.9641 67.2717 44.0239 71.2117 39.1674 71.2117C34.3108 71.2117 30.3705 67.2714 30.3705 62.4148Z" fill="#5DB947" stroke="black"/>
</svg>
