<svg width="128" height="100" viewBox="0 0 128 100" fill="none" xmlns="http://www.w3.org/2000/svg">
<path d="M19.1541 62.847C19.2528 62.945 19.3866 63 19.5261 63C19.6657 63 19.7995 62.945 19.8982 62.847L22.5032 60.261L25.1081 62.847C25.2074 62.9422 25.3403 62.9949 25.4783 62.9937C25.6163 62.9925 25.7483 62.9375 25.8459 62.8407C25.9434 62.7438 25.9988 62.6128 26 62.4758C26.0012 62.3388 25.9481 62.2069 25.8523 62.1083L22.8752 59.153C22.7766 59.055 22.6427 59 22.5032 59C22.3636 59 22.2298 59.055 22.1311 59.153L19.1541 62.1083C19.0554 62.2063 19 62.3392 19 62.4777C19 62.6162 19.0554 62.7491 19.1541 62.847Z" fill="#5DB947"/>
<path d="M120.154 34.847C120.253 34.945 120.387 35 120.526 35C120.666 35 120.8 34.945 120.898 34.847L123.503 32.261L126.108 34.847C126.207 34.9422 126.34 34.9949 126.478 34.9937C126.616 34.9925 126.748 34.9375 126.846 34.8407C126.943 34.7438 126.999 34.6128 127 34.4758C127.001 34.3388 126.948 34.2069 126.852 34.1083L123.875 31.153C123.777 31.055 123.643 31 123.503 31C123.364 31 123.23 31.055 123.131 31.153L120.154 34.1083C120.055 34.2063 120 34.3392 120 34.4777C120 34.6162 120.055 34.7491 120.154 34.847Z" fill="#5DB947"/>
<path d="M101.154 62.847C101.253 62.945 101.387 63 101.526 63C101.666 63 101.8 62.945 101.898 62.847L104.503 60.261L107.108 62.847C107.207 62.9422 107.34 62.9949 107.478 62.9937C107.616 62.9925 107.748 62.9375 107.846 62.8407C107.943 62.7438 107.999 62.6128 108 62.4758C108.001 62.3388 107.948 62.2069 107.852 62.1083L104.875 59.153C104.777 59.055 104.643 59 104.503 59C104.364 59 104.23 59.055 104.131 59.153L101.154 62.1083C101.055 62.2063 101 62.3392 101 62.4777C101 62.6162 101.055 62.7491 101.154 62.847Z" fill="#5DB947"/>
<path d="M30.1541 18.847C30.2528 18.945 30.3866 19 30.5261 19C30.6657 19 30.7995 18.945 30.8982 18.847L33.5032 16.261L36.1081 18.847C36.2074 18.9422 36.3403 18.9949 36.4783 18.9937C36.6163 18.9925 36.7483 18.9375 36.8459 18.8407C36.9434 18.7438 36.9988 18.6128 37 18.4758C37.0012 18.3388 36.9481 18.2069 36.8523 18.1083L33.8752 15.153C33.7766 15.055 33.6427 15 33.5032 15C33.3636 15 33.2298 15.055 33.1311 15.153L30.1541 18.1083C30.0554 18.2063 30 18.3392 30 18.4777C30 18.6162 30.0554 18.7491 30.1541 18.847Z" fill="#5DB947"/>
<path fill-rule="evenodd" clip-rule="evenodd" d="M73.586 29.51L78.429 24.997C76.125 23.184 73.533 21.724 70.734 20.7C67.729 19.6 64.477 19 61.078 19C53.325 19 46.305 22.143 41.224 27.224C36.143 32.305 33 39.324 33 47.078C33 54.832 36.143 61.851 41.224 66.932C46.305 72.013 53.324 75.155 61.078 75.155C68.832 75.155 75.851 72.012 80.932 66.932C86.013 61.851 89.156 54.832 89.156 47.078C89.156 44.052 88.682 41.146 87.804 38.43C87 35.942 85.854 33.602 84.422 31.466L79.573 35.985C80.508 37.542 81.254 39.231 81.777 41.021C82.342 42.953 82.645 44.986 82.645 47.078C82.645 53.033 80.231 58.424 76.329 62.327C72.426 66.23 67.035 68.644 61.08 68.644C55.125 68.644 49.733 66.23 45.831 62.327C41.928 58.424 39.515 53.033 39.515 47.078C39.515 41.123 41.929 35.732 45.831 31.829C49.734 27.926 55.125 25.513 61.08 25.513C63.462 25.513 65.764 25.904 67.923 26.626C69.968 27.31 71.873 28.289 73.589 29.512L73.586 29.51ZM57.665 44.348C56.877 45.082 56.46 46.071 56.423 47.074C56.386 48.071 56.73 49.085 57.463 49.876L58.129 50.595C58.494 50.989 58.907 51.292 59.367 51.503C59.828 51.714 60.326 51.831 60.86 51.85C61.391 51.869 61.895 51.79 62.372 51.612C62.851 51.433 63.286 51.163 63.673 50.802L70.352 44.577C70.398 44.747 70.439 44.919 70.475 45.091C70.607 45.722 70.677 46.386 70.677 47.078C70.677 49.729 69.603 52.129 67.865 53.866C66.128 55.603 63.728 56.678 61.077 56.678C55.775 56.678 51.477 52.38 51.477 47.078C51.477 44.427 52.551 42.027 54.289 40.29C56.026 38.553 58.426 37.478 61.077 37.478C61.89 37.478 62.674 37.577 63.417 37.763C63.755 37.848 64.084 37.949 64.404 38.067L57.664 44.349L57.665 44.348ZM73.503 75.272C76.28 74.046 78.841 72.423 81.115 70.473L89.059 90.112H79.506L73.503 75.272ZM41.039 70.473C43.313 72.423 45.875 74.046 48.651 75.272L42.648 90.112H33.095L41.039 70.473Z" fill="#C8F4BD"/>
<path fill-rule="evenodd" clip-rule="evenodd" d="M67.333 37.523C66.54 37.127 65.705 36.814 64.839 36.598C63.873 36.356 62.867 36.228 61.838 36.228C58.434 36.228 55.352 37.608 53.122 39.839C50.891 42.07 49.511 45.152 49.511 48.555C49.511 55.363 55.03 60.882 61.838 60.882C65.242 60.882 68.324 59.502 70.554 57.271C72.785 55.04 74.165 51.958 74.165 48.555C74.165 47.695 74.073 46.844 73.899 46.014C73.754 45.321 73.552 44.653 73.3 44.015L78.29 39.364C78.975 40.586 79.527 41.889 79.926 43.253C80.415 44.924 80.677 46.703 80.677 48.554C80.677 53.756 78.568 58.466 75.16 61.875C71.751 65.284 67.041 67.393 61.839 67.393C56.637 67.393 51.927 65.284 48.518 61.875C45.109 58.466 43 53.756 43 48.554C43 43.352 45.109 38.642 48.518 35.233C51.927 31.824 56.637 29.715 61.839 29.715C63.939 29.715 65.949 30.054 67.819 30.679C69.42 31.214 70.927 31.961 72.309 32.887L67.335 37.522L67.333 37.523ZM92.592 13.983L81.796 24.045L79.282 18.019L90.096 8L92.592 13.983ZM87.816 30.486L98.587 20.448L104.348 23.386L93.536 33.403L87.816 30.486ZM84.233 30.105L62.578 50.286C62.449 50.406 62.317 50.492 62.183 50.542C62.046 50.593 61.89 50.615 61.715 50.609C61.543 50.603 61.39 50.569 61.256 50.507C61.121 50.445 60.996 50.352 60.881 50.228L60.215 49.509C59.992 49.269 59.888 48.956 59.899 48.646C59.91 48.342 60.037 48.041 60.278 47.817L96.371 14.181C96.959 13.633 97.609 13.591 98.125 13.834C98.345 13.937 98.55 14.091 98.726 14.281C98.902 14.47 99.041 14.688 99.13 14.919C99.337 15.457 99.25 16.11 98.659 16.661L97.532 17.712C97.458 17.768 97.389 17.832 97.327 17.903L84.813 29.565C84.578 29.68 84.372 29.864 84.233 30.105Z" fill="#C8F4BD"/>
<path d="M73.594 31.9956L73.9269 32.3528L78.7699 27.8398L79.1968 27.442L78.7382 27.0811C76.3936 25.2361 73.7554 23.75 70.9059 22.7075L73.594 31.9956ZM73.594 31.9956L73.3116 32.4051L73.3086 32.4031L72.7825 32.0523L72.7904 32.045M73.594 31.9956L72.7904 32.045M72.7904 32.045C71.249 31.0132 69.562 30.1785 67.7644 29.5772C65.6555 28.872 63.407 28.49 61.08 28.49C55.2629 28.49 49.9976 30.8466 46.1846 34.6596C42.3725 38.4727 40.015 43.738 40.015 49.555C40.015 55.3721 42.3715 60.6375 46.1846 64.4505L46.1846 64.4505C49.9966 68.2636 55.2629 70.6211 61.08 70.6211C66.897 70.6211 72.1624 68.2636 75.9754 64.4505M72.7904 32.045L75.9754 64.4505M75.9754 64.4505L76.329 64.8041M75.9754 64.4505L76.329 64.8041M76.329 64.8041C80.231 60.9011 82.645 55.51 82.645 49.555C82.645 47.4631 82.342 45.43 81.777 43.498L61.08 27.99C55.125 27.99 49.734 30.4031 45.831 34.3061C41.929 38.2091 39.515 43.6 39.515 49.555C39.515 55.51 41.928 60.9011 45.831 64.8041C49.733 68.7071 55.125 71.1211 61.08 71.1211C67.035 71.1211 72.426 68.7071 76.329 64.8041ZM70.4845 47.614C70.6104 48.2313 70.677 48.8798 70.677 49.555C70.677 52.2061 69.603 54.606 67.865 56.343C66.128 58.08 63.728 59.155 61.077 59.155C55.775 59.155 51.477 54.857 51.477 49.555L70.4845 47.614ZM70.4845 47.614L70.5509 47.5522L70.6929 47.4198L70.352 47.054L69.8694 47.1846C69.8925 47.2702 69.9143 47.3563 69.9348 47.4429L63.673 53.279C63.286 53.64 62.851 53.91 62.372 54.089L70.4845 47.614ZM53.9354 42.4135C55.7623 40.5866 58.288 39.455 61.077 39.455C61.9307 39.455 62.7555 39.559 63.5384 39.755L63.5389 39.7551C63.8934 39.8443 64.2395 39.9505 64.577 40.0749L65.3391 40.356L64.7449 40.9098L58.0049 47.1918L58.0049 47.1918C57.319 47.8312 56.955 48.6927 56.9227 49.5695L56.9227 49.5696C56.8904 50.4395 57.1903 51.3231 57.8297 52.0132L57.8298 52.0133L58.4958 52.7323C58.8188 53.0809 59.1787 53.3435 59.5751 53.5254C59.9741 53.708 60.4072 53.8106 60.8778 53.8274L60.8779 53.8274C61.3464 53.8441 61.7846 53.7745 62.197 53.6207C62.6129 53.4652 62.9918 53.2307 63.3319 52.9134L63.3321 52.9133L70.0111 46.6883L70.618 46.1227L70.8346 46.9234C70.8833 47.1032 70.9265 47.2846 70.9644 47.4656L70.9644 47.4657C71.1036 48.1309 71.177 48.8292 71.177 49.555C71.177 52.3439 70.0466 54.8696 68.2186 56.6966L53.9354 42.4135ZM53.9354 42.4135C52.1074 44.2405 50.977 46.7662 50.977 49.555C50.977 55.1332 55.4989 59.655 61.077 59.655C63.8659 59.655 66.3916 58.5235 68.2184 56.6967L53.9354 42.4135ZM89.656 49.555C89.656 46.4766 89.1737 43.5187 88.2798 40.7533L70.9058 22.7075C67.8463 21.5876 64.5362 20.9771 61.078 20.9771C53.1871 20.9771 46.0414 24.1766 40.8704 29.3475C35.6995 34.5184 32.5 41.6631 32.5 49.555C32.5 57.447 35.6995 64.5917 40.8704 69.7626C46.0414 74.9336 53.1861 78.132 61.078 78.132C68.9699 78.132 76.1146 74.9325 81.2855 69.7626L81.2856 69.7626C86.4565 64.5917 89.656 57.447 89.656 49.555ZM73.3011 77.2916L72.8578 77.4873L73.0395 77.9365L79.0425 92.7766L79.1689 93.0891H79.506H89.059H89.8006L89.5225 92.4016L81.5785 72.7626L81.3176 72.1176L80.7895 72.5705C78.5523 74.489 76.0328 76.0856 73.3011 77.2916ZM41.3645 72.5705L40.8364 72.1176L40.5755 72.7626L32.6315 92.4016L32.3534 93.0891H33.095H42.648H42.9851L43.1115 92.7766L49.1145 77.9365L49.2962 77.4874L48.853 77.2917C46.1222 76.0856 43.6017 74.489 41.3645 72.5705Z" fill="white" stroke="black"/>
<path d="M72.899 47.014C73.073 47.844 73.165 48.695 73.165 49.555C73.165 52.958 71.785 56.04 69.554 58.271C67.324 60.502 64.242 61.882 60.838 61.882C54.03 61.882 48.511 56.363 48.511 49.555C48.511 46.152 49.891 43.07 52.122 40.839C54.352 38.608 57.434 37.228 60.838 37.228C61.867 37.228 62.873 37.356 63.839 37.598L72.899 47.014ZM72.899 47.014C72.754 46.321 72.552 45.653 72.3 45.015L72.899 47.014ZM83.6287 31.4197L83.5739 31.4708L61.9189 51.6518L61.9186 51.6521C61.7533 51.8058 61.5667 51.9325 61.3578 52.0105L61.3574 52.0106C61.1475 52.0887 60.9243 52.1165 60.6979 52.1087L60.6976 52.1087C60.4699 52.1007 60.2497 52.055 60.046 51.9608C59.8442 51.8679 59.6676 51.7331 59.5144 51.568L59.5142 51.5678L58.8487 50.8493L83.6287 31.4197ZM83.6287 31.4197L83.6661 31.3548M83.6287 31.4197L83.6661 31.3548M83.6661 31.3548C83.753 31.2042 83.8827 31.0875 84.0328 31.0141L84.0995 30.9814L84.1539 30.9308L96.6679 19.2688L96.6867 19.2512L96.7036 19.2319C96.7427 19.1871 96.7865 19.1464 96.8337 19.1107L96.8542 19.0952L96.873 19.0777L98 18.0267C98.7388 17.3379 98.8776 16.4696 98.5966 15.7395L98.5966 15.7392C98.4831 15.4448 98.3086 15.1731 98.0924 14.9407M83.6661 31.3548L98.0924 14.9407M58.3993 49.6283L58.3993 49.6279C58.4149 49.1972 58.5952 48.769 58.9376 48.4508L95.0301 14.8152C95.7645 14.1308 96.6331 14.0497 97.338 14.3816M58.3993 49.6283L97.338 14.3816M58.3993 49.6283C58.384 50.0604 58.5289 50.5048 58.8482 50.8488L58.3993 49.6283ZM97.338 14.3816C97.6218 14.5147 97.8776 14.709 98.0924 14.9407M97.338 14.3816L98.0924 14.9407M98.0924 14.9407C98.0922 14.9406 98.0921 14.9404 98.0919 14.9403L97.726 15.281L98.0928 14.9412C98.0927 14.9411 98.0925 14.9409 98.0924 14.9407ZM66.1096 38.9703L66.3331 39.0819L66.5566 38.9702L66.5586 38.9692L66.6231 38.937L66.6759 38.8878L71.6499 34.2528L72.1114 33.8228L71.5873 33.4716C70.169 32.5213 68.6218 31.7543 66.9775 31.2048C65.0566 30.5628 62.9931 30.215 60.839 30.215C55.4991 30.215 50.6634 32.3805 47.1644 35.8794C43.6655 39.3784 41.5 44.214 41.5 49.554C41.5 54.8939 43.6655 59.7296 47.1644 63.2286C50.6634 66.7275 55.4991 68.893 60.839 68.893C66.179 68.893 71.0146 66.7275 74.5136 63.2286L74.5136 63.2285C78.0115 59.7296 80.177 54.8939 80.177 49.554C80.177 47.6556 79.9083 45.8293 79.4059 44.1126C78.9961 42.7116 78.4293 41.3738 77.7262 40.1195L77.4148 39.5641L76.9491 39.9982L71.9591 44.6492L71.7097 44.8816L71.835 45.1987C72.0767 45.8107 72.2705 46.4515 72.4096 47.1164L72.4096 47.1166C72.5768 47.9141 72.665 48.7307 72.665 49.555C72.665 52.82 71.3415 55.7763 69.2004 57.9174L69.2004 57.9175C67.0603 60.0585 64.1041 61.382 60.838 61.382C54.3061 61.382 49.011 56.0869 49.011 49.555C49.011 46.29 50.3345 43.3336 52.4756 41.1926L52.4756 41.1925C54.6157 39.0515 57.5719 37.728 60.838 37.728C61.8254 37.728 62.7906 37.8508 63.7175 38.083L63.718 38.0831C64.5471 38.2899 65.3479 38.5899 66.1096 38.9703ZM91.9329 15.3488L92.1874 15.1116L92.0535 14.7905L89.5575 8.80749L89.2817 8.14638L88.7562 8.63322L77.9422 18.6522L77.6862 18.8894L77.8206 19.2115L80.3346 25.2375L80.6112 25.9007L81.1369 25.4108L91.9329 15.3488ZM86.4751 31.1202L85.9528 31.607L86.5889 31.9314L92.3089 34.8484L92.6198 35.007L92.8758 34.7698L103.688 24.7528L104.213 24.266L103.575 23.9406L97.8142 21.0026L97.5022 20.8435L97.2461 21.0822L86.4751 31.1202Z" fill="#5DB947" stroke="black"/>
</svg>
